G04 #@! TF.GenerationSoftware,KiCad,Pcbnew,5.0.2+dfsg1-1~bpo9+1*
G04 #@! TF.CreationDate,2019-10-30T13:19:41+01:00*
G04 #@! TF.ProjectId,zglue-jade-adapter,7a676c75-652d-46a6-9164-652d61646170,rev?*
G04 #@! TF.SameCoordinates,Original*
G04 #@! TF.FileFunction,Copper,L3,Inr*
G04 #@! TF.FilePolarity,Positive*
%FSLAX46Y46*%
G04 Gerber Fmt 4.6, Leading zero omitted, Abs format (unit mm)*
G04 Created by KiCad (PCBNEW 5.0.2+dfsg1-1~bpo9+1) date Wed 30 Oct 2019 01:19:41 PM CET*
%MOMM*%
%LPD*%
G01*
G04 APERTURE LIST*
G04 #@! TA.AperFunction,ViaPad*
%ADD10C,0.457000*%
G04 #@! TD*
G04 #@! TA.AperFunction,Conductor*
%ADD11C,0.110000*%
G04 #@! TD*
G04 #@! TA.AperFunction,Conductor*
%ADD12C,0.100000*%
G04 #@! TD*
G04 #@! TA.AperFunction,Conductor*
%ADD13C,0.150000*%
G04 #@! TD*
G04 #@! TA.AperFunction,Conductor*
%ADD14C,0.200000*%
G04 #@! TD*
G04 APERTURE END LIST*
D10*
G04 #@! TO.N,GND*
G04 #@! TO.C,U1*
X13095000Y-11155000D03*
X11895000Y-11155000D03*
X13095000Y-10005000D03*
X11895000Y-10005000D03*
X13095000Y-8855000D03*
X11845000Y-8855000D03*
X14045000Y-11155000D03*
X10945000Y-11155000D03*
X10945000Y-10005000D03*
X14045000Y-10005000D03*
X14045000Y-8855000D03*
X10945000Y-8855000D03*
G04 #@! TD*
G04 #@! TO.N,GND*
X9780755Y-14856245D03*
X22506000Y-17406000D03*
X19427000Y-8509000D03*
X17456963Y-5256963D03*
X1960000Y-10650000D03*
X2050000Y-8240000D03*
X8907225Y-15782715D03*
X4670000Y-12330000D03*
X4886500Y-12990000D03*
X4797104Y-9029614D03*
X3880000Y-11460000D03*
X7540000Y-5270000D03*
X5534679Y-6695321D03*
X4620000Y-11243500D03*
X13130000Y-17483500D03*
X11518001Y-17816500D03*
X7354722Y-14270000D03*
X7301618Y-15078505D03*
X3730000Y-16320000D03*
X17207360Y-14747360D03*
X20000000Y-7000000D03*
X19390245Y-11310245D03*
X19141499Y-19588501D03*
X10670000Y-18553510D03*
X23179563Y-7697502D03*
X23158448Y-11047568D03*
G04 #@! TO.N,/CSI_D2_IN_P*
X14400000Y-15995000D03*
X7496500Y-6787000D03*
G04 #@! TO.N,/CSI_D2_IN_N*
X13900573Y-15490783D03*
X8103500Y-6787000D03*
G04 #@! TO.N,/3V3_SYS*
X18270000Y-18650000D03*
X4380000Y-3040000D03*
X560000Y-17200000D03*
X12350000Y-1780000D03*
X14198500Y-11750000D03*
X19695318Y-12494682D03*
X20603510Y-16943500D03*
G04 #@! TO.N,/2V5*
X19960612Y-9356500D03*
X15962530Y-15957530D03*
G04 #@! TO.N,/1V8*
X11480000Y-18570000D03*
X15688058Y-17876196D03*
G04 #@! TO.N,/LED3_ISINK*
X13366026Y-12483965D03*
X2436000Y-10339000D03*
G04 #@! TO.N,/LED1_ISINK*
X12170000Y-12393000D03*
X2457000Y-9135000D03*
G04 #@! TO.N,/TMS*
X12761000Y-11860000D03*
X3099500Y-6470000D03*
G04 #@! TO.N,/VSENSE*
X12114000Y-11809000D03*
X15930000Y-18350000D03*
G04 #@! TO.N,/1V8_SYS*
X19670000Y-15250000D03*
X2157000Y-13757000D03*
X15732470Y-17262470D03*
X20810000Y-15690000D03*
X14938233Y-2121399D03*
G04 #@! TO.N,/LED2_ISINK*
X12822000Y-12389000D03*
X2443000Y-9766000D03*
G04 #@! TO.N,/EXTCLK_EN*
X10867000Y-11789000D03*
X6480000Y-18700000D03*
G04 #@! TO.N,/TDO*
X13603842Y-11725383D03*
X4026500Y-6450000D03*
G04 #@! TO.N,/3V3*
X19694963Y-16943500D03*
X7276762Y-15992510D03*
X7460000Y-18996490D03*
G04 #@! TO.N,/TDI*
X4394504Y-5357327D03*
X19720000Y-11850000D03*
G04 #@! TO.N,/PC_RDY*
X7896733Y-14906546D03*
X8990000Y-17816500D03*
X5879963Y-18769963D03*
G04 #@! TO.N,/TCK*
X1929500Y-6731000D03*
X14120000Y-8200000D03*
X5545355Y-8683500D03*
G04 #@! TO.N,/EXT_CLK*
X8336500Y-12665000D03*
X4260000Y-18010000D03*
G04 #@! TO.N,/I2C_0_SCL*
X19625000Y-10795000D03*
X1991000Y-11234000D03*
G04 #@! TO.N,/ZIP_EN_L*
X7945000Y-11743000D03*
X4092500Y-13780000D03*
G04 #@! TO.N,/PWR_BTN*
X8028000Y-11175500D03*
X3574500Y-10460000D03*
G04 #@! TO.N,/I2C_0_SDA*
X4990501Y-7976499D03*
X17583206Y-9549113D03*
G04 #@! TO.N,/CSI_D1_IN_N*
X4385393Y-7234607D03*
X15214500Y-16026314D03*
G04 #@! TO.N,/CSI_D1_IN_P*
X4814607Y-6805393D03*
X15015000Y-15320000D03*
G04 #@! TO.N,/CSI_CLK_IN_P*
X5059455Y-5500545D03*
X13075000Y-15820000D03*
G04 #@! TO.N,/CSI_CLK_IN_N*
X4670545Y-5889455D03*
X12575405Y-15229884D03*
G04 #@! TO.N,/CSI_CLK_OUT_N*
X17063822Y-13976178D03*
X20258878Y-4504548D03*
G04 #@! TO.N,/CTRL_SO*
X16300000Y-5630000D03*
X20550000Y-10440000D03*
G04 #@! TO.N,/CTRL_SI*
X17060000Y-8434000D03*
X20080000Y-3800000D03*
G04 #@! TO.N,/CTRL_SCK*
X15911314Y-9141860D03*
X20603500Y-11120000D03*
G04 #@! TO.N,/CSI_CLK_OUT_P*
X19701878Y-4504548D03*
X16669970Y-14370030D03*
G04 #@! TO.N,/ULPM_WAKE*
X10870000Y-8225000D03*
X4472000Y-4831000D03*
G04 #@! TO.N,/2V5_SYS*
X17000000Y-19210000D03*
G04 #@! TO.N,/USB_D_N*
X16995480Y-7749122D03*
X5201441Y-14010583D03*
X9236847Y-4308213D03*
G04 #@! TO.N,/USB_D_P*
X4772227Y-13581369D03*
X16569544Y-8157342D03*
X9236847Y-3751213D03*
G04 #@! TO.N,/DBG_TX*
X13673500Y-4820000D03*
X2636510Y-6913000D03*
G04 #@! TO.N,/PROC_SCK*
X20470000Y-6220000D03*
X8264249Y-5270001D03*
X8720000Y-2760000D03*
X18980000Y-2670000D03*
G04 #@! TO.N,/PROC_SI*
X20774517Y-4373618D03*
X13470000Y-8205000D03*
X16270000Y-2090000D03*
G04 #@! TO.N,/PROC_OUT_0*
X10090499Y-3749500D03*
G04 #@! TO.N,/PROC_OUT_1*
X10495000Y-4985000D03*
G04 #@! TO.N,/PROC_OUT_2*
X10800000Y-3820000D03*
G04 #@! TO.N,/USB_DET*
X3739000Y-12390000D03*
X5000000Y-18633500D03*
X8240000Y-18200000D03*
X16876205Y-9423855D03*
G04 #@! TO.N,/CTRL_SS*
X17558554Y-8958554D03*
X20695037Y-11775037D03*
G04 #@! TO.N,/PIO1*
X6938000Y-1533500D03*
X4223000Y-1828000D03*
G04 #@! TO.N,/DONE*
X10800000Y-4420000D03*
X21195000Y-12316000D03*
X16351465Y-4308595D03*
G04 #@! TO.N,/DBG_RX*
X14600900Y-4420000D03*
X2008526Y-7681492D03*
G04 #@! TO.N,/PIO2*
X12170000Y-8215000D03*
X5394359Y-1651490D03*
G04 #@! TO.N,/PROC_SS*
X20530000Y-6880000D03*
X9700000Y-2794500D03*
X17694485Y-4780928D03*
X18060000Y-2716500D03*
G04 #@! TO.N,/PROC_RST*
X7850000Y-4493213D03*
X9370000Y-4920000D03*
G04 #@! TO.N,/PROC_SO*
X20450000Y-5260000D03*
X12845000Y-8230000D03*
X15643493Y-1916568D03*
G04 #@! TO.N,/VUSB*
X4561442Y-14069832D03*
X4092500Y-14420000D03*
G04 #@! TO.N,/1V2_SYS*
X2110000Y-12870000D03*
G04 #@! TO.N,/E_PROC_RST*
X3941159Y-3526500D03*
G04 #@! TO.N,/E_PROC_SI*
X23097225Y-5730865D03*
G04 #@! TO.N,/E_PROC_SO*
X22835000Y-6268000D03*
G04 #@! TO.N,/E_PROC_SCK*
X23121000Y-6779000D03*
G04 #@! TO.N,/E_PROC_SS*
X22811000Y-7247000D03*
G04 #@! TO.N,/CTRL_RST_FLASH_SOC_CS*
X8516570Y-8715630D03*
X23118521Y-8226000D03*
G04 #@! TO.N,/E_CTRL_SI*
X23118521Y-8779000D03*
G04 #@! TO.N,/E_CTRL_SO*
X23118521Y-9345000D03*
G04 #@! TO.N,/E_CTRL_SCK*
X23149100Y-9876132D03*
G04 #@! TO.N,/E_CTRL_SS*
X23118521Y-10517059D03*
G04 #@! TO.N,/PIO8*
X12820000Y-7530000D03*
X13506401Y-383500D03*
G04 #@! TO.N,/PIO7*
X13350000Y-3950000D03*
X12550000Y-2320000D03*
G04 #@! TO.N,/PIO6*
X12170000Y-7530000D03*
X11086000Y-1651490D03*
G04 #@! TO.N,/VX*
X9530000Y-16510000D03*
X9400030Y-18600030D03*
G04 #@! TO.N,/AMUX*
X4325318Y-18714682D03*
X8008629Y-16051111D03*
G04 #@! TO.N,/DMUX*
X11501000Y-11799000D03*
X7820000Y-18560000D03*
G04 #@! TO.N,/FLASH_CLK*
X8932000Y-7433500D03*
G04 #@! TO.N,/FLASH_CS*
X8953786Y-9069130D03*
X22158500Y-14160000D03*
X22193000Y-12625000D03*
G04 #@! TO.N,/FLASH_IO0*
X8571782Y-8186500D03*
G04 #@! TO.N,/FLASH_IO1*
X8237231Y-9950200D03*
G04 #@! TO.N,/FLASH_IO2*
X7693646Y-10053945D03*
G04 #@! TO.N,/FLASH_IO3*
X7880255Y-9555745D03*
G04 #@! TO.N,/BOOST_OUT*
X9040000Y-16960000D03*
X1740000Y-19240000D03*
G04 #@! TO.N,Net-(TP34-Pad1)*
X17480000Y-6060000D03*
X15900000Y-3130000D03*
X22750000Y-1820000D03*
X16356490Y-6243000D03*
G04 #@! TO.N,Net-(TP35-Pad1)*
X15353500Y-4300000D03*
X20525000Y-2095000D03*
G04 #@! TO.N,/C_CSI_D1_OUT_N*
X17540000Y-11960000D03*
X19470000Y-6950000D03*
X20507414Y-8428473D03*
G04 #@! TO.N,/C_CSI_D1_OUT_P*
X17620000Y-10970000D03*
X17520000Y-6880000D03*
X20113554Y-8822333D03*
G04 #@! TO.N,/LP_CSI_D1_OUT_P*
X17170037Y-4360037D03*
X11803500Y-15452000D03*
G04 #@! TO.N,/LP_CSI_D1_OUT_N*
X17500000Y-3850000D03*
X12280000Y-18591500D03*
G04 #@! TO.N,/CSI_INT*
X11283648Y-14921634D03*
X3074500Y-8219122D03*
X9753530Y-18170001D03*
G04 #@! TO.N,/PROC_INT*
X17359218Y-18308646D03*
X21070000Y-16340000D03*
G04 #@! TO.N,/PIO14*
X16810000Y-7230000D03*
X16329908Y-9470213D03*
X15430000Y-3430000D03*
X16409748Y-1354576D03*
G04 #@! TO.N,/PIO13*
X17651963Y-8341963D03*
X13741367Y-1579040D03*
X21230000Y-14700000D03*
G04 #@! TO.N,/PIO0*
X11470000Y-8220000D03*
X1500000Y-1680000D03*
G04 #@! TD*
D11*
G04 #@! TO.N,/CSI_D2_IN_P*
X10624762Y-15193255D02*
X11956506Y-16525000D01*
X9050271Y-14423541D02*
X9117755Y-14391043D01*
X10528896Y-14994187D02*
X10545563Y-15067210D01*
X10545563Y-14846262D02*
X10528896Y-14919285D01*
X10715934Y-14629048D02*
X10624762Y-14720217D01*
X10757491Y-14542753D02*
X10750266Y-14574408D01*
X10757490Y-14510283D02*
X10757491Y-14542753D01*
X9922535Y-13675327D02*
X9954190Y-13682552D01*
X10736178Y-14449374D02*
X10750266Y-14478628D01*
X10690548Y-14403744D02*
X10715933Y-14423988D01*
X8913063Y-13526294D02*
X8913063Y-13558764D01*
X10661294Y-14389656D02*
X10690548Y-14403744D01*
X10361143Y-14561861D02*
X10419704Y-14515160D01*
X10293659Y-14594358D02*
X10361143Y-14561861D01*
X10419704Y-14515160D02*
X10434209Y-14500655D01*
X10220636Y-14611026D02*
X10293659Y-14594358D01*
X10145734Y-14611026D02*
X10220636Y-14611026D01*
X8695000Y-13263494D02*
X8871506Y-13439999D01*
X9946666Y-14515159D02*
X10005227Y-14561861D01*
X9917658Y-14486151D02*
X9946666Y-14515159D01*
X10597169Y-14382431D02*
X10629639Y-14382431D01*
X9870957Y-14427590D02*
X9917658Y-14486151D01*
X7695000Y-6985500D02*
X7695000Y-8863494D01*
X9821792Y-14212181D02*
X9821792Y-14287083D01*
X10715933Y-14423988D02*
X10736178Y-14449374D01*
X8674269Y-13842295D02*
X8627568Y-13900856D01*
X10072711Y-14594359D02*
X10145734Y-14611026D01*
X9870957Y-14071674D02*
X9838459Y-14139158D01*
X10528896Y-14919285D02*
X10528896Y-14994187D01*
X10008830Y-13921944D02*
X9917658Y-14013113D01*
X10750266Y-14478628D02*
X10757490Y-14510283D01*
X8578403Y-14116265D02*
X8595070Y-14189288D01*
X8578403Y-14041363D02*
X8578403Y-14116265D01*
X8977248Y-14440209D02*
X9050271Y-14423541D01*
X10050387Y-13835649D02*
X10043162Y-13867304D01*
X8595070Y-14189288D02*
X8627568Y-14256772D01*
X8595070Y-13968340D02*
X8578403Y-14041363D01*
X7695000Y-8863494D02*
X8695000Y-9863494D01*
X8905838Y-13494639D02*
X8913063Y-13526294D01*
X8627568Y-14256772D02*
X8674269Y-14315333D01*
X8871506Y-13439999D02*
X8891750Y-13465385D01*
X9550329Y-13970329D02*
X9550327Y-13970327D01*
X10624762Y-14720217D02*
X10578061Y-14778778D01*
X9858410Y-13682552D02*
X9890065Y-13675327D01*
X10005227Y-14561861D02*
X10072711Y-14594359D01*
X9821792Y-14287083D02*
X9838459Y-14360106D01*
X7496500Y-6787000D02*
X7695000Y-6985500D01*
X8695000Y-9863494D02*
X8695000Y-13263494D01*
X9829156Y-13696640D02*
X9858410Y-13682552D01*
X9917658Y-14013113D02*
X9870957Y-14071674D01*
X8913063Y-13558764D02*
X8905838Y-13590419D01*
X8627568Y-13900856D02*
X8595070Y-13968340D01*
X8871506Y-13645059D02*
X8674269Y-13842295D01*
X8829323Y-14423541D02*
X8902346Y-14440209D01*
X9954190Y-13682552D02*
X9983444Y-13696640D01*
X10029074Y-13742270D02*
X10043162Y-13771524D01*
X13444063Y-16525000D02*
X14049066Y-15919997D01*
X8891750Y-13619673D02*
X8871506Y-13645059D01*
X10050386Y-13803179D02*
X10050387Y-13835649D01*
X10578061Y-14778778D02*
X10545563Y-14846262D01*
X8761839Y-14391043D02*
X8829323Y-14423541D01*
X8902346Y-14440209D02*
X8977248Y-14440209D01*
X11956506Y-16525000D02*
X13444063Y-16525000D01*
X10434209Y-14500655D02*
X10510873Y-14423988D01*
X9176316Y-14344342D02*
X9190821Y-14329838D01*
X10029074Y-13896558D02*
X10008830Y-13921944D01*
X8905838Y-13590419D02*
X8891750Y-13619673D01*
X9117755Y-14391043D02*
X9176316Y-14344342D01*
X10629639Y-14382431D02*
X10661294Y-14389656D01*
X9190821Y-14329838D02*
X9550329Y-13970329D01*
X9983444Y-13696640D02*
X10008829Y-13716884D01*
X10565514Y-14389656D02*
X10597169Y-14382431D01*
X9838459Y-14360106D02*
X9870957Y-14427590D01*
X14049066Y-15919997D02*
X14329787Y-15919997D01*
X9803769Y-13716884D02*
X9829156Y-13696640D01*
X10008829Y-13716884D02*
X10029074Y-13742270D01*
X8703278Y-14344342D02*
X8761839Y-14391043D01*
X10043162Y-13771524D02*
X10050386Y-13803179D01*
X10736178Y-14603662D02*
X10715934Y-14629048D01*
X10043162Y-13867304D02*
X10029074Y-13896558D01*
X10545563Y-15067210D02*
X10578061Y-15134694D01*
X10750266Y-14574408D02*
X10736178Y-14603662D01*
X10578061Y-15134694D02*
X10624762Y-15193255D01*
X9550327Y-13970327D02*
X9803769Y-13716884D01*
X8674269Y-14315333D02*
X8703278Y-14344342D01*
X9838459Y-14139158D02*
X9821792Y-14212181D01*
X10510873Y-14423988D02*
X10536260Y-14403744D01*
X10536260Y-14403744D02*
X10565514Y-14389656D01*
X9890065Y-13675327D02*
X9922535Y-13675327D01*
X8891750Y-13465385D02*
X8905838Y-13494639D01*
G04 #@! TO.N,/CSI_D2_IN_N*
X12043494Y-16315000D02*
X13357077Y-16315000D01*
X10787762Y-15059268D02*
X12043494Y-16315000D01*
X10767516Y-15033881D02*
X10787762Y-15059268D01*
X10753428Y-14908847D02*
X10746203Y-14940502D01*
X10925633Y-14704477D02*
X10878932Y-14763038D01*
X10974798Y-14489067D02*
X10974798Y-14563969D01*
X10958131Y-14416045D02*
X10974798Y-14489067D01*
X10925633Y-14348561D02*
X10958131Y-14416045D01*
X10878932Y-14290000D02*
X10925633Y-14348561D01*
X10791362Y-14214290D02*
X10849923Y-14260991D01*
X10723878Y-14181792D02*
X10791362Y-14214290D01*
X10650855Y-14165125D02*
X10723878Y-14181792D01*
X10575953Y-14165125D02*
X10650855Y-14165125D01*
X10502930Y-14181792D02*
X10575953Y-14165125D01*
X10435446Y-14214290D02*
X10502930Y-14181792D01*
X10199419Y-14393718D02*
X10231074Y-14386493D01*
X10746203Y-14972972D02*
X10753428Y-15004627D01*
X10080656Y-14352163D02*
X10106040Y-14372405D01*
X10039098Y-14265867D02*
X10046323Y-14297522D01*
X10039098Y-14233397D02*
X10039098Y-14265867D01*
X8103500Y-6787000D02*
X7905000Y-6985500D01*
X10746203Y-14940502D02*
X10746203Y-14972972D01*
X9042326Y-14181344D02*
X9669782Y-13553887D01*
X8214568Y-7740000D02*
X8239046Y-7742757D01*
X7990523Y-7297242D02*
X8015000Y-7300000D01*
X10260328Y-14372405D02*
X10285714Y-14352161D01*
X10231074Y-14386493D02*
X10260328Y-14372405D01*
X10166949Y-14393718D02*
X10199419Y-14393718D01*
X7946417Y-7276001D02*
X7967273Y-7289106D01*
X13900573Y-15771504D02*
X13900573Y-15490783D01*
X9113703Y-13653004D02*
X9081205Y-13720487D01*
X9130370Y-13579980D02*
X9113703Y-13653004D01*
X9081205Y-13720487D02*
X9034504Y-13779048D01*
X9113703Y-13432055D02*
X9130370Y-13505078D01*
X8414568Y-7300000D02*
X8439046Y-7302757D01*
X10135294Y-14386493D02*
X10166949Y-14393718D01*
X7990523Y-7522757D02*
X7967273Y-7530893D01*
X9081205Y-13364571D02*
X9113703Y-13432055D01*
X10218528Y-13641456D02*
X10251026Y-13708940D01*
X8439046Y-7302757D02*
X8462296Y-7310893D01*
X9016940Y-14201588D02*
X9042326Y-14181344D01*
X10864427Y-14777542D02*
X10787762Y-14854208D01*
X8923562Y-14222901D02*
X8956031Y-14222901D01*
X7928999Y-7698583D02*
X7946417Y-7716001D01*
X8439046Y-7517242D02*
X8414568Y-7520000D01*
X8214568Y-7960000D02*
X8015000Y-7960000D01*
X9130370Y-13505078D02*
X9130370Y-13579980D01*
X8015000Y-7740000D02*
X8214568Y-7740000D01*
X7946417Y-7543998D02*
X7928999Y-7561416D01*
X7907758Y-7214477D02*
X7915894Y-7237727D01*
X8462296Y-7509106D02*
X8439046Y-7517242D01*
X8239046Y-7957242D02*
X8214568Y-7960000D01*
X7905000Y-6985500D02*
X7905000Y-7190000D01*
X10767516Y-14879593D02*
X10753428Y-14908847D01*
X7967273Y-7729106D02*
X7990523Y-7737242D01*
X8500570Y-7478583D02*
X8483152Y-7496001D01*
X8283152Y-7936001D02*
X8262296Y-7949106D01*
X8300570Y-7918583D02*
X8283152Y-7936001D01*
X7946417Y-7983998D02*
X7928999Y-8001416D01*
X8521811Y-7434477D02*
X8513675Y-7457727D01*
X7928999Y-7561416D02*
X7915894Y-7582272D01*
X9034504Y-13779048D02*
X8837267Y-13976284D01*
X7915894Y-7237727D02*
X7928999Y-7258583D01*
X8521811Y-7385522D02*
X8524568Y-7410000D01*
X10060411Y-14326776D02*
X10080656Y-14352163D01*
X10046323Y-14201742D02*
X10039098Y-14233397D01*
X8905000Y-9776506D02*
X8905000Y-13176506D01*
X9669782Y-13553887D02*
X9728342Y-13507186D01*
X8513675Y-7457727D02*
X8500570Y-7478583D01*
X9728342Y-13507186D02*
X9795825Y-13474687D01*
X7905000Y-7190000D02*
X7907758Y-7214477D01*
X13357077Y-16315000D02*
X13900573Y-15771504D01*
X10060411Y-14172488D02*
X10046323Y-14201742D01*
X10376885Y-14260991D02*
X10435446Y-14214290D01*
X7928999Y-7258583D02*
X7946417Y-7276001D01*
X8500570Y-7341416D02*
X8513675Y-7362272D01*
X7967273Y-7289106D02*
X7990523Y-7297242D01*
X8015000Y-7300000D02*
X8414568Y-7300000D01*
X10849923Y-14260991D02*
X10878932Y-14290000D01*
X7946417Y-7716001D02*
X7967273Y-7729106D01*
X8462296Y-7310893D02*
X8483152Y-7323998D01*
X8483152Y-7323998D02*
X8500570Y-7341416D01*
X10753428Y-15004627D02*
X10767516Y-15033881D01*
X8513675Y-7362272D02*
X8521811Y-7385522D01*
X8524568Y-7410000D02*
X8521811Y-7434477D01*
X8483152Y-7496001D02*
X8462296Y-7509106D01*
X8262296Y-7949106D02*
X8239046Y-7957242D01*
X10285714Y-14352161D02*
X10376885Y-14260991D01*
X8414568Y-7520000D02*
X8015000Y-7520000D01*
X8015000Y-7960000D02*
X7990523Y-7962757D01*
X8862652Y-14201588D02*
X8891906Y-14215676D01*
X7967273Y-7530893D02*
X7946417Y-7543998D01*
X10046323Y-14297522D02*
X10060411Y-14326776D01*
X7915894Y-7582272D02*
X7907758Y-7605522D01*
X7907758Y-7605522D02*
X7905000Y-7630000D01*
X7905000Y-8070000D02*
X7905000Y-8776506D01*
X7905000Y-7630000D02*
X7907758Y-7654477D01*
X7905000Y-8776506D02*
X8905000Y-9776506D01*
X9034504Y-13306011D02*
X9081205Y-13364571D01*
X10171827Y-14055933D02*
X10157322Y-14070437D01*
X7915894Y-7677727D02*
X7928999Y-7698583D01*
X7907758Y-7654477D02*
X7915894Y-7677727D01*
X7990523Y-7737242D02*
X8015000Y-7740000D01*
X8239046Y-7742757D02*
X8262296Y-7750893D01*
X10157322Y-14070437D02*
X10080657Y-14147103D01*
X8262296Y-7750893D02*
X8283152Y-7763998D01*
X8283152Y-7763998D02*
X8300570Y-7781416D01*
X8300570Y-7781416D02*
X8313675Y-7802272D01*
X8313675Y-7802272D02*
X8321811Y-7825522D01*
X10142818Y-13553886D02*
X10171827Y-13582895D01*
X10974798Y-14563969D02*
X10958131Y-14636993D01*
X8817022Y-14155958D02*
X8837267Y-14181344D01*
X8321811Y-7825522D02*
X8324568Y-7850000D01*
X10787762Y-14854208D02*
X10767516Y-14879593D01*
X8956031Y-14222901D02*
X8987686Y-14215676D01*
X8324568Y-7850000D02*
X8321811Y-7874477D01*
X8321811Y-7874477D02*
X8313675Y-7897727D01*
X8313675Y-7897727D02*
X8300570Y-7918583D01*
X10106040Y-14372405D02*
X10135294Y-14386493D01*
X7990523Y-7962757D02*
X7967273Y-7970893D01*
X8817022Y-14001670D02*
X8802934Y-14030924D01*
X7967273Y-7970893D02*
X7946417Y-7983998D01*
X7928999Y-8001416D02*
X7915894Y-8022272D01*
X10267693Y-13856864D02*
X10251026Y-13929888D01*
X7915894Y-8022272D02*
X7907758Y-8045522D01*
X7907758Y-8045522D02*
X7905000Y-8070000D01*
X9868850Y-13458021D02*
X9943750Y-13458019D01*
X8905000Y-13176506D02*
X9034504Y-13306011D01*
X8837267Y-13976284D02*
X8817022Y-14001670D01*
X8802934Y-14030924D02*
X8795709Y-14062579D01*
X8795709Y-14062579D02*
X8795709Y-14095049D01*
X8795709Y-14095049D02*
X8802934Y-14126704D01*
X8802934Y-14126704D02*
X8817022Y-14155958D01*
X10958131Y-14636993D02*
X10925633Y-14704477D01*
X8837267Y-14181344D02*
X8862652Y-14201588D01*
X10878932Y-14763038D02*
X10864427Y-14777542D01*
X8891906Y-14215676D02*
X8923562Y-14222901D01*
X8987686Y-14215676D02*
X9016940Y-14201588D01*
X9795825Y-13474687D02*
X9868850Y-13458021D01*
X9943750Y-13458019D02*
X10016773Y-13474686D01*
X10084258Y-13507186D02*
X10142818Y-13553886D01*
X8015000Y-7520000D02*
X7990523Y-7522757D01*
X10171827Y-13582895D02*
X10218528Y-13641456D01*
X10251026Y-13708940D02*
X10267693Y-13781962D01*
X10267693Y-13781962D02*
X10267693Y-13856864D01*
X10251026Y-13929888D02*
X10218528Y-13997372D01*
X10218528Y-13997372D02*
X10171827Y-14055933D01*
X10016773Y-13474686D02*
X10084258Y-13507186D01*
X10080657Y-14147103D02*
X10060411Y-14172488D01*
D12*
G04 #@! TO.N,/3V3_SYS*
X18897010Y-18650000D02*
X20375011Y-17171999D01*
X20375011Y-17171999D02*
X20603510Y-16943500D01*
X18270000Y-18650000D02*
X18897010Y-18650000D01*
D13*
G04 #@! TO.N,/2V5*
X19960612Y-9479388D02*
X19960612Y-9356500D01*
X16570000Y-15920000D02*
X18740000Y-13750000D01*
X18740000Y-10700000D02*
X19960612Y-9479388D01*
X16000000Y-15920000D02*
X16570000Y-15920000D01*
X18740000Y-13750000D02*
X18740000Y-10700000D01*
G04 #@! TO.N,/1V8*
X11480000Y-18570000D02*
X11880000Y-18970000D01*
X11880000Y-18970000D02*
X14600000Y-18970000D01*
X15688058Y-17881942D02*
X15688058Y-17876196D01*
X14600000Y-18970000D02*
X15688058Y-17881942D01*
D14*
G04 #@! TO.N,/1V8_SYS*
X17744940Y-15250000D02*
X15960969Y-17033971D01*
X4460000Y-19420000D02*
X15740000Y-19420000D01*
X2157000Y-13757000D02*
X2157000Y-17117000D01*
X2157000Y-17117000D02*
X4460000Y-19420000D01*
X16370000Y-17900000D02*
X15960969Y-17490969D01*
X15740000Y-19420000D02*
X16370000Y-18790000D01*
X15960969Y-17490969D02*
X15732470Y-17262470D01*
X19670000Y-15250000D02*
X17744940Y-15250000D01*
X15960969Y-17033971D02*
X15732470Y-17262470D01*
X16370000Y-18790000D02*
X16370000Y-17900000D01*
D13*
X19520000Y-1150000D02*
X23220000Y-1150000D01*
X19520000Y-1150000D02*
X19730000Y-1150000D01*
X23220000Y-1150000D02*
X24630000Y-2560000D01*
X24630000Y-12940000D02*
X21880000Y-15690000D01*
X24630000Y-2560000D02*
X24630000Y-12940000D01*
X21880000Y-15690000D02*
X20810000Y-15690000D01*
X19520000Y-1150000D02*
X19110000Y-740000D01*
X14938233Y-1798252D02*
X14938233Y-2121399D01*
X15996485Y-740000D02*
X14938233Y-1798252D01*
X19110000Y-740000D02*
X15996485Y-740000D01*
G04 #@! TO.N,/3V3*
X7276762Y-15992510D02*
X7276762Y-18813252D01*
X7276762Y-18813252D02*
X7460000Y-18996490D01*
D12*
G04 #@! TO.N,/PC_RDY*
X8362130Y-15695090D02*
X8362130Y-16387870D01*
X7896733Y-15229693D02*
X8362130Y-15695090D01*
X7896733Y-14906546D02*
X7896733Y-15229693D01*
X8362130Y-16387870D02*
X8362130Y-17252130D01*
X8926500Y-17816500D02*
X8990000Y-17816500D01*
X8362130Y-17252130D02*
X8926500Y-17816500D01*
D11*
G04 #@! TO.N,/CSI_D1_IN_N*
X6095000Y-12463494D02*
X10756506Y-17125000D01*
X4385393Y-7234607D02*
X5266113Y-7234607D01*
X10756506Y-17125000D02*
X14643494Y-17125000D01*
X6095000Y-8063494D02*
X6095000Y-12463494D01*
X5266113Y-7234607D02*
X6095000Y-8063494D01*
X14643494Y-17125000D02*
X15217490Y-16551004D01*
D12*
X15217490Y-16029304D02*
X15214500Y-16026314D01*
X15217490Y-16551004D02*
X15217490Y-16029304D01*
D11*
G04 #@! TO.N,/CSI_D1_IN_P*
X14230000Y-16915000D02*
X14525000Y-16915000D01*
X14205522Y-16912242D02*
X14230000Y-16915000D01*
X14161416Y-16891001D02*
X14182272Y-16904106D01*
X14117242Y-16400522D02*
X14120000Y-16425000D01*
X14122757Y-16829477D02*
X14130893Y-16852727D01*
X14078583Y-16338998D02*
X14096001Y-16356416D01*
X14120000Y-16805000D02*
X14122757Y-16829477D01*
X14057727Y-16325893D02*
X14078583Y-16338998D01*
X14182272Y-16904106D02*
X14205522Y-16912242D01*
X14120000Y-16425000D02*
X14120000Y-16805000D01*
X14034477Y-16317757D02*
X14057727Y-16325893D01*
X14010000Y-16315000D02*
X14034477Y-16317757D01*
X13941416Y-16338998D02*
X13962272Y-16325893D01*
X13923998Y-16356416D02*
X13941416Y-16338998D01*
X13910893Y-16377272D02*
X13923998Y-16356416D01*
X6081123Y-6907748D02*
X6100381Y-6923106D01*
X6058929Y-6897059D02*
X6081123Y-6907748D01*
X6034914Y-6891578D02*
X6058929Y-6897059D01*
X6115738Y-7059411D02*
X6100380Y-7078668D01*
X6010282Y-6891578D02*
X6034914Y-6891578D01*
X5677923Y-7189999D02*
X5944817Y-6923106D01*
X5137754Y-6805393D02*
X5522361Y-7190000D01*
X5522361Y-7190000D02*
X5541618Y-7205356D01*
X4814607Y-6805393D02*
X5137754Y-6805393D01*
X5964075Y-6907747D02*
X5986267Y-6897059D01*
X14143998Y-16873583D02*
X14161416Y-16891001D01*
X13985522Y-16317757D02*
X14010000Y-16315000D01*
X5658666Y-7205357D02*
X5677923Y-7189999D01*
X5541618Y-7205356D02*
X5563812Y-7216045D01*
X14109106Y-16377272D02*
X14117242Y-16400522D01*
X5563812Y-7216045D02*
X5587825Y-7221525D01*
X6126425Y-7037217D02*
X6115738Y-7059411D01*
X6100381Y-6923106D02*
X6115737Y-6942363D01*
X5986267Y-6897059D02*
X6010282Y-6891578D01*
X5612457Y-7221525D02*
X5636472Y-7216044D01*
X6305000Y-7972639D02*
X6305000Y-12376506D01*
X13790000Y-16915000D02*
X13814477Y-16912242D01*
X13897242Y-16829477D02*
X13900000Y-16805000D01*
X5833487Y-7345562D02*
X5818128Y-7364820D01*
X13900000Y-16425000D02*
X13902757Y-16400522D01*
X14130893Y-16852727D02*
X14143998Y-16873583D01*
X14096001Y-16356416D02*
X14109106Y-16377272D01*
X13962272Y-16325893D02*
X13985522Y-16317757D01*
X5807440Y-7387012D02*
X5801959Y-7411027D01*
X6305000Y-12376506D02*
X10843494Y-16915000D01*
X5636472Y-7216044D02*
X5658666Y-7205357D01*
X13876001Y-16873583D02*
X13889106Y-16852727D01*
X5944817Y-6923106D02*
X5964075Y-6907747D01*
X5801959Y-7411027D02*
X5801959Y-7435659D01*
X6115737Y-6942363D02*
X6126426Y-6964557D01*
X5801959Y-7435659D02*
X5807440Y-7459674D01*
X6126426Y-6964557D02*
X6131906Y-6988570D01*
X5807440Y-7459674D02*
X5818129Y-7481868D01*
X6131906Y-6988570D02*
X6131906Y-7013202D01*
X5818129Y-7481868D02*
X5833487Y-7501126D01*
X13889106Y-16852727D02*
X13897242Y-16829477D01*
X10843494Y-16915000D02*
X13790000Y-16915000D01*
X6131906Y-7013202D02*
X6126425Y-7037217D01*
X6100380Y-7078668D02*
X5833487Y-7345562D01*
X5833487Y-7501126D02*
X6305000Y-7972639D01*
X13900000Y-16805000D02*
X13900000Y-16425000D01*
X13814477Y-16912242D02*
X13837727Y-16904106D01*
X14525000Y-16915000D02*
X14858980Y-16581020D01*
X5587825Y-7221525D02*
X5612457Y-7221525D01*
X13837727Y-16904106D02*
X13858583Y-16891001D01*
X5818128Y-7364820D02*
X5807440Y-7387012D01*
X13858583Y-16891001D02*
X13876001Y-16873583D01*
X13902757Y-16400522D02*
X13910893Y-16377272D01*
D12*
X14858980Y-16581020D02*
X14858980Y-15736020D01*
X15015000Y-15580000D02*
X15015000Y-15320000D01*
X14858980Y-15736020D02*
X15015000Y-15580000D01*
D11*
G04 #@! TO.N,/CSI_CLK_IN_P*
X9454992Y-9812757D02*
X9431742Y-9820893D01*
X9946417Y-11553998D02*
X9928999Y-11571416D01*
X10319841Y-10919858D02*
X10377009Y-10955779D01*
X10289021Y-10670000D02*
X9479470Y-10670000D01*
X9905000Y-12576506D02*
X11243494Y-13915000D01*
X10377009Y-10955779D02*
X10424751Y-11003521D01*
X9372227Y-9944477D02*
X9380363Y-9967727D01*
X9380363Y-10827727D02*
X9393468Y-10848583D01*
X9967273Y-11540893D02*
X9946417Y-11553998D01*
X10256113Y-11522440D02*
X10189021Y-11530000D01*
X10524751Y-10556478D02*
X10477009Y-10604220D01*
X10319841Y-11500141D02*
X10256113Y-11522440D01*
X10377009Y-11464220D02*
X10319841Y-11500141D01*
X9479470Y-10030000D02*
X10289021Y-10030000D01*
X10490530Y-11228490D02*
X10482971Y-11295582D01*
X10419841Y-10640141D02*
X10356113Y-10662440D01*
X10424751Y-11003521D02*
X10460672Y-11060689D01*
X9928999Y-11571416D02*
X9915894Y-11592272D01*
X10189021Y-10890000D02*
X10256113Y-10897559D01*
X9393468Y-9851416D02*
X9380363Y-9872272D01*
X9431742Y-10879106D02*
X9454992Y-10887242D01*
X10560672Y-10200689D02*
X10582971Y-10264417D01*
X10460672Y-11359310D02*
X10424751Y-11416478D01*
X9372227Y-10804477D02*
X9380363Y-10827727D01*
X9410886Y-10693998D02*
X9393468Y-10711416D01*
X10015000Y-11530000D02*
X9990523Y-11532757D01*
X9431742Y-10680893D02*
X9410886Y-10693998D01*
X9369470Y-9920000D02*
X9372227Y-9944477D01*
X10424751Y-11416478D02*
X10377009Y-11464220D01*
X11243494Y-13915000D02*
X12243494Y-13915000D01*
X10590530Y-10368490D02*
X10582971Y-10435582D01*
X9915894Y-11592272D02*
X9907758Y-11615522D01*
X9410886Y-9833998D02*
X9393468Y-9851416D01*
X9670582Y-9802440D02*
X9603490Y-9810000D01*
X10419841Y-10059858D02*
X10477009Y-10095779D01*
X10582971Y-10264417D02*
X10590530Y-10331509D01*
X9380363Y-9872272D02*
X9372227Y-9895522D01*
X9905000Y-6976506D02*
X9905000Y-9508490D01*
X9454992Y-10027242D02*
X9479470Y-10030000D01*
X9905000Y-9508490D02*
X9897440Y-9575582D01*
X5233493Y-5915000D02*
X8843494Y-5915000D01*
X5059455Y-5500545D02*
X5059455Y-5740962D01*
X9990523Y-11532757D02*
X9967273Y-11540893D01*
X9897440Y-9575582D02*
X9875141Y-9639310D01*
X10482971Y-11124417D02*
X10490530Y-11191509D01*
X9372227Y-9895522D02*
X9369470Y-9920000D01*
X9431742Y-9820893D02*
X9410886Y-9833998D01*
X9393468Y-9988583D02*
X9410886Y-10006001D01*
X9454992Y-10887242D02*
X9479470Y-10890000D01*
X5059455Y-5740962D02*
X5233493Y-5915000D01*
X9393468Y-10848583D02*
X9410886Y-10866001D01*
X9734310Y-9780141D02*
X9670582Y-9802440D01*
X10189021Y-11530000D02*
X10015000Y-11530000D01*
X9839220Y-9696478D02*
X9791478Y-9744220D01*
X9603490Y-9810000D02*
X9479470Y-9810000D01*
X13004619Y-14676125D02*
X13004619Y-15659098D01*
X9380363Y-9967727D02*
X9393468Y-9988583D01*
X9410886Y-10006001D02*
X9431742Y-10019106D01*
X9479470Y-9810000D02*
X9454992Y-9812757D01*
X10460672Y-11060689D02*
X10482971Y-11124417D01*
X9372227Y-10755522D02*
X9369470Y-10780000D01*
X8843494Y-5915000D02*
X9905000Y-6976506D01*
X10477009Y-10604220D02*
X10419841Y-10640141D01*
X9431742Y-10019106D02*
X9454992Y-10027242D01*
X10289021Y-10030000D02*
X10356113Y-10037559D01*
X9380363Y-10732272D02*
X9372227Y-10755522D01*
X10356113Y-10037559D02*
X10419841Y-10059858D01*
X10477009Y-10095779D02*
X10524751Y-10143521D01*
X9791478Y-9744220D02*
X9734310Y-9780141D01*
X10524751Y-10143521D02*
X10560672Y-10200689D01*
X10490530Y-11191509D02*
X10490530Y-11228490D01*
X10356113Y-10662440D02*
X10289021Y-10670000D01*
X9479470Y-10890000D02*
X10189021Y-10890000D01*
X9875141Y-9639310D02*
X9839220Y-9696478D01*
X10582971Y-10435582D02*
X10560672Y-10499310D01*
X9393468Y-10711416D02*
X9380363Y-10732272D01*
X9479470Y-10670000D02*
X9454992Y-10672757D01*
X9907758Y-11615522D02*
X9905000Y-11640000D01*
X9454992Y-10672757D02*
X9431742Y-10680893D01*
X12243494Y-13915000D02*
X13004619Y-14676125D01*
X10482971Y-11295582D02*
X10460672Y-11359310D01*
X9369470Y-10780000D02*
X9372227Y-10804477D01*
X10560672Y-10499310D02*
X10524751Y-10556478D01*
X9410886Y-10866001D02*
X9431742Y-10879106D01*
X10256113Y-10897559D02*
X10319841Y-10919858D01*
X9905000Y-11640000D02*
X9905000Y-12576506D01*
X10590530Y-10331509D02*
X10590530Y-10368490D01*
G04 #@! TO.N,/CSI_CLK_IN_N*
X12794619Y-15010670D02*
X12575405Y-15229884D01*
X12794619Y-14763113D02*
X12794619Y-15010670D01*
X12156506Y-14125000D02*
X12794619Y-14763113D01*
X9695000Y-12663494D02*
X11156506Y-14125000D01*
X9724859Y-11490689D02*
X9702560Y-11554417D01*
X10170530Y-11320000D02*
X9996510Y-11320000D01*
X4670545Y-5889455D02*
X4910962Y-5889455D01*
X5146507Y-6125000D02*
X6840000Y-6125000D01*
X4910962Y-5889455D02*
X5146507Y-6125000D01*
X7107727Y-6477884D02*
X7128583Y-6464779D01*
X7193998Y-6166417D02*
X7211416Y-6148999D01*
X10377773Y-10374477D02*
X10369637Y-10397727D01*
X6864477Y-6127758D02*
X6887727Y-6135894D01*
X9167029Y-10694417D02*
X9159470Y-10761509D01*
X6840000Y-6125000D02*
X6864477Y-6127758D01*
X9159470Y-9938490D02*
X9167029Y-10005582D01*
X9330159Y-10489858D02*
X9272991Y-10525779D01*
X9760780Y-11433521D02*
X9724859Y-11490689D01*
X9167029Y-10005582D02*
X9189328Y-10069310D01*
X9996510Y-11320000D02*
X9929418Y-11327559D01*
X9159470Y-10761509D02*
X9159470Y-10798490D01*
X9460979Y-10460000D02*
X9393887Y-10467559D01*
X6887727Y-6135894D02*
X6908583Y-6148999D01*
X11156506Y-14125000D02*
X12156506Y-14125000D01*
X10339114Y-10436001D02*
X10318258Y-10449106D01*
X9225249Y-10986478D02*
X9272991Y-11034220D01*
X9684106Y-9537727D02*
X9671001Y-9558583D01*
X10218258Y-11309106D02*
X10195008Y-11317242D01*
X7232272Y-6135894D02*
X7255522Y-6127758D01*
X6950000Y-6235000D02*
X6950000Y-6378777D01*
X6908583Y-6148999D02*
X6926001Y-6166417D01*
X9272991Y-10174220D02*
X9330159Y-10210141D01*
X10369637Y-10302272D02*
X10377773Y-10325522D01*
X6926001Y-6166417D02*
X6939106Y-6187273D01*
X9702560Y-11554417D02*
X9695000Y-11621509D01*
X9167029Y-10865582D02*
X9189328Y-10929310D01*
X9695000Y-9490000D02*
X9692242Y-9514477D01*
X6947242Y-6210523D02*
X6950000Y-6235000D01*
X6950000Y-6378777D02*
X6952757Y-6403255D01*
X6960893Y-6426505D02*
X6973998Y-6447361D01*
X9225249Y-10573521D02*
X9189328Y-10630689D01*
X6973998Y-6447361D02*
X6991416Y-6464779D01*
X9671001Y-9558583D02*
X9653583Y-9576001D01*
X9272991Y-11034220D02*
X9330159Y-11070141D01*
X7012272Y-6477884D02*
X7035522Y-6486020D01*
X7170000Y-6235000D02*
X7172757Y-6210523D01*
X7060000Y-6488777D02*
X7084477Y-6486020D01*
X9929418Y-11327559D02*
X9865690Y-11349858D01*
X10270530Y-10460000D02*
X9460979Y-10460000D01*
X7084477Y-6486020D02*
X7107727Y-6477884D01*
X10270530Y-10240000D02*
X10295008Y-10242757D01*
X7128583Y-6464779D02*
X7146001Y-6447361D01*
X7146001Y-6447361D02*
X7159106Y-6426505D01*
X10377773Y-10325522D02*
X10380530Y-10350000D01*
X7159106Y-6426505D02*
X7167242Y-6403255D01*
X7167242Y-6403255D02*
X7170000Y-6378777D01*
X9159470Y-10798490D02*
X9167029Y-10865582D01*
X7170000Y-6378777D02*
X7170000Y-6235000D01*
X7172757Y-6210523D02*
X7180893Y-6187273D01*
X7180893Y-6187273D02*
X7193998Y-6166417D01*
X7211416Y-6148999D02*
X7232272Y-6135894D01*
X7255522Y-6127758D02*
X7280000Y-6125000D01*
X7280000Y-6125000D02*
X8756506Y-6125000D01*
X8756506Y-6125000D02*
X9695000Y-7063494D01*
X9695000Y-7063494D02*
X9695000Y-9490000D01*
X9330159Y-11070141D02*
X9393887Y-11092440D01*
X9653583Y-9576001D02*
X9632727Y-9589106D01*
X10280530Y-11210000D02*
X10277773Y-11234477D01*
X9167029Y-9834417D02*
X9159470Y-9901509D01*
X9189328Y-10069310D02*
X9225249Y-10126478D01*
X10269637Y-11257727D02*
X10256532Y-11278583D01*
X9225249Y-10126478D02*
X9272991Y-10174220D01*
X6991416Y-6464779D02*
X7012272Y-6477884D01*
X9330159Y-10210141D02*
X9393887Y-10232440D01*
X9393887Y-10232440D02*
X9460979Y-10240000D01*
X9460979Y-10240000D02*
X10270530Y-10240000D01*
X10295008Y-10242757D02*
X10318258Y-10250893D01*
X7035522Y-6486020D02*
X7060000Y-6488777D01*
X10318258Y-10250893D02*
X10339114Y-10263998D01*
X10339114Y-10263998D02*
X10356532Y-10281416D01*
X10356532Y-10281416D02*
X10369637Y-10302272D01*
X10380530Y-10350000D02*
X10377773Y-10374477D01*
X10369637Y-10397727D02*
X10356532Y-10418583D01*
X10356532Y-10418583D02*
X10339114Y-10436001D01*
X10318258Y-10449106D02*
X10295008Y-10457242D01*
X10295008Y-10457242D02*
X10270530Y-10460000D01*
X9393887Y-10467559D02*
X9330159Y-10489858D01*
X9272991Y-10525779D02*
X9225249Y-10573521D01*
X9189328Y-10630689D02*
X9167029Y-10694417D01*
X9695000Y-11621509D02*
X9695000Y-12663494D01*
X9692242Y-9514477D02*
X9684106Y-9537727D01*
X9189328Y-10929310D02*
X9225249Y-10986478D01*
X9632727Y-9589106D02*
X9609477Y-9597242D01*
X9393887Y-11092440D02*
X9460979Y-11100000D01*
X9609477Y-9597242D02*
X9585000Y-9600000D01*
X9460979Y-11100000D02*
X10170530Y-11100000D01*
X9585000Y-9600000D02*
X9460979Y-9600000D01*
X10170530Y-11100000D02*
X10195008Y-11102757D01*
X9460979Y-9600000D02*
X9393887Y-9607559D01*
X10195008Y-11102757D02*
X10218258Y-11110893D01*
X9393887Y-9607559D02*
X9330159Y-9629858D01*
X10218258Y-11110893D02*
X10239114Y-11123998D01*
X9330159Y-9629858D02*
X9272991Y-9665779D01*
X10239114Y-11123998D02*
X10256532Y-11141416D01*
X9272991Y-9665779D02*
X9225249Y-9713521D01*
X10256532Y-11141416D02*
X10269637Y-11162272D01*
X9225249Y-9713521D02*
X9189328Y-9770689D01*
X10269637Y-11162272D02*
X10277773Y-11185522D01*
X10195008Y-11317242D02*
X10170530Y-11320000D01*
X6952757Y-6403255D02*
X6960893Y-6426505D01*
X9189328Y-9770689D02*
X9167029Y-9834417D01*
X10277773Y-11185522D02*
X10280530Y-11210000D01*
X6939106Y-6187273D02*
X6947242Y-6210523D01*
X9159470Y-9901509D02*
X9159470Y-9938490D01*
X10277773Y-11234477D02*
X10269637Y-11257727D01*
X10256532Y-11278583D02*
X10239114Y-11296001D01*
X10239114Y-11296001D02*
X10218258Y-11309106D01*
X9865690Y-11349858D02*
X9808522Y-11385779D01*
X9808522Y-11385779D02*
X9760780Y-11433521D01*
G04 #@! TO.N,/CSI_CLK_OUT_N*
X20085378Y-4678048D02*
X20258878Y-4504548D01*
X17063822Y-13976178D02*
X16879962Y-13792318D01*
X16879962Y-13792318D02*
X16879962Y-11128532D01*
X18855000Y-5908426D02*
X20085378Y-4678048D01*
X16879962Y-11128532D02*
X18855000Y-9153494D01*
X18855000Y-9153494D02*
X18855000Y-5908426D01*
D12*
G04 #@! TO.N,/CTRL_SO*
X20911147Y-10291000D02*
X21377000Y-9825147D01*
X20588000Y-10291000D02*
X20911147Y-10291000D01*
X21377000Y-9825147D02*
X21377000Y-4470000D01*
X21377000Y-4470000D02*
X21127000Y-4220000D01*
X21127000Y-4220000D02*
X21085000Y-4178000D01*
X21127000Y-4220000D02*
X20257000Y-3350000D01*
X17476818Y-3350000D02*
X17990000Y-3350000D01*
X16754974Y-4405026D02*
X16754974Y-4071844D01*
X16300000Y-4860000D02*
X16754974Y-4405026D01*
X16300000Y-5630000D02*
X16300000Y-4860000D01*
X16754974Y-4071844D02*
X17476818Y-3350000D01*
X20257000Y-3350000D02*
X17990000Y-3350000D01*
X17990000Y-3350000D02*
X17810000Y-3350000D01*
G04 #@! TO.N,/CTRL_SI*
X17060000Y-8434000D02*
X18090000Y-7404000D01*
X18090000Y-5110000D02*
X18090000Y-4810000D01*
X18090000Y-7404000D02*
X18090000Y-5110000D01*
X18090000Y-5110000D02*
X18090000Y-5060000D01*
X18090000Y-4810000D02*
X19100000Y-3800000D01*
X19100000Y-3800000D02*
X20080000Y-3800000D01*
D11*
G04 #@! TO.N,/CSI_CLK_OUT_P*
X16669970Y-14046883D02*
X16669970Y-14370030D01*
X16669970Y-11041536D02*
X16669970Y-14046883D01*
X19701878Y-4504548D02*
X19701878Y-4798122D01*
X19701878Y-4798122D02*
X18645000Y-5855000D01*
X18645000Y-5855000D02*
X18645000Y-9066506D01*
X18645000Y-9066506D02*
X16669970Y-11041536D01*
D12*
G04 #@! TO.N,/ULPM_WAKE*
X8719000Y-4900000D02*
X4541000Y-4900000D01*
X4541000Y-4900000D02*
X4472000Y-4831000D01*
X10870000Y-7051000D02*
X8719000Y-4900000D01*
X10870000Y-8225000D02*
X10870000Y-7051000D01*
D11*
G04 #@! TO.N,/USB_D_N*
X3668000Y-4988494D02*
X4521781Y-4134713D01*
X4521781Y-4134713D02*
X9063347Y-4134713D01*
X5455000Y-13476303D02*
X5455000Y-10194506D01*
X9063347Y-4134713D02*
X9236847Y-4308213D01*
X5201441Y-14010583D02*
X5201441Y-13729862D01*
X5201441Y-13729862D02*
X5455000Y-13476303D01*
X5455000Y-10194506D02*
X3668000Y-8407506D01*
X3668000Y-8407506D02*
X3668000Y-4988494D01*
G04 #@! TO.N,/USB_D_P*
X4434793Y-3924713D02*
X9063347Y-3924713D01*
X3458000Y-4901506D02*
X4434793Y-3924713D01*
X3458000Y-8494494D02*
X3458000Y-4901506D01*
X9063347Y-3924713D02*
X9236847Y-3751213D01*
X5245000Y-10281494D02*
X3458000Y-8494494D01*
X5245000Y-13389317D02*
X5245000Y-10281494D01*
X4772227Y-13581369D02*
X5052948Y-13581369D01*
X5052948Y-13581369D02*
X5245000Y-13389317D01*
D12*
G04 #@! TO.N,/PROC_SI*
X15970000Y-2090000D02*
X16270000Y-2090000D01*
X14235010Y-7439990D02*
X14235010Y-3824990D01*
X13470000Y-8205000D02*
X14235010Y-7439990D01*
X14235010Y-3824990D02*
X15970000Y-2090000D01*
G04 #@! TO.N,/USB_DET*
X3160000Y-14700000D02*
X5000000Y-16540000D01*
X3160000Y-12969000D02*
X3160000Y-14700000D01*
X5000000Y-16540000D02*
X5000000Y-18633500D01*
X3739000Y-12390000D02*
X3160000Y-12969000D01*
X16876205Y-9747002D02*
X16876205Y-9423855D01*
X10912649Y-18953531D02*
X11126499Y-18739681D01*
X11326818Y-18200000D02*
X14227000Y-18200000D01*
X8993531Y-18953531D02*
X10912649Y-18953531D01*
X8240000Y-18200000D02*
X8993531Y-18953531D01*
X11126499Y-18739681D02*
X11126499Y-18400319D01*
X11126499Y-18400319D02*
X11326818Y-18200000D01*
X14227000Y-18200000D02*
X15568000Y-16859000D01*
X15568000Y-16859000D02*
X15568000Y-11372000D01*
X15568000Y-11372000D02*
X16876205Y-10063795D01*
X16876205Y-10063795D02*
X16876205Y-9747002D01*
G04 #@! TO.N,/PIO1*
X4451499Y-1599501D02*
X4223000Y-1828000D01*
X6702489Y-1297989D02*
X4753011Y-1297989D01*
X6938000Y-1533500D02*
X6702489Y-1297989D01*
X4753011Y-1297989D02*
X4451499Y-1599501D01*
G04 #@! TO.N,/DONE*
X24343000Y-4503000D02*
X23371000Y-3531000D01*
X23371000Y-3531000D02*
X20685502Y-3531000D01*
X16351465Y-3985448D02*
X16351465Y-4308595D01*
X17161924Y-3174989D02*
X16351465Y-3985448D01*
X20685502Y-3531000D02*
X20329491Y-3174989D01*
X23323765Y-11401069D02*
X24343000Y-10381834D01*
X24343000Y-10381834D02*
X24343000Y-4503000D01*
X20329491Y-3174989D02*
X17161924Y-3174989D01*
X22109931Y-11401069D02*
X23323765Y-11401069D01*
X21195000Y-12316000D02*
X22109931Y-11401069D01*
G04 #@! TO.N,/PIO2*
X5622858Y-1879989D02*
X5394359Y-1651490D01*
X12170000Y-8215000D02*
X11500000Y-7545000D01*
X11500000Y-7545000D02*
X11500000Y-3234000D01*
X10375989Y-2109989D02*
X5852858Y-2109989D01*
X5852858Y-2109989D02*
X5622858Y-1879989D01*
X11500000Y-3234000D02*
X10375989Y-2109989D01*
G04 #@! TO.N,/PROC_RST*
X8048288Y-4691501D02*
X7850000Y-4493213D01*
X9141501Y-4691501D02*
X8048288Y-4691501D01*
X9370000Y-4920000D02*
X9141501Y-4691501D01*
G04 #@! TO.N,/PROC_SO*
X15414994Y-2145067D02*
X15643493Y-1916568D01*
X14060000Y-7015000D02*
X14060000Y-3500061D01*
X15750000Y-2023075D02*
X15643493Y-1916568D01*
X12845000Y-8230000D02*
X14060000Y-7015000D01*
X15750000Y-2030000D02*
X15750000Y-2023075D01*
X14060000Y-3500061D02*
X15414994Y-2145067D01*
G04 #@! TO.N,/PIO8*
X12494999Y-7204999D02*
X12494999Y-3029001D01*
X12820000Y-7530000D02*
X12494999Y-7204999D01*
X12494999Y-3029001D02*
X12910000Y-2614000D01*
X12910000Y-2614000D02*
X12910000Y-1050000D01*
X12910000Y-1050000D02*
X13490000Y-470000D01*
G04 #@! TO.N,/PIO6*
X11086000Y-1753000D02*
X11086000Y-1651490D01*
X11941501Y-2608501D02*
X11086000Y-1753000D01*
X11941501Y-7301501D02*
X11941501Y-2608501D01*
X12170000Y-7530000D02*
X11941501Y-7301501D01*
G04 #@! TO.N,Net-(TP34-Pad1)*
X15900000Y-3130000D02*
X17430000Y-1600000D01*
X17430000Y-1600000D02*
X22530000Y-1600000D01*
X22530000Y-1600000D02*
X22750000Y-1820000D01*
G04 #@! TO.N,Net-(TP35-Pad1)*
X15353500Y-4300000D02*
X17558500Y-2095000D01*
X17558500Y-2095000D02*
X20525000Y-2095000D01*
G04 #@! TO.N,/CSI_INT*
X3074500Y-8219122D02*
X3074500Y-11214500D01*
X3074500Y-11214500D02*
X4170000Y-12310000D01*
X4170000Y-12310000D02*
X4170000Y-12930000D01*
X3738999Y-14589681D02*
X4579318Y-15430000D01*
X3738999Y-13361001D02*
X3738999Y-14589681D01*
X4170000Y-12930000D02*
X3738999Y-13361001D01*
X7655128Y-15847694D02*
X7655128Y-17015128D01*
X7237434Y-15430000D02*
X7655128Y-15847694D01*
X4579318Y-15430000D02*
X7237434Y-15430000D01*
X7655128Y-17015128D02*
X8570000Y-17930000D01*
X8570000Y-17930000D02*
X8810001Y-18170001D01*
X9740000Y-18170001D02*
X9753530Y-18170001D01*
X8810001Y-18170001D02*
X9740000Y-18170001D01*
G04 #@! TO.N,/PROC_INT*
X17359218Y-18308646D02*
X19327864Y-16340000D01*
X19327864Y-16340000D02*
X21070000Y-16340000D01*
G04 #@! TO.N,/PIO14*
X16810000Y-7230000D02*
X16216043Y-7823957D01*
X16216043Y-7823957D02*
X16216043Y-8336043D01*
X16329908Y-9147066D02*
X16329908Y-9470213D01*
X16329908Y-8449908D02*
X16329908Y-9147066D01*
X16216043Y-8336043D02*
X16329908Y-8449908D01*
G04 #@! TO.N,/PIO0*
X11045010Y-7471863D02*
X11045010Y-6755010D01*
X11470000Y-7896853D02*
X11045010Y-7471863D01*
X11470000Y-8220000D02*
X11470000Y-7896853D01*
X9723501Y-3714685D02*
X9122317Y-3113501D01*
X9122317Y-3113501D02*
X5493501Y-3113501D01*
X9723501Y-5433501D02*
X9723501Y-3714685D01*
X11045010Y-6755010D02*
X9723501Y-5433501D01*
X4985319Y-3113501D02*
X4041818Y-2170000D01*
X5493501Y-3113501D02*
X4985319Y-3113501D01*
X4041818Y-2170000D02*
X1990000Y-2170000D01*
X1990000Y-2170000D02*
X1500000Y-1680000D01*
G04 #@! TD*
M02*
