G04 #@! TF.GenerationSoftware,KiCad,Pcbnew,5.0.2+dfsg1-1~bpo9+1*
G04 #@! TF.CreationDate,2019-10-16T17:12:59+02:00*
G04 #@! TF.ProjectId,zglue-jade-adapter,7a676c75-652d-46a6-9164-652d61646170,rev?*
G04 #@! TF.SameCoordinates,Original*
G04 #@! TF.FileFunction,Copper,L8,Bot*
G04 #@! TF.FilePolarity,Positive*
%FSLAX46Y46*%
G04 Gerber Fmt 4.6, Leading zero omitted, Abs format (unit mm)*
G04 Created by KiCad (PCBNEW 5.0.2+dfsg1-1~bpo9+1) date Wed 16 Oct 2019 05:12:59 PM CEST*
%MOMM*%
%LPD*%
G01*
G04 APERTURE LIST*
G04 #@! TA.AperFunction,SMDPad,CuDef*
%ADD10R,1.320000X1.300000*%
G04 #@! TD*
G04 #@! TA.AperFunction,SMDPad,CuDef*
%ADD11R,1.100000X0.300000*%
G04 #@! TD*
G04 #@! TA.AperFunction,ViaPad*
%ADD12C,0.400000*%
G04 #@! TD*
G04 #@! TA.AperFunction,Conductor*
%ADD13C,0.100000*%
G04 #@! TD*
G04 APERTURE END LIST*
D10*
G04 #@! TO.P,J1,*
G04 #@! TO.N,*
X23802380Y-15949020D03*
X18681740Y-15949020D03*
X23802380Y-4046580D03*
X18681740Y-4041500D03*
D11*
G04 #@! TO.P,J1,21*
G04 #@! TO.N,/TDI*
X23992880Y-14748000D03*
G04 #@! TO.P,J1,22*
G04 #@! TO.N,/TDO*
X23992880Y-14248000D03*
G04 #@! TO.P,J1,23*
G04 #@! TO.N,/TMS*
X23992880Y-13748000D03*
G04 #@! TO.P,J1,24*
G04 #@! TO.N,/TCK*
X23992880Y-13248000D03*
G04 #@! TO.P,J1,25*
G04 #@! TO.N,/DBG_TX*
X23992880Y-12748000D03*
G04 #@! TO.P,J1,26*
G04 #@! TO.N,/DBG_RX*
X23992880Y-12248000D03*
G04 #@! TO.P,J1,27*
G04 #@! TO.N,GND*
X23992880Y-11748000D03*
G04 #@! TO.P,J1,28*
G04 #@! TO.N,/PWR_BTN*
X23992880Y-11248000D03*
G04 #@! TO.P,J1,29*
G04 #@! TO.N,/LED1_ISINK*
X23992880Y-10748000D03*
G04 #@! TO.P,J1,30*
G04 #@! TO.N,/LED2_ISINK*
X23992880Y-10248000D03*
G04 #@! TO.P,J1,31*
G04 #@! TO.N,/LED3_ISINK*
X23992880Y-9748000D03*
G04 #@! TO.P,J1,32*
G04 #@! TO.N,GND*
X23992880Y-9248000D03*
G04 #@! TO.P,J1,33*
G04 #@! TO.N,/I2C_0_SCL*
X23992880Y-8748000D03*
G04 #@! TO.P,J1,34*
G04 #@! TO.N,/I2C_0_SDA*
X23992880Y-8248000D03*
G04 #@! TO.P,J1,35*
G04 #@! TO.N,/I2C_1_SCL*
X23992880Y-7748000D03*
G04 #@! TO.P,J1,36*
G04 #@! TO.N,/I2C_1_SDA*
X23992880Y-7248000D03*
G04 #@! TO.P,J1,37*
G04 #@! TO.N,/1V2_SYS*
X23992880Y-6748000D03*
G04 #@! TO.P,J1,38*
G04 #@! TO.N,/1V8_SYS*
X23992880Y-6248000D03*
G04 #@! TO.P,J1,39*
G04 #@! TO.N,/2V5_SYS*
X23992880Y-5748000D03*
G04 #@! TO.P,J1,40*
G04 #@! TO.N,/3V3_SYS*
X23992880Y-5248000D03*
G04 #@! TO.P,J1,1*
G04 #@! TO.N,GND*
X18493780Y-14748000D03*
G04 #@! TO.P,J1,2*
G04 #@! TO.N,/CSI_CLK_IN_P*
X18493780Y-14248000D03*
G04 #@! TO.P,J1,3*
G04 #@! TO.N,/CSI_CLK_IN_N*
X18493780Y-13748000D03*
G04 #@! TO.P,J1,4*
G04 #@! TO.N,GND*
X18493780Y-13248000D03*
G04 #@! TO.P,J1,5*
G04 #@! TO.N,/CSI_D1_IN_P*
X18493780Y-12748000D03*
G04 #@! TO.P,J1,6*
G04 #@! TO.N,/CSI_D1_IN_N*
X18493780Y-12248000D03*
G04 #@! TO.P,J1,7*
G04 #@! TO.N,GND*
X18493780Y-11748000D03*
G04 #@! TO.P,J1,8*
G04 #@! TO.N,/CSI_D2_IN_P*
X18493780Y-11248000D03*
G04 #@! TO.P,J1,9*
G04 #@! TO.N,/CSI_D2_IN_N*
X18493780Y-10748000D03*
G04 #@! TO.P,J1,10*
G04 #@! TO.N,GND*
X18493780Y-10248000D03*
G04 #@! TO.P,J1,11*
G04 #@! TO.N,/CSI_D3_IN_P*
X18493780Y-9748000D03*
G04 #@! TO.P,J1,12*
G04 #@! TO.N,/CSI_D3_IN_N*
X18493780Y-9248000D03*
G04 #@! TO.P,J1,13*
G04 #@! TO.N,GND*
X18493780Y-8748000D03*
G04 #@! TO.P,J1,14*
G04 #@! TO.N,/CSI_D4_IN_P*
X18493780Y-8248000D03*
G04 #@! TO.P,J1,15*
G04 #@! TO.N,/CSI_D4_IN_N*
X18493780Y-7748000D03*
G04 #@! TO.P,J1,16*
G04 #@! TO.N,GND*
X18493780Y-7248000D03*
G04 #@! TO.P,J1,17*
G04 #@! TO.N,/USB_D_P*
X18493780Y-6748000D03*
G04 #@! TO.P,J1,18*
G04 #@! TO.N,/USB_D_N*
X18493780Y-6248000D03*
G04 #@! TO.P,J1,19*
G04 #@! TO.N,/VUSB*
X18493780Y-5748000D03*
G04 #@! TO.P,J1,20*
X18493780Y-5248000D03*
G04 #@! TD*
D10*
G04 #@! TO.P,J2,*
G04 #@! TO.N,*
X6302380Y-15949020D03*
X1181740Y-15949020D03*
X6302380Y-4046580D03*
X1181740Y-4041500D03*
D11*
G04 #@! TO.P,J2,21*
G04 #@! TO.N,GND*
X6492880Y-14748000D03*
G04 #@! TO.P,J2,22*
G04 #@! TO.N,/CSI_CLK_OUT_P*
X6492880Y-14248000D03*
G04 #@! TO.P,J2,23*
G04 #@! TO.N,/CSI_CLK_OUT_N*
X6492880Y-13748000D03*
G04 #@! TO.P,J2,24*
G04 #@! TO.N,GND*
X6492880Y-13248000D03*
G04 #@! TO.P,J2,25*
G04 #@! TO.N,/CSI_D1_OUT_P*
X6492880Y-12748000D03*
G04 #@! TO.P,J2,26*
G04 #@! TO.N,/CSI_D1_OUT_N*
X6492880Y-12248000D03*
G04 #@! TO.P,J2,27*
G04 #@! TO.N,GND*
X6492880Y-11748000D03*
G04 #@! TO.P,J2,28*
G04 #@! TO.N,/CSI_D2_OUT_P*
X6492880Y-11248000D03*
G04 #@! TO.P,J2,29*
G04 #@! TO.N,/CSI_D2_OUT_N*
X6492880Y-10748000D03*
G04 #@! TO.P,J2,30*
G04 #@! TO.N,GND*
X6492880Y-10248000D03*
G04 #@! TO.P,J2,31*
G04 #@! TO.N,/CSI_D3_OUT_P*
X6492880Y-9748000D03*
G04 #@! TO.P,J2,32*
G04 #@! TO.N,/CSI_D3_OUT_N*
X6492880Y-9248000D03*
G04 #@! TO.P,J2,33*
G04 #@! TO.N,GND*
X6492880Y-8748000D03*
G04 #@! TO.P,J2,34*
G04 #@! TO.N,/CSI_D4_OUT_P*
X6492880Y-8248000D03*
G04 #@! TO.P,J2,35*
G04 #@! TO.N,/CSI_D4_OUT_N*
X6492880Y-7748000D03*
G04 #@! TO.P,J2,36*
G04 #@! TO.N,GND*
X6492880Y-7248000D03*
G04 #@! TO.P,J2,37*
G04 #@! TO.N,/CTRL_OUT*
X6492880Y-6748000D03*
G04 #@! TO.P,J2,38*
G04 #@! TO.N,/PROC_OUT_0*
X6492880Y-6248000D03*
G04 #@! TO.P,J2,39*
G04 #@! TO.N,/PROC_OUT_1*
X6492880Y-5748000D03*
G04 #@! TO.P,J2,40*
G04 #@! TO.N,/PROC_OUT_2*
X6492880Y-5248000D03*
G04 #@! TO.P,J2,1*
G04 #@! TO.N,/E_PROC_RST*
X993780Y-14748000D03*
G04 #@! TO.P,J2,2*
G04 #@! TO.N,/E_PROC_SI*
X993780Y-14248000D03*
G04 #@! TO.P,J2,3*
G04 #@! TO.N,/E_PROC_SO*
X993780Y-13748000D03*
G04 #@! TO.P,J2,4*
G04 #@! TO.N,/E_PROC_SCK*
X993780Y-13248000D03*
G04 #@! TO.P,J2,5*
G04 #@! TO.N,/E_PROC_SS*
X993780Y-12748000D03*
G04 #@! TO.P,J2,6*
G04 #@! TO.N,GND*
X993780Y-12248000D03*
G04 #@! TO.P,J2,7*
G04 #@! TO.N,/CTRL_RST_FLASH_SOC_CS*
X993780Y-11748000D03*
G04 #@! TO.P,J2,8*
G04 #@! TO.N,/E_CTRL_SI*
X993780Y-11248000D03*
G04 #@! TO.P,J2,9*
G04 #@! TO.N,/E_CTRL_SO*
X993780Y-10748000D03*
G04 #@! TO.P,J2,10*
G04 #@! TO.N,/E_CTRL_SCK*
X993780Y-10248000D03*
G04 #@! TO.P,J2,11*
G04 #@! TO.N,/E_CTRL_SS*
X993780Y-9748000D03*
G04 #@! TO.P,J2,12*
G04 #@! TO.N,GND*
X993780Y-9248000D03*
G04 #@! TO.P,J2,13*
G04 #@! TO.N,/DONE*
X993780Y-8748000D03*
G04 #@! TO.P,J2,14*
G04 #@! TO.N,/FLASH_CLK*
X993780Y-8248000D03*
G04 #@! TO.P,J2,15*
G04 #@! TO.N,/FLASH_CS*
X993780Y-7748000D03*
G04 #@! TO.P,J2,16*
G04 #@! TO.N,/FLASH_IO0*
X993780Y-7248000D03*
G04 #@! TO.P,J2,17*
G04 #@! TO.N,/FLASH_IO1*
X993780Y-6748000D03*
G04 #@! TO.P,J2,18*
G04 #@! TO.N,/FLASH_IO2*
X993780Y-6248000D03*
G04 #@! TO.P,J2,19*
G04 #@! TO.N,/FLASH_IO3*
X993780Y-5748000D03*
G04 #@! TO.P,J2,20*
G04 #@! TO.N,GND*
X993780Y-5248000D03*
G04 #@! TD*
D12*
G04 #@! TO.N,/CSI_CLK_IN_P*
X19935545Y-14504455D03*
G04 #@! TO.N,/CSI_CLK_IN_N*
X20324455Y-14115545D03*
G04 #@! TO.N,Net-(U1-PadD8)*
X10875000Y-11795000D03*
G04 #@! TO.N,/ULPM_WAKE*
X14125000Y-11780000D03*
G04 #@! TO.N,/PIO3*
X13450000Y-15420000D03*
G04 #@! TO.N,/PROC_OUT_1*
X14500000Y-15020000D03*
G04 #@! TO.N,/PROC_OUT_2*
X13800000Y-14970000D03*
G04 #@! TO.N,/PIO1*
X13150000Y-15020000D03*
G04 #@! TO.N,/DONE*
X14100000Y-15370000D03*
G04 #@! TO.N,/PIO2*
X12825000Y-11790000D03*
G04 #@! TO.N,/PIO13*
X11525000Y-11800000D03*
G04 #@! TO.N,/PIO14*
X12150000Y-11775000D03*
G04 #@! TO.N,/PIO8*
X12175000Y-12475000D03*
G04 #@! TO.N,/PIO6*
X12825000Y-12475000D03*
G04 #@! TO.N,Net-(U1-PadC3)*
X13525000Y-11785000D03*
G04 #@! TD*
D13*
G04 #@! TO.N,/CSI_CLK_IN_P*
X19935545Y-14242825D02*
X19935545Y-14504455D01*
X19780720Y-14088000D02*
X19935545Y-14242825D01*
X19318781Y-14248000D02*
X19478781Y-14088000D01*
X18493780Y-14248000D02*
X19318781Y-14248000D01*
X19478781Y-14088000D02*
X19780720Y-14088000D01*
G04 #@! TO.N,/CSI_CLK_IN_N*
X19318781Y-13748000D02*
X19478781Y-13908000D01*
X19855280Y-13908000D02*
X20062825Y-14115545D01*
X18493780Y-13748000D02*
X19318781Y-13748000D01*
X19478781Y-13908000D02*
X19855280Y-13908000D01*
X20062825Y-14115545D02*
X20324455Y-14115545D01*
G04 #@! TD*
M02*
