G04 #@! TF.GenerationSoftware,KiCad,Pcbnew,5.0.2+dfsg1-1~bpo9+1*
G04 #@! TF.CreationDate,2019-10-17T14:08:20+02:00*
G04 #@! TF.ProjectId,zglue-jade-adapter,7a676c75-652d-46a6-9164-652d61646170,rev?*
G04 #@! TF.SameCoordinates,Original*
G04 #@! TF.FileFunction,Copper,L8,Bot*
G04 #@! TF.FilePolarity,Positive*
%FSLAX46Y46*%
G04 Gerber Fmt 4.6, Leading zero omitted, Abs format (unit mm)*
G04 Created by KiCad (PCBNEW 5.0.2+dfsg1-1~bpo9+1) date Thu 17 Oct 2019 02:08:20 PM CEST*
%MOMM*%
%LPD*%
G01*
G04 APERTURE LIST*
G04 #@! TA.AperFunction,SMDPad,CuDef*
%ADD10R,1.100000X0.300000*%
G04 #@! TD*
G04 #@! TA.AperFunction,SMDPad,CuDef*
%ADD11R,1.320000X1.300000*%
G04 #@! TD*
G04 #@! TA.AperFunction,ViaPad*
%ADD12C,0.400000*%
G04 #@! TD*
G04 #@! TA.AperFunction,Conductor*
%ADD13C,0.100000*%
G04 #@! TD*
G04 APERTURE END LIST*
D10*
G04 #@! TO.P,J1,20*
G04 #@! TO.N,/VUSB*
X6501220Y-14757000D03*
G04 #@! TO.P,J1,19*
X6501220Y-14257000D03*
G04 #@! TO.P,J1,18*
G04 #@! TO.N,/USB_D_N*
X6501220Y-13757000D03*
G04 #@! TO.P,J1,17*
G04 #@! TO.N,/USB_D_P*
X6501220Y-13257000D03*
G04 #@! TO.P,J1,16*
G04 #@! TO.N,GND*
X6501220Y-12757000D03*
G04 #@! TO.P,J1,15*
G04 #@! TO.N,/CSI_D4_IN_N*
X6501220Y-12257000D03*
G04 #@! TO.P,J1,14*
G04 #@! TO.N,/CSI_D4_IN_P*
X6501220Y-11757000D03*
G04 #@! TO.P,J1,13*
G04 #@! TO.N,GND*
X6501220Y-11257000D03*
G04 #@! TO.P,J1,12*
G04 #@! TO.N,/CSI_D3_IN_N*
X6501220Y-10757000D03*
G04 #@! TO.P,J1,11*
G04 #@! TO.N,/CSI_D3_IN_P*
X6501220Y-10257000D03*
G04 #@! TO.P,J1,10*
G04 #@! TO.N,GND*
X6501220Y-9757000D03*
G04 #@! TO.P,J1,9*
G04 #@! TO.N,/CSI_D2_IN_N*
X6501220Y-9257000D03*
G04 #@! TO.P,J1,8*
G04 #@! TO.N,/CSI_D2_IN_P*
X6501220Y-8757000D03*
G04 #@! TO.P,J1,7*
G04 #@! TO.N,GND*
X6501220Y-8257000D03*
G04 #@! TO.P,J1,6*
G04 #@! TO.N,/CSI_D1_IN_N*
X6501220Y-7757000D03*
G04 #@! TO.P,J1,5*
G04 #@! TO.N,/CSI_D1_IN_P*
X6501220Y-7257000D03*
G04 #@! TO.P,J1,4*
G04 #@! TO.N,GND*
X6501220Y-6757000D03*
G04 #@! TO.P,J1,3*
G04 #@! TO.N,/CSI_CLK_IN_N*
X6501220Y-6257000D03*
G04 #@! TO.P,J1,2*
G04 #@! TO.N,/CSI_CLK_IN_P*
X6501220Y-5757000D03*
G04 #@! TO.P,J1,1*
G04 #@! TO.N,GND*
X6501220Y-5257000D03*
G04 #@! TO.P,J1,40*
G04 #@! TO.N,/3V3_SYS*
X1002120Y-14757000D03*
G04 #@! TO.P,J1,39*
G04 #@! TO.N,/2V5_SYS*
X1002120Y-14257000D03*
G04 #@! TO.P,J1,38*
G04 #@! TO.N,/1V8_SYS*
X1002120Y-13757000D03*
G04 #@! TO.P,J1,37*
G04 #@! TO.N,/1V2_SYS*
X1002120Y-13257000D03*
G04 #@! TO.P,J1,36*
G04 #@! TO.N,/I2C_1_SDA*
X1002120Y-12757000D03*
G04 #@! TO.P,J1,35*
G04 #@! TO.N,/I2C_1_SCL*
X1002120Y-12257000D03*
G04 #@! TO.P,J1,34*
G04 #@! TO.N,/I2C_0_SDA*
X1002120Y-11757000D03*
G04 #@! TO.P,J1,33*
G04 #@! TO.N,/I2C_0_SCL*
X1002120Y-11257000D03*
G04 #@! TO.P,J1,32*
G04 #@! TO.N,GND*
X1002120Y-10757000D03*
G04 #@! TO.P,J1,31*
G04 #@! TO.N,/LED3_ISINK*
X1002120Y-10257000D03*
G04 #@! TO.P,J1,30*
G04 #@! TO.N,/LED2_ISINK*
X1002120Y-9757000D03*
G04 #@! TO.P,J1,29*
G04 #@! TO.N,/LED1_ISINK*
X1002120Y-9257000D03*
G04 #@! TO.P,J1,28*
G04 #@! TO.N,/PWR_BTN*
X1002120Y-8757000D03*
G04 #@! TO.P,J1,27*
G04 #@! TO.N,GND*
X1002120Y-8257000D03*
G04 #@! TO.P,J1,26*
G04 #@! TO.N,/DBG_RX*
X1002120Y-7757000D03*
G04 #@! TO.P,J1,25*
G04 #@! TO.N,/DBG_TX*
X1002120Y-7257000D03*
G04 #@! TO.P,J1,24*
G04 #@! TO.N,/TCK*
X1002120Y-6757000D03*
G04 #@! TO.P,J1,23*
G04 #@! TO.N,/TMS*
X1002120Y-6257000D03*
G04 #@! TO.P,J1,22*
G04 #@! TO.N,/TDO*
X1002120Y-5757000D03*
G04 #@! TO.P,J1,21*
G04 #@! TO.N,/TDI*
X1002120Y-5257000D03*
D11*
G04 #@! TO.P,J1,*
G04 #@! TO.N,*
X6313260Y-15963500D03*
X1192620Y-15958420D03*
X6313260Y-4055980D03*
X1192620Y-4055980D03*
G04 #@! TD*
D10*
G04 #@! TO.P,J2,20*
G04 #@! TO.N,GND*
X24001220Y-14757000D03*
G04 #@! TO.P,J2,19*
G04 #@! TO.N,/FLASH_IO3*
X24001220Y-14257000D03*
G04 #@! TO.P,J2,18*
G04 #@! TO.N,/FLASH_IO2*
X24001220Y-13757000D03*
G04 #@! TO.P,J2,17*
G04 #@! TO.N,/FLASH_IO1*
X24001220Y-13257000D03*
G04 #@! TO.P,J2,16*
G04 #@! TO.N,/FLASH_IO0*
X24001220Y-12757000D03*
G04 #@! TO.P,J2,15*
G04 #@! TO.N,/FLASH_CS*
X24001220Y-12257000D03*
G04 #@! TO.P,J2,14*
G04 #@! TO.N,/FLASH_CLK*
X24001220Y-11757000D03*
G04 #@! TO.P,J2,13*
G04 #@! TO.N,/DONE*
X24001220Y-11257000D03*
G04 #@! TO.P,J2,12*
G04 #@! TO.N,GND*
X24001220Y-10757000D03*
G04 #@! TO.P,J2,11*
G04 #@! TO.N,/E_CTRL_SS*
X24001220Y-10257000D03*
G04 #@! TO.P,J2,10*
G04 #@! TO.N,/E_CTRL_SCK*
X24001220Y-9757000D03*
G04 #@! TO.P,J2,9*
G04 #@! TO.N,/E_CTRL_SO*
X24001220Y-9257000D03*
G04 #@! TO.P,J2,8*
G04 #@! TO.N,/E_CTRL_SI*
X24001220Y-8757000D03*
G04 #@! TO.P,J2,7*
G04 #@! TO.N,/CTRL_RST_FLASH_SOC_CS*
X24001220Y-8257000D03*
G04 #@! TO.P,J2,6*
G04 #@! TO.N,GND*
X24001220Y-7757000D03*
G04 #@! TO.P,J2,5*
G04 #@! TO.N,/E_PROC_SS*
X24001220Y-7257000D03*
G04 #@! TO.P,J2,4*
G04 #@! TO.N,/E_PROC_SCK*
X24001220Y-6757000D03*
G04 #@! TO.P,J2,3*
G04 #@! TO.N,/E_PROC_SO*
X24001220Y-6257000D03*
G04 #@! TO.P,J2,2*
G04 #@! TO.N,/E_PROC_SI*
X24001220Y-5757000D03*
G04 #@! TO.P,J2,1*
G04 #@! TO.N,/E_PROC_RST*
X24001220Y-5257000D03*
G04 #@! TO.P,J2,40*
G04 #@! TO.N,/PROC_OUT_2*
X18502120Y-14757000D03*
G04 #@! TO.P,J2,39*
G04 #@! TO.N,/PROC_OUT_1*
X18502120Y-14257000D03*
G04 #@! TO.P,J2,38*
G04 #@! TO.N,/PROC_OUT_0*
X18502120Y-13757000D03*
G04 #@! TO.P,J2,37*
G04 #@! TO.N,/CTRL_OUT*
X18502120Y-13257000D03*
G04 #@! TO.P,J2,36*
G04 #@! TO.N,GND*
X18502120Y-12757000D03*
G04 #@! TO.P,J2,35*
G04 #@! TO.N,/CSI_D4_OUT_N*
X18502120Y-12257000D03*
G04 #@! TO.P,J2,34*
G04 #@! TO.N,/CSI_D4_OUT_P*
X18502120Y-11757000D03*
G04 #@! TO.P,J2,33*
G04 #@! TO.N,GND*
X18502120Y-11257000D03*
G04 #@! TO.P,J2,32*
G04 #@! TO.N,/CSI_D3_OUT_N*
X18502120Y-10757000D03*
G04 #@! TO.P,J2,31*
G04 #@! TO.N,/CSI_D3_OUT_P*
X18502120Y-10257000D03*
G04 #@! TO.P,J2,30*
G04 #@! TO.N,GND*
X18502120Y-9757000D03*
G04 #@! TO.P,J2,29*
G04 #@! TO.N,/CSI_D2_OUT_N*
X18502120Y-9257000D03*
G04 #@! TO.P,J2,28*
G04 #@! TO.N,/CSI_D2_OUT_P*
X18502120Y-8757000D03*
G04 #@! TO.P,J2,27*
G04 #@! TO.N,GND*
X18502120Y-8257000D03*
G04 #@! TO.P,J2,26*
G04 #@! TO.N,/CSI_D1_OUT_N*
X18502120Y-7757000D03*
G04 #@! TO.P,J2,25*
G04 #@! TO.N,/CSI_D1_OUT_P*
X18502120Y-7257000D03*
G04 #@! TO.P,J2,24*
G04 #@! TO.N,GND*
X18502120Y-6757000D03*
G04 #@! TO.P,J2,23*
G04 #@! TO.N,/CSI_CLK_OUT_N*
X18502120Y-6257000D03*
G04 #@! TO.P,J2,22*
G04 #@! TO.N,/CSI_CLK_OUT_P*
X18502120Y-5757000D03*
G04 #@! TO.P,J2,21*
G04 #@! TO.N,GND*
X18502120Y-5257000D03*
D11*
G04 #@! TO.P,J2,*
G04 #@! TO.N,*
X23813260Y-15963500D03*
X18692620Y-15958420D03*
X23813260Y-4055980D03*
X18692620Y-4055980D03*
G04 #@! TD*
D12*
G04 #@! TO.N,/CSI_CLK_IN_P*
X5059455Y-5500545D03*
G04 #@! TO.N,/CSI_CLK_IN_N*
X4670545Y-5889455D03*
G04 #@! TO.N,Net-(U1-PadD8)*
X14120000Y-8210000D03*
G04 #@! TO.N,/ULPM_WAKE*
X10870000Y-8225000D03*
G04 #@! TO.N,/PIO3*
X11545000Y-4585000D03*
G04 #@! TO.N,/PROC_OUT_1*
X10495000Y-4985000D03*
G04 #@! TO.N,/PROC_OUT_2*
X11195000Y-5035000D03*
G04 #@! TO.N,/PIO1*
X11845000Y-4985000D03*
G04 #@! TO.N,/DONE*
X10895000Y-4635000D03*
G04 #@! TO.N,/PIO2*
X12170000Y-8215000D03*
G04 #@! TO.N,/PIO13*
X13470000Y-8205000D03*
G04 #@! TO.N,/PIO14*
X12845000Y-8230000D03*
G04 #@! TO.N,/PIO8*
X12820000Y-7530000D03*
G04 #@! TO.N,/PIO6*
X12170000Y-7530000D03*
G04 #@! TO.N,Net-(U1-PadC3)*
X11470000Y-8220000D03*
G04 #@! TD*
D13*
G04 #@! TO.N,/CSI_CLK_IN_P*
X5059455Y-5762175D02*
X5059455Y-5500545D01*
X5214280Y-5917000D02*
X5059455Y-5762175D01*
X5676219Y-5757000D02*
X5516219Y-5917000D01*
X6501220Y-5757000D02*
X5676219Y-5757000D01*
X5516219Y-5917000D02*
X5214280Y-5917000D01*
G04 #@! TO.N,/CSI_CLK_IN_N*
X5676219Y-6257000D02*
X5516219Y-6097000D01*
X5139720Y-6097000D02*
X4932175Y-5889455D01*
X6501220Y-6257000D02*
X5676219Y-6257000D01*
X5516219Y-6097000D02*
X5139720Y-6097000D01*
X4932175Y-5889455D02*
X4670545Y-5889455D01*
G04 #@! TD*
M02*
