G04 #@! TF.GenerationSoftware,KiCad,Pcbnew,5.0.2+dfsg1-1~bpo9+1*
G04 #@! TF.CreationDate,2019-10-30T13:19:41+01:00*
G04 #@! TF.ProjectId,zglue-jade-adapter,7a676c75-652d-46a6-9164-652d61646170,rev?*
G04 #@! TF.SameCoordinates,Original*
G04 #@! TF.FileFunction,Legend,Bot*
G04 #@! TF.FilePolarity,Positive*
%FSLAX46Y46*%
G04 Gerber Fmt 4.6, Leading zero omitted, Abs format (unit mm)*
G04 Created by KiCad (PCBNEW 5.0.2+dfsg1-1~bpo9+1) date Wed 30 Oct 2019 01:19:41 PM CET*
%MOMM*%
%LPD*%
G01*
G04 APERTURE LIST*
%ADD10C,0.150000*%
G04 APERTURE END LIST*
D10*
G04 #@! TO.C,J1*
X6848800Y-3278980D02*
X6848800Y-2678980D01*
X6848800Y-2678980D02*
X648800Y-2678980D01*
X648800Y-2678980D02*
X648800Y-3278980D01*
X653600Y-16766380D02*
X653600Y-17366380D01*
X6853600Y-17366380D02*
X6853600Y-16766380D01*
X653600Y-17366380D02*
X6853600Y-17366380D01*
G04 #@! TO.C,J2*
X24353800Y-3278980D02*
X24353800Y-2678980D01*
X24353800Y-2678980D02*
X18153800Y-2678980D01*
X18153800Y-2678980D02*
X18153800Y-3278980D01*
X18158600Y-16766380D02*
X18158600Y-17366380D01*
X24358600Y-17366380D02*
X24358600Y-16766380D01*
X18158600Y-17366380D02*
X24358600Y-17366380D01*
G04 #@! TO.C,J1*
X1978333Y-18121666D02*
X1978333Y-18621666D01*
X2011666Y-18721666D01*
X2078333Y-18788333D01*
X2178333Y-18821666D01*
X2245000Y-18821666D01*
X1278333Y-18821666D02*
X1678333Y-18821666D01*
X1478333Y-18821666D02*
X1478333Y-18121666D01*
X1545000Y-18221666D01*
X1611666Y-18288333D01*
X1678333Y-18321666D01*
G04 #@! TO.C,J2*
X22580533Y-1524046D02*
X22580533Y-2024046D01*
X22613866Y-2124046D01*
X22680533Y-2190713D01*
X22780533Y-2224046D01*
X22847200Y-2224046D01*
X22280533Y-1590713D02*
X22247200Y-1557380D01*
X22180533Y-1524046D01*
X22013866Y-1524046D01*
X21947200Y-1557380D01*
X21913866Y-1590713D01*
X21880533Y-1657380D01*
X21880533Y-1724046D01*
X21913866Y-1824046D01*
X22313866Y-2224046D01*
X21880533Y-2224046D01*
G04 #@! TD*
M02*
