G04 #@! TF.GenerationSoftware,KiCad,Pcbnew,5.0.2+dfsg1-1~bpo9+1*
G04 #@! TF.CreationDate,2019-10-31T14:41:53+01:00*
G04 #@! TF.ProjectId,zglue-jade-adapter,7a676c75-652d-46a6-9164-652d61646170,rev?*
G04 #@! TF.SameCoordinates,Original*
G04 #@! TF.FileFunction,Paste,Top*
G04 #@! TF.FilePolarity,Positive*
%FSLAX46Y46*%
G04 Gerber Fmt 4.6, Leading zero omitted, Abs format (unit mm)*
G04 Created by KiCad (PCBNEW 5.0.2+dfsg1-1~bpo9+1) date Thu Oct 31 14:41:53 2019*
%MOMM*%
%LPD*%
G01*
G04 APERTURE LIST*
%ADD10C,0.100000*%
%ADD11C,0.590000*%
%ADD12C,1.000000*%
%ADD13R,0.300000X0.300000*%
%ADD14R,0.800000X0.600000*%
G04 APERTURE END LIST*
D10*
G04 #@! TO.C,R29*
G36*
X7411958Y-4125710D02*
X7426276Y-4127834D01*
X7440317Y-4131351D01*
X7453946Y-4136228D01*
X7467031Y-4142417D01*
X7479447Y-4149858D01*
X7491073Y-4158481D01*
X7501798Y-4168202D01*
X7511519Y-4178927D01*
X7520142Y-4190553D01*
X7527583Y-4202969D01*
X7533772Y-4216054D01*
X7538649Y-4229683D01*
X7542166Y-4243724D01*
X7544290Y-4258042D01*
X7545000Y-4272500D01*
X7545000Y-4617500D01*
X7544290Y-4631958D01*
X7542166Y-4646276D01*
X7538649Y-4660317D01*
X7533772Y-4673946D01*
X7527583Y-4687031D01*
X7520142Y-4699447D01*
X7511519Y-4711073D01*
X7501798Y-4721798D01*
X7491073Y-4731519D01*
X7479447Y-4740142D01*
X7467031Y-4747583D01*
X7453946Y-4753772D01*
X7440317Y-4758649D01*
X7426276Y-4762166D01*
X7411958Y-4764290D01*
X7397500Y-4765000D01*
X7102500Y-4765000D01*
X7088042Y-4764290D01*
X7073724Y-4762166D01*
X7059683Y-4758649D01*
X7046054Y-4753772D01*
X7032969Y-4747583D01*
X7020553Y-4740142D01*
X7008927Y-4731519D01*
X6998202Y-4721798D01*
X6988481Y-4711073D01*
X6979858Y-4699447D01*
X6972417Y-4687031D01*
X6966228Y-4673946D01*
X6961351Y-4660317D01*
X6957834Y-4646276D01*
X6955710Y-4631958D01*
X6955000Y-4617500D01*
X6955000Y-4272500D01*
X6955710Y-4258042D01*
X6957834Y-4243724D01*
X6961351Y-4229683D01*
X6966228Y-4216054D01*
X6972417Y-4202969D01*
X6979858Y-4190553D01*
X6988481Y-4178927D01*
X6998202Y-4168202D01*
X7008927Y-4158481D01*
X7020553Y-4149858D01*
X7032969Y-4142417D01*
X7046054Y-4136228D01*
X7059683Y-4131351D01*
X7073724Y-4127834D01*
X7088042Y-4125710D01*
X7102500Y-4125000D01*
X7397500Y-4125000D01*
X7411958Y-4125710D01*
X7411958Y-4125710D01*
G37*
D11*
X7250000Y-4445000D03*
D10*
G36*
X6441958Y-4125710D02*
X6456276Y-4127834D01*
X6470317Y-4131351D01*
X6483946Y-4136228D01*
X6497031Y-4142417D01*
X6509447Y-4149858D01*
X6521073Y-4158481D01*
X6531798Y-4168202D01*
X6541519Y-4178927D01*
X6550142Y-4190553D01*
X6557583Y-4202969D01*
X6563772Y-4216054D01*
X6568649Y-4229683D01*
X6572166Y-4243724D01*
X6574290Y-4258042D01*
X6575000Y-4272500D01*
X6575000Y-4617500D01*
X6574290Y-4631958D01*
X6572166Y-4646276D01*
X6568649Y-4660317D01*
X6563772Y-4673946D01*
X6557583Y-4687031D01*
X6550142Y-4699447D01*
X6541519Y-4711073D01*
X6531798Y-4721798D01*
X6521073Y-4731519D01*
X6509447Y-4740142D01*
X6497031Y-4747583D01*
X6483946Y-4753772D01*
X6470317Y-4758649D01*
X6456276Y-4762166D01*
X6441958Y-4764290D01*
X6427500Y-4765000D01*
X6132500Y-4765000D01*
X6118042Y-4764290D01*
X6103724Y-4762166D01*
X6089683Y-4758649D01*
X6076054Y-4753772D01*
X6062969Y-4747583D01*
X6050553Y-4740142D01*
X6038927Y-4731519D01*
X6028202Y-4721798D01*
X6018481Y-4711073D01*
X6009858Y-4699447D01*
X6002417Y-4687031D01*
X5996228Y-4673946D01*
X5991351Y-4660317D01*
X5987834Y-4646276D01*
X5985710Y-4631958D01*
X5985000Y-4617500D01*
X5985000Y-4272500D01*
X5985710Y-4258042D01*
X5987834Y-4243724D01*
X5991351Y-4229683D01*
X5996228Y-4216054D01*
X6002417Y-4202969D01*
X6009858Y-4190553D01*
X6018481Y-4178927D01*
X6028202Y-4168202D01*
X6038927Y-4158481D01*
X6050553Y-4149858D01*
X6062969Y-4142417D01*
X6076054Y-4136228D01*
X6089683Y-4131351D01*
X6103724Y-4127834D01*
X6118042Y-4125710D01*
X6132500Y-4125000D01*
X6427500Y-4125000D01*
X6441958Y-4125710D01*
X6441958Y-4125710D01*
G37*
D11*
X6280000Y-4445000D03*
G04 #@! TD*
D10*
G04 #@! TO.C,C6*
G36*
X18741958Y-11855710D02*
X18756276Y-11857834D01*
X18770317Y-11861351D01*
X18783946Y-11866228D01*
X18797031Y-11872417D01*
X18809447Y-11879858D01*
X18821073Y-11888481D01*
X18831798Y-11898202D01*
X18841519Y-11908927D01*
X18850142Y-11920553D01*
X18857583Y-11932969D01*
X18863772Y-11946054D01*
X18868649Y-11959683D01*
X18872166Y-11973724D01*
X18874290Y-11988042D01*
X18875000Y-12002500D01*
X18875000Y-12297500D01*
X18874290Y-12311958D01*
X18872166Y-12326276D01*
X18868649Y-12340317D01*
X18863772Y-12353946D01*
X18857583Y-12367031D01*
X18850142Y-12379447D01*
X18841519Y-12391073D01*
X18831798Y-12401798D01*
X18821073Y-12411519D01*
X18809447Y-12420142D01*
X18797031Y-12427583D01*
X18783946Y-12433772D01*
X18770317Y-12438649D01*
X18756276Y-12442166D01*
X18741958Y-12444290D01*
X18727500Y-12445000D01*
X18382500Y-12445000D01*
X18368042Y-12444290D01*
X18353724Y-12442166D01*
X18339683Y-12438649D01*
X18326054Y-12433772D01*
X18312969Y-12427583D01*
X18300553Y-12420142D01*
X18288927Y-12411519D01*
X18278202Y-12401798D01*
X18268481Y-12391073D01*
X18259858Y-12379447D01*
X18252417Y-12367031D01*
X18246228Y-12353946D01*
X18241351Y-12340317D01*
X18237834Y-12326276D01*
X18235710Y-12311958D01*
X18235000Y-12297500D01*
X18235000Y-12002500D01*
X18235710Y-11988042D01*
X18237834Y-11973724D01*
X18241351Y-11959683D01*
X18246228Y-11946054D01*
X18252417Y-11932969D01*
X18259858Y-11920553D01*
X18268481Y-11908927D01*
X18278202Y-11898202D01*
X18288927Y-11888481D01*
X18300553Y-11879858D01*
X18312969Y-11872417D01*
X18326054Y-11866228D01*
X18339683Y-11861351D01*
X18353724Y-11857834D01*
X18368042Y-11855710D01*
X18382500Y-11855000D01*
X18727500Y-11855000D01*
X18741958Y-11855710D01*
X18741958Y-11855710D01*
G37*
D11*
X18555000Y-12150000D03*
D10*
G36*
X18741958Y-10885710D02*
X18756276Y-10887834D01*
X18770317Y-10891351D01*
X18783946Y-10896228D01*
X18797031Y-10902417D01*
X18809447Y-10909858D01*
X18821073Y-10918481D01*
X18831798Y-10928202D01*
X18841519Y-10938927D01*
X18850142Y-10950553D01*
X18857583Y-10962969D01*
X18863772Y-10976054D01*
X18868649Y-10989683D01*
X18872166Y-11003724D01*
X18874290Y-11018042D01*
X18875000Y-11032500D01*
X18875000Y-11327500D01*
X18874290Y-11341958D01*
X18872166Y-11356276D01*
X18868649Y-11370317D01*
X18863772Y-11383946D01*
X18857583Y-11397031D01*
X18850142Y-11409447D01*
X18841519Y-11421073D01*
X18831798Y-11431798D01*
X18821073Y-11441519D01*
X18809447Y-11450142D01*
X18797031Y-11457583D01*
X18783946Y-11463772D01*
X18770317Y-11468649D01*
X18756276Y-11472166D01*
X18741958Y-11474290D01*
X18727500Y-11475000D01*
X18382500Y-11475000D01*
X18368042Y-11474290D01*
X18353724Y-11472166D01*
X18339683Y-11468649D01*
X18326054Y-11463772D01*
X18312969Y-11457583D01*
X18300553Y-11450142D01*
X18288927Y-11441519D01*
X18278202Y-11431798D01*
X18268481Y-11421073D01*
X18259858Y-11409447D01*
X18252417Y-11397031D01*
X18246228Y-11383946D01*
X18241351Y-11370317D01*
X18237834Y-11356276D01*
X18235710Y-11341958D01*
X18235000Y-11327500D01*
X18235000Y-11032500D01*
X18235710Y-11018042D01*
X18237834Y-11003724D01*
X18241351Y-10989683D01*
X18246228Y-10976054D01*
X18252417Y-10962969D01*
X18259858Y-10950553D01*
X18268481Y-10938927D01*
X18278202Y-10928202D01*
X18288927Y-10918481D01*
X18300553Y-10909858D01*
X18312969Y-10902417D01*
X18326054Y-10896228D01*
X18339683Y-10891351D01*
X18353724Y-10887834D01*
X18368042Y-10885710D01*
X18382500Y-10885000D01*
X18727500Y-10885000D01*
X18741958Y-10885710D01*
X18741958Y-10885710D01*
G37*
D11*
X18555000Y-11180000D03*
G04 #@! TD*
D10*
G04 #@! TO.C,R23*
G36*
X16556958Y-10770710D02*
X16571276Y-10772834D01*
X16585317Y-10776351D01*
X16598946Y-10781228D01*
X16612031Y-10787417D01*
X16624447Y-10794858D01*
X16636073Y-10803481D01*
X16646798Y-10813202D01*
X16656519Y-10823927D01*
X16665142Y-10835553D01*
X16672583Y-10847969D01*
X16678772Y-10861054D01*
X16683649Y-10874683D01*
X16687166Y-10888724D01*
X16689290Y-10903042D01*
X16690000Y-10917500D01*
X16690000Y-11262500D01*
X16689290Y-11276958D01*
X16687166Y-11291276D01*
X16683649Y-11305317D01*
X16678772Y-11318946D01*
X16672583Y-11332031D01*
X16665142Y-11344447D01*
X16656519Y-11356073D01*
X16646798Y-11366798D01*
X16636073Y-11376519D01*
X16624447Y-11385142D01*
X16612031Y-11392583D01*
X16598946Y-11398772D01*
X16585317Y-11403649D01*
X16571276Y-11407166D01*
X16556958Y-11409290D01*
X16542500Y-11410000D01*
X16247500Y-11410000D01*
X16233042Y-11409290D01*
X16218724Y-11407166D01*
X16204683Y-11403649D01*
X16191054Y-11398772D01*
X16177969Y-11392583D01*
X16165553Y-11385142D01*
X16153927Y-11376519D01*
X16143202Y-11366798D01*
X16133481Y-11356073D01*
X16124858Y-11344447D01*
X16117417Y-11332031D01*
X16111228Y-11318946D01*
X16106351Y-11305317D01*
X16102834Y-11291276D01*
X16100710Y-11276958D01*
X16100000Y-11262500D01*
X16100000Y-10917500D01*
X16100710Y-10903042D01*
X16102834Y-10888724D01*
X16106351Y-10874683D01*
X16111228Y-10861054D01*
X16117417Y-10847969D01*
X16124858Y-10835553D01*
X16133481Y-10823927D01*
X16143202Y-10813202D01*
X16153927Y-10803481D01*
X16165553Y-10794858D01*
X16177969Y-10787417D01*
X16191054Y-10781228D01*
X16204683Y-10776351D01*
X16218724Y-10772834D01*
X16233042Y-10770710D01*
X16247500Y-10770000D01*
X16542500Y-10770000D01*
X16556958Y-10770710D01*
X16556958Y-10770710D01*
G37*
D11*
X16395000Y-11090000D03*
D10*
G36*
X17526958Y-10770710D02*
X17541276Y-10772834D01*
X17555317Y-10776351D01*
X17568946Y-10781228D01*
X17582031Y-10787417D01*
X17594447Y-10794858D01*
X17606073Y-10803481D01*
X17616798Y-10813202D01*
X17626519Y-10823927D01*
X17635142Y-10835553D01*
X17642583Y-10847969D01*
X17648772Y-10861054D01*
X17653649Y-10874683D01*
X17657166Y-10888724D01*
X17659290Y-10903042D01*
X17660000Y-10917500D01*
X17660000Y-11262500D01*
X17659290Y-11276958D01*
X17657166Y-11291276D01*
X17653649Y-11305317D01*
X17648772Y-11318946D01*
X17642583Y-11332031D01*
X17635142Y-11344447D01*
X17626519Y-11356073D01*
X17616798Y-11366798D01*
X17606073Y-11376519D01*
X17594447Y-11385142D01*
X17582031Y-11392583D01*
X17568946Y-11398772D01*
X17555317Y-11403649D01*
X17541276Y-11407166D01*
X17526958Y-11409290D01*
X17512500Y-11410000D01*
X17217500Y-11410000D01*
X17203042Y-11409290D01*
X17188724Y-11407166D01*
X17174683Y-11403649D01*
X17161054Y-11398772D01*
X17147969Y-11392583D01*
X17135553Y-11385142D01*
X17123927Y-11376519D01*
X17113202Y-11366798D01*
X17103481Y-11356073D01*
X17094858Y-11344447D01*
X17087417Y-11332031D01*
X17081228Y-11318946D01*
X17076351Y-11305317D01*
X17072834Y-11291276D01*
X17070710Y-11276958D01*
X17070000Y-11262500D01*
X17070000Y-10917500D01*
X17070710Y-10903042D01*
X17072834Y-10888724D01*
X17076351Y-10874683D01*
X17081228Y-10861054D01*
X17087417Y-10847969D01*
X17094858Y-10835553D01*
X17103481Y-10823927D01*
X17113202Y-10813202D01*
X17123927Y-10803481D01*
X17135553Y-10794858D01*
X17147969Y-10787417D01*
X17161054Y-10781228D01*
X17174683Y-10776351D01*
X17188724Y-10772834D01*
X17203042Y-10770710D01*
X17217500Y-10770000D01*
X17512500Y-10770000D01*
X17526958Y-10770710D01*
X17526958Y-10770710D01*
G37*
D11*
X17365000Y-11090000D03*
G04 #@! TD*
D10*
G04 #@! TO.C,R15*
G36*
X21426958Y-3930710D02*
X21441276Y-3932834D01*
X21455317Y-3936351D01*
X21468946Y-3941228D01*
X21482031Y-3947417D01*
X21494447Y-3954858D01*
X21506073Y-3963481D01*
X21516798Y-3973202D01*
X21526519Y-3983927D01*
X21535142Y-3995553D01*
X21542583Y-4007969D01*
X21548772Y-4021054D01*
X21553649Y-4034683D01*
X21557166Y-4048724D01*
X21559290Y-4063042D01*
X21560000Y-4077500D01*
X21560000Y-4422500D01*
X21559290Y-4436958D01*
X21557166Y-4451276D01*
X21553649Y-4465317D01*
X21548772Y-4478946D01*
X21542583Y-4492031D01*
X21535142Y-4504447D01*
X21526519Y-4516073D01*
X21516798Y-4526798D01*
X21506073Y-4536519D01*
X21494447Y-4545142D01*
X21482031Y-4552583D01*
X21468946Y-4558772D01*
X21455317Y-4563649D01*
X21441276Y-4567166D01*
X21426958Y-4569290D01*
X21412500Y-4570000D01*
X21117500Y-4570000D01*
X21103042Y-4569290D01*
X21088724Y-4567166D01*
X21074683Y-4563649D01*
X21061054Y-4558772D01*
X21047969Y-4552583D01*
X21035553Y-4545142D01*
X21023927Y-4536519D01*
X21013202Y-4526798D01*
X21003481Y-4516073D01*
X20994858Y-4504447D01*
X20987417Y-4492031D01*
X20981228Y-4478946D01*
X20976351Y-4465317D01*
X20972834Y-4451276D01*
X20970710Y-4436958D01*
X20970000Y-4422500D01*
X20970000Y-4077500D01*
X20970710Y-4063042D01*
X20972834Y-4048724D01*
X20976351Y-4034683D01*
X20981228Y-4021054D01*
X20987417Y-4007969D01*
X20994858Y-3995553D01*
X21003481Y-3983927D01*
X21013202Y-3973202D01*
X21023927Y-3963481D01*
X21035553Y-3954858D01*
X21047969Y-3947417D01*
X21061054Y-3941228D01*
X21074683Y-3936351D01*
X21088724Y-3932834D01*
X21103042Y-3930710D01*
X21117500Y-3930000D01*
X21412500Y-3930000D01*
X21426958Y-3930710D01*
X21426958Y-3930710D01*
G37*
D11*
X21265000Y-4250000D03*
D10*
G36*
X22396958Y-3930710D02*
X22411276Y-3932834D01*
X22425317Y-3936351D01*
X22438946Y-3941228D01*
X22452031Y-3947417D01*
X22464447Y-3954858D01*
X22476073Y-3963481D01*
X22486798Y-3973202D01*
X22496519Y-3983927D01*
X22505142Y-3995553D01*
X22512583Y-4007969D01*
X22518772Y-4021054D01*
X22523649Y-4034683D01*
X22527166Y-4048724D01*
X22529290Y-4063042D01*
X22530000Y-4077500D01*
X22530000Y-4422500D01*
X22529290Y-4436958D01*
X22527166Y-4451276D01*
X22523649Y-4465317D01*
X22518772Y-4478946D01*
X22512583Y-4492031D01*
X22505142Y-4504447D01*
X22496519Y-4516073D01*
X22486798Y-4526798D01*
X22476073Y-4536519D01*
X22464447Y-4545142D01*
X22452031Y-4552583D01*
X22438946Y-4558772D01*
X22425317Y-4563649D01*
X22411276Y-4567166D01*
X22396958Y-4569290D01*
X22382500Y-4570000D01*
X22087500Y-4570000D01*
X22073042Y-4569290D01*
X22058724Y-4567166D01*
X22044683Y-4563649D01*
X22031054Y-4558772D01*
X22017969Y-4552583D01*
X22005553Y-4545142D01*
X21993927Y-4536519D01*
X21983202Y-4526798D01*
X21973481Y-4516073D01*
X21964858Y-4504447D01*
X21957417Y-4492031D01*
X21951228Y-4478946D01*
X21946351Y-4465317D01*
X21942834Y-4451276D01*
X21940710Y-4436958D01*
X21940000Y-4422500D01*
X21940000Y-4077500D01*
X21940710Y-4063042D01*
X21942834Y-4048724D01*
X21946351Y-4034683D01*
X21951228Y-4021054D01*
X21957417Y-4007969D01*
X21964858Y-3995553D01*
X21973481Y-3983927D01*
X21983202Y-3973202D01*
X21993927Y-3963481D01*
X22005553Y-3954858D01*
X22017969Y-3947417D01*
X22031054Y-3941228D01*
X22044683Y-3936351D01*
X22058724Y-3932834D01*
X22073042Y-3930710D01*
X22087500Y-3930000D01*
X22382500Y-3930000D01*
X22396958Y-3930710D01*
X22396958Y-3930710D01*
G37*
D11*
X22235000Y-4250000D03*
G04 #@! TD*
D10*
G04 #@! TO.C,U1*
G36*
X11574504Y-8751204D02*
X11598773Y-8754804D01*
X11622571Y-8760765D01*
X11645671Y-8769030D01*
X11667849Y-8779520D01*
X11688893Y-8792133D01*
X11708598Y-8806747D01*
X11726777Y-8823223D01*
X11743253Y-8841402D01*
X11757867Y-8861107D01*
X11770480Y-8882151D01*
X11780970Y-8904329D01*
X11789235Y-8927429D01*
X11795196Y-8951227D01*
X11798796Y-8975496D01*
X11800000Y-9000000D01*
X11800000Y-9700000D01*
X11798796Y-9724504D01*
X11795196Y-9748773D01*
X11789235Y-9772571D01*
X11780970Y-9795671D01*
X11770480Y-9817849D01*
X11757867Y-9838893D01*
X11743253Y-9858598D01*
X11726777Y-9876777D01*
X11708598Y-9893253D01*
X11688893Y-9907867D01*
X11667849Y-9920480D01*
X11645671Y-9930970D01*
X11622571Y-9939235D01*
X11598773Y-9945196D01*
X11574504Y-9948796D01*
X11550000Y-9950000D01*
X11050000Y-9950000D01*
X11025496Y-9948796D01*
X11001227Y-9945196D01*
X10977429Y-9939235D01*
X10954329Y-9930970D01*
X10932151Y-9920480D01*
X10911107Y-9907867D01*
X10891402Y-9893253D01*
X10873223Y-9876777D01*
X10856747Y-9858598D01*
X10842133Y-9838893D01*
X10829520Y-9817849D01*
X10819030Y-9795671D01*
X10810765Y-9772571D01*
X10804804Y-9748773D01*
X10801204Y-9724504D01*
X10800000Y-9700000D01*
X10800000Y-9000000D01*
X10801204Y-8975496D01*
X10804804Y-8951227D01*
X10810765Y-8927429D01*
X10819030Y-8904329D01*
X10829520Y-8882151D01*
X10842133Y-8861107D01*
X10856747Y-8841402D01*
X10873223Y-8823223D01*
X10891402Y-8806747D01*
X10911107Y-8792133D01*
X10932151Y-8779520D01*
X10954329Y-8769030D01*
X10977429Y-8760765D01*
X11001227Y-8754804D01*
X11025496Y-8751204D01*
X11050000Y-8750000D01*
X11550000Y-8750000D01*
X11574504Y-8751204D01*
X11574504Y-8751204D01*
G37*
D12*
X11300000Y-9350000D03*
D10*
G36*
X12774504Y-8751204D02*
X12798773Y-8754804D01*
X12822571Y-8760765D01*
X12845671Y-8769030D01*
X12867849Y-8779520D01*
X12888893Y-8792133D01*
X12908598Y-8806747D01*
X12926777Y-8823223D01*
X12943253Y-8841402D01*
X12957867Y-8861107D01*
X12970480Y-8882151D01*
X12980970Y-8904329D01*
X12989235Y-8927429D01*
X12995196Y-8951227D01*
X12998796Y-8975496D01*
X13000000Y-9000000D01*
X13000000Y-9700000D01*
X12998796Y-9724504D01*
X12995196Y-9748773D01*
X12989235Y-9772571D01*
X12980970Y-9795671D01*
X12970480Y-9817849D01*
X12957867Y-9838893D01*
X12943253Y-9858598D01*
X12926777Y-9876777D01*
X12908598Y-9893253D01*
X12888893Y-9907867D01*
X12867849Y-9920480D01*
X12845671Y-9930970D01*
X12822571Y-9939235D01*
X12798773Y-9945196D01*
X12774504Y-9948796D01*
X12750000Y-9950000D01*
X12250000Y-9950000D01*
X12225496Y-9948796D01*
X12201227Y-9945196D01*
X12177429Y-9939235D01*
X12154329Y-9930970D01*
X12132151Y-9920480D01*
X12111107Y-9907867D01*
X12091402Y-9893253D01*
X12073223Y-9876777D01*
X12056747Y-9858598D01*
X12042133Y-9838893D01*
X12029520Y-9817849D01*
X12019030Y-9795671D01*
X12010765Y-9772571D01*
X12004804Y-9748773D01*
X12001204Y-9724504D01*
X12000000Y-9700000D01*
X12000000Y-9000000D01*
X12001204Y-8975496D01*
X12004804Y-8951227D01*
X12010765Y-8927429D01*
X12019030Y-8904329D01*
X12029520Y-8882151D01*
X12042133Y-8861107D01*
X12056747Y-8841402D01*
X12073223Y-8823223D01*
X12091402Y-8806747D01*
X12111107Y-8792133D01*
X12132151Y-8779520D01*
X12154329Y-8769030D01*
X12177429Y-8760765D01*
X12201227Y-8754804D01*
X12225496Y-8751204D01*
X12250000Y-8750000D01*
X12750000Y-8750000D01*
X12774504Y-8751204D01*
X12774504Y-8751204D01*
G37*
D12*
X12500000Y-9350000D03*
D10*
G36*
X11574504Y-10051204D02*
X11598773Y-10054804D01*
X11622571Y-10060765D01*
X11645671Y-10069030D01*
X11667849Y-10079520D01*
X11688893Y-10092133D01*
X11708598Y-10106747D01*
X11726777Y-10123223D01*
X11743253Y-10141402D01*
X11757867Y-10161107D01*
X11770480Y-10182151D01*
X11780970Y-10204329D01*
X11789235Y-10227429D01*
X11795196Y-10251227D01*
X11798796Y-10275496D01*
X11800000Y-10300000D01*
X11800000Y-11000000D01*
X11798796Y-11024504D01*
X11795196Y-11048773D01*
X11789235Y-11072571D01*
X11780970Y-11095671D01*
X11770480Y-11117849D01*
X11757867Y-11138893D01*
X11743253Y-11158598D01*
X11726777Y-11176777D01*
X11708598Y-11193253D01*
X11688893Y-11207867D01*
X11667849Y-11220480D01*
X11645671Y-11230970D01*
X11622571Y-11239235D01*
X11598773Y-11245196D01*
X11574504Y-11248796D01*
X11550000Y-11250000D01*
X11050000Y-11250000D01*
X11025496Y-11248796D01*
X11001227Y-11245196D01*
X10977429Y-11239235D01*
X10954329Y-11230970D01*
X10932151Y-11220480D01*
X10911107Y-11207867D01*
X10891402Y-11193253D01*
X10873223Y-11176777D01*
X10856747Y-11158598D01*
X10842133Y-11138893D01*
X10829520Y-11117849D01*
X10819030Y-11095671D01*
X10810765Y-11072571D01*
X10804804Y-11048773D01*
X10801204Y-11024504D01*
X10800000Y-11000000D01*
X10800000Y-10300000D01*
X10801204Y-10275496D01*
X10804804Y-10251227D01*
X10810765Y-10227429D01*
X10819030Y-10204329D01*
X10829520Y-10182151D01*
X10842133Y-10161107D01*
X10856747Y-10141402D01*
X10873223Y-10123223D01*
X10891402Y-10106747D01*
X10911107Y-10092133D01*
X10932151Y-10079520D01*
X10954329Y-10069030D01*
X10977429Y-10060765D01*
X11001227Y-10054804D01*
X11025496Y-10051204D01*
X11050000Y-10050000D01*
X11550000Y-10050000D01*
X11574504Y-10051204D01*
X11574504Y-10051204D01*
G37*
D12*
X11300000Y-10650000D03*
D10*
G36*
X12774504Y-10051204D02*
X12798773Y-10054804D01*
X12822571Y-10060765D01*
X12845671Y-10069030D01*
X12867849Y-10079520D01*
X12888893Y-10092133D01*
X12908598Y-10106747D01*
X12926777Y-10123223D01*
X12943253Y-10141402D01*
X12957867Y-10161107D01*
X12970480Y-10182151D01*
X12980970Y-10204329D01*
X12989235Y-10227429D01*
X12995196Y-10251227D01*
X12998796Y-10275496D01*
X13000000Y-10300000D01*
X13000000Y-11000000D01*
X12998796Y-11024504D01*
X12995196Y-11048773D01*
X12989235Y-11072571D01*
X12980970Y-11095671D01*
X12970480Y-11117849D01*
X12957867Y-11138893D01*
X12943253Y-11158598D01*
X12926777Y-11176777D01*
X12908598Y-11193253D01*
X12888893Y-11207867D01*
X12867849Y-11220480D01*
X12845671Y-11230970D01*
X12822571Y-11239235D01*
X12798773Y-11245196D01*
X12774504Y-11248796D01*
X12750000Y-11250000D01*
X12250000Y-11250000D01*
X12225496Y-11248796D01*
X12201227Y-11245196D01*
X12177429Y-11239235D01*
X12154329Y-11230970D01*
X12132151Y-11220480D01*
X12111107Y-11207867D01*
X12091402Y-11193253D01*
X12073223Y-11176777D01*
X12056747Y-11158598D01*
X12042133Y-11138893D01*
X12029520Y-11117849D01*
X12019030Y-11095671D01*
X12010765Y-11072571D01*
X12004804Y-11048773D01*
X12001204Y-11024504D01*
X12000000Y-11000000D01*
X12000000Y-10300000D01*
X12001204Y-10275496D01*
X12004804Y-10251227D01*
X12010765Y-10227429D01*
X12019030Y-10204329D01*
X12029520Y-10182151D01*
X12042133Y-10161107D01*
X12056747Y-10141402D01*
X12073223Y-10123223D01*
X12091402Y-10106747D01*
X12111107Y-10092133D01*
X12132151Y-10079520D01*
X12154329Y-10069030D01*
X12177429Y-10060765D01*
X12201227Y-10054804D01*
X12225496Y-10051204D01*
X12250000Y-10050000D01*
X12750000Y-10050000D01*
X12774504Y-10051204D01*
X12774504Y-10051204D01*
G37*
D12*
X12500000Y-10650000D03*
D10*
G36*
X13974504Y-8751204D02*
X13998773Y-8754804D01*
X14022571Y-8760765D01*
X14045671Y-8769030D01*
X14067849Y-8779520D01*
X14088893Y-8792133D01*
X14108598Y-8806747D01*
X14126777Y-8823223D01*
X14143253Y-8841402D01*
X14157867Y-8861107D01*
X14170480Y-8882151D01*
X14180970Y-8904329D01*
X14189235Y-8927429D01*
X14195196Y-8951227D01*
X14198796Y-8975496D01*
X14200000Y-9000000D01*
X14200000Y-9700000D01*
X14198796Y-9724504D01*
X14195196Y-9748773D01*
X14189235Y-9772571D01*
X14180970Y-9795671D01*
X14170480Y-9817849D01*
X14157867Y-9838893D01*
X14143253Y-9858598D01*
X14126777Y-9876777D01*
X14108598Y-9893253D01*
X14088893Y-9907867D01*
X14067849Y-9920480D01*
X14045671Y-9930970D01*
X14022571Y-9939235D01*
X13998773Y-9945196D01*
X13974504Y-9948796D01*
X13950000Y-9950000D01*
X13450000Y-9950000D01*
X13425496Y-9948796D01*
X13401227Y-9945196D01*
X13377429Y-9939235D01*
X13354329Y-9930970D01*
X13332151Y-9920480D01*
X13311107Y-9907867D01*
X13291402Y-9893253D01*
X13273223Y-9876777D01*
X13256747Y-9858598D01*
X13242133Y-9838893D01*
X13229520Y-9817849D01*
X13219030Y-9795671D01*
X13210765Y-9772571D01*
X13204804Y-9748773D01*
X13201204Y-9724504D01*
X13200000Y-9700000D01*
X13200000Y-9000000D01*
X13201204Y-8975496D01*
X13204804Y-8951227D01*
X13210765Y-8927429D01*
X13219030Y-8904329D01*
X13229520Y-8882151D01*
X13242133Y-8861107D01*
X13256747Y-8841402D01*
X13273223Y-8823223D01*
X13291402Y-8806747D01*
X13311107Y-8792133D01*
X13332151Y-8779520D01*
X13354329Y-8769030D01*
X13377429Y-8760765D01*
X13401227Y-8754804D01*
X13425496Y-8751204D01*
X13450000Y-8750000D01*
X13950000Y-8750000D01*
X13974504Y-8751204D01*
X13974504Y-8751204D01*
G37*
D12*
X13700000Y-9350000D03*
D13*
X9575000Y-14225000D03*
X10225000Y-14225000D03*
X10875000Y-14225000D03*
X11525000Y-14225000D03*
X12175000Y-14225000D03*
X12825000Y-14225000D03*
X13475000Y-14225000D03*
X14125000Y-14225000D03*
X14775000Y-14225000D03*
X15425000Y-14225000D03*
X13475000Y-13575000D03*
X12175000Y-13575000D03*
X10875000Y-13575000D03*
X14125000Y-13575000D03*
X11525000Y-13575000D03*
X9575000Y-13575000D03*
X14775000Y-13575000D03*
X10225000Y-13575000D03*
X15425000Y-13575000D03*
X12825000Y-13575000D03*
X13475000Y-12925000D03*
X12175000Y-12925000D03*
X10875000Y-12925000D03*
X14125000Y-12925000D03*
X11525000Y-12925000D03*
X9575000Y-12925000D03*
X14775000Y-12925000D03*
X10225000Y-12925000D03*
X15425000Y-12925000D03*
X12825000Y-12925000D03*
X10875000Y-12275000D03*
X14125000Y-12275000D03*
X9575000Y-12275000D03*
X14775000Y-12275000D03*
X10225000Y-12275000D03*
X15425000Y-12275000D03*
X14775000Y-11625000D03*
X9575000Y-11625000D03*
X15425000Y-11625000D03*
X10225000Y-11625000D03*
X14775000Y-10975000D03*
X10225000Y-10975000D03*
X15425000Y-10975000D03*
X9575000Y-10975000D03*
X14775000Y-10325000D03*
X10225000Y-10325000D03*
X15425000Y-10325000D03*
X9575000Y-10325000D03*
X14775000Y-9675000D03*
X10225000Y-9675000D03*
X15425000Y-9675000D03*
X9575000Y-9675000D03*
X14775000Y-9025000D03*
X10225000Y-9025000D03*
X15425000Y-9025000D03*
X9575000Y-9025000D03*
X14775000Y-8375000D03*
X10225000Y-8375000D03*
X15425000Y-8375000D03*
X9575000Y-8375000D03*
X14125000Y-7725000D03*
X10875000Y-7725000D03*
X14775000Y-7725000D03*
X9575000Y-7725000D03*
X15425000Y-7725000D03*
X10225000Y-7725000D03*
X14125000Y-7075000D03*
X14775000Y-7075000D03*
X11525000Y-6425000D03*
X13475000Y-5775000D03*
X13475000Y-6425000D03*
X14775000Y-6425000D03*
X10225000Y-7075000D03*
X15425000Y-7075000D03*
X12175000Y-7075000D03*
X13475000Y-7075000D03*
X12825000Y-7075000D03*
X10225000Y-6425000D03*
X10225000Y-5775000D03*
X14775000Y-5775000D03*
X9575000Y-5775000D03*
X11525000Y-5775000D03*
X9575000Y-7075000D03*
X10875000Y-7075000D03*
X11525000Y-7075000D03*
X12825000Y-5775000D03*
X15425000Y-5775000D03*
X12175000Y-5775000D03*
X14125000Y-6425000D03*
X14125000Y-5775000D03*
X10875000Y-5775000D03*
X12825000Y-6425000D03*
X10875000Y-6425000D03*
X15425000Y-6425000D03*
X12175000Y-6425000D03*
X9575000Y-6425000D03*
D10*
G36*
X13974504Y-10051204D02*
X13998773Y-10054804D01*
X14022571Y-10060765D01*
X14045671Y-10069030D01*
X14067849Y-10079520D01*
X14088893Y-10092133D01*
X14108598Y-10106747D01*
X14126777Y-10123223D01*
X14143253Y-10141402D01*
X14157867Y-10161107D01*
X14170480Y-10182151D01*
X14180970Y-10204329D01*
X14189235Y-10227429D01*
X14195196Y-10251227D01*
X14198796Y-10275496D01*
X14200000Y-10300000D01*
X14200000Y-11000000D01*
X14198796Y-11024504D01*
X14195196Y-11048773D01*
X14189235Y-11072571D01*
X14180970Y-11095671D01*
X14170480Y-11117849D01*
X14157867Y-11138893D01*
X14143253Y-11158598D01*
X14126777Y-11176777D01*
X14108598Y-11193253D01*
X14088893Y-11207867D01*
X14067849Y-11220480D01*
X14045671Y-11230970D01*
X14022571Y-11239235D01*
X13998773Y-11245196D01*
X13974504Y-11248796D01*
X13950000Y-11250000D01*
X13450000Y-11250000D01*
X13425496Y-11248796D01*
X13401227Y-11245196D01*
X13377429Y-11239235D01*
X13354329Y-11230970D01*
X13332151Y-11220480D01*
X13311107Y-11207867D01*
X13291402Y-11193253D01*
X13273223Y-11176777D01*
X13256747Y-11158598D01*
X13242133Y-11138893D01*
X13229520Y-11117849D01*
X13219030Y-11095671D01*
X13210765Y-11072571D01*
X13204804Y-11048773D01*
X13201204Y-11024504D01*
X13200000Y-11000000D01*
X13200000Y-10300000D01*
X13201204Y-10275496D01*
X13204804Y-10251227D01*
X13210765Y-10227429D01*
X13219030Y-10204329D01*
X13229520Y-10182151D01*
X13242133Y-10161107D01*
X13256747Y-10141402D01*
X13273223Y-10123223D01*
X13291402Y-10106747D01*
X13311107Y-10092133D01*
X13332151Y-10079520D01*
X13354329Y-10069030D01*
X13377429Y-10060765D01*
X13401227Y-10054804D01*
X13425496Y-10051204D01*
X13450000Y-10050000D01*
X13950000Y-10050000D01*
X13974504Y-10051204D01*
X13974504Y-10051204D01*
G37*
D12*
X13700000Y-10650000D03*
G04 #@! TD*
D10*
G04 #@! TO.C,R12*
G36*
X12916958Y-15830710D02*
X12931276Y-15832834D01*
X12945317Y-15836351D01*
X12958946Y-15841228D01*
X12972031Y-15847417D01*
X12984447Y-15854858D01*
X12996073Y-15863481D01*
X13006798Y-15873202D01*
X13016519Y-15883927D01*
X13025142Y-15895553D01*
X13032583Y-15907969D01*
X13038772Y-15921054D01*
X13043649Y-15934683D01*
X13047166Y-15948724D01*
X13049290Y-15963042D01*
X13050000Y-15977500D01*
X13050000Y-16272500D01*
X13049290Y-16286958D01*
X13047166Y-16301276D01*
X13043649Y-16315317D01*
X13038772Y-16328946D01*
X13032583Y-16342031D01*
X13025142Y-16354447D01*
X13016519Y-16366073D01*
X13006798Y-16376798D01*
X12996073Y-16386519D01*
X12984447Y-16395142D01*
X12972031Y-16402583D01*
X12958946Y-16408772D01*
X12945317Y-16413649D01*
X12931276Y-16417166D01*
X12916958Y-16419290D01*
X12902500Y-16420000D01*
X12557500Y-16420000D01*
X12543042Y-16419290D01*
X12528724Y-16417166D01*
X12514683Y-16413649D01*
X12501054Y-16408772D01*
X12487969Y-16402583D01*
X12475553Y-16395142D01*
X12463927Y-16386519D01*
X12453202Y-16376798D01*
X12443481Y-16366073D01*
X12434858Y-16354447D01*
X12427417Y-16342031D01*
X12421228Y-16328946D01*
X12416351Y-16315317D01*
X12412834Y-16301276D01*
X12410710Y-16286958D01*
X12410000Y-16272500D01*
X12410000Y-15977500D01*
X12410710Y-15963042D01*
X12412834Y-15948724D01*
X12416351Y-15934683D01*
X12421228Y-15921054D01*
X12427417Y-15907969D01*
X12434858Y-15895553D01*
X12443481Y-15883927D01*
X12453202Y-15873202D01*
X12463927Y-15863481D01*
X12475553Y-15854858D01*
X12487969Y-15847417D01*
X12501054Y-15841228D01*
X12514683Y-15836351D01*
X12528724Y-15832834D01*
X12543042Y-15830710D01*
X12557500Y-15830000D01*
X12902500Y-15830000D01*
X12916958Y-15830710D01*
X12916958Y-15830710D01*
G37*
D11*
X12730000Y-16125000D03*
D10*
G36*
X12916958Y-14860710D02*
X12931276Y-14862834D01*
X12945317Y-14866351D01*
X12958946Y-14871228D01*
X12972031Y-14877417D01*
X12984447Y-14884858D01*
X12996073Y-14893481D01*
X13006798Y-14903202D01*
X13016519Y-14913927D01*
X13025142Y-14925553D01*
X13032583Y-14937969D01*
X13038772Y-14951054D01*
X13043649Y-14964683D01*
X13047166Y-14978724D01*
X13049290Y-14993042D01*
X13050000Y-15007500D01*
X13050000Y-15302500D01*
X13049290Y-15316958D01*
X13047166Y-15331276D01*
X13043649Y-15345317D01*
X13038772Y-15358946D01*
X13032583Y-15372031D01*
X13025142Y-15384447D01*
X13016519Y-15396073D01*
X13006798Y-15406798D01*
X12996073Y-15416519D01*
X12984447Y-15425142D01*
X12972031Y-15432583D01*
X12958946Y-15438772D01*
X12945317Y-15443649D01*
X12931276Y-15447166D01*
X12916958Y-15449290D01*
X12902500Y-15450000D01*
X12557500Y-15450000D01*
X12543042Y-15449290D01*
X12528724Y-15447166D01*
X12514683Y-15443649D01*
X12501054Y-15438772D01*
X12487969Y-15432583D01*
X12475553Y-15425142D01*
X12463927Y-15416519D01*
X12453202Y-15406798D01*
X12443481Y-15396073D01*
X12434858Y-15384447D01*
X12427417Y-15372031D01*
X12421228Y-15358946D01*
X12416351Y-15345317D01*
X12412834Y-15331276D01*
X12410710Y-15316958D01*
X12410000Y-15302500D01*
X12410000Y-15007500D01*
X12410710Y-14993042D01*
X12412834Y-14978724D01*
X12416351Y-14964683D01*
X12421228Y-14951054D01*
X12427417Y-14937969D01*
X12434858Y-14925553D01*
X12443481Y-14913927D01*
X12453202Y-14903202D01*
X12463927Y-14893481D01*
X12475553Y-14884858D01*
X12487969Y-14877417D01*
X12501054Y-14871228D01*
X12514683Y-14866351D01*
X12528724Y-14862834D01*
X12543042Y-14860710D01*
X12557500Y-14860000D01*
X12902500Y-14860000D01*
X12916958Y-14860710D01*
X12916958Y-14860710D01*
G37*
D11*
X12730000Y-15155000D03*
G04 #@! TD*
D10*
G04 #@! TO.C,R10*
G36*
X6651958Y-7025710D02*
X6666276Y-7027834D01*
X6680317Y-7031351D01*
X6693946Y-7036228D01*
X6707031Y-7042417D01*
X6719447Y-7049858D01*
X6731073Y-7058481D01*
X6741798Y-7068202D01*
X6751519Y-7078927D01*
X6760142Y-7090553D01*
X6767583Y-7102969D01*
X6773772Y-7116054D01*
X6778649Y-7129683D01*
X6782166Y-7143724D01*
X6784290Y-7158042D01*
X6785000Y-7172500D01*
X6785000Y-7517500D01*
X6784290Y-7531958D01*
X6782166Y-7546276D01*
X6778649Y-7560317D01*
X6773772Y-7573946D01*
X6767583Y-7587031D01*
X6760142Y-7599447D01*
X6751519Y-7611073D01*
X6741798Y-7621798D01*
X6731073Y-7631519D01*
X6719447Y-7640142D01*
X6707031Y-7647583D01*
X6693946Y-7653772D01*
X6680317Y-7658649D01*
X6666276Y-7662166D01*
X6651958Y-7664290D01*
X6637500Y-7665000D01*
X6342500Y-7665000D01*
X6328042Y-7664290D01*
X6313724Y-7662166D01*
X6299683Y-7658649D01*
X6286054Y-7653772D01*
X6272969Y-7647583D01*
X6260553Y-7640142D01*
X6248927Y-7631519D01*
X6238202Y-7621798D01*
X6228481Y-7611073D01*
X6219858Y-7599447D01*
X6212417Y-7587031D01*
X6206228Y-7573946D01*
X6201351Y-7560317D01*
X6197834Y-7546276D01*
X6195710Y-7531958D01*
X6195000Y-7517500D01*
X6195000Y-7172500D01*
X6195710Y-7158042D01*
X6197834Y-7143724D01*
X6201351Y-7129683D01*
X6206228Y-7116054D01*
X6212417Y-7102969D01*
X6219858Y-7090553D01*
X6228481Y-7078927D01*
X6238202Y-7068202D01*
X6248927Y-7058481D01*
X6260553Y-7049858D01*
X6272969Y-7042417D01*
X6286054Y-7036228D01*
X6299683Y-7031351D01*
X6313724Y-7027834D01*
X6328042Y-7025710D01*
X6342500Y-7025000D01*
X6637500Y-7025000D01*
X6651958Y-7025710D01*
X6651958Y-7025710D01*
G37*
D11*
X6490000Y-7345000D03*
D10*
G36*
X5681958Y-7025710D02*
X5696276Y-7027834D01*
X5710317Y-7031351D01*
X5723946Y-7036228D01*
X5737031Y-7042417D01*
X5749447Y-7049858D01*
X5761073Y-7058481D01*
X5771798Y-7068202D01*
X5781519Y-7078927D01*
X5790142Y-7090553D01*
X5797583Y-7102969D01*
X5803772Y-7116054D01*
X5808649Y-7129683D01*
X5812166Y-7143724D01*
X5814290Y-7158042D01*
X5815000Y-7172500D01*
X5815000Y-7517500D01*
X5814290Y-7531958D01*
X5812166Y-7546276D01*
X5808649Y-7560317D01*
X5803772Y-7573946D01*
X5797583Y-7587031D01*
X5790142Y-7599447D01*
X5781519Y-7611073D01*
X5771798Y-7621798D01*
X5761073Y-7631519D01*
X5749447Y-7640142D01*
X5737031Y-7647583D01*
X5723946Y-7653772D01*
X5710317Y-7658649D01*
X5696276Y-7662166D01*
X5681958Y-7664290D01*
X5667500Y-7665000D01*
X5372500Y-7665000D01*
X5358042Y-7664290D01*
X5343724Y-7662166D01*
X5329683Y-7658649D01*
X5316054Y-7653772D01*
X5302969Y-7647583D01*
X5290553Y-7640142D01*
X5278927Y-7631519D01*
X5268202Y-7621798D01*
X5258481Y-7611073D01*
X5249858Y-7599447D01*
X5242417Y-7587031D01*
X5236228Y-7573946D01*
X5231351Y-7560317D01*
X5227834Y-7546276D01*
X5225710Y-7531958D01*
X5225000Y-7517500D01*
X5225000Y-7172500D01*
X5225710Y-7158042D01*
X5227834Y-7143724D01*
X5231351Y-7129683D01*
X5236228Y-7116054D01*
X5242417Y-7102969D01*
X5249858Y-7090553D01*
X5258481Y-7078927D01*
X5268202Y-7068202D01*
X5278927Y-7058481D01*
X5290553Y-7049858D01*
X5302969Y-7042417D01*
X5316054Y-7036228D01*
X5329683Y-7031351D01*
X5343724Y-7027834D01*
X5358042Y-7025710D01*
X5372500Y-7025000D01*
X5667500Y-7025000D01*
X5681958Y-7025710D01*
X5681958Y-7025710D01*
G37*
D11*
X5520000Y-7345000D03*
G04 #@! TD*
D10*
G04 #@! TO.C,R6*
G36*
X13431958Y-1810710D02*
X13446276Y-1812834D01*
X13460317Y-1816351D01*
X13473946Y-1821228D01*
X13487031Y-1827417D01*
X13499447Y-1834858D01*
X13511073Y-1843481D01*
X13521798Y-1853202D01*
X13531519Y-1863927D01*
X13540142Y-1875553D01*
X13547583Y-1887969D01*
X13553772Y-1901054D01*
X13558649Y-1914683D01*
X13562166Y-1928724D01*
X13564290Y-1943042D01*
X13565000Y-1957500D01*
X13565000Y-2252500D01*
X13564290Y-2266958D01*
X13562166Y-2281276D01*
X13558649Y-2295317D01*
X13553772Y-2308946D01*
X13547583Y-2322031D01*
X13540142Y-2334447D01*
X13531519Y-2346073D01*
X13521798Y-2356798D01*
X13511073Y-2366519D01*
X13499447Y-2375142D01*
X13487031Y-2382583D01*
X13473946Y-2388772D01*
X13460317Y-2393649D01*
X13446276Y-2397166D01*
X13431958Y-2399290D01*
X13417500Y-2400000D01*
X13072500Y-2400000D01*
X13058042Y-2399290D01*
X13043724Y-2397166D01*
X13029683Y-2393649D01*
X13016054Y-2388772D01*
X13002969Y-2382583D01*
X12990553Y-2375142D01*
X12978927Y-2366519D01*
X12968202Y-2356798D01*
X12958481Y-2346073D01*
X12949858Y-2334447D01*
X12942417Y-2322031D01*
X12936228Y-2308946D01*
X12931351Y-2295317D01*
X12927834Y-2281276D01*
X12925710Y-2266958D01*
X12925000Y-2252500D01*
X12925000Y-1957500D01*
X12925710Y-1943042D01*
X12927834Y-1928724D01*
X12931351Y-1914683D01*
X12936228Y-1901054D01*
X12942417Y-1887969D01*
X12949858Y-1875553D01*
X12958481Y-1863927D01*
X12968202Y-1853202D01*
X12978927Y-1843481D01*
X12990553Y-1834858D01*
X13002969Y-1827417D01*
X13016054Y-1821228D01*
X13029683Y-1816351D01*
X13043724Y-1812834D01*
X13058042Y-1810710D01*
X13072500Y-1810000D01*
X13417500Y-1810000D01*
X13431958Y-1810710D01*
X13431958Y-1810710D01*
G37*
D11*
X13245000Y-2105000D03*
D10*
G36*
X13431958Y-2780710D02*
X13446276Y-2782834D01*
X13460317Y-2786351D01*
X13473946Y-2791228D01*
X13487031Y-2797417D01*
X13499447Y-2804858D01*
X13511073Y-2813481D01*
X13521798Y-2823202D01*
X13531519Y-2833927D01*
X13540142Y-2845553D01*
X13547583Y-2857969D01*
X13553772Y-2871054D01*
X13558649Y-2884683D01*
X13562166Y-2898724D01*
X13564290Y-2913042D01*
X13565000Y-2927500D01*
X13565000Y-3222500D01*
X13564290Y-3236958D01*
X13562166Y-3251276D01*
X13558649Y-3265317D01*
X13553772Y-3278946D01*
X13547583Y-3292031D01*
X13540142Y-3304447D01*
X13531519Y-3316073D01*
X13521798Y-3326798D01*
X13511073Y-3336519D01*
X13499447Y-3345142D01*
X13487031Y-3352583D01*
X13473946Y-3358772D01*
X13460317Y-3363649D01*
X13446276Y-3367166D01*
X13431958Y-3369290D01*
X13417500Y-3370000D01*
X13072500Y-3370000D01*
X13058042Y-3369290D01*
X13043724Y-3367166D01*
X13029683Y-3363649D01*
X13016054Y-3358772D01*
X13002969Y-3352583D01*
X12990553Y-3345142D01*
X12978927Y-3336519D01*
X12968202Y-3326798D01*
X12958481Y-3316073D01*
X12949858Y-3304447D01*
X12942417Y-3292031D01*
X12936228Y-3278946D01*
X12931351Y-3265317D01*
X12927834Y-3251276D01*
X12925710Y-3236958D01*
X12925000Y-3222500D01*
X12925000Y-2927500D01*
X12925710Y-2913042D01*
X12927834Y-2898724D01*
X12931351Y-2884683D01*
X12936228Y-2871054D01*
X12942417Y-2857969D01*
X12949858Y-2845553D01*
X12958481Y-2833927D01*
X12968202Y-2823202D01*
X12978927Y-2813481D01*
X12990553Y-2804858D01*
X13002969Y-2797417D01*
X13016054Y-2791228D01*
X13029683Y-2786351D01*
X13043724Y-2782834D01*
X13058042Y-2780710D01*
X13072500Y-2780000D01*
X13417500Y-2780000D01*
X13431958Y-2780710D01*
X13431958Y-2780710D01*
G37*
D11*
X13245000Y-3075000D03*
G04 #@! TD*
D10*
G04 #@! TO.C,R27*
G36*
X19631958Y-7315710D02*
X19646276Y-7317834D01*
X19660317Y-7321351D01*
X19673946Y-7326228D01*
X19687031Y-7332417D01*
X19699447Y-7339858D01*
X19711073Y-7348481D01*
X19721798Y-7358202D01*
X19731519Y-7368927D01*
X19740142Y-7380553D01*
X19747583Y-7392969D01*
X19753772Y-7406054D01*
X19758649Y-7419683D01*
X19762166Y-7433724D01*
X19764290Y-7448042D01*
X19765000Y-7462500D01*
X19765000Y-7807500D01*
X19764290Y-7821958D01*
X19762166Y-7836276D01*
X19758649Y-7850317D01*
X19753772Y-7863946D01*
X19747583Y-7877031D01*
X19740142Y-7889447D01*
X19731519Y-7901073D01*
X19721798Y-7911798D01*
X19711073Y-7921519D01*
X19699447Y-7930142D01*
X19687031Y-7937583D01*
X19673946Y-7943772D01*
X19660317Y-7948649D01*
X19646276Y-7952166D01*
X19631958Y-7954290D01*
X19617500Y-7955000D01*
X19322500Y-7955000D01*
X19308042Y-7954290D01*
X19293724Y-7952166D01*
X19279683Y-7948649D01*
X19266054Y-7943772D01*
X19252969Y-7937583D01*
X19240553Y-7930142D01*
X19228927Y-7921519D01*
X19218202Y-7911798D01*
X19208481Y-7901073D01*
X19199858Y-7889447D01*
X19192417Y-7877031D01*
X19186228Y-7863946D01*
X19181351Y-7850317D01*
X19177834Y-7836276D01*
X19175710Y-7821958D01*
X19175000Y-7807500D01*
X19175000Y-7462500D01*
X19175710Y-7448042D01*
X19177834Y-7433724D01*
X19181351Y-7419683D01*
X19186228Y-7406054D01*
X19192417Y-7392969D01*
X19199858Y-7380553D01*
X19208481Y-7368927D01*
X19218202Y-7358202D01*
X19228927Y-7348481D01*
X19240553Y-7339858D01*
X19252969Y-7332417D01*
X19266054Y-7326228D01*
X19279683Y-7321351D01*
X19293724Y-7317834D01*
X19308042Y-7315710D01*
X19322500Y-7315000D01*
X19617500Y-7315000D01*
X19631958Y-7315710D01*
X19631958Y-7315710D01*
G37*
D11*
X19470000Y-7635000D03*
D10*
G36*
X20601958Y-7315710D02*
X20616276Y-7317834D01*
X20630317Y-7321351D01*
X20643946Y-7326228D01*
X20657031Y-7332417D01*
X20669447Y-7339858D01*
X20681073Y-7348481D01*
X20691798Y-7358202D01*
X20701519Y-7368927D01*
X20710142Y-7380553D01*
X20717583Y-7392969D01*
X20723772Y-7406054D01*
X20728649Y-7419683D01*
X20732166Y-7433724D01*
X20734290Y-7448042D01*
X20735000Y-7462500D01*
X20735000Y-7807500D01*
X20734290Y-7821958D01*
X20732166Y-7836276D01*
X20728649Y-7850317D01*
X20723772Y-7863946D01*
X20717583Y-7877031D01*
X20710142Y-7889447D01*
X20701519Y-7901073D01*
X20691798Y-7911798D01*
X20681073Y-7921519D01*
X20669447Y-7930142D01*
X20657031Y-7937583D01*
X20643946Y-7943772D01*
X20630317Y-7948649D01*
X20616276Y-7952166D01*
X20601958Y-7954290D01*
X20587500Y-7955000D01*
X20292500Y-7955000D01*
X20278042Y-7954290D01*
X20263724Y-7952166D01*
X20249683Y-7948649D01*
X20236054Y-7943772D01*
X20222969Y-7937583D01*
X20210553Y-7930142D01*
X20198927Y-7921519D01*
X20188202Y-7911798D01*
X20178481Y-7901073D01*
X20169858Y-7889447D01*
X20162417Y-7877031D01*
X20156228Y-7863946D01*
X20151351Y-7850317D01*
X20147834Y-7836276D01*
X20145710Y-7821958D01*
X20145000Y-7807500D01*
X20145000Y-7462500D01*
X20145710Y-7448042D01*
X20147834Y-7433724D01*
X20151351Y-7419683D01*
X20156228Y-7406054D01*
X20162417Y-7392969D01*
X20169858Y-7380553D01*
X20178481Y-7368927D01*
X20188202Y-7358202D01*
X20198927Y-7348481D01*
X20210553Y-7339858D01*
X20222969Y-7332417D01*
X20236054Y-7326228D01*
X20249683Y-7321351D01*
X20263724Y-7317834D01*
X20278042Y-7315710D01*
X20292500Y-7315000D01*
X20587500Y-7315000D01*
X20601958Y-7315710D01*
X20601958Y-7315710D01*
G37*
D11*
X20440000Y-7635000D03*
G04 #@! TD*
D10*
G04 #@! TO.C,R28*
G36*
X14241958Y-16005710D02*
X14256276Y-16007834D01*
X14270317Y-16011351D01*
X14283946Y-16016228D01*
X14297031Y-16022417D01*
X14309447Y-16029858D01*
X14321073Y-16038481D01*
X14331798Y-16048202D01*
X14341519Y-16058927D01*
X14350142Y-16070553D01*
X14357583Y-16082969D01*
X14363772Y-16096054D01*
X14368649Y-16109683D01*
X14372166Y-16123724D01*
X14374290Y-16138042D01*
X14375000Y-16152500D01*
X14375000Y-16447500D01*
X14374290Y-16461958D01*
X14372166Y-16476276D01*
X14368649Y-16490317D01*
X14363772Y-16503946D01*
X14357583Y-16517031D01*
X14350142Y-16529447D01*
X14341519Y-16541073D01*
X14331798Y-16551798D01*
X14321073Y-16561519D01*
X14309447Y-16570142D01*
X14297031Y-16577583D01*
X14283946Y-16583772D01*
X14270317Y-16588649D01*
X14256276Y-16592166D01*
X14241958Y-16594290D01*
X14227500Y-16595000D01*
X13882500Y-16595000D01*
X13868042Y-16594290D01*
X13853724Y-16592166D01*
X13839683Y-16588649D01*
X13826054Y-16583772D01*
X13812969Y-16577583D01*
X13800553Y-16570142D01*
X13788927Y-16561519D01*
X13778202Y-16551798D01*
X13768481Y-16541073D01*
X13759858Y-16529447D01*
X13752417Y-16517031D01*
X13746228Y-16503946D01*
X13741351Y-16490317D01*
X13737834Y-16476276D01*
X13735710Y-16461958D01*
X13735000Y-16447500D01*
X13735000Y-16152500D01*
X13735710Y-16138042D01*
X13737834Y-16123724D01*
X13741351Y-16109683D01*
X13746228Y-16096054D01*
X13752417Y-16082969D01*
X13759858Y-16070553D01*
X13768481Y-16058927D01*
X13778202Y-16048202D01*
X13788927Y-16038481D01*
X13800553Y-16029858D01*
X13812969Y-16022417D01*
X13826054Y-16016228D01*
X13839683Y-16011351D01*
X13853724Y-16007834D01*
X13868042Y-16005710D01*
X13882500Y-16005000D01*
X14227500Y-16005000D01*
X14241958Y-16005710D01*
X14241958Y-16005710D01*
G37*
D11*
X14055000Y-16300000D03*
D10*
G36*
X14241958Y-15035710D02*
X14256276Y-15037834D01*
X14270317Y-15041351D01*
X14283946Y-15046228D01*
X14297031Y-15052417D01*
X14309447Y-15059858D01*
X14321073Y-15068481D01*
X14331798Y-15078202D01*
X14341519Y-15088927D01*
X14350142Y-15100553D01*
X14357583Y-15112969D01*
X14363772Y-15126054D01*
X14368649Y-15139683D01*
X14372166Y-15153724D01*
X14374290Y-15168042D01*
X14375000Y-15182500D01*
X14375000Y-15477500D01*
X14374290Y-15491958D01*
X14372166Y-15506276D01*
X14368649Y-15520317D01*
X14363772Y-15533946D01*
X14357583Y-15547031D01*
X14350142Y-15559447D01*
X14341519Y-15571073D01*
X14331798Y-15581798D01*
X14321073Y-15591519D01*
X14309447Y-15600142D01*
X14297031Y-15607583D01*
X14283946Y-15613772D01*
X14270317Y-15618649D01*
X14256276Y-15622166D01*
X14241958Y-15624290D01*
X14227500Y-15625000D01*
X13882500Y-15625000D01*
X13868042Y-15624290D01*
X13853724Y-15622166D01*
X13839683Y-15618649D01*
X13826054Y-15613772D01*
X13812969Y-15607583D01*
X13800553Y-15600142D01*
X13788927Y-15591519D01*
X13778202Y-15581798D01*
X13768481Y-15571073D01*
X13759858Y-15559447D01*
X13752417Y-15547031D01*
X13746228Y-15533946D01*
X13741351Y-15520317D01*
X13737834Y-15506276D01*
X13735710Y-15491958D01*
X13735000Y-15477500D01*
X13735000Y-15182500D01*
X13735710Y-15168042D01*
X13737834Y-15153724D01*
X13741351Y-15139683D01*
X13746228Y-15126054D01*
X13752417Y-15112969D01*
X13759858Y-15100553D01*
X13768481Y-15088927D01*
X13778202Y-15078202D01*
X13788927Y-15068481D01*
X13800553Y-15059858D01*
X13812969Y-15052417D01*
X13826054Y-15046228D01*
X13839683Y-15041351D01*
X13853724Y-15037834D01*
X13868042Y-15035710D01*
X13882500Y-15035000D01*
X14227500Y-15035000D01*
X14241958Y-15035710D01*
X14241958Y-15035710D01*
G37*
D11*
X14055000Y-15330000D03*
G04 #@! TD*
D10*
G04 #@! TO.C,R13*
G36*
X16151958Y-14995710D02*
X16166276Y-14997834D01*
X16180317Y-15001351D01*
X16193946Y-15006228D01*
X16207031Y-15012417D01*
X16219447Y-15019858D01*
X16231073Y-15028481D01*
X16241798Y-15038202D01*
X16251519Y-15048927D01*
X16260142Y-15060553D01*
X16267583Y-15072969D01*
X16273772Y-15086054D01*
X16278649Y-15099683D01*
X16282166Y-15113724D01*
X16284290Y-15128042D01*
X16285000Y-15142500D01*
X16285000Y-15487500D01*
X16284290Y-15501958D01*
X16282166Y-15516276D01*
X16278649Y-15530317D01*
X16273772Y-15543946D01*
X16267583Y-15557031D01*
X16260142Y-15569447D01*
X16251519Y-15581073D01*
X16241798Y-15591798D01*
X16231073Y-15601519D01*
X16219447Y-15610142D01*
X16207031Y-15617583D01*
X16193946Y-15623772D01*
X16180317Y-15628649D01*
X16166276Y-15632166D01*
X16151958Y-15634290D01*
X16137500Y-15635000D01*
X15842500Y-15635000D01*
X15828042Y-15634290D01*
X15813724Y-15632166D01*
X15799683Y-15628649D01*
X15786054Y-15623772D01*
X15772969Y-15617583D01*
X15760553Y-15610142D01*
X15748927Y-15601519D01*
X15738202Y-15591798D01*
X15728481Y-15581073D01*
X15719858Y-15569447D01*
X15712417Y-15557031D01*
X15706228Y-15543946D01*
X15701351Y-15530317D01*
X15697834Y-15516276D01*
X15695710Y-15501958D01*
X15695000Y-15487500D01*
X15695000Y-15142500D01*
X15695710Y-15128042D01*
X15697834Y-15113724D01*
X15701351Y-15099683D01*
X15706228Y-15086054D01*
X15712417Y-15072969D01*
X15719858Y-15060553D01*
X15728481Y-15048927D01*
X15738202Y-15038202D01*
X15748927Y-15028481D01*
X15760553Y-15019858D01*
X15772969Y-15012417D01*
X15786054Y-15006228D01*
X15799683Y-15001351D01*
X15813724Y-14997834D01*
X15828042Y-14995710D01*
X15842500Y-14995000D01*
X16137500Y-14995000D01*
X16151958Y-14995710D01*
X16151958Y-14995710D01*
G37*
D11*
X15990000Y-15315000D03*
D10*
G36*
X15181958Y-14995710D02*
X15196276Y-14997834D01*
X15210317Y-15001351D01*
X15223946Y-15006228D01*
X15237031Y-15012417D01*
X15249447Y-15019858D01*
X15261073Y-15028481D01*
X15271798Y-15038202D01*
X15281519Y-15048927D01*
X15290142Y-15060553D01*
X15297583Y-15072969D01*
X15303772Y-15086054D01*
X15308649Y-15099683D01*
X15312166Y-15113724D01*
X15314290Y-15128042D01*
X15315000Y-15142500D01*
X15315000Y-15487500D01*
X15314290Y-15501958D01*
X15312166Y-15516276D01*
X15308649Y-15530317D01*
X15303772Y-15543946D01*
X15297583Y-15557031D01*
X15290142Y-15569447D01*
X15281519Y-15581073D01*
X15271798Y-15591798D01*
X15261073Y-15601519D01*
X15249447Y-15610142D01*
X15237031Y-15617583D01*
X15223946Y-15623772D01*
X15210317Y-15628649D01*
X15196276Y-15632166D01*
X15181958Y-15634290D01*
X15167500Y-15635000D01*
X14872500Y-15635000D01*
X14858042Y-15634290D01*
X14843724Y-15632166D01*
X14829683Y-15628649D01*
X14816054Y-15623772D01*
X14802969Y-15617583D01*
X14790553Y-15610142D01*
X14778927Y-15601519D01*
X14768202Y-15591798D01*
X14758481Y-15581073D01*
X14749858Y-15569447D01*
X14742417Y-15557031D01*
X14736228Y-15543946D01*
X14731351Y-15530317D01*
X14727834Y-15516276D01*
X14725710Y-15501958D01*
X14725000Y-15487500D01*
X14725000Y-15142500D01*
X14725710Y-15128042D01*
X14727834Y-15113724D01*
X14731351Y-15099683D01*
X14736228Y-15086054D01*
X14742417Y-15072969D01*
X14749858Y-15060553D01*
X14758481Y-15048927D01*
X14768202Y-15038202D01*
X14778927Y-15028481D01*
X14790553Y-15019858D01*
X14802969Y-15012417D01*
X14816054Y-15006228D01*
X14829683Y-15001351D01*
X14843724Y-14997834D01*
X14858042Y-14995710D01*
X14872500Y-14995000D01*
X15167500Y-14995000D01*
X15181958Y-14995710D01*
X15181958Y-14995710D01*
G37*
D11*
X15020000Y-15315000D03*
G04 #@! TD*
D10*
G04 #@! TO.C,R25*
G36*
X19791958Y-4905710D02*
X19806276Y-4907834D01*
X19820317Y-4911351D01*
X19833946Y-4916228D01*
X19847031Y-4922417D01*
X19859447Y-4929858D01*
X19871073Y-4938481D01*
X19881798Y-4948202D01*
X19891519Y-4958927D01*
X19900142Y-4970553D01*
X19907583Y-4982969D01*
X19913772Y-4996054D01*
X19918649Y-5009683D01*
X19922166Y-5023724D01*
X19924290Y-5038042D01*
X19925000Y-5052500D01*
X19925000Y-5347500D01*
X19924290Y-5361958D01*
X19922166Y-5376276D01*
X19918649Y-5390317D01*
X19913772Y-5403946D01*
X19907583Y-5417031D01*
X19900142Y-5429447D01*
X19891519Y-5441073D01*
X19881798Y-5451798D01*
X19871073Y-5461519D01*
X19859447Y-5470142D01*
X19847031Y-5477583D01*
X19833946Y-5483772D01*
X19820317Y-5488649D01*
X19806276Y-5492166D01*
X19791958Y-5494290D01*
X19777500Y-5495000D01*
X19432500Y-5495000D01*
X19418042Y-5494290D01*
X19403724Y-5492166D01*
X19389683Y-5488649D01*
X19376054Y-5483772D01*
X19362969Y-5477583D01*
X19350553Y-5470142D01*
X19338927Y-5461519D01*
X19328202Y-5451798D01*
X19318481Y-5441073D01*
X19309858Y-5429447D01*
X19302417Y-5417031D01*
X19296228Y-5403946D01*
X19291351Y-5390317D01*
X19287834Y-5376276D01*
X19285710Y-5361958D01*
X19285000Y-5347500D01*
X19285000Y-5052500D01*
X19285710Y-5038042D01*
X19287834Y-5023724D01*
X19291351Y-5009683D01*
X19296228Y-4996054D01*
X19302417Y-4982969D01*
X19309858Y-4970553D01*
X19318481Y-4958927D01*
X19328202Y-4948202D01*
X19338927Y-4938481D01*
X19350553Y-4929858D01*
X19362969Y-4922417D01*
X19376054Y-4916228D01*
X19389683Y-4911351D01*
X19403724Y-4907834D01*
X19418042Y-4905710D01*
X19432500Y-4905000D01*
X19777500Y-4905000D01*
X19791958Y-4905710D01*
X19791958Y-4905710D01*
G37*
D11*
X19605000Y-5200000D03*
D10*
G36*
X19791958Y-5875710D02*
X19806276Y-5877834D01*
X19820317Y-5881351D01*
X19833946Y-5886228D01*
X19847031Y-5892417D01*
X19859447Y-5899858D01*
X19871073Y-5908481D01*
X19881798Y-5918202D01*
X19891519Y-5928927D01*
X19900142Y-5940553D01*
X19907583Y-5952969D01*
X19913772Y-5966054D01*
X19918649Y-5979683D01*
X19922166Y-5993724D01*
X19924290Y-6008042D01*
X19925000Y-6022500D01*
X19925000Y-6317500D01*
X19924290Y-6331958D01*
X19922166Y-6346276D01*
X19918649Y-6360317D01*
X19913772Y-6373946D01*
X19907583Y-6387031D01*
X19900142Y-6399447D01*
X19891519Y-6411073D01*
X19881798Y-6421798D01*
X19871073Y-6431519D01*
X19859447Y-6440142D01*
X19847031Y-6447583D01*
X19833946Y-6453772D01*
X19820317Y-6458649D01*
X19806276Y-6462166D01*
X19791958Y-6464290D01*
X19777500Y-6465000D01*
X19432500Y-6465000D01*
X19418042Y-6464290D01*
X19403724Y-6462166D01*
X19389683Y-6458649D01*
X19376054Y-6453772D01*
X19362969Y-6447583D01*
X19350553Y-6440142D01*
X19338927Y-6431519D01*
X19328202Y-6421798D01*
X19318481Y-6411073D01*
X19309858Y-6399447D01*
X19302417Y-6387031D01*
X19296228Y-6373946D01*
X19291351Y-6360317D01*
X19287834Y-6346276D01*
X19285710Y-6331958D01*
X19285000Y-6317500D01*
X19285000Y-6022500D01*
X19285710Y-6008042D01*
X19287834Y-5993724D01*
X19291351Y-5979683D01*
X19296228Y-5966054D01*
X19302417Y-5952969D01*
X19309858Y-5940553D01*
X19318481Y-5928927D01*
X19328202Y-5918202D01*
X19338927Y-5908481D01*
X19350553Y-5899858D01*
X19362969Y-5892417D01*
X19376054Y-5886228D01*
X19389683Y-5881351D01*
X19403724Y-5877834D01*
X19418042Y-5875710D01*
X19432500Y-5875000D01*
X19777500Y-5875000D01*
X19791958Y-5875710D01*
X19791958Y-5875710D01*
G37*
D11*
X19605000Y-6170000D03*
G04 #@! TD*
D10*
G04 #@! TO.C,R24*
G36*
X17526958Y-11720710D02*
X17541276Y-11722834D01*
X17555317Y-11726351D01*
X17568946Y-11731228D01*
X17582031Y-11737417D01*
X17594447Y-11744858D01*
X17606073Y-11753481D01*
X17616798Y-11763202D01*
X17626519Y-11773927D01*
X17635142Y-11785553D01*
X17642583Y-11797969D01*
X17648772Y-11811054D01*
X17653649Y-11824683D01*
X17657166Y-11838724D01*
X17659290Y-11853042D01*
X17660000Y-11867500D01*
X17660000Y-12212500D01*
X17659290Y-12226958D01*
X17657166Y-12241276D01*
X17653649Y-12255317D01*
X17648772Y-12268946D01*
X17642583Y-12282031D01*
X17635142Y-12294447D01*
X17626519Y-12306073D01*
X17616798Y-12316798D01*
X17606073Y-12326519D01*
X17594447Y-12335142D01*
X17582031Y-12342583D01*
X17568946Y-12348772D01*
X17555317Y-12353649D01*
X17541276Y-12357166D01*
X17526958Y-12359290D01*
X17512500Y-12360000D01*
X17217500Y-12360000D01*
X17203042Y-12359290D01*
X17188724Y-12357166D01*
X17174683Y-12353649D01*
X17161054Y-12348772D01*
X17147969Y-12342583D01*
X17135553Y-12335142D01*
X17123927Y-12326519D01*
X17113202Y-12316798D01*
X17103481Y-12306073D01*
X17094858Y-12294447D01*
X17087417Y-12282031D01*
X17081228Y-12268946D01*
X17076351Y-12255317D01*
X17072834Y-12241276D01*
X17070710Y-12226958D01*
X17070000Y-12212500D01*
X17070000Y-11867500D01*
X17070710Y-11853042D01*
X17072834Y-11838724D01*
X17076351Y-11824683D01*
X17081228Y-11811054D01*
X17087417Y-11797969D01*
X17094858Y-11785553D01*
X17103481Y-11773927D01*
X17113202Y-11763202D01*
X17123927Y-11753481D01*
X17135553Y-11744858D01*
X17147969Y-11737417D01*
X17161054Y-11731228D01*
X17174683Y-11726351D01*
X17188724Y-11722834D01*
X17203042Y-11720710D01*
X17217500Y-11720000D01*
X17512500Y-11720000D01*
X17526958Y-11720710D01*
X17526958Y-11720710D01*
G37*
D11*
X17365000Y-12040000D03*
D10*
G36*
X16556958Y-11720710D02*
X16571276Y-11722834D01*
X16585317Y-11726351D01*
X16598946Y-11731228D01*
X16612031Y-11737417D01*
X16624447Y-11744858D01*
X16636073Y-11753481D01*
X16646798Y-11763202D01*
X16656519Y-11773927D01*
X16665142Y-11785553D01*
X16672583Y-11797969D01*
X16678772Y-11811054D01*
X16683649Y-11824683D01*
X16687166Y-11838724D01*
X16689290Y-11853042D01*
X16690000Y-11867500D01*
X16690000Y-12212500D01*
X16689290Y-12226958D01*
X16687166Y-12241276D01*
X16683649Y-12255317D01*
X16678772Y-12268946D01*
X16672583Y-12282031D01*
X16665142Y-12294447D01*
X16656519Y-12306073D01*
X16646798Y-12316798D01*
X16636073Y-12326519D01*
X16624447Y-12335142D01*
X16612031Y-12342583D01*
X16598946Y-12348772D01*
X16585317Y-12353649D01*
X16571276Y-12357166D01*
X16556958Y-12359290D01*
X16542500Y-12360000D01*
X16247500Y-12360000D01*
X16233042Y-12359290D01*
X16218724Y-12357166D01*
X16204683Y-12353649D01*
X16191054Y-12348772D01*
X16177969Y-12342583D01*
X16165553Y-12335142D01*
X16153927Y-12326519D01*
X16143202Y-12316798D01*
X16133481Y-12306073D01*
X16124858Y-12294447D01*
X16117417Y-12282031D01*
X16111228Y-12268946D01*
X16106351Y-12255317D01*
X16102834Y-12241276D01*
X16100710Y-12226958D01*
X16100000Y-12212500D01*
X16100000Y-11867500D01*
X16100710Y-11853042D01*
X16102834Y-11838724D01*
X16106351Y-11824683D01*
X16111228Y-11811054D01*
X16117417Y-11797969D01*
X16124858Y-11785553D01*
X16133481Y-11773927D01*
X16143202Y-11763202D01*
X16153927Y-11753481D01*
X16165553Y-11744858D01*
X16177969Y-11737417D01*
X16191054Y-11731228D01*
X16204683Y-11726351D01*
X16218724Y-11722834D01*
X16233042Y-11720710D01*
X16247500Y-11720000D01*
X16542500Y-11720000D01*
X16556958Y-11720710D01*
X16556958Y-11720710D01*
G37*
D11*
X16395000Y-12040000D03*
G04 #@! TD*
D10*
G04 #@! TO.C,R14*
G36*
X18751958Y-5855710D02*
X18766276Y-5857834D01*
X18780317Y-5861351D01*
X18793946Y-5866228D01*
X18807031Y-5872417D01*
X18819447Y-5879858D01*
X18831073Y-5888481D01*
X18841798Y-5898202D01*
X18851519Y-5908927D01*
X18860142Y-5920553D01*
X18867583Y-5932969D01*
X18873772Y-5946054D01*
X18878649Y-5959683D01*
X18882166Y-5973724D01*
X18884290Y-5988042D01*
X18885000Y-6002500D01*
X18885000Y-6297500D01*
X18884290Y-6311958D01*
X18882166Y-6326276D01*
X18878649Y-6340317D01*
X18873772Y-6353946D01*
X18867583Y-6367031D01*
X18860142Y-6379447D01*
X18851519Y-6391073D01*
X18841798Y-6401798D01*
X18831073Y-6411519D01*
X18819447Y-6420142D01*
X18807031Y-6427583D01*
X18793946Y-6433772D01*
X18780317Y-6438649D01*
X18766276Y-6442166D01*
X18751958Y-6444290D01*
X18737500Y-6445000D01*
X18392500Y-6445000D01*
X18378042Y-6444290D01*
X18363724Y-6442166D01*
X18349683Y-6438649D01*
X18336054Y-6433772D01*
X18322969Y-6427583D01*
X18310553Y-6420142D01*
X18298927Y-6411519D01*
X18288202Y-6401798D01*
X18278481Y-6391073D01*
X18269858Y-6379447D01*
X18262417Y-6367031D01*
X18256228Y-6353946D01*
X18251351Y-6340317D01*
X18247834Y-6326276D01*
X18245710Y-6311958D01*
X18245000Y-6297500D01*
X18245000Y-6002500D01*
X18245710Y-5988042D01*
X18247834Y-5973724D01*
X18251351Y-5959683D01*
X18256228Y-5946054D01*
X18262417Y-5932969D01*
X18269858Y-5920553D01*
X18278481Y-5908927D01*
X18288202Y-5898202D01*
X18298927Y-5888481D01*
X18310553Y-5879858D01*
X18322969Y-5872417D01*
X18336054Y-5866228D01*
X18349683Y-5861351D01*
X18363724Y-5857834D01*
X18378042Y-5855710D01*
X18392500Y-5855000D01*
X18737500Y-5855000D01*
X18751958Y-5855710D01*
X18751958Y-5855710D01*
G37*
D11*
X18565000Y-6150000D03*
D10*
G36*
X18751958Y-4885710D02*
X18766276Y-4887834D01*
X18780317Y-4891351D01*
X18793946Y-4896228D01*
X18807031Y-4902417D01*
X18819447Y-4909858D01*
X18831073Y-4918481D01*
X18841798Y-4928202D01*
X18851519Y-4938927D01*
X18860142Y-4950553D01*
X18867583Y-4962969D01*
X18873772Y-4976054D01*
X18878649Y-4989683D01*
X18882166Y-5003724D01*
X18884290Y-5018042D01*
X18885000Y-5032500D01*
X18885000Y-5327500D01*
X18884290Y-5341958D01*
X18882166Y-5356276D01*
X18878649Y-5370317D01*
X18873772Y-5383946D01*
X18867583Y-5397031D01*
X18860142Y-5409447D01*
X18851519Y-5421073D01*
X18841798Y-5431798D01*
X18831073Y-5441519D01*
X18819447Y-5450142D01*
X18807031Y-5457583D01*
X18793946Y-5463772D01*
X18780317Y-5468649D01*
X18766276Y-5472166D01*
X18751958Y-5474290D01*
X18737500Y-5475000D01*
X18392500Y-5475000D01*
X18378042Y-5474290D01*
X18363724Y-5472166D01*
X18349683Y-5468649D01*
X18336054Y-5463772D01*
X18322969Y-5457583D01*
X18310553Y-5450142D01*
X18298927Y-5441519D01*
X18288202Y-5431798D01*
X18278481Y-5421073D01*
X18269858Y-5409447D01*
X18262417Y-5397031D01*
X18256228Y-5383946D01*
X18251351Y-5370317D01*
X18247834Y-5356276D01*
X18245710Y-5341958D01*
X18245000Y-5327500D01*
X18245000Y-5032500D01*
X18245710Y-5018042D01*
X18247834Y-5003724D01*
X18251351Y-4989683D01*
X18256228Y-4976054D01*
X18262417Y-4962969D01*
X18269858Y-4950553D01*
X18278481Y-4938927D01*
X18288202Y-4928202D01*
X18298927Y-4918481D01*
X18310553Y-4909858D01*
X18322969Y-4902417D01*
X18336054Y-4896228D01*
X18349683Y-4891351D01*
X18363724Y-4887834D01*
X18378042Y-4885710D01*
X18392500Y-4885000D01*
X18737500Y-4885000D01*
X18751958Y-4885710D01*
X18751958Y-4885710D01*
G37*
D11*
X18565000Y-5180000D03*
G04 #@! TD*
D10*
G04 #@! TO.C,R26*
G36*
X18771958Y-7315710D02*
X18786276Y-7317834D01*
X18800317Y-7321351D01*
X18813946Y-7326228D01*
X18827031Y-7332417D01*
X18839447Y-7339858D01*
X18851073Y-7348481D01*
X18861798Y-7358202D01*
X18871519Y-7368927D01*
X18880142Y-7380553D01*
X18887583Y-7392969D01*
X18893772Y-7406054D01*
X18898649Y-7419683D01*
X18902166Y-7433724D01*
X18904290Y-7448042D01*
X18905000Y-7462500D01*
X18905000Y-7807500D01*
X18904290Y-7821958D01*
X18902166Y-7836276D01*
X18898649Y-7850317D01*
X18893772Y-7863946D01*
X18887583Y-7877031D01*
X18880142Y-7889447D01*
X18871519Y-7901073D01*
X18861798Y-7911798D01*
X18851073Y-7921519D01*
X18839447Y-7930142D01*
X18827031Y-7937583D01*
X18813946Y-7943772D01*
X18800317Y-7948649D01*
X18786276Y-7952166D01*
X18771958Y-7954290D01*
X18757500Y-7955000D01*
X18462500Y-7955000D01*
X18448042Y-7954290D01*
X18433724Y-7952166D01*
X18419683Y-7948649D01*
X18406054Y-7943772D01*
X18392969Y-7937583D01*
X18380553Y-7930142D01*
X18368927Y-7921519D01*
X18358202Y-7911798D01*
X18348481Y-7901073D01*
X18339858Y-7889447D01*
X18332417Y-7877031D01*
X18326228Y-7863946D01*
X18321351Y-7850317D01*
X18317834Y-7836276D01*
X18315710Y-7821958D01*
X18315000Y-7807500D01*
X18315000Y-7462500D01*
X18315710Y-7448042D01*
X18317834Y-7433724D01*
X18321351Y-7419683D01*
X18326228Y-7406054D01*
X18332417Y-7392969D01*
X18339858Y-7380553D01*
X18348481Y-7368927D01*
X18358202Y-7358202D01*
X18368927Y-7348481D01*
X18380553Y-7339858D01*
X18392969Y-7332417D01*
X18406054Y-7326228D01*
X18419683Y-7321351D01*
X18433724Y-7317834D01*
X18448042Y-7315710D01*
X18462500Y-7315000D01*
X18757500Y-7315000D01*
X18771958Y-7315710D01*
X18771958Y-7315710D01*
G37*
D11*
X18610000Y-7635000D03*
D10*
G36*
X17801958Y-7315710D02*
X17816276Y-7317834D01*
X17830317Y-7321351D01*
X17843946Y-7326228D01*
X17857031Y-7332417D01*
X17869447Y-7339858D01*
X17881073Y-7348481D01*
X17891798Y-7358202D01*
X17901519Y-7368927D01*
X17910142Y-7380553D01*
X17917583Y-7392969D01*
X17923772Y-7406054D01*
X17928649Y-7419683D01*
X17932166Y-7433724D01*
X17934290Y-7448042D01*
X17935000Y-7462500D01*
X17935000Y-7807500D01*
X17934290Y-7821958D01*
X17932166Y-7836276D01*
X17928649Y-7850317D01*
X17923772Y-7863946D01*
X17917583Y-7877031D01*
X17910142Y-7889447D01*
X17901519Y-7901073D01*
X17891798Y-7911798D01*
X17881073Y-7921519D01*
X17869447Y-7930142D01*
X17857031Y-7937583D01*
X17843946Y-7943772D01*
X17830317Y-7948649D01*
X17816276Y-7952166D01*
X17801958Y-7954290D01*
X17787500Y-7955000D01*
X17492500Y-7955000D01*
X17478042Y-7954290D01*
X17463724Y-7952166D01*
X17449683Y-7948649D01*
X17436054Y-7943772D01*
X17422969Y-7937583D01*
X17410553Y-7930142D01*
X17398927Y-7921519D01*
X17388202Y-7911798D01*
X17378481Y-7901073D01*
X17369858Y-7889447D01*
X17362417Y-7877031D01*
X17356228Y-7863946D01*
X17351351Y-7850317D01*
X17347834Y-7836276D01*
X17345710Y-7821958D01*
X17345000Y-7807500D01*
X17345000Y-7462500D01*
X17345710Y-7448042D01*
X17347834Y-7433724D01*
X17351351Y-7419683D01*
X17356228Y-7406054D01*
X17362417Y-7392969D01*
X17369858Y-7380553D01*
X17378481Y-7368927D01*
X17388202Y-7358202D01*
X17398927Y-7348481D01*
X17410553Y-7339858D01*
X17422969Y-7332417D01*
X17436054Y-7326228D01*
X17449683Y-7321351D01*
X17463724Y-7317834D01*
X17478042Y-7315710D01*
X17492500Y-7315000D01*
X17787500Y-7315000D01*
X17801958Y-7315710D01*
X17801958Y-7315710D01*
G37*
D11*
X17640000Y-7635000D03*
G04 #@! TD*
D14*
G04 #@! TO.C,C11*
X6415000Y-14315000D03*
X6415000Y-12915000D03*
G04 #@! TD*
D10*
G04 #@! TO.C,C7*
G36*
X18487958Y-9815710D02*
X18502276Y-9817834D01*
X18516317Y-9821351D01*
X18529946Y-9826228D01*
X18543031Y-9832417D01*
X18555447Y-9839858D01*
X18567073Y-9848481D01*
X18577798Y-9858202D01*
X18587519Y-9868927D01*
X18596142Y-9880553D01*
X18603583Y-9892969D01*
X18609772Y-9906054D01*
X18614649Y-9919683D01*
X18618166Y-9933724D01*
X18620290Y-9948042D01*
X18621000Y-9962500D01*
X18621000Y-10257500D01*
X18620290Y-10271958D01*
X18618166Y-10286276D01*
X18614649Y-10300317D01*
X18609772Y-10313946D01*
X18603583Y-10327031D01*
X18596142Y-10339447D01*
X18587519Y-10351073D01*
X18577798Y-10361798D01*
X18567073Y-10371519D01*
X18555447Y-10380142D01*
X18543031Y-10387583D01*
X18529946Y-10393772D01*
X18516317Y-10398649D01*
X18502276Y-10402166D01*
X18487958Y-10404290D01*
X18473500Y-10405000D01*
X18128500Y-10405000D01*
X18114042Y-10404290D01*
X18099724Y-10402166D01*
X18085683Y-10398649D01*
X18072054Y-10393772D01*
X18058969Y-10387583D01*
X18046553Y-10380142D01*
X18034927Y-10371519D01*
X18024202Y-10361798D01*
X18014481Y-10351073D01*
X18005858Y-10339447D01*
X17998417Y-10327031D01*
X17992228Y-10313946D01*
X17987351Y-10300317D01*
X17983834Y-10286276D01*
X17981710Y-10271958D01*
X17981000Y-10257500D01*
X17981000Y-9962500D01*
X17981710Y-9948042D01*
X17983834Y-9933724D01*
X17987351Y-9919683D01*
X17992228Y-9906054D01*
X17998417Y-9892969D01*
X18005858Y-9880553D01*
X18014481Y-9868927D01*
X18024202Y-9858202D01*
X18034927Y-9848481D01*
X18046553Y-9839858D01*
X18058969Y-9832417D01*
X18072054Y-9826228D01*
X18085683Y-9821351D01*
X18099724Y-9817834D01*
X18114042Y-9815710D01*
X18128500Y-9815000D01*
X18473500Y-9815000D01*
X18487958Y-9815710D01*
X18487958Y-9815710D01*
G37*
D11*
X18301000Y-10110000D03*
D10*
G36*
X18487958Y-8845710D02*
X18502276Y-8847834D01*
X18516317Y-8851351D01*
X18529946Y-8856228D01*
X18543031Y-8862417D01*
X18555447Y-8869858D01*
X18567073Y-8878481D01*
X18577798Y-8888202D01*
X18587519Y-8898927D01*
X18596142Y-8910553D01*
X18603583Y-8922969D01*
X18609772Y-8936054D01*
X18614649Y-8949683D01*
X18618166Y-8963724D01*
X18620290Y-8978042D01*
X18621000Y-8992500D01*
X18621000Y-9287500D01*
X18620290Y-9301958D01*
X18618166Y-9316276D01*
X18614649Y-9330317D01*
X18609772Y-9343946D01*
X18603583Y-9357031D01*
X18596142Y-9369447D01*
X18587519Y-9381073D01*
X18577798Y-9391798D01*
X18567073Y-9401519D01*
X18555447Y-9410142D01*
X18543031Y-9417583D01*
X18529946Y-9423772D01*
X18516317Y-9428649D01*
X18502276Y-9432166D01*
X18487958Y-9434290D01*
X18473500Y-9435000D01*
X18128500Y-9435000D01*
X18114042Y-9434290D01*
X18099724Y-9432166D01*
X18085683Y-9428649D01*
X18072054Y-9423772D01*
X18058969Y-9417583D01*
X18046553Y-9410142D01*
X18034927Y-9401519D01*
X18024202Y-9391798D01*
X18014481Y-9381073D01*
X18005858Y-9369447D01*
X17998417Y-9357031D01*
X17992228Y-9343946D01*
X17987351Y-9330317D01*
X17983834Y-9316276D01*
X17981710Y-9301958D01*
X17981000Y-9287500D01*
X17981000Y-8992500D01*
X17981710Y-8978042D01*
X17983834Y-8963724D01*
X17987351Y-8949683D01*
X17992228Y-8936054D01*
X17998417Y-8922969D01*
X18005858Y-8910553D01*
X18014481Y-8898927D01*
X18024202Y-8888202D01*
X18034927Y-8878481D01*
X18046553Y-8869858D01*
X18058969Y-8862417D01*
X18072054Y-8856228D01*
X18085683Y-8851351D01*
X18099724Y-8847834D01*
X18114042Y-8845710D01*
X18128500Y-8845000D01*
X18473500Y-8845000D01*
X18487958Y-8845710D01*
X18487958Y-8845710D01*
G37*
D11*
X18301000Y-9140000D03*
G04 #@! TD*
D10*
G04 #@! TO.C,C5*
G36*
X17991958Y-12835710D02*
X18006276Y-12837834D01*
X18020317Y-12841351D01*
X18033946Y-12846228D01*
X18047031Y-12852417D01*
X18059447Y-12859858D01*
X18071073Y-12868481D01*
X18081798Y-12878202D01*
X18091519Y-12888927D01*
X18100142Y-12900553D01*
X18107583Y-12912969D01*
X18113772Y-12926054D01*
X18118649Y-12939683D01*
X18122166Y-12953724D01*
X18124290Y-12968042D01*
X18125000Y-12982500D01*
X18125000Y-13277500D01*
X18124290Y-13291958D01*
X18122166Y-13306276D01*
X18118649Y-13320317D01*
X18113772Y-13333946D01*
X18107583Y-13347031D01*
X18100142Y-13359447D01*
X18091519Y-13371073D01*
X18081798Y-13381798D01*
X18071073Y-13391519D01*
X18059447Y-13400142D01*
X18047031Y-13407583D01*
X18033946Y-13413772D01*
X18020317Y-13418649D01*
X18006276Y-13422166D01*
X17991958Y-13424290D01*
X17977500Y-13425000D01*
X17632500Y-13425000D01*
X17618042Y-13424290D01*
X17603724Y-13422166D01*
X17589683Y-13418649D01*
X17576054Y-13413772D01*
X17562969Y-13407583D01*
X17550553Y-13400142D01*
X17538927Y-13391519D01*
X17528202Y-13381798D01*
X17518481Y-13371073D01*
X17509858Y-13359447D01*
X17502417Y-13347031D01*
X17496228Y-13333946D01*
X17491351Y-13320317D01*
X17487834Y-13306276D01*
X17485710Y-13291958D01*
X17485000Y-13277500D01*
X17485000Y-12982500D01*
X17485710Y-12968042D01*
X17487834Y-12953724D01*
X17491351Y-12939683D01*
X17496228Y-12926054D01*
X17502417Y-12912969D01*
X17509858Y-12900553D01*
X17518481Y-12888927D01*
X17528202Y-12878202D01*
X17538927Y-12868481D01*
X17550553Y-12859858D01*
X17562969Y-12852417D01*
X17576054Y-12846228D01*
X17589683Y-12841351D01*
X17603724Y-12837834D01*
X17618042Y-12835710D01*
X17632500Y-12835000D01*
X17977500Y-12835000D01*
X17991958Y-12835710D01*
X17991958Y-12835710D01*
G37*
D11*
X17805000Y-13130000D03*
D10*
G36*
X17991958Y-13805710D02*
X18006276Y-13807834D01*
X18020317Y-13811351D01*
X18033946Y-13816228D01*
X18047031Y-13822417D01*
X18059447Y-13829858D01*
X18071073Y-13838481D01*
X18081798Y-13848202D01*
X18091519Y-13858927D01*
X18100142Y-13870553D01*
X18107583Y-13882969D01*
X18113772Y-13896054D01*
X18118649Y-13909683D01*
X18122166Y-13923724D01*
X18124290Y-13938042D01*
X18125000Y-13952500D01*
X18125000Y-14247500D01*
X18124290Y-14261958D01*
X18122166Y-14276276D01*
X18118649Y-14290317D01*
X18113772Y-14303946D01*
X18107583Y-14317031D01*
X18100142Y-14329447D01*
X18091519Y-14341073D01*
X18081798Y-14351798D01*
X18071073Y-14361519D01*
X18059447Y-14370142D01*
X18047031Y-14377583D01*
X18033946Y-14383772D01*
X18020317Y-14388649D01*
X18006276Y-14392166D01*
X17991958Y-14394290D01*
X17977500Y-14395000D01*
X17632500Y-14395000D01*
X17618042Y-14394290D01*
X17603724Y-14392166D01*
X17589683Y-14388649D01*
X17576054Y-14383772D01*
X17562969Y-14377583D01*
X17550553Y-14370142D01*
X17538927Y-14361519D01*
X17528202Y-14351798D01*
X17518481Y-14341073D01*
X17509858Y-14329447D01*
X17502417Y-14317031D01*
X17496228Y-14303946D01*
X17491351Y-14290317D01*
X17487834Y-14276276D01*
X17485710Y-14261958D01*
X17485000Y-14247500D01*
X17485000Y-13952500D01*
X17485710Y-13938042D01*
X17487834Y-13923724D01*
X17491351Y-13909683D01*
X17496228Y-13896054D01*
X17502417Y-13882969D01*
X17509858Y-13870553D01*
X17518481Y-13858927D01*
X17528202Y-13848202D01*
X17538927Y-13838481D01*
X17550553Y-13829858D01*
X17562969Y-13822417D01*
X17576054Y-13816228D01*
X17589683Y-13811351D01*
X17603724Y-13807834D01*
X17618042Y-13805710D01*
X17632500Y-13805000D01*
X17977500Y-13805000D01*
X17991958Y-13805710D01*
X17991958Y-13805710D01*
G37*
D11*
X17805000Y-14100000D03*
G04 #@! TD*
D10*
G04 #@! TO.C,C4*
G36*
X12541958Y-16635710D02*
X12556276Y-16637834D01*
X12570317Y-16641351D01*
X12583946Y-16646228D01*
X12597031Y-16652417D01*
X12609447Y-16659858D01*
X12621073Y-16668481D01*
X12631798Y-16678202D01*
X12641519Y-16688927D01*
X12650142Y-16700553D01*
X12657583Y-16712969D01*
X12663772Y-16726054D01*
X12668649Y-16739683D01*
X12672166Y-16753724D01*
X12674290Y-16768042D01*
X12675000Y-16782500D01*
X12675000Y-17077500D01*
X12674290Y-17091958D01*
X12672166Y-17106276D01*
X12668649Y-17120317D01*
X12663772Y-17133946D01*
X12657583Y-17147031D01*
X12650142Y-17159447D01*
X12641519Y-17171073D01*
X12631798Y-17181798D01*
X12621073Y-17191519D01*
X12609447Y-17200142D01*
X12597031Y-17207583D01*
X12583946Y-17213772D01*
X12570317Y-17218649D01*
X12556276Y-17222166D01*
X12541958Y-17224290D01*
X12527500Y-17225000D01*
X12182500Y-17225000D01*
X12168042Y-17224290D01*
X12153724Y-17222166D01*
X12139683Y-17218649D01*
X12126054Y-17213772D01*
X12112969Y-17207583D01*
X12100553Y-17200142D01*
X12088927Y-17191519D01*
X12078202Y-17181798D01*
X12068481Y-17171073D01*
X12059858Y-17159447D01*
X12052417Y-17147031D01*
X12046228Y-17133946D01*
X12041351Y-17120317D01*
X12037834Y-17106276D01*
X12035710Y-17091958D01*
X12035000Y-17077500D01*
X12035000Y-16782500D01*
X12035710Y-16768042D01*
X12037834Y-16753724D01*
X12041351Y-16739683D01*
X12046228Y-16726054D01*
X12052417Y-16712969D01*
X12059858Y-16700553D01*
X12068481Y-16688927D01*
X12078202Y-16678202D01*
X12088927Y-16668481D01*
X12100553Y-16659858D01*
X12112969Y-16652417D01*
X12126054Y-16646228D01*
X12139683Y-16641351D01*
X12153724Y-16637834D01*
X12168042Y-16635710D01*
X12182500Y-16635000D01*
X12527500Y-16635000D01*
X12541958Y-16635710D01*
X12541958Y-16635710D01*
G37*
D11*
X12355000Y-16930000D03*
D10*
G36*
X12541958Y-17605710D02*
X12556276Y-17607834D01*
X12570317Y-17611351D01*
X12583946Y-17616228D01*
X12597031Y-17622417D01*
X12609447Y-17629858D01*
X12621073Y-17638481D01*
X12631798Y-17648202D01*
X12641519Y-17658927D01*
X12650142Y-17670553D01*
X12657583Y-17682969D01*
X12663772Y-17696054D01*
X12668649Y-17709683D01*
X12672166Y-17723724D01*
X12674290Y-17738042D01*
X12675000Y-17752500D01*
X12675000Y-18047500D01*
X12674290Y-18061958D01*
X12672166Y-18076276D01*
X12668649Y-18090317D01*
X12663772Y-18103946D01*
X12657583Y-18117031D01*
X12650142Y-18129447D01*
X12641519Y-18141073D01*
X12631798Y-18151798D01*
X12621073Y-18161519D01*
X12609447Y-18170142D01*
X12597031Y-18177583D01*
X12583946Y-18183772D01*
X12570317Y-18188649D01*
X12556276Y-18192166D01*
X12541958Y-18194290D01*
X12527500Y-18195000D01*
X12182500Y-18195000D01*
X12168042Y-18194290D01*
X12153724Y-18192166D01*
X12139683Y-18188649D01*
X12126054Y-18183772D01*
X12112969Y-18177583D01*
X12100553Y-18170142D01*
X12088927Y-18161519D01*
X12078202Y-18151798D01*
X12068481Y-18141073D01*
X12059858Y-18129447D01*
X12052417Y-18117031D01*
X12046228Y-18103946D01*
X12041351Y-18090317D01*
X12037834Y-18076276D01*
X12035710Y-18061958D01*
X12035000Y-18047500D01*
X12035000Y-17752500D01*
X12035710Y-17738042D01*
X12037834Y-17723724D01*
X12041351Y-17709683D01*
X12046228Y-17696054D01*
X12052417Y-17682969D01*
X12059858Y-17670553D01*
X12068481Y-17658927D01*
X12078202Y-17648202D01*
X12088927Y-17638481D01*
X12100553Y-17629858D01*
X12112969Y-17622417D01*
X12126054Y-17616228D01*
X12139683Y-17611351D01*
X12153724Y-17607834D01*
X12168042Y-17605710D01*
X12182500Y-17605000D01*
X12527500Y-17605000D01*
X12541958Y-17605710D01*
X12541958Y-17605710D01*
G37*
D11*
X12355000Y-17900000D03*
G04 #@! TD*
D10*
G04 #@! TO.C,C3*
G36*
X14466958Y-16960710D02*
X14481276Y-16962834D01*
X14495317Y-16966351D01*
X14508946Y-16971228D01*
X14522031Y-16977417D01*
X14534447Y-16984858D01*
X14546073Y-16993481D01*
X14556798Y-17003202D01*
X14566519Y-17013927D01*
X14575142Y-17025553D01*
X14582583Y-17037969D01*
X14588772Y-17051054D01*
X14593649Y-17064683D01*
X14597166Y-17078724D01*
X14599290Y-17093042D01*
X14600000Y-17107500D01*
X14600000Y-17402500D01*
X14599290Y-17416958D01*
X14597166Y-17431276D01*
X14593649Y-17445317D01*
X14588772Y-17458946D01*
X14582583Y-17472031D01*
X14575142Y-17484447D01*
X14566519Y-17496073D01*
X14556798Y-17506798D01*
X14546073Y-17516519D01*
X14534447Y-17525142D01*
X14522031Y-17532583D01*
X14508946Y-17538772D01*
X14495317Y-17543649D01*
X14481276Y-17547166D01*
X14466958Y-17549290D01*
X14452500Y-17550000D01*
X14107500Y-17550000D01*
X14093042Y-17549290D01*
X14078724Y-17547166D01*
X14064683Y-17543649D01*
X14051054Y-17538772D01*
X14037969Y-17532583D01*
X14025553Y-17525142D01*
X14013927Y-17516519D01*
X14003202Y-17506798D01*
X13993481Y-17496073D01*
X13984858Y-17484447D01*
X13977417Y-17472031D01*
X13971228Y-17458946D01*
X13966351Y-17445317D01*
X13962834Y-17431276D01*
X13960710Y-17416958D01*
X13960000Y-17402500D01*
X13960000Y-17107500D01*
X13960710Y-17093042D01*
X13962834Y-17078724D01*
X13966351Y-17064683D01*
X13971228Y-17051054D01*
X13977417Y-17037969D01*
X13984858Y-17025553D01*
X13993481Y-17013927D01*
X14003202Y-17003202D01*
X14013927Y-16993481D01*
X14025553Y-16984858D01*
X14037969Y-16977417D01*
X14051054Y-16971228D01*
X14064683Y-16966351D01*
X14078724Y-16962834D01*
X14093042Y-16960710D01*
X14107500Y-16960000D01*
X14452500Y-16960000D01*
X14466958Y-16960710D01*
X14466958Y-16960710D01*
G37*
D11*
X14280000Y-17255000D03*
D10*
G36*
X14466958Y-17930710D02*
X14481276Y-17932834D01*
X14495317Y-17936351D01*
X14508946Y-17941228D01*
X14522031Y-17947417D01*
X14534447Y-17954858D01*
X14546073Y-17963481D01*
X14556798Y-17973202D01*
X14566519Y-17983927D01*
X14575142Y-17995553D01*
X14582583Y-18007969D01*
X14588772Y-18021054D01*
X14593649Y-18034683D01*
X14597166Y-18048724D01*
X14599290Y-18063042D01*
X14600000Y-18077500D01*
X14600000Y-18372500D01*
X14599290Y-18386958D01*
X14597166Y-18401276D01*
X14593649Y-18415317D01*
X14588772Y-18428946D01*
X14582583Y-18442031D01*
X14575142Y-18454447D01*
X14566519Y-18466073D01*
X14556798Y-18476798D01*
X14546073Y-18486519D01*
X14534447Y-18495142D01*
X14522031Y-18502583D01*
X14508946Y-18508772D01*
X14495317Y-18513649D01*
X14481276Y-18517166D01*
X14466958Y-18519290D01*
X14452500Y-18520000D01*
X14107500Y-18520000D01*
X14093042Y-18519290D01*
X14078724Y-18517166D01*
X14064683Y-18513649D01*
X14051054Y-18508772D01*
X14037969Y-18502583D01*
X14025553Y-18495142D01*
X14013927Y-18486519D01*
X14003202Y-18476798D01*
X13993481Y-18466073D01*
X13984858Y-18454447D01*
X13977417Y-18442031D01*
X13971228Y-18428946D01*
X13966351Y-18415317D01*
X13962834Y-18401276D01*
X13960710Y-18386958D01*
X13960000Y-18372500D01*
X13960000Y-18077500D01*
X13960710Y-18063042D01*
X13962834Y-18048724D01*
X13966351Y-18034683D01*
X13971228Y-18021054D01*
X13977417Y-18007969D01*
X13984858Y-17995553D01*
X13993481Y-17983927D01*
X14003202Y-17973202D01*
X14013927Y-17963481D01*
X14025553Y-17954858D01*
X14037969Y-17947417D01*
X14051054Y-17941228D01*
X14064683Y-17936351D01*
X14078724Y-17932834D01*
X14093042Y-17930710D01*
X14107500Y-17930000D01*
X14452500Y-17930000D01*
X14466958Y-17930710D01*
X14466958Y-17930710D01*
G37*
D11*
X14280000Y-18225000D03*
G04 #@! TD*
D10*
G04 #@! TO.C,C2*
G36*
X11602958Y-16029710D02*
X11617276Y-16031834D01*
X11631317Y-16035351D01*
X11644946Y-16040228D01*
X11658031Y-16046417D01*
X11670447Y-16053858D01*
X11682073Y-16062481D01*
X11692798Y-16072202D01*
X11702519Y-16082927D01*
X11711142Y-16094553D01*
X11718583Y-16106969D01*
X11724772Y-16120054D01*
X11729649Y-16133683D01*
X11733166Y-16147724D01*
X11735290Y-16162042D01*
X11736000Y-16176500D01*
X11736000Y-16471500D01*
X11735290Y-16485958D01*
X11733166Y-16500276D01*
X11729649Y-16514317D01*
X11724772Y-16527946D01*
X11718583Y-16541031D01*
X11711142Y-16553447D01*
X11702519Y-16565073D01*
X11692798Y-16575798D01*
X11682073Y-16585519D01*
X11670447Y-16594142D01*
X11658031Y-16601583D01*
X11644946Y-16607772D01*
X11631317Y-16612649D01*
X11617276Y-16616166D01*
X11602958Y-16618290D01*
X11588500Y-16619000D01*
X11243500Y-16619000D01*
X11229042Y-16618290D01*
X11214724Y-16616166D01*
X11200683Y-16612649D01*
X11187054Y-16607772D01*
X11173969Y-16601583D01*
X11161553Y-16594142D01*
X11149927Y-16585519D01*
X11139202Y-16575798D01*
X11129481Y-16565073D01*
X11120858Y-16553447D01*
X11113417Y-16541031D01*
X11107228Y-16527946D01*
X11102351Y-16514317D01*
X11098834Y-16500276D01*
X11096710Y-16485958D01*
X11096000Y-16471500D01*
X11096000Y-16176500D01*
X11096710Y-16162042D01*
X11098834Y-16147724D01*
X11102351Y-16133683D01*
X11107228Y-16120054D01*
X11113417Y-16106969D01*
X11120858Y-16094553D01*
X11129481Y-16082927D01*
X11139202Y-16072202D01*
X11149927Y-16062481D01*
X11161553Y-16053858D01*
X11173969Y-16046417D01*
X11187054Y-16040228D01*
X11200683Y-16035351D01*
X11214724Y-16031834D01*
X11229042Y-16029710D01*
X11243500Y-16029000D01*
X11588500Y-16029000D01*
X11602958Y-16029710D01*
X11602958Y-16029710D01*
G37*
D11*
X11416000Y-16324000D03*
D10*
G36*
X11602958Y-16999710D02*
X11617276Y-17001834D01*
X11631317Y-17005351D01*
X11644946Y-17010228D01*
X11658031Y-17016417D01*
X11670447Y-17023858D01*
X11682073Y-17032481D01*
X11692798Y-17042202D01*
X11702519Y-17052927D01*
X11711142Y-17064553D01*
X11718583Y-17076969D01*
X11724772Y-17090054D01*
X11729649Y-17103683D01*
X11733166Y-17117724D01*
X11735290Y-17132042D01*
X11736000Y-17146500D01*
X11736000Y-17441500D01*
X11735290Y-17455958D01*
X11733166Y-17470276D01*
X11729649Y-17484317D01*
X11724772Y-17497946D01*
X11718583Y-17511031D01*
X11711142Y-17523447D01*
X11702519Y-17535073D01*
X11692798Y-17545798D01*
X11682073Y-17555519D01*
X11670447Y-17564142D01*
X11658031Y-17571583D01*
X11644946Y-17577772D01*
X11631317Y-17582649D01*
X11617276Y-17586166D01*
X11602958Y-17588290D01*
X11588500Y-17589000D01*
X11243500Y-17589000D01*
X11229042Y-17588290D01*
X11214724Y-17586166D01*
X11200683Y-17582649D01*
X11187054Y-17577772D01*
X11173969Y-17571583D01*
X11161553Y-17564142D01*
X11149927Y-17555519D01*
X11139202Y-17545798D01*
X11129481Y-17535073D01*
X11120858Y-17523447D01*
X11113417Y-17511031D01*
X11107228Y-17497946D01*
X11102351Y-17484317D01*
X11098834Y-17470276D01*
X11096710Y-17455958D01*
X11096000Y-17441500D01*
X11096000Y-17146500D01*
X11096710Y-17132042D01*
X11098834Y-17117724D01*
X11102351Y-17103683D01*
X11107228Y-17090054D01*
X11113417Y-17076969D01*
X11120858Y-17064553D01*
X11129481Y-17052927D01*
X11139202Y-17042202D01*
X11149927Y-17032481D01*
X11161553Y-17023858D01*
X11173969Y-17016417D01*
X11187054Y-17010228D01*
X11200683Y-17005351D01*
X11214724Y-17001834D01*
X11229042Y-16999710D01*
X11243500Y-16999000D01*
X11588500Y-16999000D01*
X11602958Y-16999710D01*
X11602958Y-16999710D01*
G37*
D11*
X11416000Y-17294000D03*
G04 #@! TD*
D10*
G04 #@! TO.C,C10*
G36*
X10391958Y-16035710D02*
X10406276Y-16037834D01*
X10420317Y-16041351D01*
X10433946Y-16046228D01*
X10447031Y-16052417D01*
X10459447Y-16059858D01*
X10471073Y-16068481D01*
X10481798Y-16078202D01*
X10491519Y-16088927D01*
X10500142Y-16100553D01*
X10507583Y-16112969D01*
X10513772Y-16126054D01*
X10518649Y-16139683D01*
X10522166Y-16153724D01*
X10524290Y-16168042D01*
X10525000Y-16182500D01*
X10525000Y-16477500D01*
X10524290Y-16491958D01*
X10522166Y-16506276D01*
X10518649Y-16520317D01*
X10513772Y-16533946D01*
X10507583Y-16547031D01*
X10500142Y-16559447D01*
X10491519Y-16571073D01*
X10481798Y-16581798D01*
X10471073Y-16591519D01*
X10459447Y-16600142D01*
X10447031Y-16607583D01*
X10433946Y-16613772D01*
X10420317Y-16618649D01*
X10406276Y-16622166D01*
X10391958Y-16624290D01*
X10377500Y-16625000D01*
X10032500Y-16625000D01*
X10018042Y-16624290D01*
X10003724Y-16622166D01*
X9989683Y-16618649D01*
X9976054Y-16613772D01*
X9962969Y-16607583D01*
X9950553Y-16600142D01*
X9938927Y-16591519D01*
X9928202Y-16581798D01*
X9918481Y-16571073D01*
X9909858Y-16559447D01*
X9902417Y-16547031D01*
X9896228Y-16533946D01*
X9891351Y-16520317D01*
X9887834Y-16506276D01*
X9885710Y-16491958D01*
X9885000Y-16477500D01*
X9885000Y-16182500D01*
X9885710Y-16168042D01*
X9887834Y-16153724D01*
X9891351Y-16139683D01*
X9896228Y-16126054D01*
X9902417Y-16112969D01*
X9909858Y-16100553D01*
X9918481Y-16088927D01*
X9928202Y-16078202D01*
X9938927Y-16068481D01*
X9950553Y-16059858D01*
X9962969Y-16052417D01*
X9976054Y-16046228D01*
X9989683Y-16041351D01*
X10003724Y-16037834D01*
X10018042Y-16035710D01*
X10032500Y-16035000D01*
X10377500Y-16035000D01*
X10391958Y-16035710D01*
X10391958Y-16035710D01*
G37*
D11*
X10205000Y-16330000D03*
D10*
G36*
X10391958Y-17005710D02*
X10406276Y-17007834D01*
X10420317Y-17011351D01*
X10433946Y-17016228D01*
X10447031Y-17022417D01*
X10459447Y-17029858D01*
X10471073Y-17038481D01*
X10481798Y-17048202D01*
X10491519Y-17058927D01*
X10500142Y-17070553D01*
X10507583Y-17082969D01*
X10513772Y-17096054D01*
X10518649Y-17109683D01*
X10522166Y-17123724D01*
X10524290Y-17138042D01*
X10525000Y-17152500D01*
X10525000Y-17447500D01*
X10524290Y-17461958D01*
X10522166Y-17476276D01*
X10518649Y-17490317D01*
X10513772Y-17503946D01*
X10507583Y-17517031D01*
X10500142Y-17529447D01*
X10491519Y-17541073D01*
X10481798Y-17551798D01*
X10471073Y-17561519D01*
X10459447Y-17570142D01*
X10447031Y-17577583D01*
X10433946Y-17583772D01*
X10420317Y-17588649D01*
X10406276Y-17592166D01*
X10391958Y-17594290D01*
X10377500Y-17595000D01*
X10032500Y-17595000D01*
X10018042Y-17594290D01*
X10003724Y-17592166D01*
X9989683Y-17588649D01*
X9976054Y-17583772D01*
X9962969Y-17577583D01*
X9950553Y-17570142D01*
X9938927Y-17561519D01*
X9928202Y-17551798D01*
X9918481Y-17541073D01*
X9909858Y-17529447D01*
X9902417Y-17517031D01*
X9896228Y-17503946D01*
X9891351Y-17490317D01*
X9887834Y-17476276D01*
X9885710Y-17461958D01*
X9885000Y-17447500D01*
X9885000Y-17152500D01*
X9885710Y-17138042D01*
X9887834Y-17123724D01*
X9891351Y-17109683D01*
X9896228Y-17096054D01*
X9902417Y-17082969D01*
X9909858Y-17070553D01*
X9918481Y-17058927D01*
X9928202Y-17048202D01*
X9938927Y-17038481D01*
X9950553Y-17029858D01*
X9962969Y-17022417D01*
X9976054Y-17016228D01*
X9989683Y-17011351D01*
X10003724Y-17007834D01*
X10018042Y-17005710D01*
X10032500Y-17005000D01*
X10377500Y-17005000D01*
X10391958Y-17005710D01*
X10391958Y-17005710D01*
G37*
D11*
X10205000Y-17300000D03*
G04 #@! TD*
D10*
G04 #@! TO.C,C14*
G36*
X6498958Y-8989710D02*
X6513276Y-8991834D01*
X6527317Y-8995351D01*
X6540946Y-9000228D01*
X6554031Y-9006417D01*
X6566447Y-9013858D01*
X6578073Y-9022481D01*
X6588798Y-9032202D01*
X6598519Y-9042927D01*
X6607142Y-9054553D01*
X6614583Y-9066969D01*
X6620772Y-9080054D01*
X6625649Y-9093683D01*
X6629166Y-9107724D01*
X6631290Y-9122042D01*
X6632000Y-9136500D01*
X6632000Y-9481500D01*
X6631290Y-9495958D01*
X6629166Y-9510276D01*
X6625649Y-9524317D01*
X6620772Y-9537946D01*
X6614583Y-9551031D01*
X6607142Y-9563447D01*
X6598519Y-9575073D01*
X6588798Y-9585798D01*
X6578073Y-9595519D01*
X6566447Y-9604142D01*
X6554031Y-9611583D01*
X6540946Y-9617772D01*
X6527317Y-9622649D01*
X6513276Y-9626166D01*
X6498958Y-9628290D01*
X6484500Y-9629000D01*
X6189500Y-9629000D01*
X6175042Y-9628290D01*
X6160724Y-9626166D01*
X6146683Y-9622649D01*
X6133054Y-9617772D01*
X6119969Y-9611583D01*
X6107553Y-9604142D01*
X6095927Y-9595519D01*
X6085202Y-9585798D01*
X6075481Y-9575073D01*
X6066858Y-9563447D01*
X6059417Y-9551031D01*
X6053228Y-9537946D01*
X6048351Y-9524317D01*
X6044834Y-9510276D01*
X6042710Y-9495958D01*
X6042000Y-9481500D01*
X6042000Y-9136500D01*
X6042710Y-9122042D01*
X6044834Y-9107724D01*
X6048351Y-9093683D01*
X6053228Y-9080054D01*
X6059417Y-9066969D01*
X6066858Y-9054553D01*
X6075481Y-9042927D01*
X6085202Y-9032202D01*
X6095927Y-9022481D01*
X6107553Y-9013858D01*
X6119969Y-9006417D01*
X6133054Y-9000228D01*
X6146683Y-8995351D01*
X6160724Y-8991834D01*
X6175042Y-8989710D01*
X6189500Y-8989000D01*
X6484500Y-8989000D01*
X6498958Y-8989710D01*
X6498958Y-8989710D01*
G37*
D11*
X6337000Y-9309000D03*
D10*
G36*
X5528958Y-8989710D02*
X5543276Y-8991834D01*
X5557317Y-8995351D01*
X5570946Y-9000228D01*
X5584031Y-9006417D01*
X5596447Y-9013858D01*
X5608073Y-9022481D01*
X5618798Y-9032202D01*
X5628519Y-9042927D01*
X5637142Y-9054553D01*
X5644583Y-9066969D01*
X5650772Y-9080054D01*
X5655649Y-9093683D01*
X5659166Y-9107724D01*
X5661290Y-9122042D01*
X5662000Y-9136500D01*
X5662000Y-9481500D01*
X5661290Y-9495958D01*
X5659166Y-9510276D01*
X5655649Y-9524317D01*
X5650772Y-9537946D01*
X5644583Y-9551031D01*
X5637142Y-9563447D01*
X5628519Y-9575073D01*
X5618798Y-9585798D01*
X5608073Y-9595519D01*
X5596447Y-9604142D01*
X5584031Y-9611583D01*
X5570946Y-9617772D01*
X5557317Y-9622649D01*
X5543276Y-9626166D01*
X5528958Y-9628290D01*
X5514500Y-9629000D01*
X5219500Y-9629000D01*
X5205042Y-9628290D01*
X5190724Y-9626166D01*
X5176683Y-9622649D01*
X5163054Y-9617772D01*
X5149969Y-9611583D01*
X5137553Y-9604142D01*
X5125927Y-9595519D01*
X5115202Y-9585798D01*
X5105481Y-9575073D01*
X5096858Y-9563447D01*
X5089417Y-9551031D01*
X5083228Y-9537946D01*
X5078351Y-9524317D01*
X5074834Y-9510276D01*
X5072710Y-9495958D01*
X5072000Y-9481500D01*
X5072000Y-9136500D01*
X5072710Y-9122042D01*
X5074834Y-9107724D01*
X5078351Y-9093683D01*
X5083228Y-9080054D01*
X5089417Y-9066969D01*
X5096858Y-9054553D01*
X5105481Y-9042927D01*
X5115202Y-9032202D01*
X5125927Y-9022481D01*
X5137553Y-9013858D01*
X5149969Y-9006417D01*
X5163054Y-9000228D01*
X5176683Y-8995351D01*
X5190724Y-8991834D01*
X5205042Y-8989710D01*
X5219500Y-8989000D01*
X5514500Y-8989000D01*
X5528958Y-8989710D01*
X5528958Y-8989710D01*
G37*
D11*
X5367000Y-9309000D03*
G04 #@! TD*
D10*
G04 #@! TO.C,C1*
G36*
X8098958Y-13000710D02*
X8113276Y-13002834D01*
X8127317Y-13006351D01*
X8140946Y-13011228D01*
X8154031Y-13017417D01*
X8166447Y-13024858D01*
X8178073Y-13033481D01*
X8188798Y-13043202D01*
X8198519Y-13053927D01*
X8207142Y-13065553D01*
X8214583Y-13077969D01*
X8220772Y-13091054D01*
X8225649Y-13104683D01*
X8229166Y-13118724D01*
X8231290Y-13133042D01*
X8232000Y-13147500D01*
X8232000Y-13442500D01*
X8231290Y-13456958D01*
X8229166Y-13471276D01*
X8225649Y-13485317D01*
X8220772Y-13498946D01*
X8214583Y-13512031D01*
X8207142Y-13524447D01*
X8198519Y-13536073D01*
X8188798Y-13546798D01*
X8178073Y-13556519D01*
X8166447Y-13565142D01*
X8154031Y-13572583D01*
X8140946Y-13578772D01*
X8127317Y-13583649D01*
X8113276Y-13587166D01*
X8098958Y-13589290D01*
X8084500Y-13590000D01*
X7739500Y-13590000D01*
X7725042Y-13589290D01*
X7710724Y-13587166D01*
X7696683Y-13583649D01*
X7683054Y-13578772D01*
X7669969Y-13572583D01*
X7657553Y-13565142D01*
X7645927Y-13556519D01*
X7635202Y-13546798D01*
X7625481Y-13536073D01*
X7616858Y-13524447D01*
X7609417Y-13512031D01*
X7603228Y-13498946D01*
X7598351Y-13485317D01*
X7594834Y-13471276D01*
X7592710Y-13456958D01*
X7592000Y-13442500D01*
X7592000Y-13147500D01*
X7592710Y-13133042D01*
X7594834Y-13118724D01*
X7598351Y-13104683D01*
X7603228Y-13091054D01*
X7609417Y-13077969D01*
X7616858Y-13065553D01*
X7625481Y-13053927D01*
X7635202Y-13043202D01*
X7645927Y-13033481D01*
X7657553Y-13024858D01*
X7669969Y-13017417D01*
X7683054Y-13011228D01*
X7696683Y-13006351D01*
X7710724Y-13002834D01*
X7725042Y-13000710D01*
X7739500Y-13000000D01*
X8084500Y-13000000D01*
X8098958Y-13000710D01*
X8098958Y-13000710D01*
G37*
D11*
X7912000Y-13295000D03*
D10*
G36*
X8098958Y-13970710D02*
X8113276Y-13972834D01*
X8127317Y-13976351D01*
X8140946Y-13981228D01*
X8154031Y-13987417D01*
X8166447Y-13994858D01*
X8178073Y-14003481D01*
X8188798Y-14013202D01*
X8198519Y-14023927D01*
X8207142Y-14035553D01*
X8214583Y-14047969D01*
X8220772Y-14061054D01*
X8225649Y-14074683D01*
X8229166Y-14088724D01*
X8231290Y-14103042D01*
X8232000Y-14117500D01*
X8232000Y-14412500D01*
X8231290Y-14426958D01*
X8229166Y-14441276D01*
X8225649Y-14455317D01*
X8220772Y-14468946D01*
X8214583Y-14482031D01*
X8207142Y-14494447D01*
X8198519Y-14506073D01*
X8188798Y-14516798D01*
X8178073Y-14526519D01*
X8166447Y-14535142D01*
X8154031Y-14542583D01*
X8140946Y-14548772D01*
X8127317Y-14553649D01*
X8113276Y-14557166D01*
X8098958Y-14559290D01*
X8084500Y-14560000D01*
X7739500Y-14560000D01*
X7725042Y-14559290D01*
X7710724Y-14557166D01*
X7696683Y-14553649D01*
X7683054Y-14548772D01*
X7669969Y-14542583D01*
X7657553Y-14535142D01*
X7645927Y-14526519D01*
X7635202Y-14516798D01*
X7625481Y-14506073D01*
X7616858Y-14494447D01*
X7609417Y-14482031D01*
X7603228Y-14468946D01*
X7598351Y-14455317D01*
X7594834Y-14441276D01*
X7592710Y-14426958D01*
X7592000Y-14412500D01*
X7592000Y-14117500D01*
X7592710Y-14103042D01*
X7594834Y-14088724D01*
X7598351Y-14074683D01*
X7603228Y-14061054D01*
X7609417Y-14047969D01*
X7616858Y-14035553D01*
X7625481Y-14023927D01*
X7635202Y-14013202D01*
X7645927Y-14003481D01*
X7657553Y-13994858D01*
X7669969Y-13987417D01*
X7683054Y-13981228D01*
X7696683Y-13976351D01*
X7710724Y-13972834D01*
X7725042Y-13970710D01*
X7739500Y-13970000D01*
X8084500Y-13970000D01*
X8098958Y-13970710D01*
X8098958Y-13970710D01*
G37*
D11*
X7912000Y-14265000D03*
G04 #@! TD*
D10*
G04 #@! TO.C,R11*
G36*
X3391958Y-12745710D02*
X3406276Y-12747834D01*
X3420317Y-12751351D01*
X3433946Y-12756228D01*
X3447031Y-12762417D01*
X3459447Y-12769858D01*
X3471073Y-12778481D01*
X3481798Y-12788202D01*
X3491519Y-12798927D01*
X3500142Y-12810553D01*
X3507583Y-12822969D01*
X3513772Y-12836054D01*
X3518649Y-12849683D01*
X3522166Y-12863724D01*
X3524290Y-12878042D01*
X3525000Y-12892500D01*
X3525000Y-13237500D01*
X3524290Y-13251958D01*
X3522166Y-13266276D01*
X3518649Y-13280317D01*
X3513772Y-13293946D01*
X3507583Y-13307031D01*
X3500142Y-13319447D01*
X3491519Y-13331073D01*
X3481798Y-13341798D01*
X3471073Y-13351519D01*
X3459447Y-13360142D01*
X3447031Y-13367583D01*
X3433946Y-13373772D01*
X3420317Y-13378649D01*
X3406276Y-13382166D01*
X3391958Y-13384290D01*
X3377500Y-13385000D01*
X3082500Y-13385000D01*
X3068042Y-13384290D01*
X3053724Y-13382166D01*
X3039683Y-13378649D01*
X3026054Y-13373772D01*
X3012969Y-13367583D01*
X3000553Y-13360142D01*
X2988927Y-13351519D01*
X2978202Y-13341798D01*
X2968481Y-13331073D01*
X2959858Y-13319447D01*
X2952417Y-13307031D01*
X2946228Y-13293946D01*
X2941351Y-13280317D01*
X2937834Y-13266276D01*
X2935710Y-13251958D01*
X2935000Y-13237500D01*
X2935000Y-12892500D01*
X2935710Y-12878042D01*
X2937834Y-12863724D01*
X2941351Y-12849683D01*
X2946228Y-12836054D01*
X2952417Y-12822969D01*
X2959858Y-12810553D01*
X2968481Y-12798927D01*
X2978202Y-12788202D01*
X2988927Y-12778481D01*
X3000553Y-12769858D01*
X3012969Y-12762417D01*
X3026054Y-12756228D01*
X3039683Y-12751351D01*
X3053724Y-12747834D01*
X3068042Y-12745710D01*
X3082500Y-12745000D01*
X3377500Y-12745000D01*
X3391958Y-12745710D01*
X3391958Y-12745710D01*
G37*
D11*
X3230000Y-13065000D03*
D10*
G36*
X4361958Y-12745710D02*
X4376276Y-12747834D01*
X4390317Y-12751351D01*
X4403946Y-12756228D01*
X4417031Y-12762417D01*
X4429447Y-12769858D01*
X4441073Y-12778481D01*
X4451798Y-12788202D01*
X4461519Y-12798927D01*
X4470142Y-12810553D01*
X4477583Y-12822969D01*
X4483772Y-12836054D01*
X4488649Y-12849683D01*
X4492166Y-12863724D01*
X4494290Y-12878042D01*
X4495000Y-12892500D01*
X4495000Y-13237500D01*
X4494290Y-13251958D01*
X4492166Y-13266276D01*
X4488649Y-13280317D01*
X4483772Y-13293946D01*
X4477583Y-13307031D01*
X4470142Y-13319447D01*
X4461519Y-13331073D01*
X4451798Y-13341798D01*
X4441073Y-13351519D01*
X4429447Y-13360142D01*
X4417031Y-13367583D01*
X4403946Y-13373772D01*
X4390317Y-13378649D01*
X4376276Y-13382166D01*
X4361958Y-13384290D01*
X4347500Y-13385000D01*
X4052500Y-13385000D01*
X4038042Y-13384290D01*
X4023724Y-13382166D01*
X4009683Y-13378649D01*
X3996054Y-13373772D01*
X3982969Y-13367583D01*
X3970553Y-13360142D01*
X3958927Y-13351519D01*
X3948202Y-13341798D01*
X3938481Y-13331073D01*
X3929858Y-13319447D01*
X3922417Y-13307031D01*
X3916228Y-13293946D01*
X3911351Y-13280317D01*
X3907834Y-13266276D01*
X3905710Y-13251958D01*
X3905000Y-13237500D01*
X3905000Y-12892500D01*
X3905710Y-12878042D01*
X3907834Y-12863724D01*
X3911351Y-12849683D01*
X3916228Y-12836054D01*
X3922417Y-12822969D01*
X3929858Y-12810553D01*
X3938481Y-12798927D01*
X3948202Y-12788202D01*
X3958927Y-12778481D01*
X3970553Y-12769858D01*
X3982969Y-12762417D01*
X3996054Y-12756228D01*
X4009683Y-12751351D01*
X4023724Y-12747834D01*
X4038042Y-12745710D01*
X4052500Y-12745000D01*
X4347500Y-12745000D01*
X4361958Y-12745710D01*
X4361958Y-12745710D01*
G37*
D11*
X4200000Y-13065000D03*
G04 #@! TD*
D10*
G04 #@! TO.C,R9*
G36*
X5528958Y-11019710D02*
X5543276Y-11021834D01*
X5557317Y-11025351D01*
X5570946Y-11030228D01*
X5584031Y-11036417D01*
X5596447Y-11043858D01*
X5608073Y-11052481D01*
X5618798Y-11062202D01*
X5628519Y-11072927D01*
X5637142Y-11084553D01*
X5644583Y-11096969D01*
X5650772Y-11110054D01*
X5655649Y-11123683D01*
X5659166Y-11137724D01*
X5661290Y-11152042D01*
X5662000Y-11166500D01*
X5662000Y-11511500D01*
X5661290Y-11525958D01*
X5659166Y-11540276D01*
X5655649Y-11554317D01*
X5650772Y-11567946D01*
X5644583Y-11581031D01*
X5637142Y-11593447D01*
X5628519Y-11605073D01*
X5618798Y-11615798D01*
X5608073Y-11625519D01*
X5596447Y-11634142D01*
X5584031Y-11641583D01*
X5570946Y-11647772D01*
X5557317Y-11652649D01*
X5543276Y-11656166D01*
X5528958Y-11658290D01*
X5514500Y-11659000D01*
X5219500Y-11659000D01*
X5205042Y-11658290D01*
X5190724Y-11656166D01*
X5176683Y-11652649D01*
X5163054Y-11647772D01*
X5149969Y-11641583D01*
X5137553Y-11634142D01*
X5125927Y-11625519D01*
X5115202Y-11615798D01*
X5105481Y-11605073D01*
X5096858Y-11593447D01*
X5089417Y-11581031D01*
X5083228Y-11567946D01*
X5078351Y-11554317D01*
X5074834Y-11540276D01*
X5072710Y-11525958D01*
X5072000Y-11511500D01*
X5072000Y-11166500D01*
X5072710Y-11152042D01*
X5074834Y-11137724D01*
X5078351Y-11123683D01*
X5083228Y-11110054D01*
X5089417Y-11096969D01*
X5096858Y-11084553D01*
X5105481Y-11072927D01*
X5115202Y-11062202D01*
X5125927Y-11052481D01*
X5137553Y-11043858D01*
X5149969Y-11036417D01*
X5163054Y-11030228D01*
X5176683Y-11025351D01*
X5190724Y-11021834D01*
X5205042Y-11019710D01*
X5219500Y-11019000D01*
X5514500Y-11019000D01*
X5528958Y-11019710D01*
X5528958Y-11019710D01*
G37*
D11*
X5367000Y-11339000D03*
D10*
G36*
X6498958Y-11019710D02*
X6513276Y-11021834D01*
X6527317Y-11025351D01*
X6540946Y-11030228D01*
X6554031Y-11036417D01*
X6566447Y-11043858D01*
X6578073Y-11052481D01*
X6588798Y-11062202D01*
X6598519Y-11072927D01*
X6607142Y-11084553D01*
X6614583Y-11096969D01*
X6620772Y-11110054D01*
X6625649Y-11123683D01*
X6629166Y-11137724D01*
X6631290Y-11152042D01*
X6632000Y-11166500D01*
X6632000Y-11511500D01*
X6631290Y-11525958D01*
X6629166Y-11540276D01*
X6625649Y-11554317D01*
X6620772Y-11567946D01*
X6614583Y-11581031D01*
X6607142Y-11593447D01*
X6598519Y-11605073D01*
X6588798Y-11615798D01*
X6578073Y-11625519D01*
X6566447Y-11634142D01*
X6554031Y-11641583D01*
X6540946Y-11647772D01*
X6527317Y-11652649D01*
X6513276Y-11656166D01*
X6498958Y-11658290D01*
X6484500Y-11659000D01*
X6189500Y-11659000D01*
X6175042Y-11658290D01*
X6160724Y-11656166D01*
X6146683Y-11652649D01*
X6133054Y-11647772D01*
X6119969Y-11641583D01*
X6107553Y-11634142D01*
X6095927Y-11625519D01*
X6085202Y-11615798D01*
X6075481Y-11605073D01*
X6066858Y-11593447D01*
X6059417Y-11581031D01*
X6053228Y-11567946D01*
X6048351Y-11554317D01*
X6044834Y-11540276D01*
X6042710Y-11525958D01*
X6042000Y-11511500D01*
X6042000Y-11166500D01*
X6042710Y-11152042D01*
X6044834Y-11137724D01*
X6048351Y-11123683D01*
X6053228Y-11110054D01*
X6059417Y-11096969D01*
X6066858Y-11084553D01*
X6075481Y-11072927D01*
X6085202Y-11062202D01*
X6095927Y-11052481D01*
X6107553Y-11043858D01*
X6119969Y-11036417D01*
X6133054Y-11030228D01*
X6146683Y-11025351D01*
X6160724Y-11021834D01*
X6175042Y-11019710D01*
X6189500Y-11019000D01*
X6484500Y-11019000D01*
X6498958Y-11019710D01*
X6498958Y-11019710D01*
G37*
D11*
X6337000Y-11339000D03*
G04 #@! TD*
D10*
G04 #@! TO.C,R8*
G36*
X4677958Y-15741710D02*
X4692276Y-15743834D01*
X4706317Y-15747351D01*
X4719946Y-15752228D01*
X4733031Y-15758417D01*
X4745447Y-15765858D01*
X4757073Y-15774481D01*
X4767798Y-15784202D01*
X4777519Y-15794927D01*
X4786142Y-15806553D01*
X4793583Y-15818969D01*
X4799772Y-15832054D01*
X4804649Y-15845683D01*
X4808166Y-15859724D01*
X4810290Y-15874042D01*
X4811000Y-15888500D01*
X4811000Y-16233500D01*
X4810290Y-16247958D01*
X4808166Y-16262276D01*
X4804649Y-16276317D01*
X4799772Y-16289946D01*
X4793583Y-16303031D01*
X4786142Y-16315447D01*
X4777519Y-16327073D01*
X4767798Y-16337798D01*
X4757073Y-16347519D01*
X4745447Y-16356142D01*
X4733031Y-16363583D01*
X4719946Y-16369772D01*
X4706317Y-16374649D01*
X4692276Y-16378166D01*
X4677958Y-16380290D01*
X4663500Y-16381000D01*
X4368500Y-16381000D01*
X4354042Y-16380290D01*
X4339724Y-16378166D01*
X4325683Y-16374649D01*
X4312054Y-16369772D01*
X4298969Y-16363583D01*
X4286553Y-16356142D01*
X4274927Y-16347519D01*
X4264202Y-16337798D01*
X4254481Y-16327073D01*
X4245858Y-16315447D01*
X4238417Y-16303031D01*
X4232228Y-16289946D01*
X4227351Y-16276317D01*
X4223834Y-16262276D01*
X4221710Y-16247958D01*
X4221000Y-16233500D01*
X4221000Y-15888500D01*
X4221710Y-15874042D01*
X4223834Y-15859724D01*
X4227351Y-15845683D01*
X4232228Y-15832054D01*
X4238417Y-15818969D01*
X4245858Y-15806553D01*
X4254481Y-15794927D01*
X4264202Y-15784202D01*
X4274927Y-15774481D01*
X4286553Y-15765858D01*
X4298969Y-15758417D01*
X4312054Y-15752228D01*
X4325683Y-15747351D01*
X4339724Y-15743834D01*
X4354042Y-15741710D01*
X4368500Y-15741000D01*
X4663500Y-15741000D01*
X4677958Y-15741710D01*
X4677958Y-15741710D01*
G37*
D11*
X4516000Y-16061000D03*
D10*
G36*
X5647958Y-15741710D02*
X5662276Y-15743834D01*
X5676317Y-15747351D01*
X5689946Y-15752228D01*
X5703031Y-15758417D01*
X5715447Y-15765858D01*
X5727073Y-15774481D01*
X5737798Y-15784202D01*
X5747519Y-15794927D01*
X5756142Y-15806553D01*
X5763583Y-15818969D01*
X5769772Y-15832054D01*
X5774649Y-15845683D01*
X5778166Y-15859724D01*
X5780290Y-15874042D01*
X5781000Y-15888500D01*
X5781000Y-16233500D01*
X5780290Y-16247958D01*
X5778166Y-16262276D01*
X5774649Y-16276317D01*
X5769772Y-16289946D01*
X5763583Y-16303031D01*
X5756142Y-16315447D01*
X5747519Y-16327073D01*
X5737798Y-16337798D01*
X5727073Y-16347519D01*
X5715447Y-16356142D01*
X5703031Y-16363583D01*
X5689946Y-16369772D01*
X5676317Y-16374649D01*
X5662276Y-16378166D01*
X5647958Y-16380290D01*
X5633500Y-16381000D01*
X5338500Y-16381000D01*
X5324042Y-16380290D01*
X5309724Y-16378166D01*
X5295683Y-16374649D01*
X5282054Y-16369772D01*
X5268969Y-16363583D01*
X5256553Y-16356142D01*
X5244927Y-16347519D01*
X5234202Y-16337798D01*
X5224481Y-16327073D01*
X5215858Y-16315447D01*
X5208417Y-16303031D01*
X5202228Y-16289946D01*
X5197351Y-16276317D01*
X5193834Y-16262276D01*
X5191710Y-16247958D01*
X5191000Y-16233500D01*
X5191000Y-15888500D01*
X5191710Y-15874042D01*
X5193834Y-15859724D01*
X5197351Y-15845683D01*
X5202228Y-15832054D01*
X5208417Y-15818969D01*
X5215858Y-15806553D01*
X5224481Y-15794927D01*
X5234202Y-15784202D01*
X5244927Y-15774481D01*
X5256553Y-15765858D01*
X5268969Y-15758417D01*
X5282054Y-15752228D01*
X5295683Y-15747351D01*
X5309724Y-15743834D01*
X5324042Y-15741710D01*
X5338500Y-15741000D01*
X5633500Y-15741000D01*
X5647958Y-15741710D01*
X5647958Y-15741710D01*
G37*
D11*
X5486000Y-16061000D03*
G04 #@! TD*
D10*
G04 #@! TO.C,R7*
G36*
X4667958Y-14651710D02*
X4682276Y-14653834D01*
X4696317Y-14657351D01*
X4709946Y-14662228D01*
X4723031Y-14668417D01*
X4735447Y-14675858D01*
X4747073Y-14684481D01*
X4757798Y-14694202D01*
X4767519Y-14704927D01*
X4776142Y-14716553D01*
X4783583Y-14728969D01*
X4789772Y-14742054D01*
X4794649Y-14755683D01*
X4798166Y-14769724D01*
X4800290Y-14784042D01*
X4801000Y-14798500D01*
X4801000Y-15143500D01*
X4800290Y-15157958D01*
X4798166Y-15172276D01*
X4794649Y-15186317D01*
X4789772Y-15199946D01*
X4783583Y-15213031D01*
X4776142Y-15225447D01*
X4767519Y-15237073D01*
X4757798Y-15247798D01*
X4747073Y-15257519D01*
X4735447Y-15266142D01*
X4723031Y-15273583D01*
X4709946Y-15279772D01*
X4696317Y-15284649D01*
X4682276Y-15288166D01*
X4667958Y-15290290D01*
X4653500Y-15291000D01*
X4358500Y-15291000D01*
X4344042Y-15290290D01*
X4329724Y-15288166D01*
X4315683Y-15284649D01*
X4302054Y-15279772D01*
X4288969Y-15273583D01*
X4276553Y-15266142D01*
X4264927Y-15257519D01*
X4254202Y-15247798D01*
X4244481Y-15237073D01*
X4235858Y-15225447D01*
X4228417Y-15213031D01*
X4222228Y-15199946D01*
X4217351Y-15186317D01*
X4213834Y-15172276D01*
X4211710Y-15157958D01*
X4211000Y-15143500D01*
X4211000Y-14798500D01*
X4211710Y-14784042D01*
X4213834Y-14769724D01*
X4217351Y-14755683D01*
X4222228Y-14742054D01*
X4228417Y-14728969D01*
X4235858Y-14716553D01*
X4244481Y-14704927D01*
X4254202Y-14694202D01*
X4264927Y-14684481D01*
X4276553Y-14675858D01*
X4288969Y-14668417D01*
X4302054Y-14662228D01*
X4315683Y-14657351D01*
X4329724Y-14653834D01*
X4344042Y-14651710D01*
X4358500Y-14651000D01*
X4653500Y-14651000D01*
X4667958Y-14651710D01*
X4667958Y-14651710D01*
G37*
D11*
X4506000Y-14971000D03*
D10*
G36*
X5637958Y-14651710D02*
X5652276Y-14653834D01*
X5666317Y-14657351D01*
X5679946Y-14662228D01*
X5693031Y-14668417D01*
X5705447Y-14675858D01*
X5717073Y-14684481D01*
X5727798Y-14694202D01*
X5737519Y-14704927D01*
X5746142Y-14716553D01*
X5753583Y-14728969D01*
X5759772Y-14742054D01*
X5764649Y-14755683D01*
X5768166Y-14769724D01*
X5770290Y-14784042D01*
X5771000Y-14798500D01*
X5771000Y-15143500D01*
X5770290Y-15157958D01*
X5768166Y-15172276D01*
X5764649Y-15186317D01*
X5759772Y-15199946D01*
X5753583Y-15213031D01*
X5746142Y-15225447D01*
X5737519Y-15237073D01*
X5727798Y-15247798D01*
X5717073Y-15257519D01*
X5705447Y-15266142D01*
X5693031Y-15273583D01*
X5679946Y-15279772D01*
X5666317Y-15284649D01*
X5652276Y-15288166D01*
X5637958Y-15290290D01*
X5623500Y-15291000D01*
X5328500Y-15291000D01*
X5314042Y-15290290D01*
X5299724Y-15288166D01*
X5285683Y-15284649D01*
X5272054Y-15279772D01*
X5258969Y-15273583D01*
X5246553Y-15266142D01*
X5234927Y-15257519D01*
X5224202Y-15247798D01*
X5214481Y-15237073D01*
X5205858Y-15225447D01*
X5198417Y-15213031D01*
X5192228Y-15199946D01*
X5187351Y-15186317D01*
X5183834Y-15172276D01*
X5181710Y-15157958D01*
X5181000Y-15143500D01*
X5181000Y-14798500D01*
X5181710Y-14784042D01*
X5183834Y-14769724D01*
X5187351Y-14755683D01*
X5192228Y-14742054D01*
X5198417Y-14728969D01*
X5205858Y-14716553D01*
X5214481Y-14704927D01*
X5224202Y-14694202D01*
X5234927Y-14684481D01*
X5246553Y-14675858D01*
X5258969Y-14668417D01*
X5272054Y-14662228D01*
X5285683Y-14657351D01*
X5299724Y-14653834D01*
X5314042Y-14651710D01*
X5328500Y-14651000D01*
X5623500Y-14651000D01*
X5637958Y-14651710D01*
X5637958Y-14651710D01*
G37*
D11*
X5476000Y-14971000D03*
G04 #@! TD*
D10*
G04 #@! TO.C,R5*
G36*
X14511958Y-1805710D02*
X14526276Y-1807834D01*
X14540317Y-1811351D01*
X14553946Y-1816228D01*
X14567031Y-1822417D01*
X14579447Y-1829858D01*
X14591073Y-1838481D01*
X14601798Y-1848202D01*
X14611519Y-1858927D01*
X14620142Y-1870553D01*
X14627583Y-1882969D01*
X14633772Y-1896054D01*
X14638649Y-1909683D01*
X14642166Y-1923724D01*
X14644290Y-1938042D01*
X14645000Y-1952500D01*
X14645000Y-2247500D01*
X14644290Y-2261958D01*
X14642166Y-2276276D01*
X14638649Y-2290317D01*
X14633772Y-2303946D01*
X14627583Y-2317031D01*
X14620142Y-2329447D01*
X14611519Y-2341073D01*
X14601798Y-2351798D01*
X14591073Y-2361519D01*
X14579447Y-2370142D01*
X14567031Y-2377583D01*
X14553946Y-2383772D01*
X14540317Y-2388649D01*
X14526276Y-2392166D01*
X14511958Y-2394290D01*
X14497500Y-2395000D01*
X14152500Y-2395000D01*
X14138042Y-2394290D01*
X14123724Y-2392166D01*
X14109683Y-2388649D01*
X14096054Y-2383772D01*
X14082969Y-2377583D01*
X14070553Y-2370142D01*
X14058927Y-2361519D01*
X14048202Y-2351798D01*
X14038481Y-2341073D01*
X14029858Y-2329447D01*
X14022417Y-2317031D01*
X14016228Y-2303946D01*
X14011351Y-2290317D01*
X14007834Y-2276276D01*
X14005710Y-2261958D01*
X14005000Y-2247500D01*
X14005000Y-1952500D01*
X14005710Y-1938042D01*
X14007834Y-1923724D01*
X14011351Y-1909683D01*
X14016228Y-1896054D01*
X14022417Y-1882969D01*
X14029858Y-1870553D01*
X14038481Y-1858927D01*
X14048202Y-1848202D01*
X14058927Y-1838481D01*
X14070553Y-1829858D01*
X14082969Y-1822417D01*
X14096054Y-1816228D01*
X14109683Y-1811351D01*
X14123724Y-1807834D01*
X14138042Y-1805710D01*
X14152500Y-1805000D01*
X14497500Y-1805000D01*
X14511958Y-1805710D01*
X14511958Y-1805710D01*
G37*
D11*
X14325000Y-2100000D03*
D10*
G36*
X14511958Y-2775710D02*
X14526276Y-2777834D01*
X14540317Y-2781351D01*
X14553946Y-2786228D01*
X14567031Y-2792417D01*
X14579447Y-2799858D01*
X14591073Y-2808481D01*
X14601798Y-2818202D01*
X14611519Y-2828927D01*
X14620142Y-2840553D01*
X14627583Y-2852969D01*
X14633772Y-2866054D01*
X14638649Y-2879683D01*
X14642166Y-2893724D01*
X14644290Y-2908042D01*
X14645000Y-2922500D01*
X14645000Y-3217500D01*
X14644290Y-3231958D01*
X14642166Y-3246276D01*
X14638649Y-3260317D01*
X14633772Y-3273946D01*
X14627583Y-3287031D01*
X14620142Y-3299447D01*
X14611519Y-3311073D01*
X14601798Y-3321798D01*
X14591073Y-3331519D01*
X14579447Y-3340142D01*
X14567031Y-3347583D01*
X14553946Y-3353772D01*
X14540317Y-3358649D01*
X14526276Y-3362166D01*
X14511958Y-3364290D01*
X14497500Y-3365000D01*
X14152500Y-3365000D01*
X14138042Y-3364290D01*
X14123724Y-3362166D01*
X14109683Y-3358649D01*
X14096054Y-3353772D01*
X14082969Y-3347583D01*
X14070553Y-3340142D01*
X14058927Y-3331519D01*
X14048202Y-3321798D01*
X14038481Y-3311073D01*
X14029858Y-3299447D01*
X14022417Y-3287031D01*
X14016228Y-3273946D01*
X14011351Y-3260317D01*
X14007834Y-3246276D01*
X14005710Y-3231958D01*
X14005000Y-3217500D01*
X14005000Y-2922500D01*
X14005710Y-2908042D01*
X14007834Y-2893724D01*
X14011351Y-2879683D01*
X14016228Y-2866054D01*
X14022417Y-2852969D01*
X14029858Y-2840553D01*
X14038481Y-2828927D01*
X14048202Y-2818202D01*
X14058927Y-2808481D01*
X14070553Y-2799858D01*
X14082969Y-2792417D01*
X14096054Y-2786228D01*
X14109683Y-2781351D01*
X14123724Y-2777834D01*
X14138042Y-2775710D01*
X14152500Y-2775000D01*
X14497500Y-2775000D01*
X14511958Y-2775710D01*
X14511958Y-2775710D01*
G37*
D11*
X14325000Y-3070000D03*
G04 #@! TD*
D10*
G04 #@! TO.C,R4*
G36*
X13391958Y-17835710D02*
X13406276Y-17837834D01*
X13420317Y-17841351D01*
X13433946Y-17846228D01*
X13447031Y-17852417D01*
X13459447Y-17859858D01*
X13471073Y-17868481D01*
X13481798Y-17878202D01*
X13491519Y-17888927D01*
X13500142Y-17900553D01*
X13507583Y-17912969D01*
X13513772Y-17926054D01*
X13518649Y-17939683D01*
X13522166Y-17953724D01*
X13524290Y-17968042D01*
X13525000Y-17982500D01*
X13525000Y-18277500D01*
X13524290Y-18291958D01*
X13522166Y-18306276D01*
X13518649Y-18320317D01*
X13513772Y-18333946D01*
X13507583Y-18347031D01*
X13500142Y-18359447D01*
X13491519Y-18371073D01*
X13481798Y-18381798D01*
X13471073Y-18391519D01*
X13459447Y-18400142D01*
X13447031Y-18407583D01*
X13433946Y-18413772D01*
X13420317Y-18418649D01*
X13406276Y-18422166D01*
X13391958Y-18424290D01*
X13377500Y-18425000D01*
X13032500Y-18425000D01*
X13018042Y-18424290D01*
X13003724Y-18422166D01*
X12989683Y-18418649D01*
X12976054Y-18413772D01*
X12962969Y-18407583D01*
X12950553Y-18400142D01*
X12938927Y-18391519D01*
X12928202Y-18381798D01*
X12918481Y-18371073D01*
X12909858Y-18359447D01*
X12902417Y-18347031D01*
X12896228Y-18333946D01*
X12891351Y-18320317D01*
X12887834Y-18306276D01*
X12885710Y-18291958D01*
X12885000Y-18277500D01*
X12885000Y-17982500D01*
X12885710Y-17968042D01*
X12887834Y-17953724D01*
X12891351Y-17939683D01*
X12896228Y-17926054D01*
X12902417Y-17912969D01*
X12909858Y-17900553D01*
X12918481Y-17888927D01*
X12928202Y-17878202D01*
X12938927Y-17868481D01*
X12950553Y-17859858D01*
X12962969Y-17852417D01*
X12976054Y-17846228D01*
X12989683Y-17841351D01*
X13003724Y-17837834D01*
X13018042Y-17835710D01*
X13032500Y-17835000D01*
X13377500Y-17835000D01*
X13391958Y-17835710D01*
X13391958Y-17835710D01*
G37*
D11*
X13205000Y-18130000D03*
D10*
G36*
X13391958Y-18805710D02*
X13406276Y-18807834D01*
X13420317Y-18811351D01*
X13433946Y-18816228D01*
X13447031Y-18822417D01*
X13459447Y-18829858D01*
X13471073Y-18838481D01*
X13481798Y-18848202D01*
X13491519Y-18858927D01*
X13500142Y-18870553D01*
X13507583Y-18882969D01*
X13513772Y-18896054D01*
X13518649Y-18909683D01*
X13522166Y-18923724D01*
X13524290Y-18938042D01*
X13525000Y-18952500D01*
X13525000Y-19247500D01*
X13524290Y-19261958D01*
X13522166Y-19276276D01*
X13518649Y-19290317D01*
X13513772Y-19303946D01*
X13507583Y-19317031D01*
X13500142Y-19329447D01*
X13491519Y-19341073D01*
X13481798Y-19351798D01*
X13471073Y-19361519D01*
X13459447Y-19370142D01*
X13447031Y-19377583D01*
X13433946Y-19383772D01*
X13420317Y-19388649D01*
X13406276Y-19392166D01*
X13391958Y-19394290D01*
X13377500Y-19395000D01*
X13032500Y-19395000D01*
X13018042Y-19394290D01*
X13003724Y-19392166D01*
X12989683Y-19388649D01*
X12976054Y-19383772D01*
X12962969Y-19377583D01*
X12950553Y-19370142D01*
X12938927Y-19361519D01*
X12928202Y-19351798D01*
X12918481Y-19341073D01*
X12909858Y-19329447D01*
X12902417Y-19317031D01*
X12896228Y-19303946D01*
X12891351Y-19290317D01*
X12887834Y-19276276D01*
X12885710Y-19261958D01*
X12885000Y-19247500D01*
X12885000Y-18952500D01*
X12885710Y-18938042D01*
X12887834Y-18923724D01*
X12891351Y-18909683D01*
X12896228Y-18896054D01*
X12902417Y-18882969D01*
X12909858Y-18870553D01*
X12918481Y-18858927D01*
X12928202Y-18848202D01*
X12938927Y-18838481D01*
X12950553Y-18829858D01*
X12962969Y-18822417D01*
X12976054Y-18816228D01*
X12989683Y-18811351D01*
X13003724Y-18807834D01*
X13018042Y-18805710D01*
X13032500Y-18805000D01*
X13377500Y-18805000D01*
X13391958Y-18805710D01*
X13391958Y-18805710D01*
G37*
D11*
X13205000Y-19100000D03*
G04 #@! TD*
D10*
G04 #@! TO.C,R3*
G36*
X19431958Y-8855710D02*
X19446276Y-8857834D01*
X19460317Y-8861351D01*
X19473946Y-8866228D01*
X19487031Y-8872417D01*
X19499447Y-8879858D01*
X19511073Y-8888481D01*
X19521798Y-8898202D01*
X19531519Y-8908927D01*
X19540142Y-8920553D01*
X19547583Y-8932969D01*
X19553772Y-8946054D01*
X19558649Y-8959683D01*
X19562166Y-8973724D01*
X19564290Y-8988042D01*
X19565000Y-9002500D01*
X19565000Y-9297500D01*
X19564290Y-9311958D01*
X19562166Y-9326276D01*
X19558649Y-9340317D01*
X19553772Y-9353946D01*
X19547583Y-9367031D01*
X19540142Y-9379447D01*
X19531519Y-9391073D01*
X19521798Y-9401798D01*
X19511073Y-9411519D01*
X19499447Y-9420142D01*
X19487031Y-9427583D01*
X19473946Y-9433772D01*
X19460317Y-9438649D01*
X19446276Y-9442166D01*
X19431958Y-9444290D01*
X19417500Y-9445000D01*
X19072500Y-9445000D01*
X19058042Y-9444290D01*
X19043724Y-9442166D01*
X19029683Y-9438649D01*
X19016054Y-9433772D01*
X19002969Y-9427583D01*
X18990553Y-9420142D01*
X18978927Y-9411519D01*
X18968202Y-9401798D01*
X18958481Y-9391073D01*
X18949858Y-9379447D01*
X18942417Y-9367031D01*
X18936228Y-9353946D01*
X18931351Y-9340317D01*
X18927834Y-9326276D01*
X18925710Y-9311958D01*
X18925000Y-9297500D01*
X18925000Y-9002500D01*
X18925710Y-8988042D01*
X18927834Y-8973724D01*
X18931351Y-8959683D01*
X18936228Y-8946054D01*
X18942417Y-8932969D01*
X18949858Y-8920553D01*
X18958481Y-8908927D01*
X18968202Y-8898202D01*
X18978927Y-8888481D01*
X18990553Y-8879858D01*
X19002969Y-8872417D01*
X19016054Y-8866228D01*
X19029683Y-8861351D01*
X19043724Y-8857834D01*
X19058042Y-8855710D01*
X19072500Y-8855000D01*
X19417500Y-8855000D01*
X19431958Y-8855710D01*
X19431958Y-8855710D01*
G37*
D11*
X19245000Y-9150000D03*
D10*
G36*
X19431958Y-9825710D02*
X19446276Y-9827834D01*
X19460317Y-9831351D01*
X19473946Y-9836228D01*
X19487031Y-9842417D01*
X19499447Y-9849858D01*
X19511073Y-9858481D01*
X19521798Y-9868202D01*
X19531519Y-9878927D01*
X19540142Y-9890553D01*
X19547583Y-9902969D01*
X19553772Y-9916054D01*
X19558649Y-9929683D01*
X19562166Y-9943724D01*
X19564290Y-9958042D01*
X19565000Y-9972500D01*
X19565000Y-10267500D01*
X19564290Y-10281958D01*
X19562166Y-10296276D01*
X19558649Y-10310317D01*
X19553772Y-10323946D01*
X19547583Y-10337031D01*
X19540142Y-10349447D01*
X19531519Y-10361073D01*
X19521798Y-10371798D01*
X19511073Y-10381519D01*
X19499447Y-10390142D01*
X19487031Y-10397583D01*
X19473946Y-10403772D01*
X19460317Y-10408649D01*
X19446276Y-10412166D01*
X19431958Y-10414290D01*
X19417500Y-10415000D01*
X19072500Y-10415000D01*
X19058042Y-10414290D01*
X19043724Y-10412166D01*
X19029683Y-10408649D01*
X19016054Y-10403772D01*
X19002969Y-10397583D01*
X18990553Y-10390142D01*
X18978927Y-10381519D01*
X18968202Y-10371798D01*
X18958481Y-10361073D01*
X18949858Y-10349447D01*
X18942417Y-10337031D01*
X18936228Y-10323946D01*
X18931351Y-10310317D01*
X18927834Y-10296276D01*
X18925710Y-10281958D01*
X18925000Y-10267500D01*
X18925000Y-9972500D01*
X18925710Y-9958042D01*
X18927834Y-9943724D01*
X18931351Y-9929683D01*
X18936228Y-9916054D01*
X18942417Y-9902969D01*
X18949858Y-9890553D01*
X18958481Y-9878927D01*
X18968202Y-9868202D01*
X18978927Y-9858481D01*
X18990553Y-9849858D01*
X19002969Y-9842417D01*
X19016054Y-9836228D01*
X19029683Y-9831351D01*
X19043724Y-9827834D01*
X19058042Y-9825710D01*
X19072500Y-9825000D01*
X19417500Y-9825000D01*
X19431958Y-9825710D01*
X19431958Y-9825710D01*
G37*
D11*
X19245000Y-10120000D03*
G04 #@! TD*
D10*
G04 #@! TO.C,R2*
G36*
X16721958Y-17590710D02*
X16736276Y-17592834D01*
X16750317Y-17596351D01*
X16763946Y-17601228D01*
X16777031Y-17607417D01*
X16789447Y-17614858D01*
X16801073Y-17623481D01*
X16811798Y-17633202D01*
X16821519Y-17643927D01*
X16830142Y-17655553D01*
X16837583Y-17667969D01*
X16843772Y-17681054D01*
X16848649Y-17694683D01*
X16852166Y-17708724D01*
X16854290Y-17723042D01*
X16855000Y-17737500D01*
X16855000Y-18032500D01*
X16854290Y-18046958D01*
X16852166Y-18061276D01*
X16848649Y-18075317D01*
X16843772Y-18088946D01*
X16837583Y-18102031D01*
X16830142Y-18114447D01*
X16821519Y-18126073D01*
X16811798Y-18136798D01*
X16801073Y-18146519D01*
X16789447Y-18155142D01*
X16777031Y-18162583D01*
X16763946Y-18168772D01*
X16750317Y-18173649D01*
X16736276Y-18177166D01*
X16721958Y-18179290D01*
X16707500Y-18180000D01*
X16362500Y-18180000D01*
X16348042Y-18179290D01*
X16333724Y-18177166D01*
X16319683Y-18173649D01*
X16306054Y-18168772D01*
X16292969Y-18162583D01*
X16280553Y-18155142D01*
X16268927Y-18146519D01*
X16258202Y-18136798D01*
X16248481Y-18126073D01*
X16239858Y-18114447D01*
X16232417Y-18102031D01*
X16226228Y-18088946D01*
X16221351Y-18075317D01*
X16217834Y-18061276D01*
X16215710Y-18046958D01*
X16215000Y-18032500D01*
X16215000Y-17737500D01*
X16215710Y-17723042D01*
X16217834Y-17708724D01*
X16221351Y-17694683D01*
X16226228Y-17681054D01*
X16232417Y-17667969D01*
X16239858Y-17655553D01*
X16248481Y-17643927D01*
X16258202Y-17633202D01*
X16268927Y-17623481D01*
X16280553Y-17614858D01*
X16292969Y-17607417D01*
X16306054Y-17601228D01*
X16319683Y-17596351D01*
X16333724Y-17592834D01*
X16348042Y-17590710D01*
X16362500Y-17590000D01*
X16707500Y-17590000D01*
X16721958Y-17590710D01*
X16721958Y-17590710D01*
G37*
D11*
X16535000Y-17885000D03*
D10*
G36*
X16721958Y-16620710D02*
X16736276Y-16622834D01*
X16750317Y-16626351D01*
X16763946Y-16631228D01*
X16777031Y-16637417D01*
X16789447Y-16644858D01*
X16801073Y-16653481D01*
X16811798Y-16663202D01*
X16821519Y-16673927D01*
X16830142Y-16685553D01*
X16837583Y-16697969D01*
X16843772Y-16711054D01*
X16848649Y-16724683D01*
X16852166Y-16738724D01*
X16854290Y-16753042D01*
X16855000Y-16767500D01*
X16855000Y-17062500D01*
X16854290Y-17076958D01*
X16852166Y-17091276D01*
X16848649Y-17105317D01*
X16843772Y-17118946D01*
X16837583Y-17132031D01*
X16830142Y-17144447D01*
X16821519Y-17156073D01*
X16811798Y-17166798D01*
X16801073Y-17176519D01*
X16789447Y-17185142D01*
X16777031Y-17192583D01*
X16763946Y-17198772D01*
X16750317Y-17203649D01*
X16736276Y-17207166D01*
X16721958Y-17209290D01*
X16707500Y-17210000D01*
X16362500Y-17210000D01*
X16348042Y-17209290D01*
X16333724Y-17207166D01*
X16319683Y-17203649D01*
X16306054Y-17198772D01*
X16292969Y-17192583D01*
X16280553Y-17185142D01*
X16268927Y-17176519D01*
X16258202Y-17166798D01*
X16248481Y-17156073D01*
X16239858Y-17144447D01*
X16232417Y-17132031D01*
X16226228Y-17118946D01*
X16221351Y-17105317D01*
X16217834Y-17091276D01*
X16215710Y-17076958D01*
X16215000Y-17062500D01*
X16215000Y-16767500D01*
X16215710Y-16753042D01*
X16217834Y-16738724D01*
X16221351Y-16724683D01*
X16226228Y-16711054D01*
X16232417Y-16697969D01*
X16239858Y-16685553D01*
X16248481Y-16673927D01*
X16258202Y-16663202D01*
X16268927Y-16653481D01*
X16280553Y-16644858D01*
X16292969Y-16637417D01*
X16306054Y-16631228D01*
X16319683Y-16626351D01*
X16333724Y-16622834D01*
X16348042Y-16620710D01*
X16362500Y-16620000D01*
X16707500Y-16620000D01*
X16721958Y-16620710D01*
X16721958Y-16620710D01*
G37*
D11*
X16535000Y-16915000D03*
G04 #@! TD*
D10*
G04 #@! TO.C,R1*
G36*
X18991958Y-12835710D02*
X19006276Y-12837834D01*
X19020317Y-12841351D01*
X19033946Y-12846228D01*
X19047031Y-12852417D01*
X19059447Y-12859858D01*
X19071073Y-12868481D01*
X19081798Y-12878202D01*
X19091519Y-12888927D01*
X19100142Y-12900553D01*
X19107583Y-12912969D01*
X19113772Y-12926054D01*
X19118649Y-12939683D01*
X19122166Y-12953724D01*
X19124290Y-12968042D01*
X19125000Y-12982500D01*
X19125000Y-13277500D01*
X19124290Y-13291958D01*
X19122166Y-13306276D01*
X19118649Y-13320317D01*
X19113772Y-13333946D01*
X19107583Y-13347031D01*
X19100142Y-13359447D01*
X19091519Y-13371073D01*
X19081798Y-13381798D01*
X19071073Y-13391519D01*
X19059447Y-13400142D01*
X19047031Y-13407583D01*
X19033946Y-13413772D01*
X19020317Y-13418649D01*
X19006276Y-13422166D01*
X18991958Y-13424290D01*
X18977500Y-13425000D01*
X18632500Y-13425000D01*
X18618042Y-13424290D01*
X18603724Y-13422166D01*
X18589683Y-13418649D01*
X18576054Y-13413772D01*
X18562969Y-13407583D01*
X18550553Y-13400142D01*
X18538927Y-13391519D01*
X18528202Y-13381798D01*
X18518481Y-13371073D01*
X18509858Y-13359447D01*
X18502417Y-13347031D01*
X18496228Y-13333946D01*
X18491351Y-13320317D01*
X18487834Y-13306276D01*
X18485710Y-13291958D01*
X18485000Y-13277500D01*
X18485000Y-12982500D01*
X18485710Y-12968042D01*
X18487834Y-12953724D01*
X18491351Y-12939683D01*
X18496228Y-12926054D01*
X18502417Y-12912969D01*
X18509858Y-12900553D01*
X18518481Y-12888927D01*
X18528202Y-12878202D01*
X18538927Y-12868481D01*
X18550553Y-12859858D01*
X18562969Y-12852417D01*
X18576054Y-12846228D01*
X18589683Y-12841351D01*
X18603724Y-12837834D01*
X18618042Y-12835710D01*
X18632500Y-12835000D01*
X18977500Y-12835000D01*
X18991958Y-12835710D01*
X18991958Y-12835710D01*
G37*
D11*
X18805000Y-13130000D03*
D10*
G36*
X18991958Y-13805710D02*
X19006276Y-13807834D01*
X19020317Y-13811351D01*
X19033946Y-13816228D01*
X19047031Y-13822417D01*
X19059447Y-13829858D01*
X19071073Y-13838481D01*
X19081798Y-13848202D01*
X19091519Y-13858927D01*
X19100142Y-13870553D01*
X19107583Y-13882969D01*
X19113772Y-13896054D01*
X19118649Y-13909683D01*
X19122166Y-13923724D01*
X19124290Y-13938042D01*
X19125000Y-13952500D01*
X19125000Y-14247500D01*
X19124290Y-14261958D01*
X19122166Y-14276276D01*
X19118649Y-14290317D01*
X19113772Y-14303946D01*
X19107583Y-14317031D01*
X19100142Y-14329447D01*
X19091519Y-14341073D01*
X19081798Y-14351798D01*
X19071073Y-14361519D01*
X19059447Y-14370142D01*
X19047031Y-14377583D01*
X19033946Y-14383772D01*
X19020317Y-14388649D01*
X19006276Y-14392166D01*
X18991958Y-14394290D01*
X18977500Y-14395000D01*
X18632500Y-14395000D01*
X18618042Y-14394290D01*
X18603724Y-14392166D01*
X18589683Y-14388649D01*
X18576054Y-14383772D01*
X18562969Y-14377583D01*
X18550553Y-14370142D01*
X18538927Y-14361519D01*
X18528202Y-14351798D01*
X18518481Y-14341073D01*
X18509858Y-14329447D01*
X18502417Y-14317031D01*
X18496228Y-14303946D01*
X18491351Y-14290317D01*
X18487834Y-14276276D01*
X18485710Y-14261958D01*
X18485000Y-14247500D01*
X18485000Y-13952500D01*
X18485710Y-13938042D01*
X18487834Y-13923724D01*
X18491351Y-13909683D01*
X18496228Y-13896054D01*
X18502417Y-13882969D01*
X18509858Y-13870553D01*
X18518481Y-13858927D01*
X18528202Y-13848202D01*
X18538927Y-13838481D01*
X18550553Y-13829858D01*
X18562969Y-13822417D01*
X18576054Y-13816228D01*
X18589683Y-13811351D01*
X18603724Y-13807834D01*
X18618042Y-13805710D01*
X18632500Y-13805000D01*
X18977500Y-13805000D01*
X18991958Y-13805710D01*
X18991958Y-13805710D01*
G37*
D11*
X18805000Y-14100000D03*
G04 #@! TD*
D10*
G04 #@! TO.C,C15*
G36*
X6498958Y-10009710D02*
X6513276Y-10011834D01*
X6527317Y-10015351D01*
X6540946Y-10020228D01*
X6554031Y-10026417D01*
X6566447Y-10033858D01*
X6578073Y-10042481D01*
X6588798Y-10052202D01*
X6598519Y-10062927D01*
X6607142Y-10074553D01*
X6614583Y-10086969D01*
X6620772Y-10100054D01*
X6625649Y-10113683D01*
X6629166Y-10127724D01*
X6631290Y-10142042D01*
X6632000Y-10156500D01*
X6632000Y-10501500D01*
X6631290Y-10515958D01*
X6629166Y-10530276D01*
X6625649Y-10544317D01*
X6620772Y-10557946D01*
X6614583Y-10571031D01*
X6607142Y-10583447D01*
X6598519Y-10595073D01*
X6588798Y-10605798D01*
X6578073Y-10615519D01*
X6566447Y-10624142D01*
X6554031Y-10631583D01*
X6540946Y-10637772D01*
X6527317Y-10642649D01*
X6513276Y-10646166D01*
X6498958Y-10648290D01*
X6484500Y-10649000D01*
X6189500Y-10649000D01*
X6175042Y-10648290D01*
X6160724Y-10646166D01*
X6146683Y-10642649D01*
X6133054Y-10637772D01*
X6119969Y-10631583D01*
X6107553Y-10624142D01*
X6095927Y-10615519D01*
X6085202Y-10605798D01*
X6075481Y-10595073D01*
X6066858Y-10583447D01*
X6059417Y-10571031D01*
X6053228Y-10557946D01*
X6048351Y-10544317D01*
X6044834Y-10530276D01*
X6042710Y-10515958D01*
X6042000Y-10501500D01*
X6042000Y-10156500D01*
X6042710Y-10142042D01*
X6044834Y-10127724D01*
X6048351Y-10113683D01*
X6053228Y-10100054D01*
X6059417Y-10086969D01*
X6066858Y-10074553D01*
X6075481Y-10062927D01*
X6085202Y-10052202D01*
X6095927Y-10042481D01*
X6107553Y-10033858D01*
X6119969Y-10026417D01*
X6133054Y-10020228D01*
X6146683Y-10015351D01*
X6160724Y-10011834D01*
X6175042Y-10009710D01*
X6189500Y-10009000D01*
X6484500Y-10009000D01*
X6498958Y-10009710D01*
X6498958Y-10009710D01*
G37*
D11*
X6337000Y-10329000D03*
D10*
G36*
X5528958Y-10009710D02*
X5543276Y-10011834D01*
X5557317Y-10015351D01*
X5570946Y-10020228D01*
X5584031Y-10026417D01*
X5596447Y-10033858D01*
X5608073Y-10042481D01*
X5618798Y-10052202D01*
X5628519Y-10062927D01*
X5637142Y-10074553D01*
X5644583Y-10086969D01*
X5650772Y-10100054D01*
X5655649Y-10113683D01*
X5659166Y-10127724D01*
X5661290Y-10142042D01*
X5662000Y-10156500D01*
X5662000Y-10501500D01*
X5661290Y-10515958D01*
X5659166Y-10530276D01*
X5655649Y-10544317D01*
X5650772Y-10557946D01*
X5644583Y-10571031D01*
X5637142Y-10583447D01*
X5628519Y-10595073D01*
X5618798Y-10605798D01*
X5608073Y-10615519D01*
X5596447Y-10624142D01*
X5584031Y-10631583D01*
X5570946Y-10637772D01*
X5557317Y-10642649D01*
X5543276Y-10646166D01*
X5528958Y-10648290D01*
X5514500Y-10649000D01*
X5219500Y-10649000D01*
X5205042Y-10648290D01*
X5190724Y-10646166D01*
X5176683Y-10642649D01*
X5163054Y-10637772D01*
X5149969Y-10631583D01*
X5137553Y-10624142D01*
X5125927Y-10615519D01*
X5115202Y-10605798D01*
X5105481Y-10595073D01*
X5096858Y-10583447D01*
X5089417Y-10571031D01*
X5083228Y-10557946D01*
X5078351Y-10544317D01*
X5074834Y-10530276D01*
X5072710Y-10515958D01*
X5072000Y-10501500D01*
X5072000Y-10156500D01*
X5072710Y-10142042D01*
X5074834Y-10127724D01*
X5078351Y-10113683D01*
X5083228Y-10100054D01*
X5089417Y-10086969D01*
X5096858Y-10074553D01*
X5105481Y-10062927D01*
X5115202Y-10052202D01*
X5125927Y-10042481D01*
X5137553Y-10033858D01*
X5149969Y-10026417D01*
X5163054Y-10020228D01*
X5176683Y-10015351D01*
X5190724Y-10011834D01*
X5205042Y-10009710D01*
X5219500Y-10009000D01*
X5514500Y-10009000D01*
X5528958Y-10009710D01*
X5528958Y-10009710D01*
G37*
D11*
X5367000Y-10329000D03*
G04 #@! TD*
D10*
G04 #@! TO.C,C9*
G36*
X7563958Y-10956710D02*
X7578276Y-10958834D01*
X7592317Y-10962351D01*
X7605946Y-10967228D01*
X7619031Y-10973417D01*
X7631447Y-10980858D01*
X7643073Y-10989481D01*
X7653798Y-10999202D01*
X7663519Y-11009927D01*
X7672142Y-11021553D01*
X7679583Y-11033969D01*
X7685772Y-11047054D01*
X7690649Y-11060683D01*
X7694166Y-11074724D01*
X7696290Y-11089042D01*
X7697000Y-11103500D01*
X7697000Y-11398500D01*
X7696290Y-11412958D01*
X7694166Y-11427276D01*
X7690649Y-11441317D01*
X7685772Y-11454946D01*
X7679583Y-11468031D01*
X7672142Y-11480447D01*
X7663519Y-11492073D01*
X7653798Y-11502798D01*
X7643073Y-11512519D01*
X7631447Y-11521142D01*
X7619031Y-11528583D01*
X7605946Y-11534772D01*
X7592317Y-11539649D01*
X7578276Y-11543166D01*
X7563958Y-11545290D01*
X7549500Y-11546000D01*
X7204500Y-11546000D01*
X7190042Y-11545290D01*
X7175724Y-11543166D01*
X7161683Y-11539649D01*
X7148054Y-11534772D01*
X7134969Y-11528583D01*
X7122553Y-11521142D01*
X7110927Y-11512519D01*
X7100202Y-11502798D01*
X7090481Y-11492073D01*
X7081858Y-11480447D01*
X7074417Y-11468031D01*
X7068228Y-11454946D01*
X7063351Y-11441317D01*
X7059834Y-11427276D01*
X7057710Y-11412958D01*
X7057000Y-11398500D01*
X7057000Y-11103500D01*
X7057710Y-11089042D01*
X7059834Y-11074724D01*
X7063351Y-11060683D01*
X7068228Y-11047054D01*
X7074417Y-11033969D01*
X7081858Y-11021553D01*
X7090481Y-11009927D01*
X7100202Y-10999202D01*
X7110927Y-10989481D01*
X7122553Y-10980858D01*
X7134969Y-10973417D01*
X7148054Y-10967228D01*
X7161683Y-10962351D01*
X7175724Y-10958834D01*
X7190042Y-10956710D01*
X7204500Y-10956000D01*
X7549500Y-10956000D01*
X7563958Y-10956710D01*
X7563958Y-10956710D01*
G37*
D11*
X7377000Y-11251000D03*
D10*
G36*
X7563958Y-11926710D02*
X7578276Y-11928834D01*
X7592317Y-11932351D01*
X7605946Y-11937228D01*
X7619031Y-11943417D01*
X7631447Y-11950858D01*
X7643073Y-11959481D01*
X7653798Y-11969202D01*
X7663519Y-11979927D01*
X7672142Y-11991553D01*
X7679583Y-12003969D01*
X7685772Y-12017054D01*
X7690649Y-12030683D01*
X7694166Y-12044724D01*
X7696290Y-12059042D01*
X7697000Y-12073500D01*
X7697000Y-12368500D01*
X7696290Y-12382958D01*
X7694166Y-12397276D01*
X7690649Y-12411317D01*
X7685772Y-12424946D01*
X7679583Y-12438031D01*
X7672142Y-12450447D01*
X7663519Y-12462073D01*
X7653798Y-12472798D01*
X7643073Y-12482519D01*
X7631447Y-12491142D01*
X7619031Y-12498583D01*
X7605946Y-12504772D01*
X7592317Y-12509649D01*
X7578276Y-12513166D01*
X7563958Y-12515290D01*
X7549500Y-12516000D01*
X7204500Y-12516000D01*
X7190042Y-12515290D01*
X7175724Y-12513166D01*
X7161683Y-12509649D01*
X7148054Y-12504772D01*
X7134969Y-12498583D01*
X7122553Y-12491142D01*
X7110927Y-12482519D01*
X7100202Y-12472798D01*
X7090481Y-12462073D01*
X7081858Y-12450447D01*
X7074417Y-12438031D01*
X7068228Y-12424946D01*
X7063351Y-12411317D01*
X7059834Y-12397276D01*
X7057710Y-12382958D01*
X7057000Y-12368500D01*
X7057000Y-12073500D01*
X7057710Y-12059042D01*
X7059834Y-12044724D01*
X7063351Y-12030683D01*
X7068228Y-12017054D01*
X7074417Y-12003969D01*
X7081858Y-11991553D01*
X7090481Y-11979927D01*
X7100202Y-11969202D01*
X7110927Y-11959481D01*
X7122553Y-11950858D01*
X7134969Y-11943417D01*
X7148054Y-11937228D01*
X7161683Y-11932351D01*
X7175724Y-11928834D01*
X7190042Y-11926710D01*
X7204500Y-11926000D01*
X7549500Y-11926000D01*
X7563958Y-11926710D01*
X7563958Y-11926710D01*
G37*
D11*
X7377000Y-12221000D03*
G04 #@! TD*
D10*
G04 #@! TO.C,R22*
G36*
X21426958Y-10930710D02*
X21441276Y-10932834D01*
X21455317Y-10936351D01*
X21468946Y-10941228D01*
X21482031Y-10947417D01*
X21494447Y-10954858D01*
X21506073Y-10963481D01*
X21516798Y-10973202D01*
X21526519Y-10983927D01*
X21535142Y-10995553D01*
X21542583Y-11007969D01*
X21548772Y-11021054D01*
X21553649Y-11034683D01*
X21557166Y-11048724D01*
X21559290Y-11063042D01*
X21560000Y-11077500D01*
X21560000Y-11422500D01*
X21559290Y-11436958D01*
X21557166Y-11451276D01*
X21553649Y-11465317D01*
X21548772Y-11478946D01*
X21542583Y-11492031D01*
X21535142Y-11504447D01*
X21526519Y-11516073D01*
X21516798Y-11526798D01*
X21506073Y-11536519D01*
X21494447Y-11545142D01*
X21482031Y-11552583D01*
X21468946Y-11558772D01*
X21455317Y-11563649D01*
X21441276Y-11567166D01*
X21426958Y-11569290D01*
X21412500Y-11570000D01*
X21117500Y-11570000D01*
X21103042Y-11569290D01*
X21088724Y-11567166D01*
X21074683Y-11563649D01*
X21061054Y-11558772D01*
X21047969Y-11552583D01*
X21035553Y-11545142D01*
X21023927Y-11536519D01*
X21013202Y-11526798D01*
X21003481Y-11516073D01*
X20994858Y-11504447D01*
X20987417Y-11492031D01*
X20981228Y-11478946D01*
X20976351Y-11465317D01*
X20972834Y-11451276D01*
X20970710Y-11436958D01*
X20970000Y-11422500D01*
X20970000Y-11077500D01*
X20970710Y-11063042D01*
X20972834Y-11048724D01*
X20976351Y-11034683D01*
X20981228Y-11021054D01*
X20987417Y-11007969D01*
X20994858Y-10995553D01*
X21003481Y-10983927D01*
X21013202Y-10973202D01*
X21023927Y-10963481D01*
X21035553Y-10954858D01*
X21047969Y-10947417D01*
X21061054Y-10941228D01*
X21074683Y-10936351D01*
X21088724Y-10932834D01*
X21103042Y-10930710D01*
X21117500Y-10930000D01*
X21412500Y-10930000D01*
X21426958Y-10930710D01*
X21426958Y-10930710D01*
G37*
D11*
X21265000Y-11250000D03*
D10*
G36*
X22396958Y-10930710D02*
X22411276Y-10932834D01*
X22425317Y-10936351D01*
X22438946Y-10941228D01*
X22452031Y-10947417D01*
X22464447Y-10954858D01*
X22476073Y-10963481D01*
X22486798Y-10973202D01*
X22496519Y-10983927D01*
X22505142Y-10995553D01*
X22512583Y-11007969D01*
X22518772Y-11021054D01*
X22523649Y-11034683D01*
X22527166Y-11048724D01*
X22529290Y-11063042D01*
X22530000Y-11077500D01*
X22530000Y-11422500D01*
X22529290Y-11436958D01*
X22527166Y-11451276D01*
X22523649Y-11465317D01*
X22518772Y-11478946D01*
X22512583Y-11492031D01*
X22505142Y-11504447D01*
X22496519Y-11516073D01*
X22486798Y-11526798D01*
X22476073Y-11536519D01*
X22464447Y-11545142D01*
X22452031Y-11552583D01*
X22438946Y-11558772D01*
X22425317Y-11563649D01*
X22411276Y-11567166D01*
X22396958Y-11569290D01*
X22382500Y-11570000D01*
X22087500Y-11570000D01*
X22073042Y-11569290D01*
X22058724Y-11567166D01*
X22044683Y-11563649D01*
X22031054Y-11558772D01*
X22017969Y-11552583D01*
X22005553Y-11545142D01*
X21993927Y-11536519D01*
X21983202Y-11526798D01*
X21973481Y-11516073D01*
X21964858Y-11504447D01*
X21957417Y-11492031D01*
X21951228Y-11478946D01*
X21946351Y-11465317D01*
X21942834Y-11451276D01*
X21940710Y-11436958D01*
X21940000Y-11422500D01*
X21940000Y-11077500D01*
X21940710Y-11063042D01*
X21942834Y-11048724D01*
X21946351Y-11034683D01*
X21951228Y-11021054D01*
X21957417Y-11007969D01*
X21964858Y-10995553D01*
X21973481Y-10983927D01*
X21983202Y-10973202D01*
X21993927Y-10963481D01*
X22005553Y-10954858D01*
X22017969Y-10947417D01*
X22031054Y-10941228D01*
X22044683Y-10936351D01*
X22058724Y-10932834D01*
X22073042Y-10930710D01*
X22087500Y-10930000D01*
X22382500Y-10930000D01*
X22396958Y-10930710D01*
X22396958Y-10930710D01*
G37*
D11*
X22235000Y-11250000D03*
G04 #@! TD*
D10*
G04 #@! TO.C,R21*
G36*
X21426958Y-9930710D02*
X21441276Y-9932834D01*
X21455317Y-9936351D01*
X21468946Y-9941228D01*
X21482031Y-9947417D01*
X21494447Y-9954858D01*
X21506073Y-9963481D01*
X21516798Y-9973202D01*
X21526519Y-9983927D01*
X21535142Y-9995553D01*
X21542583Y-10007969D01*
X21548772Y-10021054D01*
X21553649Y-10034683D01*
X21557166Y-10048724D01*
X21559290Y-10063042D01*
X21560000Y-10077500D01*
X21560000Y-10422500D01*
X21559290Y-10436958D01*
X21557166Y-10451276D01*
X21553649Y-10465317D01*
X21548772Y-10478946D01*
X21542583Y-10492031D01*
X21535142Y-10504447D01*
X21526519Y-10516073D01*
X21516798Y-10526798D01*
X21506073Y-10536519D01*
X21494447Y-10545142D01*
X21482031Y-10552583D01*
X21468946Y-10558772D01*
X21455317Y-10563649D01*
X21441276Y-10567166D01*
X21426958Y-10569290D01*
X21412500Y-10570000D01*
X21117500Y-10570000D01*
X21103042Y-10569290D01*
X21088724Y-10567166D01*
X21074683Y-10563649D01*
X21061054Y-10558772D01*
X21047969Y-10552583D01*
X21035553Y-10545142D01*
X21023927Y-10536519D01*
X21013202Y-10526798D01*
X21003481Y-10516073D01*
X20994858Y-10504447D01*
X20987417Y-10492031D01*
X20981228Y-10478946D01*
X20976351Y-10465317D01*
X20972834Y-10451276D01*
X20970710Y-10436958D01*
X20970000Y-10422500D01*
X20970000Y-10077500D01*
X20970710Y-10063042D01*
X20972834Y-10048724D01*
X20976351Y-10034683D01*
X20981228Y-10021054D01*
X20987417Y-10007969D01*
X20994858Y-9995553D01*
X21003481Y-9983927D01*
X21013202Y-9973202D01*
X21023927Y-9963481D01*
X21035553Y-9954858D01*
X21047969Y-9947417D01*
X21061054Y-9941228D01*
X21074683Y-9936351D01*
X21088724Y-9932834D01*
X21103042Y-9930710D01*
X21117500Y-9930000D01*
X21412500Y-9930000D01*
X21426958Y-9930710D01*
X21426958Y-9930710D01*
G37*
D11*
X21265000Y-10250000D03*
D10*
G36*
X22396958Y-9930710D02*
X22411276Y-9932834D01*
X22425317Y-9936351D01*
X22438946Y-9941228D01*
X22452031Y-9947417D01*
X22464447Y-9954858D01*
X22476073Y-9963481D01*
X22486798Y-9973202D01*
X22496519Y-9983927D01*
X22505142Y-9995553D01*
X22512583Y-10007969D01*
X22518772Y-10021054D01*
X22523649Y-10034683D01*
X22527166Y-10048724D01*
X22529290Y-10063042D01*
X22530000Y-10077500D01*
X22530000Y-10422500D01*
X22529290Y-10436958D01*
X22527166Y-10451276D01*
X22523649Y-10465317D01*
X22518772Y-10478946D01*
X22512583Y-10492031D01*
X22505142Y-10504447D01*
X22496519Y-10516073D01*
X22486798Y-10526798D01*
X22476073Y-10536519D01*
X22464447Y-10545142D01*
X22452031Y-10552583D01*
X22438946Y-10558772D01*
X22425317Y-10563649D01*
X22411276Y-10567166D01*
X22396958Y-10569290D01*
X22382500Y-10570000D01*
X22087500Y-10570000D01*
X22073042Y-10569290D01*
X22058724Y-10567166D01*
X22044683Y-10563649D01*
X22031054Y-10558772D01*
X22017969Y-10552583D01*
X22005553Y-10545142D01*
X21993927Y-10536519D01*
X21983202Y-10526798D01*
X21973481Y-10516073D01*
X21964858Y-10504447D01*
X21957417Y-10492031D01*
X21951228Y-10478946D01*
X21946351Y-10465317D01*
X21942834Y-10451276D01*
X21940710Y-10436958D01*
X21940000Y-10422500D01*
X21940000Y-10077500D01*
X21940710Y-10063042D01*
X21942834Y-10048724D01*
X21946351Y-10034683D01*
X21951228Y-10021054D01*
X21957417Y-10007969D01*
X21964858Y-9995553D01*
X21973481Y-9983927D01*
X21983202Y-9973202D01*
X21993927Y-9963481D01*
X22005553Y-9954858D01*
X22017969Y-9947417D01*
X22031054Y-9941228D01*
X22044683Y-9936351D01*
X22058724Y-9932834D01*
X22073042Y-9930710D01*
X22087500Y-9930000D01*
X22382500Y-9930000D01*
X22396958Y-9930710D01*
X22396958Y-9930710D01*
G37*
D11*
X22235000Y-10250000D03*
G04 #@! TD*
D10*
G04 #@! TO.C,R20*
G36*
X21426958Y-8930710D02*
X21441276Y-8932834D01*
X21455317Y-8936351D01*
X21468946Y-8941228D01*
X21482031Y-8947417D01*
X21494447Y-8954858D01*
X21506073Y-8963481D01*
X21516798Y-8973202D01*
X21526519Y-8983927D01*
X21535142Y-8995553D01*
X21542583Y-9007969D01*
X21548772Y-9021054D01*
X21553649Y-9034683D01*
X21557166Y-9048724D01*
X21559290Y-9063042D01*
X21560000Y-9077500D01*
X21560000Y-9422500D01*
X21559290Y-9436958D01*
X21557166Y-9451276D01*
X21553649Y-9465317D01*
X21548772Y-9478946D01*
X21542583Y-9492031D01*
X21535142Y-9504447D01*
X21526519Y-9516073D01*
X21516798Y-9526798D01*
X21506073Y-9536519D01*
X21494447Y-9545142D01*
X21482031Y-9552583D01*
X21468946Y-9558772D01*
X21455317Y-9563649D01*
X21441276Y-9567166D01*
X21426958Y-9569290D01*
X21412500Y-9570000D01*
X21117500Y-9570000D01*
X21103042Y-9569290D01*
X21088724Y-9567166D01*
X21074683Y-9563649D01*
X21061054Y-9558772D01*
X21047969Y-9552583D01*
X21035553Y-9545142D01*
X21023927Y-9536519D01*
X21013202Y-9526798D01*
X21003481Y-9516073D01*
X20994858Y-9504447D01*
X20987417Y-9492031D01*
X20981228Y-9478946D01*
X20976351Y-9465317D01*
X20972834Y-9451276D01*
X20970710Y-9436958D01*
X20970000Y-9422500D01*
X20970000Y-9077500D01*
X20970710Y-9063042D01*
X20972834Y-9048724D01*
X20976351Y-9034683D01*
X20981228Y-9021054D01*
X20987417Y-9007969D01*
X20994858Y-8995553D01*
X21003481Y-8983927D01*
X21013202Y-8973202D01*
X21023927Y-8963481D01*
X21035553Y-8954858D01*
X21047969Y-8947417D01*
X21061054Y-8941228D01*
X21074683Y-8936351D01*
X21088724Y-8932834D01*
X21103042Y-8930710D01*
X21117500Y-8930000D01*
X21412500Y-8930000D01*
X21426958Y-8930710D01*
X21426958Y-8930710D01*
G37*
D11*
X21265000Y-9250000D03*
D10*
G36*
X22396958Y-8930710D02*
X22411276Y-8932834D01*
X22425317Y-8936351D01*
X22438946Y-8941228D01*
X22452031Y-8947417D01*
X22464447Y-8954858D01*
X22476073Y-8963481D01*
X22486798Y-8973202D01*
X22496519Y-8983927D01*
X22505142Y-8995553D01*
X22512583Y-9007969D01*
X22518772Y-9021054D01*
X22523649Y-9034683D01*
X22527166Y-9048724D01*
X22529290Y-9063042D01*
X22530000Y-9077500D01*
X22530000Y-9422500D01*
X22529290Y-9436958D01*
X22527166Y-9451276D01*
X22523649Y-9465317D01*
X22518772Y-9478946D01*
X22512583Y-9492031D01*
X22505142Y-9504447D01*
X22496519Y-9516073D01*
X22486798Y-9526798D01*
X22476073Y-9536519D01*
X22464447Y-9545142D01*
X22452031Y-9552583D01*
X22438946Y-9558772D01*
X22425317Y-9563649D01*
X22411276Y-9567166D01*
X22396958Y-9569290D01*
X22382500Y-9570000D01*
X22087500Y-9570000D01*
X22073042Y-9569290D01*
X22058724Y-9567166D01*
X22044683Y-9563649D01*
X22031054Y-9558772D01*
X22017969Y-9552583D01*
X22005553Y-9545142D01*
X21993927Y-9536519D01*
X21983202Y-9526798D01*
X21973481Y-9516073D01*
X21964858Y-9504447D01*
X21957417Y-9492031D01*
X21951228Y-9478946D01*
X21946351Y-9465317D01*
X21942834Y-9451276D01*
X21940710Y-9436958D01*
X21940000Y-9422500D01*
X21940000Y-9077500D01*
X21940710Y-9063042D01*
X21942834Y-9048724D01*
X21946351Y-9034683D01*
X21951228Y-9021054D01*
X21957417Y-9007969D01*
X21964858Y-8995553D01*
X21973481Y-8983927D01*
X21983202Y-8973202D01*
X21993927Y-8963481D01*
X22005553Y-8954858D01*
X22017969Y-8947417D01*
X22031054Y-8941228D01*
X22044683Y-8936351D01*
X22058724Y-8932834D01*
X22073042Y-8930710D01*
X22087500Y-8930000D01*
X22382500Y-8930000D01*
X22396958Y-8930710D01*
X22396958Y-8930710D01*
G37*
D11*
X22235000Y-9250000D03*
G04 #@! TD*
D10*
G04 #@! TO.C,R19*
G36*
X21426958Y-7930710D02*
X21441276Y-7932834D01*
X21455317Y-7936351D01*
X21468946Y-7941228D01*
X21482031Y-7947417D01*
X21494447Y-7954858D01*
X21506073Y-7963481D01*
X21516798Y-7973202D01*
X21526519Y-7983927D01*
X21535142Y-7995553D01*
X21542583Y-8007969D01*
X21548772Y-8021054D01*
X21553649Y-8034683D01*
X21557166Y-8048724D01*
X21559290Y-8063042D01*
X21560000Y-8077500D01*
X21560000Y-8422500D01*
X21559290Y-8436958D01*
X21557166Y-8451276D01*
X21553649Y-8465317D01*
X21548772Y-8478946D01*
X21542583Y-8492031D01*
X21535142Y-8504447D01*
X21526519Y-8516073D01*
X21516798Y-8526798D01*
X21506073Y-8536519D01*
X21494447Y-8545142D01*
X21482031Y-8552583D01*
X21468946Y-8558772D01*
X21455317Y-8563649D01*
X21441276Y-8567166D01*
X21426958Y-8569290D01*
X21412500Y-8570000D01*
X21117500Y-8570000D01*
X21103042Y-8569290D01*
X21088724Y-8567166D01*
X21074683Y-8563649D01*
X21061054Y-8558772D01*
X21047969Y-8552583D01*
X21035553Y-8545142D01*
X21023927Y-8536519D01*
X21013202Y-8526798D01*
X21003481Y-8516073D01*
X20994858Y-8504447D01*
X20987417Y-8492031D01*
X20981228Y-8478946D01*
X20976351Y-8465317D01*
X20972834Y-8451276D01*
X20970710Y-8436958D01*
X20970000Y-8422500D01*
X20970000Y-8077500D01*
X20970710Y-8063042D01*
X20972834Y-8048724D01*
X20976351Y-8034683D01*
X20981228Y-8021054D01*
X20987417Y-8007969D01*
X20994858Y-7995553D01*
X21003481Y-7983927D01*
X21013202Y-7973202D01*
X21023927Y-7963481D01*
X21035553Y-7954858D01*
X21047969Y-7947417D01*
X21061054Y-7941228D01*
X21074683Y-7936351D01*
X21088724Y-7932834D01*
X21103042Y-7930710D01*
X21117500Y-7930000D01*
X21412500Y-7930000D01*
X21426958Y-7930710D01*
X21426958Y-7930710D01*
G37*
D11*
X21265000Y-8250000D03*
D10*
G36*
X22396958Y-7930710D02*
X22411276Y-7932834D01*
X22425317Y-7936351D01*
X22438946Y-7941228D01*
X22452031Y-7947417D01*
X22464447Y-7954858D01*
X22476073Y-7963481D01*
X22486798Y-7973202D01*
X22496519Y-7983927D01*
X22505142Y-7995553D01*
X22512583Y-8007969D01*
X22518772Y-8021054D01*
X22523649Y-8034683D01*
X22527166Y-8048724D01*
X22529290Y-8063042D01*
X22530000Y-8077500D01*
X22530000Y-8422500D01*
X22529290Y-8436958D01*
X22527166Y-8451276D01*
X22523649Y-8465317D01*
X22518772Y-8478946D01*
X22512583Y-8492031D01*
X22505142Y-8504447D01*
X22496519Y-8516073D01*
X22486798Y-8526798D01*
X22476073Y-8536519D01*
X22464447Y-8545142D01*
X22452031Y-8552583D01*
X22438946Y-8558772D01*
X22425317Y-8563649D01*
X22411276Y-8567166D01*
X22396958Y-8569290D01*
X22382500Y-8570000D01*
X22087500Y-8570000D01*
X22073042Y-8569290D01*
X22058724Y-8567166D01*
X22044683Y-8563649D01*
X22031054Y-8558772D01*
X22017969Y-8552583D01*
X22005553Y-8545142D01*
X21993927Y-8536519D01*
X21983202Y-8526798D01*
X21973481Y-8516073D01*
X21964858Y-8504447D01*
X21957417Y-8492031D01*
X21951228Y-8478946D01*
X21946351Y-8465317D01*
X21942834Y-8451276D01*
X21940710Y-8436958D01*
X21940000Y-8422500D01*
X21940000Y-8077500D01*
X21940710Y-8063042D01*
X21942834Y-8048724D01*
X21946351Y-8034683D01*
X21951228Y-8021054D01*
X21957417Y-8007969D01*
X21964858Y-7995553D01*
X21973481Y-7983927D01*
X21983202Y-7973202D01*
X21993927Y-7963481D01*
X22005553Y-7954858D01*
X22017969Y-7947417D01*
X22031054Y-7941228D01*
X22044683Y-7936351D01*
X22058724Y-7932834D01*
X22073042Y-7930710D01*
X22087500Y-7930000D01*
X22382500Y-7930000D01*
X22396958Y-7930710D01*
X22396958Y-7930710D01*
G37*
D11*
X22235000Y-8250000D03*
G04 #@! TD*
D10*
G04 #@! TO.C,R18*
G36*
X21426958Y-6930710D02*
X21441276Y-6932834D01*
X21455317Y-6936351D01*
X21468946Y-6941228D01*
X21482031Y-6947417D01*
X21494447Y-6954858D01*
X21506073Y-6963481D01*
X21516798Y-6973202D01*
X21526519Y-6983927D01*
X21535142Y-6995553D01*
X21542583Y-7007969D01*
X21548772Y-7021054D01*
X21553649Y-7034683D01*
X21557166Y-7048724D01*
X21559290Y-7063042D01*
X21560000Y-7077500D01*
X21560000Y-7422500D01*
X21559290Y-7436958D01*
X21557166Y-7451276D01*
X21553649Y-7465317D01*
X21548772Y-7478946D01*
X21542583Y-7492031D01*
X21535142Y-7504447D01*
X21526519Y-7516073D01*
X21516798Y-7526798D01*
X21506073Y-7536519D01*
X21494447Y-7545142D01*
X21482031Y-7552583D01*
X21468946Y-7558772D01*
X21455317Y-7563649D01*
X21441276Y-7567166D01*
X21426958Y-7569290D01*
X21412500Y-7570000D01*
X21117500Y-7570000D01*
X21103042Y-7569290D01*
X21088724Y-7567166D01*
X21074683Y-7563649D01*
X21061054Y-7558772D01*
X21047969Y-7552583D01*
X21035553Y-7545142D01*
X21023927Y-7536519D01*
X21013202Y-7526798D01*
X21003481Y-7516073D01*
X20994858Y-7504447D01*
X20987417Y-7492031D01*
X20981228Y-7478946D01*
X20976351Y-7465317D01*
X20972834Y-7451276D01*
X20970710Y-7436958D01*
X20970000Y-7422500D01*
X20970000Y-7077500D01*
X20970710Y-7063042D01*
X20972834Y-7048724D01*
X20976351Y-7034683D01*
X20981228Y-7021054D01*
X20987417Y-7007969D01*
X20994858Y-6995553D01*
X21003481Y-6983927D01*
X21013202Y-6973202D01*
X21023927Y-6963481D01*
X21035553Y-6954858D01*
X21047969Y-6947417D01*
X21061054Y-6941228D01*
X21074683Y-6936351D01*
X21088724Y-6932834D01*
X21103042Y-6930710D01*
X21117500Y-6930000D01*
X21412500Y-6930000D01*
X21426958Y-6930710D01*
X21426958Y-6930710D01*
G37*
D11*
X21265000Y-7250000D03*
D10*
G36*
X22396958Y-6930710D02*
X22411276Y-6932834D01*
X22425317Y-6936351D01*
X22438946Y-6941228D01*
X22452031Y-6947417D01*
X22464447Y-6954858D01*
X22476073Y-6963481D01*
X22486798Y-6973202D01*
X22496519Y-6983927D01*
X22505142Y-6995553D01*
X22512583Y-7007969D01*
X22518772Y-7021054D01*
X22523649Y-7034683D01*
X22527166Y-7048724D01*
X22529290Y-7063042D01*
X22530000Y-7077500D01*
X22530000Y-7422500D01*
X22529290Y-7436958D01*
X22527166Y-7451276D01*
X22523649Y-7465317D01*
X22518772Y-7478946D01*
X22512583Y-7492031D01*
X22505142Y-7504447D01*
X22496519Y-7516073D01*
X22486798Y-7526798D01*
X22476073Y-7536519D01*
X22464447Y-7545142D01*
X22452031Y-7552583D01*
X22438946Y-7558772D01*
X22425317Y-7563649D01*
X22411276Y-7567166D01*
X22396958Y-7569290D01*
X22382500Y-7570000D01*
X22087500Y-7570000D01*
X22073042Y-7569290D01*
X22058724Y-7567166D01*
X22044683Y-7563649D01*
X22031054Y-7558772D01*
X22017969Y-7552583D01*
X22005553Y-7545142D01*
X21993927Y-7536519D01*
X21983202Y-7526798D01*
X21973481Y-7516073D01*
X21964858Y-7504447D01*
X21957417Y-7492031D01*
X21951228Y-7478946D01*
X21946351Y-7465317D01*
X21942834Y-7451276D01*
X21940710Y-7436958D01*
X21940000Y-7422500D01*
X21940000Y-7077500D01*
X21940710Y-7063042D01*
X21942834Y-7048724D01*
X21946351Y-7034683D01*
X21951228Y-7021054D01*
X21957417Y-7007969D01*
X21964858Y-6995553D01*
X21973481Y-6983927D01*
X21983202Y-6973202D01*
X21993927Y-6963481D01*
X22005553Y-6954858D01*
X22017969Y-6947417D01*
X22031054Y-6941228D01*
X22044683Y-6936351D01*
X22058724Y-6932834D01*
X22073042Y-6930710D01*
X22087500Y-6930000D01*
X22382500Y-6930000D01*
X22396958Y-6930710D01*
X22396958Y-6930710D01*
G37*
D11*
X22235000Y-7250000D03*
G04 #@! TD*
D10*
G04 #@! TO.C,R17*
G36*
X21426958Y-5930710D02*
X21441276Y-5932834D01*
X21455317Y-5936351D01*
X21468946Y-5941228D01*
X21482031Y-5947417D01*
X21494447Y-5954858D01*
X21506073Y-5963481D01*
X21516798Y-5973202D01*
X21526519Y-5983927D01*
X21535142Y-5995553D01*
X21542583Y-6007969D01*
X21548772Y-6021054D01*
X21553649Y-6034683D01*
X21557166Y-6048724D01*
X21559290Y-6063042D01*
X21560000Y-6077500D01*
X21560000Y-6422500D01*
X21559290Y-6436958D01*
X21557166Y-6451276D01*
X21553649Y-6465317D01*
X21548772Y-6478946D01*
X21542583Y-6492031D01*
X21535142Y-6504447D01*
X21526519Y-6516073D01*
X21516798Y-6526798D01*
X21506073Y-6536519D01*
X21494447Y-6545142D01*
X21482031Y-6552583D01*
X21468946Y-6558772D01*
X21455317Y-6563649D01*
X21441276Y-6567166D01*
X21426958Y-6569290D01*
X21412500Y-6570000D01*
X21117500Y-6570000D01*
X21103042Y-6569290D01*
X21088724Y-6567166D01*
X21074683Y-6563649D01*
X21061054Y-6558772D01*
X21047969Y-6552583D01*
X21035553Y-6545142D01*
X21023927Y-6536519D01*
X21013202Y-6526798D01*
X21003481Y-6516073D01*
X20994858Y-6504447D01*
X20987417Y-6492031D01*
X20981228Y-6478946D01*
X20976351Y-6465317D01*
X20972834Y-6451276D01*
X20970710Y-6436958D01*
X20970000Y-6422500D01*
X20970000Y-6077500D01*
X20970710Y-6063042D01*
X20972834Y-6048724D01*
X20976351Y-6034683D01*
X20981228Y-6021054D01*
X20987417Y-6007969D01*
X20994858Y-5995553D01*
X21003481Y-5983927D01*
X21013202Y-5973202D01*
X21023927Y-5963481D01*
X21035553Y-5954858D01*
X21047969Y-5947417D01*
X21061054Y-5941228D01*
X21074683Y-5936351D01*
X21088724Y-5932834D01*
X21103042Y-5930710D01*
X21117500Y-5930000D01*
X21412500Y-5930000D01*
X21426958Y-5930710D01*
X21426958Y-5930710D01*
G37*
D11*
X21265000Y-6250000D03*
D10*
G36*
X22396958Y-5930710D02*
X22411276Y-5932834D01*
X22425317Y-5936351D01*
X22438946Y-5941228D01*
X22452031Y-5947417D01*
X22464447Y-5954858D01*
X22476073Y-5963481D01*
X22486798Y-5973202D01*
X22496519Y-5983927D01*
X22505142Y-5995553D01*
X22512583Y-6007969D01*
X22518772Y-6021054D01*
X22523649Y-6034683D01*
X22527166Y-6048724D01*
X22529290Y-6063042D01*
X22530000Y-6077500D01*
X22530000Y-6422500D01*
X22529290Y-6436958D01*
X22527166Y-6451276D01*
X22523649Y-6465317D01*
X22518772Y-6478946D01*
X22512583Y-6492031D01*
X22505142Y-6504447D01*
X22496519Y-6516073D01*
X22486798Y-6526798D01*
X22476073Y-6536519D01*
X22464447Y-6545142D01*
X22452031Y-6552583D01*
X22438946Y-6558772D01*
X22425317Y-6563649D01*
X22411276Y-6567166D01*
X22396958Y-6569290D01*
X22382500Y-6570000D01*
X22087500Y-6570000D01*
X22073042Y-6569290D01*
X22058724Y-6567166D01*
X22044683Y-6563649D01*
X22031054Y-6558772D01*
X22017969Y-6552583D01*
X22005553Y-6545142D01*
X21993927Y-6536519D01*
X21983202Y-6526798D01*
X21973481Y-6516073D01*
X21964858Y-6504447D01*
X21957417Y-6492031D01*
X21951228Y-6478946D01*
X21946351Y-6465317D01*
X21942834Y-6451276D01*
X21940710Y-6436958D01*
X21940000Y-6422500D01*
X21940000Y-6077500D01*
X21940710Y-6063042D01*
X21942834Y-6048724D01*
X21946351Y-6034683D01*
X21951228Y-6021054D01*
X21957417Y-6007969D01*
X21964858Y-5995553D01*
X21973481Y-5983927D01*
X21983202Y-5973202D01*
X21993927Y-5963481D01*
X22005553Y-5954858D01*
X22017969Y-5947417D01*
X22031054Y-5941228D01*
X22044683Y-5936351D01*
X22058724Y-5932834D01*
X22073042Y-5930710D01*
X22087500Y-5930000D01*
X22382500Y-5930000D01*
X22396958Y-5930710D01*
X22396958Y-5930710D01*
G37*
D11*
X22235000Y-6250000D03*
G04 #@! TD*
D10*
G04 #@! TO.C,R16*
G36*
X21426958Y-4930710D02*
X21441276Y-4932834D01*
X21455317Y-4936351D01*
X21468946Y-4941228D01*
X21482031Y-4947417D01*
X21494447Y-4954858D01*
X21506073Y-4963481D01*
X21516798Y-4973202D01*
X21526519Y-4983927D01*
X21535142Y-4995553D01*
X21542583Y-5007969D01*
X21548772Y-5021054D01*
X21553649Y-5034683D01*
X21557166Y-5048724D01*
X21559290Y-5063042D01*
X21560000Y-5077500D01*
X21560000Y-5422500D01*
X21559290Y-5436958D01*
X21557166Y-5451276D01*
X21553649Y-5465317D01*
X21548772Y-5478946D01*
X21542583Y-5492031D01*
X21535142Y-5504447D01*
X21526519Y-5516073D01*
X21516798Y-5526798D01*
X21506073Y-5536519D01*
X21494447Y-5545142D01*
X21482031Y-5552583D01*
X21468946Y-5558772D01*
X21455317Y-5563649D01*
X21441276Y-5567166D01*
X21426958Y-5569290D01*
X21412500Y-5570000D01*
X21117500Y-5570000D01*
X21103042Y-5569290D01*
X21088724Y-5567166D01*
X21074683Y-5563649D01*
X21061054Y-5558772D01*
X21047969Y-5552583D01*
X21035553Y-5545142D01*
X21023927Y-5536519D01*
X21013202Y-5526798D01*
X21003481Y-5516073D01*
X20994858Y-5504447D01*
X20987417Y-5492031D01*
X20981228Y-5478946D01*
X20976351Y-5465317D01*
X20972834Y-5451276D01*
X20970710Y-5436958D01*
X20970000Y-5422500D01*
X20970000Y-5077500D01*
X20970710Y-5063042D01*
X20972834Y-5048724D01*
X20976351Y-5034683D01*
X20981228Y-5021054D01*
X20987417Y-5007969D01*
X20994858Y-4995553D01*
X21003481Y-4983927D01*
X21013202Y-4973202D01*
X21023927Y-4963481D01*
X21035553Y-4954858D01*
X21047969Y-4947417D01*
X21061054Y-4941228D01*
X21074683Y-4936351D01*
X21088724Y-4932834D01*
X21103042Y-4930710D01*
X21117500Y-4930000D01*
X21412500Y-4930000D01*
X21426958Y-4930710D01*
X21426958Y-4930710D01*
G37*
D11*
X21265000Y-5250000D03*
D10*
G36*
X22396958Y-4930710D02*
X22411276Y-4932834D01*
X22425317Y-4936351D01*
X22438946Y-4941228D01*
X22452031Y-4947417D01*
X22464447Y-4954858D01*
X22476073Y-4963481D01*
X22486798Y-4973202D01*
X22496519Y-4983927D01*
X22505142Y-4995553D01*
X22512583Y-5007969D01*
X22518772Y-5021054D01*
X22523649Y-5034683D01*
X22527166Y-5048724D01*
X22529290Y-5063042D01*
X22530000Y-5077500D01*
X22530000Y-5422500D01*
X22529290Y-5436958D01*
X22527166Y-5451276D01*
X22523649Y-5465317D01*
X22518772Y-5478946D01*
X22512583Y-5492031D01*
X22505142Y-5504447D01*
X22496519Y-5516073D01*
X22486798Y-5526798D01*
X22476073Y-5536519D01*
X22464447Y-5545142D01*
X22452031Y-5552583D01*
X22438946Y-5558772D01*
X22425317Y-5563649D01*
X22411276Y-5567166D01*
X22396958Y-5569290D01*
X22382500Y-5570000D01*
X22087500Y-5570000D01*
X22073042Y-5569290D01*
X22058724Y-5567166D01*
X22044683Y-5563649D01*
X22031054Y-5558772D01*
X22017969Y-5552583D01*
X22005553Y-5545142D01*
X21993927Y-5536519D01*
X21983202Y-5526798D01*
X21973481Y-5516073D01*
X21964858Y-5504447D01*
X21957417Y-5492031D01*
X21951228Y-5478946D01*
X21946351Y-5465317D01*
X21942834Y-5451276D01*
X21940710Y-5436958D01*
X21940000Y-5422500D01*
X21940000Y-5077500D01*
X21940710Y-5063042D01*
X21942834Y-5048724D01*
X21946351Y-5034683D01*
X21951228Y-5021054D01*
X21957417Y-5007969D01*
X21964858Y-4995553D01*
X21973481Y-4983927D01*
X21983202Y-4973202D01*
X21993927Y-4963481D01*
X22005553Y-4954858D01*
X22017969Y-4947417D01*
X22031054Y-4941228D01*
X22044683Y-4936351D01*
X22058724Y-4932834D01*
X22073042Y-4930710D01*
X22087500Y-4930000D01*
X22382500Y-4930000D01*
X22396958Y-4930710D01*
X22396958Y-4930710D01*
G37*
D11*
X22235000Y-5250000D03*
G04 #@! TD*
M02*
