G04 #@! TF.GenerationSoftware,KiCad,Pcbnew,5.0.2+dfsg1-1~bpo9+1*
G04 #@! TF.CreationDate,2019-10-29T18:12:18+01:00*
G04 #@! TF.ProjectId,zglue-jade-adapter,7a676c75-652d-46a6-9164-652d61646170,rev?*
G04 #@! TF.SameCoordinates,Original*
G04 #@! TF.FileFunction,Copper,L6,Bot*
G04 #@! TF.FilePolarity,Positive*
%FSLAX46Y46*%
G04 Gerber Fmt 4.6, Leading zero omitted, Abs format (unit mm)*
G04 Created by KiCad (PCBNEW 5.0.2+dfsg1-1~bpo9+1) date Tue 29 Oct 2019 06:12:18 PM CET*
%MOMM*%
%LPD*%
G01*
G04 APERTURE LIST*
G04 #@! TA.AperFunction,SMDPad,CuDef*
%ADD10R,1.100000X0.300000*%
G04 #@! TD*
G04 #@! TA.AperFunction,SMDPad,CuDef*
%ADD11R,1.320000X1.300000*%
G04 #@! TD*
G04 #@! TA.AperFunction,ComponentPad*
%ADD12C,0.457000*%
G04 #@! TD*
G04 #@! TA.AperFunction,ViaPad*
%ADD13C,0.457000*%
G04 #@! TD*
G04 #@! TA.AperFunction,Conductor*
%ADD14C,0.100000*%
G04 #@! TD*
G04 #@! TA.AperFunction,Conductor*
%ADD15C,0.150000*%
G04 #@! TD*
G04 #@! TA.AperFunction,Conductor*
%ADD16C,0.110000*%
G04 #@! TD*
G04 #@! TA.AperFunction,Conductor*
%ADD17C,0.200000*%
G04 #@! TD*
G04 APERTURE END LIST*
D10*
G04 #@! TO.P,J1,20*
G04 #@! TO.N,/VUSB*
X6501220Y-14757000D03*
G04 #@! TO.P,J1,19*
X6501220Y-14257000D03*
G04 #@! TO.P,J1,18*
G04 #@! TO.N,/USB_D_N*
X6501220Y-13757000D03*
G04 #@! TO.P,J1,17*
G04 #@! TO.N,/USB_D_P*
X6501220Y-13257000D03*
G04 #@! TO.P,J1,16*
G04 #@! TO.N,GND*
X6501220Y-12757000D03*
G04 #@! TO.P,J1,15*
G04 #@! TO.N,/CSI_D4_IN_N*
X6501220Y-12257000D03*
G04 #@! TO.P,J1,14*
G04 #@! TO.N,/CSI_D4_IN_P*
X6501220Y-11757000D03*
G04 #@! TO.P,J1,13*
G04 #@! TO.N,GND*
X6501220Y-11257000D03*
G04 #@! TO.P,J1,12*
G04 #@! TO.N,/CSI_D3_IN_N*
X6501220Y-10757000D03*
G04 #@! TO.P,J1,11*
G04 #@! TO.N,/CSI_D3_IN_P*
X6501220Y-10257000D03*
G04 #@! TO.P,J1,10*
G04 #@! TO.N,GND*
X6501220Y-9757000D03*
G04 #@! TO.P,J1,9*
G04 #@! TO.N,/CSI_D2_IN_N*
X6501220Y-9257000D03*
G04 #@! TO.P,J1,8*
G04 #@! TO.N,/CSI_D2_IN_P*
X6501220Y-8757000D03*
G04 #@! TO.P,J1,7*
G04 #@! TO.N,GND*
X6501220Y-8257000D03*
G04 #@! TO.P,J1,6*
G04 #@! TO.N,/CSI_D1_IN_N*
X6501220Y-7757000D03*
G04 #@! TO.P,J1,5*
G04 #@! TO.N,/CSI_D1_IN_P*
X6501220Y-7257000D03*
G04 #@! TO.P,J1,4*
G04 #@! TO.N,GND*
X6501220Y-6757000D03*
G04 #@! TO.P,J1,3*
G04 #@! TO.N,/CSI_CLK_IN_N*
X6501220Y-6257000D03*
G04 #@! TO.P,J1,2*
G04 #@! TO.N,/CSI_CLK_IN_P*
X6501220Y-5757000D03*
G04 #@! TO.P,J1,1*
G04 #@! TO.N,GND*
X6501220Y-5257000D03*
G04 #@! TO.P,J1,40*
G04 #@! TO.N,/3V3_SYS*
X1002120Y-14757000D03*
G04 #@! TO.P,J1,39*
G04 #@! TO.N,/2V5_SYS*
X1002120Y-14257000D03*
G04 #@! TO.P,J1,38*
G04 #@! TO.N,/1V8_SYS*
X1002120Y-13757000D03*
G04 #@! TO.P,J1,37*
G04 #@! TO.N,/1V2_SYS*
X1002120Y-13257000D03*
G04 #@! TO.P,J1,36*
G04 #@! TO.N,/I2C_1_SDA*
X1002120Y-12757000D03*
G04 #@! TO.P,J1,35*
G04 #@! TO.N,/I2C_1_SCL*
X1002120Y-12257000D03*
G04 #@! TO.P,J1,34*
G04 #@! TO.N,/I2C_0_SDA*
X1002120Y-11757000D03*
G04 #@! TO.P,J1,33*
G04 #@! TO.N,/I2C_0_SCL*
X1002120Y-11257000D03*
G04 #@! TO.P,J1,32*
G04 #@! TO.N,GND*
X1002120Y-10757000D03*
G04 #@! TO.P,J1,31*
G04 #@! TO.N,/LED3_ISINK*
X1002120Y-10257000D03*
G04 #@! TO.P,J1,30*
G04 #@! TO.N,/LED2_ISINK*
X1002120Y-9757000D03*
G04 #@! TO.P,J1,29*
G04 #@! TO.N,/LED1_ISINK*
X1002120Y-9257000D03*
G04 #@! TO.P,J1,28*
G04 #@! TO.N,/PWR_BTN*
X1002120Y-8757000D03*
G04 #@! TO.P,J1,27*
G04 #@! TO.N,GND*
X1002120Y-8257000D03*
G04 #@! TO.P,J1,26*
G04 #@! TO.N,/DBG_RX*
X1002120Y-7757000D03*
G04 #@! TO.P,J1,25*
G04 #@! TO.N,/DBG_TX*
X1002120Y-7257000D03*
G04 #@! TO.P,J1,24*
G04 #@! TO.N,/TCK*
X1002120Y-6757000D03*
G04 #@! TO.P,J1,23*
G04 #@! TO.N,/TMS*
X1002120Y-6257000D03*
G04 #@! TO.P,J1,22*
G04 #@! TO.N,/TDO*
X1002120Y-5757000D03*
G04 #@! TO.P,J1,21*
G04 #@! TO.N,/TDI*
X1002120Y-5257000D03*
D11*
G04 #@! TO.P,J1,*
G04 #@! TO.N,*
X6313260Y-15963500D03*
X1192620Y-15958420D03*
X6313260Y-4055980D03*
X1192620Y-4055980D03*
G04 #@! TD*
D10*
G04 #@! TO.P,J2,20*
G04 #@! TO.N,GND*
X24006220Y-14757000D03*
G04 #@! TO.P,J2,19*
G04 #@! TO.N,/FLASH_IO3*
X24006220Y-14257000D03*
G04 #@! TO.P,J2,18*
G04 #@! TO.N,/FLASH_IO2*
X24006220Y-13757000D03*
G04 #@! TO.P,J2,17*
G04 #@! TO.N,/FLASH_IO1*
X24006220Y-13257000D03*
G04 #@! TO.P,J2,16*
G04 #@! TO.N,/FLASH_IO0*
X24006220Y-12757000D03*
G04 #@! TO.P,J2,15*
G04 #@! TO.N,/FLASH_CS*
X24006220Y-12257000D03*
G04 #@! TO.P,J2,14*
G04 #@! TO.N,/FLASH_CLK*
X24006220Y-11757000D03*
G04 #@! TO.P,J2,13*
G04 #@! TO.N,/DONE*
X24006220Y-11257000D03*
G04 #@! TO.P,J2,12*
G04 #@! TO.N,GND*
X24006220Y-10757000D03*
G04 #@! TO.P,J2,11*
G04 #@! TO.N,/E_CTRL_SS*
X24006220Y-10257000D03*
G04 #@! TO.P,J2,10*
G04 #@! TO.N,/E_CTRL_SCK*
X24006220Y-9757000D03*
G04 #@! TO.P,J2,9*
G04 #@! TO.N,/E_CTRL_SO*
X24006220Y-9257000D03*
G04 #@! TO.P,J2,8*
G04 #@! TO.N,/E_CTRL_SI*
X24006220Y-8757000D03*
G04 #@! TO.P,J2,7*
G04 #@! TO.N,/CTRL_RST_FLASH_SOC_CS*
X24006220Y-8257000D03*
G04 #@! TO.P,J2,6*
G04 #@! TO.N,GND*
X24006220Y-7757000D03*
G04 #@! TO.P,J2,5*
G04 #@! TO.N,/E_PROC_SS*
X24006220Y-7257000D03*
G04 #@! TO.P,J2,4*
G04 #@! TO.N,/E_PROC_SCK*
X24006220Y-6757000D03*
G04 #@! TO.P,J2,3*
G04 #@! TO.N,/E_PROC_SO*
X24006220Y-6257000D03*
G04 #@! TO.P,J2,2*
G04 #@! TO.N,/E_PROC_SI*
X24006220Y-5757000D03*
G04 #@! TO.P,J2,1*
G04 #@! TO.N,/E_PROC_RST*
X24006220Y-5257000D03*
G04 #@! TO.P,J2,40*
G04 #@! TO.N,/PROC_OUT_2*
X18507120Y-14757000D03*
G04 #@! TO.P,J2,39*
G04 #@! TO.N,/PROC_OUT_1*
X18507120Y-14257000D03*
G04 #@! TO.P,J2,38*
G04 #@! TO.N,/PROC_OUT_0*
X18507120Y-13757000D03*
G04 #@! TO.P,J2,37*
G04 #@! TO.N,/CTRL_OUT*
X18507120Y-13257000D03*
G04 #@! TO.P,J2,36*
G04 #@! TO.N,GND*
X18507120Y-12757000D03*
G04 #@! TO.P,J2,35*
G04 #@! TO.N,/CSI_D4_OUT_N*
X18507120Y-12257000D03*
G04 #@! TO.P,J2,34*
G04 #@! TO.N,/CSI_D4_OUT_P*
X18507120Y-11757000D03*
G04 #@! TO.P,J2,33*
G04 #@! TO.N,GND*
X18507120Y-11257000D03*
G04 #@! TO.P,J2,32*
G04 #@! TO.N,/CSI_D3_OUT_N*
X18507120Y-10757000D03*
G04 #@! TO.P,J2,31*
G04 #@! TO.N,/CSI_D3_OUT_P*
X18507120Y-10257000D03*
G04 #@! TO.P,J2,30*
G04 #@! TO.N,GND*
X18507120Y-9757000D03*
G04 #@! TO.P,J2,29*
G04 #@! TO.N,/CSI_D2_OUT_N*
X18507120Y-9257000D03*
G04 #@! TO.P,J2,28*
G04 #@! TO.N,/CSI_D2_OUT_P*
X18507120Y-8757000D03*
G04 #@! TO.P,J2,27*
G04 #@! TO.N,GND*
X18507120Y-8257000D03*
G04 #@! TO.P,J2,26*
G04 #@! TO.N,/C_CSI_D1_OUT_N*
X18507120Y-7757000D03*
G04 #@! TO.P,J2,25*
G04 #@! TO.N,/C_CSI_D1_OUT_P*
X18507120Y-7257000D03*
G04 #@! TO.P,J2,24*
G04 #@! TO.N,GND*
X18507120Y-6757000D03*
G04 #@! TO.P,J2,23*
G04 #@! TO.N,/CSI_CLK_OUT_N*
X18507120Y-6257000D03*
G04 #@! TO.P,J2,22*
G04 #@! TO.N,/CSI_CLK_OUT_P*
X18507120Y-5757000D03*
G04 #@! TO.P,J2,21*
G04 #@! TO.N,GND*
X18507120Y-5257000D03*
D11*
G04 #@! TO.P,J2,*
G04 #@! TO.N,*
X23818260Y-15963500D03*
X18697620Y-15958420D03*
X23818260Y-4055980D03*
X18697620Y-4055980D03*
G04 #@! TD*
D12*
G04 #@! TO.P,U1,EP*
G04 #@! TO.N,GND*
X13095000Y-11155000D03*
X11895000Y-11155000D03*
X13095000Y-10005000D03*
X11895000Y-10005000D03*
X13095000Y-8855000D03*
X11845000Y-8855000D03*
X14045000Y-11155000D03*
X10945000Y-11155000D03*
X10945000Y-10005000D03*
X14045000Y-10005000D03*
X14045000Y-8855000D03*
X10945000Y-8855000D03*
G04 #@! TD*
D13*
G04 #@! TO.N,GND*
X9780755Y-14856245D03*
X22506000Y-17406000D03*
X23115000Y-10883000D03*
X23158000Y-7764000D03*
X19427000Y-8509000D03*
X17456963Y-5256963D03*
X1960000Y-10650000D03*
X2050000Y-8240000D03*
X8907225Y-15782715D03*
X4670000Y-12330000D03*
X4886500Y-12990000D03*
X4797104Y-9029614D03*
X3880000Y-11460000D03*
X7540000Y-5270000D03*
X5534679Y-6695321D03*
X4620000Y-11243500D03*
X13130000Y-17483500D03*
X11518001Y-17816500D03*
X10670000Y-18550000D03*
X7354722Y-14270000D03*
X7301618Y-15078505D03*
X3730000Y-16320000D03*
X17207360Y-14747360D03*
X20000000Y-7000000D03*
X19390245Y-11310245D03*
X19141499Y-19588501D03*
G04 #@! TO.N,/CSI_D2_IN_P*
X14400000Y-15995000D03*
X7496500Y-6787000D03*
G04 #@! TO.N,/CSI_D2_IN_N*
X13900573Y-15490783D03*
X8103500Y-6787000D03*
G04 #@! TO.N,/3V3_SYS*
X18270000Y-18650000D03*
X4380000Y-3040000D03*
X560000Y-17200000D03*
X12470000Y-1830000D03*
G04 #@! TO.N,/2V5*
X19960612Y-9356500D03*
X15962530Y-15957530D03*
G04 #@! TO.N,/1V8*
X11480000Y-18570000D03*
X15688058Y-17876196D03*
G04 #@! TO.N,/LED3_ISINK*
X13366026Y-12483965D03*
X2436000Y-10339000D03*
G04 #@! TO.N,/LED1_ISINK*
X12170000Y-12393000D03*
X2457000Y-9135000D03*
G04 #@! TO.N,/TMS*
X12761000Y-11860000D03*
X3099500Y-6470000D03*
G04 #@! TO.N,/VSENSE*
X12114000Y-11809000D03*
X15930000Y-18350000D03*
G04 #@! TO.N,/1V8_SYS*
X19670000Y-15250000D03*
X2157000Y-13757000D03*
X15732470Y-17262470D03*
X14956500Y-2120000D03*
X20810000Y-15690000D03*
G04 #@! TO.N,/LED2_ISINK*
X12822000Y-12389000D03*
X2443000Y-9766000D03*
G04 #@! TO.N,/EXTCLK_EN*
X10867000Y-11789000D03*
X6480000Y-18700000D03*
G04 #@! TO.N,/TDO*
X13603842Y-11725383D03*
X4026500Y-6450000D03*
G04 #@! TO.N,/3V3*
X19694963Y-16943500D03*
X7276762Y-15992510D03*
X7460000Y-18996490D03*
G04 #@! TO.N,/TDI*
X4394504Y-5357327D03*
X19712001Y-12112933D03*
G04 #@! TO.N,/PC_RDY*
X7896733Y-14906546D03*
X8990000Y-17816500D03*
X5879963Y-18769963D03*
G04 #@! TO.N,/TCK*
X14196000Y-11752000D03*
X1929500Y-6731000D03*
X4469470Y-8610470D03*
G04 #@! TO.N,/EXT_CLK*
X8336500Y-12665000D03*
X4260000Y-18010000D03*
G04 #@! TO.N,/I2C_0_SCL*
X19625000Y-10795000D03*
X1991000Y-11234000D03*
G04 #@! TO.N,/ZIP_EN_L*
X7945000Y-11743000D03*
X4092500Y-13780000D03*
G04 #@! TO.N,/PWR_BTN*
X8028000Y-11175500D03*
X3574500Y-10460000D03*
G04 #@! TO.N,/I2C_0_SDA*
X4990501Y-7976499D03*
X17583206Y-9549113D03*
G04 #@! TO.N,/CSI_D1_IN_N*
X4385393Y-7234607D03*
X15214500Y-16026314D03*
G04 #@! TO.N,/CSI_D1_IN_P*
X4814607Y-6805393D03*
X15015000Y-15320000D03*
G04 #@! TO.N,/CSI_CLK_IN_P*
X5059455Y-5500545D03*
X13075000Y-15820000D03*
G04 #@! TO.N,/CSI_CLK_IN_N*
X4670545Y-5889455D03*
X12575405Y-15229884D03*
G04 #@! TO.N,/CSI_CLK_OUT_N*
X17063822Y-13976178D03*
X20258878Y-4504548D03*
G04 #@! TO.N,/CTRL_SO*
X16300000Y-5630000D03*
X20588000Y-10291000D03*
G04 #@! TO.N,/CTRL_SI*
X17060000Y-8434000D03*
X17747250Y-4794291D03*
X22854758Y-4010000D03*
G04 #@! TO.N,/CTRL_SCK*
X17204917Y-18184167D03*
X12100000Y-18523510D03*
X20655000Y-10860000D03*
G04 #@! TO.N,/CSI_CLK_OUT_P*
X19701878Y-4504548D03*
X16669962Y-14370038D03*
G04 #@! TO.N,Net-(U1-PadD8)*
X14120000Y-8210000D03*
G04 #@! TO.N,/ULPM_WAKE*
X10870000Y-8225000D03*
X4472000Y-4831000D03*
G04 #@! TO.N,/2V5_SYS*
X17000000Y-19210000D03*
G04 #@! TO.N,/USB_D_N*
X16995480Y-7749122D03*
X5201441Y-14010583D03*
X9236847Y-4308213D03*
G04 #@! TO.N,/USB_D_P*
X4772227Y-13581369D03*
X16569544Y-8157342D03*
X9236847Y-3751213D03*
G04 #@! TO.N,/DBG_TX*
X13673500Y-4820000D03*
X2636510Y-6913000D03*
G04 #@! TO.N,/PROC_SCK*
X20470000Y-6220000D03*
X15911314Y-9141860D03*
G04 #@! TO.N,/PROC_SI*
X11232015Y-14996525D03*
X20774517Y-4373618D03*
G04 #@! TO.N,/PROC_OUT_0*
X10090499Y-3749500D03*
G04 #@! TO.N,/PROC_OUT_1*
X10495000Y-4985000D03*
G04 #@! TO.N,/PROC_OUT_2*
X10800000Y-3820000D03*
G04 #@! TO.N,/USB_DET*
X3739000Y-12390000D03*
X5000000Y-18633500D03*
X8240000Y-18200000D03*
X16876205Y-9423855D03*
G04 #@! TO.N,/CTRL_SS*
X20591000Y-12150000D03*
X17510000Y-18620000D03*
X10363468Y-18984814D03*
G04 #@! TO.N,/PIO1*
X6938000Y-1533500D03*
X4223000Y-1828000D03*
G04 #@! TO.N,/DONE*
X10800000Y-4420000D03*
X21195000Y-12316000D03*
X16351465Y-4308595D03*
G04 #@! TO.N,/DBG_RX*
X14600900Y-4420000D03*
X2008526Y-7681492D03*
G04 #@! TO.N,/PIO2*
X12170000Y-8215000D03*
X5384000Y-1887000D03*
G04 #@! TO.N,/PROC_SS*
X20530000Y-6880000D03*
X17663193Y-8982634D03*
G04 #@! TO.N,/PROC_SO*
X11803500Y-15452000D03*
X20450000Y-5260000D03*
G04 #@! TO.N,/VUSB*
X4561442Y-14069832D03*
X4092500Y-14420000D03*
G04 #@! TO.N,/1V2_SYS*
X2110000Y-12870000D03*
G04 #@! TO.N,/E_PROC_SI*
X23097225Y-5730865D03*
G04 #@! TO.N,/E_PROC_SO*
X22835000Y-6268000D03*
G04 #@! TO.N,/E_PROC_SCK*
X23121000Y-6779000D03*
G04 #@! TO.N,/E_PROC_SS*
X22811000Y-7247000D03*
G04 #@! TO.N,/CTRL_RST_FLASH_SOC_CS*
X8516570Y-8715630D03*
X22847000Y-8226000D03*
G04 #@! TO.N,/E_CTRL_SI*
X23115000Y-8779000D03*
G04 #@! TO.N,/E_CTRL_SO*
X22805000Y-9345000D03*
G04 #@! TO.N,/E_CTRL_SCK*
X23121000Y-9789000D03*
G04 #@! TO.N,/E_CTRL_SS*
X22847291Y-10423263D03*
G04 #@! TO.N,/PIO15*
X23060000Y-13180000D03*
X17653620Y-8340305D03*
G04 #@! TO.N,/PIO16*
X16810000Y-7230000D03*
X23710000Y-17450000D03*
X16329908Y-9470213D03*
G04 #@! TO.N,/PIO17*
X3230000Y-2190000D03*
X1510000Y-2090000D03*
G04 #@! TO.N,/PIO8*
X12820000Y-7530000D03*
X13490000Y-470000D03*
G04 #@! TO.N,/PIO7*
X13350000Y-3950000D03*
X12268233Y-2473560D03*
G04 #@! TO.N,/PIO6*
X12170000Y-7530000D03*
X11086000Y-1680000D03*
G04 #@! TO.N,/VX*
X9530000Y-16510000D03*
X9400030Y-18600030D03*
G04 #@! TO.N,/AMUX*
X4325318Y-18714682D03*
X8008629Y-16051111D03*
G04 #@! TO.N,/DMUX*
X11501000Y-11799000D03*
X7820000Y-18560000D03*
G04 #@! TO.N,/FLASH_CLK*
X8932000Y-7433500D03*
G04 #@! TO.N,/FLASH_CS*
X8953786Y-9069130D03*
X22158500Y-14160000D03*
X22193000Y-12625000D03*
G04 #@! TO.N,/FLASH_IO0*
X8571782Y-8186500D03*
G04 #@! TO.N,/FLASH_IO1*
X8237231Y-9950200D03*
G04 #@! TO.N,/FLASH_IO2*
X7693646Y-10053945D03*
G04 #@! TO.N,/FLASH_IO3*
X7880255Y-9555745D03*
G04 #@! TO.N,/RAVEN_VCC*
X12848500Y-4820000D03*
G04 #@! TO.N,Net-(U1-PadC3)*
X11470000Y-8220000D03*
G04 #@! TO.N,/BOOST_OUT*
X9040000Y-16960000D03*
X1740000Y-19240000D03*
G04 #@! TO.N,Net-(TP34-Pad1)*
X17480000Y-6060000D03*
X15900000Y-3130000D03*
X22750000Y-1820000D03*
X16356490Y-6243000D03*
G04 #@! TO.N,Net-(TP35-Pad1)*
X15353500Y-4300000D03*
X20525000Y-2095000D03*
G04 #@! TO.N,/C_CSI_D1_OUT_N*
X17750000Y-11953490D03*
X19470000Y-6950000D03*
X20507414Y-8428473D03*
G04 #@! TO.N,/C_CSI_D1_OUT_P*
X17859212Y-10878028D03*
X17520000Y-6880000D03*
X20113554Y-8822333D03*
G04 #@! TO.N,/LP_CSI_D1_OUT_P*
X17170037Y-4360037D03*
X3650000Y-1770000D03*
G04 #@! TO.N,/LP_CSI_D1_OUT_N*
X17500000Y-3850000D03*
X2670000Y-2100000D03*
G04 #@! TO.N,/CSI_INT*
X12845000Y-8230000D03*
X5647718Y-5368736D03*
X15663510Y-2146000D03*
G04 #@! TO.N,/PROC_INT*
X13470000Y-8205000D03*
X21079000Y-3028000D03*
G04 #@! TD*
D14*
G04 #@! TO.N,GND*
X23351220Y-14757000D02*
X22853211Y-15255009D01*
X24001220Y-14757000D02*
X23351220Y-14757000D01*
X22853211Y-17058789D02*
X22506000Y-17406000D01*
X22853211Y-15255009D02*
X22853211Y-17058789D01*
X1853000Y-10757000D02*
X1960000Y-10650000D01*
X1002120Y-10757000D02*
X1853000Y-10757000D01*
X5373834Y-9029614D02*
X4797104Y-9029614D01*
X6101220Y-9757000D02*
X5373834Y-9029614D01*
X6501220Y-9757000D02*
X6101220Y-9757000D01*
X6901220Y-6757000D02*
X6501220Y-6757000D01*
X7280000Y-7135780D02*
X6901220Y-6757000D01*
D15*
X18502120Y-12757000D02*
X19202120Y-12757000D01*
X19427000Y-9532120D02*
X19427000Y-8832147D01*
X19202120Y-9757000D02*
X19427000Y-9532120D01*
X19427000Y-8832147D02*
X19427000Y-8509000D01*
X18502120Y-9757000D02*
X19202120Y-9757000D01*
X19175000Y-8257000D02*
X19427000Y-8509000D01*
X18502120Y-8257000D02*
X19175000Y-8257000D01*
X17457000Y-5257000D02*
X17456963Y-5256963D01*
X18502120Y-5257000D02*
X17457000Y-5257000D01*
X23165000Y-7757000D02*
X23158000Y-7764000D01*
X24001220Y-7757000D02*
X23165000Y-7757000D01*
X23241000Y-10757000D02*
X23115000Y-10883000D01*
X24001220Y-10757000D02*
X23241000Y-10757000D01*
D14*
X7280000Y-7950000D02*
X7280000Y-7135780D01*
X6973000Y-8257000D02*
X7280000Y-7950000D01*
X6501220Y-8257000D02*
X6973000Y-8257000D01*
D15*
X5596358Y-6757000D02*
X5534679Y-6695321D01*
X6501220Y-6757000D02*
X5596358Y-6757000D01*
X7527000Y-5257000D02*
X7540000Y-5270000D01*
X6501220Y-5257000D02*
X7527000Y-5257000D01*
X2033000Y-8257000D02*
X2050000Y-8240000D01*
X1002120Y-8257000D02*
X2033000Y-8257000D01*
X4633500Y-11257000D02*
X4620000Y-11243500D01*
X6501220Y-11257000D02*
X4633500Y-11257000D01*
X5119500Y-12757000D02*
X4886500Y-12990000D01*
X6501220Y-12757000D02*
X5119500Y-12757000D01*
D14*
X19157120Y-6757000D02*
X19384120Y-6530000D01*
X18507120Y-6757000D02*
X19157120Y-6757000D01*
X20000000Y-6676853D02*
X20000000Y-7000000D01*
X19853147Y-6530000D02*
X20000000Y-6676853D01*
X19384120Y-6530000D02*
X19853147Y-6530000D01*
D15*
X19202120Y-12757000D02*
X19280000Y-12679120D01*
X19390245Y-11633392D02*
X19390245Y-11310245D01*
X19280000Y-11743637D02*
X19390245Y-11633392D01*
X19280000Y-12679120D02*
X19280000Y-11743637D01*
X19337000Y-11257000D02*
X19390245Y-11310245D01*
X18507120Y-11257000D02*
X19337000Y-11257000D01*
D16*
G04 #@! TO.N,/CSI_D2_IN_P*
X7695000Y-6985500D02*
X7496500Y-6787000D01*
X6501220Y-8757000D02*
X6584220Y-8840000D01*
X6584220Y-8840000D02*
X7031506Y-8840000D01*
X7031506Y-8840000D02*
X7695000Y-8176506D01*
X7695000Y-8176506D02*
X7695000Y-6985500D01*
G04 #@! TO.N,/CSI_D2_IN_N*
X7905000Y-6985500D02*
X8103500Y-6787000D01*
X6598220Y-9160000D02*
X7008494Y-9160000D01*
X6501220Y-9257000D02*
X6598220Y-9160000D01*
X7008494Y-9160000D02*
X7905000Y-8263494D01*
X7905000Y-8263494D02*
X7905000Y-6985500D01*
D17*
G04 #@! TO.N,/3V3_SYS*
X602120Y-14757000D02*
X260000Y-15099120D01*
X1002120Y-14757000D02*
X602120Y-14757000D01*
X260000Y-15099120D02*
X260000Y-16900000D01*
X260000Y-16900000D02*
X560000Y-17200000D01*
X2027000Y-14757000D02*
X2820000Y-15550000D01*
X1002120Y-14757000D02*
X2027000Y-14757000D01*
X2820000Y-18490000D02*
X4060000Y-19730000D01*
X2820000Y-15550000D02*
X2820000Y-18490000D01*
X17190000Y-19730000D02*
X18270000Y-18650000D01*
X4060000Y-19730000D02*
X17190000Y-19730000D01*
D14*
G04 #@! TO.N,/LED3_ISINK*
X2354000Y-10257000D02*
X2436000Y-10339000D01*
X1002120Y-10257000D02*
X2354000Y-10257000D01*
G04 #@! TO.N,/LED1_ISINK*
X2335000Y-9257000D02*
X2457000Y-9135000D01*
X1002120Y-9257000D02*
X2335000Y-9257000D01*
G04 #@! TO.N,/TMS*
X2653000Y-6257000D02*
X1002120Y-6257000D01*
X2866000Y-6470000D02*
X2653000Y-6257000D01*
X3099500Y-6470000D02*
X2866000Y-6470000D01*
G04 #@! TO.N,/VSENSE*
X11816499Y-12106501D02*
X11816499Y-14936499D01*
X12114000Y-11809000D02*
X11816499Y-12106501D01*
X12221904Y-15341904D02*
X12221904Y-17841904D01*
X11816499Y-14936499D02*
X12221904Y-15341904D01*
X12221904Y-17841904D02*
X12890000Y-18510000D01*
X15770000Y-18510000D02*
X15930000Y-18350000D01*
X12890000Y-18510000D02*
X15770000Y-18510000D01*
D17*
G04 #@! TO.N,/1V8_SYS*
X1002120Y-13757000D02*
X2157000Y-13757000D01*
D14*
G04 #@! TO.N,/LED2_ISINK*
X2434000Y-9757000D02*
X2443000Y-9766000D01*
X1002120Y-9757000D02*
X2434000Y-9757000D01*
G04 #@! TO.N,/EXTCLK_EN*
X6610000Y-18700000D02*
X6480000Y-18700000D01*
X10867000Y-14443000D02*
X6610000Y-18700000D01*
X10867000Y-11789000D02*
X10867000Y-14443000D01*
G04 #@! TO.N,/TDO*
X2710000Y-5757000D02*
X2921000Y-5757000D01*
X2290000Y-5757000D02*
X3333500Y-5757000D01*
X3333500Y-5757000D02*
X4026500Y-6450000D01*
X1002120Y-5757000D02*
X2290000Y-5757000D01*
X2290000Y-5757000D02*
X2710000Y-5757000D01*
G04 #@! TO.N,/TDI*
X4294177Y-5257000D02*
X4394504Y-5357327D01*
X1002120Y-5257000D02*
X4294177Y-5257000D01*
G04 #@! TO.N,/TCK*
X1903500Y-6757000D02*
X1929500Y-6731000D01*
X1002120Y-6757000D02*
X1903500Y-6757000D01*
G04 #@! TO.N,/EXT_CLK*
X8336500Y-12665000D02*
X8366501Y-12695001D01*
X8366501Y-12695001D02*
X8366501Y-16653499D01*
X8366501Y-16653499D02*
X6740000Y-18280000D01*
X4530000Y-18280000D02*
X4260000Y-18010000D01*
X6740000Y-18280000D02*
X4530000Y-18280000D01*
G04 #@! TO.N,/I2C_0_SCL*
X1968000Y-11257000D02*
X1991000Y-11234000D01*
X1002120Y-11257000D02*
X1968000Y-11257000D01*
G04 #@! TO.N,/PWR_BTN*
X3510000Y-10395500D02*
X3574500Y-10460000D01*
X2727000Y-8757000D02*
X3510000Y-9540000D01*
X3510000Y-9540000D02*
X3510000Y-10395500D01*
X1002120Y-8757000D02*
X2727000Y-8757000D01*
G04 #@! TO.N,/I2C_0_SDA*
X4603501Y-7976499D02*
X4990501Y-7976499D01*
X1002120Y-11757000D02*
X2883000Y-11757000D01*
X4010000Y-10630000D02*
X4010000Y-8570000D01*
X2883000Y-11757000D02*
X4010000Y-10630000D01*
X4010000Y-8570000D02*
X4603501Y-7976499D01*
G04 #@! TO.N,/CSI_D1_IN_N*
X6101220Y-7757000D02*
X6501220Y-7757000D01*
X5781230Y-7437010D02*
X6101220Y-7757000D01*
X4385393Y-7234607D02*
X4666102Y-7234607D01*
X4666102Y-7234607D02*
X4666102Y-7286102D01*
X4666102Y-7286102D02*
X4817009Y-7437009D01*
X4868505Y-7437010D02*
X5781230Y-7437010D01*
X4817009Y-7437009D02*
X4868505Y-7437010D01*
D16*
G04 #@! TO.N,/CSI_D1_IN_P*
X4814607Y-7128540D02*
X4814607Y-6805393D01*
X4943067Y-7257000D02*
X4814607Y-7128540D01*
X6501220Y-7257000D02*
X4943067Y-7257000D01*
D14*
G04 #@! TO.N,/CSI_CLK_IN_P*
X5059455Y-5762175D02*
X5059455Y-5500545D01*
X5214280Y-5917000D02*
X5059455Y-5762175D01*
X5676219Y-5757000D02*
X5516219Y-5917000D01*
X6501220Y-5757000D02*
X5676219Y-5757000D01*
X5516219Y-5917000D02*
X5214280Y-5917000D01*
G04 #@! TO.N,/CSI_CLK_IN_N*
X5676219Y-6257000D02*
X5516219Y-6097000D01*
X5139720Y-6097000D02*
X4932175Y-5889455D01*
X6501220Y-6257000D02*
X5676219Y-6257000D01*
X5516219Y-6097000D02*
X5139720Y-6097000D01*
X4932175Y-5889455D02*
X4670545Y-5889455D01*
D16*
G04 #@! TO.N,/CSI_CLK_OUT_N*
X20085378Y-4678048D02*
X20258878Y-4504548D01*
X20085378Y-5303116D02*
X20085378Y-4678048D01*
X19276494Y-6112000D02*
X20085378Y-5303116D01*
X19052120Y-6112000D02*
X19276494Y-6112000D01*
X18507120Y-6257000D02*
X18907120Y-6257000D01*
X18907120Y-6257000D02*
X19052120Y-6112000D01*
D14*
G04 #@! TO.N,/CTRL_SCK*
X16881770Y-18184167D02*
X16313928Y-18752009D01*
X12328499Y-18752009D02*
X12100000Y-18523510D01*
X16313928Y-18752009D02*
X12328499Y-18752009D01*
X17204917Y-18184167D02*
X16881770Y-18184167D01*
D16*
G04 #@! TO.N,/CSI_CLK_OUT_P*
X19875378Y-4678048D02*
X19701878Y-4504548D01*
X19189506Y-5902000D02*
X19875378Y-5216128D01*
X19875378Y-5216128D02*
X19875378Y-4678048D01*
X19052120Y-5902000D02*
X19189506Y-5902000D01*
X18907120Y-5757000D02*
X19052120Y-5902000D01*
X18507120Y-5757000D02*
X18907120Y-5757000D01*
D17*
G04 #@! TO.N,/2V5_SYS*
X1002120Y-14257000D02*
X2287000Y-14257000D01*
X3160000Y-15130000D02*
X3160000Y-18320000D01*
X2287000Y-14257000D02*
X3160000Y-15130000D01*
X3160000Y-18320000D02*
X3970000Y-19130000D01*
X16810000Y-19400000D02*
X17000000Y-19210000D01*
X4240000Y-19400000D02*
X16810000Y-19400000D01*
X3970000Y-19130000D02*
X4240000Y-19400000D01*
D16*
G04 #@! TO.N,/USB_D_N*
X5676219Y-13757000D02*
X5531219Y-13612000D01*
X6501220Y-13757000D02*
X5676219Y-13757000D01*
X5531219Y-13612000D02*
X5319303Y-13612000D01*
X5319303Y-13612000D02*
X5201441Y-13729862D01*
X5201441Y-13729862D02*
X5201441Y-14010583D01*
G04 #@! TO.N,/USB_D_P*
X5052948Y-13581369D02*
X4772227Y-13581369D01*
X5232317Y-13402000D02*
X5052948Y-13581369D01*
X6501220Y-13257000D02*
X5676219Y-13257000D01*
X5676219Y-13257000D02*
X5531219Y-13402000D01*
X5531219Y-13402000D02*
X5232317Y-13402000D01*
D14*
G04 #@! TO.N,/DBG_TX*
X2408011Y-7141499D02*
X2636510Y-6913000D01*
X2292510Y-7257000D02*
X2408011Y-7141499D01*
X1002120Y-7257000D02*
X2292510Y-7257000D01*
G04 #@! TO.N,/PROC_OUT_0*
X10000000Y-3800499D02*
X10090499Y-3749500D01*
X17897000Y-13757000D02*
X18507120Y-13757000D01*
X17370000Y-13230000D02*
X17897000Y-13757000D01*
X17370000Y-10929999D02*
X17370000Y-13230000D01*
X17000000Y-10559998D02*
X17370000Y-10929999D01*
X17000000Y-9860000D02*
X17000000Y-10559998D01*
X17229706Y-9630294D02*
X17000000Y-9860000D01*
X17229706Y-9259706D02*
X17229706Y-9630294D01*
X11201990Y-3203990D02*
X11637010Y-3639010D01*
X10312862Y-3203990D02*
X11201990Y-3203990D01*
X10090499Y-3749500D02*
X10090499Y-3426353D01*
X10090499Y-3426353D02*
X10312862Y-3203990D01*
X11637010Y-5895010D02*
X12423000Y-6681000D01*
X16710000Y-8740000D02*
X17229706Y-9259706D01*
X11637010Y-3639010D02*
X11637010Y-5895010D01*
X12423000Y-6681000D02*
X13689000Y-6681000D01*
X13689000Y-6681000D02*
X15748000Y-8740000D01*
X15748000Y-8740000D02*
X16710000Y-8740000D01*
G04 #@! TO.N,/PROC_OUT_1*
X17194990Y-13302491D02*
X17832119Y-13939619D01*
X17194990Y-13294990D02*
X17194990Y-13302491D01*
X17832119Y-13939619D02*
X17832119Y-14062119D01*
X14913000Y-8158000D02*
X14913000Y-8720499D01*
X18090000Y-14190000D02*
X18157000Y-14257000D01*
X17960000Y-14190000D02*
X18090000Y-14190000D01*
X17143118Y-10950617D02*
X17143118Y-13243118D01*
X10621000Y-3379000D02*
X10975000Y-3379000D01*
X10446499Y-4936499D02*
X10446499Y-3553501D01*
X11462000Y-3866000D02*
X11462000Y-5984000D01*
X17832119Y-14062119D02*
X17960000Y-14190000D01*
X14913000Y-8720499D02*
X17143118Y-10950617D01*
X10446499Y-3553501D02*
X10621000Y-3379000D01*
X10495000Y-4985000D02*
X10446499Y-4936499D01*
X18157000Y-14257000D02*
X18507120Y-14257000D01*
X17143118Y-13243118D02*
X17194990Y-13294990D01*
X10975000Y-3379000D02*
X11462000Y-3866000D01*
X11462000Y-5984000D02*
X12421500Y-6943500D01*
X13708000Y-6953000D02*
X14913000Y-8158000D01*
X12421500Y-6943500D02*
X12421500Y-6953000D01*
X12421500Y-6953000D02*
X13708000Y-6953000D01*
G04 #@! TO.N,/PROC_OUT_2*
X18502120Y-14757000D02*
X18102120Y-14757000D01*
X17657032Y-14306912D02*
X18107120Y-14757000D01*
X18107120Y-14757000D02*
X18507120Y-14757000D01*
X12349009Y-7128011D02*
X13566011Y-7128011D01*
X16968108Y-13357282D02*
X17657032Y-14046206D01*
X11239000Y-6018000D02*
X12349009Y-7128011D01*
X10800000Y-3820000D02*
X11239000Y-4259000D01*
X13566011Y-7128011D02*
X14721000Y-8283000D01*
X14721000Y-8283000D02*
X14721000Y-8776000D01*
X11239000Y-4259000D02*
X11239000Y-6018000D01*
X14721000Y-8776000D02*
X16968108Y-11023109D01*
X17657032Y-14046206D02*
X17657032Y-14306912D01*
X16968108Y-11023109D02*
X16968108Y-13357282D01*
G04 #@! TO.N,/USB_DET*
X6733354Y-19123464D02*
X7656818Y-18200000D01*
X7656818Y-18200000D02*
X8240000Y-18200000D01*
X5489964Y-19123464D02*
X6733354Y-19123464D01*
X5000000Y-18633500D02*
X5489964Y-19123464D01*
G04 #@! TO.N,/CTRL_SS*
X12530000Y-19000000D02*
X12099000Y-19000000D01*
X11470000Y-19000000D02*
X11190000Y-19000000D01*
X12530000Y-19000000D02*
X11470000Y-19000000D01*
X10400000Y-19000000D02*
X10280000Y-18880000D01*
X11470000Y-19000000D02*
X10400000Y-19000000D01*
X16520000Y-19000000D02*
X12530000Y-19000000D01*
X16900000Y-18620000D02*
X16520000Y-19000000D01*
X17510000Y-18620000D02*
X16900000Y-18620000D01*
G04 #@! TO.N,/DONE*
X22254000Y-11257000D02*
X21195000Y-12316000D01*
X24001220Y-11257000D02*
X22254000Y-11257000D01*
G04 #@! TO.N,/DBG_RX*
X1933018Y-7757000D02*
X2008526Y-7681492D01*
X1002120Y-7757000D02*
X1933018Y-7757000D01*
D15*
G04 #@! TO.N,/VUSB*
X5801220Y-14557000D02*
X5077000Y-14557000D01*
X6101220Y-14257000D02*
X5801220Y-14557000D01*
X6501220Y-14257000D02*
X6101220Y-14257000D01*
X4589832Y-14069832D02*
X4561442Y-14069832D01*
X5077000Y-14557000D02*
X4589832Y-14069832D01*
X6501220Y-14757000D02*
X6153000Y-14757000D01*
X6153000Y-14757000D02*
X5890000Y-15020000D01*
X5890000Y-15020000D02*
X4630000Y-15020000D01*
X4092500Y-14482500D02*
X4092500Y-14420000D01*
X4630000Y-15020000D02*
X4092500Y-14482500D01*
G04 #@! TO.N,/1V2_SYS*
X1883000Y-13257000D02*
X1002120Y-13257000D01*
X2110000Y-13030000D02*
X1883000Y-13257000D01*
X2110000Y-12870000D02*
X2110000Y-13030000D01*
D14*
G04 #@! TO.N,/E_PROC_SI*
X24001220Y-5757000D02*
X23123360Y-5757000D01*
X23123360Y-5757000D02*
X23097225Y-5730865D01*
G04 #@! TO.N,/E_PROC_SO*
X22819000Y-6257000D02*
X22805000Y-6243000D01*
X24001220Y-6257000D02*
X22819000Y-6257000D01*
G04 #@! TO.N,/E_PROC_SCK*
X23143000Y-6757000D02*
X23121000Y-6779000D01*
X24001220Y-6757000D02*
X23143000Y-6757000D01*
G04 #@! TO.N,/E_PROC_SS*
X22821000Y-7257000D02*
X22811000Y-7247000D01*
X24001220Y-7257000D02*
X22821000Y-7257000D01*
G04 #@! TO.N,/CTRL_RST_FLASH_SOC_CS*
X22878000Y-8257000D02*
X22847000Y-8226000D01*
X24001220Y-8257000D02*
X22878000Y-8257000D01*
X22457499Y-7836499D02*
X22618501Y-7997501D01*
X22618501Y-7997501D02*
X22847000Y-8226000D01*
X22457499Y-5147499D02*
X22457499Y-7836499D01*
X8218281Y-8417341D02*
X8218281Y-7311719D01*
X8516570Y-8715630D02*
X8218281Y-8417341D01*
X10739182Y-2550000D02*
X11899182Y-1390000D01*
X19930000Y-2620000D02*
X22457499Y-5147499D01*
X19860000Y-2550000D02*
X19930000Y-2620000D01*
X9736998Y-5793002D02*
X9736998Y-3383002D01*
X18700000Y-1390000D02*
X19930000Y-2620000D01*
X9736998Y-3383002D02*
X10570000Y-2550000D01*
X10570000Y-2550000D02*
X10739182Y-2550000D01*
X8218281Y-7311719D02*
X9736998Y-5793002D01*
X11899182Y-1390000D02*
X18700000Y-1390000D01*
G04 #@! TO.N,/E_CTRL_SI*
X23137000Y-8757000D02*
X23115000Y-8779000D01*
X24001220Y-8757000D02*
X23137000Y-8757000D01*
G04 #@! TO.N,/E_CTRL_SO*
X22893000Y-9257000D02*
X22805000Y-9345000D01*
X24001220Y-9257000D02*
X22893000Y-9257000D01*
G04 #@! TO.N,/E_CTRL_SCK*
X23153000Y-9757000D02*
X23121000Y-9789000D01*
X24001220Y-9757000D02*
X23153000Y-9757000D01*
G04 #@! TO.N,/E_CTRL_SS*
X23013554Y-10257000D02*
X22847291Y-10423263D01*
X24001220Y-10257000D02*
X23013554Y-10257000D01*
G04 #@! TO.N,/PIO7*
X13026853Y-3950000D02*
X12230000Y-3153147D01*
X13350000Y-3950000D02*
X13026853Y-3950000D01*
X12230000Y-2511793D02*
X12268233Y-2473560D01*
X12230000Y-3153147D02*
X12230000Y-2511793D01*
G04 #@! TO.N,/VX*
X9400030Y-18276883D02*
X9400030Y-18600030D01*
X9400030Y-16549566D02*
X9400030Y-18276883D01*
X9424798Y-16524798D02*
X9400030Y-16549566D01*
G04 #@! TO.N,/AMUX*
X7780130Y-16279610D02*
X8008629Y-16051111D01*
X7039740Y-17020000D02*
X7780130Y-16279610D01*
X4325318Y-18714682D02*
X3780000Y-18169364D01*
X3780000Y-18169364D02*
X3780000Y-17660000D01*
X4420000Y-17020000D02*
X7039740Y-17020000D01*
X3780000Y-17660000D02*
X4420000Y-17020000D01*
G04 #@! TO.N,/DMUX*
X8410000Y-19150000D02*
X7820000Y-18560000D01*
X9350000Y-19150000D02*
X8410000Y-19150000D01*
X10010000Y-18490000D02*
X9350000Y-19150000D01*
X11501000Y-11799000D02*
X11501000Y-14056500D01*
X11501000Y-14056500D02*
X10010000Y-15547500D01*
X10010000Y-15547500D02*
X10010000Y-18490000D01*
G04 #@! TO.N,/FLASH_CLK*
X23351220Y-11757000D02*
X24001220Y-11757000D01*
X21598000Y-12475000D02*
X22316000Y-11757000D01*
X15474000Y-10027000D02*
X15474000Y-13674000D01*
X14706000Y-9259000D02*
X15474000Y-10027000D01*
X8932000Y-8112000D02*
X10079000Y-9259000D01*
X17482022Y-16694014D02*
X18123964Y-17335956D01*
X10079000Y-9259000D02*
X14706000Y-9259000D01*
X8932000Y-7433500D02*
X8932000Y-8112000D01*
X22316000Y-11757000D02*
X23351220Y-11757000D01*
X17482022Y-15682022D02*
X17482022Y-16694014D01*
X18123964Y-17335956D02*
X20664036Y-17335956D01*
X21598000Y-16401992D02*
X21598000Y-12475000D01*
X15474000Y-13674000D02*
X17482022Y-15682022D01*
X20664036Y-17335956D02*
X21598000Y-16401992D01*
G04 #@! TO.N,/FLASH_CS*
X22561000Y-12257000D02*
X24001220Y-12257000D01*
X22193000Y-12625000D02*
X22561000Y-12257000D01*
X15123978Y-10185478D02*
X15123978Y-13818982D01*
X22047000Y-16447996D02*
X22047000Y-14271500D01*
X17132000Y-15827004D02*
X17132000Y-16838996D01*
X15123978Y-13818982D02*
X17132000Y-15827004D01*
X17132000Y-16838996D02*
X17978982Y-17685978D01*
X8953786Y-9069130D02*
X9493678Y-9609022D01*
X20809018Y-17685978D02*
X22047000Y-16447996D01*
X22047000Y-14271500D02*
X22158500Y-14160000D01*
X9493678Y-9609022D02*
X14547522Y-9609022D01*
X14547522Y-9609022D02*
X15123978Y-10185478D01*
X17978982Y-17685978D02*
X20809018Y-17685978D01*
G04 #@! TO.N,/FLASH_IO0*
X21805000Y-16442494D02*
X21805000Y-13589000D01*
X14620013Y-9434011D02*
X15298989Y-10112987D01*
X21805000Y-13589000D02*
X22637000Y-12757000D01*
X20736527Y-17510967D02*
X21805000Y-16442494D01*
X17307011Y-15754513D02*
X17307011Y-16766505D01*
X18051473Y-17510967D02*
X20736527Y-17510967D01*
X23351220Y-12757000D02*
X24001220Y-12757000D01*
X17307011Y-16766505D02*
X18051473Y-17510967D01*
X22637000Y-12757000D02*
X23351220Y-12757000D01*
X15298989Y-13746491D02*
X17307011Y-15754513D01*
X15298989Y-10112987D02*
X15298989Y-13746491D01*
X9819293Y-9434011D02*
X14620013Y-9434011D01*
X8571782Y-8186500D02*
X9819293Y-9434011D01*
G04 #@! TO.N,/FLASH_IO1*
X14948967Y-13891473D02*
X16947000Y-15889506D01*
X8237231Y-9950200D02*
X8645532Y-10358501D01*
X16947000Y-15889506D02*
X16947000Y-16901498D01*
X16947000Y-16901498D02*
X17906491Y-17860989D01*
X17906491Y-17860989D02*
X20881509Y-17860989D01*
X20881509Y-17860989D02*
X22260000Y-16482498D01*
X22260000Y-14581682D02*
X23584682Y-13257000D01*
X23584682Y-13257000D02*
X24001220Y-13257000D01*
X22260000Y-16482498D02*
X22260000Y-14581682D01*
X8645532Y-10358501D02*
X14613501Y-10358501D01*
X14948967Y-10693967D02*
X14948967Y-13891473D01*
X14613501Y-10358501D02*
X14948967Y-10693967D01*
G04 #@! TO.N,/FLASH_IO2*
X16754000Y-15944008D02*
X16754000Y-16956000D01*
X22503191Y-14590809D02*
X23337000Y-13757000D01*
X14773956Y-13963964D02*
X16754000Y-15944008D01*
X8181701Y-10542000D02*
X14350000Y-10542000D01*
X14350000Y-10542000D02*
X14773956Y-10965956D01*
X20954000Y-18036000D02*
X22503191Y-16486809D01*
X7693646Y-10053945D02*
X8181701Y-10542000D01*
X22503191Y-16486809D02*
X22503191Y-14590809D01*
X17834000Y-18036000D02*
X20954000Y-18036000D01*
X23337000Y-13757000D02*
X23693000Y-13757000D01*
X14773956Y-10965956D02*
X14773956Y-13963964D01*
X16754000Y-16956000D02*
X17834000Y-18036000D01*
G04 #@! TO.N,/FLASH_IO3*
X14552000Y-13489000D02*
X14552000Y-13717000D01*
X14552000Y-11138818D02*
X14552000Y-13489000D01*
X7685010Y-10723010D02*
X14136192Y-10723010D01*
X7880255Y-9555745D02*
X7557108Y-9555745D01*
X7557108Y-9555745D02*
X7340145Y-9772708D01*
X7340145Y-9772708D02*
X7340145Y-10378145D01*
X14136192Y-10723010D02*
X14552000Y-11138818D01*
X7340145Y-10378145D02*
X7685010Y-10723010D01*
X22678202Y-16559300D02*
X22678202Y-14861798D01*
X23283000Y-14257000D02*
X24001220Y-14257000D01*
X17761509Y-18211011D02*
X21026491Y-18211011D01*
X22678202Y-14861798D02*
X23283000Y-14257000D01*
X14552000Y-13489000D02*
X14552000Y-13989510D01*
X14552000Y-13989510D02*
X16578989Y-16016499D01*
X16578989Y-16016499D02*
X16578989Y-17028491D01*
X16578989Y-17028491D02*
X17761509Y-18211011D01*
X21026491Y-18211011D02*
X22678202Y-16559300D01*
G04 #@! TO.N,Net-(TP34-Pad1)*
X17480000Y-6060000D02*
X16539490Y-6060000D01*
X16539490Y-6060000D02*
X16356490Y-6243000D01*
X16730000Y-3960000D02*
X15900000Y-3130000D01*
X16730000Y-5310000D02*
X16730000Y-3960000D01*
X17480000Y-6060000D02*
X16730000Y-5310000D01*
G04 #@! TO.N,/C_CSI_D1_OUT_N*
X19470000Y-7273147D02*
X19470000Y-6950000D01*
X19470000Y-7444120D02*
X19470000Y-7273147D01*
X19157120Y-7757000D02*
X19470000Y-7444120D01*
X18507120Y-7757000D02*
X19157120Y-7757000D01*
G04 #@! TO.N,/C_CSI_D1_OUT_P*
X17897000Y-7257000D02*
X18507120Y-7257000D01*
X17520000Y-6880000D02*
X17897000Y-7257000D01*
G04 #@! TD*
M02*
