G04 #@! TF.GenerationSoftware,KiCad,Pcbnew,5.0.2+dfsg1-1~bpo9+1*
G04 #@! TF.CreationDate,2019-10-30T13:33:32+01:00*
G04 #@! TF.ProjectId,zglue-jade-adapter,7a676c75-652d-46a6-9164-652d61646170,rev?*
G04 #@! TF.SameCoordinates,Original*
G04 #@! TF.FileFunction,Paste,Bot*
G04 #@! TF.FilePolarity,Positive*
%FSLAX46Y46*%
G04 Gerber Fmt 4.6, Leading zero omitted, Abs format (unit mm)*
G04 Created by KiCad (PCBNEW 5.0.2+dfsg1-1~bpo9+1) date Wed 30 Oct 2019 01:33:32 PM CET*
%MOMM*%
%LPD*%
G01*
G04 APERTURE LIST*
%ADD10R,1.100000X0.300000*%
%ADD11R,1.320000X1.300000*%
G04 APERTURE END LIST*
D10*
G04 #@! TO.C,J1*
X6506220Y-14752000D03*
X6506220Y-14252000D03*
X6506220Y-13752000D03*
X6506220Y-13252000D03*
X6506220Y-12752000D03*
X6506220Y-12252000D03*
X6506220Y-11752000D03*
X6506220Y-11252000D03*
X6506220Y-10752000D03*
X6506220Y-10252000D03*
X6506220Y-9752000D03*
X6506220Y-9252000D03*
X6506220Y-8752000D03*
X6506220Y-8252000D03*
X6506220Y-7752000D03*
X6506220Y-7252000D03*
X6506220Y-6752000D03*
X6506220Y-6252000D03*
X6506220Y-5752000D03*
X6506220Y-5252000D03*
X1007120Y-14752000D03*
X1007120Y-14252000D03*
X1007120Y-13752000D03*
X1007120Y-13252000D03*
X1007120Y-12752000D03*
X1007120Y-12252000D03*
X1007120Y-11752000D03*
X1007120Y-11252000D03*
X1007120Y-10752000D03*
X1007120Y-10252000D03*
X1007120Y-9752000D03*
X1007120Y-9252000D03*
X1007120Y-8752000D03*
X1007120Y-8252000D03*
X1007120Y-7752000D03*
X1007120Y-7252000D03*
X1007120Y-6752000D03*
X1007120Y-6252000D03*
X1007120Y-5752000D03*
X1007120Y-5252000D03*
D11*
X6318260Y-15958500D03*
X1197620Y-15953420D03*
X6318260Y-4050980D03*
X1197620Y-4050980D03*
G04 #@! TD*
D10*
G04 #@! TO.C,J2*
X24006220Y-14752000D03*
X24006220Y-14252000D03*
X24006220Y-13752000D03*
X24006220Y-13252000D03*
X24006220Y-12752000D03*
X24006220Y-12252000D03*
X24006220Y-11752000D03*
X24006220Y-11252000D03*
X24006220Y-10752000D03*
X24006220Y-10252000D03*
X24006220Y-9752000D03*
X24006220Y-9252000D03*
X24006220Y-8752000D03*
X24006220Y-8252000D03*
X24006220Y-7752000D03*
X24006220Y-7252000D03*
X24006220Y-6752000D03*
X24006220Y-6252000D03*
X24006220Y-5752000D03*
X24006220Y-5252000D03*
X18507120Y-14752000D03*
X18507120Y-14252000D03*
X18507120Y-13752000D03*
X18507120Y-13252000D03*
X18507120Y-12752000D03*
X18507120Y-12252000D03*
X18507120Y-11752000D03*
X18507120Y-11252000D03*
X18507120Y-10752000D03*
X18507120Y-10252000D03*
X18507120Y-9752000D03*
X18507120Y-9252000D03*
X18507120Y-8752000D03*
X18507120Y-8252000D03*
X18507120Y-7752000D03*
X18507120Y-7252000D03*
X18507120Y-6752000D03*
X18507120Y-6252000D03*
X18507120Y-5752000D03*
X18507120Y-5252000D03*
D11*
X23818260Y-15958500D03*
X18697620Y-15953420D03*
X23818260Y-4050980D03*
X18697620Y-4050980D03*
G04 #@! TD*
M02*
