G04 #@! TF.GenerationSoftware,KiCad,Pcbnew,5.0.2+dfsg1-1~bpo9+1*
G04 #@! TF.CreationDate,2019-10-16T17:12:59+02:00*
G04 #@! TF.ProjectId,zglue-jade-adapter,7a676c75-652d-46a6-9164-652d61646170,rev?*
G04 #@! TF.SameCoordinates,Original*
G04 #@! TF.FileFunction,Legend,Bot*
G04 #@! TF.FilePolarity,Positive*
%FSLAX46Y46*%
G04 Gerber Fmt 4.6, Leading zero omitted, Abs format (unit mm)*
G04 Created by KiCad (PCBNEW 5.0.2+dfsg1-1~bpo9+1) date Wed 16 Oct 2019 05:12:59 PM CEST*
%MOMM*%
%LPD*%
G01*
G04 APERTURE LIST*
%ADD10C,0.150000*%
G04 APERTURE END LIST*
D10*
G04 #@! TO.C,J1*
X24341400Y-2638620D02*
X18141400Y-2638620D01*
X18141400Y-2638620D02*
X18141400Y-3238620D01*
X24341400Y-3238620D02*
X24341400Y-2638620D01*
X24346200Y-17326020D02*
X24346200Y-16726020D01*
X18146200Y-17326020D02*
X24346200Y-17326020D01*
X18146200Y-16726020D02*
X18146200Y-17326020D01*
G04 #@! TO.C,J2*
X6841400Y-2638620D02*
X641400Y-2638620D01*
X641400Y-2638620D02*
X641400Y-3238620D01*
X6841400Y-3238620D02*
X6841400Y-2638620D01*
X6846200Y-17326020D02*
X6846200Y-16726020D01*
X646200Y-17326020D02*
X6846200Y-17326020D01*
X646200Y-16726020D02*
X646200Y-17326020D01*
G04 #@! TO.C,J1*
X23483333Y-1116666D02*
X23483333Y-1616666D01*
X23516666Y-1716666D01*
X23583333Y-1783333D01*
X23683333Y-1816666D01*
X23750000Y-1816666D01*
X22783333Y-1816666D02*
X23183333Y-1816666D01*
X22983333Y-1816666D02*
X22983333Y-1116666D01*
X23050000Y-1216666D01*
X23116666Y-1283333D01*
X23183333Y-1316666D01*
G04 #@! TO.C,J2*
X6483333Y-1116666D02*
X6483333Y-1616666D01*
X6516666Y-1716666D01*
X6583333Y-1783333D01*
X6683333Y-1816666D01*
X6750000Y-1816666D01*
X6183333Y-1183333D02*
X6150000Y-1150000D01*
X6083333Y-1116666D01*
X5916666Y-1116666D01*
X5850000Y-1150000D01*
X5816666Y-1183333D01*
X5783333Y-1250000D01*
X5783333Y-1316666D01*
X5816666Y-1416666D01*
X6216666Y-1816666D01*
X5783333Y-1816666D01*
G04 #@! TD*
M02*
