G04 #@! TF.GenerationSoftware,KiCad,Pcbnew,5.0.2+dfsg1-1~bpo9+1*
G04 #@! TF.CreationDate,2019-10-28T12:22:29+01:00*
G04 #@! TF.ProjectId,zglue-jade-adapter,7a676c75-652d-46a6-9164-652d61646170,rev?*
G04 #@! TF.SameCoordinates,Original*
G04 #@! TF.FileFunction,Copper,L2,Inr*
G04 #@! TF.FilePolarity,Positive*
%FSLAX46Y46*%
G04 Gerber Fmt 4.6, Leading zero omitted, Abs format (unit mm)*
G04 Created by KiCad (PCBNEW 5.0.2+dfsg1-1~bpo9+1) date Mon 28 Oct 2019 12:22:29 PM CET*
%MOMM*%
%LPD*%
G01*
G04 APERTURE LIST*
G04 #@! TA.AperFunction,ViaPad*
%ADD10C,0.457000*%
G04 #@! TD*
G04 #@! TA.AperFunction,Conductor*
%ADD11C,0.254000*%
G04 #@! TD*
G04 APERTURE END LIST*
D10*
G04 #@! TO.N,GND*
G04 #@! TO.C,U1*
X13095000Y-11155000D03*
X11895000Y-11155000D03*
X13095000Y-10005000D03*
X11895000Y-10005000D03*
X13095000Y-8855000D03*
X11845000Y-8855000D03*
X14045000Y-11155000D03*
X10945000Y-11155000D03*
X10945000Y-10005000D03*
X14045000Y-10005000D03*
X14045000Y-8855000D03*
X10945000Y-8855000D03*
G04 #@! TD*
G04 #@! TO.N,GND*
X9780755Y-14856245D03*
X22506000Y-17406000D03*
X23115000Y-10883000D03*
X23158000Y-7764000D03*
X19427000Y-8509000D03*
X17456963Y-5256963D03*
X17470000Y-6720000D03*
X1960000Y-10650000D03*
X2050000Y-8240000D03*
X8907225Y-15782715D03*
X4670000Y-12330000D03*
X4886500Y-12990000D03*
X4797104Y-9029614D03*
X3880000Y-11460000D03*
X7540000Y-5270000D03*
X5534679Y-6695321D03*
X4620000Y-11243500D03*
X19520000Y-12120000D03*
X13130000Y-17483500D03*
X11518001Y-17816500D03*
X10670000Y-18550000D03*
X17130000Y-14300000D03*
X19480000Y-11590000D03*
X14778463Y-18148463D03*
X7354722Y-14270000D03*
X7301618Y-15078505D03*
X3730000Y-16320000D03*
G04 #@! TO.N,/CSI_D2_IN_P*
X14329787Y-15919997D03*
X7496500Y-6787000D03*
G04 #@! TO.N,/CSI_D2_IN_N*
X13900573Y-15490783D03*
X8103500Y-6787000D03*
G04 #@! TO.N,/3V3_SYS*
X18270000Y-18650000D03*
X4380000Y-3040000D03*
X1910000Y-14757000D03*
G04 #@! TO.N,/2V5*
X16000000Y-15920000D03*
X19960612Y-9356500D03*
G04 #@! TO.N,/1V8*
X11480000Y-18570000D03*
X15688058Y-17876196D03*
G04 #@! TO.N,/LED3_ISINK*
X13366026Y-12483965D03*
X2436000Y-10339000D03*
G04 #@! TO.N,/LED1_ISINK*
X12170000Y-12393000D03*
X2457000Y-9135000D03*
G04 #@! TO.N,/TMS*
X12761000Y-11860000D03*
X3099500Y-6470000D03*
G04 #@! TO.N,/VSENSE*
X12114000Y-11809000D03*
X15930000Y-18350000D03*
G04 #@! TO.N,/1V8_SYS*
X19670000Y-15250000D03*
X15730000Y-17260000D03*
X2157000Y-13757000D03*
G04 #@! TO.N,/LED2_ISINK*
X12822000Y-12389000D03*
X2443000Y-9766000D03*
G04 #@! TO.N,/EXTCLK_EN*
X10867000Y-11789000D03*
X6480000Y-18700000D03*
G04 #@! TO.N,/TDO*
X13603842Y-11725383D03*
X4026500Y-6450000D03*
G04 #@! TO.N,/3V3*
X19694963Y-16943500D03*
X7276762Y-15992510D03*
X7460000Y-19016500D03*
G04 #@! TO.N,/TDI*
X16341000Y-11837000D03*
X4394504Y-5357327D03*
G04 #@! TO.N,/PC_RDY*
X7896733Y-14906546D03*
X8990000Y-17816500D03*
X5879963Y-18769963D03*
G04 #@! TO.N,/TCK*
X14196000Y-11752000D03*
X1929500Y-6731000D03*
X4469470Y-8610470D03*
G04 #@! TO.N,/EXT_CLK*
X8336500Y-12665000D03*
X4260000Y-18010000D03*
G04 #@! TO.N,/I2C_0_SCL*
X19712000Y-10985000D03*
X1991000Y-11234000D03*
G04 #@! TO.N,/ZIP_EN_L*
X7945000Y-11743000D03*
X4092500Y-13780000D03*
G04 #@! TO.N,/PWR_BTN*
X8028000Y-11175500D03*
X3574500Y-10460000D03*
G04 #@! TO.N,/I2C_0_SDA*
X20656482Y-7472113D03*
X4990501Y-7976499D03*
G04 #@! TO.N,/CSI_D1_IN_N*
X4385393Y-7234607D03*
X15214490Y-15252043D03*
G04 #@! TO.N,/CSI_D1_OUT_N*
X16614607Y-11234607D03*
X19968996Y-8501448D03*
G04 #@! TO.N,/CSI_D1_IN_P*
X4814607Y-6805393D03*
X14858980Y-15681257D03*
G04 #@! TO.N,/CSI_CLK_IN_P*
X5059455Y-5500545D03*
X13004619Y-15659098D03*
G04 #@! TO.N,/CSI_CLK_IN_N*
X4670545Y-5889455D03*
X12575405Y-15229884D03*
G04 #@! TO.N,/CSI_CLK_OUT_N*
X16185393Y-13405393D03*
X19985393Y-6434607D03*
G04 #@! TO.N,/CTRL_SO*
X16300000Y-5630000D03*
X20588000Y-10291000D03*
G04 #@! TO.N,/CTRL_SI*
X17060000Y-8434000D03*
X19700000Y-5290000D03*
G04 #@! TO.N,/CTRL_SCK*
X17204917Y-18184167D03*
X12100000Y-18523510D03*
X20655000Y-10860000D03*
G04 #@! TO.N,/CSI_CLK_OUT_P*
X16614607Y-13834607D03*
X20414607Y-6005393D03*
G04 #@! TO.N,Net-(U1-PadD8)*
X14120000Y-8210000D03*
G04 #@! TO.N,/ULPM_WAKE*
X10870000Y-8225000D03*
X4472000Y-4831000D03*
G04 #@! TO.N,/2V5_SYS*
X17000000Y-19210000D03*
G04 #@! TO.N,/USB_D_N*
X16995480Y-7749122D03*
X5201441Y-14010583D03*
X9236847Y-4308213D03*
G04 #@! TO.N,/USB_D_P*
X4772227Y-13581369D03*
X16569544Y-8157342D03*
X9236847Y-3751213D03*
G04 #@! TO.N,/DBG_TX*
X13673500Y-4820000D03*
X2636510Y-6913000D03*
G04 #@! TO.N,/PROC_SCK*
X20386000Y-5402000D03*
X16002501Y-9207510D03*
G04 #@! TO.N,/PROC_SI*
X20560000Y-4248000D03*
X11232015Y-14996525D03*
G04 #@! TO.N,/PROC_OUT_0*
X10090499Y-3749500D03*
G04 #@! TO.N,/PROC_OUT_1*
X10495000Y-4985000D03*
G04 #@! TO.N,/PROC_OUT_2*
X10800000Y-3820000D03*
G04 #@! TO.N,/USB_DET*
X17087510Y-9473000D03*
X3739000Y-12390000D03*
X5000000Y-18633500D03*
X8240000Y-18200000D03*
G04 #@! TO.N,/CTRL_SS*
X20591000Y-12150000D03*
X17510000Y-18620000D03*
X10363468Y-18984814D03*
G04 #@! TO.N,/PIO1*
X6938000Y-1533500D03*
X4223000Y-1828000D03*
G04 #@! TO.N,/DONE*
X10800000Y-4420000D03*
X16683000Y-4608000D03*
X21195000Y-12316000D03*
G04 #@! TO.N,/DBG_RX*
X14600900Y-4420000D03*
X2008526Y-7681492D03*
G04 #@! TO.N,/PIO2*
X12170000Y-8215000D03*
X5384000Y-1887000D03*
G04 #@! TO.N,/PROC_SO*
X11803500Y-15452000D03*
X20483000Y-4873000D03*
G04 #@! TO.N,/VUSB*
X4561442Y-14069832D03*
X4092500Y-14420000D03*
G04 #@! TO.N,/1V2_SYS*
X2110000Y-12870000D03*
G04 #@! TO.N,/CSI_D1_OUT_P*
X20398210Y-8930662D03*
X16185393Y-10805393D03*
G04 #@! TO.N,/E_PROC_SI*
X23097225Y-5730865D03*
G04 #@! TO.N,/E_PROC_SO*
X22835000Y-6268000D03*
G04 #@! TO.N,/E_PROC_SCK*
X23121000Y-6779000D03*
G04 #@! TO.N,/E_PROC_SS*
X22811000Y-7247000D03*
G04 #@! TO.N,/CTRL_RST_FLASH_SOC_CS*
X8516570Y-8715630D03*
X22847000Y-8226000D03*
G04 #@! TO.N,/E_CTRL_SI*
X23115000Y-8779000D03*
G04 #@! TO.N,/E_CTRL_SO*
X22805000Y-9345000D03*
G04 #@! TO.N,/E_CTRL_SCK*
X23121000Y-9789000D03*
G04 #@! TO.N,/E_CTRL_SS*
X22847291Y-10423263D03*
G04 #@! TO.N,/PIO13*
X13470000Y-8205000D03*
X21079000Y-3028000D03*
G04 #@! TO.N,/PIO14*
X12845000Y-8230000D03*
X15616000Y-2146000D03*
G04 #@! TO.N,/PIO15*
X17538000Y-7384000D03*
X23060000Y-13180000D03*
G04 #@! TO.N,/PIO16*
X16540000Y-9480000D03*
X16810000Y-7230000D03*
X23710000Y-17450000D03*
G04 #@! TO.N,/PIO8*
X12820000Y-7530000D03*
X13170000Y-2354000D03*
G04 #@! TO.N,/PIO6*
X12170000Y-7530000D03*
X11086000Y-1680000D03*
G04 #@! TO.N,/VX*
X9530000Y-16510000D03*
X9400030Y-18600030D03*
G04 #@! TO.N,/AMUX*
X4325318Y-18714682D03*
X8008629Y-16051111D03*
G04 #@! TO.N,/DMUX*
X11501000Y-11799000D03*
X7820000Y-18560000D03*
G04 #@! TO.N,/FLASH_CLK*
X8932000Y-7433500D03*
G04 #@! TO.N,/FLASH_CS*
X8953786Y-9069130D03*
X22158500Y-14160000D03*
X22193000Y-12625000D03*
G04 #@! TO.N,/FLASH_IO0*
X8571782Y-8186500D03*
G04 #@! TO.N,/FLASH_IO1*
X8237231Y-9950200D03*
G04 #@! TO.N,/FLASH_IO2*
X7693646Y-10053945D03*
G04 #@! TO.N,/FLASH_IO3*
X7880255Y-9555745D03*
G04 #@! TO.N,/RAVEN_VCC*
X12848500Y-4820000D03*
G04 #@! TO.N,Net-(U1-PadC3)*
X11470000Y-8220000D03*
G04 #@! TO.N,Net-(U1-PadA9)*
X15353500Y-4300000D03*
G04 #@! TO.N,/BOOST_OUT*
X9040000Y-16960000D03*
X1740000Y-19240000D03*
G04 #@! TO.N,Net-(TP34-Pad1)*
X16515000Y-6243000D03*
X17480000Y-6060000D03*
G04 #@! TD*
D11*
G04 #@! TO.N,GND*
G36*
X24693000Y-19703000D02*
X297000Y-19703000D01*
X297000Y-19149395D01*
X1284500Y-19149395D01*
X1284500Y-19330605D01*
X1353846Y-19498020D01*
X1481980Y-19626154D01*
X1649395Y-19695500D01*
X1830605Y-19695500D01*
X1998020Y-19626154D01*
X2126154Y-19498020D01*
X2195500Y-19330605D01*
X2195500Y-19149395D01*
X2126154Y-18981980D01*
X1998020Y-18853846D01*
X1830605Y-18784500D01*
X1649395Y-18784500D01*
X1481980Y-18853846D01*
X1353846Y-18981980D01*
X1284500Y-19149395D01*
X297000Y-19149395D01*
X297000Y-17919395D01*
X3804500Y-17919395D01*
X3804500Y-18100605D01*
X3873846Y-18268020D01*
X4000826Y-18395000D01*
X3939164Y-18456662D01*
X3869818Y-18624077D01*
X3869818Y-18805287D01*
X3939164Y-18972702D01*
X4067298Y-19100836D01*
X4234713Y-19170182D01*
X4415923Y-19170182D01*
X4583338Y-19100836D01*
X4703250Y-18980924D01*
X4741980Y-19019654D01*
X4909395Y-19089000D01*
X5090605Y-19089000D01*
X5258020Y-19019654D01*
X5386154Y-18891520D01*
X5424463Y-18799034D01*
X5424463Y-18860568D01*
X5493809Y-19027983D01*
X5621943Y-19156117D01*
X5789358Y-19225463D01*
X5970568Y-19225463D01*
X6137983Y-19156117D01*
X6214963Y-19079137D01*
X6221980Y-19086154D01*
X6389395Y-19155500D01*
X6570605Y-19155500D01*
X6738020Y-19086154D01*
X6866154Y-18958020D01*
X6879460Y-18925895D01*
X7004500Y-18925895D01*
X7004500Y-19107105D01*
X7073846Y-19274520D01*
X7201980Y-19402654D01*
X7369395Y-19472000D01*
X7550605Y-19472000D01*
X7718020Y-19402654D01*
X7846154Y-19274520D01*
X7915500Y-19107105D01*
X7915500Y-19013472D01*
X8078020Y-18946154D01*
X8206154Y-18818020D01*
X8273472Y-18655500D01*
X8330605Y-18655500D01*
X8498020Y-18586154D01*
X8626154Y-18458020D01*
X8695500Y-18290605D01*
X8695500Y-18166174D01*
X8731980Y-18202654D01*
X8899395Y-18272000D01*
X9080605Y-18272000D01*
X9086206Y-18269680D01*
X9013876Y-18342010D01*
X8944530Y-18509425D01*
X8944530Y-18690635D01*
X9013876Y-18858050D01*
X9142010Y-18986184D01*
X9309425Y-19055530D01*
X9490635Y-19055530D01*
X9658050Y-18986184D01*
X9750025Y-18894209D01*
X9907968Y-18894209D01*
X9907968Y-19075419D01*
X9977314Y-19242834D01*
X10105448Y-19370968D01*
X10272863Y-19440314D01*
X10454073Y-19440314D01*
X10621488Y-19370968D01*
X10749622Y-19242834D01*
X10800752Y-19119395D01*
X16544500Y-19119395D01*
X16544500Y-19300605D01*
X16613846Y-19468020D01*
X16741980Y-19596154D01*
X16909395Y-19665500D01*
X17090605Y-19665500D01*
X17258020Y-19596154D01*
X17386154Y-19468020D01*
X17455500Y-19300605D01*
X17455500Y-19119395D01*
X17437318Y-19075500D01*
X17600605Y-19075500D01*
X17768020Y-19006154D01*
X17878664Y-18895510D01*
X17883846Y-18908020D01*
X18011980Y-19036154D01*
X18179395Y-19105500D01*
X18360605Y-19105500D01*
X18528020Y-19036154D01*
X18656154Y-18908020D01*
X18725500Y-18740605D01*
X18725500Y-18559395D01*
X18656154Y-18391980D01*
X18528020Y-18263846D01*
X18360605Y-18194500D01*
X18179395Y-18194500D01*
X18011980Y-18263846D01*
X17901336Y-18374490D01*
X17896154Y-18361980D01*
X17768020Y-18233846D01*
X17660417Y-18189275D01*
X17660417Y-18093562D01*
X17591071Y-17926147D01*
X17462937Y-17798013D01*
X17295522Y-17728667D01*
X17114312Y-17728667D01*
X16946897Y-17798013D01*
X16818763Y-17926147D01*
X16749417Y-18093562D01*
X16749417Y-18274772D01*
X16818763Y-18442187D01*
X16946897Y-18570321D01*
X17054500Y-18614892D01*
X17054500Y-18710605D01*
X17072682Y-18754500D01*
X16909395Y-18754500D01*
X16741980Y-18823846D01*
X16613846Y-18951980D01*
X16544500Y-19119395D01*
X10800752Y-19119395D01*
X10818968Y-19075419D01*
X10818968Y-18894209D01*
X10749622Y-18726794D01*
X10621488Y-18598660D01*
X10454073Y-18529314D01*
X10272863Y-18529314D01*
X10105448Y-18598660D01*
X9977314Y-18726794D01*
X9907968Y-18894209D01*
X9750025Y-18894209D01*
X9786184Y-18858050D01*
X9855530Y-18690635D01*
X9855530Y-18509425D01*
X9843092Y-18479395D01*
X11024500Y-18479395D01*
X11024500Y-18660605D01*
X11093846Y-18828020D01*
X11221980Y-18956154D01*
X11389395Y-19025500D01*
X11570605Y-19025500D01*
X11738020Y-18956154D01*
X11813245Y-18880929D01*
X11841980Y-18909664D01*
X12009395Y-18979010D01*
X12190605Y-18979010D01*
X12358020Y-18909664D01*
X12486154Y-18781530D01*
X12555500Y-18614115D01*
X12555500Y-18432905D01*
X12486154Y-18265490D01*
X12358020Y-18137356D01*
X12190605Y-18068010D01*
X12009395Y-18068010D01*
X11841980Y-18137356D01*
X11766755Y-18212581D01*
X11738020Y-18183846D01*
X11570605Y-18114500D01*
X11389395Y-18114500D01*
X11221980Y-18183846D01*
X11093846Y-18311980D01*
X11024500Y-18479395D01*
X9843092Y-18479395D01*
X9786184Y-18342010D01*
X9658050Y-18213876D01*
X9490635Y-18144530D01*
X9309425Y-18144530D01*
X9303824Y-18146850D01*
X9376154Y-18074520D01*
X9445500Y-17907105D01*
X9445500Y-17785591D01*
X15232558Y-17785591D01*
X15232558Y-17966801D01*
X15301904Y-18134216D01*
X15430038Y-18262350D01*
X15474500Y-18280767D01*
X15474500Y-18440605D01*
X15543846Y-18608020D01*
X15671980Y-18736154D01*
X15839395Y-18805500D01*
X16020605Y-18805500D01*
X16188020Y-18736154D01*
X16316154Y-18608020D01*
X16385500Y-18440605D01*
X16385500Y-18259395D01*
X16316154Y-18091980D01*
X16188020Y-17963846D01*
X16143558Y-17945429D01*
X16143558Y-17785591D01*
X16074212Y-17618176D01*
X16045105Y-17589069D01*
X16116154Y-17518020D01*
X16185500Y-17350605D01*
X16185500Y-17169395D01*
X16116154Y-17001980D01*
X15988020Y-16873846D01*
X15937441Y-16852895D01*
X19239463Y-16852895D01*
X19239463Y-17034105D01*
X19308809Y-17201520D01*
X19436943Y-17329654D01*
X19604358Y-17399000D01*
X19785568Y-17399000D01*
X19881182Y-17359395D01*
X23254500Y-17359395D01*
X23254500Y-17540605D01*
X23323846Y-17708020D01*
X23451980Y-17836154D01*
X23619395Y-17905500D01*
X23800605Y-17905500D01*
X23968020Y-17836154D01*
X24096154Y-17708020D01*
X24165500Y-17540605D01*
X24165500Y-17359395D01*
X24096154Y-17191980D01*
X23968020Y-17063846D01*
X23800605Y-16994500D01*
X23619395Y-16994500D01*
X23451980Y-17063846D01*
X23323846Y-17191980D01*
X23254500Y-17359395D01*
X19881182Y-17359395D01*
X19952983Y-17329654D01*
X20081117Y-17201520D01*
X20150463Y-17034105D01*
X20150463Y-16852895D01*
X20081117Y-16685480D01*
X19952983Y-16557346D01*
X19785568Y-16488000D01*
X19604358Y-16488000D01*
X19436943Y-16557346D01*
X19308809Y-16685480D01*
X19239463Y-16852895D01*
X15937441Y-16852895D01*
X15820605Y-16804500D01*
X15639395Y-16804500D01*
X15471980Y-16873846D01*
X15343846Y-17001980D01*
X15274500Y-17169395D01*
X15274500Y-17350605D01*
X15343846Y-17518020D01*
X15372953Y-17547127D01*
X15301904Y-17618176D01*
X15232558Y-17785591D01*
X9445500Y-17785591D01*
X9445500Y-17725895D01*
X9376154Y-17558480D01*
X9248020Y-17430346D01*
X9171392Y-17398605D01*
X9298020Y-17346154D01*
X9426154Y-17218020D01*
X9495500Y-17050605D01*
X9495500Y-16965500D01*
X9620605Y-16965500D01*
X9788020Y-16896154D01*
X9916154Y-16768020D01*
X9985500Y-16600605D01*
X9985500Y-16419395D01*
X9916154Y-16251980D01*
X9788020Y-16123846D01*
X9620605Y-16054500D01*
X9439395Y-16054500D01*
X9271980Y-16123846D01*
X9143846Y-16251980D01*
X9074500Y-16419395D01*
X9074500Y-16504500D01*
X8949395Y-16504500D01*
X8781980Y-16573846D01*
X8653846Y-16701980D01*
X8584500Y-16869395D01*
X8584500Y-17050605D01*
X8653846Y-17218020D01*
X8781980Y-17346154D01*
X8858608Y-17377895D01*
X8731980Y-17430346D01*
X8603846Y-17558480D01*
X8534500Y-17725895D01*
X8534500Y-17850326D01*
X8498020Y-17813846D01*
X8330605Y-17744500D01*
X8149395Y-17744500D01*
X7981980Y-17813846D01*
X7853846Y-17941980D01*
X7786528Y-18104500D01*
X7729395Y-18104500D01*
X7561980Y-18173846D01*
X7433846Y-18301980D01*
X7364500Y-18469395D01*
X7364500Y-18563028D01*
X7201980Y-18630346D01*
X7073846Y-18758480D01*
X7004500Y-18925895D01*
X6879460Y-18925895D01*
X6935500Y-18790605D01*
X6935500Y-18609395D01*
X6866154Y-18441980D01*
X6738020Y-18313846D01*
X6570605Y-18244500D01*
X6389395Y-18244500D01*
X6221980Y-18313846D01*
X6145000Y-18390826D01*
X6137983Y-18383809D01*
X5970568Y-18314463D01*
X5789358Y-18314463D01*
X5621943Y-18383809D01*
X5493809Y-18511943D01*
X5455500Y-18604429D01*
X5455500Y-18542895D01*
X5386154Y-18375480D01*
X5258020Y-18247346D01*
X5090605Y-18178000D01*
X4909395Y-18178000D01*
X4741980Y-18247346D01*
X4622068Y-18367258D01*
X4584492Y-18329682D01*
X4646154Y-18268020D01*
X4715500Y-18100605D01*
X4715500Y-17919395D01*
X4646154Y-17751980D01*
X4518020Y-17623846D01*
X4350605Y-17554500D01*
X4169395Y-17554500D01*
X4001980Y-17623846D01*
X3873846Y-17751980D01*
X3804500Y-17919395D01*
X297000Y-17919395D01*
X297000Y-15901905D01*
X6821262Y-15901905D01*
X6821262Y-16083115D01*
X6890608Y-16250530D01*
X7018742Y-16378664D01*
X7186157Y-16448010D01*
X7367367Y-16448010D01*
X7534782Y-16378664D01*
X7617156Y-16296290D01*
X7622475Y-16309131D01*
X7750609Y-16437265D01*
X7918024Y-16506611D01*
X8099234Y-16506611D01*
X8266649Y-16437265D01*
X8394783Y-16309131D01*
X8464129Y-16141716D01*
X8464129Y-15960506D01*
X8394783Y-15793091D01*
X8266649Y-15664957D01*
X8099234Y-15595611D01*
X7918024Y-15595611D01*
X7750609Y-15664957D01*
X7668235Y-15747331D01*
X7662916Y-15734490D01*
X7534782Y-15606356D01*
X7367367Y-15537010D01*
X7186157Y-15537010D01*
X7018742Y-15606356D01*
X6890608Y-15734490D01*
X6821262Y-15901905D01*
X297000Y-15901905D01*
X297000Y-14666395D01*
X1454500Y-14666395D01*
X1454500Y-14847605D01*
X1523846Y-15015020D01*
X1651980Y-15143154D01*
X1819395Y-15212500D01*
X2000605Y-15212500D01*
X2168020Y-15143154D01*
X2296154Y-15015020D01*
X2365500Y-14847605D01*
X2365500Y-14666395D01*
X2296154Y-14498980D01*
X2168020Y-14370846D01*
X2000605Y-14301500D01*
X1819395Y-14301500D01*
X1651980Y-14370846D01*
X1523846Y-14498980D01*
X1454500Y-14666395D01*
X297000Y-14666395D01*
X297000Y-12779395D01*
X1654500Y-12779395D01*
X1654500Y-12960605D01*
X1723846Y-13128020D01*
X1851980Y-13256154D01*
X2013925Y-13323234D01*
X1898980Y-13370846D01*
X1770846Y-13498980D01*
X1701500Y-13666395D01*
X1701500Y-13847605D01*
X1770846Y-14015020D01*
X1898980Y-14143154D01*
X2066395Y-14212500D01*
X2247605Y-14212500D01*
X2415020Y-14143154D01*
X2543154Y-14015020D01*
X2612500Y-13847605D01*
X2612500Y-13689395D01*
X3637000Y-13689395D01*
X3637000Y-13870605D01*
X3706346Y-14038020D01*
X3768326Y-14100000D01*
X3706346Y-14161980D01*
X3637000Y-14329395D01*
X3637000Y-14510605D01*
X3706346Y-14678020D01*
X3834480Y-14806154D01*
X4001895Y-14875500D01*
X4183105Y-14875500D01*
X4326892Y-14815941D01*
X7441233Y-14815941D01*
X7441233Y-14997151D01*
X7510579Y-15164566D01*
X7638713Y-15292700D01*
X7806128Y-15362046D01*
X7987338Y-15362046D01*
X8154753Y-15292700D01*
X8282887Y-15164566D01*
X8352233Y-14997151D01*
X8352233Y-14905920D01*
X10776515Y-14905920D01*
X10776515Y-15087130D01*
X10845861Y-15254545D01*
X10973995Y-15382679D01*
X11141410Y-15452025D01*
X11322620Y-15452025D01*
X11348000Y-15441512D01*
X11348000Y-15542605D01*
X11417346Y-15710020D01*
X11545480Y-15838154D01*
X11712895Y-15907500D01*
X11894105Y-15907500D01*
X12061520Y-15838154D01*
X12189654Y-15710020D01*
X12254593Y-15553246D01*
X12317385Y-15616038D01*
X12484800Y-15685384D01*
X12549119Y-15685384D01*
X12549119Y-15749703D01*
X12618465Y-15917118D01*
X12746599Y-16045252D01*
X12914014Y-16114598D01*
X13095224Y-16114598D01*
X13262639Y-16045252D01*
X13390773Y-15917118D01*
X13460119Y-15749703D01*
X13460119Y-15617712D01*
X13514419Y-15748803D01*
X13642553Y-15876937D01*
X13809968Y-15946283D01*
X13874287Y-15946283D01*
X13874287Y-16010602D01*
X13943633Y-16178017D01*
X14071767Y-16306151D01*
X14239182Y-16375497D01*
X14420392Y-16375497D01*
X14587807Y-16306151D01*
X14715941Y-16178017D01*
X14738208Y-16124261D01*
X14768375Y-16136757D01*
X14949585Y-16136757D01*
X15117000Y-16067411D01*
X15245134Y-15939277D01*
X15290648Y-15829395D01*
X15544500Y-15829395D01*
X15544500Y-16010605D01*
X15613846Y-16178020D01*
X15741980Y-16306154D01*
X15909395Y-16375500D01*
X16090605Y-16375500D01*
X16258020Y-16306154D01*
X16386154Y-16178020D01*
X16455500Y-16010605D01*
X16455500Y-15829395D01*
X16386154Y-15661980D01*
X16258020Y-15533846D01*
X16090605Y-15464500D01*
X15909395Y-15464500D01*
X15741980Y-15533846D01*
X15613846Y-15661980D01*
X15544500Y-15829395D01*
X15290648Y-15829395D01*
X15314480Y-15771862D01*
X15314480Y-15703656D01*
X15472510Y-15638197D01*
X15600644Y-15510063D01*
X15669990Y-15342648D01*
X15669990Y-15161438D01*
X15669144Y-15159395D01*
X19214500Y-15159395D01*
X19214500Y-15340605D01*
X19283846Y-15508020D01*
X19411980Y-15636154D01*
X19579395Y-15705500D01*
X19760605Y-15705500D01*
X19928020Y-15636154D01*
X20056154Y-15508020D01*
X20125500Y-15340605D01*
X20125500Y-15159395D01*
X20056154Y-14991980D01*
X19928020Y-14863846D01*
X19760605Y-14794500D01*
X19579395Y-14794500D01*
X19411980Y-14863846D01*
X19283846Y-14991980D01*
X19214500Y-15159395D01*
X15669144Y-15159395D01*
X15600644Y-14994023D01*
X15472510Y-14865889D01*
X15305095Y-14796543D01*
X15123885Y-14796543D01*
X14956470Y-14865889D01*
X14828336Y-14994023D01*
X14758990Y-15161438D01*
X14758990Y-15229644D01*
X14600960Y-15295103D01*
X14472826Y-15423237D01*
X14450559Y-15476993D01*
X14420392Y-15464497D01*
X14356073Y-15464497D01*
X14356073Y-15400178D01*
X14286727Y-15232763D01*
X14158593Y-15104629D01*
X13991178Y-15035283D01*
X13809968Y-15035283D01*
X13642553Y-15104629D01*
X13514419Y-15232763D01*
X13445073Y-15400178D01*
X13445073Y-15532169D01*
X13390773Y-15401078D01*
X13262639Y-15272944D01*
X13095224Y-15203598D01*
X13030905Y-15203598D01*
X13030905Y-15139279D01*
X12961559Y-14971864D01*
X12833425Y-14843730D01*
X12666010Y-14774384D01*
X12484800Y-14774384D01*
X12317385Y-14843730D01*
X12189251Y-14971864D01*
X12124312Y-15128638D01*
X12061520Y-15065846D01*
X11894105Y-14996500D01*
X11712895Y-14996500D01*
X11687515Y-15007013D01*
X11687515Y-14905920D01*
X11618169Y-14738505D01*
X11490035Y-14610371D01*
X11322620Y-14541025D01*
X11141410Y-14541025D01*
X10973995Y-14610371D01*
X10845861Y-14738505D01*
X10776515Y-14905920D01*
X8352233Y-14905920D01*
X8352233Y-14815941D01*
X8282887Y-14648526D01*
X8154753Y-14520392D01*
X7987338Y-14451046D01*
X7806128Y-14451046D01*
X7638713Y-14520392D01*
X7510579Y-14648526D01*
X7441233Y-14815941D01*
X4326892Y-14815941D01*
X4350520Y-14806154D01*
X4478654Y-14678020D01*
X4541900Y-14525332D01*
X4652047Y-14525332D01*
X4819462Y-14455986D01*
X4911066Y-14364382D01*
X4943421Y-14396737D01*
X5110836Y-14466083D01*
X5292046Y-14466083D01*
X5459461Y-14396737D01*
X5587595Y-14268603D01*
X5656941Y-14101188D01*
X5656941Y-13919978D01*
X5587595Y-13752563D01*
X5459461Y-13624429D01*
X5292046Y-13555083D01*
X5227727Y-13555083D01*
X5227727Y-13490764D01*
X5158381Y-13323349D01*
X5149820Y-13314788D01*
X15729893Y-13314788D01*
X15729893Y-13495998D01*
X15799239Y-13663413D01*
X15927373Y-13791547D01*
X16094788Y-13860893D01*
X16159107Y-13860893D01*
X16159107Y-13925212D01*
X16228453Y-14092627D01*
X16356587Y-14220761D01*
X16524002Y-14290107D01*
X16705212Y-14290107D01*
X16872627Y-14220761D01*
X17000761Y-14092627D01*
X17010384Y-14069395D01*
X21703000Y-14069395D01*
X21703000Y-14250605D01*
X21772346Y-14418020D01*
X21900480Y-14546154D01*
X22067895Y-14615500D01*
X22249105Y-14615500D01*
X22416520Y-14546154D01*
X22544654Y-14418020D01*
X22614000Y-14250605D01*
X22614000Y-14069395D01*
X22544654Y-13901980D01*
X22416520Y-13773846D01*
X22249105Y-13704500D01*
X22067895Y-13704500D01*
X21900480Y-13773846D01*
X21772346Y-13901980D01*
X21703000Y-14069395D01*
X17010384Y-14069395D01*
X17070107Y-13925212D01*
X17070107Y-13744002D01*
X17000761Y-13576587D01*
X16872627Y-13448453D01*
X16705212Y-13379107D01*
X16640893Y-13379107D01*
X16640893Y-13314788D01*
X16571547Y-13147373D01*
X16513569Y-13089395D01*
X22604500Y-13089395D01*
X22604500Y-13270605D01*
X22673846Y-13438020D01*
X22801980Y-13566154D01*
X22969395Y-13635500D01*
X23150605Y-13635500D01*
X23318020Y-13566154D01*
X23446154Y-13438020D01*
X23515500Y-13270605D01*
X23515500Y-13089395D01*
X23446154Y-12921980D01*
X23318020Y-12793846D01*
X23150605Y-12724500D01*
X22969395Y-12724500D01*
X22801980Y-12793846D01*
X22673846Y-12921980D01*
X22604500Y-13089395D01*
X16513569Y-13089395D01*
X16443413Y-13019239D01*
X16275998Y-12949893D01*
X16094788Y-12949893D01*
X15927373Y-13019239D01*
X15799239Y-13147373D01*
X15729893Y-13314788D01*
X5149820Y-13314788D01*
X5030247Y-13195215D01*
X4862832Y-13125869D01*
X4681622Y-13125869D01*
X4514207Y-13195215D01*
X4386073Y-13323349D01*
X4355012Y-13398338D01*
X4350520Y-13393846D01*
X4183105Y-13324500D01*
X4001895Y-13324500D01*
X3834480Y-13393846D01*
X3706346Y-13521980D01*
X3637000Y-13689395D01*
X2612500Y-13689395D01*
X2612500Y-13666395D01*
X2543154Y-13498980D01*
X2415020Y-13370846D01*
X2253075Y-13303766D01*
X2368020Y-13256154D01*
X2496154Y-13128020D01*
X2565500Y-12960605D01*
X2565500Y-12779395D01*
X2496154Y-12611980D01*
X2368020Y-12483846D01*
X2200605Y-12414500D01*
X2019395Y-12414500D01*
X1851980Y-12483846D01*
X1723846Y-12611980D01*
X1654500Y-12779395D01*
X297000Y-12779395D01*
X297000Y-12299395D01*
X3283500Y-12299395D01*
X3283500Y-12480605D01*
X3352846Y-12648020D01*
X3480980Y-12776154D01*
X3648395Y-12845500D01*
X3829605Y-12845500D01*
X3997020Y-12776154D01*
X4125154Y-12648020D01*
X4155650Y-12574395D01*
X7881000Y-12574395D01*
X7881000Y-12755605D01*
X7950346Y-12923020D01*
X8078480Y-13051154D01*
X8245895Y-13120500D01*
X8427105Y-13120500D01*
X8594520Y-13051154D01*
X8722654Y-12923020D01*
X8792000Y-12755605D01*
X8792000Y-12574395D01*
X8722654Y-12406980D01*
X8594520Y-12278846D01*
X8427105Y-12209500D01*
X8245895Y-12209500D01*
X8078480Y-12278846D01*
X7950346Y-12406980D01*
X7881000Y-12574395D01*
X4155650Y-12574395D01*
X4194500Y-12480605D01*
X4194500Y-12299395D01*
X4125154Y-12131980D01*
X3997020Y-12003846D01*
X3829605Y-11934500D01*
X3648395Y-11934500D01*
X3480980Y-12003846D01*
X3352846Y-12131980D01*
X3283500Y-12299395D01*
X297000Y-12299395D01*
X297000Y-11143395D01*
X1535500Y-11143395D01*
X1535500Y-11324605D01*
X1604846Y-11492020D01*
X1732980Y-11620154D01*
X1900395Y-11689500D01*
X2081605Y-11689500D01*
X2171183Y-11652395D01*
X7489500Y-11652395D01*
X7489500Y-11833605D01*
X7558846Y-12001020D01*
X7686980Y-12129154D01*
X7854395Y-12198500D01*
X8035605Y-12198500D01*
X8203020Y-12129154D01*
X8331154Y-12001020D01*
X8400500Y-11833605D01*
X8400500Y-11652395D01*
X8340392Y-11507282D01*
X8414154Y-11433520D01*
X8483500Y-11266105D01*
X8483500Y-11136592D01*
X10378916Y-11136592D01*
X10414962Y-11354624D01*
X10429051Y-11388638D01*
X10515929Y-11404463D01*
X10456462Y-11463930D01*
X10502179Y-11509647D01*
X10480846Y-11530980D01*
X10411500Y-11698395D01*
X10411500Y-11879605D01*
X10480846Y-12047020D01*
X10608980Y-12175154D01*
X10776395Y-12244500D01*
X10957605Y-12244500D01*
X11125020Y-12175154D01*
X11179000Y-12121174D01*
X11242980Y-12185154D01*
X11410395Y-12254500D01*
X11591605Y-12254500D01*
X11759020Y-12185154D01*
X11765922Y-12178252D01*
X11714500Y-12302395D01*
X11714500Y-12483605D01*
X11783846Y-12651020D01*
X11911980Y-12779154D01*
X12079395Y-12848500D01*
X12260605Y-12848500D01*
X12428020Y-12779154D01*
X12498000Y-12709174D01*
X12563980Y-12775154D01*
X12731395Y-12844500D01*
X12912605Y-12844500D01*
X13032659Y-12794772D01*
X13108006Y-12870119D01*
X13275421Y-12939465D01*
X13456631Y-12939465D01*
X13624046Y-12870119D01*
X13752180Y-12741985D01*
X13821526Y-12574570D01*
X13821526Y-12393360D01*
X13752180Y-12225945D01*
X13703407Y-12177172D01*
X13861862Y-12111537D01*
X13886613Y-12086787D01*
X13937980Y-12138154D01*
X14105395Y-12207500D01*
X14286605Y-12207500D01*
X14454020Y-12138154D01*
X14582154Y-12010020D01*
X14651500Y-11842605D01*
X14651500Y-11661395D01*
X14582154Y-11493980D01*
X14489776Y-11401602D01*
X14560949Y-11388638D01*
X14611084Y-11173408D01*
X14575038Y-10955376D01*
X14560949Y-10921362D01*
X14458816Y-10902758D01*
X14206574Y-11155000D01*
X14229732Y-11178158D01*
X14111390Y-11296500D01*
X14105395Y-11296500D01*
X14048495Y-11320069D01*
X14045000Y-11316574D01*
X14036562Y-11325012D01*
X14015745Y-11333635D01*
X13860268Y-11178158D01*
X13883426Y-11155000D01*
X13631184Y-10902758D01*
X13570000Y-10913903D01*
X13508816Y-10902758D01*
X13256574Y-11155000D01*
X13279732Y-11178158D01*
X13118158Y-11339732D01*
X13095000Y-11316574D01*
X13071842Y-11339732D01*
X12910268Y-11178158D01*
X12933426Y-11155000D01*
X12681184Y-10902758D01*
X12579051Y-10921362D01*
X12528916Y-11136592D01*
X12564962Y-11354624D01*
X12579051Y-11388638D01*
X12665929Y-11404463D01*
X12662708Y-11407684D01*
X12502980Y-11473846D01*
X12463000Y-11513826D01*
X12372020Y-11422846D01*
X12326550Y-11404012D01*
X12410949Y-11388638D01*
X12461084Y-11173408D01*
X12425038Y-10955376D01*
X12410949Y-10921362D01*
X12308816Y-10902758D01*
X12056574Y-11155000D01*
X12079732Y-11178158D01*
X11918158Y-11339732D01*
X11895000Y-11316574D01*
X11871842Y-11339732D01*
X11710268Y-11178158D01*
X11733426Y-11155000D01*
X11481184Y-10902758D01*
X11420000Y-10913903D01*
X11358816Y-10902758D01*
X11106574Y-11155000D01*
X11129732Y-11178158D01*
X10969474Y-11338416D01*
X10964981Y-11336555D01*
X10945000Y-11316574D01*
X10928074Y-11333500D01*
X10915610Y-11333500D01*
X10760268Y-11178158D01*
X10783426Y-11155000D01*
X10531184Y-10902758D01*
X10429051Y-10921362D01*
X10378916Y-11136592D01*
X8483500Y-11136592D01*
X8483500Y-11084895D01*
X8414154Y-10917480D01*
X8286020Y-10789346D01*
X8169748Y-10741184D01*
X10692758Y-10741184D01*
X10945000Y-10993426D01*
X11197242Y-10741184D01*
X11642758Y-10741184D01*
X11895000Y-10993426D01*
X12147242Y-10741184D01*
X12842758Y-10741184D01*
X13095000Y-10993426D01*
X13347242Y-10741184D01*
X13792758Y-10741184D01*
X14045000Y-10993426D01*
X14297242Y-10741184D01*
X14292434Y-10714788D01*
X15729893Y-10714788D01*
X15729893Y-10895998D01*
X15799239Y-11063413D01*
X15927373Y-11191547D01*
X16094788Y-11260893D01*
X16159107Y-11260893D01*
X16159107Y-11325212D01*
X16192377Y-11405532D01*
X16082980Y-11450846D01*
X15954846Y-11578980D01*
X15885500Y-11746395D01*
X15885500Y-11927605D01*
X15954846Y-12095020D01*
X16082980Y-12223154D01*
X16250395Y-12292500D01*
X16431605Y-12292500D01*
X16599020Y-12223154D01*
X16727154Y-12095020D01*
X16741910Y-12059395D01*
X20135500Y-12059395D01*
X20135500Y-12240605D01*
X20204846Y-12408020D01*
X20332980Y-12536154D01*
X20500395Y-12605500D01*
X20681605Y-12605500D01*
X20801342Y-12555903D01*
X20808846Y-12574020D01*
X20936980Y-12702154D01*
X21104395Y-12771500D01*
X21285605Y-12771500D01*
X21453020Y-12702154D01*
X21581154Y-12574020D01*
X21597567Y-12534395D01*
X21737500Y-12534395D01*
X21737500Y-12715605D01*
X21806846Y-12883020D01*
X21934980Y-13011154D01*
X22102395Y-13080500D01*
X22283605Y-13080500D01*
X22451020Y-13011154D01*
X22579154Y-12883020D01*
X22648500Y-12715605D01*
X22648500Y-12534395D01*
X22579154Y-12366980D01*
X22451020Y-12238846D01*
X22283605Y-12169500D01*
X22102395Y-12169500D01*
X21934980Y-12238846D01*
X21806846Y-12366980D01*
X21737500Y-12534395D01*
X21597567Y-12534395D01*
X21650500Y-12406605D01*
X21650500Y-12225395D01*
X21581154Y-12057980D01*
X21453020Y-11929846D01*
X21285605Y-11860500D01*
X21104395Y-11860500D01*
X20984658Y-11910097D01*
X20977154Y-11891980D01*
X20849020Y-11763846D01*
X20681605Y-11694500D01*
X20500395Y-11694500D01*
X20332980Y-11763846D01*
X20204846Y-11891980D01*
X20135500Y-12059395D01*
X16741910Y-12059395D01*
X16796500Y-11927605D01*
X16796500Y-11746395D01*
X16763230Y-11666075D01*
X16872627Y-11620761D01*
X17000761Y-11492627D01*
X17070107Y-11325212D01*
X17070107Y-11144002D01*
X17000761Y-10976587D01*
X16918569Y-10894395D01*
X19256500Y-10894395D01*
X19256500Y-11075605D01*
X19325846Y-11243020D01*
X19453980Y-11371154D01*
X19621395Y-11440500D01*
X19802605Y-11440500D01*
X19970020Y-11371154D01*
X20098154Y-11243020D01*
X20167500Y-11075605D01*
X20167500Y-10894395D01*
X20098154Y-10726980D01*
X19970020Y-10598846D01*
X19802605Y-10529500D01*
X19621395Y-10529500D01*
X19453980Y-10598846D01*
X19325846Y-10726980D01*
X19256500Y-10894395D01*
X16918569Y-10894395D01*
X16872627Y-10848453D01*
X16705212Y-10779107D01*
X16640893Y-10779107D01*
X16640893Y-10714788D01*
X16571547Y-10547373D01*
X16443413Y-10419239D01*
X16275998Y-10349893D01*
X16094788Y-10349893D01*
X15927373Y-10419239D01*
X15799239Y-10547373D01*
X15729893Y-10714788D01*
X14292434Y-10714788D01*
X14278638Y-10639051D01*
X14063408Y-10588916D01*
X13845376Y-10624962D01*
X13811362Y-10639051D01*
X13792758Y-10741184D01*
X13347242Y-10741184D01*
X13328638Y-10639051D01*
X13113408Y-10588916D01*
X12895376Y-10624962D01*
X12861362Y-10639051D01*
X12842758Y-10741184D01*
X12147242Y-10741184D01*
X12128638Y-10639051D01*
X11913408Y-10588916D01*
X11695376Y-10624962D01*
X11661362Y-10639051D01*
X11642758Y-10741184D01*
X11197242Y-10741184D01*
X11178638Y-10639051D01*
X10963408Y-10588916D01*
X10745376Y-10624962D01*
X10711362Y-10639051D01*
X10692758Y-10741184D01*
X8169748Y-10741184D01*
X8118605Y-10720000D01*
X7937395Y-10720000D01*
X7769980Y-10789346D01*
X7641846Y-10917480D01*
X7572500Y-11084895D01*
X7572500Y-11266105D01*
X7632608Y-11411218D01*
X7558846Y-11484980D01*
X7489500Y-11652395D01*
X2171183Y-11652395D01*
X2249020Y-11620154D01*
X2377154Y-11492020D01*
X2446500Y-11324605D01*
X2446500Y-11143395D01*
X2377154Y-10975980D01*
X2249020Y-10847846D01*
X2081605Y-10778500D01*
X1900395Y-10778500D01*
X1732980Y-10847846D01*
X1604846Y-10975980D01*
X1535500Y-11143395D01*
X297000Y-11143395D01*
X297000Y-10248395D01*
X1980500Y-10248395D01*
X1980500Y-10429605D01*
X2049846Y-10597020D01*
X2177980Y-10725154D01*
X2345395Y-10794500D01*
X2526605Y-10794500D01*
X2694020Y-10725154D01*
X2822154Y-10597020D01*
X2891500Y-10429605D01*
X2891500Y-10369395D01*
X3119000Y-10369395D01*
X3119000Y-10550605D01*
X3188346Y-10718020D01*
X3316480Y-10846154D01*
X3483895Y-10915500D01*
X3665105Y-10915500D01*
X3832520Y-10846154D01*
X3960654Y-10718020D01*
X4030000Y-10550605D01*
X4030000Y-10369395D01*
X3960654Y-10201980D01*
X3832520Y-10073846D01*
X3665105Y-10004500D01*
X3483895Y-10004500D01*
X3316480Y-10073846D01*
X3188346Y-10201980D01*
X3119000Y-10369395D01*
X2891500Y-10369395D01*
X2891500Y-10248395D01*
X2822154Y-10080980D01*
X2797174Y-10056000D01*
X2829154Y-10024020D01*
X2854288Y-9963340D01*
X7238146Y-9963340D01*
X7238146Y-10144550D01*
X7307492Y-10311965D01*
X7435626Y-10440099D01*
X7603041Y-10509445D01*
X7784251Y-10509445D01*
X7951666Y-10440099D01*
X7972949Y-10418816D01*
X10692758Y-10418816D01*
X10711362Y-10520949D01*
X10926592Y-10571084D01*
X11144624Y-10535038D01*
X11178638Y-10520949D01*
X11197242Y-10418816D01*
X11642758Y-10418816D01*
X11661362Y-10520949D01*
X11876592Y-10571084D01*
X12094624Y-10535038D01*
X12128638Y-10520949D01*
X12147242Y-10418816D01*
X12842758Y-10418816D01*
X12861362Y-10520949D01*
X13076592Y-10571084D01*
X13294624Y-10535038D01*
X13328638Y-10520949D01*
X13347242Y-10418816D01*
X13792758Y-10418816D01*
X13811362Y-10520949D01*
X14026592Y-10571084D01*
X14244624Y-10535038D01*
X14278638Y-10520949D01*
X14297242Y-10418816D01*
X14045000Y-10166574D01*
X13792758Y-10418816D01*
X13347242Y-10418816D01*
X13095000Y-10166574D01*
X12842758Y-10418816D01*
X12147242Y-10418816D01*
X11895000Y-10166574D01*
X11642758Y-10418816D01*
X11197242Y-10418816D01*
X10945000Y-10166574D01*
X10692758Y-10418816D01*
X7972949Y-10418816D01*
X8033092Y-10358673D01*
X8146626Y-10405700D01*
X8327836Y-10405700D01*
X8495251Y-10336354D01*
X8623385Y-10208220D01*
X8692731Y-10040805D01*
X8692731Y-9986592D01*
X10378916Y-9986592D01*
X10414962Y-10204624D01*
X10429051Y-10238638D01*
X10531184Y-10257242D01*
X10783426Y-10005000D01*
X11106574Y-10005000D01*
X11358816Y-10257242D01*
X11420000Y-10246097D01*
X11481184Y-10257242D01*
X11733426Y-10005000D01*
X12056574Y-10005000D01*
X12308816Y-10257242D01*
X12410949Y-10238638D01*
X12461084Y-10023408D01*
X12454998Y-9986592D01*
X12528916Y-9986592D01*
X12564962Y-10204624D01*
X12579051Y-10238638D01*
X12681184Y-10257242D01*
X12933426Y-10005000D01*
X13256574Y-10005000D01*
X13508816Y-10257242D01*
X13570000Y-10246097D01*
X13631184Y-10257242D01*
X13883426Y-10005000D01*
X14206574Y-10005000D01*
X14458816Y-10257242D01*
X14560949Y-10238638D01*
X14569857Y-10200395D01*
X20132500Y-10200395D01*
X20132500Y-10381605D01*
X20201846Y-10549020D01*
X20264734Y-10611908D01*
X20199500Y-10769395D01*
X20199500Y-10950605D01*
X20268846Y-11118020D01*
X20396980Y-11246154D01*
X20564395Y-11315500D01*
X20745605Y-11315500D01*
X20913020Y-11246154D01*
X21041154Y-11118020D01*
X21110500Y-10950605D01*
X21110500Y-10769395D01*
X21041154Y-10601980D01*
X20978266Y-10539092D01*
X21043500Y-10381605D01*
X21043500Y-10200395D01*
X20974154Y-10032980D01*
X20846020Y-9904846D01*
X20678605Y-9835500D01*
X20497395Y-9835500D01*
X20329980Y-9904846D01*
X20201846Y-10032980D01*
X20132500Y-10200395D01*
X14569857Y-10200395D01*
X14611084Y-10023408D01*
X14575038Y-9805376D01*
X14560949Y-9771362D01*
X14458816Y-9752758D01*
X14206574Y-10005000D01*
X13883426Y-10005000D01*
X13631184Y-9752758D01*
X13570000Y-9763903D01*
X13508816Y-9752758D01*
X13256574Y-10005000D01*
X12933426Y-10005000D01*
X12681184Y-9752758D01*
X12579051Y-9771362D01*
X12528916Y-9986592D01*
X12454998Y-9986592D01*
X12425038Y-9805376D01*
X12410949Y-9771362D01*
X12308816Y-9752758D01*
X12056574Y-10005000D01*
X11733426Y-10005000D01*
X11481184Y-9752758D01*
X11420000Y-9763903D01*
X11358816Y-9752758D01*
X11106574Y-10005000D01*
X10783426Y-10005000D01*
X10531184Y-9752758D01*
X10429051Y-9771362D01*
X10378916Y-9986592D01*
X8692731Y-9986592D01*
X8692731Y-9859595D01*
X8623385Y-9692180D01*
X8522389Y-9591184D01*
X10692758Y-9591184D01*
X10945000Y-9843426D01*
X11197242Y-9591184D01*
X11642758Y-9591184D01*
X11895000Y-9843426D01*
X12147242Y-9591184D01*
X12842758Y-9591184D01*
X13095000Y-9843426D01*
X13347242Y-9591184D01*
X13792758Y-9591184D01*
X14045000Y-9843426D01*
X14297242Y-9591184D01*
X14278638Y-9489051D01*
X14063408Y-9438916D01*
X13845376Y-9474962D01*
X13811362Y-9489051D01*
X13792758Y-9591184D01*
X13347242Y-9591184D01*
X13328638Y-9489051D01*
X13113408Y-9438916D01*
X12895376Y-9474962D01*
X12861362Y-9489051D01*
X12842758Y-9591184D01*
X12147242Y-9591184D01*
X12128638Y-9489051D01*
X11913408Y-9438916D01*
X11695376Y-9474962D01*
X11661362Y-9489051D01*
X11642758Y-9591184D01*
X11197242Y-9591184D01*
X11178638Y-9489051D01*
X10963408Y-9438916D01*
X10745376Y-9474962D01*
X10711362Y-9489051D01*
X10692758Y-9591184D01*
X8522389Y-9591184D01*
X8495251Y-9564046D01*
X8335755Y-9497980D01*
X8335755Y-9465140D01*
X8266409Y-9297725D01*
X8138275Y-9169591D01*
X7970860Y-9100245D01*
X7789650Y-9100245D01*
X7622235Y-9169591D01*
X7494101Y-9297725D01*
X7424755Y-9465140D01*
X7424755Y-9646350D01*
X7434219Y-9669198D01*
X7307492Y-9795925D01*
X7238146Y-9963340D01*
X2854288Y-9963340D01*
X2898500Y-9856605D01*
X2898500Y-9675395D01*
X2829154Y-9507980D01*
X2778674Y-9457500D01*
X2843154Y-9393020D01*
X2912500Y-9225605D01*
X2912500Y-9044395D01*
X2843154Y-8876980D01*
X2715020Y-8748846D01*
X2547605Y-8679500D01*
X2366395Y-8679500D01*
X2198980Y-8748846D01*
X2070846Y-8876980D01*
X2001500Y-9044395D01*
X2001500Y-9225605D01*
X2070846Y-9393020D01*
X2121326Y-9443500D01*
X2056846Y-9507980D01*
X1987500Y-9675395D01*
X1987500Y-9856605D01*
X2056846Y-10024020D01*
X2081826Y-10049000D01*
X2049846Y-10080980D01*
X1980500Y-10248395D01*
X297000Y-10248395D01*
X297000Y-8519865D01*
X4013970Y-8519865D01*
X4013970Y-8701075D01*
X4083316Y-8868490D01*
X4211450Y-8996624D01*
X4378865Y-9065970D01*
X4560075Y-9065970D01*
X4727490Y-8996624D01*
X4855624Y-8868490D01*
X4924970Y-8701075D01*
X4924970Y-8625025D01*
X8061070Y-8625025D01*
X8061070Y-8806235D01*
X8130416Y-8973650D01*
X8258550Y-9101784D01*
X8425965Y-9171130D01*
X8503006Y-9171130D01*
X8567632Y-9327150D01*
X8695766Y-9455284D01*
X8863181Y-9524630D01*
X9044391Y-9524630D01*
X9211806Y-9455284D01*
X9339940Y-9327150D01*
X9364102Y-9268816D01*
X10692758Y-9268816D01*
X10711362Y-9370949D01*
X10926592Y-9421084D01*
X11144624Y-9385038D01*
X11178638Y-9370949D01*
X11197242Y-9268816D01*
X11592758Y-9268816D01*
X11611362Y-9370949D01*
X11826592Y-9421084D01*
X12044624Y-9385038D01*
X12078638Y-9370949D01*
X12097242Y-9268816D01*
X12842758Y-9268816D01*
X12861362Y-9370949D01*
X13076592Y-9421084D01*
X13294624Y-9385038D01*
X13328638Y-9370949D01*
X13347242Y-9268816D01*
X13792758Y-9268816D01*
X13811362Y-9370949D01*
X14026592Y-9421084D01*
X14244624Y-9385038D01*
X14278638Y-9370949D01*
X14297242Y-9268816D01*
X14145331Y-9116905D01*
X15547001Y-9116905D01*
X15547001Y-9298115D01*
X15616347Y-9465530D01*
X15744481Y-9593664D01*
X15911896Y-9663010D01*
X16093106Y-9663010D01*
X16118431Y-9652520D01*
X16153846Y-9738020D01*
X16281980Y-9866154D01*
X16449395Y-9935500D01*
X16630605Y-9935500D01*
X16798020Y-9866154D01*
X16817255Y-9846919D01*
X16829490Y-9859154D01*
X16996905Y-9928500D01*
X17178115Y-9928500D01*
X17345530Y-9859154D01*
X17473664Y-9731020D01*
X17543010Y-9563605D01*
X17543010Y-9382395D01*
X17494754Y-9265895D01*
X19505112Y-9265895D01*
X19505112Y-9447105D01*
X19574458Y-9614520D01*
X19702592Y-9742654D01*
X19870007Y-9812000D01*
X20051217Y-9812000D01*
X20218632Y-9742654D01*
X20346766Y-9614520D01*
X20416112Y-9447105D01*
X20416112Y-9386162D01*
X20488815Y-9386162D01*
X20656230Y-9316816D01*
X20718651Y-9254395D01*
X22349500Y-9254395D01*
X22349500Y-9435605D01*
X22418846Y-9603020D01*
X22546980Y-9731154D01*
X22665500Y-9780247D01*
X22665500Y-9879605D01*
X22710023Y-9987092D01*
X22589271Y-10037109D01*
X22461137Y-10165243D01*
X22391791Y-10332658D01*
X22391791Y-10513868D01*
X22461137Y-10681283D01*
X22589271Y-10809417D01*
X22756686Y-10878763D01*
X22937896Y-10878763D01*
X23105311Y-10809417D01*
X23233445Y-10681283D01*
X23302791Y-10513868D01*
X23302791Y-10332658D01*
X23258268Y-10225171D01*
X23379020Y-10175154D01*
X23507154Y-10047020D01*
X23576500Y-9879605D01*
X23576500Y-9698395D01*
X23507154Y-9530980D01*
X23379020Y-9402846D01*
X23260500Y-9353753D01*
X23260500Y-9254395D01*
X23245427Y-9218005D01*
X23373020Y-9165154D01*
X23501154Y-9037020D01*
X23570500Y-8869605D01*
X23570500Y-8688395D01*
X23501154Y-8520980D01*
X23373020Y-8392846D01*
X23285872Y-8356748D01*
X23302500Y-8316605D01*
X23302500Y-8135395D01*
X23233154Y-7967980D01*
X23105020Y-7839846D01*
X22937605Y-7770500D01*
X22756395Y-7770500D01*
X22588980Y-7839846D01*
X22460846Y-7967980D01*
X22391500Y-8135395D01*
X22391500Y-8316605D01*
X22460846Y-8484020D01*
X22588980Y-8612154D01*
X22676128Y-8648252D01*
X22659500Y-8688395D01*
X22659500Y-8869605D01*
X22674573Y-8905995D01*
X22546980Y-8958846D01*
X22418846Y-9086980D01*
X22349500Y-9254395D01*
X20718651Y-9254395D01*
X20784364Y-9188682D01*
X20853710Y-9021267D01*
X20853710Y-8840057D01*
X20784364Y-8672642D01*
X20656230Y-8544508D01*
X20488815Y-8475162D01*
X20424496Y-8475162D01*
X20424496Y-8410843D01*
X20355150Y-8243428D01*
X20227016Y-8115294D01*
X20059601Y-8045948D01*
X19878391Y-8045948D01*
X19710976Y-8115294D01*
X19582842Y-8243428D01*
X19513496Y-8410843D01*
X19513496Y-8592053D01*
X19582842Y-8759468D01*
X19710976Y-8887602D01*
X19806664Y-8927238D01*
X19702592Y-8970346D01*
X19574458Y-9098480D01*
X19505112Y-9265895D01*
X17494754Y-9265895D01*
X17473664Y-9214980D01*
X17345530Y-9086846D01*
X17178115Y-9017500D01*
X16996905Y-9017500D01*
X16829490Y-9086846D01*
X16810255Y-9106081D01*
X16798020Y-9093846D01*
X16630605Y-9024500D01*
X16449395Y-9024500D01*
X16424070Y-9034990D01*
X16388655Y-8949490D01*
X16260521Y-8821356D01*
X16093106Y-8752010D01*
X15911896Y-8752010D01*
X15744481Y-8821356D01*
X15616347Y-8949490D01*
X15547001Y-9116905D01*
X14145331Y-9116905D01*
X14045000Y-9016574D01*
X13792758Y-9268816D01*
X13347242Y-9268816D01*
X13095000Y-9016574D01*
X12842758Y-9268816D01*
X12097242Y-9268816D01*
X11845000Y-9016574D01*
X11592758Y-9268816D01*
X11197242Y-9268816D01*
X10945000Y-9016574D01*
X10692758Y-9268816D01*
X9364102Y-9268816D01*
X9409286Y-9159735D01*
X9409286Y-8978525D01*
X9350496Y-8836592D01*
X10378916Y-8836592D01*
X10414962Y-9054624D01*
X10429051Y-9088638D01*
X10531184Y-9107242D01*
X10783426Y-8855000D01*
X10760268Y-8831842D01*
X10911610Y-8680500D01*
X10932074Y-8680500D01*
X10945000Y-8693426D01*
X10957926Y-8680500D01*
X10960605Y-8680500D01*
X10973181Y-8675291D01*
X11129732Y-8831842D01*
X11106574Y-8855000D01*
X11321159Y-9069585D01*
X11329051Y-9088638D01*
X11342698Y-9091124D01*
X11358816Y-9107242D01*
X11395000Y-9100651D01*
X11431184Y-9107242D01*
X11447302Y-9091124D01*
X11460949Y-9088638D01*
X11464338Y-9074088D01*
X11683426Y-8855000D01*
X11660268Y-8831842D01*
X11821842Y-8670268D01*
X11845000Y-8693426D01*
X11868158Y-8670268D01*
X12029732Y-8831842D01*
X12006574Y-8855000D01*
X12258816Y-9107242D01*
X12360949Y-9088638D01*
X12411084Y-8873408D01*
X12375038Y-8655376D01*
X12363627Y-8627827D01*
X12428020Y-8601154D01*
X12500000Y-8529174D01*
X12586980Y-8616154D01*
X12593291Y-8618768D01*
X12579051Y-8621362D01*
X12528916Y-8836592D01*
X12564962Y-9054624D01*
X12579051Y-9088638D01*
X12681184Y-9107242D01*
X12933426Y-8855000D01*
X12910268Y-8831842D01*
X13071842Y-8670268D01*
X13095000Y-8693426D01*
X13118158Y-8670268D01*
X13279732Y-8831842D01*
X13256574Y-8855000D01*
X13508816Y-9107242D01*
X13570000Y-9096097D01*
X13631184Y-9107242D01*
X13883426Y-8855000D01*
X13860268Y-8831842D01*
X14021842Y-8670268D01*
X14045000Y-8693426D01*
X14068158Y-8670268D01*
X14229732Y-8831842D01*
X14206574Y-8855000D01*
X14458816Y-9107242D01*
X14560949Y-9088638D01*
X14611084Y-8873408D01*
X14575038Y-8655376D01*
X14560949Y-8621362D01*
X14474071Y-8605537D01*
X14533538Y-8546070D01*
X14480821Y-8493353D01*
X14506154Y-8468020D01*
X14575500Y-8300605D01*
X14575500Y-8119395D01*
X14553689Y-8066737D01*
X16114044Y-8066737D01*
X16114044Y-8247947D01*
X16183390Y-8415362D01*
X16311524Y-8543496D01*
X16478939Y-8612842D01*
X16641049Y-8612842D01*
X16673846Y-8692020D01*
X16801980Y-8820154D01*
X16969395Y-8889500D01*
X17150605Y-8889500D01*
X17318020Y-8820154D01*
X17446154Y-8692020D01*
X17515500Y-8524605D01*
X17515500Y-8343395D01*
X17446154Y-8175980D01*
X17329475Y-8059301D01*
X17381634Y-8007142D01*
X17450980Y-7839727D01*
X17450980Y-7839500D01*
X17628605Y-7839500D01*
X17796020Y-7770154D01*
X17924154Y-7642020D01*
X17993500Y-7474605D01*
X17993500Y-7381508D01*
X20200982Y-7381508D01*
X20200982Y-7562718D01*
X20270328Y-7730133D01*
X20398462Y-7858267D01*
X20565877Y-7927613D01*
X20747087Y-7927613D01*
X20914502Y-7858267D01*
X21042636Y-7730133D01*
X21111982Y-7562718D01*
X21111982Y-7381508D01*
X21042636Y-7214093D01*
X20984938Y-7156395D01*
X22355500Y-7156395D01*
X22355500Y-7337605D01*
X22424846Y-7505020D01*
X22552980Y-7633154D01*
X22720395Y-7702500D01*
X22901605Y-7702500D01*
X23069020Y-7633154D01*
X23197154Y-7505020D01*
X23266500Y-7337605D01*
X23266500Y-7211762D01*
X23379020Y-7165154D01*
X23507154Y-7037020D01*
X23576500Y-6869605D01*
X23576500Y-6688395D01*
X23507154Y-6520980D01*
X23379020Y-6392846D01*
X23290500Y-6356180D01*
X23290500Y-6177395D01*
X23278636Y-6148752D01*
X23355245Y-6117019D01*
X23483379Y-5988885D01*
X23552725Y-5821470D01*
X23552725Y-5640260D01*
X23483379Y-5472845D01*
X23355245Y-5344711D01*
X23187830Y-5275365D01*
X23006620Y-5275365D01*
X22839205Y-5344711D01*
X22711071Y-5472845D01*
X22641725Y-5640260D01*
X22641725Y-5821470D01*
X22653589Y-5850113D01*
X22576980Y-5881846D01*
X22448846Y-6009980D01*
X22379500Y-6177395D01*
X22379500Y-6358605D01*
X22448846Y-6526020D01*
X22576980Y-6654154D01*
X22665500Y-6690820D01*
X22665500Y-6814238D01*
X22552980Y-6860846D01*
X22424846Y-6988980D01*
X22355500Y-7156395D01*
X20984938Y-7156395D01*
X20914502Y-7085959D01*
X20747087Y-7016613D01*
X20565877Y-7016613D01*
X20398462Y-7085959D01*
X20270328Y-7214093D01*
X20200982Y-7381508D01*
X17993500Y-7381508D01*
X17993500Y-7293395D01*
X17924154Y-7125980D01*
X17796020Y-6997846D01*
X17628605Y-6928500D01*
X17447395Y-6928500D01*
X17279980Y-6997846D01*
X17228282Y-7049544D01*
X17196154Y-6971980D01*
X17068020Y-6843846D01*
X16900605Y-6774500D01*
X16719395Y-6774500D01*
X16551980Y-6843846D01*
X16423846Y-6971980D01*
X16354500Y-7139395D01*
X16354500Y-7320605D01*
X16423846Y-7488020D01*
X16551980Y-7616154D01*
X16556715Y-7618115D01*
X16539980Y-7658517D01*
X16539980Y-7701842D01*
X16478939Y-7701842D01*
X16311524Y-7771188D01*
X16183390Y-7899322D01*
X16114044Y-8066737D01*
X14553689Y-8066737D01*
X14506154Y-7951980D01*
X14378020Y-7823846D01*
X14210605Y-7754500D01*
X14029395Y-7754500D01*
X13861980Y-7823846D01*
X13797500Y-7888326D01*
X13728020Y-7818846D01*
X13560605Y-7749500D01*
X13379395Y-7749500D01*
X13211980Y-7818846D01*
X13145000Y-7885826D01*
X13126674Y-7867500D01*
X13206154Y-7788020D01*
X13275500Y-7620605D01*
X13275500Y-7439395D01*
X13206154Y-7271980D01*
X13078020Y-7143846D01*
X12910605Y-7074500D01*
X12729395Y-7074500D01*
X12561980Y-7143846D01*
X12495000Y-7210826D01*
X12428020Y-7143846D01*
X12260605Y-7074500D01*
X12079395Y-7074500D01*
X11911980Y-7143846D01*
X11783846Y-7271980D01*
X11714500Y-7439395D01*
X11714500Y-7620605D01*
X11783846Y-7788020D01*
X11868326Y-7872500D01*
X11817500Y-7923326D01*
X11728020Y-7833846D01*
X11560605Y-7764500D01*
X11379395Y-7764500D01*
X11211980Y-7833846D01*
X11167500Y-7878326D01*
X11128020Y-7838846D01*
X10960605Y-7769500D01*
X10779395Y-7769500D01*
X10611980Y-7838846D01*
X10483846Y-7966980D01*
X10414500Y-8134395D01*
X10414500Y-8315605D01*
X10483846Y-8483020D01*
X10501679Y-8500853D01*
X10456462Y-8546070D01*
X10515929Y-8605537D01*
X10429051Y-8621362D01*
X10378916Y-8836592D01*
X9350496Y-8836592D01*
X9339940Y-8811110D01*
X9211806Y-8682976D01*
X9044391Y-8613630D01*
X8967350Y-8613630D01*
X8915061Y-8487395D01*
X8957936Y-8444520D01*
X9027282Y-8277105D01*
X9027282Y-8095895D01*
X8957936Y-7928480D01*
X8918456Y-7889000D01*
X9022605Y-7889000D01*
X9190020Y-7819654D01*
X9318154Y-7691520D01*
X9387500Y-7524105D01*
X9387500Y-7342895D01*
X9318154Y-7175480D01*
X9190020Y-7047346D01*
X9022605Y-6978000D01*
X8841395Y-6978000D01*
X8673980Y-7047346D01*
X8545846Y-7175480D01*
X8476500Y-7342895D01*
X8476500Y-7524105D01*
X8545846Y-7691520D01*
X8585326Y-7731000D01*
X8481177Y-7731000D01*
X8313762Y-7800346D01*
X8185628Y-7928480D01*
X8116282Y-8095895D01*
X8116282Y-8277105D01*
X8173291Y-8414735D01*
X8130416Y-8457610D01*
X8061070Y-8625025D01*
X4924970Y-8625025D01*
X4924970Y-8519865D01*
X4886230Y-8426338D01*
X4899896Y-8431999D01*
X5081106Y-8431999D01*
X5248521Y-8362653D01*
X5376655Y-8234519D01*
X5446001Y-8067104D01*
X5446001Y-7885894D01*
X5376655Y-7718479D01*
X5248521Y-7590345D01*
X5081106Y-7520999D01*
X4899896Y-7520999D01*
X4732481Y-7590345D01*
X4604347Y-7718479D01*
X4535001Y-7885894D01*
X4535001Y-8067104D01*
X4573741Y-8160631D01*
X4560075Y-8154970D01*
X4378865Y-8154970D01*
X4211450Y-8224316D01*
X4083316Y-8352450D01*
X4013970Y-8519865D01*
X297000Y-8519865D01*
X297000Y-7590887D01*
X1553026Y-7590887D01*
X1553026Y-7772097D01*
X1622372Y-7939512D01*
X1750506Y-8067646D01*
X1917921Y-8136992D01*
X2099131Y-8136992D01*
X2266546Y-8067646D01*
X2394680Y-7939512D01*
X2464026Y-7772097D01*
X2464026Y-7590887D01*
X2394680Y-7423472D01*
X2266546Y-7295338D01*
X2099131Y-7225992D01*
X1917921Y-7225992D01*
X1750506Y-7295338D01*
X1622372Y-7423472D01*
X1553026Y-7590887D01*
X297000Y-7590887D01*
X297000Y-6640395D01*
X1474000Y-6640395D01*
X1474000Y-6821605D01*
X1543346Y-6989020D01*
X1671480Y-7117154D01*
X1838895Y-7186500D01*
X2020105Y-7186500D01*
X2187520Y-7117154D01*
X2216175Y-7088499D01*
X2250356Y-7171020D01*
X2378490Y-7299154D01*
X2545905Y-7368500D01*
X2727115Y-7368500D01*
X2894530Y-7299154D01*
X3022664Y-7171020D01*
X3092010Y-7003605D01*
X3092010Y-6925500D01*
X3190105Y-6925500D01*
X3357520Y-6856154D01*
X3485654Y-6728020D01*
X3555000Y-6560605D01*
X3555000Y-6379395D01*
X3546716Y-6359395D01*
X3571000Y-6359395D01*
X3571000Y-6540605D01*
X3640346Y-6708020D01*
X3768480Y-6836154D01*
X3935895Y-6905500D01*
X4070326Y-6905500D01*
X3999239Y-6976587D01*
X3929893Y-7144002D01*
X3929893Y-7325212D01*
X3999239Y-7492627D01*
X4127373Y-7620761D01*
X4294788Y-7690107D01*
X4475998Y-7690107D01*
X4643413Y-7620761D01*
X4771547Y-7492627D01*
X4840893Y-7325212D01*
X4840893Y-7260893D01*
X4905212Y-7260893D01*
X5072627Y-7191547D01*
X5200761Y-7063413D01*
X5270107Y-6895998D01*
X5270107Y-6714788D01*
X5262489Y-6696395D01*
X7041000Y-6696395D01*
X7041000Y-6877605D01*
X7110346Y-7045020D01*
X7238480Y-7173154D01*
X7405895Y-7242500D01*
X7587105Y-7242500D01*
X7754520Y-7173154D01*
X7800000Y-7127674D01*
X7845480Y-7173154D01*
X8012895Y-7242500D01*
X8194105Y-7242500D01*
X8361520Y-7173154D01*
X8489654Y-7045020D01*
X8559000Y-6877605D01*
X8559000Y-6696395D01*
X8489654Y-6528980D01*
X8361520Y-6400846D01*
X8194105Y-6331500D01*
X8012895Y-6331500D01*
X7845480Y-6400846D01*
X7800000Y-6446326D01*
X7754520Y-6400846D01*
X7587105Y-6331500D01*
X7405895Y-6331500D01*
X7238480Y-6400846D01*
X7110346Y-6528980D01*
X7041000Y-6696395D01*
X5262489Y-6696395D01*
X5200761Y-6547373D01*
X5072627Y-6419239D01*
X4905212Y-6349893D01*
X4724002Y-6349893D01*
X4556587Y-6419239D01*
X4482000Y-6493826D01*
X4482000Y-6359395D01*
X4454496Y-6292994D01*
X4579940Y-6344955D01*
X4761150Y-6344955D01*
X4928565Y-6275609D01*
X5056699Y-6147475D01*
X5126045Y-5980060D01*
X5126045Y-5956045D01*
X5150060Y-5956045D01*
X5317475Y-5886699D01*
X5445609Y-5758565D01*
X5514955Y-5591150D01*
X5514955Y-5539395D01*
X15844500Y-5539395D01*
X15844500Y-5720605D01*
X15913846Y-5888020D01*
X16041980Y-6016154D01*
X16105103Y-6042301D01*
X16059500Y-6152395D01*
X16059500Y-6333605D01*
X16128846Y-6501020D01*
X16256980Y-6629154D01*
X16424395Y-6698500D01*
X16605605Y-6698500D01*
X16773020Y-6629154D01*
X16901154Y-6501020D01*
X16970500Y-6333605D01*
X16970500Y-6152395D01*
X16901154Y-5984980D01*
X16885569Y-5969395D01*
X17024500Y-5969395D01*
X17024500Y-6150605D01*
X17093846Y-6318020D01*
X17221980Y-6446154D01*
X17389395Y-6515500D01*
X17570605Y-6515500D01*
X17738020Y-6446154D01*
X17866154Y-6318020D01*
X17935500Y-6150605D01*
X17935500Y-5969395D01*
X17866154Y-5801980D01*
X17738020Y-5673846D01*
X17570605Y-5604500D01*
X17389395Y-5604500D01*
X17221980Y-5673846D01*
X17093846Y-5801980D01*
X17024500Y-5969395D01*
X16885569Y-5969395D01*
X16773020Y-5856846D01*
X16709897Y-5830699D01*
X16755500Y-5720605D01*
X16755500Y-5539395D01*
X16686154Y-5371980D01*
X16558020Y-5243846D01*
X16450707Y-5199395D01*
X19244500Y-5199395D01*
X19244500Y-5380605D01*
X19313846Y-5548020D01*
X19441980Y-5676154D01*
X19609395Y-5745500D01*
X19790605Y-5745500D01*
X19958020Y-5676154D01*
X19992321Y-5641853D01*
X19999846Y-5660020D01*
X20057826Y-5718000D01*
X20028453Y-5747373D01*
X19959107Y-5914788D01*
X19959107Y-5979107D01*
X19894788Y-5979107D01*
X19727373Y-6048453D01*
X19599239Y-6176587D01*
X19529893Y-6344002D01*
X19529893Y-6525212D01*
X19599239Y-6692627D01*
X19727373Y-6820761D01*
X19894788Y-6890107D01*
X20075998Y-6890107D01*
X20243413Y-6820761D01*
X20371547Y-6692627D01*
X20440893Y-6525212D01*
X20440893Y-6460893D01*
X20505212Y-6460893D01*
X20672627Y-6391547D01*
X20800761Y-6263413D01*
X20870107Y-6095998D01*
X20870107Y-5914788D01*
X20800761Y-5747373D01*
X20742781Y-5689393D01*
X20772154Y-5660020D01*
X20841500Y-5492605D01*
X20841500Y-5311395D01*
X20796769Y-5203405D01*
X20869154Y-5131020D01*
X20938500Y-4963605D01*
X20938500Y-4782395D01*
X20869154Y-4614980D01*
X20853174Y-4599000D01*
X20946154Y-4506020D01*
X21015500Y-4338605D01*
X21015500Y-4157395D01*
X20946154Y-3989980D01*
X20818020Y-3861846D01*
X20650605Y-3792500D01*
X20469395Y-3792500D01*
X20301980Y-3861846D01*
X20173846Y-3989980D01*
X20104500Y-4157395D01*
X20104500Y-4338605D01*
X20173846Y-4506020D01*
X20189826Y-4522000D01*
X20096846Y-4614980D01*
X20027500Y-4782395D01*
X20027500Y-4963605D01*
X20034374Y-4980200D01*
X19958020Y-4903846D01*
X19790605Y-4834500D01*
X19609395Y-4834500D01*
X19441980Y-4903846D01*
X19313846Y-5031980D01*
X19244500Y-5199395D01*
X16450707Y-5199395D01*
X16390605Y-5174500D01*
X16209395Y-5174500D01*
X16041980Y-5243846D01*
X15913846Y-5371980D01*
X15844500Y-5539395D01*
X5514955Y-5539395D01*
X5514955Y-5409940D01*
X5445609Y-5242525D01*
X5317475Y-5114391D01*
X5150060Y-5045045D01*
X4968850Y-5045045D01*
X4854950Y-5092224D01*
X4858154Y-5089020D01*
X4927500Y-4921605D01*
X4927500Y-4740395D01*
X4858154Y-4572980D01*
X4730020Y-4444846D01*
X4562605Y-4375500D01*
X4381395Y-4375500D01*
X4213980Y-4444846D01*
X4085846Y-4572980D01*
X4016500Y-4740395D01*
X4016500Y-4921605D01*
X4066161Y-5041496D01*
X4008350Y-5099307D01*
X3939004Y-5266722D01*
X3939004Y-5447932D01*
X4008350Y-5615347D01*
X4136484Y-5743481D01*
X4223116Y-5779365D01*
X4215045Y-5798850D01*
X4215045Y-5980060D01*
X4242549Y-6046461D01*
X4117105Y-5994500D01*
X3935895Y-5994500D01*
X3768480Y-6063846D01*
X3640346Y-6191980D01*
X3571000Y-6359395D01*
X3546716Y-6359395D01*
X3485654Y-6211980D01*
X3357520Y-6083846D01*
X3190105Y-6014500D01*
X3008895Y-6014500D01*
X2841480Y-6083846D01*
X2713346Y-6211980D01*
X2644000Y-6379395D01*
X2644000Y-6457500D01*
X2545905Y-6457500D01*
X2378490Y-6526846D01*
X2349835Y-6555501D01*
X2315654Y-6472980D01*
X2187520Y-6344846D01*
X2020105Y-6275500D01*
X1838895Y-6275500D01*
X1671480Y-6344846D01*
X1543346Y-6472980D01*
X1474000Y-6640395D01*
X297000Y-6640395D01*
X297000Y-3660608D01*
X8781347Y-3660608D01*
X8781347Y-3841818D01*
X8850693Y-4009233D01*
X8871173Y-4029713D01*
X8850693Y-4050193D01*
X8781347Y-4217608D01*
X8781347Y-4398818D01*
X8850693Y-4566233D01*
X8978827Y-4694367D01*
X9146242Y-4763713D01*
X9327452Y-4763713D01*
X9494867Y-4694367D01*
X9623001Y-4566233D01*
X9692347Y-4398818D01*
X9692347Y-4217608D01*
X9623001Y-4050193D01*
X9602521Y-4029713D01*
X9623001Y-4009233D01*
X9664028Y-3910186D01*
X9704345Y-4007520D01*
X9832479Y-4135654D01*
X9999894Y-4205000D01*
X10181104Y-4205000D01*
X10348519Y-4135654D01*
X10411593Y-4072580D01*
X10413846Y-4078020D01*
X10455826Y-4120000D01*
X10413846Y-4161980D01*
X10344500Y-4329395D01*
X10344500Y-4510605D01*
X10359952Y-4547909D01*
X10236980Y-4598846D01*
X10108846Y-4726980D01*
X10039500Y-4894395D01*
X10039500Y-5075605D01*
X10108846Y-5243020D01*
X10236980Y-5371154D01*
X10404395Y-5440500D01*
X10585605Y-5440500D01*
X10753020Y-5371154D01*
X10881154Y-5243020D01*
X10950500Y-5075605D01*
X10950500Y-4894395D01*
X10935048Y-4857091D01*
X11058020Y-4806154D01*
X11134779Y-4729395D01*
X12393000Y-4729395D01*
X12393000Y-4910605D01*
X12462346Y-5078020D01*
X12590480Y-5206154D01*
X12757895Y-5275500D01*
X12939105Y-5275500D01*
X13106520Y-5206154D01*
X13234654Y-5078020D01*
X13261000Y-5014416D01*
X13287346Y-5078020D01*
X13415480Y-5206154D01*
X13582895Y-5275500D01*
X13764105Y-5275500D01*
X13931520Y-5206154D01*
X14059654Y-5078020D01*
X14129000Y-4910605D01*
X14129000Y-4729395D01*
X14059654Y-4561980D01*
X13931520Y-4433846D01*
X13764105Y-4364500D01*
X13582895Y-4364500D01*
X13415480Y-4433846D01*
X13287346Y-4561980D01*
X13261000Y-4625584D01*
X13234654Y-4561980D01*
X13106520Y-4433846D01*
X12939105Y-4364500D01*
X12757895Y-4364500D01*
X12590480Y-4433846D01*
X12462346Y-4561980D01*
X12393000Y-4729395D01*
X11134779Y-4729395D01*
X11186154Y-4678020D01*
X11255500Y-4510605D01*
X11255500Y-4329395D01*
X14145400Y-4329395D01*
X14145400Y-4510605D01*
X14214746Y-4678020D01*
X14342880Y-4806154D01*
X14510295Y-4875500D01*
X14691505Y-4875500D01*
X14858920Y-4806154D01*
X14987054Y-4678020D01*
X15016429Y-4607103D01*
X15095480Y-4686154D01*
X15262895Y-4755500D01*
X15444105Y-4755500D01*
X15611520Y-4686154D01*
X15739654Y-4558020D01*
X15756481Y-4517395D01*
X16227500Y-4517395D01*
X16227500Y-4698605D01*
X16296846Y-4866020D01*
X16424980Y-4994154D01*
X16592395Y-5063500D01*
X16773605Y-5063500D01*
X16941020Y-4994154D01*
X17069154Y-4866020D01*
X17138500Y-4698605D01*
X17138500Y-4517395D01*
X17069154Y-4349980D01*
X16941020Y-4221846D01*
X16773605Y-4152500D01*
X16592395Y-4152500D01*
X16424980Y-4221846D01*
X16296846Y-4349980D01*
X16227500Y-4517395D01*
X15756481Y-4517395D01*
X15809000Y-4390605D01*
X15809000Y-4209395D01*
X15739654Y-4041980D01*
X15611520Y-3913846D01*
X15444105Y-3844500D01*
X15262895Y-3844500D01*
X15095480Y-3913846D01*
X14967346Y-4041980D01*
X14937971Y-4112897D01*
X14858920Y-4033846D01*
X14691505Y-3964500D01*
X14510295Y-3964500D01*
X14342880Y-4033846D01*
X14214746Y-4161980D01*
X14145400Y-4329395D01*
X11255500Y-4329395D01*
X11186154Y-4161980D01*
X11144174Y-4120000D01*
X11186154Y-4078020D01*
X11255500Y-3910605D01*
X11255500Y-3729395D01*
X11186154Y-3561980D01*
X11058020Y-3433846D01*
X10890605Y-3364500D01*
X10709395Y-3364500D01*
X10541980Y-3433846D01*
X10478906Y-3496920D01*
X10476653Y-3491480D01*
X10348519Y-3363346D01*
X10181104Y-3294000D01*
X9999894Y-3294000D01*
X9832479Y-3363346D01*
X9704345Y-3491480D01*
X9663318Y-3590527D01*
X9623001Y-3493193D01*
X9494867Y-3365059D01*
X9327452Y-3295713D01*
X9146242Y-3295713D01*
X8978827Y-3365059D01*
X8850693Y-3493193D01*
X8781347Y-3660608D01*
X297000Y-3660608D01*
X297000Y-2949395D01*
X3924500Y-2949395D01*
X3924500Y-3130605D01*
X3993846Y-3298020D01*
X4121980Y-3426154D01*
X4289395Y-3495500D01*
X4470605Y-3495500D01*
X4638020Y-3426154D01*
X4766154Y-3298020D01*
X4835500Y-3130605D01*
X4835500Y-2949395D01*
X4830530Y-2937395D01*
X20623500Y-2937395D01*
X20623500Y-3118605D01*
X20692846Y-3286020D01*
X20820980Y-3414154D01*
X20988395Y-3483500D01*
X21169605Y-3483500D01*
X21337020Y-3414154D01*
X21465154Y-3286020D01*
X21534500Y-3118605D01*
X21534500Y-2937395D01*
X21465154Y-2769980D01*
X21337020Y-2641846D01*
X21169605Y-2572500D01*
X20988395Y-2572500D01*
X20820980Y-2641846D01*
X20692846Y-2769980D01*
X20623500Y-2937395D01*
X4830530Y-2937395D01*
X4766154Y-2781980D01*
X4638020Y-2653846D01*
X4470605Y-2584500D01*
X4289395Y-2584500D01*
X4121980Y-2653846D01*
X3993846Y-2781980D01*
X3924500Y-2949395D01*
X297000Y-2949395D01*
X297000Y-1737395D01*
X3767500Y-1737395D01*
X3767500Y-1918605D01*
X3836846Y-2086020D01*
X3964980Y-2214154D01*
X4132395Y-2283500D01*
X4313605Y-2283500D01*
X4481020Y-2214154D01*
X4609154Y-2086020D01*
X4678500Y-1918605D01*
X4678500Y-1796395D01*
X4928500Y-1796395D01*
X4928500Y-1977605D01*
X4997846Y-2145020D01*
X5125980Y-2273154D01*
X5293395Y-2342500D01*
X5474605Y-2342500D01*
X5642020Y-2273154D01*
X5651779Y-2263395D01*
X12714500Y-2263395D01*
X12714500Y-2444605D01*
X12783846Y-2612020D01*
X12911980Y-2740154D01*
X13079395Y-2809500D01*
X13260605Y-2809500D01*
X13428020Y-2740154D01*
X13556154Y-2612020D01*
X13625500Y-2444605D01*
X13625500Y-2263395D01*
X13556154Y-2095980D01*
X13515569Y-2055395D01*
X15160500Y-2055395D01*
X15160500Y-2236605D01*
X15229846Y-2404020D01*
X15357980Y-2532154D01*
X15525395Y-2601500D01*
X15706605Y-2601500D01*
X15874020Y-2532154D01*
X16002154Y-2404020D01*
X16071500Y-2236605D01*
X16071500Y-2055395D01*
X16002154Y-1887980D01*
X15874020Y-1759846D01*
X15706605Y-1690500D01*
X15525395Y-1690500D01*
X15357980Y-1759846D01*
X15229846Y-1887980D01*
X15160500Y-2055395D01*
X13515569Y-2055395D01*
X13428020Y-1967846D01*
X13260605Y-1898500D01*
X13079395Y-1898500D01*
X12911980Y-1967846D01*
X12783846Y-2095980D01*
X12714500Y-2263395D01*
X5651779Y-2263395D01*
X5770154Y-2145020D01*
X5839500Y-1977605D01*
X5839500Y-1796395D01*
X5770154Y-1628980D01*
X5642020Y-1500846D01*
X5502115Y-1442895D01*
X6482500Y-1442895D01*
X6482500Y-1624105D01*
X6551846Y-1791520D01*
X6679980Y-1919654D01*
X6847395Y-1989000D01*
X7028605Y-1989000D01*
X7196020Y-1919654D01*
X7324154Y-1791520D01*
X7393500Y-1624105D01*
X7393500Y-1589395D01*
X10630500Y-1589395D01*
X10630500Y-1770605D01*
X10699846Y-1938020D01*
X10827980Y-2066154D01*
X10995395Y-2135500D01*
X11176605Y-2135500D01*
X11344020Y-2066154D01*
X11472154Y-1938020D01*
X11541500Y-1770605D01*
X11541500Y-1589395D01*
X11472154Y-1421980D01*
X11344020Y-1293846D01*
X11176605Y-1224500D01*
X10995395Y-1224500D01*
X10827980Y-1293846D01*
X10699846Y-1421980D01*
X10630500Y-1589395D01*
X7393500Y-1589395D01*
X7393500Y-1442895D01*
X7324154Y-1275480D01*
X7196020Y-1147346D01*
X7028605Y-1078000D01*
X6847395Y-1078000D01*
X6679980Y-1147346D01*
X6551846Y-1275480D01*
X6482500Y-1442895D01*
X5502115Y-1442895D01*
X5474605Y-1431500D01*
X5293395Y-1431500D01*
X5125980Y-1500846D01*
X4997846Y-1628980D01*
X4928500Y-1796395D01*
X4678500Y-1796395D01*
X4678500Y-1737395D01*
X4609154Y-1569980D01*
X4481020Y-1441846D01*
X4313605Y-1372500D01*
X4132395Y-1372500D01*
X3964980Y-1441846D01*
X3836846Y-1569980D01*
X3767500Y-1737395D01*
X297000Y-1737395D01*
X297000Y-307000D01*
X24693001Y-307000D01*
X24693000Y-19703000D01*
X24693000Y-19703000D01*
G37*
X24693000Y-19703000D02*
X297000Y-19703000D01*
X297000Y-19149395D01*
X1284500Y-19149395D01*
X1284500Y-19330605D01*
X1353846Y-19498020D01*
X1481980Y-19626154D01*
X1649395Y-19695500D01*
X1830605Y-19695500D01*
X1998020Y-19626154D01*
X2126154Y-19498020D01*
X2195500Y-19330605D01*
X2195500Y-19149395D01*
X2126154Y-18981980D01*
X1998020Y-18853846D01*
X1830605Y-18784500D01*
X1649395Y-18784500D01*
X1481980Y-18853846D01*
X1353846Y-18981980D01*
X1284500Y-19149395D01*
X297000Y-19149395D01*
X297000Y-17919395D01*
X3804500Y-17919395D01*
X3804500Y-18100605D01*
X3873846Y-18268020D01*
X4000826Y-18395000D01*
X3939164Y-18456662D01*
X3869818Y-18624077D01*
X3869818Y-18805287D01*
X3939164Y-18972702D01*
X4067298Y-19100836D01*
X4234713Y-19170182D01*
X4415923Y-19170182D01*
X4583338Y-19100836D01*
X4703250Y-18980924D01*
X4741980Y-19019654D01*
X4909395Y-19089000D01*
X5090605Y-19089000D01*
X5258020Y-19019654D01*
X5386154Y-18891520D01*
X5424463Y-18799034D01*
X5424463Y-18860568D01*
X5493809Y-19027983D01*
X5621943Y-19156117D01*
X5789358Y-19225463D01*
X5970568Y-19225463D01*
X6137983Y-19156117D01*
X6214963Y-19079137D01*
X6221980Y-19086154D01*
X6389395Y-19155500D01*
X6570605Y-19155500D01*
X6738020Y-19086154D01*
X6866154Y-18958020D01*
X6879460Y-18925895D01*
X7004500Y-18925895D01*
X7004500Y-19107105D01*
X7073846Y-19274520D01*
X7201980Y-19402654D01*
X7369395Y-19472000D01*
X7550605Y-19472000D01*
X7718020Y-19402654D01*
X7846154Y-19274520D01*
X7915500Y-19107105D01*
X7915500Y-19013472D01*
X8078020Y-18946154D01*
X8206154Y-18818020D01*
X8273472Y-18655500D01*
X8330605Y-18655500D01*
X8498020Y-18586154D01*
X8626154Y-18458020D01*
X8695500Y-18290605D01*
X8695500Y-18166174D01*
X8731980Y-18202654D01*
X8899395Y-18272000D01*
X9080605Y-18272000D01*
X9086206Y-18269680D01*
X9013876Y-18342010D01*
X8944530Y-18509425D01*
X8944530Y-18690635D01*
X9013876Y-18858050D01*
X9142010Y-18986184D01*
X9309425Y-19055530D01*
X9490635Y-19055530D01*
X9658050Y-18986184D01*
X9750025Y-18894209D01*
X9907968Y-18894209D01*
X9907968Y-19075419D01*
X9977314Y-19242834D01*
X10105448Y-19370968D01*
X10272863Y-19440314D01*
X10454073Y-19440314D01*
X10621488Y-19370968D01*
X10749622Y-19242834D01*
X10800752Y-19119395D01*
X16544500Y-19119395D01*
X16544500Y-19300605D01*
X16613846Y-19468020D01*
X16741980Y-19596154D01*
X16909395Y-19665500D01*
X17090605Y-19665500D01*
X17258020Y-19596154D01*
X17386154Y-19468020D01*
X17455500Y-19300605D01*
X17455500Y-19119395D01*
X17437318Y-19075500D01*
X17600605Y-19075500D01*
X17768020Y-19006154D01*
X17878664Y-18895510D01*
X17883846Y-18908020D01*
X18011980Y-19036154D01*
X18179395Y-19105500D01*
X18360605Y-19105500D01*
X18528020Y-19036154D01*
X18656154Y-18908020D01*
X18725500Y-18740605D01*
X18725500Y-18559395D01*
X18656154Y-18391980D01*
X18528020Y-18263846D01*
X18360605Y-18194500D01*
X18179395Y-18194500D01*
X18011980Y-18263846D01*
X17901336Y-18374490D01*
X17896154Y-18361980D01*
X17768020Y-18233846D01*
X17660417Y-18189275D01*
X17660417Y-18093562D01*
X17591071Y-17926147D01*
X17462937Y-17798013D01*
X17295522Y-17728667D01*
X17114312Y-17728667D01*
X16946897Y-17798013D01*
X16818763Y-17926147D01*
X16749417Y-18093562D01*
X16749417Y-18274772D01*
X16818763Y-18442187D01*
X16946897Y-18570321D01*
X17054500Y-18614892D01*
X17054500Y-18710605D01*
X17072682Y-18754500D01*
X16909395Y-18754500D01*
X16741980Y-18823846D01*
X16613846Y-18951980D01*
X16544500Y-19119395D01*
X10800752Y-19119395D01*
X10818968Y-19075419D01*
X10818968Y-18894209D01*
X10749622Y-18726794D01*
X10621488Y-18598660D01*
X10454073Y-18529314D01*
X10272863Y-18529314D01*
X10105448Y-18598660D01*
X9977314Y-18726794D01*
X9907968Y-18894209D01*
X9750025Y-18894209D01*
X9786184Y-18858050D01*
X9855530Y-18690635D01*
X9855530Y-18509425D01*
X9843092Y-18479395D01*
X11024500Y-18479395D01*
X11024500Y-18660605D01*
X11093846Y-18828020D01*
X11221980Y-18956154D01*
X11389395Y-19025500D01*
X11570605Y-19025500D01*
X11738020Y-18956154D01*
X11813245Y-18880929D01*
X11841980Y-18909664D01*
X12009395Y-18979010D01*
X12190605Y-18979010D01*
X12358020Y-18909664D01*
X12486154Y-18781530D01*
X12555500Y-18614115D01*
X12555500Y-18432905D01*
X12486154Y-18265490D01*
X12358020Y-18137356D01*
X12190605Y-18068010D01*
X12009395Y-18068010D01*
X11841980Y-18137356D01*
X11766755Y-18212581D01*
X11738020Y-18183846D01*
X11570605Y-18114500D01*
X11389395Y-18114500D01*
X11221980Y-18183846D01*
X11093846Y-18311980D01*
X11024500Y-18479395D01*
X9843092Y-18479395D01*
X9786184Y-18342010D01*
X9658050Y-18213876D01*
X9490635Y-18144530D01*
X9309425Y-18144530D01*
X9303824Y-18146850D01*
X9376154Y-18074520D01*
X9445500Y-17907105D01*
X9445500Y-17785591D01*
X15232558Y-17785591D01*
X15232558Y-17966801D01*
X15301904Y-18134216D01*
X15430038Y-18262350D01*
X15474500Y-18280767D01*
X15474500Y-18440605D01*
X15543846Y-18608020D01*
X15671980Y-18736154D01*
X15839395Y-18805500D01*
X16020605Y-18805500D01*
X16188020Y-18736154D01*
X16316154Y-18608020D01*
X16385500Y-18440605D01*
X16385500Y-18259395D01*
X16316154Y-18091980D01*
X16188020Y-17963846D01*
X16143558Y-17945429D01*
X16143558Y-17785591D01*
X16074212Y-17618176D01*
X16045105Y-17589069D01*
X16116154Y-17518020D01*
X16185500Y-17350605D01*
X16185500Y-17169395D01*
X16116154Y-17001980D01*
X15988020Y-16873846D01*
X15937441Y-16852895D01*
X19239463Y-16852895D01*
X19239463Y-17034105D01*
X19308809Y-17201520D01*
X19436943Y-17329654D01*
X19604358Y-17399000D01*
X19785568Y-17399000D01*
X19881182Y-17359395D01*
X23254500Y-17359395D01*
X23254500Y-17540605D01*
X23323846Y-17708020D01*
X23451980Y-17836154D01*
X23619395Y-17905500D01*
X23800605Y-17905500D01*
X23968020Y-17836154D01*
X24096154Y-17708020D01*
X24165500Y-17540605D01*
X24165500Y-17359395D01*
X24096154Y-17191980D01*
X23968020Y-17063846D01*
X23800605Y-16994500D01*
X23619395Y-16994500D01*
X23451980Y-17063846D01*
X23323846Y-17191980D01*
X23254500Y-17359395D01*
X19881182Y-17359395D01*
X19952983Y-17329654D01*
X20081117Y-17201520D01*
X20150463Y-17034105D01*
X20150463Y-16852895D01*
X20081117Y-16685480D01*
X19952983Y-16557346D01*
X19785568Y-16488000D01*
X19604358Y-16488000D01*
X19436943Y-16557346D01*
X19308809Y-16685480D01*
X19239463Y-16852895D01*
X15937441Y-16852895D01*
X15820605Y-16804500D01*
X15639395Y-16804500D01*
X15471980Y-16873846D01*
X15343846Y-17001980D01*
X15274500Y-17169395D01*
X15274500Y-17350605D01*
X15343846Y-17518020D01*
X15372953Y-17547127D01*
X15301904Y-17618176D01*
X15232558Y-17785591D01*
X9445500Y-17785591D01*
X9445500Y-17725895D01*
X9376154Y-17558480D01*
X9248020Y-17430346D01*
X9171392Y-17398605D01*
X9298020Y-17346154D01*
X9426154Y-17218020D01*
X9495500Y-17050605D01*
X9495500Y-16965500D01*
X9620605Y-16965500D01*
X9788020Y-16896154D01*
X9916154Y-16768020D01*
X9985500Y-16600605D01*
X9985500Y-16419395D01*
X9916154Y-16251980D01*
X9788020Y-16123846D01*
X9620605Y-16054500D01*
X9439395Y-16054500D01*
X9271980Y-16123846D01*
X9143846Y-16251980D01*
X9074500Y-16419395D01*
X9074500Y-16504500D01*
X8949395Y-16504500D01*
X8781980Y-16573846D01*
X8653846Y-16701980D01*
X8584500Y-16869395D01*
X8584500Y-17050605D01*
X8653846Y-17218020D01*
X8781980Y-17346154D01*
X8858608Y-17377895D01*
X8731980Y-17430346D01*
X8603846Y-17558480D01*
X8534500Y-17725895D01*
X8534500Y-17850326D01*
X8498020Y-17813846D01*
X8330605Y-17744500D01*
X8149395Y-17744500D01*
X7981980Y-17813846D01*
X7853846Y-17941980D01*
X7786528Y-18104500D01*
X7729395Y-18104500D01*
X7561980Y-18173846D01*
X7433846Y-18301980D01*
X7364500Y-18469395D01*
X7364500Y-18563028D01*
X7201980Y-18630346D01*
X7073846Y-18758480D01*
X7004500Y-18925895D01*
X6879460Y-18925895D01*
X6935500Y-18790605D01*
X6935500Y-18609395D01*
X6866154Y-18441980D01*
X6738020Y-18313846D01*
X6570605Y-18244500D01*
X6389395Y-18244500D01*
X6221980Y-18313846D01*
X6145000Y-18390826D01*
X6137983Y-18383809D01*
X5970568Y-18314463D01*
X5789358Y-18314463D01*
X5621943Y-18383809D01*
X5493809Y-18511943D01*
X5455500Y-18604429D01*
X5455500Y-18542895D01*
X5386154Y-18375480D01*
X5258020Y-18247346D01*
X5090605Y-18178000D01*
X4909395Y-18178000D01*
X4741980Y-18247346D01*
X4622068Y-18367258D01*
X4584492Y-18329682D01*
X4646154Y-18268020D01*
X4715500Y-18100605D01*
X4715500Y-17919395D01*
X4646154Y-17751980D01*
X4518020Y-17623846D01*
X4350605Y-17554500D01*
X4169395Y-17554500D01*
X4001980Y-17623846D01*
X3873846Y-17751980D01*
X3804500Y-17919395D01*
X297000Y-17919395D01*
X297000Y-15901905D01*
X6821262Y-15901905D01*
X6821262Y-16083115D01*
X6890608Y-16250530D01*
X7018742Y-16378664D01*
X7186157Y-16448010D01*
X7367367Y-16448010D01*
X7534782Y-16378664D01*
X7617156Y-16296290D01*
X7622475Y-16309131D01*
X7750609Y-16437265D01*
X7918024Y-16506611D01*
X8099234Y-16506611D01*
X8266649Y-16437265D01*
X8394783Y-16309131D01*
X8464129Y-16141716D01*
X8464129Y-15960506D01*
X8394783Y-15793091D01*
X8266649Y-15664957D01*
X8099234Y-15595611D01*
X7918024Y-15595611D01*
X7750609Y-15664957D01*
X7668235Y-15747331D01*
X7662916Y-15734490D01*
X7534782Y-15606356D01*
X7367367Y-15537010D01*
X7186157Y-15537010D01*
X7018742Y-15606356D01*
X6890608Y-15734490D01*
X6821262Y-15901905D01*
X297000Y-15901905D01*
X297000Y-14666395D01*
X1454500Y-14666395D01*
X1454500Y-14847605D01*
X1523846Y-15015020D01*
X1651980Y-15143154D01*
X1819395Y-15212500D01*
X2000605Y-15212500D01*
X2168020Y-15143154D01*
X2296154Y-15015020D01*
X2365500Y-14847605D01*
X2365500Y-14666395D01*
X2296154Y-14498980D01*
X2168020Y-14370846D01*
X2000605Y-14301500D01*
X1819395Y-14301500D01*
X1651980Y-14370846D01*
X1523846Y-14498980D01*
X1454500Y-14666395D01*
X297000Y-14666395D01*
X297000Y-12779395D01*
X1654500Y-12779395D01*
X1654500Y-12960605D01*
X1723846Y-13128020D01*
X1851980Y-13256154D01*
X2013925Y-13323234D01*
X1898980Y-13370846D01*
X1770846Y-13498980D01*
X1701500Y-13666395D01*
X1701500Y-13847605D01*
X1770846Y-14015020D01*
X1898980Y-14143154D01*
X2066395Y-14212500D01*
X2247605Y-14212500D01*
X2415020Y-14143154D01*
X2543154Y-14015020D01*
X2612500Y-13847605D01*
X2612500Y-13689395D01*
X3637000Y-13689395D01*
X3637000Y-13870605D01*
X3706346Y-14038020D01*
X3768326Y-14100000D01*
X3706346Y-14161980D01*
X3637000Y-14329395D01*
X3637000Y-14510605D01*
X3706346Y-14678020D01*
X3834480Y-14806154D01*
X4001895Y-14875500D01*
X4183105Y-14875500D01*
X4326892Y-14815941D01*
X7441233Y-14815941D01*
X7441233Y-14997151D01*
X7510579Y-15164566D01*
X7638713Y-15292700D01*
X7806128Y-15362046D01*
X7987338Y-15362046D01*
X8154753Y-15292700D01*
X8282887Y-15164566D01*
X8352233Y-14997151D01*
X8352233Y-14905920D01*
X10776515Y-14905920D01*
X10776515Y-15087130D01*
X10845861Y-15254545D01*
X10973995Y-15382679D01*
X11141410Y-15452025D01*
X11322620Y-15452025D01*
X11348000Y-15441512D01*
X11348000Y-15542605D01*
X11417346Y-15710020D01*
X11545480Y-15838154D01*
X11712895Y-15907500D01*
X11894105Y-15907500D01*
X12061520Y-15838154D01*
X12189654Y-15710020D01*
X12254593Y-15553246D01*
X12317385Y-15616038D01*
X12484800Y-15685384D01*
X12549119Y-15685384D01*
X12549119Y-15749703D01*
X12618465Y-15917118D01*
X12746599Y-16045252D01*
X12914014Y-16114598D01*
X13095224Y-16114598D01*
X13262639Y-16045252D01*
X13390773Y-15917118D01*
X13460119Y-15749703D01*
X13460119Y-15617712D01*
X13514419Y-15748803D01*
X13642553Y-15876937D01*
X13809968Y-15946283D01*
X13874287Y-15946283D01*
X13874287Y-16010602D01*
X13943633Y-16178017D01*
X14071767Y-16306151D01*
X14239182Y-16375497D01*
X14420392Y-16375497D01*
X14587807Y-16306151D01*
X14715941Y-16178017D01*
X14738208Y-16124261D01*
X14768375Y-16136757D01*
X14949585Y-16136757D01*
X15117000Y-16067411D01*
X15245134Y-15939277D01*
X15290648Y-15829395D01*
X15544500Y-15829395D01*
X15544500Y-16010605D01*
X15613846Y-16178020D01*
X15741980Y-16306154D01*
X15909395Y-16375500D01*
X16090605Y-16375500D01*
X16258020Y-16306154D01*
X16386154Y-16178020D01*
X16455500Y-16010605D01*
X16455500Y-15829395D01*
X16386154Y-15661980D01*
X16258020Y-15533846D01*
X16090605Y-15464500D01*
X15909395Y-15464500D01*
X15741980Y-15533846D01*
X15613846Y-15661980D01*
X15544500Y-15829395D01*
X15290648Y-15829395D01*
X15314480Y-15771862D01*
X15314480Y-15703656D01*
X15472510Y-15638197D01*
X15600644Y-15510063D01*
X15669990Y-15342648D01*
X15669990Y-15161438D01*
X15669144Y-15159395D01*
X19214500Y-15159395D01*
X19214500Y-15340605D01*
X19283846Y-15508020D01*
X19411980Y-15636154D01*
X19579395Y-15705500D01*
X19760605Y-15705500D01*
X19928020Y-15636154D01*
X20056154Y-15508020D01*
X20125500Y-15340605D01*
X20125500Y-15159395D01*
X20056154Y-14991980D01*
X19928020Y-14863846D01*
X19760605Y-14794500D01*
X19579395Y-14794500D01*
X19411980Y-14863846D01*
X19283846Y-14991980D01*
X19214500Y-15159395D01*
X15669144Y-15159395D01*
X15600644Y-14994023D01*
X15472510Y-14865889D01*
X15305095Y-14796543D01*
X15123885Y-14796543D01*
X14956470Y-14865889D01*
X14828336Y-14994023D01*
X14758990Y-15161438D01*
X14758990Y-15229644D01*
X14600960Y-15295103D01*
X14472826Y-15423237D01*
X14450559Y-15476993D01*
X14420392Y-15464497D01*
X14356073Y-15464497D01*
X14356073Y-15400178D01*
X14286727Y-15232763D01*
X14158593Y-15104629D01*
X13991178Y-15035283D01*
X13809968Y-15035283D01*
X13642553Y-15104629D01*
X13514419Y-15232763D01*
X13445073Y-15400178D01*
X13445073Y-15532169D01*
X13390773Y-15401078D01*
X13262639Y-15272944D01*
X13095224Y-15203598D01*
X13030905Y-15203598D01*
X13030905Y-15139279D01*
X12961559Y-14971864D01*
X12833425Y-14843730D01*
X12666010Y-14774384D01*
X12484800Y-14774384D01*
X12317385Y-14843730D01*
X12189251Y-14971864D01*
X12124312Y-15128638D01*
X12061520Y-15065846D01*
X11894105Y-14996500D01*
X11712895Y-14996500D01*
X11687515Y-15007013D01*
X11687515Y-14905920D01*
X11618169Y-14738505D01*
X11490035Y-14610371D01*
X11322620Y-14541025D01*
X11141410Y-14541025D01*
X10973995Y-14610371D01*
X10845861Y-14738505D01*
X10776515Y-14905920D01*
X8352233Y-14905920D01*
X8352233Y-14815941D01*
X8282887Y-14648526D01*
X8154753Y-14520392D01*
X7987338Y-14451046D01*
X7806128Y-14451046D01*
X7638713Y-14520392D01*
X7510579Y-14648526D01*
X7441233Y-14815941D01*
X4326892Y-14815941D01*
X4350520Y-14806154D01*
X4478654Y-14678020D01*
X4541900Y-14525332D01*
X4652047Y-14525332D01*
X4819462Y-14455986D01*
X4911066Y-14364382D01*
X4943421Y-14396737D01*
X5110836Y-14466083D01*
X5292046Y-14466083D01*
X5459461Y-14396737D01*
X5587595Y-14268603D01*
X5656941Y-14101188D01*
X5656941Y-13919978D01*
X5587595Y-13752563D01*
X5459461Y-13624429D01*
X5292046Y-13555083D01*
X5227727Y-13555083D01*
X5227727Y-13490764D01*
X5158381Y-13323349D01*
X5149820Y-13314788D01*
X15729893Y-13314788D01*
X15729893Y-13495998D01*
X15799239Y-13663413D01*
X15927373Y-13791547D01*
X16094788Y-13860893D01*
X16159107Y-13860893D01*
X16159107Y-13925212D01*
X16228453Y-14092627D01*
X16356587Y-14220761D01*
X16524002Y-14290107D01*
X16705212Y-14290107D01*
X16872627Y-14220761D01*
X17000761Y-14092627D01*
X17010384Y-14069395D01*
X21703000Y-14069395D01*
X21703000Y-14250605D01*
X21772346Y-14418020D01*
X21900480Y-14546154D01*
X22067895Y-14615500D01*
X22249105Y-14615500D01*
X22416520Y-14546154D01*
X22544654Y-14418020D01*
X22614000Y-14250605D01*
X22614000Y-14069395D01*
X22544654Y-13901980D01*
X22416520Y-13773846D01*
X22249105Y-13704500D01*
X22067895Y-13704500D01*
X21900480Y-13773846D01*
X21772346Y-13901980D01*
X21703000Y-14069395D01*
X17010384Y-14069395D01*
X17070107Y-13925212D01*
X17070107Y-13744002D01*
X17000761Y-13576587D01*
X16872627Y-13448453D01*
X16705212Y-13379107D01*
X16640893Y-13379107D01*
X16640893Y-13314788D01*
X16571547Y-13147373D01*
X16513569Y-13089395D01*
X22604500Y-13089395D01*
X22604500Y-13270605D01*
X22673846Y-13438020D01*
X22801980Y-13566154D01*
X22969395Y-13635500D01*
X23150605Y-13635500D01*
X23318020Y-13566154D01*
X23446154Y-13438020D01*
X23515500Y-13270605D01*
X23515500Y-13089395D01*
X23446154Y-12921980D01*
X23318020Y-12793846D01*
X23150605Y-12724500D01*
X22969395Y-12724500D01*
X22801980Y-12793846D01*
X22673846Y-12921980D01*
X22604500Y-13089395D01*
X16513569Y-13089395D01*
X16443413Y-13019239D01*
X16275998Y-12949893D01*
X16094788Y-12949893D01*
X15927373Y-13019239D01*
X15799239Y-13147373D01*
X15729893Y-13314788D01*
X5149820Y-13314788D01*
X5030247Y-13195215D01*
X4862832Y-13125869D01*
X4681622Y-13125869D01*
X4514207Y-13195215D01*
X4386073Y-13323349D01*
X4355012Y-13398338D01*
X4350520Y-13393846D01*
X4183105Y-13324500D01*
X4001895Y-13324500D01*
X3834480Y-13393846D01*
X3706346Y-13521980D01*
X3637000Y-13689395D01*
X2612500Y-13689395D01*
X2612500Y-13666395D01*
X2543154Y-13498980D01*
X2415020Y-13370846D01*
X2253075Y-13303766D01*
X2368020Y-13256154D01*
X2496154Y-13128020D01*
X2565500Y-12960605D01*
X2565500Y-12779395D01*
X2496154Y-12611980D01*
X2368020Y-12483846D01*
X2200605Y-12414500D01*
X2019395Y-12414500D01*
X1851980Y-12483846D01*
X1723846Y-12611980D01*
X1654500Y-12779395D01*
X297000Y-12779395D01*
X297000Y-12299395D01*
X3283500Y-12299395D01*
X3283500Y-12480605D01*
X3352846Y-12648020D01*
X3480980Y-12776154D01*
X3648395Y-12845500D01*
X3829605Y-12845500D01*
X3997020Y-12776154D01*
X4125154Y-12648020D01*
X4155650Y-12574395D01*
X7881000Y-12574395D01*
X7881000Y-12755605D01*
X7950346Y-12923020D01*
X8078480Y-13051154D01*
X8245895Y-13120500D01*
X8427105Y-13120500D01*
X8594520Y-13051154D01*
X8722654Y-12923020D01*
X8792000Y-12755605D01*
X8792000Y-12574395D01*
X8722654Y-12406980D01*
X8594520Y-12278846D01*
X8427105Y-12209500D01*
X8245895Y-12209500D01*
X8078480Y-12278846D01*
X7950346Y-12406980D01*
X7881000Y-12574395D01*
X4155650Y-12574395D01*
X4194500Y-12480605D01*
X4194500Y-12299395D01*
X4125154Y-12131980D01*
X3997020Y-12003846D01*
X3829605Y-11934500D01*
X3648395Y-11934500D01*
X3480980Y-12003846D01*
X3352846Y-12131980D01*
X3283500Y-12299395D01*
X297000Y-12299395D01*
X297000Y-11143395D01*
X1535500Y-11143395D01*
X1535500Y-11324605D01*
X1604846Y-11492020D01*
X1732980Y-11620154D01*
X1900395Y-11689500D01*
X2081605Y-11689500D01*
X2171183Y-11652395D01*
X7489500Y-11652395D01*
X7489500Y-11833605D01*
X7558846Y-12001020D01*
X7686980Y-12129154D01*
X7854395Y-12198500D01*
X8035605Y-12198500D01*
X8203020Y-12129154D01*
X8331154Y-12001020D01*
X8400500Y-11833605D01*
X8400500Y-11652395D01*
X8340392Y-11507282D01*
X8414154Y-11433520D01*
X8483500Y-11266105D01*
X8483500Y-11136592D01*
X10378916Y-11136592D01*
X10414962Y-11354624D01*
X10429051Y-11388638D01*
X10515929Y-11404463D01*
X10456462Y-11463930D01*
X10502179Y-11509647D01*
X10480846Y-11530980D01*
X10411500Y-11698395D01*
X10411500Y-11879605D01*
X10480846Y-12047020D01*
X10608980Y-12175154D01*
X10776395Y-12244500D01*
X10957605Y-12244500D01*
X11125020Y-12175154D01*
X11179000Y-12121174D01*
X11242980Y-12185154D01*
X11410395Y-12254500D01*
X11591605Y-12254500D01*
X11759020Y-12185154D01*
X11765922Y-12178252D01*
X11714500Y-12302395D01*
X11714500Y-12483605D01*
X11783846Y-12651020D01*
X11911980Y-12779154D01*
X12079395Y-12848500D01*
X12260605Y-12848500D01*
X12428020Y-12779154D01*
X12498000Y-12709174D01*
X12563980Y-12775154D01*
X12731395Y-12844500D01*
X12912605Y-12844500D01*
X13032659Y-12794772D01*
X13108006Y-12870119D01*
X13275421Y-12939465D01*
X13456631Y-12939465D01*
X13624046Y-12870119D01*
X13752180Y-12741985D01*
X13821526Y-12574570D01*
X13821526Y-12393360D01*
X13752180Y-12225945D01*
X13703407Y-12177172D01*
X13861862Y-12111537D01*
X13886613Y-12086787D01*
X13937980Y-12138154D01*
X14105395Y-12207500D01*
X14286605Y-12207500D01*
X14454020Y-12138154D01*
X14582154Y-12010020D01*
X14651500Y-11842605D01*
X14651500Y-11661395D01*
X14582154Y-11493980D01*
X14489776Y-11401602D01*
X14560949Y-11388638D01*
X14611084Y-11173408D01*
X14575038Y-10955376D01*
X14560949Y-10921362D01*
X14458816Y-10902758D01*
X14206574Y-11155000D01*
X14229732Y-11178158D01*
X14111390Y-11296500D01*
X14105395Y-11296500D01*
X14048495Y-11320069D01*
X14045000Y-11316574D01*
X14036562Y-11325012D01*
X14015745Y-11333635D01*
X13860268Y-11178158D01*
X13883426Y-11155000D01*
X13631184Y-10902758D01*
X13570000Y-10913903D01*
X13508816Y-10902758D01*
X13256574Y-11155000D01*
X13279732Y-11178158D01*
X13118158Y-11339732D01*
X13095000Y-11316574D01*
X13071842Y-11339732D01*
X12910268Y-11178158D01*
X12933426Y-11155000D01*
X12681184Y-10902758D01*
X12579051Y-10921362D01*
X12528916Y-11136592D01*
X12564962Y-11354624D01*
X12579051Y-11388638D01*
X12665929Y-11404463D01*
X12662708Y-11407684D01*
X12502980Y-11473846D01*
X12463000Y-11513826D01*
X12372020Y-11422846D01*
X12326550Y-11404012D01*
X12410949Y-11388638D01*
X12461084Y-11173408D01*
X12425038Y-10955376D01*
X12410949Y-10921362D01*
X12308816Y-10902758D01*
X12056574Y-11155000D01*
X12079732Y-11178158D01*
X11918158Y-11339732D01*
X11895000Y-11316574D01*
X11871842Y-11339732D01*
X11710268Y-11178158D01*
X11733426Y-11155000D01*
X11481184Y-10902758D01*
X11420000Y-10913903D01*
X11358816Y-10902758D01*
X11106574Y-11155000D01*
X11129732Y-11178158D01*
X10969474Y-11338416D01*
X10964981Y-11336555D01*
X10945000Y-11316574D01*
X10928074Y-11333500D01*
X10915610Y-11333500D01*
X10760268Y-11178158D01*
X10783426Y-11155000D01*
X10531184Y-10902758D01*
X10429051Y-10921362D01*
X10378916Y-11136592D01*
X8483500Y-11136592D01*
X8483500Y-11084895D01*
X8414154Y-10917480D01*
X8286020Y-10789346D01*
X8169748Y-10741184D01*
X10692758Y-10741184D01*
X10945000Y-10993426D01*
X11197242Y-10741184D01*
X11642758Y-10741184D01*
X11895000Y-10993426D01*
X12147242Y-10741184D01*
X12842758Y-10741184D01*
X13095000Y-10993426D01*
X13347242Y-10741184D01*
X13792758Y-10741184D01*
X14045000Y-10993426D01*
X14297242Y-10741184D01*
X14292434Y-10714788D01*
X15729893Y-10714788D01*
X15729893Y-10895998D01*
X15799239Y-11063413D01*
X15927373Y-11191547D01*
X16094788Y-11260893D01*
X16159107Y-11260893D01*
X16159107Y-11325212D01*
X16192377Y-11405532D01*
X16082980Y-11450846D01*
X15954846Y-11578980D01*
X15885500Y-11746395D01*
X15885500Y-11927605D01*
X15954846Y-12095020D01*
X16082980Y-12223154D01*
X16250395Y-12292500D01*
X16431605Y-12292500D01*
X16599020Y-12223154D01*
X16727154Y-12095020D01*
X16741910Y-12059395D01*
X20135500Y-12059395D01*
X20135500Y-12240605D01*
X20204846Y-12408020D01*
X20332980Y-12536154D01*
X20500395Y-12605500D01*
X20681605Y-12605500D01*
X20801342Y-12555903D01*
X20808846Y-12574020D01*
X20936980Y-12702154D01*
X21104395Y-12771500D01*
X21285605Y-12771500D01*
X21453020Y-12702154D01*
X21581154Y-12574020D01*
X21597567Y-12534395D01*
X21737500Y-12534395D01*
X21737500Y-12715605D01*
X21806846Y-12883020D01*
X21934980Y-13011154D01*
X22102395Y-13080500D01*
X22283605Y-13080500D01*
X22451020Y-13011154D01*
X22579154Y-12883020D01*
X22648500Y-12715605D01*
X22648500Y-12534395D01*
X22579154Y-12366980D01*
X22451020Y-12238846D01*
X22283605Y-12169500D01*
X22102395Y-12169500D01*
X21934980Y-12238846D01*
X21806846Y-12366980D01*
X21737500Y-12534395D01*
X21597567Y-12534395D01*
X21650500Y-12406605D01*
X21650500Y-12225395D01*
X21581154Y-12057980D01*
X21453020Y-11929846D01*
X21285605Y-11860500D01*
X21104395Y-11860500D01*
X20984658Y-11910097D01*
X20977154Y-11891980D01*
X20849020Y-11763846D01*
X20681605Y-11694500D01*
X20500395Y-11694500D01*
X20332980Y-11763846D01*
X20204846Y-11891980D01*
X20135500Y-12059395D01*
X16741910Y-12059395D01*
X16796500Y-11927605D01*
X16796500Y-11746395D01*
X16763230Y-11666075D01*
X16872627Y-11620761D01*
X17000761Y-11492627D01*
X17070107Y-11325212D01*
X17070107Y-11144002D01*
X17000761Y-10976587D01*
X16918569Y-10894395D01*
X19256500Y-10894395D01*
X19256500Y-11075605D01*
X19325846Y-11243020D01*
X19453980Y-11371154D01*
X19621395Y-11440500D01*
X19802605Y-11440500D01*
X19970020Y-11371154D01*
X20098154Y-11243020D01*
X20167500Y-11075605D01*
X20167500Y-10894395D01*
X20098154Y-10726980D01*
X19970020Y-10598846D01*
X19802605Y-10529500D01*
X19621395Y-10529500D01*
X19453980Y-10598846D01*
X19325846Y-10726980D01*
X19256500Y-10894395D01*
X16918569Y-10894395D01*
X16872627Y-10848453D01*
X16705212Y-10779107D01*
X16640893Y-10779107D01*
X16640893Y-10714788D01*
X16571547Y-10547373D01*
X16443413Y-10419239D01*
X16275998Y-10349893D01*
X16094788Y-10349893D01*
X15927373Y-10419239D01*
X15799239Y-10547373D01*
X15729893Y-10714788D01*
X14292434Y-10714788D01*
X14278638Y-10639051D01*
X14063408Y-10588916D01*
X13845376Y-10624962D01*
X13811362Y-10639051D01*
X13792758Y-10741184D01*
X13347242Y-10741184D01*
X13328638Y-10639051D01*
X13113408Y-10588916D01*
X12895376Y-10624962D01*
X12861362Y-10639051D01*
X12842758Y-10741184D01*
X12147242Y-10741184D01*
X12128638Y-10639051D01*
X11913408Y-10588916D01*
X11695376Y-10624962D01*
X11661362Y-10639051D01*
X11642758Y-10741184D01*
X11197242Y-10741184D01*
X11178638Y-10639051D01*
X10963408Y-10588916D01*
X10745376Y-10624962D01*
X10711362Y-10639051D01*
X10692758Y-10741184D01*
X8169748Y-10741184D01*
X8118605Y-10720000D01*
X7937395Y-10720000D01*
X7769980Y-10789346D01*
X7641846Y-10917480D01*
X7572500Y-11084895D01*
X7572500Y-11266105D01*
X7632608Y-11411218D01*
X7558846Y-11484980D01*
X7489500Y-11652395D01*
X2171183Y-11652395D01*
X2249020Y-11620154D01*
X2377154Y-11492020D01*
X2446500Y-11324605D01*
X2446500Y-11143395D01*
X2377154Y-10975980D01*
X2249020Y-10847846D01*
X2081605Y-10778500D01*
X1900395Y-10778500D01*
X1732980Y-10847846D01*
X1604846Y-10975980D01*
X1535500Y-11143395D01*
X297000Y-11143395D01*
X297000Y-10248395D01*
X1980500Y-10248395D01*
X1980500Y-10429605D01*
X2049846Y-10597020D01*
X2177980Y-10725154D01*
X2345395Y-10794500D01*
X2526605Y-10794500D01*
X2694020Y-10725154D01*
X2822154Y-10597020D01*
X2891500Y-10429605D01*
X2891500Y-10369395D01*
X3119000Y-10369395D01*
X3119000Y-10550605D01*
X3188346Y-10718020D01*
X3316480Y-10846154D01*
X3483895Y-10915500D01*
X3665105Y-10915500D01*
X3832520Y-10846154D01*
X3960654Y-10718020D01*
X4030000Y-10550605D01*
X4030000Y-10369395D01*
X3960654Y-10201980D01*
X3832520Y-10073846D01*
X3665105Y-10004500D01*
X3483895Y-10004500D01*
X3316480Y-10073846D01*
X3188346Y-10201980D01*
X3119000Y-10369395D01*
X2891500Y-10369395D01*
X2891500Y-10248395D01*
X2822154Y-10080980D01*
X2797174Y-10056000D01*
X2829154Y-10024020D01*
X2854288Y-9963340D01*
X7238146Y-9963340D01*
X7238146Y-10144550D01*
X7307492Y-10311965D01*
X7435626Y-10440099D01*
X7603041Y-10509445D01*
X7784251Y-10509445D01*
X7951666Y-10440099D01*
X7972949Y-10418816D01*
X10692758Y-10418816D01*
X10711362Y-10520949D01*
X10926592Y-10571084D01*
X11144624Y-10535038D01*
X11178638Y-10520949D01*
X11197242Y-10418816D01*
X11642758Y-10418816D01*
X11661362Y-10520949D01*
X11876592Y-10571084D01*
X12094624Y-10535038D01*
X12128638Y-10520949D01*
X12147242Y-10418816D01*
X12842758Y-10418816D01*
X12861362Y-10520949D01*
X13076592Y-10571084D01*
X13294624Y-10535038D01*
X13328638Y-10520949D01*
X13347242Y-10418816D01*
X13792758Y-10418816D01*
X13811362Y-10520949D01*
X14026592Y-10571084D01*
X14244624Y-10535038D01*
X14278638Y-10520949D01*
X14297242Y-10418816D01*
X14045000Y-10166574D01*
X13792758Y-10418816D01*
X13347242Y-10418816D01*
X13095000Y-10166574D01*
X12842758Y-10418816D01*
X12147242Y-10418816D01*
X11895000Y-10166574D01*
X11642758Y-10418816D01*
X11197242Y-10418816D01*
X10945000Y-10166574D01*
X10692758Y-10418816D01*
X7972949Y-10418816D01*
X8033092Y-10358673D01*
X8146626Y-10405700D01*
X8327836Y-10405700D01*
X8495251Y-10336354D01*
X8623385Y-10208220D01*
X8692731Y-10040805D01*
X8692731Y-9986592D01*
X10378916Y-9986592D01*
X10414962Y-10204624D01*
X10429051Y-10238638D01*
X10531184Y-10257242D01*
X10783426Y-10005000D01*
X11106574Y-10005000D01*
X11358816Y-10257242D01*
X11420000Y-10246097D01*
X11481184Y-10257242D01*
X11733426Y-10005000D01*
X12056574Y-10005000D01*
X12308816Y-10257242D01*
X12410949Y-10238638D01*
X12461084Y-10023408D01*
X12454998Y-9986592D01*
X12528916Y-9986592D01*
X12564962Y-10204624D01*
X12579051Y-10238638D01*
X12681184Y-10257242D01*
X12933426Y-10005000D01*
X13256574Y-10005000D01*
X13508816Y-10257242D01*
X13570000Y-10246097D01*
X13631184Y-10257242D01*
X13883426Y-10005000D01*
X14206574Y-10005000D01*
X14458816Y-10257242D01*
X14560949Y-10238638D01*
X14569857Y-10200395D01*
X20132500Y-10200395D01*
X20132500Y-10381605D01*
X20201846Y-10549020D01*
X20264734Y-10611908D01*
X20199500Y-10769395D01*
X20199500Y-10950605D01*
X20268846Y-11118020D01*
X20396980Y-11246154D01*
X20564395Y-11315500D01*
X20745605Y-11315500D01*
X20913020Y-11246154D01*
X21041154Y-11118020D01*
X21110500Y-10950605D01*
X21110500Y-10769395D01*
X21041154Y-10601980D01*
X20978266Y-10539092D01*
X21043500Y-10381605D01*
X21043500Y-10200395D01*
X20974154Y-10032980D01*
X20846020Y-9904846D01*
X20678605Y-9835500D01*
X20497395Y-9835500D01*
X20329980Y-9904846D01*
X20201846Y-10032980D01*
X20132500Y-10200395D01*
X14569857Y-10200395D01*
X14611084Y-10023408D01*
X14575038Y-9805376D01*
X14560949Y-9771362D01*
X14458816Y-9752758D01*
X14206574Y-10005000D01*
X13883426Y-10005000D01*
X13631184Y-9752758D01*
X13570000Y-9763903D01*
X13508816Y-9752758D01*
X13256574Y-10005000D01*
X12933426Y-10005000D01*
X12681184Y-9752758D01*
X12579051Y-9771362D01*
X12528916Y-9986592D01*
X12454998Y-9986592D01*
X12425038Y-9805376D01*
X12410949Y-9771362D01*
X12308816Y-9752758D01*
X12056574Y-10005000D01*
X11733426Y-10005000D01*
X11481184Y-9752758D01*
X11420000Y-9763903D01*
X11358816Y-9752758D01*
X11106574Y-10005000D01*
X10783426Y-10005000D01*
X10531184Y-9752758D01*
X10429051Y-9771362D01*
X10378916Y-9986592D01*
X8692731Y-9986592D01*
X8692731Y-9859595D01*
X8623385Y-9692180D01*
X8522389Y-9591184D01*
X10692758Y-9591184D01*
X10945000Y-9843426D01*
X11197242Y-9591184D01*
X11642758Y-9591184D01*
X11895000Y-9843426D01*
X12147242Y-9591184D01*
X12842758Y-9591184D01*
X13095000Y-9843426D01*
X13347242Y-9591184D01*
X13792758Y-9591184D01*
X14045000Y-9843426D01*
X14297242Y-9591184D01*
X14278638Y-9489051D01*
X14063408Y-9438916D01*
X13845376Y-9474962D01*
X13811362Y-9489051D01*
X13792758Y-9591184D01*
X13347242Y-9591184D01*
X13328638Y-9489051D01*
X13113408Y-9438916D01*
X12895376Y-9474962D01*
X12861362Y-9489051D01*
X12842758Y-9591184D01*
X12147242Y-9591184D01*
X12128638Y-9489051D01*
X11913408Y-9438916D01*
X11695376Y-9474962D01*
X11661362Y-9489051D01*
X11642758Y-9591184D01*
X11197242Y-9591184D01*
X11178638Y-9489051D01*
X10963408Y-9438916D01*
X10745376Y-9474962D01*
X10711362Y-9489051D01*
X10692758Y-9591184D01*
X8522389Y-9591184D01*
X8495251Y-9564046D01*
X8335755Y-9497980D01*
X8335755Y-9465140D01*
X8266409Y-9297725D01*
X8138275Y-9169591D01*
X7970860Y-9100245D01*
X7789650Y-9100245D01*
X7622235Y-9169591D01*
X7494101Y-9297725D01*
X7424755Y-9465140D01*
X7424755Y-9646350D01*
X7434219Y-9669198D01*
X7307492Y-9795925D01*
X7238146Y-9963340D01*
X2854288Y-9963340D01*
X2898500Y-9856605D01*
X2898500Y-9675395D01*
X2829154Y-9507980D01*
X2778674Y-9457500D01*
X2843154Y-9393020D01*
X2912500Y-9225605D01*
X2912500Y-9044395D01*
X2843154Y-8876980D01*
X2715020Y-8748846D01*
X2547605Y-8679500D01*
X2366395Y-8679500D01*
X2198980Y-8748846D01*
X2070846Y-8876980D01*
X2001500Y-9044395D01*
X2001500Y-9225605D01*
X2070846Y-9393020D01*
X2121326Y-9443500D01*
X2056846Y-9507980D01*
X1987500Y-9675395D01*
X1987500Y-9856605D01*
X2056846Y-10024020D01*
X2081826Y-10049000D01*
X2049846Y-10080980D01*
X1980500Y-10248395D01*
X297000Y-10248395D01*
X297000Y-8519865D01*
X4013970Y-8519865D01*
X4013970Y-8701075D01*
X4083316Y-8868490D01*
X4211450Y-8996624D01*
X4378865Y-9065970D01*
X4560075Y-9065970D01*
X4727490Y-8996624D01*
X4855624Y-8868490D01*
X4924970Y-8701075D01*
X4924970Y-8625025D01*
X8061070Y-8625025D01*
X8061070Y-8806235D01*
X8130416Y-8973650D01*
X8258550Y-9101784D01*
X8425965Y-9171130D01*
X8503006Y-9171130D01*
X8567632Y-9327150D01*
X8695766Y-9455284D01*
X8863181Y-9524630D01*
X9044391Y-9524630D01*
X9211806Y-9455284D01*
X9339940Y-9327150D01*
X9364102Y-9268816D01*
X10692758Y-9268816D01*
X10711362Y-9370949D01*
X10926592Y-9421084D01*
X11144624Y-9385038D01*
X11178638Y-9370949D01*
X11197242Y-9268816D01*
X11592758Y-9268816D01*
X11611362Y-9370949D01*
X11826592Y-9421084D01*
X12044624Y-9385038D01*
X12078638Y-9370949D01*
X12097242Y-9268816D01*
X12842758Y-9268816D01*
X12861362Y-9370949D01*
X13076592Y-9421084D01*
X13294624Y-9385038D01*
X13328638Y-9370949D01*
X13347242Y-9268816D01*
X13792758Y-9268816D01*
X13811362Y-9370949D01*
X14026592Y-9421084D01*
X14244624Y-9385038D01*
X14278638Y-9370949D01*
X14297242Y-9268816D01*
X14145331Y-9116905D01*
X15547001Y-9116905D01*
X15547001Y-9298115D01*
X15616347Y-9465530D01*
X15744481Y-9593664D01*
X15911896Y-9663010D01*
X16093106Y-9663010D01*
X16118431Y-9652520D01*
X16153846Y-9738020D01*
X16281980Y-9866154D01*
X16449395Y-9935500D01*
X16630605Y-9935500D01*
X16798020Y-9866154D01*
X16817255Y-9846919D01*
X16829490Y-9859154D01*
X16996905Y-9928500D01*
X17178115Y-9928500D01*
X17345530Y-9859154D01*
X17473664Y-9731020D01*
X17543010Y-9563605D01*
X17543010Y-9382395D01*
X17494754Y-9265895D01*
X19505112Y-9265895D01*
X19505112Y-9447105D01*
X19574458Y-9614520D01*
X19702592Y-9742654D01*
X19870007Y-9812000D01*
X20051217Y-9812000D01*
X20218632Y-9742654D01*
X20346766Y-9614520D01*
X20416112Y-9447105D01*
X20416112Y-9386162D01*
X20488815Y-9386162D01*
X20656230Y-9316816D01*
X20718651Y-9254395D01*
X22349500Y-9254395D01*
X22349500Y-9435605D01*
X22418846Y-9603020D01*
X22546980Y-9731154D01*
X22665500Y-9780247D01*
X22665500Y-9879605D01*
X22710023Y-9987092D01*
X22589271Y-10037109D01*
X22461137Y-10165243D01*
X22391791Y-10332658D01*
X22391791Y-10513868D01*
X22461137Y-10681283D01*
X22589271Y-10809417D01*
X22756686Y-10878763D01*
X22937896Y-10878763D01*
X23105311Y-10809417D01*
X23233445Y-10681283D01*
X23302791Y-10513868D01*
X23302791Y-10332658D01*
X23258268Y-10225171D01*
X23379020Y-10175154D01*
X23507154Y-10047020D01*
X23576500Y-9879605D01*
X23576500Y-9698395D01*
X23507154Y-9530980D01*
X23379020Y-9402846D01*
X23260500Y-9353753D01*
X23260500Y-9254395D01*
X23245427Y-9218005D01*
X23373020Y-9165154D01*
X23501154Y-9037020D01*
X23570500Y-8869605D01*
X23570500Y-8688395D01*
X23501154Y-8520980D01*
X23373020Y-8392846D01*
X23285872Y-8356748D01*
X23302500Y-8316605D01*
X23302500Y-8135395D01*
X23233154Y-7967980D01*
X23105020Y-7839846D01*
X22937605Y-7770500D01*
X22756395Y-7770500D01*
X22588980Y-7839846D01*
X22460846Y-7967980D01*
X22391500Y-8135395D01*
X22391500Y-8316605D01*
X22460846Y-8484020D01*
X22588980Y-8612154D01*
X22676128Y-8648252D01*
X22659500Y-8688395D01*
X22659500Y-8869605D01*
X22674573Y-8905995D01*
X22546980Y-8958846D01*
X22418846Y-9086980D01*
X22349500Y-9254395D01*
X20718651Y-9254395D01*
X20784364Y-9188682D01*
X20853710Y-9021267D01*
X20853710Y-8840057D01*
X20784364Y-8672642D01*
X20656230Y-8544508D01*
X20488815Y-8475162D01*
X20424496Y-8475162D01*
X20424496Y-8410843D01*
X20355150Y-8243428D01*
X20227016Y-8115294D01*
X20059601Y-8045948D01*
X19878391Y-8045948D01*
X19710976Y-8115294D01*
X19582842Y-8243428D01*
X19513496Y-8410843D01*
X19513496Y-8592053D01*
X19582842Y-8759468D01*
X19710976Y-8887602D01*
X19806664Y-8927238D01*
X19702592Y-8970346D01*
X19574458Y-9098480D01*
X19505112Y-9265895D01*
X17494754Y-9265895D01*
X17473664Y-9214980D01*
X17345530Y-9086846D01*
X17178115Y-9017500D01*
X16996905Y-9017500D01*
X16829490Y-9086846D01*
X16810255Y-9106081D01*
X16798020Y-9093846D01*
X16630605Y-9024500D01*
X16449395Y-9024500D01*
X16424070Y-9034990D01*
X16388655Y-8949490D01*
X16260521Y-8821356D01*
X16093106Y-8752010D01*
X15911896Y-8752010D01*
X15744481Y-8821356D01*
X15616347Y-8949490D01*
X15547001Y-9116905D01*
X14145331Y-9116905D01*
X14045000Y-9016574D01*
X13792758Y-9268816D01*
X13347242Y-9268816D01*
X13095000Y-9016574D01*
X12842758Y-9268816D01*
X12097242Y-9268816D01*
X11845000Y-9016574D01*
X11592758Y-9268816D01*
X11197242Y-9268816D01*
X10945000Y-9016574D01*
X10692758Y-9268816D01*
X9364102Y-9268816D01*
X9409286Y-9159735D01*
X9409286Y-8978525D01*
X9350496Y-8836592D01*
X10378916Y-8836592D01*
X10414962Y-9054624D01*
X10429051Y-9088638D01*
X10531184Y-9107242D01*
X10783426Y-8855000D01*
X10760268Y-8831842D01*
X10911610Y-8680500D01*
X10932074Y-8680500D01*
X10945000Y-8693426D01*
X10957926Y-8680500D01*
X10960605Y-8680500D01*
X10973181Y-8675291D01*
X11129732Y-8831842D01*
X11106574Y-8855000D01*
X11321159Y-9069585D01*
X11329051Y-9088638D01*
X11342698Y-9091124D01*
X11358816Y-9107242D01*
X11395000Y-9100651D01*
X11431184Y-9107242D01*
X11447302Y-9091124D01*
X11460949Y-9088638D01*
X11464338Y-9074088D01*
X11683426Y-8855000D01*
X11660268Y-8831842D01*
X11821842Y-8670268D01*
X11845000Y-8693426D01*
X11868158Y-8670268D01*
X12029732Y-8831842D01*
X12006574Y-8855000D01*
X12258816Y-9107242D01*
X12360949Y-9088638D01*
X12411084Y-8873408D01*
X12375038Y-8655376D01*
X12363627Y-8627827D01*
X12428020Y-8601154D01*
X12500000Y-8529174D01*
X12586980Y-8616154D01*
X12593291Y-8618768D01*
X12579051Y-8621362D01*
X12528916Y-8836592D01*
X12564962Y-9054624D01*
X12579051Y-9088638D01*
X12681184Y-9107242D01*
X12933426Y-8855000D01*
X12910268Y-8831842D01*
X13071842Y-8670268D01*
X13095000Y-8693426D01*
X13118158Y-8670268D01*
X13279732Y-8831842D01*
X13256574Y-8855000D01*
X13508816Y-9107242D01*
X13570000Y-9096097D01*
X13631184Y-9107242D01*
X13883426Y-8855000D01*
X13860268Y-8831842D01*
X14021842Y-8670268D01*
X14045000Y-8693426D01*
X14068158Y-8670268D01*
X14229732Y-8831842D01*
X14206574Y-8855000D01*
X14458816Y-9107242D01*
X14560949Y-9088638D01*
X14611084Y-8873408D01*
X14575038Y-8655376D01*
X14560949Y-8621362D01*
X14474071Y-8605537D01*
X14533538Y-8546070D01*
X14480821Y-8493353D01*
X14506154Y-8468020D01*
X14575500Y-8300605D01*
X14575500Y-8119395D01*
X14553689Y-8066737D01*
X16114044Y-8066737D01*
X16114044Y-8247947D01*
X16183390Y-8415362D01*
X16311524Y-8543496D01*
X16478939Y-8612842D01*
X16641049Y-8612842D01*
X16673846Y-8692020D01*
X16801980Y-8820154D01*
X16969395Y-8889500D01*
X17150605Y-8889500D01*
X17318020Y-8820154D01*
X17446154Y-8692020D01*
X17515500Y-8524605D01*
X17515500Y-8343395D01*
X17446154Y-8175980D01*
X17329475Y-8059301D01*
X17381634Y-8007142D01*
X17450980Y-7839727D01*
X17450980Y-7839500D01*
X17628605Y-7839500D01*
X17796020Y-7770154D01*
X17924154Y-7642020D01*
X17993500Y-7474605D01*
X17993500Y-7381508D01*
X20200982Y-7381508D01*
X20200982Y-7562718D01*
X20270328Y-7730133D01*
X20398462Y-7858267D01*
X20565877Y-7927613D01*
X20747087Y-7927613D01*
X20914502Y-7858267D01*
X21042636Y-7730133D01*
X21111982Y-7562718D01*
X21111982Y-7381508D01*
X21042636Y-7214093D01*
X20984938Y-7156395D01*
X22355500Y-7156395D01*
X22355500Y-7337605D01*
X22424846Y-7505020D01*
X22552980Y-7633154D01*
X22720395Y-7702500D01*
X22901605Y-7702500D01*
X23069020Y-7633154D01*
X23197154Y-7505020D01*
X23266500Y-7337605D01*
X23266500Y-7211762D01*
X23379020Y-7165154D01*
X23507154Y-7037020D01*
X23576500Y-6869605D01*
X23576500Y-6688395D01*
X23507154Y-6520980D01*
X23379020Y-6392846D01*
X23290500Y-6356180D01*
X23290500Y-6177395D01*
X23278636Y-6148752D01*
X23355245Y-6117019D01*
X23483379Y-5988885D01*
X23552725Y-5821470D01*
X23552725Y-5640260D01*
X23483379Y-5472845D01*
X23355245Y-5344711D01*
X23187830Y-5275365D01*
X23006620Y-5275365D01*
X22839205Y-5344711D01*
X22711071Y-5472845D01*
X22641725Y-5640260D01*
X22641725Y-5821470D01*
X22653589Y-5850113D01*
X22576980Y-5881846D01*
X22448846Y-6009980D01*
X22379500Y-6177395D01*
X22379500Y-6358605D01*
X22448846Y-6526020D01*
X22576980Y-6654154D01*
X22665500Y-6690820D01*
X22665500Y-6814238D01*
X22552980Y-6860846D01*
X22424846Y-6988980D01*
X22355500Y-7156395D01*
X20984938Y-7156395D01*
X20914502Y-7085959D01*
X20747087Y-7016613D01*
X20565877Y-7016613D01*
X20398462Y-7085959D01*
X20270328Y-7214093D01*
X20200982Y-7381508D01*
X17993500Y-7381508D01*
X17993500Y-7293395D01*
X17924154Y-7125980D01*
X17796020Y-6997846D01*
X17628605Y-6928500D01*
X17447395Y-6928500D01*
X17279980Y-6997846D01*
X17228282Y-7049544D01*
X17196154Y-6971980D01*
X17068020Y-6843846D01*
X16900605Y-6774500D01*
X16719395Y-6774500D01*
X16551980Y-6843846D01*
X16423846Y-6971980D01*
X16354500Y-7139395D01*
X16354500Y-7320605D01*
X16423846Y-7488020D01*
X16551980Y-7616154D01*
X16556715Y-7618115D01*
X16539980Y-7658517D01*
X16539980Y-7701842D01*
X16478939Y-7701842D01*
X16311524Y-7771188D01*
X16183390Y-7899322D01*
X16114044Y-8066737D01*
X14553689Y-8066737D01*
X14506154Y-7951980D01*
X14378020Y-7823846D01*
X14210605Y-7754500D01*
X14029395Y-7754500D01*
X13861980Y-7823846D01*
X13797500Y-7888326D01*
X13728020Y-7818846D01*
X13560605Y-7749500D01*
X13379395Y-7749500D01*
X13211980Y-7818846D01*
X13145000Y-7885826D01*
X13126674Y-7867500D01*
X13206154Y-7788020D01*
X13275500Y-7620605D01*
X13275500Y-7439395D01*
X13206154Y-7271980D01*
X13078020Y-7143846D01*
X12910605Y-7074500D01*
X12729395Y-7074500D01*
X12561980Y-7143846D01*
X12495000Y-7210826D01*
X12428020Y-7143846D01*
X12260605Y-7074500D01*
X12079395Y-7074500D01*
X11911980Y-7143846D01*
X11783846Y-7271980D01*
X11714500Y-7439395D01*
X11714500Y-7620605D01*
X11783846Y-7788020D01*
X11868326Y-7872500D01*
X11817500Y-7923326D01*
X11728020Y-7833846D01*
X11560605Y-7764500D01*
X11379395Y-7764500D01*
X11211980Y-7833846D01*
X11167500Y-7878326D01*
X11128020Y-7838846D01*
X10960605Y-7769500D01*
X10779395Y-7769500D01*
X10611980Y-7838846D01*
X10483846Y-7966980D01*
X10414500Y-8134395D01*
X10414500Y-8315605D01*
X10483846Y-8483020D01*
X10501679Y-8500853D01*
X10456462Y-8546070D01*
X10515929Y-8605537D01*
X10429051Y-8621362D01*
X10378916Y-8836592D01*
X9350496Y-8836592D01*
X9339940Y-8811110D01*
X9211806Y-8682976D01*
X9044391Y-8613630D01*
X8967350Y-8613630D01*
X8915061Y-8487395D01*
X8957936Y-8444520D01*
X9027282Y-8277105D01*
X9027282Y-8095895D01*
X8957936Y-7928480D01*
X8918456Y-7889000D01*
X9022605Y-7889000D01*
X9190020Y-7819654D01*
X9318154Y-7691520D01*
X9387500Y-7524105D01*
X9387500Y-7342895D01*
X9318154Y-7175480D01*
X9190020Y-7047346D01*
X9022605Y-6978000D01*
X8841395Y-6978000D01*
X8673980Y-7047346D01*
X8545846Y-7175480D01*
X8476500Y-7342895D01*
X8476500Y-7524105D01*
X8545846Y-7691520D01*
X8585326Y-7731000D01*
X8481177Y-7731000D01*
X8313762Y-7800346D01*
X8185628Y-7928480D01*
X8116282Y-8095895D01*
X8116282Y-8277105D01*
X8173291Y-8414735D01*
X8130416Y-8457610D01*
X8061070Y-8625025D01*
X4924970Y-8625025D01*
X4924970Y-8519865D01*
X4886230Y-8426338D01*
X4899896Y-8431999D01*
X5081106Y-8431999D01*
X5248521Y-8362653D01*
X5376655Y-8234519D01*
X5446001Y-8067104D01*
X5446001Y-7885894D01*
X5376655Y-7718479D01*
X5248521Y-7590345D01*
X5081106Y-7520999D01*
X4899896Y-7520999D01*
X4732481Y-7590345D01*
X4604347Y-7718479D01*
X4535001Y-7885894D01*
X4535001Y-8067104D01*
X4573741Y-8160631D01*
X4560075Y-8154970D01*
X4378865Y-8154970D01*
X4211450Y-8224316D01*
X4083316Y-8352450D01*
X4013970Y-8519865D01*
X297000Y-8519865D01*
X297000Y-7590887D01*
X1553026Y-7590887D01*
X1553026Y-7772097D01*
X1622372Y-7939512D01*
X1750506Y-8067646D01*
X1917921Y-8136992D01*
X2099131Y-8136992D01*
X2266546Y-8067646D01*
X2394680Y-7939512D01*
X2464026Y-7772097D01*
X2464026Y-7590887D01*
X2394680Y-7423472D01*
X2266546Y-7295338D01*
X2099131Y-7225992D01*
X1917921Y-7225992D01*
X1750506Y-7295338D01*
X1622372Y-7423472D01*
X1553026Y-7590887D01*
X297000Y-7590887D01*
X297000Y-6640395D01*
X1474000Y-6640395D01*
X1474000Y-6821605D01*
X1543346Y-6989020D01*
X1671480Y-7117154D01*
X1838895Y-7186500D01*
X2020105Y-7186500D01*
X2187520Y-7117154D01*
X2216175Y-7088499D01*
X2250356Y-7171020D01*
X2378490Y-7299154D01*
X2545905Y-7368500D01*
X2727115Y-7368500D01*
X2894530Y-7299154D01*
X3022664Y-7171020D01*
X3092010Y-7003605D01*
X3092010Y-6925500D01*
X3190105Y-6925500D01*
X3357520Y-6856154D01*
X3485654Y-6728020D01*
X3555000Y-6560605D01*
X3555000Y-6379395D01*
X3546716Y-6359395D01*
X3571000Y-6359395D01*
X3571000Y-6540605D01*
X3640346Y-6708020D01*
X3768480Y-6836154D01*
X3935895Y-6905500D01*
X4070326Y-6905500D01*
X3999239Y-6976587D01*
X3929893Y-7144002D01*
X3929893Y-7325212D01*
X3999239Y-7492627D01*
X4127373Y-7620761D01*
X4294788Y-7690107D01*
X4475998Y-7690107D01*
X4643413Y-7620761D01*
X4771547Y-7492627D01*
X4840893Y-7325212D01*
X4840893Y-7260893D01*
X4905212Y-7260893D01*
X5072627Y-7191547D01*
X5200761Y-7063413D01*
X5270107Y-6895998D01*
X5270107Y-6714788D01*
X5262489Y-6696395D01*
X7041000Y-6696395D01*
X7041000Y-6877605D01*
X7110346Y-7045020D01*
X7238480Y-7173154D01*
X7405895Y-7242500D01*
X7587105Y-7242500D01*
X7754520Y-7173154D01*
X7800000Y-7127674D01*
X7845480Y-7173154D01*
X8012895Y-7242500D01*
X8194105Y-7242500D01*
X8361520Y-7173154D01*
X8489654Y-7045020D01*
X8559000Y-6877605D01*
X8559000Y-6696395D01*
X8489654Y-6528980D01*
X8361520Y-6400846D01*
X8194105Y-6331500D01*
X8012895Y-6331500D01*
X7845480Y-6400846D01*
X7800000Y-6446326D01*
X7754520Y-6400846D01*
X7587105Y-6331500D01*
X7405895Y-6331500D01*
X7238480Y-6400846D01*
X7110346Y-6528980D01*
X7041000Y-6696395D01*
X5262489Y-6696395D01*
X5200761Y-6547373D01*
X5072627Y-6419239D01*
X4905212Y-6349893D01*
X4724002Y-6349893D01*
X4556587Y-6419239D01*
X4482000Y-6493826D01*
X4482000Y-6359395D01*
X4454496Y-6292994D01*
X4579940Y-6344955D01*
X4761150Y-6344955D01*
X4928565Y-6275609D01*
X5056699Y-6147475D01*
X5126045Y-5980060D01*
X5126045Y-5956045D01*
X5150060Y-5956045D01*
X5317475Y-5886699D01*
X5445609Y-5758565D01*
X5514955Y-5591150D01*
X5514955Y-5539395D01*
X15844500Y-5539395D01*
X15844500Y-5720605D01*
X15913846Y-5888020D01*
X16041980Y-6016154D01*
X16105103Y-6042301D01*
X16059500Y-6152395D01*
X16059500Y-6333605D01*
X16128846Y-6501020D01*
X16256980Y-6629154D01*
X16424395Y-6698500D01*
X16605605Y-6698500D01*
X16773020Y-6629154D01*
X16901154Y-6501020D01*
X16970500Y-6333605D01*
X16970500Y-6152395D01*
X16901154Y-5984980D01*
X16885569Y-5969395D01*
X17024500Y-5969395D01*
X17024500Y-6150605D01*
X17093846Y-6318020D01*
X17221980Y-6446154D01*
X17389395Y-6515500D01*
X17570605Y-6515500D01*
X17738020Y-6446154D01*
X17866154Y-6318020D01*
X17935500Y-6150605D01*
X17935500Y-5969395D01*
X17866154Y-5801980D01*
X17738020Y-5673846D01*
X17570605Y-5604500D01*
X17389395Y-5604500D01*
X17221980Y-5673846D01*
X17093846Y-5801980D01*
X17024500Y-5969395D01*
X16885569Y-5969395D01*
X16773020Y-5856846D01*
X16709897Y-5830699D01*
X16755500Y-5720605D01*
X16755500Y-5539395D01*
X16686154Y-5371980D01*
X16558020Y-5243846D01*
X16450707Y-5199395D01*
X19244500Y-5199395D01*
X19244500Y-5380605D01*
X19313846Y-5548020D01*
X19441980Y-5676154D01*
X19609395Y-5745500D01*
X19790605Y-5745500D01*
X19958020Y-5676154D01*
X19992321Y-5641853D01*
X19999846Y-5660020D01*
X20057826Y-5718000D01*
X20028453Y-5747373D01*
X19959107Y-5914788D01*
X19959107Y-5979107D01*
X19894788Y-5979107D01*
X19727373Y-6048453D01*
X19599239Y-6176587D01*
X19529893Y-6344002D01*
X19529893Y-6525212D01*
X19599239Y-6692627D01*
X19727373Y-6820761D01*
X19894788Y-6890107D01*
X20075998Y-6890107D01*
X20243413Y-6820761D01*
X20371547Y-6692627D01*
X20440893Y-6525212D01*
X20440893Y-6460893D01*
X20505212Y-6460893D01*
X20672627Y-6391547D01*
X20800761Y-6263413D01*
X20870107Y-6095998D01*
X20870107Y-5914788D01*
X20800761Y-5747373D01*
X20742781Y-5689393D01*
X20772154Y-5660020D01*
X20841500Y-5492605D01*
X20841500Y-5311395D01*
X20796769Y-5203405D01*
X20869154Y-5131020D01*
X20938500Y-4963605D01*
X20938500Y-4782395D01*
X20869154Y-4614980D01*
X20853174Y-4599000D01*
X20946154Y-4506020D01*
X21015500Y-4338605D01*
X21015500Y-4157395D01*
X20946154Y-3989980D01*
X20818020Y-3861846D01*
X20650605Y-3792500D01*
X20469395Y-3792500D01*
X20301980Y-3861846D01*
X20173846Y-3989980D01*
X20104500Y-4157395D01*
X20104500Y-4338605D01*
X20173846Y-4506020D01*
X20189826Y-4522000D01*
X20096846Y-4614980D01*
X20027500Y-4782395D01*
X20027500Y-4963605D01*
X20034374Y-4980200D01*
X19958020Y-4903846D01*
X19790605Y-4834500D01*
X19609395Y-4834500D01*
X19441980Y-4903846D01*
X19313846Y-5031980D01*
X19244500Y-5199395D01*
X16450707Y-5199395D01*
X16390605Y-5174500D01*
X16209395Y-5174500D01*
X16041980Y-5243846D01*
X15913846Y-5371980D01*
X15844500Y-5539395D01*
X5514955Y-5539395D01*
X5514955Y-5409940D01*
X5445609Y-5242525D01*
X5317475Y-5114391D01*
X5150060Y-5045045D01*
X4968850Y-5045045D01*
X4854950Y-5092224D01*
X4858154Y-5089020D01*
X4927500Y-4921605D01*
X4927500Y-4740395D01*
X4858154Y-4572980D01*
X4730020Y-4444846D01*
X4562605Y-4375500D01*
X4381395Y-4375500D01*
X4213980Y-4444846D01*
X4085846Y-4572980D01*
X4016500Y-4740395D01*
X4016500Y-4921605D01*
X4066161Y-5041496D01*
X4008350Y-5099307D01*
X3939004Y-5266722D01*
X3939004Y-5447932D01*
X4008350Y-5615347D01*
X4136484Y-5743481D01*
X4223116Y-5779365D01*
X4215045Y-5798850D01*
X4215045Y-5980060D01*
X4242549Y-6046461D01*
X4117105Y-5994500D01*
X3935895Y-5994500D01*
X3768480Y-6063846D01*
X3640346Y-6191980D01*
X3571000Y-6359395D01*
X3546716Y-6359395D01*
X3485654Y-6211980D01*
X3357520Y-6083846D01*
X3190105Y-6014500D01*
X3008895Y-6014500D01*
X2841480Y-6083846D01*
X2713346Y-6211980D01*
X2644000Y-6379395D01*
X2644000Y-6457500D01*
X2545905Y-6457500D01*
X2378490Y-6526846D01*
X2349835Y-6555501D01*
X2315654Y-6472980D01*
X2187520Y-6344846D01*
X2020105Y-6275500D01*
X1838895Y-6275500D01*
X1671480Y-6344846D01*
X1543346Y-6472980D01*
X1474000Y-6640395D01*
X297000Y-6640395D01*
X297000Y-3660608D01*
X8781347Y-3660608D01*
X8781347Y-3841818D01*
X8850693Y-4009233D01*
X8871173Y-4029713D01*
X8850693Y-4050193D01*
X8781347Y-4217608D01*
X8781347Y-4398818D01*
X8850693Y-4566233D01*
X8978827Y-4694367D01*
X9146242Y-4763713D01*
X9327452Y-4763713D01*
X9494867Y-4694367D01*
X9623001Y-4566233D01*
X9692347Y-4398818D01*
X9692347Y-4217608D01*
X9623001Y-4050193D01*
X9602521Y-4029713D01*
X9623001Y-4009233D01*
X9664028Y-3910186D01*
X9704345Y-4007520D01*
X9832479Y-4135654D01*
X9999894Y-4205000D01*
X10181104Y-4205000D01*
X10348519Y-4135654D01*
X10411593Y-4072580D01*
X10413846Y-4078020D01*
X10455826Y-4120000D01*
X10413846Y-4161980D01*
X10344500Y-4329395D01*
X10344500Y-4510605D01*
X10359952Y-4547909D01*
X10236980Y-4598846D01*
X10108846Y-4726980D01*
X10039500Y-4894395D01*
X10039500Y-5075605D01*
X10108846Y-5243020D01*
X10236980Y-5371154D01*
X10404395Y-5440500D01*
X10585605Y-5440500D01*
X10753020Y-5371154D01*
X10881154Y-5243020D01*
X10950500Y-5075605D01*
X10950500Y-4894395D01*
X10935048Y-4857091D01*
X11058020Y-4806154D01*
X11134779Y-4729395D01*
X12393000Y-4729395D01*
X12393000Y-4910605D01*
X12462346Y-5078020D01*
X12590480Y-5206154D01*
X12757895Y-5275500D01*
X12939105Y-5275500D01*
X13106520Y-5206154D01*
X13234654Y-5078020D01*
X13261000Y-5014416D01*
X13287346Y-5078020D01*
X13415480Y-5206154D01*
X13582895Y-5275500D01*
X13764105Y-5275500D01*
X13931520Y-5206154D01*
X14059654Y-5078020D01*
X14129000Y-4910605D01*
X14129000Y-4729395D01*
X14059654Y-4561980D01*
X13931520Y-4433846D01*
X13764105Y-4364500D01*
X13582895Y-4364500D01*
X13415480Y-4433846D01*
X13287346Y-4561980D01*
X13261000Y-4625584D01*
X13234654Y-4561980D01*
X13106520Y-4433846D01*
X12939105Y-4364500D01*
X12757895Y-4364500D01*
X12590480Y-4433846D01*
X12462346Y-4561980D01*
X12393000Y-4729395D01*
X11134779Y-4729395D01*
X11186154Y-4678020D01*
X11255500Y-4510605D01*
X11255500Y-4329395D01*
X14145400Y-4329395D01*
X14145400Y-4510605D01*
X14214746Y-4678020D01*
X14342880Y-4806154D01*
X14510295Y-4875500D01*
X14691505Y-4875500D01*
X14858920Y-4806154D01*
X14987054Y-4678020D01*
X15016429Y-4607103D01*
X15095480Y-4686154D01*
X15262895Y-4755500D01*
X15444105Y-4755500D01*
X15611520Y-4686154D01*
X15739654Y-4558020D01*
X15756481Y-4517395D01*
X16227500Y-4517395D01*
X16227500Y-4698605D01*
X16296846Y-4866020D01*
X16424980Y-4994154D01*
X16592395Y-5063500D01*
X16773605Y-5063500D01*
X16941020Y-4994154D01*
X17069154Y-4866020D01*
X17138500Y-4698605D01*
X17138500Y-4517395D01*
X17069154Y-4349980D01*
X16941020Y-4221846D01*
X16773605Y-4152500D01*
X16592395Y-4152500D01*
X16424980Y-4221846D01*
X16296846Y-4349980D01*
X16227500Y-4517395D01*
X15756481Y-4517395D01*
X15809000Y-4390605D01*
X15809000Y-4209395D01*
X15739654Y-4041980D01*
X15611520Y-3913846D01*
X15444105Y-3844500D01*
X15262895Y-3844500D01*
X15095480Y-3913846D01*
X14967346Y-4041980D01*
X14937971Y-4112897D01*
X14858920Y-4033846D01*
X14691505Y-3964500D01*
X14510295Y-3964500D01*
X14342880Y-4033846D01*
X14214746Y-4161980D01*
X14145400Y-4329395D01*
X11255500Y-4329395D01*
X11186154Y-4161980D01*
X11144174Y-4120000D01*
X11186154Y-4078020D01*
X11255500Y-3910605D01*
X11255500Y-3729395D01*
X11186154Y-3561980D01*
X11058020Y-3433846D01*
X10890605Y-3364500D01*
X10709395Y-3364500D01*
X10541980Y-3433846D01*
X10478906Y-3496920D01*
X10476653Y-3491480D01*
X10348519Y-3363346D01*
X10181104Y-3294000D01*
X9999894Y-3294000D01*
X9832479Y-3363346D01*
X9704345Y-3491480D01*
X9663318Y-3590527D01*
X9623001Y-3493193D01*
X9494867Y-3365059D01*
X9327452Y-3295713D01*
X9146242Y-3295713D01*
X8978827Y-3365059D01*
X8850693Y-3493193D01*
X8781347Y-3660608D01*
X297000Y-3660608D01*
X297000Y-2949395D01*
X3924500Y-2949395D01*
X3924500Y-3130605D01*
X3993846Y-3298020D01*
X4121980Y-3426154D01*
X4289395Y-3495500D01*
X4470605Y-3495500D01*
X4638020Y-3426154D01*
X4766154Y-3298020D01*
X4835500Y-3130605D01*
X4835500Y-2949395D01*
X4830530Y-2937395D01*
X20623500Y-2937395D01*
X20623500Y-3118605D01*
X20692846Y-3286020D01*
X20820980Y-3414154D01*
X20988395Y-3483500D01*
X21169605Y-3483500D01*
X21337020Y-3414154D01*
X21465154Y-3286020D01*
X21534500Y-3118605D01*
X21534500Y-2937395D01*
X21465154Y-2769980D01*
X21337020Y-2641846D01*
X21169605Y-2572500D01*
X20988395Y-2572500D01*
X20820980Y-2641846D01*
X20692846Y-2769980D01*
X20623500Y-2937395D01*
X4830530Y-2937395D01*
X4766154Y-2781980D01*
X4638020Y-2653846D01*
X4470605Y-2584500D01*
X4289395Y-2584500D01*
X4121980Y-2653846D01*
X3993846Y-2781980D01*
X3924500Y-2949395D01*
X297000Y-2949395D01*
X297000Y-1737395D01*
X3767500Y-1737395D01*
X3767500Y-1918605D01*
X3836846Y-2086020D01*
X3964980Y-2214154D01*
X4132395Y-2283500D01*
X4313605Y-2283500D01*
X4481020Y-2214154D01*
X4609154Y-2086020D01*
X4678500Y-1918605D01*
X4678500Y-1796395D01*
X4928500Y-1796395D01*
X4928500Y-1977605D01*
X4997846Y-2145020D01*
X5125980Y-2273154D01*
X5293395Y-2342500D01*
X5474605Y-2342500D01*
X5642020Y-2273154D01*
X5651779Y-2263395D01*
X12714500Y-2263395D01*
X12714500Y-2444605D01*
X12783846Y-2612020D01*
X12911980Y-2740154D01*
X13079395Y-2809500D01*
X13260605Y-2809500D01*
X13428020Y-2740154D01*
X13556154Y-2612020D01*
X13625500Y-2444605D01*
X13625500Y-2263395D01*
X13556154Y-2095980D01*
X13515569Y-2055395D01*
X15160500Y-2055395D01*
X15160500Y-2236605D01*
X15229846Y-2404020D01*
X15357980Y-2532154D01*
X15525395Y-2601500D01*
X15706605Y-2601500D01*
X15874020Y-2532154D01*
X16002154Y-2404020D01*
X16071500Y-2236605D01*
X16071500Y-2055395D01*
X16002154Y-1887980D01*
X15874020Y-1759846D01*
X15706605Y-1690500D01*
X15525395Y-1690500D01*
X15357980Y-1759846D01*
X15229846Y-1887980D01*
X15160500Y-2055395D01*
X13515569Y-2055395D01*
X13428020Y-1967846D01*
X13260605Y-1898500D01*
X13079395Y-1898500D01*
X12911980Y-1967846D01*
X12783846Y-2095980D01*
X12714500Y-2263395D01*
X5651779Y-2263395D01*
X5770154Y-2145020D01*
X5839500Y-1977605D01*
X5839500Y-1796395D01*
X5770154Y-1628980D01*
X5642020Y-1500846D01*
X5502115Y-1442895D01*
X6482500Y-1442895D01*
X6482500Y-1624105D01*
X6551846Y-1791520D01*
X6679980Y-1919654D01*
X6847395Y-1989000D01*
X7028605Y-1989000D01*
X7196020Y-1919654D01*
X7324154Y-1791520D01*
X7393500Y-1624105D01*
X7393500Y-1589395D01*
X10630500Y-1589395D01*
X10630500Y-1770605D01*
X10699846Y-1938020D01*
X10827980Y-2066154D01*
X10995395Y-2135500D01*
X11176605Y-2135500D01*
X11344020Y-2066154D01*
X11472154Y-1938020D01*
X11541500Y-1770605D01*
X11541500Y-1589395D01*
X11472154Y-1421980D01*
X11344020Y-1293846D01*
X11176605Y-1224500D01*
X10995395Y-1224500D01*
X10827980Y-1293846D01*
X10699846Y-1421980D01*
X10630500Y-1589395D01*
X7393500Y-1589395D01*
X7393500Y-1442895D01*
X7324154Y-1275480D01*
X7196020Y-1147346D01*
X7028605Y-1078000D01*
X6847395Y-1078000D01*
X6679980Y-1147346D01*
X6551846Y-1275480D01*
X6482500Y-1442895D01*
X5502115Y-1442895D01*
X5474605Y-1431500D01*
X5293395Y-1431500D01*
X5125980Y-1500846D01*
X4997846Y-1628980D01*
X4928500Y-1796395D01*
X4678500Y-1796395D01*
X4678500Y-1737395D01*
X4609154Y-1569980D01*
X4481020Y-1441846D01*
X4313605Y-1372500D01*
X4132395Y-1372500D01*
X3964980Y-1441846D01*
X3836846Y-1569980D01*
X3767500Y-1737395D01*
X297000Y-1737395D01*
X297000Y-307000D01*
X24693001Y-307000D01*
X24693000Y-19703000D01*
G04 #@! TD*
M02*
