G04 #@! TF.GenerationSoftware,KiCad,Pcbnew,5.0.2+dfsg1-1~bpo9+1*
G04 #@! TF.CreationDate,2019-10-17T14:08:20+02:00*
G04 #@! TF.ProjectId,zglue-jade-adapter,7a676c75-652d-46a6-9164-652d61646170,rev?*
G04 #@! TF.SameCoordinates,Original*
G04 #@! TF.FileFunction,Soldermask,Bot*
G04 #@! TF.FilePolarity,Negative*
%FSLAX46Y46*%
G04 Gerber Fmt 4.6, Leading zero omitted, Abs format (unit mm)*
G04 Created by KiCad (PCBNEW 5.0.2+dfsg1-1~bpo9+1) date Thu 17 Oct 2019 02:08:20 PM CEST*
%MOMM*%
%LPD*%
G01*
G04 APERTURE LIST*
%ADD10C,0.100000*%
G04 APERTURE END LIST*
D10*
G36*
X7024260Y-16664500D02*
X5602260Y-16664500D01*
X5602260Y-15262500D01*
X7024260Y-15262500D01*
X7024260Y-16664500D01*
X7024260Y-16664500D01*
G37*
G36*
X24524260Y-16664500D02*
X23102260Y-16664500D01*
X23102260Y-15262500D01*
X24524260Y-15262500D01*
X24524260Y-16664500D01*
X24524260Y-16664500D01*
G37*
G36*
X19403620Y-16659420D02*
X17981620Y-16659420D01*
X17981620Y-15257420D01*
X19403620Y-15257420D01*
X19403620Y-16659420D01*
X19403620Y-16659420D01*
G37*
G36*
X1903620Y-16659420D02*
X481620Y-16659420D01*
X481620Y-15257420D01*
X1903620Y-15257420D01*
X1903620Y-16659420D01*
X1903620Y-16659420D01*
G37*
G36*
X19103120Y-14958000D02*
X17901120Y-14958000D01*
X17901120Y-5056000D01*
X19103120Y-5056000D01*
X19103120Y-14958000D01*
X19103120Y-14958000D01*
G37*
G36*
X24602220Y-14958000D02*
X23400220Y-14958000D01*
X23400220Y-5056000D01*
X24602220Y-5056000D01*
X24602220Y-14958000D01*
X24602220Y-14958000D01*
G37*
G36*
X1603120Y-14958000D02*
X401120Y-14958000D01*
X401120Y-5056000D01*
X1603120Y-5056000D01*
X1603120Y-14958000D01*
X1603120Y-14958000D01*
G37*
G36*
X7102220Y-14958000D02*
X5900220Y-14958000D01*
X5900220Y-5056000D01*
X7102220Y-5056000D01*
X7102220Y-14958000D01*
X7102220Y-14958000D01*
G37*
G36*
X1903620Y-4756980D02*
X481620Y-4756980D01*
X481620Y-3354980D01*
X1903620Y-3354980D01*
X1903620Y-4756980D01*
X1903620Y-4756980D01*
G37*
G36*
X7024260Y-4756980D02*
X5602260Y-4756980D01*
X5602260Y-3354980D01*
X7024260Y-3354980D01*
X7024260Y-4756980D01*
X7024260Y-4756980D01*
G37*
G36*
X19403620Y-4756980D02*
X17981620Y-4756980D01*
X17981620Y-3354980D01*
X19403620Y-3354980D01*
X19403620Y-4756980D01*
X19403620Y-4756980D01*
G37*
G36*
X24524260Y-4756980D02*
X23102260Y-4756980D01*
X23102260Y-3354980D01*
X24524260Y-3354980D01*
X24524260Y-4756980D01*
X24524260Y-4756980D01*
G37*
M02*
