G04 #@! TF.GenerationSoftware,KiCad,Pcbnew,5.0.2+dfsg1-1~bpo9+1*
G04 #@! TF.CreationDate,2019-10-16T17:12:59+02:00*
G04 #@! TF.ProjectId,zglue-jade-adapter,7a676c75-652d-46a6-9164-652d61646170,rev?*
G04 #@! TF.SameCoordinates,Original*
G04 #@! TF.FileFunction,Legend,Top*
G04 #@! TF.FilePolarity,Positive*
%FSLAX46Y46*%
G04 Gerber Fmt 4.6, Leading zero omitted, Abs format (unit mm)*
G04 Created by KiCad (PCBNEW 5.0.2+dfsg1-1~bpo9+1) date Wed 16 Oct 2019 05:12:59 PM CEST*
%MOMM*%
%LPD*%
G01*
G04 APERTURE LIST*
%ADD10C,0.100000*%
%ADD11C,0.150000*%
G04 APERTURE END LIST*
D10*
G04 #@! TO.C,U1*
X9100000Y-5250000D02*
X9100000Y-14750000D01*
X15900000Y-5250000D02*
X15900000Y-14750000D01*
X9100000Y-5250000D02*
X15900000Y-5250000D01*
X9100000Y-14750000D02*
X15900000Y-14750000D01*
D11*
X16146666Y-5916666D02*
X16146666Y-6483333D01*
X16180000Y-6550000D01*
X16213333Y-6583333D01*
X16280000Y-6616666D01*
X16413333Y-6616666D01*
X16480000Y-6583333D01*
X16513333Y-6550000D01*
X16546666Y-6483333D01*
X16546666Y-5916666D01*
X17246666Y-6616666D02*
X16846666Y-6616666D01*
X17046666Y-6616666D02*
X17046666Y-5916666D01*
X16980000Y-6016666D01*
X16913333Y-6083333D01*
X16846666Y-6116666D01*
G04 #@! TO.C,TP5*
X17266666Y-2043333D02*
X17266666Y-1643333D01*
X17966666Y-1843333D02*
X17266666Y-1843333D01*
X17966666Y-1410000D02*
X17266666Y-1410000D01*
X17266666Y-1143333D01*
X17300000Y-1076666D01*
X17333333Y-1043333D01*
X17400000Y-1010000D01*
X17500000Y-1010000D01*
X17566666Y-1043333D01*
X17600000Y-1076666D01*
X17633333Y-1143333D01*
X17633333Y-1410000D01*
X17266666Y-376666D02*
X17266666Y-710000D01*
X17600000Y-743333D01*
X17566666Y-710000D01*
X17533333Y-643333D01*
X17533333Y-476666D01*
X17566666Y-410000D01*
X17600000Y-376666D01*
X17666666Y-343333D01*
X17833333Y-343333D01*
X17900000Y-376666D01*
X17933333Y-410000D01*
X17966666Y-476666D01*
X17966666Y-643333D01*
X17933333Y-710000D01*
X17900000Y-743333D01*
G04 #@! TO.C,TP6*
X22766666Y-5703333D02*
X22766666Y-5303333D01*
X23466666Y-5503333D02*
X22766666Y-5503333D01*
X23466666Y-5070000D02*
X22766666Y-5070000D01*
X22766666Y-4803333D01*
X22800000Y-4736666D01*
X22833333Y-4703333D01*
X22900000Y-4670000D01*
X23000000Y-4670000D01*
X23066666Y-4703333D01*
X23100000Y-4736666D01*
X23133333Y-4803333D01*
X23133333Y-5070000D01*
X22766666Y-4070000D02*
X22766666Y-4203333D01*
X22800000Y-4270000D01*
X22833333Y-4303333D01*
X22933333Y-4370000D01*
X23066666Y-4403333D01*
X23333333Y-4403333D01*
X23400000Y-4370000D01*
X23433333Y-4336666D01*
X23466666Y-4270000D01*
X23466666Y-4136666D01*
X23433333Y-4070000D01*
X23400000Y-4036666D01*
X23333333Y-4003333D01*
X23166666Y-4003333D01*
X23100000Y-4036666D01*
X23066666Y-4070000D01*
X23033333Y-4136666D01*
X23033333Y-4270000D01*
X23066666Y-4336666D01*
X23100000Y-4370000D01*
X23166666Y-4403333D01*
G04 #@! TO.C,TP31*
X23715866Y-18036666D02*
X23715866Y-17636666D01*
X24415866Y-17836666D02*
X23715866Y-17836666D01*
X24415866Y-17403333D02*
X23715866Y-17403333D01*
X23715866Y-17136666D01*
X23749200Y-17070000D01*
X23782533Y-17036666D01*
X23849200Y-17003333D01*
X23949200Y-17003333D01*
X24015866Y-17036666D01*
X24049200Y-17070000D01*
X24082533Y-17136666D01*
X24082533Y-17403333D01*
X23715866Y-16770000D02*
X23715866Y-16336666D01*
X23982533Y-16570000D01*
X23982533Y-16470000D01*
X24015866Y-16403333D01*
X24049200Y-16370000D01*
X24115866Y-16336666D01*
X24282533Y-16336666D01*
X24349200Y-16370000D01*
X24382533Y-16403333D01*
X24415866Y-16470000D01*
X24415866Y-16670000D01*
X24382533Y-16736666D01*
X24349200Y-16770000D01*
X24415866Y-15670000D02*
X24415866Y-16070000D01*
X24415866Y-15870000D02*
X23715866Y-15870000D01*
X23815866Y-15936666D01*
X23882533Y-16003333D01*
X23915866Y-16070000D01*
G04 #@! TO.C,TP18*
X14465866Y-18036666D02*
X14465866Y-17636666D01*
X15165866Y-17836666D02*
X14465866Y-17836666D01*
X15165866Y-17403333D02*
X14465866Y-17403333D01*
X14465866Y-17136666D01*
X14499200Y-17070000D01*
X14532533Y-17036666D01*
X14599200Y-17003333D01*
X14699200Y-17003333D01*
X14765866Y-17036666D01*
X14799200Y-17070000D01*
X14832533Y-17136666D01*
X14832533Y-17403333D01*
X15165866Y-16336666D02*
X15165866Y-16736666D01*
X15165866Y-16536666D02*
X14465866Y-16536666D01*
X14565866Y-16603333D01*
X14632533Y-16670000D01*
X14665866Y-16736666D01*
X14765866Y-15936666D02*
X14732533Y-16003333D01*
X14699200Y-16036666D01*
X14632533Y-16070000D01*
X14599200Y-16070000D01*
X14532533Y-16036666D01*
X14499200Y-16003333D01*
X14465866Y-15936666D01*
X14465866Y-15803333D01*
X14499200Y-15736666D01*
X14532533Y-15703333D01*
X14599200Y-15670000D01*
X14632533Y-15670000D01*
X14699200Y-15703333D01*
X14732533Y-15736666D01*
X14765866Y-15803333D01*
X14765866Y-15936666D01*
X14799200Y-16003333D01*
X14832533Y-16036666D01*
X14899200Y-16070000D01*
X15032533Y-16070000D01*
X15099200Y-16036666D01*
X15132533Y-16003333D01*
X15165866Y-15936666D01*
X15165866Y-15803333D01*
X15132533Y-15736666D01*
X15099200Y-15703333D01*
X15032533Y-15670000D01*
X14899200Y-15670000D01*
X14832533Y-15703333D01*
X14799200Y-15736666D01*
X14765866Y-15803333D01*
G04 #@! TO.C,TP19*
X13016666Y-18036666D02*
X13016666Y-17636666D01*
X13716666Y-17836666D02*
X13016666Y-17836666D01*
X13716666Y-17403333D02*
X13016666Y-17403333D01*
X13016666Y-17136666D01*
X13050000Y-17070000D01*
X13083333Y-17036666D01*
X13150000Y-17003333D01*
X13250000Y-17003333D01*
X13316666Y-17036666D01*
X13350000Y-17070000D01*
X13383333Y-17136666D01*
X13383333Y-17403333D01*
X13716666Y-16336666D02*
X13716666Y-16736666D01*
X13716666Y-16536666D02*
X13016666Y-16536666D01*
X13116666Y-16603333D01*
X13183333Y-16670000D01*
X13216666Y-16736666D01*
X13716666Y-16003333D02*
X13716666Y-15870000D01*
X13683333Y-15803333D01*
X13650000Y-15770000D01*
X13550000Y-15703333D01*
X13416666Y-15670000D01*
X13150000Y-15670000D01*
X13083333Y-15703333D01*
X13050000Y-15736666D01*
X13016666Y-15803333D01*
X13016666Y-15936666D01*
X13050000Y-16003333D01*
X13083333Y-16036666D01*
X13150000Y-16070000D01*
X13316666Y-16070000D01*
X13383333Y-16036666D01*
X13416666Y-16003333D01*
X13450000Y-15936666D01*
X13450000Y-15803333D01*
X13416666Y-15736666D01*
X13383333Y-15703333D01*
X13316666Y-15670000D01*
G04 #@! TO.C,TP20*
X11766666Y-18036666D02*
X11766666Y-17636666D01*
X12466666Y-17836666D02*
X11766666Y-17836666D01*
X12466666Y-17403333D02*
X11766666Y-17403333D01*
X11766666Y-17136666D01*
X11800000Y-17070000D01*
X11833333Y-17036666D01*
X11900000Y-17003333D01*
X12000000Y-17003333D01*
X12066666Y-17036666D01*
X12100000Y-17070000D01*
X12133333Y-17136666D01*
X12133333Y-17403333D01*
X11833333Y-16736666D02*
X11800000Y-16703333D01*
X11766666Y-16636666D01*
X11766666Y-16470000D01*
X11800000Y-16403333D01*
X11833333Y-16370000D01*
X11900000Y-16336666D01*
X11966666Y-16336666D01*
X12066666Y-16370000D01*
X12466666Y-16770000D01*
X12466666Y-16336666D01*
X11766666Y-15903333D02*
X11766666Y-15836666D01*
X11800000Y-15770000D01*
X11833333Y-15736666D01*
X11900000Y-15703333D01*
X12033333Y-15670000D01*
X12200000Y-15670000D01*
X12333333Y-15703333D01*
X12400000Y-15736666D01*
X12433333Y-15770000D01*
X12466666Y-15836666D01*
X12466666Y-15903333D01*
X12433333Y-15970000D01*
X12400000Y-16003333D01*
X12333333Y-16036666D01*
X12200000Y-16070000D01*
X12033333Y-16070000D01*
X11900000Y-16036666D01*
X11833333Y-16003333D01*
X11800000Y-15970000D01*
X11766666Y-15903333D01*
G04 #@! TO.C,TP30*
X21933333Y-11686666D02*
X22333333Y-11686666D01*
X22133333Y-12386666D02*
X22133333Y-11686666D01*
X22566666Y-12386666D02*
X22566666Y-11686666D01*
X22833333Y-11686666D01*
X22900000Y-11720000D01*
X22933333Y-11753333D01*
X22966666Y-11820000D01*
X22966666Y-11920000D01*
X22933333Y-11986666D01*
X22900000Y-12020000D01*
X22833333Y-12053333D01*
X22566666Y-12053333D01*
X23200000Y-11686666D02*
X23633333Y-11686666D01*
X23400000Y-11953333D01*
X23500000Y-11953333D01*
X23566666Y-11986666D01*
X23600000Y-12020000D01*
X23633333Y-12086666D01*
X23633333Y-12253333D01*
X23600000Y-12320000D01*
X23566666Y-12353333D01*
X23500000Y-12386666D01*
X23300000Y-12386666D01*
X23233333Y-12353333D01*
X23200000Y-12320000D01*
X24066666Y-11686666D02*
X24133333Y-11686666D01*
X24200000Y-11720000D01*
X24233333Y-11753333D01*
X24266666Y-11820000D01*
X24300000Y-11953333D01*
X24300000Y-12120000D01*
X24266666Y-12253333D01*
X24233333Y-12320000D01*
X24200000Y-12353333D01*
X24133333Y-12386666D01*
X24066666Y-12386666D01*
X24000000Y-12353333D01*
X23966666Y-12320000D01*
X23933333Y-12253333D01*
X23900000Y-12120000D01*
X23900000Y-11953333D01*
X23933333Y-11820000D01*
X23966666Y-11753333D01*
X24000000Y-11720000D01*
X24066666Y-11686666D01*
G04 #@! TO.C,TP29*
X22317466Y-18036666D02*
X22317466Y-17636666D01*
X23017466Y-17836666D02*
X22317466Y-17836666D01*
X23017466Y-17403333D02*
X22317466Y-17403333D01*
X22317466Y-17136666D01*
X22350800Y-17070000D01*
X22384133Y-17036666D01*
X22450800Y-17003333D01*
X22550800Y-17003333D01*
X22617466Y-17036666D01*
X22650800Y-17070000D01*
X22684133Y-17136666D01*
X22684133Y-17403333D01*
X22384133Y-16736666D02*
X22350800Y-16703333D01*
X22317466Y-16636666D01*
X22317466Y-16470000D01*
X22350800Y-16403333D01*
X22384133Y-16370000D01*
X22450800Y-16336666D01*
X22517466Y-16336666D01*
X22617466Y-16370000D01*
X23017466Y-16770000D01*
X23017466Y-16336666D01*
X23017466Y-16003333D02*
X23017466Y-15870000D01*
X22984133Y-15803333D01*
X22950800Y-15770000D01*
X22850800Y-15703333D01*
X22717466Y-15670000D01*
X22450800Y-15670000D01*
X22384133Y-15703333D01*
X22350800Y-15736666D01*
X22317466Y-15803333D01*
X22317466Y-15936666D01*
X22350800Y-16003333D01*
X22384133Y-16036666D01*
X22450800Y-16070000D01*
X22617466Y-16070000D01*
X22684133Y-16036666D01*
X22717466Y-16003333D01*
X22750800Y-15936666D01*
X22750800Y-15803333D01*
X22717466Y-15736666D01*
X22684133Y-15703333D01*
X22617466Y-15670000D01*
G04 #@! TO.C,TP28*
X433333Y-4436666D02*
X833333Y-4436666D01*
X633333Y-5136666D02*
X633333Y-4436666D01*
X1066666Y-5136666D02*
X1066666Y-4436666D01*
X1333333Y-4436666D01*
X1399999Y-4470000D01*
X1433333Y-4503333D01*
X1466666Y-4570000D01*
X1466666Y-4670000D01*
X1433333Y-4736666D01*
X1399999Y-4770000D01*
X1333333Y-4803333D01*
X1066666Y-4803333D01*
X1733333Y-4503333D02*
X1766666Y-4470000D01*
X1833333Y-4436666D01*
X1999999Y-4436666D01*
X2066666Y-4470000D01*
X2099999Y-4503333D01*
X2133333Y-4570000D01*
X2133333Y-4636666D01*
X2099999Y-4736666D01*
X1699999Y-5136666D01*
X2133333Y-5136666D01*
X2533333Y-4736666D02*
X2466666Y-4703333D01*
X2433333Y-4670000D01*
X2399999Y-4603333D01*
X2399999Y-4570000D01*
X2433333Y-4503333D01*
X2466666Y-4470000D01*
X2533333Y-4436666D01*
X2666666Y-4436666D01*
X2733333Y-4470000D01*
X2766666Y-4503333D01*
X2799999Y-4570000D01*
X2799999Y-4603333D01*
X2766666Y-4670000D01*
X2733333Y-4703333D01*
X2666666Y-4736666D01*
X2533333Y-4736666D01*
X2466666Y-4770000D01*
X2433333Y-4803333D01*
X2399999Y-4870000D01*
X2399999Y-5003333D01*
X2433333Y-5070000D01*
X2466666Y-5103333D01*
X2533333Y-5136666D01*
X2666666Y-5136666D01*
X2733333Y-5103333D01*
X2766666Y-5070000D01*
X2799999Y-5003333D01*
X2799999Y-4870000D01*
X2766666Y-4803333D01*
X2733333Y-4770000D01*
X2666666Y-4736666D01*
G04 #@! TO.C,TP27*
X433333Y-6186666D02*
X833333Y-6186666D01*
X633333Y-6886666D02*
X633333Y-6186666D01*
X1066666Y-6886666D02*
X1066666Y-6186666D01*
X1333333Y-6186666D01*
X1399999Y-6220000D01*
X1433333Y-6253333D01*
X1466666Y-6320000D01*
X1466666Y-6420000D01*
X1433333Y-6486666D01*
X1399999Y-6520000D01*
X1333333Y-6553333D01*
X1066666Y-6553333D01*
X1733333Y-6253333D02*
X1766666Y-6220000D01*
X1833333Y-6186666D01*
X1999999Y-6186666D01*
X2066666Y-6220000D01*
X2099999Y-6253333D01*
X2133333Y-6320000D01*
X2133333Y-6386666D01*
X2099999Y-6486666D01*
X1699999Y-6886666D01*
X2133333Y-6886666D01*
X2366666Y-6186666D02*
X2833333Y-6186666D01*
X2533333Y-6886666D01*
G04 #@! TO.C,TP26*
X9016666Y-18036666D02*
X9016666Y-17636666D01*
X9716666Y-17836666D02*
X9016666Y-17836666D01*
X9716666Y-17403333D02*
X9016666Y-17403333D01*
X9016666Y-17136666D01*
X9050000Y-17070000D01*
X9083333Y-17036666D01*
X9150000Y-17003333D01*
X9250000Y-17003333D01*
X9316666Y-17036666D01*
X9350000Y-17070000D01*
X9383333Y-17136666D01*
X9383333Y-17403333D01*
X9083333Y-16736666D02*
X9050000Y-16703333D01*
X9016666Y-16636666D01*
X9016666Y-16470000D01*
X9050000Y-16403333D01*
X9083333Y-16370000D01*
X9150000Y-16336666D01*
X9216666Y-16336666D01*
X9316666Y-16370000D01*
X9716666Y-16770000D01*
X9716666Y-16336666D01*
X9016666Y-15736666D02*
X9016666Y-15870000D01*
X9050000Y-15936666D01*
X9083333Y-15970000D01*
X9183333Y-16036666D01*
X9316666Y-16070000D01*
X9583333Y-16070000D01*
X9650000Y-16036666D01*
X9683333Y-16003333D01*
X9716666Y-15936666D01*
X9716666Y-15803333D01*
X9683333Y-15736666D01*
X9650000Y-15703333D01*
X9583333Y-15670000D01*
X9416666Y-15670000D01*
X9350000Y-15703333D01*
X9316666Y-15736666D01*
X9283333Y-15803333D01*
X9283333Y-15936666D01*
X9316666Y-16003333D01*
X9350000Y-16036666D01*
X9416666Y-16070000D01*
G04 #@! TO.C,TP25*
X1933333Y-16686666D02*
X2333333Y-16686666D01*
X2133333Y-17386666D02*
X2133333Y-16686666D01*
X2566666Y-17386666D02*
X2566666Y-16686666D01*
X2833333Y-16686666D01*
X2900000Y-16720000D01*
X2933333Y-16753333D01*
X2966666Y-16820000D01*
X2966666Y-16920000D01*
X2933333Y-16986666D01*
X2900000Y-17020000D01*
X2833333Y-17053333D01*
X2566666Y-17053333D01*
X3233333Y-16753333D02*
X3266666Y-16720000D01*
X3333333Y-16686666D01*
X3499999Y-16686666D01*
X3566666Y-16720000D01*
X3599999Y-16753333D01*
X3633333Y-16820000D01*
X3633333Y-16886666D01*
X3599999Y-16986666D01*
X3199999Y-17386666D01*
X3633333Y-17386666D01*
X4266666Y-16686666D02*
X3933333Y-16686666D01*
X3899999Y-17020000D01*
X3933333Y-16986666D01*
X3999999Y-16953333D01*
X4166666Y-16953333D01*
X4233333Y-16986666D01*
X4266666Y-17020000D01*
X4300000Y-17086666D01*
X4300000Y-17253333D01*
X4266666Y-17320000D01*
X4233333Y-17353333D01*
X4166666Y-17386666D01*
X3999999Y-17386666D01*
X3933333Y-17353333D01*
X3899999Y-17320000D01*
G04 #@! TO.C,TP24*
X6016666Y-18036666D02*
X6016666Y-17636666D01*
X6716666Y-17836666D02*
X6016666Y-17836666D01*
X6716666Y-17403333D02*
X6016666Y-17403333D01*
X6016666Y-17136666D01*
X6050000Y-17070000D01*
X6083333Y-17036666D01*
X6150000Y-17003333D01*
X6250000Y-17003333D01*
X6316666Y-17036666D01*
X6350000Y-17070000D01*
X6383333Y-17136666D01*
X6383333Y-17403333D01*
X6083333Y-16736666D02*
X6050000Y-16703333D01*
X6016666Y-16636666D01*
X6016666Y-16470000D01*
X6050000Y-16403333D01*
X6083333Y-16370000D01*
X6150000Y-16336666D01*
X6216666Y-16336666D01*
X6316666Y-16370000D01*
X6716666Y-16770000D01*
X6716666Y-16336666D01*
X6250000Y-15736666D02*
X6716666Y-15736666D01*
X5983333Y-15903333D02*
X6483333Y-16070000D01*
X6483333Y-15636666D01*
G04 #@! TO.C,TP23*
X4766666Y-18036666D02*
X4766666Y-17636666D01*
X5466666Y-17836666D02*
X4766666Y-17836666D01*
X5466666Y-17403333D02*
X4766666Y-17403333D01*
X4766666Y-17136666D01*
X4800000Y-17070000D01*
X4833333Y-17036666D01*
X4900000Y-17003333D01*
X5000000Y-17003333D01*
X5066666Y-17036666D01*
X5100000Y-17070000D01*
X5133333Y-17136666D01*
X5133333Y-17403333D01*
X4833333Y-16736666D02*
X4800000Y-16703333D01*
X4766666Y-16636666D01*
X4766666Y-16470000D01*
X4800000Y-16403333D01*
X4833333Y-16370000D01*
X4900000Y-16336666D01*
X4966666Y-16336666D01*
X5066666Y-16370000D01*
X5466666Y-16770000D01*
X5466666Y-16336666D01*
X4766666Y-16103333D02*
X4766666Y-15670000D01*
X5033333Y-15903333D01*
X5033333Y-15803333D01*
X5066666Y-15736666D01*
X5100000Y-15703333D01*
X5166666Y-15670000D01*
X5333333Y-15670000D01*
X5400000Y-15703333D01*
X5433333Y-15736666D01*
X5466666Y-15803333D01*
X5466666Y-16003333D01*
X5433333Y-16070000D01*
X5400000Y-16103333D01*
G04 #@! TO.C,TP22*
X7516666Y-18036666D02*
X7516666Y-17636666D01*
X8216666Y-17836666D02*
X7516666Y-17836666D01*
X8216666Y-17403333D02*
X7516666Y-17403333D01*
X7516666Y-17136666D01*
X7550000Y-17070000D01*
X7583333Y-17036666D01*
X7650000Y-17003333D01*
X7750000Y-17003333D01*
X7816666Y-17036666D01*
X7850000Y-17070000D01*
X7883333Y-17136666D01*
X7883333Y-17403333D01*
X7583333Y-16736666D02*
X7550000Y-16703333D01*
X7516666Y-16636666D01*
X7516666Y-16470000D01*
X7550000Y-16403333D01*
X7583333Y-16370000D01*
X7650000Y-16336666D01*
X7716666Y-16336666D01*
X7816666Y-16370000D01*
X8216666Y-16770000D01*
X8216666Y-16336666D01*
X7583333Y-16070000D02*
X7550000Y-16036666D01*
X7516666Y-15970000D01*
X7516666Y-15803333D01*
X7550000Y-15736666D01*
X7583333Y-15703333D01*
X7650000Y-15670000D01*
X7716666Y-15670000D01*
X7816666Y-15703333D01*
X8216666Y-16103333D01*
X8216666Y-15670000D01*
G04 #@! TO.C,TP21*
X10516666Y-18036666D02*
X10516666Y-17636666D01*
X11216666Y-17836666D02*
X10516666Y-17836666D01*
X11216666Y-17403333D02*
X10516666Y-17403333D01*
X10516666Y-17136666D01*
X10550000Y-17070000D01*
X10583333Y-17036666D01*
X10650000Y-17003333D01*
X10750000Y-17003333D01*
X10816666Y-17036666D01*
X10850000Y-17070000D01*
X10883333Y-17136666D01*
X10883333Y-17403333D01*
X10583333Y-16736666D02*
X10550000Y-16703333D01*
X10516666Y-16636666D01*
X10516666Y-16470000D01*
X10550000Y-16403333D01*
X10583333Y-16370000D01*
X10650000Y-16336666D01*
X10716666Y-16336666D01*
X10816666Y-16370000D01*
X11216666Y-16770000D01*
X11216666Y-16336666D01*
X11216666Y-15670000D02*
X11216666Y-16070000D01*
X11216666Y-15870000D02*
X10516666Y-15870000D01*
X10616666Y-15936666D01*
X10683333Y-16003333D01*
X10716666Y-16070000D01*
G04 #@! TO.C,C7*
X18560000Y-14491666D02*
X18593333Y-14525000D01*
X18626666Y-14625000D01*
X18626666Y-14691666D01*
X18593333Y-14791666D01*
X18526666Y-14858333D01*
X18460000Y-14891666D01*
X18326666Y-14925000D01*
X18226666Y-14925000D01*
X18093333Y-14891666D01*
X18026666Y-14858333D01*
X17960000Y-14791666D01*
X17926666Y-14691666D01*
X17926666Y-14625000D01*
X17960000Y-14525000D01*
X17993333Y-14491666D01*
X17926666Y-14258333D02*
X17926666Y-13791666D01*
X18626666Y-14091666D01*
G04 #@! TO.C,C6*
X8060000Y-4526666D02*
X8093333Y-4560000D01*
X8126666Y-4660000D01*
X8126666Y-4726666D01*
X8093333Y-4826666D01*
X8026666Y-4893333D01*
X7960000Y-4926666D01*
X7826666Y-4960000D01*
X7726666Y-4960000D01*
X7593333Y-4926666D01*
X7526666Y-4893333D01*
X7460000Y-4826666D01*
X7426666Y-4726666D01*
X7426666Y-4660000D01*
X7460000Y-4560000D01*
X7493333Y-4526666D01*
X7426666Y-3926666D02*
X7426666Y-4060000D01*
X7460000Y-4126666D01*
X7493333Y-4160000D01*
X7593333Y-4226666D01*
X7726666Y-4260000D01*
X7993333Y-4260000D01*
X8060000Y-4226666D01*
X8093333Y-4193333D01*
X8126666Y-4126666D01*
X8126666Y-3993333D01*
X8093333Y-3926666D01*
X8060000Y-3893333D01*
X7993333Y-3860000D01*
X7826666Y-3860000D01*
X7760000Y-3893333D01*
X7726666Y-3926666D01*
X7693333Y-3993333D01*
X7693333Y-4126666D01*
X7726666Y-4193333D01*
X7760000Y-4226666D01*
X7826666Y-4260000D01*
G04 #@! TO.C,C5*
X7810000Y-10086666D02*
X7843333Y-10120000D01*
X7876666Y-10220000D01*
X7876666Y-10286666D01*
X7843333Y-10386666D01*
X7776666Y-10453333D01*
X7710000Y-10486666D01*
X7576666Y-10520000D01*
X7476666Y-10520000D01*
X7343333Y-10486666D01*
X7276666Y-10453333D01*
X7210000Y-10386666D01*
X7176666Y-10286666D01*
X7176666Y-10220000D01*
X7210000Y-10120000D01*
X7243333Y-10086666D01*
X7176666Y-9453333D02*
X7176666Y-9786666D01*
X7510000Y-9820000D01*
X7476666Y-9786666D01*
X7443333Y-9720000D01*
X7443333Y-9553333D01*
X7476666Y-9486666D01*
X7510000Y-9453333D01*
X7576666Y-9420000D01*
X7743333Y-9420000D01*
X7810000Y-9453333D01*
X7843333Y-9486666D01*
X7876666Y-9553333D01*
X7876666Y-9720000D01*
X7843333Y-9786666D01*
X7810000Y-9820000D01*
G04 #@! TO.C,C4*
X13630000Y-4116666D02*
X13663333Y-4150000D01*
X13696666Y-4250000D01*
X13696666Y-4316666D01*
X13663333Y-4416666D01*
X13596666Y-4483333D01*
X13530000Y-4516666D01*
X13396666Y-4550000D01*
X13296666Y-4550000D01*
X13163333Y-4516666D01*
X13096666Y-4483333D01*
X13030000Y-4416666D01*
X12996666Y-4316666D01*
X12996666Y-4250000D01*
X13030000Y-4150000D01*
X13063333Y-4116666D01*
X13230000Y-3516666D02*
X13696666Y-3516666D01*
X12963333Y-3683333D02*
X13463333Y-3850000D01*
X13463333Y-3416666D01*
G04 #@! TO.C,C3*
X17470000Y-14481666D02*
X17503333Y-14515000D01*
X17536666Y-14615000D01*
X17536666Y-14681666D01*
X17503333Y-14781666D01*
X17436666Y-14848333D01*
X17370000Y-14881666D01*
X17236666Y-14915000D01*
X17136666Y-14915000D01*
X17003333Y-14881666D01*
X16936666Y-14848333D01*
X16870000Y-14781666D01*
X16836666Y-14681666D01*
X16836666Y-14615000D01*
X16870000Y-14515000D01*
X16903333Y-14481666D01*
X16836666Y-14248333D02*
X16836666Y-13815000D01*
X17103333Y-14048333D01*
X17103333Y-13948333D01*
X17136666Y-13881666D01*
X17170000Y-13848333D01*
X17236666Y-13815000D01*
X17403333Y-13815000D01*
X17470000Y-13848333D01*
X17503333Y-13881666D01*
X17536666Y-13948333D01*
X17536666Y-14148333D01*
X17503333Y-14215000D01*
X17470000Y-14248333D01*
G04 #@! TO.C,C2*
X7010000Y-4506666D02*
X7043333Y-4540000D01*
X7076666Y-4640000D01*
X7076666Y-4706666D01*
X7043333Y-4806666D01*
X6976666Y-4873333D01*
X6910000Y-4906666D01*
X6776666Y-4940000D01*
X6676666Y-4940000D01*
X6543333Y-4906666D01*
X6476666Y-4873333D01*
X6410000Y-4806666D01*
X6376666Y-4706666D01*
X6376666Y-4640000D01*
X6410000Y-4540000D01*
X6443333Y-4506666D01*
X6443333Y-4240000D02*
X6410000Y-4206666D01*
X6376666Y-4140000D01*
X6376666Y-3973333D01*
X6410000Y-3906666D01*
X6443333Y-3873333D01*
X6510000Y-3840000D01*
X6576666Y-3840000D01*
X6676666Y-3873333D01*
X7076666Y-4273333D01*
X7076666Y-3840000D01*
G04 #@! TO.C,C10*
X16115000Y-3760000D02*
X16148333Y-3793333D01*
X16181666Y-3893333D01*
X16181666Y-3960000D01*
X16148333Y-4060000D01*
X16081666Y-4126666D01*
X16015000Y-4160000D01*
X15881666Y-4193333D01*
X15781666Y-4193333D01*
X15648333Y-4160000D01*
X15581666Y-4126666D01*
X15515000Y-4060000D01*
X15481666Y-3960000D01*
X15481666Y-3893333D01*
X15515000Y-3793333D01*
X15548333Y-3760000D01*
X16181666Y-3093333D02*
X16181666Y-3493333D01*
X16181666Y-3293333D02*
X15481666Y-3293333D01*
X15581666Y-3360000D01*
X15648333Y-3426666D01*
X15681666Y-3493333D01*
X15481666Y-2660000D02*
X15481666Y-2593333D01*
X15515000Y-2526666D01*
X15548333Y-2493333D01*
X15615000Y-2460000D01*
X15748333Y-2426666D01*
X15915000Y-2426666D01*
X16048333Y-2460000D01*
X16115000Y-2493333D01*
X16148333Y-2526666D01*
X16181666Y-2593333D01*
X16181666Y-2660000D01*
X16148333Y-2726666D01*
X16115000Y-2760000D01*
X16048333Y-2793333D01*
X15915000Y-2826666D01*
X15748333Y-2826666D01*
X15615000Y-2793333D01*
X15548333Y-2760000D01*
X15515000Y-2726666D01*
X15481666Y-2660000D01*
G04 #@! TO.C,C14*
X20435000Y-10730000D02*
X20401666Y-10763333D01*
X20301666Y-10796666D01*
X20235000Y-10796666D01*
X20135000Y-10763333D01*
X20068333Y-10696666D01*
X20035000Y-10630000D01*
X20001666Y-10496666D01*
X20001666Y-10396666D01*
X20035000Y-10263333D01*
X20068333Y-10196666D01*
X20135000Y-10130000D01*
X20235000Y-10096666D01*
X20301666Y-10096666D01*
X20401666Y-10130000D01*
X20435000Y-10163333D01*
X21101666Y-10796666D02*
X20701666Y-10796666D01*
X20901666Y-10796666D02*
X20901666Y-10096666D01*
X20835000Y-10196666D01*
X20768333Y-10263333D01*
X20701666Y-10296666D01*
X21701666Y-10330000D02*
X21701666Y-10796666D01*
X21535000Y-10063333D02*
X21368333Y-10563333D01*
X21801666Y-10563333D01*
G04 #@! TO.C,C1*
X6760000Y-10096666D02*
X6793333Y-10130000D01*
X6826666Y-10230000D01*
X6826666Y-10296666D01*
X6793333Y-10396666D01*
X6726666Y-10463333D01*
X6660000Y-10496666D01*
X6526666Y-10530000D01*
X6426666Y-10530000D01*
X6293333Y-10496666D01*
X6226666Y-10463333D01*
X6160000Y-10396666D01*
X6126666Y-10296666D01*
X6126666Y-10230000D01*
X6160000Y-10130000D01*
X6193333Y-10096666D01*
X6826666Y-9430000D02*
X6826666Y-9830000D01*
X6826666Y-9630000D02*
X6126666Y-9630000D01*
X6226666Y-9696666D01*
X6293333Y-9763333D01*
X6326666Y-9830000D01*
G04 #@! TO.C,R11*
X22110000Y-7186666D02*
X21876666Y-6853333D01*
X21710000Y-7186666D02*
X21710000Y-6486666D01*
X21976666Y-6486666D01*
X22043333Y-6520000D01*
X22076666Y-6553333D01*
X22110000Y-6620000D01*
X22110000Y-6720000D01*
X22076666Y-6786666D01*
X22043333Y-6820000D01*
X21976666Y-6853333D01*
X21710000Y-6853333D01*
X22776666Y-7186666D02*
X22376666Y-7186666D01*
X22576666Y-7186666D02*
X22576666Y-6486666D01*
X22510000Y-6586666D01*
X22443333Y-6653333D01*
X22376666Y-6686666D01*
X23443333Y-7186666D02*
X23043333Y-7186666D01*
X23243333Y-7186666D02*
X23243333Y-6486666D01*
X23176666Y-6586666D01*
X23110000Y-6653333D01*
X23043333Y-6686666D01*
G04 #@! TO.C,R9*
X20698333Y-8616666D02*
X20465000Y-8283333D01*
X20298333Y-8616666D02*
X20298333Y-7916666D01*
X20565000Y-7916666D01*
X20631666Y-7950000D01*
X20665000Y-7983333D01*
X20698333Y-8050000D01*
X20698333Y-8150000D01*
X20665000Y-8216666D01*
X20631666Y-8250000D01*
X20565000Y-8283333D01*
X20298333Y-8283333D01*
X21031666Y-8616666D02*
X21165000Y-8616666D01*
X21231666Y-8583333D01*
X21265000Y-8550000D01*
X21331666Y-8450000D01*
X21365000Y-8316666D01*
X21365000Y-8050000D01*
X21331666Y-7983333D01*
X21298333Y-7950000D01*
X21231666Y-7916666D01*
X21098333Y-7916666D01*
X21031666Y-7950000D01*
X20998333Y-7983333D01*
X20965000Y-8050000D01*
X20965000Y-8216666D01*
X20998333Y-8283333D01*
X21031666Y-8316666D01*
X21098333Y-8350000D01*
X21231666Y-8350000D01*
X21298333Y-8316666D01*
X21331666Y-8283333D01*
X21365000Y-8216666D01*
G04 #@! TO.C,R8*
X19713333Y-4636666D02*
X19480000Y-4303333D01*
X19313333Y-4636666D02*
X19313333Y-3936666D01*
X19580000Y-3936666D01*
X19646666Y-3970000D01*
X19680000Y-4003333D01*
X19713333Y-4070000D01*
X19713333Y-4170000D01*
X19680000Y-4236666D01*
X19646666Y-4270000D01*
X19580000Y-4303333D01*
X19313333Y-4303333D01*
X20113333Y-4236666D02*
X20046666Y-4203333D01*
X20013333Y-4170000D01*
X19980000Y-4103333D01*
X19980000Y-4070000D01*
X20013333Y-4003333D01*
X20046666Y-3970000D01*
X20113333Y-3936666D01*
X20246666Y-3936666D01*
X20313333Y-3970000D01*
X20346666Y-4003333D01*
X20380000Y-4070000D01*
X20380000Y-4103333D01*
X20346666Y-4170000D01*
X20313333Y-4203333D01*
X20246666Y-4236666D01*
X20113333Y-4236666D01*
X20046666Y-4270000D01*
X20013333Y-4303333D01*
X19980000Y-4370000D01*
X19980000Y-4503333D01*
X20013333Y-4570000D01*
X20046666Y-4603333D01*
X20113333Y-4636666D01*
X20246666Y-4636666D01*
X20313333Y-4603333D01*
X20346666Y-4570000D01*
X20380000Y-4503333D01*
X20380000Y-4370000D01*
X20346666Y-4303333D01*
X20313333Y-4270000D01*
X20246666Y-4236666D01*
G04 #@! TO.C,R7*
X19733333Y-5846666D02*
X19500000Y-5513333D01*
X19333333Y-5846666D02*
X19333333Y-5146666D01*
X19600000Y-5146666D01*
X19666666Y-5180000D01*
X19700000Y-5213333D01*
X19733333Y-5280000D01*
X19733333Y-5380000D01*
X19700000Y-5446666D01*
X19666666Y-5480000D01*
X19600000Y-5513333D01*
X19333333Y-5513333D01*
X19966666Y-5146666D02*
X20433333Y-5146666D01*
X20133333Y-5846666D01*
G04 #@! TO.C,R5*
X14533333Y-911666D02*
X14300000Y-578333D01*
X14133333Y-911666D02*
X14133333Y-211666D01*
X14400000Y-211666D01*
X14466666Y-245000D01*
X14500000Y-278333D01*
X14533333Y-345000D01*
X14533333Y-445000D01*
X14500000Y-511666D01*
X14466666Y-545000D01*
X14400000Y-578333D01*
X14133333Y-578333D01*
X15166666Y-211666D02*
X14833333Y-211666D01*
X14800000Y-545000D01*
X14833333Y-511666D01*
X14900000Y-478333D01*
X15066666Y-478333D01*
X15133333Y-511666D01*
X15166666Y-545000D01*
X15200000Y-611666D01*
X15200000Y-778333D01*
X15166666Y-845000D01*
X15133333Y-878333D01*
X15066666Y-911666D01*
X14900000Y-911666D01*
X14833333Y-878333D01*
X14800000Y-845000D01*
G04 #@! TO.C,R4*
X12576666Y-1546666D02*
X12243333Y-1780000D01*
X12576666Y-1946666D02*
X11876666Y-1946666D01*
X11876666Y-1680000D01*
X11910000Y-1613333D01*
X11943333Y-1580000D01*
X12010000Y-1546666D01*
X12110000Y-1546666D01*
X12176666Y-1580000D01*
X12210000Y-1613333D01*
X12243333Y-1680000D01*
X12243333Y-1946666D01*
X12110000Y-946666D02*
X12576666Y-946666D01*
X11843333Y-1113333D02*
X12343333Y-1280000D01*
X12343333Y-846666D01*
G04 #@! TO.C,R3*
X19666666Y-14501666D02*
X19333333Y-14735000D01*
X19666666Y-14901666D02*
X18966666Y-14901666D01*
X18966666Y-14635000D01*
X19000000Y-14568333D01*
X19033333Y-14535000D01*
X19100000Y-14501666D01*
X19200000Y-14501666D01*
X19266666Y-14535000D01*
X19300000Y-14568333D01*
X19333333Y-14635000D01*
X19333333Y-14901666D01*
X18966666Y-14268333D02*
X18966666Y-13835000D01*
X19233333Y-14068333D01*
X19233333Y-13968333D01*
X19266666Y-13901666D01*
X19300000Y-13868333D01*
X19366666Y-13835000D01*
X19533333Y-13835000D01*
X19600000Y-13868333D01*
X19633333Y-13901666D01*
X19666666Y-13968333D01*
X19666666Y-14168333D01*
X19633333Y-14235000D01*
X19600000Y-14268333D01*
G04 #@! TO.C,R2*
X6026666Y-4506666D02*
X5693333Y-4740000D01*
X6026666Y-4906666D02*
X5326666Y-4906666D01*
X5326666Y-4640000D01*
X5360000Y-4573333D01*
X5393333Y-4540000D01*
X5460000Y-4506666D01*
X5560000Y-4506666D01*
X5626666Y-4540000D01*
X5660000Y-4573333D01*
X5693333Y-4640000D01*
X5693333Y-4906666D01*
X5393333Y-4240000D02*
X5360000Y-4206666D01*
X5326666Y-4140000D01*
X5326666Y-3973333D01*
X5360000Y-3906666D01*
X5393333Y-3873333D01*
X5460000Y-3840000D01*
X5526666Y-3840000D01*
X5626666Y-3873333D01*
X6026666Y-4273333D01*
X6026666Y-3840000D01*
G04 #@! TO.C,R1*
X5706666Y-10066666D02*
X5373333Y-10300000D01*
X5706666Y-10466666D02*
X5006666Y-10466666D01*
X5006666Y-10200000D01*
X5040000Y-10133333D01*
X5073333Y-10100000D01*
X5140000Y-10066666D01*
X5240000Y-10066666D01*
X5306666Y-10100000D01*
X5340000Y-10133333D01*
X5373333Y-10200000D01*
X5373333Y-10466666D01*
X5706666Y-9400000D02*
X5706666Y-9800000D01*
X5706666Y-9600000D02*
X5006666Y-9600000D01*
X5106666Y-9666666D01*
X5173333Y-9733333D01*
X5206666Y-9800000D01*
G04 #@! TO.C,TP4*
X20396666Y-2023333D02*
X20396666Y-1623333D01*
X21096666Y-1823333D02*
X20396666Y-1823333D01*
X21096666Y-1390000D02*
X20396666Y-1390000D01*
X20396666Y-1123333D01*
X20430000Y-1056666D01*
X20463333Y-1023333D01*
X20530000Y-990000D01*
X20630000Y-990000D01*
X20696666Y-1023333D01*
X20730000Y-1056666D01*
X20763333Y-1123333D01*
X20763333Y-1390000D01*
X20630000Y-390000D02*
X21096666Y-390000D01*
X20363333Y-556666D02*
X20863333Y-723333D01*
X20863333Y-290000D01*
G04 #@! TO.C,TP9*
X18266666Y-17953333D02*
X18266666Y-17553333D01*
X18966666Y-17753333D02*
X18266666Y-17753333D01*
X18966666Y-17320000D02*
X18266666Y-17320000D01*
X18266666Y-17053333D01*
X18300000Y-16986666D01*
X18333333Y-16953333D01*
X18400000Y-16920000D01*
X18500000Y-16920000D01*
X18566666Y-16953333D01*
X18600000Y-16986666D01*
X18633333Y-17053333D01*
X18633333Y-17320000D01*
X18966666Y-16586666D02*
X18966666Y-16453333D01*
X18933333Y-16386666D01*
X18900000Y-16353333D01*
X18800000Y-16286666D01*
X18666666Y-16253333D01*
X18400000Y-16253333D01*
X18333333Y-16286666D01*
X18300000Y-16320000D01*
X18266666Y-16386666D01*
X18266666Y-16520000D01*
X18300000Y-16586666D01*
X18333333Y-16620000D01*
X18400000Y-16653333D01*
X18566666Y-16653333D01*
X18633333Y-16620000D01*
X18666666Y-16586666D01*
X18700000Y-16520000D01*
X18700000Y-16386666D01*
X18666666Y-16320000D01*
X18633333Y-16286666D01*
X18566666Y-16253333D01*
G04 #@! TO.C,TP7*
X18916666Y-2043333D02*
X18916666Y-1643333D01*
X19616666Y-1843333D02*
X18916666Y-1843333D01*
X19616666Y-1410000D02*
X18916666Y-1410000D01*
X18916666Y-1143333D01*
X18950000Y-1076666D01*
X18983333Y-1043333D01*
X19050000Y-1010000D01*
X19150000Y-1010000D01*
X19216666Y-1043333D01*
X19250000Y-1076666D01*
X19283333Y-1143333D01*
X19283333Y-1410000D01*
X18916666Y-776666D02*
X18916666Y-310000D01*
X19616666Y-610000D01*
G04 #@! TO.C,TP3*
X23196666Y-2023333D02*
X23196666Y-1623333D01*
X23896666Y-1823333D02*
X23196666Y-1823333D01*
X23896666Y-1390000D02*
X23196666Y-1390000D01*
X23196666Y-1123333D01*
X23230000Y-1056666D01*
X23263333Y-1023333D01*
X23330000Y-990000D01*
X23430000Y-990000D01*
X23496666Y-1023333D01*
X23530000Y-1056666D01*
X23563333Y-1123333D01*
X23563333Y-1390000D01*
X23196666Y-756666D02*
X23196666Y-323333D01*
X23463333Y-556666D01*
X23463333Y-456666D01*
X23496666Y-390000D01*
X23530000Y-356666D01*
X23596666Y-323333D01*
X23763333Y-323333D01*
X23830000Y-356666D01*
X23863333Y-390000D01*
X23896666Y-456666D01*
X23896666Y-656666D01*
X23863333Y-723333D01*
X23830000Y-756666D01*
G04 #@! TO.C,TP1*
X15766666Y-17953333D02*
X15766666Y-17553333D01*
X16466666Y-17753333D02*
X15766666Y-17753333D01*
X16466666Y-17320000D02*
X15766666Y-17320000D01*
X15766666Y-17053333D01*
X15800000Y-16986666D01*
X15833333Y-16953333D01*
X15900000Y-16920000D01*
X16000000Y-16920000D01*
X16066666Y-16953333D01*
X16100000Y-16986666D01*
X16133333Y-17053333D01*
X16133333Y-17320000D01*
X16466666Y-16253333D02*
X16466666Y-16653333D01*
X16466666Y-16453333D02*
X15766666Y-16453333D01*
X15866666Y-16520000D01*
X15933333Y-16586666D01*
X15966666Y-16653333D01*
G04 #@! TO.C,TP2*
X17016666Y-17957333D02*
X17016666Y-17557333D01*
X17716666Y-17757333D02*
X17016666Y-17757333D01*
X17716666Y-17324000D02*
X17016666Y-17324000D01*
X17016666Y-17057333D01*
X17050000Y-16990666D01*
X17083333Y-16957333D01*
X17150000Y-16924000D01*
X17250000Y-16924000D01*
X17316666Y-16957333D01*
X17350000Y-16990666D01*
X17383333Y-17057333D01*
X17383333Y-17324000D01*
X17083333Y-16657333D02*
X17050000Y-16624000D01*
X17016666Y-16557333D01*
X17016666Y-16390666D01*
X17050000Y-16324000D01*
X17083333Y-16290666D01*
X17150000Y-16257333D01*
X17216666Y-16257333D01*
X17316666Y-16290666D01*
X17716666Y-16690666D01*
X17716666Y-16257333D01*
G04 #@! TO.C,TP8*
X21876666Y-2023333D02*
X21876666Y-1623333D01*
X22576666Y-1823333D02*
X21876666Y-1823333D01*
X22576666Y-1390000D02*
X21876666Y-1390000D01*
X21876666Y-1123333D01*
X21910000Y-1056666D01*
X21943333Y-1023333D01*
X22010000Y-990000D01*
X22110000Y-990000D01*
X22176666Y-1023333D01*
X22210000Y-1056666D01*
X22243333Y-1123333D01*
X22243333Y-1390000D01*
X22176666Y-590000D02*
X22143333Y-656666D01*
X22110000Y-690000D01*
X22043333Y-723333D01*
X22010000Y-723333D01*
X21943333Y-690000D01*
X21910000Y-656666D01*
X21876666Y-590000D01*
X21876666Y-456666D01*
X21910000Y-390000D01*
X21943333Y-356666D01*
X22010000Y-323333D01*
X22043333Y-323333D01*
X22110000Y-356666D01*
X22143333Y-390000D01*
X22176666Y-456666D01*
X22176666Y-590000D01*
X22210000Y-656666D01*
X22243333Y-690000D01*
X22310000Y-723333D01*
X22443333Y-723333D01*
X22510000Y-690000D01*
X22543333Y-656666D01*
X22576666Y-590000D01*
X22576666Y-456666D01*
X22543333Y-390000D01*
X22510000Y-356666D01*
X22443333Y-323333D01*
X22310000Y-323333D01*
X22243333Y-356666D01*
X22210000Y-390000D01*
X22176666Y-456666D01*
G04 #@! TO.C,TP11*
X20766666Y-18087466D02*
X20766666Y-17687466D01*
X21466666Y-17887466D02*
X20766666Y-17887466D01*
X21466666Y-17454133D02*
X20766666Y-17454133D01*
X20766666Y-17187466D01*
X20800000Y-17120800D01*
X20833333Y-17087466D01*
X20900000Y-17054133D01*
X21000000Y-17054133D01*
X21066666Y-17087466D01*
X21100000Y-17120800D01*
X21133333Y-17187466D01*
X21133333Y-17454133D01*
X21466666Y-16387466D02*
X21466666Y-16787466D01*
X21466666Y-16587466D02*
X20766666Y-16587466D01*
X20866666Y-16654133D01*
X20933333Y-16720800D01*
X20966666Y-16787466D01*
X21466666Y-15720800D02*
X21466666Y-16120800D01*
X21466666Y-15920800D02*
X20766666Y-15920800D01*
X20866666Y-15987466D01*
X20933333Y-16054133D01*
X20966666Y-16120800D01*
G04 #@! TO.C,TP12*
X21843333Y-13526666D02*
X22243333Y-13526666D01*
X22043333Y-14226666D02*
X22043333Y-13526666D01*
X22476666Y-14226666D02*
X22476666Y-13526666D01*
X22743333Y-13526666D01*
X22810000Y-13560000D01*
X22843333Y-13593333D01*
X22876666Y-13660000D01*
X22876666Y-13760000D01*
X22843333Y-13826666D01*
X22810000Y-13860000D01*
X22743333Y-13893333D01*
X22476666Y-13893333D01*
X23543333Y-14226666D02*
X23143333Y-14226666D01*
X23343333Y-14226666D02*
X23343333Y-13526666D01*
X23276666Y-13626666D01*
X23210000Y-13693333D01*
X23143333Y-13726666D01*
X23810000Y-13593333D02*
X23843333Y-13560000D01*
X23910000Y-13526666D01*
X24076666Y-13526666D01*
X24143333Y-13560000D01*
X24176666Y-13593333D01*
X24210000Y-13660000D01*
X24210000Y-13726666D01*
X24176666Y-13826666D01*
X23776666Y-14226666D01*
X24210000Y-14226666D01*
G04 #@! TO.C,TP14*
X10506666Y-4445866D02*
X10506666Y-4045866D01*
X11206666Y-4245866D02*
X10506666Y-4245866D01*
X11206666Y-3812533D02*
X10506666Y-3812533D01*
X10506666Y-3545866D01*
X10540000Y-3479200D01*
X10573333Y-3445866D01*
X10640000Y-3412533D01*
X10740000Y-3412533D01*
X10806666Y-3445866D01*
X10840000Y-3479200D01*
X10873333Y-3545866D01*
X10873333Y-3812533D01*
X11206666Y-2745866D02*
X11206666Y-3145866D01*
X11206666Y-2945866D02*
X10506666Y-2945866D01*
X10606666Y-3012533D01*
X10673333Y-3079200D01*
X10706666Y-3145866D01*
X10740000Y-2145866D02*
X11206666Y-2145866D01*
X10473333Y-2312533D02*
X10973333Y-2479200D01*
X10973333Y-2045866D01*
G04 #@! TO.C,TP15*
X9256666Y-4536666D02*
X9256666Y-4136666D01*
X9956666Y-4336666D02*
X9256666Y-4336666D01*
X9956666Y-3903333D02*
X9256666Y-3903333D01*
X9256666Y-3636666D01*
X9290000Y-3570000D01*
X9323333Y-3536666D01*
X9390000Y-3503333D01*
X9490000Y-3503333D01*
X9556666Y-3536666D01*
X9590000Y-3570000D01*
X9623333Y-3636666D01*
X9623333Y-3903333D01*
X9956666Y-2836666D02*
X9956666Y-3236666D01*
X9956666Y-3036666D02*
X9256666Y-3036666D01*
X9356666Y-3103333D01*
X9423333Y-3170000D01*
X9456666Y-3236666D01*
X9256666Y-2203333D02*
X9256666Y-2536666D01*
X9590000Y-2570000D01*
X9556666Y-2536666D01*
X9523333Y-2470000D01*
X9523333Y-2303333D01*
X9556666Y-2236666D01*
X9590000Y-2203333D01*
X9656666Y-2170000D01*
X9823333Y-2170000D01*
X9890000Y-2203333D01*
X9923333Y-2236666D01*
X9956666Y-2303333D01*
X9956666Y-2470000D01*
X9923333Y-2536666D01*
X9890000Y-2570000D01*
G04 #@! TO.C,TP16*
X4753333Y-936666D02*
X5153333Y-936666D01*
X4953333Y-1636666D02*
X4953333Y-936666D01*
X5386666Y-1636666D02*
X5386666Y-936666D01*
X5653333Y-936666D01*
X5719999Y-970000D01*
X5753333Y-1003333D01*
X5786666Y-1070000D01*
X5786666Y-1170000D01*
X5753333Y-1236666D01*
X5719999Y-1270000D01*
X5653333Y-1303333D01*
X5386666Y-1303333D01*
X6453333Y-1636666D02*
X6053333Y-1636666D01*
X6253333Y-1636666D02*
X6253333Y-936666D01*
X6186666Y-1036666D01*
X6119999Y-1103333D01*
X6053333Y-1136666D01*
X7053333Y-936666D02*
X6919999Y-936666D01*
X6853333Y-970000D01*
X6819999Y-1003333D01*
X6753333Y-1103333D01*
X6719999Y-1236666D01*
X6719999Y-1503333D01*
X6753333Y-1570000D01*
X6786666Y-1603333D01*
X6853333Y-1636666D01*
X6986666Y-1636666D01*
X7053333Y-1603333D01*
X7086666Y-1570000D01*
X7119999Y-1503333D01*
X7119999Y-1336666D01*
X7086666Y-1270000D01*
X7053333Y-1236666D01*
X6986666Y-1203333D01*
X6853333Y-1203333D01*
X6786666Y-1236666D01*
X6753333Y-1270000D01*
X6719999Y-1336666D01*
G04 #@! TO.C,TP10*
X19516666Y-18036666D02*
X19516666Y-17636666D01*
X20216666Y-17836666D02*
X19516666Y-17836666D01*
X20216666Y-17403333D02*
X19516666Y-17403333D01*
X19516666Y-17136666D01*
X19550000Y-17070000D01*
X19583333Y-17036666D01*
X19650000Y-17003333D01*
X19750000Y-17003333D01*
X19816666Y-17036666D01*
X19850000Y-17070000D01*
X19883333Y-17136666D01*
X19883333Y-17403333D01*
X20216666Y-16336666D02*
X20216666Y-16736666D01*
X20216666Y-16536666D02*
X19516666Y-16536666D01*
X19616666Y-16603333D01*
X19683333Y-16670000D01*
X19716666Y-16736666D01*
X19516666Y-15903333D02*
X19516666Y-15836666D01*
X19550000Y-15770000D01*
X19583333Y-15736666D01*
X19650000Y-15703333D01*
X19783333Y-15670000D01*
X19950000Y-15670000D01*
X20083333Y-15703333D01*
X20150000Y-15736666D01*
X20183333Y-15770000D01*
X20216666Y-15836666D01*
X20216666Y-15903333D01*
X20183333Y-15970000D01*
X20150000Y-16003333D01*
X20083333Y-16036666D01*
X19950000Y-16070000D01*
X19783333Y-16070000D01*
X19650000Y-16036666D01*
X19583333Y-16003333D01*
X19550000Y-15970000D01*
X19516666Y-15903333D01*
G04 #@! TO.C,C15*
X20405000Y-9660000D02*
X20371666Y-9693333D01*
X20271666Y-9726666D01*
X20205000Y-9726666D01*
X20105000Y-9693333D01*
X20038333Y-9626666D01*
X20005000Y-9560000D01*
X19971666Y-9426666D01*
X19971666Y-9326666D01*
X20005000Y-9193333D01*
X20038333Y-9126666D01*
X20105000Y-9060000D01*
X20205000Y-9026666D01*
X20271666Y-9026666D01*
X20371666Y-9060000D01*
X20405000Y-9093333D01*
X21071666Y-9726666D02*
X20671666Y-9726666D01*
X20871666Y-9726666D02*
X20871666Y-9026666D01*
X20805000Y-9126666D01*
X20738333Y-9193333D01*
X20671666Y-9226666D01*
X21705000Y-9026666D02*
X21371666Y-9026666D01*
X21338333Y-9360000D01*
X21371666Y-9326666D01*
X21438333Y-9293333D01*
X21605000Y-9293333D01*
X21671666Y-9326666D01*
X21705000Y-9360000D01*
X21738333Y-9426666D01*
X21738333Y-9593333D01*
X21705000Y-9660000D01*
X21671666Y-9693333D01*
X21605000Y-9726666D01*
X21438333Y-9726666D01*
X21371666Y-9693333D01*
X21338333Y-9660000D01*
G04 #@! TO.C,C9*
X19393333Y-11635000D02*
X19360000Y-11668333D01*
X19260000Y-11701666D01*
X19193333Y-11701666D01*
X19093333Y-11668333D01*
X19026666Y-11601666D01*
X18993333Y-11535000D01*
X18960000Y-11401666D01*
X18960000Y-11301666D01*
X18993333Y-11168333D01*
X19026666Y-11101666D01*
X19093333Y-11035000D01*
X19193333Y-11001666D01*
X19260000Y-11001666D01*
X19360000Y-11035000D01*
X19393333Y-11068333D01*
X19726666Y-11701666D02*
X19860000Y-11701666D01*
X19926666Y-11668333D01*
X19960000Y-11635000D01*
X20026666Y-11535000D01*
X20060000Y-11401666D01*
X20060000Y-11135000D01*
X20026666Y-11068333D01*
X19993333Y-11035000D01*
X19926666Y-11001666D01*
X19793333Y-11001666D01*
X19726666Y-11035000D01*
X19693333Y-11068333D01*
X19660000Y-11135000D01*
X19660000Y-11301666D01*
X19693333Y-11368333D01*
X19726666Y-11401666D01*
X19793333Y-11435000D01*
X19926666Y-11435000D01*
X19993333Y-11401666D01*
X20026666Y-11368333D01*
X20060000Y-11301666D01*
G04 #@! TO.C,C11*
X17460000Y-10285000D02*
X17493333Y-10318333D01*
X17526666Y-10418333D01*
X17526666Y-10485000D01*
X17493333Y-10585000D01*
X17426666Y-10651666D01*
X17360000Y-10685000D01*
X17226666Y-10718333D01*
X17126666Y-10718333D01*
X16993333Y-10685000D01*
X16926666Y-10651666D01*
X16860000Y-10585000D01*
X16826666Y-10485000D01*
X16826666Y-10418333D01*
X16860000Y-10318333D01*
X16893333Y-10285000D01*
X17526666Y-9618333D02*
X17526666Y-10018333D01*
X17526666Y-9818333D02*
X16826666Y-9818333D01*
X16926666Y-9885000D01*
X16993333Y-9951666D01*
X17026666Y-10018333D01*
X17526666Y-8951666D02*
X17526666Y-9351666D01*
X17526666Y-9151666D02*
X16826666Y-9151666D01*
X16926666Y-9218333D01*
X16993333Y-9285000D01*
X17026666Y-9351666D01*
G04 #@! TO.C,R22*
X760000Y-9116666D02*
X526666Y-8783333D01*
X360000Y-9116666D02*
X360000Y-8416666D01*
X626666Y-8416666D01*
X693333Y-8450000D01*
X726666Y-8483333D01*
X760000Y-8550000D01*
X760000Y-8650000D01*
X726666Y-8716666D01*
X693333Y-8750000D01*
X626666Y-8783333D01*
X360000Y-8783333D01*
X1026666Y-8483333D02*
X1060000Y-8450000D01*
X1126666Y-8416666D01*
X1293333Y-8416666D01*
X1360000Y-8450000D01*
X1393333Y-8483333D01*
X1426666Y-8550000D01*
X1426666Y-8616666D01*
X1393333Y-8716666D01*
X993333Y-9116666D01*
X1426666Y-9116666D01*
X1693333Y-8483333D02*
X1726666Y-8450000D01*
X1793333Y-8416666D01*
X1960000Y-8416666D01*
X2026666Y-8450000D01*
X2060000Y-8483333D01*
X2093333Y-8550000D01*
X2093333Y-8616666D01*
X2060000Y-8716666D01*
X1660000Y-9116666D01*
X2093333Y-9116666D01*
G04 #@! TO.C,R21*
X780000Y-10186666D02*
X546666Y-9853333D01*
X380000Y-10186666D02*
X380000Y-9486666D01*
X646666Y-9486666D01*
X713333Y-9520000D01*
X746666Y-9553333D01*
X780000Y-9620000D01*
X780000Y-9720000D01*
X746666Y-9786666D01*
X713333Y-9820000D01*
X646666Y-9853333D01*
X380000Y-9853333D01*
X1046666Y-9553333D02*
X1080000Y-9520000D01*
X1146666Y-9486666D01*
X1313333Y-9486666D01*
X1380000Y-9520000D01*
X1413333Y-9553333D01*
X1446666Y-9620000D01*
X1446666Y-9686666D01*
X1413333Y-9786666D01*
X1013333Y-10186666D01*
X1446666Y-10186666D01*
X2113333Y-10186666D02*
X1713333Y-10186666D01*
X1913333Y-10186666D02*
X1913333Y-9486666D01*
X1846666Y-9586666D01*
X1780000Y-9653333D01*
X1713333Y-9686666D01*
G04 #@! TO.C,R20*
X765000Y-11126666D02*
X531666Y-10793333D01*
X365000Y-11126666D02*
X365000Y-10426666D01*
X631666Y-10426666D01*
X698333Y-10460000D01*
X731666Y-10493333D01*
X765000Y-10560000D01*
X765000Y-10660000D01*
X731666Y-10726666D01*
X698333Y-10760000D01*
X631666Y-10793333D01*
X365000Y-10793333D01*
X1031666Y-10493333D02*
X1065000Y-10460000D01*
X1131666Y-10426666D01*
X1298333Y-10426666D01*
X1365000Y-10460000D01*
X1398333Y-10493333D01*
X1431666Y-10560000D01*
X1431666Y-10626666D01*
X1398333Y-10726666D01*
X998333Y-11126666D01*
X1431666Y-11126666D01*
X1865000Y-10426666D02*
X1931666Y-10426666D01*
X1998333Y-10460000D01*
X2031666Y-10493333D01*
X2065000Y-10560000D01*
X2098333Y-10693333D01*
X2098333Y-10860000D01*
X2065000Y-10993333D01*
X2031666Y-11060000D01*
X1998333Y-11093333D01*
X1931666Y-11126666D01*
X1865000Y-11126666D01*
X1798333Y-11093333D01*
X1765000Y-11060000D01*
X1731666Y-10993333D01*
X1698333Y-10860000D01*
X1698333Y-10693333D01*
X1731666Y-10560000D01*
X1765000Y-10493333D01*
X1798333Y-10460000D01*
X1865000Y-10426666D01*
G04 #@! TO.C,R19*
X810000Y-12186666D02*
X576666Y-11853333D01*
X410000Y-12186666D02*
X410000Y-11486666D01*
X676666Y-11486666D01*
X743333Y-11520000D01*
X776666Y-11553333D01*
X810000Y-11620000D01*
X810000Y-11720000D01*
X776666Y-11786666D01*
X743333Y-11820000D01*
X676666Y-11853333D01*
X410000Y-11853333D01*
X1476666Y-12186666D02*
X1076666Y-12186666D01*
X1276666Y-12186666D02*
X1276666Y-11486666D01*
X1210000Y-11586666D01*
X1143333Y-11653333D01*
X1076666Y-11686666D01*
X1810000Y-12186666D02*
X1943333Y-12186666D01*
X2010000Y-12153333D01*
X2043333Y-12120000D01*
X2110000Y-12020000D01*
X2143333Y-11886666D01*
X2143333Y-11620000D01*
X2110000Y-11553333D01*
X2076666Y-11520000D01*
X2010000Y-11486666D01*
X1876666Y-11486666D01*
X1810000Y-11520000D01*
X1776666Y-11553333D01*
X1743333Y-11620000D01*
X1743333Y-11786666D01*
X1776666Y-11853333D01*
X1810000Y-11886666D01*
X1876666Y-11920000D01*
X2010000Y-11920000D01*
X2076666Y-11886666D01*
X2110000Y-11853333D01*
X2143333Y-11786666D01*
G04 #@! TO.C,R18*
X790000Y-13256666D02*
X556666Y-12923333D01*
X390000Y-13256666D02*
X390000Y-12556666D01*
X656666Y-12556666D01*
X723333Y-12590000D01*
X756666Y-12623333D01*
X790000Y-12690000D01*
X790000Y-12790000D01*
X756666Y-12856666D01*
X723333Y-12890000D01*
X656666Y-12923333D01*
X390000Y-12923333D01*
X1456666Y-13256666D02*
X1056666Y-13256666D01*
X1256666Y-13256666D02*
X1256666Y-12556666D01*
X1190000Y-12656666D01*
X1123333Y-12723333D01*
X1056666Y-12756666D01*
X1856666Y-12856666D02*
X1790000Y-12823333D01*
X1756666Y-12790000D01*
X1723333Y-12723333D01*
X1723333Y-12690000D01*
X1756666Y-12623333D01*
X1790000Y-12590000D01*
X1856666Y-12556666D01*
X1990000Y-12556666D01*
X2056666Y-12590000D01*
X2090000Y-12623333D01*
X2123333Y-12690000D01*
X2123333Y-12723333D01*
X2090000Y-12790000D01*
X2056666Y-12823333D01*
X1990000Y-12856666D01*
X1856666Y-12856666D01*
X1790000Y-12890000D01*
X1756666Y-12923333D01*
X1723333Y-12990000D01*
X1723333Y-13123333D01*
X1756666Y-13190000D01*
X1790000Y-13223333D01*
X1856666Y-13256666D01*
X1990000Y-13256666D01*
X2056666Y-13223333D01*
X2090000Y-13190000D01*
X2123333Y-13123333D01*
X2123333Y-12990000D01*
X2090000Y-12923333D01*
X2056666Y-12890000D01*
X1990000Y-12856666D01*
G04 #@! TO.C,R17*
X780000Y-14276666D02*
X546666Y-13943333D01*
X380000Y-14276666D02*
X380000Y-13576666D01*
X646666Y-13576666D01*
X713333Y-13610000D01*
X746666Y-13643333D01*
X780000Y-13710000D01*
X780000Y-13810000D01*
X746666Y-13876666D01*
X713333Y-13910000D01*
X646666Y-13943333D01*
X380000Y-13943333D01*
X1446666Y-14276666D02*
X1046666Y-14276666D01*
X1246666Y-14276666D02*
X1246666Y-13576666D01*
X1180000Y-13676666D01*
X1113333Y-13743333D01*
X1046666Y-13776666D01*
X1680000Y-13576666D02*
X2146666Y-13576666D01*
X1846666Y-14276666D01*
G04 #@! TO.C,R16*
X760000Y-15266666D02*
X526666Y-14933333D01*
X360000Y-15266666D02*
X360000Y-14566666D01*
X626666Y-14566666D01*
X693333Y-14600000D01*
X726666Y-14633333D01*
X760000Y-14700000D01*
X760000Y-14800000D01*
X726666Y-14866666D01*
X693333Y-14900000D01*
X626666Y-14933333D01*
X360000Y-14933333D01*
X1426666Y-15266666D02*
X1026666Y-15266666D01*
X1226666Y-15266666D02*
X1226666Y-14566666D01*
X1160000Y-14666666D01*
X1093333Y-14733333D01*
X1026666Y-14766666D01*
X2026666Y-14566666D02*
X1893333Y-14566666D01*
X1826666Y-14600000D01*
X1793333Y-14633333D01*
X1726666Y-14733333D01*
X1693333Y-14866666D01*
X1693333Y-15133333D01*
X1726666Y-15200000D01*
X1760000Y-15233333D01*
X1826666Y-15266666D01*
X1960000Y-15266666D01*
X2026666Y-15233333D01*
X2060000Y-15200000D01*
X2093333Y-15133333D01*
X2093333Y-14966666D01*
X2060000Y-14900000D01*
X2026666Y-14866666D01*
X1960000Y-14833333D01*
X1826666Y-14833333D01*
X1760000Y-14866666D01*
X1726666Y-14900000D01*
X1693333Y-14966666D01*
G04 #@! TO.C,R15*
X760000Y-16246666D02*
X526666Y-15913333D01*
X360000Y-16246666D02*
X360000Y-15546666D01*
X626666Y-15546666D01*
X693333Y-15580000D01*
X726666Y-15613333D01*
X760000Y-15680000D01*
X760000Y-15780000D01*
X726666Y-15846666D01*
X693333Y-15880000D01*
X626666Y-15913333D01*
X360000Y-15913333D01*
X1426666Y-16246666D02*
X1026666Y-16246666D01*
X1226666Y-16246666D02*
X1226666Y-15546666D01*
X1160000Y-15646666D01*
X1093333Y-15713333D01*
X1026666Y-15746666D01*
X2060000Y-15546666D02*
X1726666Y-15546666D01*
X1693333Y-15880000D01*
X1726666Y-15846666D01*
X1793333Y-15813333D01*
X1960000Y-15813333D01*
X2026666Y-15846666D01*
X2060000Y-15880000D01*
X2093333Y-15946666D01*
X2093333Y-16113333D01*
X2060000Y-16180000D01*
X2026666Y-16213333D01*
X1960000Y-16246666D01*
X1793333Y-16246666D01*
X1726666Y-16213333D01*
X1693333Y-16180000D01*
G04 #@! TO.C,TP17*
X183333Y-18987466D02*
X583333Y-18987466D01*
X383333Y-19687466D02*
X383333Y-18987466D01*
X816666Y-19687466D02*
X816666Y-18987466D01*
X1083333Y-18987466D01*
X1149999Y-19020800D01*
X1183333Y-19054133D01*
X1216666Y-19120800D01*
X1216666Y-19220800D01*
X1183333Y-19287466D01*
X1149999Y-19320800D01*
X1083333Y-19354133D01*
X816666Y-19354133D01*
X1883333Y-19687466D02*
X1483333Y-19687466D01*
X1683333Y-19687466D02*
X1683333Y-18987466D01*
X1616666Y-19087466D01*
X1549999Y-19154133D01*
X1483333Y-19187466D01*
X2116666Y-18987466D02*
X2583333Y-18987466D01*
X2283333Y-19687466D01*
G04 #@! TD*
M02*
