G04 #@! TF.GenerationSoftware,KiCad,Pcbnew,5.0.2+dfsg1-1~bpo9+1*
G04 #@! TF.CreationDate,2019-10-29T18:12:18+01:00*
G04 #@! TF.ProjectId,zglue-jade-adapter,7a676c75-652d-46a6-9164-652d61646170,rev?*
G04 #@! TF.SameCoordinates,Original*
G04 #@! TF.FileFunction,Soldermask,Bot*
G04 #@! TF.FilePolarity,Negative*
%FSLAX46Y46*%
G04 Gerber Fmt 4.6, Leading zero omitted, Abs format (unit mm)*
G04 Created by KiCad (PCBNEW 5.0.2+dfsg1-1~bpo9+1) date Tue 29 Oct 2019 06:12:18 PM CET*
%MOMM*%
%LPD*%
G01*
G04 APERTURE LIST*
%ADD10C,0.100000*%
G04 APERTURE END LIST*
D10*
G36*
X24529260Y-16664500D02*
X23107260Y-16664500D01*
X23107260Y-15262500D01*
X24529260Y-15262500D01*
X24529260Y-16664500D01*
X24529260Y-16664500D01*
G37*
G36*
X7024260Y-16664500D02*
X5602260Y-16664500D01*
X5602260Y-15262500D01*
X7024260Y-15262500D01*
X7024260Y-16664500D01*
X7024260Y-16664500D01*
G37*
G36*
X19408620Y-16659420D02*
X17986620Y-16659420D01*
X17986620Y-15257420D01*
X19408620Y-15257420D01*
X19408620Y-16659420D01*
X19408620Y-16659420D01*
G37*
G36*
X1903620Y-16659420D02*
X481620Y-16659420D01*
X481620Y-15257420D01*
X1903620Y-15257420D01*
X1903620Y-16659420D01*
X1903620Y-16659420D01*
G37*
G36*
X1603120Y-14958000D02*
X401120Y-14958000D01*
X401120Y-5056000D01*
X1603120Y-5056000D01*
X1603120Y-14958000D01*
X1603120Y-14958000D01*
G37*
G36*
X24607220Y-14958000D02*
X23405220Y-14958000D01*
X23405220Y-5056000D01*
X24607220Y-5056000D01*
X24607220Y-14958000D01*
X24607220Y-14958000D01*
G37*
G36*
X19108120Y-14958000D02*
X17906120Y-14958000D01*
X17906120Y-5056000D01*
X19108120Y-5056000D01*
X19108120Y-14958000D01*
X19108120Y-14958000D01*
G37*
G36*
X7102220Y-14958000D02*
X5900220Y-14958000D01*
X5900220Y-5056000D01*
X7102220Y-5056000D01*
X7102220Y-14958000D01*
X7102220Y-14958000D01*
G37*
G36*
X14126527Y-10886241D02*
X14177394Y-10907311D01*
X14223172Y-10937899D01*
X14262101Y-10976828D01*
X14292689Y-11022606D01*
X14313759Y-11073473D01*
X14324500Y-11127471D01*
X14324500Y-11182529D01*
X14313759Y-11236527D01*
X14292689Y-11287394D01*
X14262101Y-11333172D01*
X14223172Y-11372101D01*
X14177394Y-11402689D01*
X14126527Y-11423759D01*
X14072529Y-11434500D01*
X14017471Y-11434500D01*
X13963473Y-11423759D01*
X13912606Y-11402689D01*
X13866828Y-11372101D01*
X13827899Y-11333172D01*
X13797311Y-11287394D01*
X13776241Y-11236527D01*
X13765500Y-11182529D01*
X13765500Y-11127471D01*
X13776241Y-11073473D01*
X13797311Y-11022606D01*
X13827899Y-10976828D01*
X13866828Y-10937899D01*
X13912606Y-10907311D01*
X13963473Y-10886241D01*
X14017471Y-10875500D01*
X14072529Y-10875500D01*
X14126527Y-10886241D01*
X14126527Y-10886241D01*
G37*
G36*
X11026527Y-10886241D02*
X11077394Y-10907311D01*
X11123172Y-10937899D01*
X11162101Y-10976828D01*
X11192689Y-11022606D01*
X11213759Y-11073473D01*
X11224500Y-11127471D01*
X11224500Y-11182529D01*
X11213759Y-11236527D01*
X11192689Y-11287394D01*
X11162101Y-11333172D01*
X11123172Y-11372101D01*
X11077394Y-11402689D01*
X11026527Y-11423759D01*
X10972529Y-11434500D01*
X10917471Y-11434500D01*
X10863473Y-11423759D01*
X10812606Y-11402689D01*
X10766828Y-11372101D01*
X10727899Y-11333172D01*
X10697311Y-11287394D01*
X10676241Y-11236527D01*
X10665500Y-11182529D01*
X10665500Y-11127471D01*
X10676241Y-11073473D01*
X10697311Y-11022606D01*
X10727899Y-10976828D01*
X10766828Y-10937899D01*
X10812606Y-10907311D01*
X10863473Y-10886241D01*
X10917471Y-10875500D01*
X10972529Y-10875500D01*
X11026527Y-10886241D01*
X11026527Y-10886241D01*
G37*
G36*
X13176527Y-10886241D02*
X13227394Y-10907311D01*
X13273172Y-10937899D01*
X13312101Y-10976828D01*
X13342689Y-11022606D01*
X13363759Y-11073473D01*
X13374500Y-11127471D01*
X13374500Y-11182529D01*
X13363759Y-11236527D01*
X13342689Y-11287394D01*
X13312101Y-11333172D01*
X13273172Y-11372101D01*
X13227394Y-11402689D01*
X13176527Y-11423759D01*
X13122529Y-11434500D01*
X13067471Y-11434500D01*
X13013473Y-11423759D01*
X12962606Y-11402689D01*
X12916828Y-11372101D01*
X12877899Y-11333172D01*
X12847311Y-11287394D01*
X12826241Y-11236527D01*
X12815500Y-11182529D01*
X12815500Y-11127471D01*
X12826241Y-11073473D01*
X12847311Y-11022606D01*
X12877899Y-10976828D01*
X12916828Y-10937899D01*
X12962606Y-10907311D01*
X13013473Y-10886241D01*
X13067471Y-10875500D01*
X13122529Y-10875500D01*
X13176527Y-10886241D01*
X13176527Y-10886241D01*
G37*
G36*
X11976527Y-10886241D02*
X12027394Y-10907311D01*
X12073172Y-10937899D01*
X12112101Y-10976828D01*
X12142689Y-11022606D01*
X12163759Y-11073473D01*
X12174500Y-11127471D01*
X12174500Y-11182529D01*
X12163759Y-11236527D01*
X12142689Y-11287394D01*
X12112101Y-11333172D01*
X12073172Y-11372101D01*
X12027394Y-11402689D01*
X11976527Y-11423759D01*
X11922529Y-11434500D01*
X11867471Y-11434500D01*
X11813473Y-11423759D01*
X11762606Y-11402689D01*
X11716828Y-11372101D01*
X11677899Y-11333172D01*
X11647311Y-11287394D01*
X11626241Y-11236527D01*
X11615500Y-11182529D01*
X11615500Y-11127471D01*
X11626241Y-11073473D01*
X11647311Y-11022606D01*
X11677899Y-10976828D01*
X11716828Y-10937899D01*
X11762606Y-10907311D01*
X11813473Y-10886241D01*
X11867471Y-10875500D01*
X11922529Y-10875500D01*
X11976527Y-10886241D01*
X11976527Y-10886241D01*
G37*
G36*
X13176527Y-9736241D02*
X13227394Y-9757311D01*
X13273172Y-9787899D01*
X13312101Y-9826828D01*
X13342689Y-9872606D01*
X13363759Y-9923473D01*
X13374500Y-9977471D01*
X13374500Y-10032529D01*
X13363759Y-10086527D01*
X13342689Y-10137394D01*
X13312101Y-10183172D01*
X13273172Y-10222101D01*
X13227394Y-10252689D01*
X13176527Y-10273759D01*
X13122529Y-10284500D01*
X13067471Y-10284500D01*
X13013473Y-10273759D01*
X12962606Y-10252689D01*
X12916828Y-10222101D01*
X12877899Y-10183172D01*
X12847311Y-10137394D01*
X12826241Y-10086527D01*
X12815500Y-10032529D01*
X12815500Y-9977471D01*
X12826241Y-9923473D01*
X12847311Y-9872606D01*
X12877899Y-9826828D01*
X12916828Y-9787899D01*
X12962606Y-9757311D01*
X13013473Y-9736241D01*
X13067471Y-9725500D01*
X13122529Y-9725500D01*
X13176527Y-9736241D01*
X13176527Y-9736241D01*
G37*
G36*
X11026527Y-9736241D02*
X11077394Y-9757311D01*
X11123172Y-9787899D01*
X11162101Y-9826828D01*
X11192689Y-9872606D01*
X11213759Y-9923473D01*
X11224500Y-9977471D01*
X11224500Y-10032529D01*
X11213759Y-10086527D01*
X11192689Y-10137394D01*
X11162101Y-10183172D01*
X11123172Y-10222101D01*
X11077394Y-10252689D01*
X11026527Y-10273759D01*
X10972529Y-10284500D01*
X10917471Y-10284500D01*
X10863473Y-10273759D01*
X10812606Y-10252689D01*
X10766828Y-10222101D01*
X10727899Y-10183172D01*
X10697311Y-10137394D01*
X10676241Y-10086527D01*
X10665500Y-10032529D01*
X10665500Y-9977471D01*
X10676241Y-9923473D01*
X10697311Y-9872606D01*
X10727899Y-9826828D01*
X10766828Y-9787899D01*
X10812606Y-9757311D01*
X10863473Y-9736241D01*
X10917471Y-9725500D01*
X10972529Y-9725500D01*
X11026527Y-9736241D01*
X11026527Y-9736241D01*
G37*
G36*
X11976527Y-9736241D02*
X12027394Y-9757311D01*
X12073172Y-9787899D01*
X12112101Y-9826828D01*
X12142689Y-9872606D01*
X12163759Y-9923473D01*
X12174500Y-9977471D01*
X12174500Y-10032529D01*
X12163759Y-10086527D01*
X12142689Y-10137394D01*
X12112101Y-10183172D01*
X12073172Y-10222101D01*
X12027394Y-10252689D01*
X11976527Y-10273759D01*
X11922529Y-10284500D01*
X11867471Y-10284500D01*
X11813473Y-10273759D01*
X11762606Y-10252689D01*
X11716828Y-10222101D01*
X11677899Y-10183172D01*
X11647311Y-10137394D01*
X11626241Y-10086527D01*
X11615500Y-10032529D01*
X11615500Y-9977471D01*
X11626241Y-9923473D01*
X11647311Y-9872606D01*
X11677899Y-9826828D01*
X11716828Y-9787899D01*
X11762606Y-9757311D01*
X11813473Y-9736241D01*
X11867471Y-9725500D01*
X11922529Y-9725500D01*
X11976527Y-9736241D01*
X11976527Y-9736241D01*
G37*
G36*
X14126527Y-9736241D02*
X14177394Y-9757311D01*
X14223172Y-9787899D01*
X14262101Y-9826828D01*
X14292689Y-9872606D01*
X14313759Y-9923473D01*
X14324500Y-9977471D01*
X14324500Y-10032529D01*
X14313759Y-10086527D01*
X14292689Y-10137394D01*
X14262101Y-10183172D01*
X14223172Y-10222101D01*
X14177394Y-10252689D01*
X14126527Y-10273759D01*
X14072529Y-10284500D01*
X14017471Y-10284500D01*
X13963473Y-10273759D01*
X13912606Y-10252689D01*
X13866828Y-10222101D01*
X13827899Y-10183172D01*
X13797311Y-10137394D01*
X13776241Y-10086527D01*
X13765500Y-10032529D01*
X13765500Y-9977471D01*
X13776241Y-9923473D01*
X13797311Y-9872606D01*
X13827899Y-9826828D01*
X13866828Y-9787899D01*
X13912606Y-9757311D01*
X13963473Y-9736241D01*
X14017471Y-9725500D01*
X14072529Y-9725500D01*
X14126527Y-9736241D01*
X14126527Y-9736241D01*
G37*
G36*
X11026527Y-8586241D02*
X11077394Y-8607311D01*
X11123172Y-8637899D01*
X11162101Y-8676828D01*
X11192689Y-8722606D01*
X11213759Y-8773473D01*
X11224500Y-8827471D01*
X11224500Y-8882529D01*
X11213759Y-8936527D01*
X11192689Y-8987394D01*
X11162101Y-9033172D01*
X11123172Y-9072101D01*
X11077394Y-9102689D01*
X11026527Y-9123759D01*
X10972529Y-9134500D01*
X10917471Y-9134500D01*
X10863473Y-9123759D01*
X10812606Y-9102689D01*
X10766828Y-9072101D01*
X10727899Y-9033172D01*
X10697311Y-8987394D01*
X10676241Y-8936527D01*
X10665500Y-8882529D01*
X10665500Y-8827471D01*
X10676241Y-8773473D01*
X10697311Y-8722606D01*
X10727899Y-8676828D01*
X10766828Y-8637899D01*
X10812606Y-8607311D01*
X10863473Y-8586241D01*
X10917471Y-8575500D01*
X10972529Y-8575500D01*
X11026527Y-8586241D01*
X11026527Y-8586241D01*
G37*
G36*
X13176527Y-8586241D02*
X13227394Y-8607311D01*
X13273172Y-8637899D01*
X13312101Y-8676828D01*
X13342689Y-8722606D01*
X13363759Y-8773473D01*
X13374500Y-8827471D01*
X13374500Y-8882529D01*
X13363759Y-8936527D01*
X13342689Y-8987394D01*
X13312101Y-9033172D01*
X13273172Y-9072101D01*
X13227394Y-9102689D01*
X13176527Y-9123759D01*
X13122529Y-9134500D01*
X13067471Y-9134500D01*
X13013473Y-9123759D01*
X12962606Y-9102689D01*
X12916828Y-9072101D01*
X12877899Y-9033172D01*
X12847311Y-8987394D01*
X12826241Y-8936527D01*
X12815500Y-8882529D01*
X12815500Y-8827471D01*
X12826241Y-8773473D01*
X12847311Y-8722606D01*
X12877899Y-8676828D01*
X12916828Y-8637899D01*
X12962606Y-8607311D01*
X13013473Y-8586241D01*
X13067471Y-8575500D01*
X13122529Y-8575500D01*
X13176527Y-8586241D01*
X13176527Y-8586241D01*
G37*
G36*
X11926527Y-8586241D02*
X11977394Y-8607311D01*
X12023172Y-8637899D01*
X12062101Y-8676828D01*
X12092689Y-8722606D01*
X12113759Y-8773473D01*
X12124500Y-8827471D01*
X12124500Y-8882529D01*
X12113759Y-8936527D01*
X12092689Y-8987394D01*
X12062101Y-9033172D01*
X12023172Y-9072101D01*
X11977394Y-9102689D01*
X11926527Y-9123759D01*
X11872529Y-9134500D01*
X11817471Y-9134500D01*
X11763473Y-9123759D01*
X11712606Y-9102689D01*
X11666828Y-9072101D01*
X11627899Y-9033172D01*
X11597311Y-8987394D01*
X11576241Y-8936527D01*
X11565500Y-8882529D01*
X11565500Y-8827471D01*
X11576241Y-8773473D01*
X11597311Y-8722606D01*
X11627899Y-8676828D01*
X11666828Y-8637899D01*
X11712606Y-8607311D01*
X11763473Y-8586241D01*
X11817471Y-8575500D01*
X11872529Y-8575500D01*
X11926527Y-8586241D01*
X11926527Y-8586241D01*
G37*
G36*
X14126527Y-8586241D02*
X14177394Y-8607311D01*
X14223172Y-8637899D01*
X14262101Y-8676828D01*
X14292689Y-8722606D01*
X14313759Y-8773473D01*
X14324500Y-8827471D01*
X14324500Y-8882529D01*
X14313759Y-8936527D01*
X14292689Y-8987394D01*
X14262101Y-9033172D01*
X14223172Y-9072101D01*
X14177394Y-9102689D01*
X14126527Y-9123759D01*
X14072529Y-9134500D01*
X14017471Y-9134500D01*
X13963473Y-9123759D01*
X13912606Y-9102689D01*
X13866828Y-9072101D01*
X13827899Y-9033172D01*
X13797311Y-8987394D01*
X13776241Y-8936527D01*
X13765500Y-8882529D01*
X13765500Y-8827471D01*
X13776241Y-8773473D01*
X13797311Y-8722606D01*
X13827899Y-8676828D01*
X13866828Y-8637899D01*
X13912606Y-8607311D01*
X13963473Y-8586241D01*
X14017471Y-8575500D01*
X14072529Y-8575500D01*
X14126527Y-8586241D01*
X14126527Y-8586241D01*
G37*
G36*
X7024260Y-4756980D02*
X5602260Y-4756980D01*
X5602260Y-3354980D01*
X7024260Y-3354980D01*
X7024260Y-4756980D01*
X7024260Y-4756980D01*
G37*
G36*
X24529260Y-4756980D02*
X23107260Y-4756980D01*
X23107260Y-3354980D01*
X24529260Y-3354980D01*
X24529260Y-4756980D01*
X24529260Y-4756980D01*
G37*
G36*
X19408620Y-4756980D02*
X17986620Y-4756980D01*
X17986620Y-3354980D01*
X19408620Y-3354980D01*
X19408620Y-4756980D01*
X19408620Y-4756980D01*
G37*
G36*
X1903620Y-4756980D02*
X481620Y-4756980D01*
X481620Y-3354980D01*
X1903620Y-3354980D01*
X1903620Y-4756980D01*
X1903620Y-4756980D01*
G37*
M02*
