G04 #@! TF.GenerationSoftware,KiCad,Pcbnew,5.0.2+dfsg1-1~bpo9+1*
G04 #@! TF.CreationDate,2019-10-29T18:12:18+01:00*
G04 #@! TF.ProjectId,zglue-jade-adapter,7a676c75-652d-46a6-9164-652d61646170,rev?*
G04 #@! TF.SameCoordinates,Original*
G04 #@! TF.FileFunction,Other,User*
%FSLAX46Y46*%
G04 Gerber Fmt 4.6, Leading zero omitted, Abs format (unit mm)*
G04 Created by KiCad (PCBNEW 5.0.2+dfsg1-1~bpo9+1) date Tue 29 Oct 2019 06:12:18 PM CET*
%MOMM*%
%LPD*%
G01*
G04 APERTURE LIST*
%ADD10C,0.050000*%
G04 APERTURE END LIST*
D10*
G04 #@! TO.C,C6*
X19020000Y-12600000D02*
X18080000Y-12600000D01*
X18080000Y-12600000D02*
X18080000Y-10740000D01*
X18080000Y-10740000D02*
X19020000Y-10740000D01*
X19020000Y-10740000D02*
X19020000Y-12600000D01*
G04 #@! TO.C,R23*
X15945000Y-11565000D02*
X15945000Y-10625000D01*
X15945000Y-10625000D02*
X17805000Y-10625000D01*
X17805000Y-10625000D02*
X17805000Y-11565000D01*
X17805000Y-11565000D02*
X15945000Y-11565000D01*
G04 #@! TO.C,R15*
X20815000Y-4725000D02*
X20815000Y-3785000D01*
X20815000Y-3785000D02*
X22675000Y-3785000D01*
X22675000Y-3785000D02*
X22675000Y-4725000D01*
X22675000Y-4725000D02*
X20815000Y-4725000D01*
G04 #@! TO.C,R12*
X13195000Y-16575000D02*
X12255000Y-16575000D01*
X12255000Y-16575000D02*
X12255000Y-14715000D01*
X12255000Y-14715000D02*
X13195000Y-14715000D01*
X13195000Y-14715000D02*
X13195000Y-16575000D01*
G04 #@! TO.C,R10*
X6930000Y-7820000D02*
X5070000Y-7820000D01*
X6930000Y-6880000D02*
X6930000Y-7820000D01*
X5070000Y-6880000D02*
X6930000Y-6880000D01*
X5070000Y-7820000D02*
X5070000Y-6880000D01*
G04 #@! TO.C,R6*
X12770000Y-1665000D02*
X13710000Y-1665000D01*
X13710000Y-1665000D02*
X13710000Y-3525000D01*
X13710000Y-3525000D02*
X12770000Y-3525000D01*
X12770000Y-3525000D02*
X12770000Y-1665000D01*
G04 #@! TO.C,R27*
X19020000Y-7170000D02*
X20880000Y-7170000D01*
X19020000Y-8110000D02*
X19020000Y-7170000D01*
X20880000Y-8110000D02*
X19020000Y-8110000D01*
X20880000Y-7170000D02*
X20880000Y-8110000D01*
G04 #@! TO.C,R28*
X14520000Y-16750000D02*
X13580000Y-16750000D01*
X13580000Y-16750000D02*
X13580000Y-14890000D01*
X13580000Y-14890000D02*
X14520000Y-14890000D01*
X14520000Y-14890000D02*
X14520000Y-16750000D01*
G04 #@! TO.C,R13*
X16430000Y-15790000D02*
X14570000Y-15790000D01*
X16430000Y-14850000D02*
X16430000Y-15790000D01*
X14570000Y-14850000D02*
X16430000Y-14850000D01*
X14570000Y-15790000D02*
X14570000Y-14850000D01*
G04 #@! TO.C,R25*
X19130000Y-4760000D02*
X20070000Y-4760000D01*
X20070000Y-4760000D02*
X20070000Y-6620000D01*
X20070000Y-6620000D02*
X19130000Y-6620000D01*
X19130000Y-6620000D02*
X19130000Y-4760000D01*
G04 #@! TO.C,R24*
X17805000Y-12515000D02*
X15945000Y-12515000D01*
X17805000Y-11575000D02*
X17805000Y-12515000D01*
X15945000Y-11575000D02*
X17805000Y-11575000D01*
X15945000Y-12515000D02*
X15945000Y-11575000D01*
G04 #@! TO.C,R14*
X18090000Y-6600000D02*
X18090000Y-4740000D01*
X19030000Y-6600000D02*
X18090000Y-6600000D01*
X19030000Y-4740000D02*
X19030000Y-6600000D01*
X18090000Y-4740000D02*
X19030000Y-4740000D01*
G04 #@! TO.C,R26*
X19050000Y-7170000D02*
X19050000Y-8110000D01*
X19050000Y-8110000D02*
X17190000Y-8110000D01*
X17190000Y-8110000D02*
X17190000Y-7170000D01*
X17190000Y-7170000D02*
X19050000Y-7170000D01*
G04 #@! TO.C,C11*
X5700000Y-14730000D02*
X5700000Y-14870000D01*
X7120000Y-14730000D02*
X7120000Y-14870000D01*
X7120000Y-12510000D02*
X7120000Y-12370000D01*
X5700000Y-12510000D02*
X5700000Y-12370000D01*
X7120000Y-12510000D02*
X7120000Y-14730000D01*
X7120000Y-14870000D02*
X5700000Y-14870000D01*
X5700000Y-14730000D02*
X5700000Y-12510000D01*
X5700000Y-12370000D02*
X7120000Y-12370000D01*
G04 #@! TO.C,C7*
X18766000Y-10560000D02*
X17826000Y-10560000D01*
X17826000Y-10560000D02*
X17826000Y-8700000D01*
X17826000Y-8700000D02*
X18766000Y-8700000D01*
X18766000Y-8700000D02*
X18766000Y-10560000D01*
G04 #@! TO.C,C5*
X17330000Y-12690000D02*
X18270000Y-12690000D01*
X18270000Y-12690000D02*
X18270000Y-14550000D01*
X18270000Y-14550000D02*
X17330000Y-14550000D01*
X17330000Y-14550000D02*
X17330000Y-12690000D01*
G04 #@! TO.C,C4*
X11880000Y-16490000D02*
X12820000Y-16490000D01*
X12820000Y-16490000D02*
X12820000Y-18350000D01*
X12820000Y-18350000D02*
X11880000Y-18350000D01*
X11880000Y-18350000D02*
X11880000Y-16490000D01*
G04 #@! TO.C,C3*
X13805000Y-16815000D02*
X14745000Y-16815000D01*
X14745000Y-16815000D02*
X14745000Y-18675000D01*
X14745000Y-18675000D02*
X13805000Y-18675000D01*
X13805000Y-18675000D02*
X13805000Y-16815000D01*
G04 #@! TO.C,C2*
X10941000Y-15884000D02*
X11881000Y-15884000D01*
X11881000Y-15884000D02*
X11881000Y-17744000D01*
X11881000Y-17744000D02*
X10941000Y-17744000D01*
X10941000Y-17744000D02*
X10941000Y-15884000D01*
G04 #@! TO.C,C10*
X9730000Y-15890000D02*
X10670000Y-15890000D01*
X10670000Y-15890000D02*
X10670000Y-17750000D01*
X10670000Y-17750000D02*
X9730000Y-17750000D01*
X9730000Y-17750000D02*
X9730000Y-15890000D01*
G04 #@! TO.C,C14*
X6777000Y-8844000D02*
X6777000Y-9784000D01*
X6777000Y-9784000D02*
X4917000Y-9784000D01*
X4917000Y-9784000D02*
X4917000Y-8844000D01*
X4917000Y-8844000D02*
X6777000Y-8844000D01*
G04 #@! TO.C,C1*
X7437000Y-12855000D02*
X8377000Y-12855000D01*
X8377000Y-12855000D02*
X8377000Y-14715000D01*
X8377000Y-14715000D02*
X7437000Y-14715000D01*
X7437000Y-14715000D02*
X7437000Y-12855000D01*
G04 #@! TO.C,R11*
X2780000Y-13540000D02*
X2780000Y-12600000D01*
X2780000Y-12600000D02*
X4640000Y-12600000D01*
X4640000Y-12600000D02*
X4640000Y-13540000D01*
X4640000Y-13540000D02*
X2780000Y-13540000D01*
G04 #@! TO.C,R9*
X4917000Y-11814000D02*
X4917000Y-10874000D01*
X4917000Y-10874000D02*
X6777000Y-10874000D01*
X6777000Y-10874000D02*
X6777000Y-11814000D01*
X6777000Y-11814000D02*
X4917000Y-11814000D01*
G04 #@! TO.C,R8*
X4066000Y-16536000D02*
X4066000Y-15596000D01*
X4066000Y-15596000D02*
X5926000Y-15596000D01*
X5926000Y-15596000D02*
X5926000Y-16536000D01*
X5926000Y-16536000D02*
X4066000Y-16536000D01*
G04 #@! TO.C,R7*
X4056000Y-15446000D02*
X4056000Y-14506000D01*
X4056000Y-14506000D02*
X5916000Y-14506000D01*
X5916000Y-14506000D02*
X5916000Y-15446000D01*
X5916000Y-15446000D02*
X4056000Y-15446000D01*
G04 #@! TO.C,R5*
X13850000Y-1660000D02*
X14790000Y-1660000D01*
X14790000Y-1660000D02*
X14790000Y-3520000D01*
X14790000Y-3520000D02*
X13850000Y-3520000D01*
X13850000Y-3520000D02*
X13850000Y-1660000D01*
G04 #@! TO.C,R4*
X12730000Y-17690000D02*
X13670000Y-17690000D01*
X13670000Y-17690000D02*
X13670000Y-19550000D01*
X13670000Y-19550000D02*
X12730000Y-19550000D01*
X12730000Y-19550000D02*
X12730000Y-17690000D01*
G04 #@! TO.C,R3*
X18770000Y-8710000D02*
X19710000Y-8710000D01*
X19710000Y-8710000D02*
X19710000Y-10570000D01*
X19710000Y-10570000D02*
X18770000Y-10570000D01*
X18770000Y-10570000D02*
X18770000Y-8710000D01*
G04 #@! TO.C,R2*
X17000000Y-18335000D02*
X16060000Y-18335000D01*
X16060000Y-18335000D02*
X16060000Y-16475000D01*
X16060000Y-16475000D02*
X17000000Y-16475000D01*
X17000000Y-16475000D02*
X17000000Y-18335000D01*
G04 #@! TO.C,R1*
X18330000Y-12690000D02*
X19270000Y-12690000D01*
X19270000Y-12690000D02*
X19270000Y-14550000D01*
X19270000Y-14550000D02*
X18330000Y-14550000D01*
X18330000Y-14550000D02*
X18330000Y-12690000D01*
G04 #@! TO.C,C15*
X6777000Y-9864000D02*
X6777000Y-10804000D01*
X6777000Y-10804000D02*
X4917000Y-10804000D01*
X4917000Y-10804000D02*
X4917000Y-9864000D01*
X4917000Y-9864000D02*
X6777000Y-9864000D01*
G04 #@! TO.C,C9*
X6902000Y-10811000D02*
X7842000Y-10811000D01*
X7842000Y-10811000D02*
X7842000Y-12671000D01*
X7842000Y-12671000D02*
X6902000Y-12671000D01*
X6902000Y-12671000D02*
X6902000Y-10811000D01*
G04 #@! TO.C,R22*
X20815000Y-11725000D02*
X20815000Y-10785000D01*
X20815000Y-10785000D02*
X22675000Y-10785000D01*
X22675000Y-10785000D02*
X22675000Y-11725000D01*
X22675000Y-11725000D02*
X20815000Y-11725000D01*
G04 #@! TO.C,R21*
X20815000Y-10725000D02*
X20815000Y-9785000D01*
X20815000Y-9785000D02*
X22675000Y-9785000D01*
X22675000Y-9785000D02*
X22675000Y-10725000D01*
X22675000Y-10725000D02*
X20815000Y-10725000D01*
G04 #@! TO.C,R20*
X20815000Y-9725000D02*
X20815000Y-8785000D01*
X20815000Y-8785000D02*
X22675000Y-8785000D01*
X22675000Y-8785000D02*
X22675000Y-9725000D01*
X22675000Y-9725000D02*
X20815000Y-9725000D01*
G04 #@! TO.C,R19*
X20815000Y-8725000D02*
X20815000Y-7785000D01*
X20815000Y-7785000D02*
X22675000Y-7785000D01*
X22675000Y-7785000D02*
X22675000Y-8725000D01*
X22675000Y-8725000D02*
X20815000Y-8725000D01*
G04 #@! TO.C,R18*
X20815000Y-7725000D02*
X20815000Y-6785000D01*
X20815000Y-6785000D02*
X22675000Y-6785000D01*
X22675000Y-6785000D02*
X22675000Y-7725000D01*
X22675000Y-7725000D02*
X20815000Y-7725000D01*
G04 #@! TO.C,R17*
X20815000Y-6725000D02*
X20815000Y-5785000D01*
X20815000Y-5785000D02*
X22675000Y-5785000D01*
X22675000Y-5785000D02*
X22675000Y-6725000D01*
X22675000Y-6725000D02*
X20815000Y-6725000D01*
G04 #@! TO.C,R16*
X20815000Y-5725000D02*
X20815000Y-4785000D01*
X20815000Y-4785000D02*
X22675000Y-4785000D01*
X22675000Y-4785000D02*
X22675000Y-5725000D01*
X22675000Y-5725000D02*
X20815000Y-5725000D01*
G04 #@! TD*
M02*
