G04 #@! TF.GenerationSoftware,KiCad,Pcbnew,5.0.2+dfsg1-1~bpo9+1*
G04 #@! TF.CreationDate,2019-10-28T12:01:42+01:00*
G04 #@! TF.ProjectId,zglue-jade-adapter,7a676c75-652d-46a6-9164-652d61646170,rev?*
G04 #@! TF.SameCoordinates,Original*
G04 #@! TF.FileFunction,Copper,L3,Inr*
G04 #@! TF.FilePolarity,Positive*
%FSLAX46Y46*%
G04 Gerber Fmt 4.6, Leading zero omitted, Abs format (unit mm)*
G04 Created by KiCad (PCBNEW 5.0.2+dfsg1-1~bpo9+1) date Mon 28 Oct 2019 12:01:42 PM CET*
%MOMM*%
%LPD*%
G01*
G04 APERTURE LIST*
G04 #@! TA.AperFunction,ViaPad*
%ADD10C,0.457000*%
G04 #@! TD*
G04 #@! TA.AperFunction,Conductor*
%ADD11C,0.110000*%
G04 #@! TD*
G04 #@! TA.AperFunction,Conductor*
%ADD12C,0.150000*%
G04 #@! TD*
G04 #@! TA.AperFunction,Conductor*
%ADD13C,0.200000*%
G04 #@! TD*
G04 #@! TA.AperFunction,Conductor*
%ADD14C,0.100000*%
G04 #@! TD*
G04 APERTURE END LIST*
D10*
G04 #@! TO.N,GND*
G04 #@! TO.C,U1*
X13095000Y-11155000D03*
X11895000Y-11155000D03*
X13095000Y-10005000D03*
X11895000Y-10005000D03*
X13095000Y-8855000D03*
X11845000Y-8855000D03*
X14045000Y-11155000D03*
X10945000Y-11155000D03*
X10945000Y-10005000D03*
X14045000Y-10005000D03*
X14045000Y-8855000D03*
X10945000Y-8855000D03*
G04 #@! TD*
G04 #@! TO.N,GND*
X9780755Y-14856245D03*
X22506000Y-17406000D03*
X23115000Y-10883000D03*
X23158000Y-7764000D03*
X19427000Y-8509000D03*
X17456963Y-5256963D03*
X17470000Y-6720000D03*
X1960000Y-10650000D03*
X2050000Y-8240000D03*
X8907225Y-15782715D03*
X4670000Y-12330000D03*
X4886500Y-12990000D03*
X4797104Y-9029614D03*
X3880000Y-11460000D03*
X7540000Y-5270000D03*
X5534679Y-6695321D03*
X4620000Y-11243500D03*
X19520000Y-12120000D03*
X13130000Y-17483500D03*
X11518001Y-17816500D03*
X10670000Y-18550000D03*
X17130000Y-14300000D03*
X19480000Y-11590000D03*
X14778463Y-18148463D03*
X7354722Y-14270000D03*
X7301618Y-15078505D03*
X3730000Y-16320000D03*
G04 #@! TO.N,/CSI_D2_IN_P*
X14329787Y-15919997D03*
X7496500Y-6787000D03*
G04 #@! TO.N,/CSI_D2_IN_N*
X13900573Y-15490783D03*
X8103500Y-6787000D03*
G04 #@! TO.N,/3V3_SYS*
X18270000Y-18650000D03*
X4380000Y-3040000D03*
X1910000Y-14757000D03*
G04 #@! TO.N,/2V5*
X16000000Y-15920000D03*
X19960612Y-9356500D03*
G04 #@! TO.N,/1V8*
X11480000Y-18570000D03*
X15688058Y-17876196D03*
G04 #@! TO.N,/LED3_ISINK*
X13366026Y-12483965D03*
X2436000Y-10339000D03*
G04 #@! TO.N,/LED1_ISINK*
X12170000Y-12393000D03*
X2457000Y-9135000D03*
G04 #@! TO.N,/TMS*
X12761000Y-11860000D03*
X3099500Y-6470000D03*
G04 #@! TO.N,/VSENSE*
X12114000Y-11809000D03*
X15930000Y-18350000D03*
G04 #@! TO.N,/1V8_SYS*
X19670000Y-15250000D03*
X15730000Y-17260000D03*
X2157000Y-13757000D03*
G04 #@! TO.N,/LED2_ISINK*
X12822000Y-12389000D03*
X2443000Y-9766000D03*
G04 #@! TO.N,/EXTCLK_EN*
X10867000Y-11789000D03*
X6480000Y-18700000D03*
G04 #@! TO.N,/TDO*
X13603842Y-11725383D03*
X4026500Y-6450000D03*
G04 #@! TO.N,/3V3*
X19694963Y-16943500D03*
X7276762Y-15992510D03*
X7460000Y-19016500D03*
G04 #@! TO.N,/TDI*
X16341000Y-11837000D03*
X4394504Y-5357327D03*
G04 #@! TO.N,/PC_RDY*
X7896733Y-14906546D03*
X8990000Y-17816500D03*
X5879963Y-18769963D03*
G04 #@! TO.N,/TCK*
X14196000Y-11752000D03*
X1929500Y-6731000D03*
X4469470Y-8610470D03*
G04 #@! TO.N,/EXT_CLK*
X8336500Y-12665000D03*
X4260000Y-18010000D03*
G04 #@! TO.N,/I2C_0_SCL*
X19712000Y-10985000D03*
X1991000Y-11234000D03*
G04 #@! TO.N,/ZIP_EN_L*
X7945000Y-11743000D03*
X4092500Y-13780000D03*
G04 #@! TO.N,/PWR_BTN*
X8028000Y-11175500D03*
X3574500Y-10460000D03*
G04 #@! TO.N,/I2C_0_SDA*
X20656482Y-7472113D03*
X4990501Y-7976499D03*
G04 #@! TO.N,/CSI_D1_IN_N*
X4385393Y-7234607D03*
X15214490Y-15252043D03*
G04 #@! TO.N,/CSI_D1_OUT_N*
X16614607Y-11234607D03*
X19968996Y-8501448D03*
G04 #@! TO.N,/CSI_D1_IN_P*
X4814607Y-6805393D03*
X14858980Y-15681257D03*
G04 #@! TO.N,/CSI_CLK_IN_P*
X5059455Y-5500545D03*
X13004619Y-15659098D03*
G04 #@! TO.N,/CSI_CLK_IN_N*
X4670545Y-5889455D03*
X12575405Y-15229884D03*
G04 #@! TO.N,/CSI_CLK_OUT_N*
X16185393Y-13405393D03*
X19985393Y-6434607D03*
G04 #@! TO.N,/CTRL_SO*
X16300000Y-5630000D03*
X20588000Y-10291000D03*
G04 #@! TO.N,/CTRL_SI*
X17060000Y-8434000D03*
X19700000Y-5290000D03*
G04 #@! TO.N,/CTRL_SCK*
X17204917Y-18184167D03*
X12100000Y-18523510D03*
X20655000Y-10860000D03*
G04 #@! TO.N,/CSI_CLK_OUT_P*
X16614607Y-13834607D03*
X20414607Y-6005393D03*
G04 #@! TO.N,Net-(U1-PadD8)*
X14120000Y-8210000D03*
G04 #@! TO.N,/ULPM_WAKE*
X10870000Y-8225000D03*
X4472000Y-4831000D03*
G04 #@! TO.N,/2V5_SYS*
X17000000Y-19210000D03*
G04 #@! TO.N,/USB_D_N*
X16995480Y-7749122D03*
X5201441Y-14010583D03*
X9236847Y-4308213D03*
G04 #@! TO.N,/USB_D_P*
X4772227Y-13581369D03*
X16569544Y-8157342D03*
X9236847Y-3751213D03*
G04 #@! TO.N,/DBG_TX*
X13673500Y-4820000D03*
X2636510Y-6913000D03*
G04 #@! TO.N,/PROC_SCK*
X20386000Y-5402000D03*
X16003412Y-9199766D03*
G04 #@! TO.N,/PROC_SI*
X20560000Y-4248000D03*
X11232015Y-14996525D03*
G04 #@! TO.N,/PROC_OUT_0*
X10090499Y-3749500D03*
G04 #@! TO.N,/PROC_OUT_1*
X10495000Y-4985000D03*
G04 #@! TO.N,/PROC_OUT_2*
X10800000Y-3820000D03*
G04 #@! TO.N,/USB_DET*
X17087510Y-9473000D03*
X3739000Y-12390000D03*
X5000000Y-18633500D03*
X8240000Y-18200000D03*
G04 #@! TO.N,/CTRL_SS*
X20591000Y-12150000D03*
X17510000Y-18620000D03*
X10363468Y-18984814D03*
G04 #@! TO.N,/PIO1*
X6938000Y-1533500D03*
X4223000Y-1828000D03*
G04 #@! TO.N,/DONE*
X10800000Y-4420000D03*
X16683000Y-4608000D03*
X21195000Y-12316000D03*
G04 #@! TO.N,/DBG_RX*
X14600900Y-4420000D03*
X2008526Y-7681492D03*
G04 #@! TO.N,/PIO2*
X12170000Y-8215000D03*
X5384000Y-1887000D03*
G04 #@! TO.N,/PROC_SO*
X11803500Y-15452000D03*
X20483000Y-4873000D03*
G04 #@! TO.N,/VUSB*
X4561442Y-14069832D03*
X4092500Y-14420000D03*
G04 #@! TO.N,/1V2_SYS*
X2110000Y-12870000D03*
G04 #@! TO.N,/CSI_D1_OUT_P*
X20398210Y-8930662D03*
X16185393Y-10805393D03*
G04 #@! TO.N,/E_PROC_SI*
X23097225Y-5730865D03*
G04 #@! TO.N,/E_PROC_SO*
X22835000Y-6268000D03*
G04 #@! TO.N,/E_PROC_SCK*
X23121000Y-6779000D03*
G04 #@! TO.N,/E_PROC_SS*
X22811000Y-7247000D03*
G04 #@! TO.N,/CTRL_RST_FLASH_SOC_CS*
X8516570Y-8715630D03*
X22847000Y-8226000D03*
G04 #@! TO.N,/E_CTRL_SI*
X23115000Y-8779000D03*
G04 #@! TO.N,/E_CTRL_SO*
X22805000Y-9345000D03*
G04 #@! TO.N,/E_CTRL_SCK*
X23121000Y-9789000D03*
G04 #@! TO.N,/E_CTRL_SS*
X22847291Y-10423263D03*
G04 #@! TO.N,/PIO13*
X13470000Y-8205000D03*
X21079000Y-3028000D03*
G04 #@! TO.N,/PIO14*
X12845000Y-8230000D03*
X15616000Y-2146000D03*
G04 #@! TO.N,/PIO15*
X17538000Y-7384000D03*
X23060000Y-13180000D03*
G04 #@! TO.N,/PIO16*
X16540000Y-9480000D03*
X16810000Y-7230000D03*
X23710000Y-17450000D03*
G04 #@! TO.N,/PIO8*
X12820000Y-7530000D03*
X13170000Y-2354000D03*
G04 #@! TO.N,/PIO6*
X12170000Y-7530000D03*
X11086000Y-1680000D03*
G04 #@! TO.N,/VX*
X9530000Y-16510000D03*
X9400030Y-18600030D03*
G04 #@! TO.N,/AMUX*
X4325318Y-18714682D03*
X8008629Y-16051111D03*
G04 #@! TO.N,/DMUX*
X11501000Y-11799000D03*
X7820000Y-18560000D03*
G04 #@! TO.N,/FLASH_CLK*
X8932000Y-7433500D03*
G04 #@! TO.N,/FLASH_CS*
X8953786Y-9069130D03*
X22158500Y-14160000D03*
X22193000Y-12625000D03*
G04 #@! TO.N,/FLASH_IO0*
X8571782Y-8186500D03*
G04 #@! TO.N,/FLASH_IO1*
X8237231Y-9950200D03*
G04 #@! TO.N,/FLASH_IO2*
X7693646Y-10053945D03*
G04 #@! TO.N,/FLASH_IO3*
X7880255Y-9555745D03*
G04 #@! TO.N,/RAVEN_VCC*
X12848500Y-4820000D03*
G04 #@! TO.N,Net-(U1-PadC3)*
X11470000Y-8220000D03*
G04 #@! TO.N,Net-(U1-PadA9)*
X15353500Y-4300000D03*
G04 #@! TO.N,/BOOST_OUT*
X9040000Y-16960000D03*
X1740000Y-19240000D03*
G04 #@! TO.N,Net-(TP34-Pad1)*
X16515000Y-6243000D03*
X17480000Y-6060000D03*
G04 #@! TD*
D11*
G04 #@! TO.N,/CSI_D2_IN_P*
X8695000Y-9863494D02*
X7695000Y-8863494D01*
X8695000Y-13263494D02*
X8695000Y-9863494D01*
X14329787Y-15919997D02*
X14049066Y-15919997D01*
X13444063Y-16525000D02*
X11956506Y-16525000D01*
X14049066Y-15919997D02*
X13444063Y-16525000D01*
X11956506Y-16525000D02*
X8695000Y-13263494D01*
X7695000Y-8863494D02*
X7695000Y-6985500D01*
X7695000Y-6985500D02*
X7496500Y-6787000D01*
G04 #@! TO.N,/CSI_D2_IN_N*
X13357077Y-16315000D02*
X12043494Y-16315000D01*
X13900573Y-15490783D02*
X13900573Y-15771504D01*
X8905000Y-13176506D02*
X8905000Y-9776506D01*
X8905000Y-9776506D02*
X7905000Y-8776506D01*
X12043494Y-16315000D02*
X8905000Y-13176506D01*
X13900573Y-15771504D02*
X13357077Y-16315000D01*
X7905000Y-6985500D02*
X8103500Y-6787000D01*
X7905000Y-8776506D02*
X7905000Y-6985500D01*
D12*
G04 #@! TO.N,/2V5*
X19960612Y-9479388D02*
X19960612Y-9356500D01*
X16000000Y-15920000D02*
X16070182Y-15920000D01*
X16070182Y-15920000D02*
X18740000Y-13250182D01*
X18740000Y-10700000D02*
X19960612Y-9479388D01*
X18740000Y-13250182D02*
X18740000Y-10700000D01*
G04 #@! TO.N,/1V8*
X11480000Y-18570000D02*
X11880000Y-18970000D01*
X11880000Y-18970000D02*
X14600000Y-18970000D01*
X15688058Y-17881942D02*
X15688058Y-17876196D01*
X14600000Y-18970000D02*
X15688058Y-17881942D01*
D13*
G04 #@! TO.N,/1V8_SYS*
X17740000Y-15250000D02*
X19670000Y-15250000D01*
X15730000Y-17260000D02*
X17740000Y-15250000D01*
X15958499Y-17488499D02*
X15730000Y-17260000D01*
X16370000Y-17900000D02*
X15958499Y-17488499D01*
X16370000Y-18790000D02*
X16370000Y-17900000D01*
X2157000Y-13757000D02*
X2940000Y-14540000D01*
X2940000Y-17900000D02*
X4460000Y-19420000D01*
X2940000Y-14540000D02*
X2940000Y-17900000D01*
X15740000Y-19420000D02*
X16370000Y-18790000D01*
X4460000Y-19420000D02*
X15740000Y-19420000D01*
D12*
G04 #@! TO.N,/3V3*
X7276762Y-18833262D02*
X7460000Y-19016500D01*
X7276762Y-15992510D02*
X7276762Y-18833262D01*
D14*
G04 #@! TO.N,/PC_RDY*
X8362130Y-15695090D02*
X8362130Y-16387870D01*
X7896733Y-15229693D02*
X8362130Y-15695090D01*
X7896733Y-14906546D02*
X7896733Y-15229693D01*
X8362130Y-16387870D02*
X8362130Y-17252130D01*
X8926500Y-17816500D02*
X8990000Y-17816500D01*
X8362130Y-17252130D02*
X8926500Y-17816500D01*
D11*
G04 #@! TO.N,/CSI_D1_IN_N*
X6095000Y-12463494D02*
X10756506Y-17125000D01*
X15214490Y-15575190D02*
X15214490Y-15252043D01*
X15217490Y-15578190D02*
X15214490Y-15575190D01*
X4385393Y-7234607D02*
X5266113Y-7234607D01*
X10756506Y-17125000D02*
X14643494Y-17125000D01*
X6095000Y-8063494D02*
X6095000Y-12463494D01*
X5266113Y-7234607D02*
X6095000Y-8063494D01*
X15217490Y-16551004D02*
X15217490Y-15578190D01*
X14643494Y-17125000D02*
X15217490Y-16551004D01*
G04 #@! TO.N,/CSI_D1_IN_P*
X6305000Y-7972639D02*
X6305000Y-12376506D01*
X13948384Y-16915000D02*
X14858980Y-16004404D01*
X14858980Y-16004404D02*
X14858980Y-15681257D01*
X10843494Y-16915000D02*
X13948384Y-16915000D01*
X5137754Y-6805393D02*
X6305000Y-7972639D01*
X4814607Y-6805393D02*
X5137754Y-6805393D01*
X6305000Y-12376506D02*
X10843494Y-16915000D01*
G04 #@! TO.N,/CSI_CLK_IN_P*
X8843494Y-5915000D02*
X5233493Y-5915000D01*
X9905000Y-6976506D02*
X8843494Y-5915000D01*
X11243494Y-13915000D02*
X9905000Y-12576506D01*
X5059455Y-5740962D02*
X5059455Y-5500545D01*
X12243494Y-13915000D02*
X11243494Y-13915000D01*
X13004619Y-14676125D02*
X12243494Y-13915000D01*
X13004619Y-15659098D02*
X13004619Y-14676125D01*
X5233493Y-5915000D02*
X5059455Y-5740962D01*
X9905000Y-12576506D02*
X9905000Y-6976506D01*
G04 #@! TO.N,/CSI_CLK_IN_N*
X5146507Y-6125000D02*
X4910962Y-5889455D01*
X8756506Y-6125000D02*
X5146507Y-6125000D01*
X9695000Y-7063494D02*
X8756506Y-6125000D01*
X12575405Y-15229884D02*
X12794619Y-15010670D01*
X11156506Y-14125000D02*
X9695000Y-12663494D01*
X12794619Y-15010670D02*
X12794619Y-14763113D01*
X9695000Y-12663494D02*
X9695000Y-7063494D01*
X4910962Y-5889455D02*
X4670545Y-5889455D01*
X12794619Y-14763113D02*
X12156506Y-14125000D01*
X12156506Y-14125000D02*
X11156506Y-14125000D01*
G04 #@! TO.N,/CSI_CLK_OUT_N*
X20214607Y-6434607D02*
X19985393Y-6434607D01*
X20295000Y-6976506D02*
X20295000Y-6515000D01*
X20295000Y-6515000D02*
X20214607Y-6434607D01*
X17956506Y-7515000D02*
X19756506Y-7515000D01*
X19756506Y-7515000D02*
X20295000Y-6976506D01*
X16185393Y-13405393D02*
X16466114Y-13405393D01*
X16466114Y-13405393D02*
X17495000Y-12376507D01*
X17495000Y-12376507D02*
X17495000Y-7976506D01*
X17495000Y-7976506D02*
X17956506Y-7515000D01*
D14*
G04 #@! TO.N,/CTRL_SO*
X20911147Y-10291000D02*
X21377000Y-9825147D01*
X20588000Y-10291000D02*
X20911147Y-10291000D01*
X21377000Y-9825147D02*
X21377000Y-4470000D01*
X21377000Y-4470000D02*
X21127000Y-4220000D01*
X21127000Y-4220000D02*
X21085000Y-4178000D01*
X16380000Y-5630000D02*
X16300000Y-5630000D01*
X18173000Y-3837000D02*
X16380000Y-5630000D01*
X20744000Y-3837000D02*
X18173000Y-3837000D01*
X21127000Y-4220000D02*
X20744000Y-3837000D01*
G04 #@! TO.N,/CTRL_SCK*
X17230000Y-18220000D02*
X17204917Y-18194917D01*
X17204917Y-18194917D02*
X17204917Y-18184167D01*
X20145501Y-15304499D02*
X17204917Y-18184167D01*
X20145501Y-12150000D02*
X20145501Y-11934499D01*
X20145501Y-12150000D02*
X20145501Y-15304499D01*
X20145501Y-11934499D02*
X20690000Y-11390000D01*
X20690000Y-11390000D02*
X20690000Y-10895000D01*
X20690000Y-10895000D02*
X20655000Y-10860000D01*
D11*
G04 #@! TO.N,/CSI_CLK_OUT_P*
X17705000Y-12463493D02*
X17705000Y-8063494D01*
X16614607Y-13553886D02*
X17705000Y-12463493D01*
X16614607Y-13834607D02*
X16614607Y-13553886D01*
X17705000Y-8063494D02*
X18043494Y-7725000D01*
X18043494Y-7725000D02*
X19843494Y-7725000D01*
X19843494Y-7725000D02*
X20505000Y-7063494D01*
X20414607Y-6286114D02*
X20414607Y-6005393D01*
X20505000Y-6376507D02*
X20414607Y-6286114D01*
X20505000Y-7063494D02*
X20505000Y-6376507D01*
D14*
G04 #@! TO.N,/ULPM_WAKE*
X10870000Y-8225000D02*
X10870000Y-7051000D01*
X10870000Y-7051000D02*
X8650000Y-4831000D01*
X8650000Y-4831000D02*
X4472000Y-4831000D01*
D11*
G04 #@! TO.N,/USB_D_N*
X3668000Y-4988494D02*
X4521781Y-4134713D01*
X4521781Y-4134713D02*
X9063347Y-4134713D01*
X5455000Y-13476303D02*
X5455000Y-10194506D01*
X9063347Y-4134713D02*
X9236847Y-4308213D01*
X5201441Y-14010583D02*
X5201441Y-13729862D01*
X5201441Y-13729862D02*
X5455000Y-13476303D01*
X5455000Y-10194506D02*
X3668000Y-8407506D01*
X3668000Y-8407506D02*
X3668000Y-4988494D01*
G04 #@! TO.N,/USB_D_P*
X4434793Y-3924713D02*
X9063347Y-3924713D01*
X3458000Y-4901506D02*
X4434793Y-3924713D01*
X3458000Y-8494494D02*
X3458000Y-4901506D01*
X9063347Y-3924713D02*
X9236847Y-3751213D01*
X5245000Y-10281494D02*
X3458000Y-8494494D01*
X5245000Y-13389317D02*
X5245000Y-10281494D01*
X4772227Y-13581369D02*
X5052948Y-13581369D01*
X5052948Y-13581369D02*
X5245000Y-13389317D01*
D14*
G04 #@! TO.N,/USB_DET*
X17087510Y-9473000D02*
X17087510Y-9796147D01*
X15568000Y-16859000D02*
X14257000Y-18170000D01*
X15568000Y-10899604D02*
X15568000Y-16859000D01*
X17087510Y-9796147D02*
X16571657Y-10312000D01*
X16571657Y-10312000D02*
X16155604Y-10312000D01*
X16155604Y-10312000D02*
X15568000Y-10899604D01*
X8563147Y-18200000D02*
X8240000Y-18200000D01*
X8593147Y-18170000D02*
X8563147Y-18200000D01*
X14257000Y-18170000D02*
X8593147Y-18170000D01*
X5000000Y-16540000D02*
X5000000Y-18633500D01*
X3590000Y-15130000D02*
X5000000Y-16540000D01*
X3590000Y-12539000D02*
X3590000Y-15130000D01*
X3739000Y-12390000D02*
X3590000Y-12539000D01*
G04 #@! TO.N,/CTRL_SS*
X20362501Y-12378499D02*
X20362501Y-15767499D01*
X20591000Y-12150000D02*
X20362501Y-12378499D01*
X20362501Y-15767499D02*
X17510000Y-18620000D01*
G04 #@! TO.N,/PIO1*
X6709501Y-1305001D02*
X5308999Y-1305001D01*
X6938000Y-1533500D02*
X6709501Y-1305001D01*
X5308999Y-1305001D02*
X4786000Y-1828000D01*
X4786000Y-1828000D02*
X4223000Y-1828000D01*
G04 #@! TO.N,/DONE*
X21409000Y-12102000D02*
X21195000Y-12316000D01*
X22584000Y-12102000D02*
X21409000Y-12102000D01*
X24343000Y-10343000D02*
X22584000Y-12102000D01*
X16683000Y-4608000D02*
X17760000Y-3531000D01*
X17760000Y-3531000D02*
X22871000Y-3531000D01*
X24343000Y-5003000D02*
X24343000Y-10343000D01*
X22871000Y-3531000D02*
X24343000Y-5003000D01*
G04 #@! TO.N,/PIO2*
X12170000Y-8215000D02*
X11500000Y-7545000D01*
X11500000Y-7545000D02*
X11500000Y-3234000D01*
X11500000Y-3234000D02*
X10153000Y-1887000D01*
X10153000Y-1887000D02*
X5384000Y-1887000D01*
G04 #@! TO.N,/PIO13*
X13470000Y-8205000D02*
X14683000Y-6992000D01*
X14683000Y-6992000D02*
X14683000Y-5951000D01*
X14683000Y-5951000D02*
X17606000Y-3028000D01*
X17606000Y-3028000D02*
X21079000Y-3028000D01*
G04 #@! TO.N,/PIO14*
X12845000Y-8230000D02*
X14103000Y-6972000D01*
X14103000Y-6972000D02*
X14103000Y-3659000D01*
X14103000Y-3659000D02*
X15616000Y-2146000D01*
G04 #@! TO.N,/PIO16*
X16540000Y-9480000D02*
X16540000Y-8660000D01*
X16216043Y-8336043D02*
X16216043Y-7823957D01*
X16540000Y-8660000D02*
X16216043Y-8336043D01*
X16216043Y-7823957D02*
X16810000Y-7230000D01*
G04 #@! TO.N,/PIO8*
X12494999Y-3029001D02*
X13170000Y-2354000D01*
X12494999Y-7204999D02*
X12494999Y-3029001D01*
X12820000Y-7530000D02*
X12494999Y-7204999D01*
G04 #@! TO.N,/PIO6*
X11941501Y-7301501D02*
X11941501Y-5190501D01*
X12170000Y-7530000D02*
X11941501Y-7301501D01*
X11941501Y-2608501D02*
X11086000Y-1753000D01*
X11941501Y-5190501D02*
X11941501Y-2608501D01*
X11086000Y-1753000D02*
X11086000Y-1680000D01*
G04 #@! TD*
M02*
