G04 #@! TF.GenerationSoftware,KiCad,Pcbnew,5.0.2+dfsg1-1~bpo9+1*
G04 #@! TF.CreationDate,2019-11-05T12:23:44+01:00*
G04 #@! TF.ProjectId,zglue-jade-adapter,7a676c75-652d-46a6-9164-652d61646170,rev?*
G04 #@! TF.SameCoordinates,Original*
G04 #@! TF.FileFunction,Copper,L4,Inr*
G04 #@! TF.FilePolarity,Positive*
%FSLAX46Y46*%
G04 Gerber Fmt 4.6, Leading zero omitted, Abs format (unit mm)*
G04 Created by KiCad (PCBNEW 5.0.2+dfsg1-1~bpo9+1) date Tue 05 Nov 2019 12:23:44 PM CET*
%MOMM*%
%LPD*%
G01*
G04 APERTURE LIST*
G04 #@! TA.AperFunction,ViaPad*
%ADD10C,0.457000*%
G04 #@! TD*
G04 #@! TA.AperFunction,Conductor*
%ADD11C,0.200000*%
G04 #@! TD*
G04 #@! TA.AperFunction,Conductor*
%ADD12C,0.150000*%
G04 #@! TD*
G04 #@! TA.AperFunction,Conductor*
%ADD13C,0.100000*%
G04 #@! TD*
G04 #@! TA.AperFunction,Conductor*
%ADD14C,0.110000*%
G04 #@! TD*
G04 APERTURE END LIST*
D10*
G04 #@! TO.N,GND*
G04 #@! TO.C,U1*
X13100000Y-11150000D03*
X11900000Y-11150000D03*
X13100000Y-10000000D03*
X11900000Y-10000000D03*
X13100000Y-8850000D03*
X11850000Y-8850000D03*
X14050000Y-11150000D03*
X10950000Y-11150000D03*
X10950000Y-10000000D03*
X14050000Y-10000000D03*
X14050000Y-8850000D03*
X10950000Y-8850000D03*
G04 #@! TD*
G04 #@! TO.N,GND*
X9785755Y-14851245D03*
X22511000Y-17401000D03*
X19432000Y-8504000D03*
X1965000Y-10645000D03*
X2055000Y-8235000D03*
X8912225Y-15777715D03*
X4675000Y-12325000D03*
X4891500Y-12985000D03*
X4802104Y-9024614D03*
X3885000Y-11455000D03*
X7545000Y-5265000D03*
X5539679Y-6690321D03*
X4625000Y-11238500D03*
X13135000Y-17478500D03*
X11523001Y-17811500D03*
X7359722Y-14265000D03*
X7306618Y-15073505D03*
X3735000Y-16315000D03*
X17212360Y-14742360D03*
X20005000Y-6995000D03*
X19395245Y-11305245D03*
X19146499Y-19583501D03*
X10675000Y-18548510D03*
X23184563Y-7692502D03*
X22960000Y-11042569D03*
X17002816Y-6307659D03*
G04 #@! TO.N,/CSI_D2_IN_P*
X14405000Y-15990000D03*
X7501500Y-6782000D03*
G04 #@! TO.N,/CSI_D2_IN_N*
X13905573Y-15485783D03*
X8108500Y-6782000D03*
G04 #@! TO.N,/3V3_SYS*
X18275000Y-18645000D03*
X4385000Y-3035000D03*
X565000Y-17195000D03*
X12355000Y-1775000D03*
X14203500Y-11745000D03*
X19700318Y-12489682D03*
X20608510Y-16938500D03*
G04 #@! TO.N,/2V5*
X19965612Y-9351500D03*
X15967530Y-15952530D03*
G04 #@! TO.N,/1V8*
X11485000Y-18565000D03*
X15693058Y-17871196D03*
G04 #@! TO.N,/LED3_ISINK*
X13371026Y-12478965D03*
X2441000Y-10334000D03*
G04 #@! TO.N,/LED1_ISINK*
X12175000Y-12388000D03*
X2462000Y-9130000D03*
G04 #@! TO.N,/TMS*
X12766000Y-11855000D03*
X3104500Y-6465000D03*
G04 #@! TO.N,/VSENSE*
X12119000Y-11804000D03*
X15935000Y-18345000D03*
G04 #@! TO.N,/1V8_SYS*
X19675000Y-15245000D03*
X2162000Y-13752000D03*
X15737470Y-17257470D03*
X20815000Y-15685000D03*
X14943233Y-2116399D03*
G04 #@! TO.N,/LED2_ISINK*
X12827000Y-12384000D03*
X2448000Y-9761000D03*
G04 #@! TO.N,/EXTCLK_EN*
X10872000Y-11784000D03*
X6485000Y-18695000D03*
G04 #@! TO.N,/TDO*
X13608842Y-11720383D03*
X4031500Y-6445000D03*
G04 #@! TO.N,/3V3*
X19699963Y-16938500D03*
X7281762Y-15987510D03*
X7465000Y-18991490D03*
G04 #@! TO.N,/TDI*
X4399504Y-5352327D03*
X19725000Y-11845000D03*
G04 #@! TO.N,/PC_RDY*
X7901733Y-14901546D03*
X8995000Y-17811500D03*
X5884963Y-18764963D03*
G04 #@! TO.N,/TCK*
X1934500Y-6726000D03*
X14125000Y-8195000D03*
X5550355Y-8678500D03*
G04 #@! TO.N,/EXT_CLK*
X8341500Y-12660000D03*
X4265000Y-18005000D03*
G04 #@! TO.N,/I2C_0_SCL*
X19630000Y-10790000D03*
X1996000Y-11229000D03*
G04 #@! TO.N,/ZIP_EN_L*
X7950000Y-11738000D03*
X4097500Y-13775000D03*
G04 #@! TO.N,/PWR_BTN*
X8033000Y-11170500D03*
X3579500Y-10455000D03*
G04 #@! TO.N,/I2C_0_SDA*
X4995501Y-7971499D03*
X17588206Y-9544113D03*
G04 #@! TO.N,/CSI_D1_IN_N*
X4390393Y-7229607D03*
X15219500Y-16021314D03*
G04 #@! TO.N,/CSI_D1_IN_P*
X4819607Y-6800393D03*
X15020000Y-15315000D03*
G04 #@! TO.N,/CSI_CLK_IN_P*
X5064455Y-5495545D03*
X13080000Y-15815000D03*
G04 #@! TO.N,/CSI_CLK_IN_N*
X4675545Y-5884455D03*
X12580405Y-15224884D03*
G04 #@! TO.N,/CSI_CLK_OUT_N*
X17068822Y-13971178D03*
X20240000Y-4650000D03*
G04 #@! TO.N,/CTRL_SO*
X16305000Y-5625000D03*
X20555000Y-10435000D03*
G04 #@! TO.N,/CTRL_SI*
X17065000Y-8429000D03*
X19700000Y-3740000D03*
G04 #@! TO.N,/CTRL_SCK*
X15916314Y-9136860D03*
X20608500Y-11115000D03*
G04 #@! TO.N,/CSI_CLK_OUT_P*
X19706878Y-4499548D03*
X16674970Y-14365030D03*
G04 #@! TO.N,/ULPM_WAKE*
X10875000Y-8220000D03*
X4477000Y-4826000D03*
G04 #@! TO.N,/PIO3*
X8160000Y-2450000D03*
X8760000Y-1270000D03*
G04 #@! TO.N,/2V5_SYS*
X17005000Y-19205000D03*
G04 #@! TO.N,/USB_D_N*
X17000480Y-7744122D03*
X5206441Y-14005583D03*
X9241847Y-4303213D03*
G04 #@! TO.N,/USB_D_P*
X4777227Y-13576369D03*
X16574544Y-8152342D03*
X9241847Y-3746213D03*
G04 #@! TO.N,/DBG_TX*
X13678500Y-4815000D03*
X2641510Y-6908000D03*
G04 #@! TO.N,/PROC_SCK*
X8269249Y-5265001D03*
X8725000Y-2755000D03*
X18985000Y-2665000D03*
X20448597Y-5312324D03*
G04 #@! TO.N,/PROC_SI*
X13475000Y-8200000D03*
X16275000Y-2085000D03*
X20150000Y-4090000D03*
G04 #@! TO.N,/PROC_OUT_0*
X10095499Y-3744500D03*
G04 #@! TO.N,/PROC_OUT_1*
X10500000Y-4980000D03*
G04 #@! TO.N,/PROC_OUT_2*
X10805000Y-3815000D03*
G04 #@! TO.N,/USB_DET*
X3744000Y-12385000D03*
X5005000Y-18628500D03*
X8245000Y-18195000D03*
X16881205Y-9418855D03*
G04 #@! TO.N,/CTRL_SS*
X17563554Y-8953554D03*
X20700037Y-11770037D03*
G04 #@! TO.N,/DONE*
X10805000Y-4415000D03*
X21200000Y-12311000D03*
X16356465Y-4303595D03*
G04 #@! TO.N,/DBG_RX*
X14605900Y-4415000D03*
X2013526Y-7676492D03*
G04 #@! TO.N,/PIO2*
X12175000Y-8210000D03*
X9224976Y-1528501D03*
G04 #@! TO.N,/PROC_SS*
X20535000Y-6875000D03*
X9705000Y-2789500D03*
X17699485Y-4775928D03*
X18065000Y-2711500D03*
G04 #@! TO.N,/PROC_RST*
X7855000Y-4488213D03*
X9375000Y-4915000D03*
G04 #@! TO.N,/PROC_SO*
X12850000Y-8225000D03*
X15648493Y-1911568D03*
X20642362Y-4291507D03*
G04 #@! TO.N,/VUSB*
X4566442Y-14064832D03*
X4097500Y-14415000D03*
G04 #@! TO.N,/1V2_SYS*
X2115000Y-12865000D03*
G04 #@! TO.N,/E_PROC_RST*
X3946159Y-3521500D03*
G04 #@! TO.N,/E_PROC_SI*
X23102225Y-5725865D03*
G04 #@! TO.N,/E_PROC_SO*
X22840000Y-6263000D03*
G04 #@! TO.N,/E_PROC_SCK*
X23126000Y-6774000D03*
G04 #@! TO.N,/E_PROC_SS*
X22816000Y-7242000D03*
G04 #@! TO.N,/CTRL_RST_FLASH_SOC_CS*
X8521570Y-8710630D03*
X23123521Y-8221000D03*
G04 #@! TO.N,/E_CTRL_SI*
X23123521Y-8774000D03*
G04 #@! TO.N,/E_CTRL_SO*
X23123521Y-9340000D03*
G04 #@! TO.N,/E_CTRL_SCK*
X23154100Y-9871132D03*
G04 #@! TO.N,/E_CTRL_SS*
X23123521Y-10430000D03*
G04 #@! TO.N,/PIO8*
X12825000Y-7525000D03*
X12074290Y-693512D03*
G04 #@! TO.N,/PIO7*
X13355000Y-3945000D03*
X12555000Y-2315000D03*
G04 #@! TO.N,/PIO6*
X12175000Y-7525000D03*
X8970000Y-610000D03*
G04 #@! TO.N,/VX*
X9535000Y-16505000D03*
X9405030Y-18595030D03*
G04 #@! TO.N,/AMUX*
X4330318Y-18709682D03*
X8013629Y-16046111D03*
G04 #@! TO.N,/DMUX*
X11506000Y-11794000D03*
X7825000Y-18555000D03*
G04 #@! TO.N,/FLASH_CLK*
X8937000Y-7428500D03*
G04 #@! TO.N,/FLASH_CS*
X8958786Y-9064130D03*
X22163500Y-14155000D03*
X22198000Y-12620000D03*
G04 #@! TO.N,/FLASH_IO0*
X8576782Y-8181500D03*
G04 #@! TO.N,/FLASH_IO1*
X8242231Y-9945200D03*
G04 #@! TO.N,/FLASH_IO2*
X7698646Y-10048945D03*
G04 #@! TO.N,/FLASH_IO3*
X7885255Y-9550745D03*
G04 #@! TO.N,/BOOST_OUT*
X9045000Y-16955000D03*
X1745000Y-19235000D03*
G04 #@! TO.N,Net-(TP34-Pad1)*
X15905000Y-3125000D03*
X22755000Y-1815000D03*
X16250000Y-6210000D03*
G04 #@! TO.N,Net-(TP35-Pad1)*
X15358500Y-4295000D03*
X20530000Y-2090000D03*
G04 #@! TO.N,/C_CSI_D1_OUT_N*
X17545000Y-11955000D03*
X19475000Y-6945000D03*
X20512414Y-8423473D03*
G04 #@! TO.N,/C_CSI_D1_OUT_P*
X17625000Y-10965000D03*
X17525000Y-6875000D03*
X20118554Y-8817333D03*
G04 #@! TO.N,/CSI_INT*
X11288648Y-14916634D03*
X3079500Y-8214122D03*
X9758530Y-18165001D03*
G04 #@! TO.N,/PROC_INT*
X17364218Y-18303646D03*
X21075000Y-16335000D03*
G04 #@! TO.N,/PIO14*
X16815000Y-7225000D03*
X16334908Y-9465213D03*
X16414748Y-1349576D03*
G04 #@! TO.N,/PIO13*
X17630000Y-8370000D03*
X13746367Y-1574040D03*
X21235000Y-14695000D03*
G04 #@! TO.N,/PIO0*
X11475000Y-8215000D03*
X790000Y-1090000D03*
G04 #@! TO.N,/RDL_LP_CSI_D1_OUT_P*
X17175037Y-4355037D03*
X11808500Y-15447000D03*
G04 #@! TO.N,/RDL_LP_CSI_D1_OUT_N*
X17505000Y-3845000D03*
X12285000Y-18586500D03*
G04 #@! TO.N,/PROG_LP_CSI_D1_OUT_N*
X17538370Y-5305342D03*
X12300001Y-4120000D03*
G04 #@! TO.N,/PROG_LP_CSI_D1_OUT_P*
X17168500Y-4900000D03*
X10770000Y-1420000D03*
G04 #@! TD*
D11*
G04 #@! TO.N,/3V3_SYS*
X1065000Y-16695000D02*
X565000Y-17195000D01*
X1065000Y-13645000D02*
X1065000Y-16695000D01*
X1065000Y-13645000D02*
X1065000Y-13902000D01*
X1065000Y-4595000D02*
X1065000Y-13645000D01*
X2625000Y-3035000D02*
X1065000Y-4595000D01*
X4385000Y-3035000D02*
X2625000Y-3035000D01*
D12*
X12345000Y-1825000D02*
X12475000Y-1825000D01*
X12145000Y-2025000D02*
X12345000Y-1825000D01*
X4385000Y-3035000D02*
X5395000Y-2025000D01*
X5395000Y-2025000D02*
X12145000Y-2025000D01*
D13*
X15078511Y-12620011D02*
X18174344Y-12620011D01*
X18174344Y-12620011D02*
X18304673Y-12489682D01*
X14203500Y-11745000D02*
X15078511Y-12620011D01*
X19377171Y-12489682D02*
X19700318Y-12489682D01*
X18304673Y-12489682D02*
X19377171Y-12489682D01*
G04 #@! TO.N,/LED3_ISINK*
X2859000Y-11001000D02*
X2859000Y-10752000D01*
X2859000Y-11001000D02*
X2859000Y-10936000D01*
X2859000Y-10752000D02*
X2441000Y-10334000D01*
X2859000Y-14488002D02*
X2859000Y-11001000D01*
X4180018Y-15809020D02*
X2859000Y-14488002D01*
X11215501Y-13036499D02*
X11215501Y-13036505D01*
X12852981Y-12997010D02*
X11254996Y-12997010D01*
X11254996Y-12997010D02*
X11215501Y-13036499D01*
X5506020Y-15809020D02*
X4180018Y-15809020D01*
X13371026Y-12478965D02*
X12852981Y-12997010D01*
X11215501Y-13036505D02*
X10196000Y-14056006D01*
X6113000Y-16416000D02*
X5506020Y-15809020D01*
X10196000Y-14056006D02*
X10196000Y-15006182D01*
X10196000Y-15006182D02*
X8786182Y-16416000D01*
X8786182Y-16416000D02*
X6113000Y-16416000D01*
G04 #@! TO.N,/LED1_ISINK*
X12175000Y-12388000D02*
X11369000Y-12388000D01*
X3226000Y-14360000D02*
X3226000Y-10163000D01*
X11369000Y-12388000D02*
X8298000Y-15459000D01*
X8298000Y-15459000D02*
X4325000Y-15459000D01*
X4325000Y-15459000D02*
X3226000Y-14360000D01*
X3226000Y-10163000D02*
X3226000Y-9879000D01*
X2477000Y-9130000D02*
X2462000Y-9130000D01*
X3226000Y-9879000D02*
X2477000Y-9130000D01*
G04 #@! TO.N,/TMS*
X12766000Y-11492818D02*
X11960182Y-10687000D01*
X12766000Y-11855000D02*
X12766000Y-11492818D01*
X11960182Y-10687000D02*
X4435000Y-10687000D01*
X4435000Y-10687000D02*
X3433000Y-9685000D01*
X3433000Y-8039000D02*
X3433000Y-7791000D01*
X3433000Y-9685000D02*
X3433000Y-8039000D01*
X3433000Y-7791000D02*
X3433000Y-7343000D01*
X3433000Y-7343000D02*
X3433000Y-6733000D01*
X3165000Y-6465000D02*
X3104500Y-6465000D01*
X3433000Y-6733000D02*
X3165000Y-6465000D01*
D12*
G04 #@! TO.N,/1V8_SYS*
X19675000Y-15245000D02*
X20375000Y-15245000D01*
X20375000Y-15245000D02*
X20815000Y-15685000D01*
D13*
G04 #@! TO.N,/LED2_ISINK*
X3034000Y-10257000D02*
X2538000Y-9761000D01*
X3034000Y-14415501D02*
X3034000Y-10257000D01*
X12827000Y-12384000D02*
X12389000Y-12822000D01*
X2538000Y-9761000D02*
X2448000Y-9761000D01*
X12389000Y-12822000D02*
X11182500Y-12822000D01*
X11182500Y-12822000D02*
X8370491Y-15634010D01*
X4252509Y-15634010D02*
X3034000Y-14415501D01*
X8370491Y-15634010D02*
X4252509Y-15634010D01*
G04 #@! TO.N,/TDO*
X13608842Y-11135660D02*
X12962182Y-10489000D01*
X13608842Y-11720383D02*
X13608842Y-11135660D01*
X12962182Y-10489000D02*
X5056000Y-10489000D01*
X5056000Y-10489000D02*
X4500000Y-10489000D01*
X4500000Y-10489000D02*
X3608010Y-9597010D01*
X3608010Y-9597010D02*
X3608010Y-7930000D01*
X3608010Y-7930000D02*
X3608010Y-7646990D01*
X3951020Y-6445000D02*
X4031500Y-6445000D01*
X3608010Y-7095000D02*
X3608010Y-6868490D01*
X3608010Y-7646990D02*
X3608010Y-7095000D01*
X3608010Y-6868490D02*
X4031500Y-6445000D01*
D12*
G04 #@! TO.N,/3V3*
X7693499Y-19219989D02*
X7465000Y-18991490D01*
X8057011Y-19583501D02*
X7693499Y-19219989D01*
X19699963Y-18030037D02*
X18146499Y-19583501D01*
X19699963Y-16938500D02*
X19699963Y-18030037D01*
X18146499Y-19583501D02*
X8057011Y-19583501D01*
D13*
G04 #@! TO.N,/TDI*
X4305000Y-5446831D02*
X4399504Y-5352327D01*
X19130000Y-11740000D02*
X18806853Y-11740000D01*
X18806853Y-11740000D02*
X19295000Y-11740000D01*
X19295000Y-11740000D02*
X19349068Y-11740000D01*
X4171005Y-5901005D02*
X4171005Y-5580826D01*
X3971010Y-7108990D02*
X4415000Y-6665000D01*
X3971010Y-7611010D02*
X3971010Y-7108990D01*
X4171005Y-5580826D02*
X4399504Y-5352327D01*
X5405000Y-9045000D02*
X3971010Y-7611010D01*
X4415000Y-6665000D02*
X4415000Y-6145000D01*
X14234000Y-9454000D02*
X8559192Y-9454000D01*
X8150192Y-9045000D02*
X5405000Y-9045000D01*
X18101853Y-12445000D02*
X16615000Y-12445000D01*
X4415000Y-6145000D02*
X4171005Y-5901005D01*
X8559192Y-9454000D02*
X8150192Y-9045000D01*
X16051501Y-11271501D02*
X14234000Y-9454000D01*
X16615000Y-12445000D02*
X16051501Y-11881501D01*
X18806853Y-11740000D02*
X18101853Y-12445000D01*
X16051501Y-11881501D02*
X16051501Y-11271501D01*
X19647001Y-11735000D02*
X19717001Y-11805000D01*
X19300000Y-11735000D02*
X19647001Y-11735000D01*
X19295000Y-11740000D02*
X19300000Y-11735000D01*
G04 #@! TO.N,/PC_RDY*
X8995000Y-17811500D02*
X6778500Y-17811500D01*
X5884963Y-18705037D02*
X5884963Y-18764963D01*
X6778500Y-17811500D02*
X5884963Y-18705037D01*
G04 #@! TO.N,/TCK*
X13696499Y-8623501D02*
X13896501Y-8423499D01*
X13269681Y-9203501D02*
X13696499Y-8776683D01*
X10323501Y-9203501D02*
X13269681Y-9203501D01*
X13696499Y-8776683D02*
X13696499Y-8623501D01*
X8915000Y-7795000D02*
X10323501Y-9203501D01*
X5550355Y-8678500D02*
X5556855Y-8685000D01*
X5556855Y-8685000D02*
X7445000Y-8685000D01*
X13896501Y-8423499D02*
X14125000Y-8195000D01*
X8335000Y-7795000D02*
X8915000Y-7795000D01*
X7445000Y-8685000D02*
X8335000Y-7795000D01*
G04 #@! TO.N,/I2C_0_SCL*
X2612000Y-11845000D02*
X1996000Y-11229000D01*
X2612000Y-16152000D02*
X2612000Y-11845000D01*
X3273000Y-16813000D02*
X2612000Y-16152000D01*
X8636670Y-16813000D02*
X3273000Y-16813000D01*
X12244670Y-13205000D02*
X8636670Y-16813000D01*
X19630000Y-10790000D02*
X20105000Y-11265000D01*
X20105000Y-11265000D02*
X20105000Y-12855000D01*
X20105000Y-12855000D02*
X19755000Y-13205000D01*
X19755000Y-13205000D02*
X12244670Y-13205000D01*
G04 #@! TO.N,/ZIP_EN_L*
X4097501Y-12379317D02*
X4097501Y-13672499D01*
X4738818Y-11738000D02*
X4097501Y-12379317D01*
X7950000Y-11738000D02*
X4738818Y-11738000D01*
X4097500Y-13672500D02*
X4097500Y-13775000D01*
X4097501Y-13672499D02*
X4097500Y-13672500D01*
G04 #@! TO.N,/PWR_BTN*
X4009500Y-10885000D02*
X3579500Y-10455000D01*
X7747500Y-10885000D02*
X4009500Y-10885000D01*
X8033000Y-11170500D02*
X7747500Y-10885000D01*
G04 #@! TO.N,/I2C_0_SDA*
X14535000Y-7745000D02*
X14665000Y-7875000D01*
X16789093Y-8745000D02*
X17588206Y-9544113D01*
X15535000Y-8745000D02*
X16789093Y-8745000D01*
X14665000Y-7875000D02*
X15535000Y-8745000D01*
X13955000Y-7165000D02*
X14665000Y-7875000D01*
X9376682Y-7165000D02*
X13955000Y-7165000D01*
X9375841Y-7165841D02*
X9376682Y-7165000D01*
X9243009Y-7033009D02*
X9375841Y-7165841D01*
X4996000Y-7939000D02*
X7474682Y-7939000D01*
X7474682Y-7939000D02*
X8380673Y-7033009D01*
X8380673Y-7033009D02*
X9243009Y-7033009D01*
G04 #@! TO.N,/CTRL_SCK*
X21605000Y-7965000D02*
X22235000Y-8595000D01*
X19282500Y-7965000D02*
X21605000Y-7965000D01*
X18945000Y-8302500D02*
X19282500Y-7965000D01*
X17540501Y-10115000D02*
X18945000Y-8710501D01*
X16461513Y-10115000D02*
X17540501Y-10115000D01*
X18945000Y-8710501D02*
X18945000Y-8302500D01*
X15916314Y-9136860D02*
X15916314Y-9569801D01*
X15916314Y-9569801D02*
X16461513Y-10115000D01*
X22235000Y-10145000D02*
X22235000Y-10285000D01*
X22235000Y-8595000D02*
X22235000Y-10145000D01*
X22235000Y-10345000D02*
X22235000Y-10145000D01*
X20608500Y-11115000D02*
X20931647Y-11115000D01*
X20931647Y-11115000D02*
X21171647Y-10875000D01*
X21171647Y-10875000D02*
X21705000Y-10875000D01*
X21705000Y-10875000D02*
X22235000Y-10345000D01*
D14*
G04 #@! TO.N,/USB_D_N*
X17000480Y-7744122D02*
X16719759Y-7744122D01*
X8981832Y-4303213D02*
X8773000Y-4512045D01*
X9241847Y-4303213D02*
X8981832Y-4303213D01*
X8773000Y-4512045D02*
X8773000Y-4972506D01*
X8773000Y-4972506D02*
X10443494Y-6643000D01*
X10443494Y-6643000D02*
X15621915Y-6643000D01*
X15621915Y-6643000D02*
X16723037Y-7744122D01*
X16723037Y-7744122D02*
X17000480Y-7744122D01*
G04 #@! TO.N,/USB_D_P*
X16571266Y-8149064D02*
X16574544Y-8152342D01*
X8563000Y-5059494D02*
X8563000Y-4425060D01*
X16025802Y-7343873D02*
X15534929Y-6853000D01*
X16041159Y-7363131D02*
X16025802Y-7343873D01*
X16057327Y-7433970D02*
X16057327Y-7409338D01*
X16051847Y-7457985D02*
X16057327Y-7433970D01*
X16025802Y-7499436D02*
X16041158Y-7480177D01*
X15781335Y-7759309D02*
X15792022Y-7737115D01*
X15792023Y-7854163D02*
X15781334Y-7831969D01*
X15534929Y-6853000D02*
X10356506Y-6853000D01*
X15775854Y-7807956D02*
X15775854Y-7783324D01*
X8563000Y-4425060D02*
X9241847Y-3746213D01*
X15775854Y-7783324D02*
X15781335Y-7759309D01*
X16271464Y-7623474D02*
X16246832Y-7623474D01*
X16574544Y-8152342D02*
X16574544Y-7892615D01*
X16041158Y-7480177D02*
X16051847Y-7457985D01*
X15792022Y-7737115D02*
X15807380Y-7717857D01*
X16222817Y-7628955D02*
X16200623Y-7639642D01*
X15807380Y-7873421D02*
X15792023Y-7854163D01*
X15807380Y-7717857D02*
X16025802Y-7499436D01*
X16181365Y-7655000D02*
X15962944Y-7873422D01*
X16574544Y-7892615D02*
X16336929Y-7655000D01*
X16336929Y-7655000D02*
X16317671Y-7639643D01*
X16317671Y-7639643D02*
X16295477Y-7628954D01*
X15962944Y-7873422D02*
X15943685Y-7888778D01*
X15943685Y-7888778D02*
X15921493Y-7899467D01*
X15921493Y-7899467D02*
X15897478Y-7904947D01*
X16246832Y-7623474D02*
X16222817Y-7628955D01*
X15897478Y-7904947D02*
X15872846Y-7904947D01*
X15872846Y-7904947D02*
X15848831Y-7899466D01*
X16057327Y-7409338D02*
X16051846Y-7385323D01*
X15848831Y-7899466D02*
X15826639Y-7888779D01*
X16051846Y-7385323D02*
X16041159Y-7363131D01*
X16295477Y-7628954D02*
X16271464Y-7623474D01*
X15826639Y-7888779D02*
X15807380Y-7873421D01*
X10356506Y-6853000D02*
X8563000Y-5059494D01*
X16200623Y-7639642D02*
X16181365Y-7655000D01*
X15781334Y-7831969D02*
X15775854Y-7807956D01*
D13*
G04 #@! TO.N,/DBG_TX*
X2565000Y-6831490D02*
X2641510Y-6908000D01*
X13678500Y-4815000D02*
X12254500Y-3391000D01*
X12254500Y-3391000D02*
X5388818Y-3391000D01*
X5388818Y-3391000D02*
X2565000Y-6214818D01*
X2565000Y-6214818D02*
X2565000Y-6831490D01*
G04 #@! TO.N,/PROC_SCK*
X11717490Y-2435999D02*
X11915000Y-2633509D01*
X9044001Y-2435999D02*
X11717490Y-2435999D01*
X8725000Y-2755000D02*
X9044001Y-2435999D01*
X15182510Y-2709990D02*
X15377500Y-2515000D01*
X11991481Y-2709990D02*
X15182510Y-2709990D01*
X11915000Y-2633509D02*
X11991481Y-2709990D01*
X15377500Y-2515000D02*
X17725000Y-2515000D01*
X18615000Y-2295000D02*
X18985000Y-2665000D01*
X17945000Y-2295000D02*
X18615000Y-2295000D01*
X17725000Y-2515000D02*
X17945000Y-2295000D01*
G04 #@! TO.N,/PROC_SI*
X20498384Y-3770000D02*
X20304884Y-3963500D01*
X20785000Y-3770000D02*
X20498384Y-3770000D01*
X21383618Y-4368618D02*
X20785000Y-3770000D01*
X23019322Y-4368618D02*
X21383618Y-4368618D01*
X23213259Y-4174681D02*
X23019322Y-4368618D01*
X23213259Y-3835319D02*
X23213259Y-4174681D01*
X16275000Y-2085000D02*
X18935000Y-2085000D01*
X22122940Y-2745000D02*
X23213259Y-3835319D01*
X18935000Y-2085000D02*
X19595000Y-2745000D01*
X19595000Y-2745000D02*
X22122940Y-2745000D01*
G04 #@! TO.N,/CTRL_SS*
X22410011Y-8522509D02*
X22410011Y-10564985D01*
X18727119Y-7789989D02*
X21677491Y-7789989D01*
X22410011Y-10564985D02*
X21895006Y-11079990D01*
X21895006Y-11079990D02*
X21390084Y-11079990D01*
X17563554Y-8953554D02*
X18727119Y-7789989D01*
X21677491Y-7789989D02*
X22410011Y-8522509D01*
X20928536Y-11541538D02*
X20700037Y-11770037D01*
X21390084Y-11079990D02*
X20928536Y-11541538D01*
G04 #@! TO.N,/DONE*
X10805000Y-4415000D02*
X11734000Y-5344000D01*
X16127966Y-4532094D02*
X16356465Y-4303595D01*
X15316060Y-5344000D02*
X16127966Y-4532094D01*
X11734000Y-5344000D02*
X15316060Y-5344000D01*
G04 #@! TO.N,/DBG_RX*
X2013526Y-7676492D02*
X2288000Y-7402018D01*
X2288000Y-6188000D02*
X5333000Y-3143000D01*
X13333900Y-3143000D02*
X14377401Y-4186501D01*
X2288000Y-7402018D02*
X2288000Y-6188000D01*
X14377401Y-4186501D02*
X14605900Y-4415000D01*
X5333000Y-3143000D02*
X13333900Y-3143000D01*
G04 #@! TO.N,/PROC_SS*
X20306501Y-6646501D02*
X20535000Y-6875000D01*
X20251499Y-6591499D02*
X20306501Y-6646501D01*
X19324681Y-6591499D02*
X17685000Y-4951818D01*
X20251499Y-6591499D02*
X19324681Y-6591499D01*
X17685000Y-4790413D02*
X17699485Y-4775928D01*
X17685000Y-4951818D02*
X17685000Y-4790413D01*
X15368501Y-2771499D02*
X17881499Y-2771499D01*
X15255000Y-2885000D02*
X15368501Y-2771499D01*
X9800500Y-2885000D02*
X15255000Y-2885000D01*
X9705000Y-2789500D02*
X9800500Y-2885000D01*
G04 #@! TO.N,/PROC_SO*
X22380441Y-5255000D02*
X23388269Y-4247172D01*
X23388269Y-4247172D02*
X23388269Y-3428269D01*
X15856985Y-1703076D02*
X15648493Y-1911568D01*
X21663076Y-1703076D02*
X15856985Y-1703076D01*
X23388269Y-3428269D02*
X21663076Y-1703076D01*
X21270000Y-5255000D02*
X21015000Y-5255000D01*
X22380441Y-5255000D02*
X21270000Y-5255000D01*
X21270000Y-5255000D02*
X21047164Y-5255000D01*
X20642362Y-4882362D02*
X20642362Y-4291507D01*
X21015000Y-5255000D02*
X20642362Y-4882362D01*
G04 #@! TO.N,/BOOST_OUT*
X8816501Y-17183499D02*
X6966501Y-17183499D01*
X9045000Y-16955000D02*
X8816501Y-17183499D01*
X4915000Y-19235000D02*
X1745000Y-19235000D01*
X6966501Y-17183499D02*
X4915000Y-19235000D01*
D14*
G04 #@! TO.N,/C_CSI_D1_OUT_N*
X20512414Y-8668840D02*
X20512414Y-8423473D01*
X20643574Y-8800000D02*
X20512414Y-8668840D01*
X21950000Y-9171506D02*
X21578494Y-8800000D01*
X21693494Y-9995000D02*
X21950000Y-9738494D01*
X21222378Y-10065764D02*
X21237271Y-10042063D01*
X21335000Y-9995000D02*
X21693494Y-9995000D01*
X21213134Y-10092184D02*
X21222378Y-10065764D01*
X21307184Y-9998134D02*
X21335000Y-9995000D01*
X21210000Y-10120000D02*
X21213134Y-10092184D01*
X21197621Y-10542781D02*
X21206865Y-10516361D01*
X21182728Y-10566482D02*
X21197621Y-10542781D01*
X21162936Y-10586274D02*
X21182728Y-10566482D01*
X19210000Y-10583494D02*
X19798494Y-9995000D01*
X21578494Y-8800000D02*
X20643574Y-8800000D01*
X18732341Y-11461153D02*
X19210000Y-10983494D01*
X21280764Y-10007378D02*
X21307184Y-9998134D01*
X21210000Y-10488546D02*
X21210000Y-10120000D01*
X20963134Y-10516361D02*
X20972378Y-10542781D01*
X21257063Y-10022271D02*
X21280764Y-10007378D01*
X21206865Y-10516361D02*
X21210000Y-10488546D01*
X21085000Y-10613546D02*
X21112815Y-10610411D01*
X19798494Y-9995000D02*
X20835000Y-9995000D01*
X21112815Y-10610411D02*
X21139235Y-10601167D01*
X20862815Y-9998134D02*
X20889235Y-10007378D01*
X21007063Y-10586274D02*
X21030764Y-10601167D01*
X18242337Y-11461153D02*
X18732341Y-11461153D01*
X21139235Y-10601167D02*
X21162936Y-10586274D01*
X20912936Y-10022271D02*
X20932728Y-10042063D01*
X20987271Y-10566482D02*
X21007063Y-10586274D01*
X20889235Y-10007378D02*
X20912936Y-10022271D01*
X20932728Y-10042063D02*
X20947621Y-10065764D01*
X20947621Y-10065764D02*
X20956865Y-10092184D01*
X21057184Y-10610411D02*
X21085000Y-10613546D01*
X20956865Y-10092184D02*
X20960000Y-10120000D01*
X17755000Y-11948490D02*
X18242337Y-11461153D01*
X20960000Y-10120000D02*
X20960000Y-10488546D01*
X21950000Y-9738494D02*
X21950000Y-9171506D01*
X21237271Y-10042063D02*
X21257063Y-10022271D01*
X20960000Y-10488546D02*
X20963134Y-10516361D01*
X20972378Y-10542781D02*
X20987271Y-10566482D01*
X19210000Y-10983494D02*
X19210000Y-10583494D01*
X20835000Y-9995000D02*
X20862815Y-9998134D01*
X21030764Y-10601167D02*
X21057184Y-10610411D01*
G04 #@! TO.N,/C_CSI_D1_OUT_P*
X20363921Y-8817333D02*
X20118554Y-8817333D01*
X21740000Y-9651506D02*
X21740000Y-9258494D01*
X19000000Y-10496506D02*
X19711506Y-9785000D01*
X21491506Y-9010000D02*
X20556588Y-9010000D01*
X18645353Y-11251153D02*
X19000000Y-10896506D01*
X19711506Y-9785000D02*
X21606506Y-9785000D01*
X19000000Y-10896506D02*
X19000000Y-10496506D01*
X18242337Y-11251153D02*
X18645353Y-11251153D01*
X21606506Y-9785000D02*
X21740000Y-9651506D01*
X20556588Y-9010000D02*
X20363921Y-8817333D01*
X21740000Y-9258494D02*
X21491506Y-9010000D01*
D13*
X17911153Y-11251153D02*
X17625000Y-10965000D01*
X18242337Y-11251153D02*
X17911153Y-11251153D01*
G04 #@! TO.N,/CSI_INT*
X11288648Y-16634883D02*
X9758530Y-18165001D01*
X11288648Y-14916634D02*
X11288648Y-16634883D01*
G04 #@! TO.N,/PIO14*
X16815000Y-7225000D02*
X16740000Y-7150000D01*
G04 #@! TO.N,/PIO13*
X13746367Y-1574040D02*
X15305960Y-1574040D01*
X21203575Y-996075D02*
X23895000Y-3687500D01*
X15883925Y-996075D02*
X21203575Y-996075D01*
X15305960Y-1574040D02*
X15883925Y-996075D01*
X23895000Y-3687500D02*
X23895000Y-12105000D01*
X23895000Y-12105000D02*
X22365000Y-13635000D01*
X22365000Y-13635000D02*
X21805000Y-13635000D01*
X21805000Y-13635000D02*
X21265000Y-14175000D01*
X21265000Y-14665000D02*
X21235000Y-14695000D01*
X21265000Y-14175000D02*
X21265000Y-14665000D01*
G04 #@! TO.N,/RDL_LP_CSI_D1_OUT_P*
X20595000Y-12375000D02*
X20595000Y-12995000D01*
X19347640Y-5861499D02*
X20644681Y-5861499D01*
X20595000Y-12995000D02*
X18494139Y-15095861D01*
X21967498Y-11255000D02*
X21715000Y-11255000D01*
X15324043Y-15095861D02*
X15099565Y-14871383D01*
X15099565Y-14871383D02*
X12384117Y-14871383D01*
X12036999Y-15218501D02*
X11808500Y-15447000D01*
X22595000Y-10627498D02*
X21967498Y-11255000D01*
X22595000Y-7811818D02*
X22595000Y-10627498D01*
X17841178Y-4355037D02*
X19347640Y-5861499D01*
X21715000Y-11255000D02*
X20595000Y-12375000D01*
X17175037Y-4355037D02*
X17841178Y-4355037D01*
X12384117Y-14871383D02*
X12036999Y-15218501D01*
X20644681Y-5861499D02*
X22595000Y-7811818D01*
X18494139Y-15095861D02*
X15324043Y-15095861D01*
G04 #@! TO.N,/RDL_LP_CSI_D1_OUT_N*
X12513499Y-18358001D02*
X12285000Y-18586500D01*
X12778681Y-18358001D02*
X12513499Y-18358001D01*
X14481682Y-16655000D02*
X12778681Y-18358001D01*
X16605000Y-16655000D02*
X14481682Y-16655000D01*
X16605000Y-16655000D02*
X16525000Y-16655000D01*
X17379182Y-16655000D02*
X16605000Y-16655000D01*
X22480000Y-10990000D02*
X22480000Y-11554182D01*
X20717172Y-5686488D02*
X22770011Y-7739327D01*
X17578643Y-3845000D02*
X19420131Y-5686488D01*
X17505000Y-3845000D02*
X17578643Y-3845000D01*
X22770011Y-10699989D02*
X22480000Y-10990000D01*
X22480000Y-11554182D02*
X17379182Y-16655000D01*
X22770011Y-7739327D02*
X22770011Y-10699989D01*
X19420131Y-5686488D02*
X20717172Y-5686488D01*
G04 #@! TO.N,/PROG_LP_CSI_D1_OUT_N*
X16000000Y-3900000D02*
X15712001Y-4187999D01*
X15008181Y-5168501D02*
X13348502Y-5168501D01*
X16476052Y-3900000D02*
X16000000Y-3900000D01*
X15712001Y-4187999D02*
X15712001Y-4464681D01*
X17538370Y-5305342D02*
X17050660Y-5305342D01*
X15712001Y-4464681D02*
X15008181Y-5168501D01*
X16709966Y-4133914D02*
X16476052Y-3900000D01*
X17050660Y-5305342D02*
X16709966Y-4964648D01*
X13348502Y-5168501D02*
X12300001Y-4120000D01*
X16709966Y-4964648D02*
X16709966Y-4133914D01*
G04 #@! TD*
M02*
