G04 #@! TF.GenerationSoftware,KiCad,Pcbnew,5.0.2+dfsg1-1~bpo9+1*
G04 #@! TF.CreationDate,2019-10-30T13:19:41+01:00*
G04 #@! TF.ProjectId,zglue-jade-adapter,7a676c75-652d-46a6-9164-652d61646170,rev?*
G04 #@! TF.SameCoordinates,Original*
G04 #@! TF.FileFunction,Copper,L4,Inr*
G04 #@! TF.FilePolarity,Positive*
%FSLAX46Y46*%
G04 Gerber Fmt 4.6, Leading zero omitted, Abs format (unit mm)*
G04 Created by KiCad (PCBNEW 5.0.2+dfsg1-1~bpo9+1) date Wed 30 Oct 2019 01:19:41 PM CET*
%MOMM*%
%LPD*%
G01*
G04 APERTURE LIST*
G04 #@! TA.AperFunction,ViaPad*
%ADD10C,0.457000*%
G04 #@! TD*
G04 #@! TA.AperFunction,Conductor*
%ADD11C,0.200000*%
G04 #@! TD*
G04 #@! TA.AperFunction,Conductor*
%ADD12C,0.150000*%
G04 #@! TD*
G04 #@! TA.AperFunction,Conductor*
%ADD13C,0.100000*%
G04 #@! TD*
G04 #@! TA.AperFunction,Conductor*
%ADD14C,0.110000*%
G04 #@! TD*
G04 APERTURE END LIST*
D10*
G04 #@! TO.N,GND*
G04 #@! TO.C,U1*
X13095000Y-11155000D03*
X11895000Y-11155000D03*
X13095000Y-10005000D03*
X11895000Y-10005000D03*
X13095000Y-8855000D03*
X11845000Y-8855000D03*
X14045000Y-11155000D03*
X10945000Y-11155000D03*
X10945000Y-10005000D03*
X14045000Y-10005000D03*
X14045000Y-8855000D03*
X10945000Y-8855000D03*
G04 #@! TD*
G04 #@! TO.N,GND*
X9780755Y-14856245D03*
X22506000Y-17406000D03*
X19427000Y-8509000D03*
X17456963Y-5256963D03*
X1960000Y-10650000D03*
X2050000Y-8240000D03*
X8907225Y-15782715D03*
X4670000Y-12330000D03*
X4886500Y-12990000D03*
X4797104Y-9029614D03*
X3880000Y-11460000D03*
X7540000Y-5270000D03*
X5534679Y-6695321D03*
X4620000Y-11243500D03*
X13130000Y-17483500D03*
X11518001Y-17816500D03*
X7354722Y-14270000D03*
X7301618Y-15078505D03*
X3730000Y-16320000D03*
X17207360Y-14747360D03*
X20000000Y-7000000D03*
X19390245Y-11310245D03*
X19141499Y-19588501D03*
X10670000Y-18553510D03*
X23179563Y-7697502D03*
X23158448Y-11047568D03*
G04 #@! TO.N,/CSI_D2_IN_P*
X14400000Y-15995000D03*
X7496500Y-6787000D03*
G04 #@! TO.N,/CSI_D2_IN_N*
X13900573Y-15490783D03*
X8103500Y-6787000D03*
G04 #@! TO.N,/3V3_SYS*
X18270000Y-18650000D03*
X4380000Y-3040000D03*
X560000Y-17200000D03*
X12350000Y-1780000D03*
X14198500Y-11750000D03*
X19695318Y-12494682D03*
X20603510Y-16943500D03*
G04 #@! TO.N,/2V5*
X19960612Y-9356500D03*
X15962530Y-15957530D03*
G04 #@! TO.N,/1V8*
X11480000Y-18570000D03*
X15688058Y-17876196D03*
G04 #@! TO.N,/LED3_ISINK*
X13366026Y-12483965D03*
X2436000Y-10339000D03*
G04 #@! TO.N,/LED1_ISINK*
X12170000Y-12393000D03*
X2457000Y-9135000D03*
G04 #@! TO.N,/TMS*
X12761000Y-11860000D03*
X3099500Y-6470000D03*
G04 #@! TO.N,/VSENSE*
X12114000Y-11809000D03*
X15930000Y-18350000D03*
G04 #@! TO.N,/1V8_SYS*
X19670000Y-15250000D03*
X2157000Y-13757000D03*
X15732470Y-17262470D03*
X20810000Y-15690000D03*
X14938233Y-2121399D03*
G04 #@! TO.N,/LED2_ISINK*
X12822000Y-12389000D03*
X2443000Y-9766000D03*
G04 #@! TO.N,/EXTCLK_EN*
X10867000Y-11789000D03*
X6480000Y-18700000D03*
G04 #@! TO.N,/TDO*
X13603842Y-11725383D03*
X4026500Y-6450000D03*
G04 #@! TO.N,/3V3*
X19694963Y-16943500D03*
X7276762Y-15992510D03*
X7460000Y-18996490D03*
G04 #@! TO.N,/TDI*
X4394504Y-5357327D03*
X19720000Y-11850000D03*
G04 #@! TO.N,/PC_RDY*
X7896733Y-14906546D03*
X8990000Y-17816500D03*
X5879963Y-18769963D03*
G04 #@! TO.N,/TCK*
X1929500Y-6731000D03*
X14120000Y-8200000D03*
X5545355Y-8683500D03*
G04 #@! TO.N,/EXT_CLK*
X8336500Y-12665000D03*
X4260000Y-18010000D03*
G04 #@! TO.N,/I2C_0_SCL*
X19625000Y-10795000D03*
X1991000Y-11234000D03*
G04 #@! TO.N,/ZIP_EN_L*
X7945000Y-11743000D03*
X4092500Y-13780000D03*
G04 #@! TO.N,/PWR_BTN*
X8028000Y-11175500D03*
X3574500Y-10460000D03*
G04 #@! TO.N,/I2C_0_SDA*
X4990501Y-7976499D03*
X17583206Y-9549113D03*
G04 #@! TO.N,/CSI_D1_IN_N*
X4385393Y-7234607D03*
X15214500Y-16026314D03*
G04 #@! TO.N,/CSI_D1_IN_P*
X4814607Y-6805393D03*
X15015000Y-15320000D03*
G04 #@! TO.N,/CSI_CLK_IN_P*
X5059455Y-5500545D03*
X13075000Y-15820000D03*
G04 #@! TO.N,/CSI_CLK_IN_N*
X4670545Y-5889455D03*
X12575405Y-15229884D03*
G04 #@! TO.N,/CSI_CLK_OUT_N*
X17063822Y-13976178D03*
X20258878Y-4504548D03*
G04 #@! TO.N,/CTRL_SO*
X16300000Y-5630000D03*
X20550000Y-10440000D03*
G04 #@! TO.N,/CTRL_SI*
X17060000Y-8434000D03*
X20080000Y-3800000D03*
G04 #@! TO.N,/CTRL_SCK*
X15911314Y-9141860D03*
X20603500Y-11120000D03*
G04 #@! TO.N,/CSI_CLK_OUT_P*
X19701878Y-4504548D03*
X16669970Y-14370030D03*
G04 #@! TO.N,/ULPM_WAKE*
X10870000Y-8225000D03*
X4472000Y-4831000D03*
G04 #@! TO.N,/2V5_SYS*
X17000000Y-19210000D03*
G04 #@! TO.N,/USB_D_N*
X16995480Y-7749122D03*
X5201441Y-14010583D03*
X9236847Y-4308213D03*
G04 #@! TO.N,/USB_D_P*
X4772227Y-13581369D03*
X16569544Y-8157342D03*
X9236847Y-3751213D03*
G04 #@! TO.N,/DBG_TX*
X13673500Y-4820000D03*
X2636510Y-6913000D03*
G04 #@! TO.N,/PROC_SCK*
X20470000Y-6220000D03*
X8264249Y-5270001D03*
X8720000Y-2760000D03*
X18980000Y-2670000D03*
G04 #@! TO.N,/PROC_SI*
X20774517Y-4373618D03*
X13470000Y-8205000D03*
X16270000Y-2090000D03*
G04 #@! TO.N,/PROC_OUT_0*
X10090499Y-3749500D03*
G04 #@! TO.N,/PROC_OUT_1*
X10495000Y-4985000D03*
G04 #@! TO.N,/PROC_OUT_2*
X10800000Y-3820000D03*
G04 #@! TO.N,/USB_DET*
X3739000Y-12390000D03*
X5000000Y-18633500D03*
X8240000Y-18200000D03*
X16876205Y-9423855D03*
G04 #@! TO.N,/CTRL_SS*
X17558554Y-8958554D03*
X20695037Y-11775037D03*
G04 #@! TO.N,/PIO1*
X6938000Y-1533500D03*
X4223000Y-1828000D03*
G04 #@! TO.N,/DONE*
X10800000Y-4420000D03*
X21195000Y-12316000D03*
X16351465Y-4308595D03*
G04 #@! TO.N,/DBG_RX*
X14600900Y-4420000D03*
X2008526Y-7681492D03*
G04 #@! TO.N,/PIO2*
X12170000Y-8215000D03*
X5394359Y-1651490D03*
G04 #@! TO.N,/PROC_SS*
X20530000Y-6880000D03*
X9700000Y-2794500D03*
X17694485Y-4780928D03*
X18060000Y-2716500D03*
G04 #@! TO.N,/PROC_RST*
X7850000Y-4493213D03*
X9370000Y-4920000D03*
G04 #@! TO.N,/PROC_SO*
X20450000Y-5260000D03*
X12845000Y-8230000D03*
X15643493Y-1916568D03*
G04 #@! TO.N,/VUSB*
X4561442Y-14069832D03*
X4092500Y-14420000D03*
G04 #@! TO.N,/1V2_SYS*
X2110000Y-12870000D03*
G04 #@! TO.N,/E_PROC_RST*
X3941159Y-3526500D03*
G04 #@! TO.N,/E_PROC_SI*
X23097225Y-5730865D03*
G04 #@! TO.N,/E_PROC_SO*
X22835000Y-6268000D03*
G04 #@! TO.N,/E_PROC_SCK*
X23121000Y-6779000D03*
G04 #@! TO.N,/E_PROC_SS*
X22811000Y-7247000D03*
G04 #@! TO.N,/CTRL_RST_FLASH_SOC_CS*
X8516570Y-8715630D03*
X23118521Y-8226000D03*
G04 #@! TO.N,/E_CTRL_SI*
X23118521Y-8779000D03*
G04 #@! TO.N,/E_CTRL_SO*
X23118521Y-9345000D03*
G04 #@! TO.N,/E_CTRL_SCK*
X23149100Y-9876132D03*
G04 #@! TO.N,/E_CTRL_SS*
X23118521Y-10517059D03*
G04 #@! TO.N,/PIO8*
X12820000Y-7530000D03*
X13506401Y-383500D03*
G04 #@! TO.N,/PIO7*
X13350000Y-3950000D03*
X12550000Y-2320000D03*
G04 #@! TO.N,/PIO6*
X12170000Y-7530000D03*
X11086000Y-1651490D03*
G04 #@! TO.N,/VX*
X9530000Y-16510000D03*
X9400030Y-18600030D03*
G04 #@! TO.N,/AMUX*
X4325318Y-18714682D03*
X8008629Y-16051111D03*
G04 #@! TO.N,/DMUX*
X11501000Y-11799000D03*
X7820000Y-18560000D03*
G04 #@! TO.N,/FLASH_CLK*
X8932000Y-7433500D03*
G04 #@! TO.N,/FLASH_CS*
X8953786Y-9069130D03*
X22158500Y-14160000D03*
X22193000Y-12625000D03*
G04 #@! TO.N,/FLASH_IO0*
X8571782Y-8186500D03*
G04 #@! TO.N,/FLASH_IO1*
X8237231Y-9950200D03*
G04 #@! TO.N,/FLASH_IO2*
X7693646Y-10053945D03*
G04 #@! TO.N,/FLASH_IO3*
X7880255Y-9555745D03*
G04 #@! TO.N,/BOOST_OUT*
X9040000Y-16960000D03*
X1740000Y-19240000D03*
G04 #@! TO.N,Net-(TP34-Pad1)*
X17480000Y-6060000D03*
X15900000Y-3130000D03*
X22750000Y-1820000D03*
X16356490Y-6243000D03*
G04 #@! TO.N,Net-(TP35-Pad1)*
X15353500Y-4300000D03*
X20525000Y-2095000D03*
G04 #@! TO.N,/C_CSI_D1_OUT_N*
X17540000Y-11960000D03*
X19470000Y-6950000D03*
X20507414Y-8428473D03*
G04 #@! TO.N,/C_CSI_D1_OUT_P*
X17620000Y-10970000D03*
X17520000Y-6880000D03*
X20113554Y-8822333D03*
G04 #@! TO.N,/LP_CSI_D1_OUT_P*
X17170037Y-4360037D03*
X11803500Y-15452000D03*
G04 #@! TO.N,/LP_CSI_D1_OUT_N*
X17500000Y-3850000D03*
X12280000Y-18591500D03*
G04 #@! TO.N,/CSI_INT*
X11283648Y-14921634D03*
X3074500Y-8219122D03*
X9753530Y-18170001D03*
G04 #@! TO.N,/PROC_INT*
X17359218Y-18308646D03*
X21070000Y-16340000D03*
G04 #@! TO.N,/PIO14*
X16810000Y-7230000D03*
X16329908Y-9470213D03*
X15430000Y-3430000D03*
X16409748Y-1354576D03*
G04 #@! TO.N,/PIO13*
X17651963Y-8341963D03*
X13741367Y-1579040D03*
X21230000Y-14700000D03*
G04 #@! TO.N,/PIO0*
X11470000Y-8220000D03*
X1500000Y-1680000D03*
G04 #@! TD*
D11*
G04 #@! TO.N,/3V3_SYS*
X1060000Y-16700000D02*
X560000Y-17200000D01*
X1060000Y-13650000D02*
X1060000Y-16700000D01*
X1060000Y-13650000D02*
X1060000Y-13907000D01*
X1060000Y-4600000D02*
X1060000Y-13650000D01*
X2620000Y-3040000D02*
X1060000Y-4600000D01*
X4380000Y-3040000D02*
X2620000Y-3040000D01*
D12*
X12340000Y-1830000D02*
X12470000Y-1830000D01*
X12140000Y-2030000D02*
X12340000Y-1830000D01*
X4380000Y-3040000D02*
X5390000Y-2030000D01*
X5390000Y-2030000D02*
X12140000Y-2030000D01*
D13*
X15073511Y-12625011D02*
X18169344Y-12625011D01*
X18169344Y-12625011D02*
X18299673Y-12494682D01*
X14198500Y-11750000D02*
X15073511Y-12625011D01*
X19372171Y-12494682D02*
X19695318Y-12494682D01*
X18299673Y-12494682D02*
X19372171Y-12494682D01*
G04 #@! TO.N,/LED3_ISINK*
X2854000Y-11006000D02*
X2854000Y-10757000D01*
X2854000Y-11006000D02*
X2854000Y-10941000D01*
X2854000Y-10757000D02*
X2436000Y-10339000D01*
X2854000Y-14493002D02*
X2854000Y-11006000D01*
X4175018Y-15814020D02*
X2854000Y-14493002D01*
X11210501Y-13041499D02*
X11210501Y-13041505D01*
X12847981Y-13002010D02*
X11249996Y-13002010D01*
X11249996Y-13002010D02*
X11210501Y-13041499D01*
X5501020Y-15814020D02*
X4175018Y-15814020D01*
X13366026Y-12483965D02*
X12847981Y-13002010D01*
X11210501Y-13041505D02*
X10191000Y-14061006D01*
X6108000Y-16421000D02*
X5501020Y-15814020D01*
X10191000Y-14061006D02*
X10191000Y-15011182D01*
X10191000Y-15011182D02*
X8781182Y-16421000D01*
X8781182Y-16421000D02*
X6108000Y-16421000D01*
G04 #@! TO.N,/LED1_ISINK*
X12170000Y-12393000D02*
X11364000Y-12393000D01*
X3221000Y-14365000D02*
X3221000Y-10168000D01*
X11364000Y-12393000D02*
X8293000Y-15464000D01*
X8293000Y-15464000D02*
X4320000Y-15464000D01*
X4320000Y-15464000D02*
X3221000Y-14365000D01*
X3221000Y-10168000D02*
X3221000Y-9884000D01*
X2472000Y-9135000D02*
X2457000Y-9135000D01*
X3221000Y-9884000D02*
X2472000Y-9135000D01*
G04 #@! TO.N,/TMS*
X12761000Y-11497818D02*
X11955182Y-10692000D01*
X12761000Y-11860000D02*
X12761000Y-11497818D01*
X11955182Y-10692000D02*
X4430000Y-10692000D01*
X4430000Y-10692000D02*
X3428000Y-9690000D01*
X3428000Y-8044000D02*
X3428000Y-7796000D01*
X3428000Y-9690000D02*
X3428000Y-8044000D01*
X3428000Y-7796000D02*
X3428000Y-7348000D01*
X3428000Y-7348000D02*
X3428000Y-6738000D01*
X3160000Y-6470000D02*
X3099500Y-6470000D01*
X3428000Y-6738000D02*
X3160000Y-6470000D01*
D12*
G04 #@! TO.N,/1V8_SYS*
X19670000Y-15250000D02*
X20370000Y-15250000D01*
X20370000Y-15250000D02*
X20810000Y-15690000D01*
D13*
G04 #@! TO.N,/LED2_ISINK*
X3029000Y-10262000D02*
X2533000Y-9766000D01*
X3029000Y-14420501D02*
X3029000Y-10262000D01*
X12822000Y-12389000D02*
X12384000Y-12827000D01*
X2533000Y-9766000D02*
X2443000Y-9766000D01*
X12384000Y-12827000D02*
X11177500Y-12827000D01*
X11177500Y-12827000D02*
X8365491Y-15639010D01*
X4247509Y-15639010D02*
X3029000Y-14420501D01*
X8365491Y-15639010D02*
X4247509Y-15639010D01*
G04 #@! TO.N,/TDO*
X13603842Y-11140660D02*
X12957182Y-10494000D01*
X13603842Y-11725383D02*
X13603842Y-11140660D01*
X12957182Y-10494000D02*
X5051000Y-10494000D01*
X5051000Y-10494000D02*
X4495000Y-10494000D01*
X4495000Y-10494000D02*
X3603010Y-9602010D01*
X3603010Y-9602010D02*
X3603010Y-7935000D01*
X3603010Y-7935000D02*
X3603010Y-7651990D01*
X3946020Y-6450000D02*
X4026500Y-6450000D01*
X3603010Y-7100000D02*
X3603010Y-6873490D01*
X3603010Y-7651990D02*
X3603010Y-7100000D01*
X3603010Y-6873490D02*
X4026500Y-6450000D01*
D12*
G04 #@! TO.N,/3V3*
X7688499Y-19224989D02*
X7460000Y-18996490D01*
X8052011Y-19588501D02*
X7688499Y-19224989D01*
X19694963Y-18035037D02*
X18141499Y-19588501D01*
X19694963Y-16943500D02*
X19694963Y-18035037D01*
X18141499Y-19588501D02*
X8052011Y-19588501D01*
D13*
G04 #@! TO.N,/TDI*
X4300000Y-5451831D02*
X4394504Y-5357327D01*
X19125000Y-11745000D02*
X18801853Y-11745000D01*
X18801853Y-11745000D02*
X19290000Y-11745000D01*
X19290000Y-11745000D02*
X19344068Y-11745000D01*
X4166005Y-5906005D02*
X4166005Y-5585826D01*
X3966010Y-7113990D02*
X4410000Y-6670000D01*
X3966010Y-7616010D02*
X3966010Y-7113990D01*
X4166005Y-5585826D02*
X4394504Y-5357327D01*
X5400000Y-9050000D02*
X3966010Y-7616010D01*
X4410000Y-6670000D02*
X4410000Y-6150000D01*
X14229000Y-9459000D02*
X8554192Y-9459000D01*
X8145192Y-9050000D02*
X5400000Y-9050000D01*
X18096853Y-12450000D02*
X16610000Y-12450000D01*
X4410000Y-6150000D02*
X4166005Y-5906005D01*
X8554192Y-9459000D02*
X8145192Y-9050000D01*
X16046501Y-11276501D02*
X14229000Y-9459000D01*
X16610000Y-12450000D02*
X16046501Y-11886501D01*
X18801853Y-11745000D02*
X18096853Y-12450000D01*
X16046501Y-11886501D02*
X16046501Y-11276501D01*
X19642001Y-11740000D02*
X19712001Y-11810000D01*
X19295000Y-11740000D02*
X19642001Y-11740000D01*
X19290000Y-11745000D02*
X19295000Y-11740000D01*
G04 #@! TO.N,/PC_RDY*
X8990000Y-17816500D02*
X6773500Y-17816500D01*
X5879963Y-18710037D02*
X5879963Y-18769963D01*
X6773500Y-17816500D02*
X5879963Y-18710037D01*
G04 #@! TO.N,/TCK*
X13691499Y-8628501D02*
X13891501Y-8428499D01*
X13264681Y-9208501D02*
X13691499Y-8781683D01*
X10318501Y-9208501D02*
X13264681Y-9208501D01*
X13691499Y-8781683D02*
X13691499Y-8628501D01*
X8910000Y-7800000D02*
X10318501Y-9208501D01*
X5545355Y-8683500D02*
X5551855Y-8690000D01*
X5551855Y-8690000D02*
X7440000Y-8690000D01*
X13891501Y-8428499D02*
X14120000Y-8200000D01*
X8330000Y-7800000D02*
X8910000Y-7800000D01*
X7440000Y-8690000D02*
X8330000Y-7800000D01*
G04 #@! TO.N,/I2C_0_SCL*
X2607000Y-11850000D02*
X1991000Y-11234000D01*
X2607000Y-16157000D02*
X2607000Y-11850000D01*
X3268000Y-16818000D02*
X2607000Y-16157000D01*
X8631670Y-16818000D02*
X3268000Y-16818000D01*
X12239670Y-13210000D02*
X8631670Y-16818000D01*
X19625000Y-10795000D02*
X20100000Y-11270000D01*
X20100000Y-11270000D02*
X20100000Y-12860000D01*
X20100000Y-12860000D02*
X19750000Y-13210000D01*
X19750000Y-13210000D02*
X12239670Y-13210000D01*
G04 #@! TO.N,/ZIP_EN_L*
X4092501Y-12384317D02*
X4092501Y-13677499D01*
X4733818Y-11743000D02*
X4092501Y-12384317D01*
X7945000Y-11743000D02*
X4733818Y-11743000D01*
X4092500Y-13677500D02*
X4092500Y-13780000D01*
X4092501Y-13677499D02*
X4092500Y-13677500D01*
G04 #@! TO.N,/PWR_BTN*
X4004500Y-10890000D02*
X3574500Y-10460000D01*
X7742500Y-10890000D02*
X4004500Y-10890000D01*
X8028000Y-11175500D02*
X7742500Y-10890000D01*
G04 #@! TO.N,/I2C_0_SDA*
X14530000Y-7750000D02*
X14660000Y-7880000D01*
X16784093Y-8750000D02*
X17583206Y-9549113D01*
X15530000Y-8750000D02*
X16784093Y-8750000D01*
X14660000Y-7880000D02*
X15530000Y-8750000D01*
X13950000Y-7170000D02*
X14660000Y-7880000D01*
X9371682Y-7170000D02*
X13950000Y-7170000D01*
X9370841Y-7170841D02*
X9371682Y-7170000D01*
X9238009Y-7038009D02*
X9370841Y-7170841D01*
X4991000Y-7944000D02*
X7469682Y-7944000D01*
X7469682Y-7944000D02*
X8375673Y-7038009D01*
X8375673Y-7038009D02*
X9238009Y-7038009D01*
G04 #@! TO.N,/CTRL_SCK*
X21600000Y-7970000D02*
X22230000Y-8600000D01*
X19277500Y-7970000D02*
X21600000Y-7970000D01*
X18940000Y-8307500D02*
X19277500Y-7970000D01*
X17535501Y-10120000D02*
X18940000Y-8715501D01*
X16456513Y-10120000D02*
X17535501Y-10120000D01*
X18940000Y-8715501D02*
X18940000Y-8307500D01*
X15911314Y-9141860D02*
X15911314Y-9574801D01*
X15911314Y-9574801D02*
X16456513Y-10120000D01*
X22230000Y-10150000D02*
X22230000Y-10290000D01*
X22230000Y-8600000D02*
X22230000Y-10150000D01*
X22230000Y-10350000D02*
X22230000Y-10150000D01*
X20603500Y-11120000D02*
X20926647Y-11120000D01*
X20926647Y-11120000D02*
X21166647Y-10880000D01*
X21166647Y-10880000D02*
X21700000Y-10880000D01*
X21700000Y-10880000D02*
X22230000Y-10350000D01*
D14*
G04 #@! TO.N,/USB_D_N*
X16995480Y-7749122D02*
X16714759Y-7749122D01*
X8976832Y-4308213D02*
X8768000Y-4517045D01*
X9236847Y-4308213D02*
X8976832Y-4308213D01*
X8768000Y-4517045D02*
X8768000Y-4977506D01*
X8768000Y-4977506D02*
X10438494Y-6648000D01*
X10438494Y-6648000D02*
X15616915Y-6648000D01*
X15616915Y-6648000D02*
X16718037Y-7749122D01*
X16718037Y-7749122D02*
X16995480Y-7749122D01*
G04 #@! TO.N,/USB_D_P*
X16566266Y-8154064D02*
X16569544Y-8157342D01*
X8558000Y-5064494D02*
X8558000Y-4430060D01*
X16020802Y-7348873D02*
X15529929Y-6858000D01*
X16036159Y-7368131D02*
X16020802Y-7348873D01*
X16052327Y-7438970D02*
X16052327Y-7414338D01*
X16046847Y-7462985D02*
X16052327Y-7438970D01*
X16020802Y-7504436D02*
X16036158Y-7485177D01*
X15776335Y-7764309D02*
X15787022Y-7742115D01*
X15787023Y-7859163D02*
X15776334Y-7836969D01*
X15529929Y-6858000D02*
X10351506Y-6858000D01*
X15770854Y-7812956D02*
X15770854Y-7788324D01*
X8558000Y-4430060D02*
X9236847Y-3751213D01*
X15770854Y-7788324D02*
X15776335Y-7764309D01*
X16266464Y-7628474D02*
X16241832Y-7628474D01*
X16569544Y-8157342D02*
X16569544Y-7897615D01*
X16036158Y-7485177D02*
X16046847Y-7462985D01*
X15787022Y-7742115D02*
X15802380Y-7722857D01*
X16217817Y-7633955D02*
X16195623Y-7644642D01*
X15802380Y-7878421D02*
X15787023Y-7859163D01*
X15802380Y-7722857D02*
X16020802Y-7504436D01*
X16176365Y-7660000D02*
X15957944Y-7878422D01*
X16569544Y-7897615D02*
X16331929Y-7660000D01*
X16331929Y-7660000D02*
X16312671Y-7644643D01*
X16312671Y-7644643D02*
X16290477Y-7633954D01*
X15957944Y-7878422D02*
X15938685Y-7893778D01*
X15938685Y-7893778D02*
X15916493Y-7904467D01*
X15916493Y-7904467D02*
X15892478Y-7909947D01*
X16241832Y-7628474D02*
X16217817Y-7633955D01*
X15892478Y-7909947D02*
X15867846Y-7909947D01*
X15867846Y-7909947D02*
X15843831Y-7904466D01*
X16052327Y-7414338D02*
X16046846Y-7390323D01*
X15843831Y-7904466D02*
X15821639Y-7893779D01*
X16046846Y-7390323D02*
X16036159Y-7368131D01*
X16290477Y-7633954D02*
X16266464Y-7628474D01*
X15821639Y-7893779D02*
X15802380Y-7878421D01*
X10351506Y-6858000D02*
X8558000Y-5064494D01*
X16195623Y-7644642D02*
X16176365Y-7660000D01*
X15776334Y-7836969D02*
X15770854Y-7812956D01*
D13*
G04 #@! TO.N,/DBG_TX*
X2560000Y-6836490D02*
X2636510Y-6913000D01*
X13673500Y-4820000D02*
X12249500Y-3396000D01*
X12249500Y-3396000D02*
X5383818Y-3396000D01*
X5383818Y-3396000D02*
X2560000Y-6219818D01*
X2560000Y-6219818D02*
X2560000Y-6836490D01*
G04 #@! TO.N,/PROC_SCK*
X11712490Y-2440999D02*
X11910000Y-2638509D01*
X9039001Y-2440999D02*
X11712490Y-2440999D01*
X8720000Y-2760000D02*
X9039001Y-2440999D01*
X15177510Y-2714990D02*
X15372500Y-2520000D01*
X11986481Y-2714990D02*
X15177510Y-2714990D01*
X11910000Y-2638509D02*
X11986481Y-2714990D01*
X15372500Y-2520000D02*
X17720000Y-2520000D01*
X18610000Y-2300000D02*
X18980000Y-2670000D01*
X17940000Y-2300000D02*
X18610000Y-2300000D01*
X17720000Y-2520000D02*
X17940000Y-2300000D01*
G04 #@! TO.N,/PROC_SI*
X23208259Y-4179681D02*
X23014322Y-4373618D01*
X23014322Y-4373618D02*
X21097664Y-4373618D01*
X22117940Y-2750000D02*
X23208259Y-3840319D01*
X21097664Y-4373618D02*
X20774517Y-4373618D01*
X23208259Y-3840319D02*
X23208259Y-4179681D01*
X19590000Y-2750000D02*
X22117940Y-2750000D01*
X18930000Y-2090000D02*
X19590000Y-2750000D01*
X16270000Y-2090000D02*
X18930000Y-2090000D01*
G04 #@! TO.N,/CTRL_SS*
X18722119Y-7794989D02*
X21672491Y-7794989D01*
X21672491Y-7794989D02*
X22405011Y-8527509D01*
X22405011Y-8527509D02*
X22405011Y-10754989D01*
X20923536Y-11546538D02*
X20695037Y-11775037D01*
X22075010Y-11084990D02*
X21385084Y-11084990D01*
X17558554Y-8958554D02*
X18722119Y-7794989D01*
X21385084Y-11084990D02*
X20923536Y-11546538D01*
X22405011Y-10754989D02*
X22075010Y-11084990D01*
G04 #@! TO.N,/DONE*
X10800000Y-4420000D02*
X11729000Y-5349000D01*
X16122966Y-4537094D02*
X16351465Y-4308595D01*
X15311060Y-5349000D02*
X16122966Y-4537094D01*
X11729000Y-5349000D02*
X15311060Y-5349000D01*
G04 #@! TO.N,/DBG_RX*
X2008526Y-7681492D02*
X2283000Y-7407018D01*
X2283000Y-6193000D02*
X5328000Y-3148000D01*
X13328900Y-3148000D02*
X14372401Y-4191501D01*
X2283000Y-7407018D02*
X2283000Y-6193000D01*
X14372401Y-4191501D02*
X14600900Y-4420000D01*
X5328000Y-3148000D02*
X13328900Y-3148000D01*
G04 #@! TO.N,/PROC_SS*
X20301501Y-6651501D02*
X20530000Y-6880000D01*
X20246499Y-6596499D02*
X20301501Y-6651501D01*
X19319681Y-6596499D02*
X17680000Y-4956818D01*
X20246499Y-6596499D02*
X19319681Y-6596499D01*
X17680000Y-4795413D02*
X17694485Y-4780928D01*
X17680000Y-4956818D02*
X17680000Y-4795413D01*
X15363501Y-2776499D02*
X17876499Y-2776499D01*
X15250000Y-2890000D02*
X15363501Y-2776499D01*
X9795500Y-2890000D02*
X15250000Y-2890000D01*
X9700000Y-2794500D02*
X9795500Y-2890000D01*
G04 #@! TO.N,/PROC_SO*
X22375441Y-5260000D02*
X23383269Y-4252172D01*
X23383269Y-4252172D02*
X23383269Y-3433269D01*
X15851985Y-1708076D02*
X15643493Y-1916568D01*
X21658076Y-1708076D02*
X15851985Y-1708076D01*
X23383269Y-3433269D02*
X21658076Y-1708076D01*
X20450000Y-5260000D02*
X22375441Y-5260000D01*
G04 #@! TO.N,/BOOST_OUT*
X8811501Y-17188499D02*
X6961501Y-17188499D01*
X9040000Y-16960000D02*
X8811501Y-17188499D01*
X4910000Y-19240000D02*
X1740000Y-19240000D01*
X6961501Y-17188499D02*
X4910000Y-19240000D01*
D14*
G04 #@! TO.N,/C_CSI_D1_OUT_N*
X20507414Y-8673840D02*
X20507414Y-8428473D01*
X20638574Y-8805000D02*
X20507414Y-8673840D01*
X21945000Y-9176506D02*
X21573494Y-8805000D01*
X21688494Y-10000000D02*
X21945000Y-9743494D01*
X21217378Y-10070764D02*
X21232271Y-10047063D01*
X21330000Y-10000000D02*
X21688494Y-10000000D01*
X21208134Y-10097184D02*
X21217378Y-10070764D01*
X21302184Y-10003134D02*
X21330000Y-10000000D01*
X21205000Y-10125000D02*
X21208134Y-10097184D01*
X21192621Y-10547781D02*
X21201865Y-10521361D01*
X21177728Y-10571482D02*
X21192621Y-10547781D01*
X21157936Y-10591274D02*
X21177728Y-10571482D01*
X19205000Y-10588494D02*
X19793494Y-10000000D01*
X21573494Y-8805000D02*
X20638574Y-8805000D01*
X18727341Y-11466153D02*
X19205000Y-10988494D01*
X21275764Y-10012378D02*
X21302184Y-10003134D01*
X21205000Y-10493546D02*
X21205000Y-10125000D01*
X20958134Y-10521361D02*
X20967378Y-10547781D01*
X21252063Y-10027271D02*
X21275764Y-10012378D01*
X21201865Y-10521361D02*
X21205000Y-10493546D01*
X21080000Y-10618546D02*
X21107815Y-10615411D01*
X19793494Y-10000000D02*
X20830000Y-10000000D01*
X21107815Y-10615411D02*
X21134235Y-10606167D01*
X20857815Y-10003134D02*
X20884235Y-10012378D01*
X21002063Y-10591274D02*
X21025764Y-10606167D01*
X18237337Y-11466153D02*
X18727341Y-11466153D01*
X21134235Y-10606167D02*
X21157936Y-10591274D01*
X20907936Y-10027271D02*
X20927728Y-10047063D01*
X20982271Y-10571482D02*
X21002063Y-10591274D01*
X20884235Y-10012378D02*
X20907936Y-10027271D01*
X20927728Y-10047063D02*
X20942621Y-10070764D01*
X20942621Y-10070764D02*
X20951865Y-10097184D01*
X21052184Y-10615411D02*
X21080000Y-10618546D01*
X20951865Y-10097184D02*
X20955000Y-10125000D01*
X17750000Y-11953490D02*
X18237337Y-11466153D01*
X20955000Y-10125000D02*
X20955000Y-10493546D01*
X21945000Y-9743494D02*
X21945000Y-9176506D01*
X21232271Y-10047063D02*
X21252063Y-10027271D01*
X20955000Y-10493546D02*
X20958134Y-10521361D01*
X20967378Y-10547781D02*
X20982271Y-10571482D01*
X19205000Y-10988494D02*
X19205000Y-10588494D01*
X20830000Y-10000000D02*
X20857815Y-10003134D01*
X21025764Y-10606167D02*
X21052184Y-10615411D01*
G04 #@! TO.N,/C_CSI_D1_OUT_P*
X20358921Y-8822333D02*
X20113554Y-8822333D01*
X21735000Y-9656506D02*
X21735000Y-9263494D01*
X18995000Y-10501506D02*
X19706506Y-9790000D01*
X21486506Y-9015000D02*
X20551588Y-9015000D01*
X18640353Y-11256153D02*
X18995000Y-10901506D01*
X19706506Y-9790000D02*
X21601506Y-9790000D01*
X18995000Y-10901506D02*
X18995000Y-10501506D01*
X18237337Y-11256153D02*
X18640353Y-11256153D01*
X21601506Y-9790000D02*
X21735000Y-9656506D01*
X20551588Y-9015000D02*
X20358921Y-8822333D01*
X21735000Y-9263494D02*
X21486506Y-9015000D01*
D13*
X17906153Y-11256153D02*
X17620000Y-10970000D01*
X18237337Y-11256153D02*
X17906153Y-11256153D01*
G04 #@! TO.N,/LP_CSI_D1_OUT_P*
X12031999Y-15223501D02*
X11803500Y-15452000D01*
X12379117Y-14876383D02*
X12031999Y-15223501D01*
X15094565Y-14876383D02*
X12379117Y-14876383D01*
X15319043Y-15100861D02*
X15094565Y-14876383D01*
X18489139Y-15100861D02*
X15319043Y-15100861D01*
X20639681Y-5866499D02*
X22590000Y-7816818D01*
X17836178Y-4360037D02*
X19342640Y-5866499D01*
X17170037Y-4360037D02*
X17836178Y-4360037D01*
X21710000Y-11260000D02*
X20590000Y-12380000D01*
X22210000Y-11260000D02*
X21710000Y-11260000D01*
X22590000Y-7816818D02*
X22590000Y-10880000D01*
X20590000Y-13000000D02*
X18489139Y-15100861D01*
X19342640Y-5866499D02*
X20639681Y-5866499D01*
X22590000Y-10880000D02*
X22210000Y-11260000D01*
X20590000Y-12380000D02*
X20590000Y-13000000D01*
G04 #@! TO.N,/LP_CSI_D1_OUT_N*
X12508499Y-18363001D02*
X12280000Y-18591500D01*
X12773681Y-18363001D02*
X12508499Y-18363001D01*
X14476682Y-16660000D02*
X12773681Y-18363001D01*
X16600000Y-16660000D02*
X14476682Y-16660000D01*
X16600000Y-16660000D02*
X16520000Y-16660000D01*
X17374182Y-16660000D02*
X16600000Y-16660000D01*
X22765011Y-11269171D02*
X17374182Y-16660000D01*
X22765011Y-7744327D02*
X22765011Y-11269171D01*
X17500000Y-3850000D02*
X17573643Y-3850000D01*
X17573643Y-3850000D02*
X19415131Y-5691488D01*
X19415131Y-5691488D02*
X20712172Y-5691488D01*
X20712172Y-5691488D02*
X22765011Y-7744327D01*
G04 #@! TO.N,/CSI_INT*
X11283648Y-16639883D02*
X9753530Y-18170001D01*
X11283648Y-14921634D02*
X11283648Y-16639883D01*
G04 #@! TO.N,/PIO14*
X16069681Y-3483501D02*
X15483501Y-3483501D01*
X16810000Y-4223820D02*
X16069681Y-3483501D01*
X16810000Y-7230000D02*
X16810000Y-4223820D01*
X15483501Y-3483501D02*
X15430000Y-3430000D01*
G04 #@! TO.N,/PIO13*
X13741367Y-1579040D02*
X15300960Y-1579040D01*
X21198575Y-1001075D02*
X23890000Y-3692500D01*
X15878925Y-1001075D02*
X21198575Y-1001075D01*
X15300960Y-1579040D02*
X15878925Y-1001075D01*
X23890000Y-3692500D02*
X23890000Y-12110000D01*
X23890000Y-12110000D02*
X22360000Y-13640000D01*
X22360000Y-13640000D02*
X21800000Y-13640000D01*
X21800000Y-13640000D02*
X21260000Y-14180000D01*
X21260000Y-14670000D02*
X21230000Y-14700000D01*
X21260000Y-14180000D02*
X21260000Y-14670000D01*
G04 #@! TD*
M02*
