G04 #@! TF.GenerationSoftware,KiCad,Pcbnew,5.0.2+dfsg1-1~bpo9+1*
G04 #@! TF.CreationDate,2019-11-05T12:23:44+01:00*
G04 #@! TF.ProjectId,zglue-jade-adapter,7a676c75-652d-46a6-9164-652d61646170,rev?*
G04 #@! TF.SameCoordinates,Original*
G04 #@! TF.FileFunction,Other,User*
%FSLAX46Y46*%
G04 Gerber Fmt 4.6, Leading zero omitted, Abs format (unit mm)*
G04 Created by KiCad (PCBNEW 5.0.2+dfsg1-1~bpo9+1) date Tue 05 Nov 2019 12:23:44 PM CET*
%MOMM*%
%LPD*%
G01*
G04 APERTURE LIST*
%ADD10C,0.050000*%
G04 APERTURE END LIST*
D10*
G04 #@! TO.C,R30*
X17160000Y-6600000D02*
X17160000Y-5660000D01*
X17160000Y-5660000D02*
X19020000Y-5660000D01*
X19020000Y-5660000D02*
X19020000Y-6600000D01*
X19020000Y-6600000D02*
X17160000Y-6600000D01*
G04 #@! TO.C,R31*
X19030000Y-5710000D02*
X20890000Y-5710000D01*
X19030000Y-6650000D02*
X19030000Y-5710000D01*
X20890000Y-6650000D02*
X19030000Y-6650000D01*
X20890000Y-5710000D02*
X20890000Y-6650000D01*
G04 #@! TO.C,R29*
X7695000Y-3975000D02*
X7695000Y-4915000D01*
X7695000Y-4915000D02*
X5835000Y-4915000D01*
X5835000Y-4915000D02*
X5835000Y-3975000D01*
X5835000Y-3975000D02*
X7695000Y-3975000D01*
G04 #@! TO.C,C6*
X19025000Y-12595000D02*
X18085000Y-12595000D01*
X18085000Y-12595000D02*
X18085000Y-10735000D01*
X18085000Y-10735000D02*
X19025000Y-10735000D01*
X19025000Y-10735000D02*
X19025000Y-12595000D01*
G04 #@! TO.C,R23*
X15950000Y-11560000D02*
X15950000Y-10620000D01*
X15950000Y-10620000D02*
X17810000Y-10620000D01*
X17810000Y-10620000D02*
X17810000Y-11560000D01*
X17810000Y-11560000D02*
X15950000Y-11560000D01*
G04 #@! TO.C,R15*
X20820000Y-4720000D02*
X20820000Y-3780000D01*
X20820000Y-3780000D02*
X22680000Y-3780000D01*
X22680000Y-3780000D02*
X22680000Y-4720000D01*
X22680000Y-4720000D02*
X20820000Y-4720000D01*
G04 #@! TO.C,R12*
X13200000Y-16570000D02*
X12260000Y-16570000D01*
X12260000Y-16570000D02*
X12260000Y-14710000D01*
X12260000Y-14710000D02*
X13200000Y-14710000D01*
X13200000Y-14710000D02*
X13200000Y-16570000D01*
G04 #@! TO.C,R10*
X6935000Y-7815000D02*
X5075000Y-7815000D01*
X6935000Y-6875000D02*
X6935000Y-7815000D01*
X5075000Y-6875000D02*
X6935000Y-6875000D01*
X5075000Y-7815000D02*
X5075000Y-6875000D01*
G04 #@! TO.C,R6*
X12775000Y-1660000D02*
X13715000Y-1660000D01*
X13715000Y-1660000D02*
X13715000Y-3520000D01*
X13715000Y-3520000D02*
X12775000Y-3520000D01*
X12775000Y-3520000D02*
X12775000Y-1660000D01*
G04 #@! TO.C,R27*
X19025000Y-7165000D02*
X20885000Y-7165000D01*
X19025000Y-8105000D02*
X19025000Y-7165000D01*
X20885000Y-8105000D02*
X19025000Y-8105000D01*
X20885000Y-7165000D02*
X20885000Y-8105000D01*
G04 #@! TO.C,R28*
X14525000Y-16745000D02*
X13585000Y-16745000D01*
X13585000Y-16745000D02*
X13585000Y-14885000D01*
X13585000Y-14885000D02*
X14525000Y-14885000D01*
X14525000Y-14885000D02*
X14525000Y-16745000D01*
G04 #@! TO.C,R13*
X16435000Y-15785000D02*
X14575000Y-15785000D01*
X16435000Y-14845000D02*
X16435000Y-15785000D01*
X14575000Y-14845000D02*
X16435000Y-14845000D01*
X14575000Y-15785000D02*
X14575000Y-14845000D01*
G04 #@! TO.C,R25*
X19010000Y-4755000D02*
X19950000Y-4755000D01*
X19950000Y-4755000D02*
X19950000Y-6615000D01*
X19950000Y-6615000D02*
X19010000Y-6615000D01*
X19010000Y-6615000D02*
X19010000Y-4755000D01*
G04 #@! TO.C,R24*
X17810000Y-12510000D02*
X15950000Y-12510000D01*
X17810000Y-11570000D02*
X17810000Y-12510000D01*
X15950000Y-11570000D02*
X17810000Y-11570000D01*
X15950000Y-12510000D02*
X15950000Y-11570000D01*
G04 #@! TO.C,R14*
X18095000Y-6595000D02*
X18095000Y-4735000D01*
X19035000Y-6595000D02*
X18095000Y-6595000D01*
X19035000Y-4735000D02*
X19035000Y-6595000D01*
X18095000Y-4735000D02*
X19035000Y-4735000D01*
G04 #@! TO.C,R26*
X19055000Y-7165000D02*
X19055000Y-8105000D01*
X19055000Y-8105000D02*
X17195000Y-8105000D01*
X17195000Y-8105000D02*
X17195000Y-7165000D01*
X17195000Y-7165000D02*
X19055000Y-7165000D01*
G04 #@! TO.C,C11*
X5705000Y-14725000D02*
X5705000Y-14865000D01*
X7125000Y-14725000D02*
X7125000Y-14865000D01*
X7125000Y-12505000D02*
X7125000Y-12365000D01*
X5705000Y-12505000D02*
X5705000Y-12365000D01*
X7125000Y-12505000D02*
X7125000Y-14725000D01*
X7125000Y-14865000D02*
X5705000Y-14865000D01*
X5705000Y-14725000D02*
X5705000Y-12505000D01*
X5705000Y-12365000D02*
X7125000Y-12365000D01*
G04 #@! TO.C,C7*
X18771000Y-10555000D02*
X17831000Y-10555000D01*
X17831000Y-10555000D02*
X17831000Y-8695000D01*
X17831000Y-8695000D02*
X18771000Y-8695000D01*
X18771000Y-8695000D02*
X18771000Y-10555000D01*
G04 #@! TO.C,C5*
X17335000Y-12685000D02*
X18275000Y-12685000D01*
X18275000Y-12685000D02*
X18275000Y-14545000D01*
X18275000Y-14545000D02*
X17335000Y-14545000D01*
X17335000Y-14545000D02*
X17335000Y-12685000D01*
G04 #@! TO.C,C4*
X11885000Y-16485000D02*
X12825000Y-16485000D01*
X12825000Y-16485000D02*
X12825000Y-18345000D01*
X12825000Y-18345000D02*
X11885000Y-18345000D01*
X11885000Y-18345000D02*
X11885000Y-16485000D01*
G04 #@! TO.C,C3*
X13810000Y-16810000D02*
X14750000Y-16810000D01*
X14750000Y-16810000D02*
X14750000Y-18670000D01*
X14750000Y-18670000D02*
X13810000Y-18670000D01*
X13810000Y-18670000D02*
X13810000Y-16810000D01*
G04 #@! TO.C,C2*
X10946000Y-15879000D02*
X11886000Y-15879000D01*
X11886000Y-15879000D02*
X11886000Y-17739000D01*
X11886000Y-17739000D02*
X10946000Y-17739000D01*
X10946000Y-17739000D02*
X10946000Y-15879000D01*
G04 #@! TO.C,C10*
X9735000Y-15885000D02*
X10675000Y-15885000D01*
X10675000Y-15885000D02*
X10675000Y-17745000D01*
X10675000Y-17745000D02*
X9735000Y-17745000D01*
X9735000Y-17745000D02*
X9735000Y-15885000D01*
G04 #@! TO.C,C14*
X6782000Y-8839000D02*
X6782000Y-9779000D01*
X6782000Y-9779000D02*
X4922000Y-9779000D01*
X4922000Y-9779000D02*
X4922000Y-8839000D01*
X4922000Y-8839000D02*
X6782000Y-8839000D01*
G04 #@! TO.C,C1*
X7442000Y-12850000D02*
X8382000Y-12850000D01*
X8382000Y-12850000D02*
X8382000Y-14710000D01*
X8382000Y-14710000D02*
X7442000Y-14710000D01*
X7442000Y-14710000D02*
X7442000Y-12850000D01*
G04 #@! TO.C,R11*
X2785000Y-13535000D02*
X2785000Y-12595000D01*
X2785000Y-12595000D02*
X4645000Y-12595000D01*
X4645000Y-12595000D02*
X4645000Y-13535000D01*
X4645000Y-13535000D02*
X2785000Y-13535000D01*
G04 #@! TO.C,R9*
X4922000Y-11809000D02*
X4922000Y-10869000D01*
X4922000Y-10869000D02*
X6782000Y-10869000D01*
X6782000Y-10869000D02*
X6782000Y-11809000D01*
X6782000Y-11809000D02*
X4922000Y-11809000D01*
G04 #@! TO.C,R8*
X4071000Y-16531000D02*
X4071000Y-15591000D01*
X4071000Y-15591000D02*
X5931000Y-15591000D01*
X5931000Y-15591000D02*
X5931000Y-16531000D01*
X5931000Y-16531000D02*
X4071000Y-16531000D01*
G04 #@! TO.C,R7*
X4061000Y-15441000D02*
X4061000Y-14501000D01*
X4061000Y-14501000D02*
X5921000Y-14501000D01*
X5921000Y-14501000D02*
X5921000Y-15441000D01*
X5921000Y-15441000D02*
X4061000Y-15441000D01*
G04 #@! TO.C,R5*
X13855000Y-1655000D02*
X14795000Y-1655000D01*
X14795000Y-1655000D02*
X14795000Y-3515000D01*
X14795000Y-3515000D02*
X13855000Y-3515000D01*
X13855000Y-3515000D02*
X13855000Y-1655000D01*
G04 #@! TO.C,R4*
X12735000Y-17685000D02*
X13675000Y-17685000D01*
X13675000Y-17685000D02*
X13675000Y-19545000D01*
X13675000Y-19545000D02*
X12735000Y-19545000D01*
X12735000Y-19545000D02*
X12735000Y-17685000D01*
G04 #@! TO.C,R3*
X18775000Y-8705000D02*
X19715000Y-8705000D01*
X19715000Y-8705000D02*
X19715000Y-10565000D01*
X19715000Y-10565000D02*
X18775000Y-10565000D01*
X18775000Y-10565000D02*
X18775000Y-8705000D01*
G04 #@! TO.C,R2*
X17005000Y-18330000D02*
X16065000Y-18330000D01*
X16065000Y-18330000D02*
X16065000Y-16470000D01*
X16065000Y-16470000D02*
X17005000Y-16470000D01*
X17005000Y-16470000D02*
X17005000Y-18330000D01*
G04 #@! TO.C,R1*
X18335000Y-12685000D02*
X19275000Y-12685000D01*
X19275000Y-12685000D02*
X19275000Y-14545000D01*
X19275000Y-14545000D02*
X18335000Y-14545000D01*
X18335000Y-14545000D02*
X18335000Y-12685000D01*
G04 #@! TO.C,C15*
X6782000Y-9859000D02*
X6782000Y-10799000D01*
X6782000Y-10799000D02*
X4922000Y-10799000D01*
X4922000Y-10799000D02*
X4922000Y-9859000D01*
X4922000Y-9859000D02*
X6782000Y-9859000D01*
G04 #@! TO.C,C9*
X6907000Y-10806000D02*
X7847000Y-10806000D01*
X7847000Y-10806000D02*
X7847000Y-12666000D01*
X7847000Y-12666000D02*
X6907000Y-12666000D01*
X6907000Y-12666000D02*
X6907000Y-10806000D01*
G04 #@! TO.C,R22*
X20820000Y-11720000D02*
X20820000Y-10780000D01*
X20820000Y-10780000D02*
X22680000Y-10780000D01*
X22680000Y-10780000D02*
X22680000Y-11720000D01*
X22680000Y-11720000D02*
X20820000Y-11720000D01*
G04 #@! TO.C,R21*
X20820000Y-10720000D02*
X20820000Y-9780000D01*
X20820000Y-9780000D02*
X22680000Y-9780000D01*
X22680000Y-9780000D02*
X22680000Y-10720000D01*
X22680000Y-10720000D02*
X20820000Y-10720000D01*
G04 #@! TO.C,R20*
X20820000Y-9720000D02*
X20820000Y-8780000D01*
X20820000Y-8780000D02*
X22680000Y-8780000D01*
X22680000Y-8780000D02*
X22680000Y-9720000D01*
X22680000Y-9720000D02*
X20820000Y-9720000D01*
G04 #@! TO.C,R19*
X20820000Y-8720000D02*
X20820000Y-7780000D01*
X20820000Y-7780000D02*
X22680000Y-7780000D01*
X22680000Y-7780000D02*
X22680000Y-8720000D01*
X22680000Y-8720000D02*
X20820000Y-8720000D01*
G04 #@! TO.C,R18*
X20820000Y-7720000D02*
X20820000Y-6780000D01*
X20820000Y-6780000D02*
X22680000Y-6780000D01*
X22680000Y-6780000D02*
X22680000Y-7720000D01*
X22680000Y-7720000D02*
X20820000Y-7720000D01*
G04 #@! TO.C,R17*
X20820000Y-6720000D02*
X20820000Y-5780000D01*
X20820000Y-5780000D02*
X22680000Y-5780000D01*
X22680000Y-5780000D02*
X22680000Y-6720000D01*
X22680000Y-6720000D02*
X20820000Y-6720000D01*
G04 #@! TO.C,R16*
X20820000Y-5720000D02*
X20820000Y-4780000D01*
X20820000Y-4780000D02*
X22680000Y-4780000D01*
X22680000Y-4780000D02*
X22680000Y-5720000D01*
X22680000Y-5720000D02*
X20820000Y-5720000D01*
G04 #@! TD*
M02*
