G04 #@! TF.GenerationSoftware,KiCad,Pcbnew,5.0.2+dfsg1-1~bpo9+1*
G04 #@! TF.CreationDate,2019-10-30T13:33:32+01:00*
G04 #@! TF.ProjectId,zglue-jade-adapter,7a676c75-652d-46a6-9164-652d61646170,rev?*
G04 #@! TF.SameCoordinates,Original*
G04 #@! TF.FileFunction,Soldermask,Top*
G04 #@! TF.FilePolarity,Negative*
%FSLAX46Y46*%
G04 Gerber Fmt 4.6, Leading zero omitted, Abs format (unit mm)*
G04 Created by KiCad (PCBNEW 5.0.2+dfsg1-1~bpo9+1) date Wed 30 Oct 2019 01:33:32 PM CET*
%MOMM*%
%LPD*%
G01*
G04 APERTURE LIST*
%ADD10C,0.100000*%
G04 APERTURE END LIST*
D10*
G36*
X925719Y-18654374D02*
X925722Y-18654375D01*
X925721Y-18654375D01*
X1025996Y-18695910D01*
X1116242Y-18756210D01*
X1192990Y-18832958D01*
X1253290Y-18923204D01*
X1253290Y-18923205D01*
X1294826Y-19023481D01*
X1316000Y-19129930D01*
X1316000Y-19238470D01*
X1294826Y-19344919D01*
X1294825Y-19344921D01*
X1253290Y-19445196D01*
X1192990Y-19535442D01*
X1116242Y-19612190D01*
X1025996Y-19672490D01*
X955090Y-19701860D01*
X925719Y-19714026D01*
X819270Y-19735200D01*
X710730Y-19735200D01*
X604281Y-19714026D01*
X574910Y-19701860D01*
X504004Y-19672490D01*
X413758Y-19612190D01*
X337010Y-19535442D01*
X276710Y-19445196D01*
X235175Y-19344921D01*
X235174Y-19344919D01*
X214000Y-19238470D01*
X214000Y-19129930D01*
X235174Y-19023481D01*
X276710Y-18923205D01*
X276710Y-18923204D01*
X337010Y-18832958D01*
X413758Y-18756210D01*
X504004Y-18695910D01*
X604279Y-18654375D01*
X604278Y-18654375D01*
X604281Y-18654374D01*
X710730Y-18633200D01*
X819270Y-18633200D01*
X925719Y-18654374D01*
X925719Y-18654374D01*
G37*
G36*
X8811519Y-18400174D02*
X8811522Y-18400175D01*
X8811521Y-18400175D01*
X8911796Y-18441710D01*
X9002042Y-18502010D01*
X9078790Y-18578758D01*
X9139090Y-18669004D01*
X9139090Y-18669005D01*
X9180626Y-18769281D01*
X9201800Y-18875730D01*
X9201800Y-18984270D01*
X9180626Y-19090719D01*
X9180625Y-19090721D01*
X9139090Y-19190996D01*
X9078790Y-19281242D01*
X9002042Y-19357990D01*
X8911796Y-19418290D01*
X8852336Y-19442919D01*
X8811519Y-19459826D01*
X8705070Y-19481000D01*
X8596530Y-19481000D01*
X8490081Y-19459826D01*
X8449264Y-19442919D01*
X8389804Y-19418290D01*
X8299558Y-19357990D01*
X8222810Y-19281242D01*
X8162510Y-19190996D01*
X8120975Y-19090721D01*
X8120974Y-19090719D01*
X8099800Y-18984270D01*
X8099800Y-18875730D01*
X8120974Y-18769281D01*
X8162510Y-18669005D01*
X8162510Y-18669004D01*
X8222810Y-18578758D01*
X8299558Y-18502010D01*
X8389804Y-18441710D01*
X8490079Y-18400175D01*
X8490078Y-18400175D01*
X8490081Y-18400174D01*
X8596530Y-18379000D01*
X8705070Y-18379000D01*
X8811519Y-18400174D01*
X8811519Y-18400174D01*
G37*
G36*
X13456825Y-18757081D02*
X13484546Y-18765490D01*
X13510089Y-18779143D01*
X13532481Y-18797519D01*
X13550857Y-18819911D01*
X13564510Y-18845454D01*
X13572919Y-18873175D01*
X13576000Y-18904454D01*
X13576000Y-19295546D01*
X13572919Y-19326825D01*
X13564510Y-19354546D01*
X13550857Y-19380089D01*
X13532481Y-19402481D01*
X13510089Y-19420857D01*
X13484546Y-19434510D01*
X13456825Y-19442919D01*
X13425546Y-19446000D01*
X12984454Y-19446000D01*
X12953175Y-19442919D01*
X12925454Y-19434510D01*
X12899911Y-19420857D01*
X12877519Y-19402481D01*
X12859143Y-19380089D01*
X12845490Y-19354546D01*
X12837081Y-19326825D01*
X12834000Y-19295546D01*
X12834000Y-18904454D01*
X12837081Y-18873175D01*
X12845490Y-18845454D01*
X12859143Y-18819911D01*
X12877519Y-18797519D01*
X12899911Y-18779143D01*
X12925454Y-18765490D01*
X12953175Y-18757081D01*
X12984454Y-18754000D01*
X13425546Y-18754000D01*
X13456825Y-18757081D01*
X13456825Y-18757081D01*
G37*
G36*
X14531825Y-17882081D02*
X14559546Y-17890490D01*
X14585089Y-17904143D01*
X14607481Y-17922519D01*
X14625857Y-17944911D01*
X14639510Y-17970454D01*
X14647919Y-17998175D01*
X14651000Y-18029454D01*
X14651000Y-18420546D01*
X14647919Y-18451825D01*
X14639510Y-18479546D01*
X14625857Y-18505089D01*
X14607481Y-18527481D01*
X14585089Y-18545857D01*
X14559546Y-18559510D01*
X14531825Y-18567919D01*
X14500546Y-18571000D01*
X14059454Y-18571000D01*
X14028175Y-18567919D01*
X14000454Y-18559510D01*
X13974911Y-18545857D01*
X13952519Y-18527481D01*
X13934143Y-18505089D01*
X13920490Y-18479546D01*
X13912081Y-18451825D01*
X13909000Y-18420546D01*
X13909000Y-18029454D01*
X13912081Y-17998175D01*
X13920490Y-17970454D01*
X13934143Y-17944911D01*
X13952519Y-17922519D01*
X13974911Y-17904143D01*
X14000454Y-17890490D01*
X14028175Y-17882081D01*
X14059454Y-17879000D01*
X14500546Y-17879000D01*
X14531825Y-17882081D01*
X14531825Y-17882081D01*
G37*
G36*
X13456825Y-17787081D02*
X13484546Y-17795490D01*
X13510089Y-17809143D01*
X13532481Y-17827519D01*
X13550857Y-17849911D01*
X13564510Y-17875454D01*
X13572919Y-17903175D01*
X13576000Y-17934454D01*
X13576000Y-18325546D01*
X13572919Y-18356825D01*
X13564510Y-18384546D01*
X13550857Y-18410089D01*
X13532481Y-18432481D01*
X13510089Y-18450857D01*
X13484546Y-18464510D01*
X13456825Y-18472919D01*
X13425546Y-18476000D01*
X12984454Y-18476000D01*
X12953175Y-18472919D01*
X12925454Y-18464510D01*
X12899911Y-18450857D01*
X12877519Y-18432481D01*
X12859143Y-18410089D01*
X12845490Y-18384546D01*
X12837081Y-18356825D01*
X12834000Y-18325546D01*
X12834000Y-17934454D01*
X12837081Y-17903175D01*
X12845490Y-17875454D01*
X12859143Y-17849911D01*
X12877519Y-17827519D01*
X12899911Y-17809143D01*
X12925454Y-17795490D01*
X12953175Y-17787081D01*
X12984454Y-17784000D01*
X13425546Y-17784000D01*
X13456825Y-17787081D01*
X13456825Y-17787081D01*
G37*
G36*
X12606825Y-17557081D02*
X12634546Y-17565490D01*
X12660089Y-17579143D01*
X12682481Y-17597519D01*
X12700857Y-17619911D01*
X12714510Y-17645454D01*
X12722919Y-17673175D01*
X12726000Y-17704454D01*
X12726000Y-18095546D01*
X12722919Y-18126825D01*
X12714510Y-18154546D01*
X12700857Y-18180089D01*
X12682481Y-18202481D01*
X12660089Y-18220857D01*
X12634546Y-18234510D01*
X12606825Y-18242919D01*
X12575546Y-18246000D01*
X12134454Y-18246000D01*
X12103175Y-18242919D01*
X12075454Y-18234510D01*
X12049911Y-18220857D01*
X12027519Y-18202481D01*
X12009143Y-18180089D01*
X11995490Y-18154546D01*
X11987081Y-18126825D01*
X11984000Y-18095546D01*
X11984000Y-17704454D01*
X11987081Y-17673175D01*
X11995490Y-17645454D01*
X12009143Y-17619911D01*
X12027519Y-17597519D01*
X12049911Y-17579143D01*
X12075454Y-17565490D01*
X12103175Y-17557081D01*
X12134454Y-17554000D01*
X12575546Y-17554000D01*
X12606825Y-17557081D01*
X12606825Y-17557081D01*
G37*
G36*
X16786825Y-17542081D02*
X16814546Y-17550490D01*
X16840089Y-17564143D01*
X16862481Y-17582519D01*
X16880857Y-17604911D01*
X16894510Y-17630454D01*
X16902919Y-17658175D01*
X16906000Y-17689454D01*
X16906000Y-18080546D01*
X16902919Y-18111825D01*
X16894510Y-18139546D01*
X16880857Y-18165089D01*
X16862481Y-18187481D01*
X16840089Y-18205857D01*
X16814546Y-18219510D01*
X16786825Y-18227919D01*
X16755546Y-18231000D01*
X16314454Y-18231000D01*
X16283175Y-18227919D01*
X16255454Y-18219510D01*
X16229911Y-18205857D01*
X16207519Y-18187481D01*
X16189143Y-18165089D01*
X16175490Y-18139546D01*
X16167081Y-18111825D01*
X16164000Y-18080546D01*
X16164000Y-17689454D01*
X16167081Y-17658175D01*
X16175490Y-17630454D01*
X16189143Y-17604911D01*
X16207519Y-17582519D01*
X16229911Y-17564143D01*
X16255454Y-17550490D01*
X16283175Y-17542081D01*
X16314454Y-17539000D01*
X16755546Y-17539000D01*
X16786825Y-17542081D01*
X16786825Y-17542081D01*
G37*
G36*
X18040719Y-16959374D02*
X18040722Y-16959375D01*
X18040721Y-16959375D01*
X18140996Y-17000910D01*
X18231242Y-17061210D01*
X18307990Y-17137958D01*
X18368290Y-17228204D01*
X18397660Y-17299110D01*
X18409826Y-17328481D01*
X18431000Y-17434930D01*
X18431000Y-17543470D01*
X18409826Y-17649919D01*
X18400193Y-17673175D01*
X18368290Y-17750196D01*
X18307990Y-17840442D01*
X18231242Y-17917190D01*
X18140996Y-17977490D01*
X18070090Y-18006860D01*
X18040719Y-18019026D01*
X17934270Y-18040200D01*
X17825730Y-18040200D01*
X17719281Y-18019026D01*
X17689910Y-18006860D01*
X17619004Y-17977490D01*
X17528758Y-17917190D01*
X17452010Y-17840442D01*
X17391710Y-17750196D01*
X17359807Y-17673175D01*
X17350174Y-17649919D01*
X17329000Y-17543470D01*
X17329000Y-17434930D01*
X17350174Y-17328481D01*
X17362340Y-17299110D01*
X17391710Y-17228204D01*
X17452010Y-17137958D01*
X17528758Y-17061210D01*
X17619004Y-17000910D01*
X17719279Y-16959375D01*
X17719278Y-16959375D01*
X17719281Y-16959374D01*
X17825730Y-16938200D01*
X17934270Y-16938200D01*
X18040719Y-16959374D01*
X18040719Y-16959374D01*
G37*
G36*
X3740719Y-16760974D02*
X3740722Y-16760975D01*
X3740721Y-16760975D01*
X3840996Y-16802510D01*
X3931242Y-16862810D01*
X4007990Y-16939558D01*
X4068290Y-17029804D01*
X4083769Y-17067175D01*
X4109826Y-17130081D01*
X4131000Y-17236530D01*
X4131000Y-17345070D01*
X4109826Y-17451519D01*
X4100928Y-17473000D01*
X4068290Y-17551796D01*
X4007990Y-17642042D01*
X3931242Y-17718790D01*
X3840996Y-17779090D01*
X3797349Y-17797169D01*
X3740719Y-17820626D01*
X3634270Y-17841800D01*
X3525730Y-17841800D01*
X3419281Y-17820626D01*
X3362651Y-17797169D01*
X3319004Y-17779090D01*
X3228758Y-17718790D01*
X3152010Y-17642042D01*
X3091710Y-17551796D01*
X3059072Y-17473000D01*
X3050174Y-17451519D01*
X3029000Y-17345070D01*
X3029000Y-17236530D01*
X3050174Y-17130081D01*
X3076231Y-17067175D01*
X3091710Y-17029804D01*
X3152010Y-16939558D01*
X3228758Y-16862810D01*
X3319004Y-16802510D01*
X3419279Y-16760975D01*
X3419278Y-16760975D01*
X3419281Y-16760974D01*
X3525730Y-16739800D01*
X3634270Y-16739800D01*
X3740719Y-16760974D01*
X3740719Y-16760974D01*
G37*
G36*
X8163119Y-16760974D02*
X8163122Y-16760975D01*
X8163121Y-16760975D01*
X8263396Y-16802510D01*
X8353642Y-16862810D01*
X8430390Y-16939558D01*
X8490690Y-17029804D01*
X8506169Y-17067175D01*
X8532226Y-17130081D01*
X8553400Y-17236530D01*
X8553400Y-17345070D01*
X8532226Y-17451519D01*
X8523328Y-17473000D01*
X8490690Y-17551796D01*
X8430390Y-17642042D01*
X8353642Y-17718790D01*
X8263396Y-17779090D01*
X8219749Y-17797169D01*
X8163119Y-17820626D01*
X8056670Y-17841800D01*
X7948130Y-17841800D01*
X7841681Y-17820626D01*
X7785051Y-17797169D01*
X7741404Y-17779090D01*
X7651158Y-17718790D01*
X7574410Y-17642042D01*
X7514110Y-17551796D01*
X7481472Y-17473000D01*
X7472574Y-17451519D01*
X7451400Y-17345070D01*
X7451400Y-17236530D01*
X7472574Y-17130081D01*
X7498631Y-17067175D01*
X7514110Y-17029804D01*
X7574410Y-16939558D01*
X7651158Y-16862810D01*
X7741404Y-16802510D01*
X7841679Y-16760975D01*
X7841678Y-16760975D01*
X7841681Y-16760974D01*
X7948130Y-16739800D01*
X8056670Y-16739800D01*
X8163119Y-16760974D01*
X8163119Y-16760974D01*
G37*
G36*
X5170719Y-16760974D02*
X5170722Y-16760975D01*
X5170721Y-16760975D01*
X5270996Y-16802510D01*
X5361242Y-16862810D01*
X5437990Y-16939558D01*
X5498290Y-17029804D01*
X5513769Y-17067175D01*
X5539826Y-17130081D01*
X5561000Y-17236530D01*
X5561000Y-17345070D01*
X5539826Y-17451519D01*
X5530928Y-17473000D01*
X5498290Y-17551796D01*
X5437990Y-17642042D01*
X5361242Y-17718790D01*
X5270996Y-17779090D01*
X5227349Y-17797169D01*
X5170719Y-17820626D01*
X5064270Y-17841800D01*
X4955730Y-17841800D01*
X4849281Y-17820626D01*
X4792651Y-17797169D01*
X4749004Y-17779090D01*
X4658758Y-17718790D01*
X4582010Y-17642042D01*
X4521710Y-17551796D01*
X4489072Y-17473000D01*
X4480174Y-17451519D01*
X4459000Y-17345070D01*
X4459000Y-17236530D01*
X4480174Y-17130081D01*
X4506231Y-17067175D01*
X4521710Y-17029804D01*
X4582010Y-16939558D01*
X4658758Y-16862810D01*
X4749004Y-16802510D01*
X4849279Y-16760975D01*
X4849278Y-16760975D01*
X4849281Y-16760974D01*
X4955730Y-16739800D01*
X5064270Y-16739800D01*
X5170719Y-16760974D01*
X5170719Y-16760974D01*
G37*
G36*
X6680719Y-16760974D02*
X6680722Y-16760975D01*
X6680721Y-16760975D01*
X6780996Y-16802510D01*
X6871242Y-16862810D01*
X6947990Y-16939558D01*
X7008290Y-17029804D01*
X7023769Y-17067175D01*
X7049826Y-17130081D01*
X7071000Y-17236530D01*
X7071000Y-17345070D01*
X7049826Y-17451519D01*
X7040928Y-17473000D01*
X7008290Y-17551796D01*
X6947990Y-17642042D01*
X6871242Y-17718790D01*
X6780996Y-17779090D01*
X6737349Y-17797169D01*
X6680719Y-17820626D01*
X6574270Y-17841800D01*
X6465730Y-17841800D01*
X6359281Y-17820626D01*
X6302651Y-17797169D01*
X6259004Y-17779090D01*
X6168758Y-17718790D01*
X6092010Y-17642042D01*
X6031710Y-17551796D01*
X5999072Y-17473000D01*
X5990174Y-17451519D01*
X5969000Y-17345070D01*
X5969000Y-17236530D01*
X5990174Y-17130081D01*
X6016231Y-17067175D01*
X6031710Y-17029804D01*
X6092010Y-16939558D01*
X6168758Y-16862810D01*
X6259004Y-16802510D01*
X6359279Y-16760975D01*
X6359278Y-16760975D01*
X6359281Y-16760974D01*
X6465730Y-16739800D01*
X6574270Y-16739800D01*
X6680719Y-16760974D01*
X6680719Y-16760974D01*
G37*
G36*
X2360719Y-16760974D02*
X2360722Y-16760975D01*
X2360721Y-16760975D01*
X2460996Y-16802510D01*
X2551242Y-16862810D01*
X2627990Y-16939558D01*
X2688290Y-17029804D01*
X2703769Y-17067175D01*
X2729826Y-17130081D01*
X2751000Y-17236530D01*
X2751000Y-17345070D01*
X2729826Y-17451519D01*
X2720928Y-17473000D01*
X2688290Y-17551796D01*
X2627990Y-17642042D01*
X2551242Y-17718790D01*
X2460996Y-17779090D01*
X2417349Y-17797169D01*
X2360719Y-17820626D01*
X2254270Y-17841800D01*
X2145730Y-17841800D01*
X2039281Y-17820626D01*
X1982651Y-17797169D01*
X1939004Y-17779090D01*
X1848758Y-17718790D01*
X1772010Y-17642042D01*
X1711710Y-17551796D01*
X1679072Y-17473000D01*
X1670174Y-17451519D01*
X1649000Y-17345070D01*
X1649000Y-17236530D01*
X1670174Y-17130081D01*
X1696231Y-17067175D01*
X1711710Y-17029804D01*
X1772010Y-16939558D01*
X1848758Y-16862810D01*
X1939004Y-16802510D01*
X2039279Y-16760975D01*
X2039278Y-16760975D01*
X2039281Y-16760974D01*
X2145730Y-16739800D01*
X2254270Y-16739800D01*
X2360719Y-16760974D01*
X2360719Y-16760974D01*
G37*
G36*
X10456825Y-16957081D02*
X10484546Y-16965490D01*
X10510089Y-16979143D01*
X10532481Y-16997519D01*
X10550857Y-17019911D01*
X10564510Y-17045454D01*
X10572919Y-17073175D01*
X10576000Y-17104454D01*
X10576000Y-17495546D01*
X10572919Y-17526825D01*
X10564510Y-17554546D01*
X10550857Y-17580089D01*
X10532481Y-17602481D01*
X10510089Y-17620857D01*
X10484546Y-17634510D01*
X10456825Y-17642919D01*
X10425546Y-17646000D01*
X9984454Y-17646000D01*
X9953175Y-17642919D01*
X9925454Y-17634510D01*
X9899911Y-17620857D01*
X9877519Y-17602481D01*
X9859143Y-17580089D01*
X9845490Y-17554546D01*
X9837081Y-17526825D01*
X9834000Y-17495546D01*
X9834000Y-17104454D01*
X9837081Y-17073175D01*
X9845490Y-17045454D01*
X9859143Y-17019911D01*
X9877519Y-16997519D01*
X9899911Y-16979143D01*
X9925454Y-16965490D01*
X9953175Y-16957081D01*
X9984454Y-16954000D01*
X10425546Y-16954000D01*
X10456825Y-16957081D01*
X10456825Y-16957081D01*
G37*
G36*
X11667825Y-16951081D02*
X11695546Y-16959490D01*
X11721089Y-16973143D01*
X11743481Y-16991519D01*
X11761857Y-17013911D01*
X11775510Y-17039454D01*
X11783919Y-17067175D01*
X11787000Y-17098454D01*
X11787000Y-17489546D01*
X11783919Y-17520825D01*
X11775510Y-17548546D01*
X11761857Y-17574089D01*
X11743481Y-17596481D01*
X11721089Y-17614857D01*
X11695546Y-17628510D01*
X11667825Y-17636919D01*
X11636546Y-17640000D01*
X11195454Y-17640000D01*
X11164175Y-17636919D01*
X11136454Y-17628510D01*
X11110911Y-17614857D01*
X11088519Y-17596481D01*
X11070143Y-17574089D01*
X11056490Y-17548546D01*
X11048081Y-17520825D01*
X11045000Y-17489546D01*
X11045000Y-17098454D01*
X11048081Y-17067175D01*
X11056490Y-17039454D01*
X11070143Y-17013911D01*
X11088519Y-16991519D01*
X11110911Y-16973143D01*
X11136454Y-16959490D01*
X11164175Y-16951081D01*
X11195454Y-16948000D01*
X11636546Y-16948000D01*
X11667825Y-16951081D01*
X11667825Y-16951081D01*
G37*
G36*
X14531825Y-16912081D02*
X14559546Y-16920490D01*
X14585089Y-16934143D01*
X14607481Y-16952519D01*
X14625857Y-16974911D01*
X14639510Y-17000454D01*
X14647919Y-17028175D01*
X14651000Y-17059454D01*
X14651000Y-17450546D01*
X14647919Y-17481825D01*
X14639510Y-17509546D01*
X14625857Y-17535089D01*
X14607481Y-17557481D01*
X14585089Y-17575857D01*
X14559546Y-17589510D01*
X14531825Y-17597919D01*
X14500546Y-17601000D01*
X14059454Y-17601000D01*
X14028175Y-17597919D01*
X14000454Y-17589510D01*
X13974911Y-17575857D01*
X13952519Y-17557481D01*
X13934143Y-17535089D01*
X13920490Y-17509546D01*
X13912081Y-17481825D01*
X13909000Y-17450546D01*
X13909000Y-17059454D01*
X13912081Y-17028175D01*
X13920490Y-17000454D01*
X13934143Y-16974911D01*
X13952519Y-16952519D01*
X13974911Y-16934143D01*
X14000454Y-16920490D01*
X14028175Y-16912081D01*
X14059454Y-16909000D01*
X14500546Y-16909000D01*
X14531825Y-16912081D01*
X14531825Y-16912081D01*
G37*
G36*
X12606825Y-16587081D02*
X12634546Y-16595490D01*
X12660089Y-16609143D01*
X12682481Y-16627519D01*
X12700857Y-16649911D01*
X12714510Y-16675454D01*
X12722919Y-16703175D01*
X12726000Y-16734454D01*
X12726000Y-17125546D01*
X12722919Y-17156825D01*
X12714510Y-17184546D01*
X12700857Y-17210089D01*
X12682481Y-17232481D01*
X12660089Y-17250857D01*
X12634546Y-17264510D01*
X12606825Y-17272919D01*
X12575546Y-17276000D01*
X12134454Y-17276000D01*
X12103175Y-17272919D01*
X12075454Y-17264510D01*
X12049911Y-17250857D01*
X12027519Y-17232481D01*
X12009143Y-17210089D01*
X11995490Y-17184546D01*
X11987081Y-17156825D01*
X11984000Y-17125546D01*
X11984000Y-16734454D01*
X11987081Y-16703175D01*
X11995490Y-16675454D01*
X12009143Y-16649911D01*
X12027519Y-16627519D01*
X12049911Y-16609143D01*
X12075454Y-16595490D01*
X12103175Y-16587081D01*
X12134454Y-16584000D01*
X12575546Y-16584000D01*
X12606825Y-16587081D01*
X12606825Y-16587081D01*
G37*
G36*
X16786825Y-16572081D02*
X16814546Y-16580490D01*
X16840089Y-16594143D01*
X16862481Y-16612519D01*
X16880857Y-16634911D01*
X16894510Y-16660454D01*
X16902919Y-16688175D01*
X16906000Y-16719454D01*
X16906000Y-17110546D01*
X16902919Y-17141825D01*
X16894510Y-17169546D01*
X16880857Y-17195089D01*
X16862481Y-17217481D01*
X16840089Y-17235857D01*
X16814546Y-17249510D01*
X16786825Y-17257919D01*
X16755546Y-17261000D01*
X16314454Y-17261000D01*
X16283175Y-17257919D01*
X16255454Y-17249510D01*
X16229911Y-17235857D01*
X16207519Y-17217481D01*
X16189143Y-17195089D01*
X16175490Y-17169546D01*
X16167081Y-17141825D01*
X16164000Y-17110546D01*
X16164000Y-16719454D01*
X16167081Y-16688175D01*
X16175490Y-16660454D01*
X16189143Y-16634911D01*
X16207519Y-16612519D01*
X16229911Y-16594143D01*
X16255454Y-16580490D01*
X16283175Y-16572081D01*
X16314454Y-16569000D01*
X16755546Y-16569000D01*
X16786825Y-16572081D01*
X16786825Y-16572081D01*
G37*
G36*
X10456825Y-15987081D02*
X10484546Y-15995490D01*
X10510089Y-16009143D01*
X10532481Y-16027519D01*
X10550857Y-16049911D01*
X10564510Y-16075454D01*
X10572919Y-16103175D01*
X10576000Y-16134454D01*
X10576000Y-16525546D01*
X10572919Y-16556825D01*
X10564510Y-16584546D01*
X10550857Y-16610089D01*
X10532481Y-16632481D01*
X10510089Y-16650857D01*
X10484546Y-16664510D01*
X10456825Y-16672919D01*
X10425546Y-16676000D01*
X9984454Y-16676000D01*
X9953175Y-16672919D01*
X9925454Y-16664510D01*
X9899911Y-16650857D01*
X9877519Y-16632481D01*
X9859143Y-16610089D01*
X9845490Y-16584546D01*
X9837081Y-16556825D01*
X9834000Y-16525546D01*
X9834000Y-16134454D01*
X9837081Y-16103175D01*
X9845490Y-16075454D01*
X9859143Y-16049911D01*
X9877519Y-16027519D01*
X9899911Y-16009143D01*
X9925454Y-15995490D01*
X9953175Y-15987081D01*
X9984454Y-15984000D01*
X10425546Y-15984000D01*
X10456825Y-15987081D01*
X10456825Y-15987081D01*
G37*
G36*
X11667825Y-15981081D02*
X11695546Y-15989490D01*
X11721089Y-16003143D01*
X11743481Y-16021519D01*
X11761857Y-16043911D01*
X11775510Y-16069454D01*
X11783919Y-16097175D01*
X11787000Y-16128454D01*
X11787000Y-16519546D01*
X11783919Y-16550825D01*
X11775510Y-16578546D01*
X11761857Y-16604089D01*
X11743481Y-16626481D01*
X11721089Y-16644857D01*
X11695546Y-16658510D01*
X11667825Y-16666919D01*
X11636546Y-16670000D01*
X11195454Y-16670000D01*
X11164175Y-16666919D01*
X11136454Y-16658510D01*
X11110911Y-16644857D01*
X11088519Y-16626481D01*
X11070143Y-16604089D01*
X11056490Y-16578546D01*
X11048081Y-16550825D01*
X11045000Y-16519546D01*
X11045000Y-16128454D01*
X11048081Y-16097175D01*
X11056490Y-16069454D01*
X11070143Y-16043911D01*
X11088519Y-16021519D01*
X11110911Y-16003143D01*
X11136454Y-15989490D01*
X11164175Y-15981081D01*
X11195454Y-15978000D01*
X11636546Y-15978000D01*
X11667825Y-15981081D01*
X11667825Y-15981081D01*
G37*
G36*
X14306825Y-15957081D02*
X14334546Y-15965490D01*
X14360089Y-15979143D01*
X14382481Y-15997519D01*
X14400857Y-16019911D01*
X14414510Y-16045454D01*
X14422919Y-16073175D01*
X14426000Y-16104454D01*
X14426000Y-16495546D01*
X14422919Y-16526825D01*
X14414510Y-16554546D01*
X14400857Y-16580089D01*
X14382481Y-16602481D01*
X14360089Y-16620857D01*
X14334546Y-16634510D01*
X14306825Y-16642919D01*
X14275546Y-16646000D01*
X13834454Y-16646000D01*
X13803175Y-16642919D01*
X13775454Y-16634510D01*
X13749911Y-16620857D01*
X13727519Y-16602481D01*
X13709143Y-16580089D01*
X13695490Y-16554546D01*
X13687081Y-16526825D01*
X13684000Y-16495546D01*
X13684000Y-16104454D01*
X13687081Y-16073175D01*
X13695490Y-16045454D01*
X13709143Y-16019911D01*
X13727519Y-15997519D01*
X13749911Y-15979143D01*
X13775454Y-15965490D01*
X13803175Y-15957081D01*
X13834454Y-15954000D01*
X14275546Y-15954000D01*
X14306825Y-15957081D01*
X14306825Y-15957081D01*
G37*
G36*
X12981825Y-15782081D02*
X13009546Y-15790490D01*
X13035089Y-15804143D01*
X13057481Y-15822519D01*
X13075857Y-15844911D01*
X13089510Y-15870454D01*
X13097919Y-15898175D01*
X13101000Y-15929454D01*
X13101000Y-16320546D01*
X13097919Y-16351825D01*
X13089510Y-16379546D01*
X13075857Y-16405089D01*
X13057481Y-16427481D01*
X13035089Y-16445857D01*
X13009546Y-16459510D01*
X12981825Y-16467919D01*
X12950546Y-16471000D01*
X12509454Y-16471000D01*
X12478175Y-16467919D01*
X12450454Y-16459510D01*
X12424911Y-16445857D01*
X12402519Y-16427481D01*
X12384143Y-16405089D01*
X12370490Y-16379546D01*
X12362081Y-16351825D01*
X12359000Y-16320546D01*
X12359000Y-15929454D01*
X12362081Y-15898175D01*
X12370490Y-15870454D01*
X12384143Y-15844911D01*
X12402519Y-15822519D01*
X12424911Y-15804143D01*
X12450454Y-15790490D01*
X12478175Y-15782081D01*
X12509454Y-15779000D01*
X12950546Y-15779000D01*
X12981825Y-15782081D01*
X12981825Y-15782081D01*
G37*
G36*
X5712825Y-15693081D02*
X5740546Y-15701490D01*
X5766089Y-15715143D01*
X5788481Y-15733519D01*
X5806857Y-15755911D01*
X5820510Y-15781454D01*
X5828919Y-15809175D01*
X5832000Y-15840454D01*
X5832000Y-16281546D01*
X5828919Y-16312825D01*
X5820510Y-16340546D01*
X5806857Y-16366089D01*
X5788481Y-16388481D01*
X5766089Y-16406857D01*
X5740546Y-16420510D01*
X5712825Y-16428919D01*
X5681546Y-16432000D01*
X5290454Y-16432000D01*
X5259175Y-16428919D01*
X5231454Y-16420510D01*
X5205911Y-16406857D01*
X5183519Y-16388481D01*
X5165143Y-16366089D01*
X5151490Y-16340546D01*
X5143081Y-16312825D01*
X5140000Y-16281546D01*
X5140000Y-15840454D01*
X5143081Y-15809175D01*
X5151490Y-15781454D01*
X5165143Y-15755911D01*
X5183519Y-15733519D01*
X5205911Y-15715143D01*
X5231454Y-15701490D01*
X5259175Y-15693081D01*
X5290454Y-15690000D01*
X5681546Y-15690000D01*
X5712825Y-15693081D01*
X5712825Y-15693081D01*
G37*
G36*
X4742825Y-15693081D02*
X4770546Y-15701490D01*
X4796089Y-15715143D01*
X4818481Y-15733519D01*
X4836857Y-15755911D01*
X4850510Y-15781454D01*
X4858919Y-15809175D01*
X4862000Y-15840454D01*
X4862000Y-16281546D01*
X4858919Y-16312825D01*
X4850510Y-16340546D01*
X4836857Y-16366089D01*
X4818481Y-16388481D01*
X4796089Y-16406857D01*
X4770546Y-16420510D01*
X4742825Y-16428919D01*
X4711546Y-16432000D01*
X4320454Y-16432000D01*
X4289175Y-16428919D01*
X4261454Y-16420510D01*
X4235911Y-16406857D01*
X4213519Y-16388481D01*
X4195143Y-16366089D01*
X4181490Y-16340546D01*
X4173081Y-16312825D01*
X4170000Y-16281546D01*
X4170000Y-15840454D01*
X4173081Y-15809175D01*
X4181490Y-15781454D01*
X4195143Y-15755911D01*
X4213519Y-15733519D01*
X4235911Y-15715143D01*
X4261454Y-15701490D01*
X4289175Y-15693081D01*
X4320454Y-15690000D01*
X4711546Y-15690000D01*
X4742825Y-15693081D01*
X4742825Y-15693081D01*
G37*
G36*
X23995719Y-15174374D02*
X23995722Y-15174375D01*
X23995721Y-15174375D01*
X24095996Y-15215910D01*
X24186242Y-15276210D01*
X24262990Y-15352958D01*
X24323290Y-15443204D01*
X24347230Y-15501000D01*
X24364826Y-15543481D01*
X24386000Y-15649930D01*
X24386000Y-15758470D01*
X24364826Y-15864919D01*
X24364825Y-15864921D01*
X24323290Y-15965196D01*
X24262990Y-16055442D01*
X24186242Y-16132190D01*
X24095996Y-16192490D01*
X24025090Y-16221860D01*
X23995719Y-16234026D01*
X23889270Y-16255200D01*
X23780730Y-16255200D01*
X23674281Y-16234026D01*
X23644910Y-16221860D01*
X23574004Y-16192490D01*
X23483758Y-16132190D01*
X23407010Y-16055442D01*
X23346710Y-15965196D01*
X23305175Y-15864921D01*
X23305174Y-15864919D01*
X23284000Y-15758470D01*
X23284000Y-15649930D01*
X23305174Y-15543481D01*
X23322770Y-15501000D01*
X23346710Y-15443204D01*
X23407010Y-15352958D01*
X23483758Y-15276210D01*
X23574004Y-15215910D01*
X23674279Y-15174375D01*
X23674278Y-15174375D01*
X23674281Y-15174374D01*
X23780730Y-15153200D01*
X23889270Y-15153200D01*
X23995719Y-15174374D01*
X23995719Y-15174374D01*
G37*
G36*
X3260719Y-14650174D02*
X3290090Y-14662340D01*
X3360996Y-14691710D01*
X3451242Y-14752010D01*
X3527990Y-14828758D01*
X3588290Y-14919004D01*
X3603403Y-14955490D01*
X3629826Y-15019281D01*
X3651000Y-15125730D01*
X3651000Y-15234270D01*
X3629826Y-15340719D01*
X3629825Y-15340721D01*
X3588290Y-15440996D01*
X3527990Y-15531242D01*
X3451242Y-15607990D01*
X3360996Y-15668290D01*
X3325678Y-15682919D01*
X3260719Y-15709826D01*
X3154270Y-15731000D01*
X3045730Y-15731000D01*
X2939281Y-15709826D01*
X2874322Y-15682919D01*
X2839004Y-15668290D01*
X2748758Y-15607990D01*
X2672010Y-15531242D01*
X2611710Y-15440996D01*
X2570175Y-15340721D01*
X2570174Y-15340719D01*
X2549000Y-15234270D01*
X2549000Y-15125730D01*
X2570174Y-15019281D01*
X2596597Y-14955490D01*
X2611710Y-14919004D01*
X2672010Y-14828758D01*
X2748758Y-14752010D01*
X2839004Y-14691710D01*
X2909910Y-14662340D01*
X2939281Y-14650174D01*
X3045730Y-14629000D01*
X3154270Y-14629000D01*
X3260719Y-14650174D01*
X3260719Y-14650174D01*
G37*
G36*
X16216825Y-14947081D02*
X16244546Y-14955490D01*
X16270089Y-14969143D01*
X16292481Y-14987519D01*
X16310857Y-15009911D01*
X16324510Y-15035454D01*
X16332919Y-15063175D01*
X16336000Y-15094454D01*
X16336000Y-15535546D01*
X16332919Y-15566825D01*
X16324510Y-15594546D01*
X16310857Y-15620089D01*
X16292481Y-15642481D01*
X16270089Y-15660857D01*
X16244546Y-15674510D01*
X16216825Y-15682919D01*
X16185546Y-15686000D01*
X15794454Y-15686000D01*
X15763175Y-15682919D01*
X15735454Y-15674510D01*
X15709911Y-15660857D01*
X15687519Y-15642481D01*
X15669143Y-15620089D01*
X15655490Y-15594546D01*
X15647081Y-15566825D01*
X15644000Y-15535546D01*
X15644000Y-15094454D01*
X15647081Y-15063175D01*
X15655490Y-15035454D01*
X15669143Y-15009911D01*
X15687519Y-14987519D01*
X15709911Y-14969143D01*
X15735454Y-14955490D01*
X15763175Y-14947081D01*
X15794454Y-14944000D01*
X16185546Y-14944000D01*
X16216825Y-14947081D01*
X16216825Y-14947081D01*
G37*
G36*
X15246825Y-14947081D02*
X15274546Y-14955490D01*
X15300089Y-14969143D01*
X15322481Y-14987519D01*
X15340857Y-15009911D01*
X15354510Y-15035454D01*
X15362919Y-15063175D01*
X15366000Y-15094454D01*
X15366000Y-15535546D01*
X15362919Y-15566825D01*
X15354510Y-15594546D01*
X15340857Y-15620089D01*
X15322481Y-15642481D01*
X15300089Y-15660857D01*
X15274546Y-15674510D01*
X15246825Y-15682919D01*
X15215546Y-15686000D01*
X14824454Y-15686000D01*
X14793175Y-15682919D01*
X14765454Y-15674510D01*
X14739911Y-15660857D01*
X14717519Y-15642481D01*
X14699143Y-15620089D01*
X14685490Y-15594546D01*
X14677081Y-15566825D01*
X14674000Y-15535546D01*
X14674000Y-15094454D01*
X14677081Y-15063175D01*
X14685490Y-15035454D01*
X14699143Y-15009911D01*
X14717519Y-14987519D01*
X14739911Y-14969143D01*
X14765454Y-14955490D01*
X14793175Y-14947081D01*
X14824454Y-14944000D01*
X15215546Y-14944000D01*
X15246825Y-14947081D01*
X15246825Y-14947081D01*
G37*
G36*
X14306825Y-14987081D02*
X14334546Y-14995490D01*
X14360089Y-15009143D01*
X14382481Y-15027519D01*
X14400857Y-15049911D01*
X14414510Y-15075454D01*
X14422919Y-15103175D01*
X14426000Y-15134454D01*
X14426000Y-15525546D01*
X14422919Y-15556825D01*
X14414510Y-15584546D01*
X14400857Y-15610089D01*
X14382481Y-15632481D01*
X14360089Y-15650857D01*
X14334546Y-15664510D01*
X14306825Y-15672919D01*
X14275546Y-15676000D01*
X13834454Y-15676000D01*
X13803175Y-15672919D01*
X13775454Y-15664510D01*
X13749911Y-15650857D01*
X13727519Y-15632481D01*
X13709143Y-15610089D01*
X13695490Y-15584546D01*
X13687081Y-15556825D01*
X13684000Y-15525546D01*
X13684000Y-15134454D01*
X13687081Y-15103175D01*
X13695490Y-15075454D01*
X13709143Y-15049911D01*
X13727519Y-15027519D01*
X13749911Y-15009143D01*
X13775454Y-14995490D01*
X13803175Y-14987081D01*
X13834454Y-14984000D01*
X14275546Y-14984000D01*
X14306825Y-14987081D01*
X14306825Y-14987081D01*
G37*
G36*
X12981825Y-14812081D02*
X13009546Y-14820490D01*
X13035089Y-14834143D01*
X13057481Y-14852519D01*
X13075857Y-14874911D01*
X13089510Y-14900454D01*
X13097919Y-14928175D01*
X13101000Y-14959454D01*
X13101000Y-15350546D01*
X13097919Y-15381825D01*
X13089510Y-15409546D01*
X13075857Y-15435089D01*
X13057481Y-15457481D01*
X13035089Y-15475857D01*
X13009546Y-15489510D01*
X12981825Y-15497919D01*
X12950546Y-15501000D01*
X12509454Y-15501000D01*
X12478175Y-15497919D01*
X12450454Y-15489510D01*
X12424911Y-15475857D01*
X12402519Y-15457481D01*
X12384143Y-15435089D01*
X12370490Y-15409546D01*
X12362081Y-15381825D01*
X12359000Y-15350546D01*
X12359000Y-14959454D01*
X12362081Y-14928175D01*
X12370490Y-14900454D01*
X12384143Y-14874911D01*
X12402519Y-14852519D01*
X12424911Y-14834143D01*
X12450454Y-14820490D01*
X12478175Y-14812081D01*
X12509454Y-14809000D01*
X12950546Y-14809000D01*
X12981825Y-14812081D01*
X12981825Y-14812081D01*
G37*
G36*
X5702825Y-14603081D02*
X5730546Y-14611490D01*
X5756089Y-14625143D01*
X5778481Y-14643519D01*
X5796857Y-14665911D01*
X5810510Y-14691454D01*
X5818919Y-14719175D01*
X5822000Y-14750454D01*
X5822000Y-15191546D01*
X5818919Y-15222825D01*
X5810510Y-15250546D01*
X5796857Y-15276089D01*
X5778481Y-15298481D01*
X5756089Y-15316857D01*
X5730546Y-15330510D01*
X5702825Y-15338919D01*
X5671546Y-15342000D01*
X5280454Y-15342000D01*
X5249175Y-15338919D01*
X5221454Y-15330510D01*
X5195911Y-15316857D01*
X5173519Y-15298481D01*
X5155143Y-15276089D01*
X5141490Y-15250546D01*
X5133081Y-15222825D01*
X5130000Y-15191546D01*
X5130000Y-14750454D01*
X5133081Y-14719175D01*
X5141490Y-14691454D01*
X5155143Y-14665911D01*
X5173519Y-14643519D01*
X5195911Y-14625143D01*
X5221454Y-14611490D01*
X5249175Y-14603081D01*
X5280454Y-14600000D01*
X5671546Y-14600000D01*
X5702825Y-14603081D01*
X5702825Y-14603081D01*
G37*
G36*
X4732825Y-14603081D02*
X4760546Y-14611490D01*
X4786089Y-14625143D01*
X4808481Y-14643519D01*
X4826857Y-14665911D01*
X4840510Y-14691454D01*
X4848919Y-14719175D01*
X4852000Y-14750454D01*
X4852000Y-15191546D01*
X4848919Y-15222825D01*
X4840510Y-15250546D01*
X4826857Y-15276089D01*
X4808481Y-15298481D01*
X4786089Y-15316857D01*
X4760546Y-15330510D01*
X4732825Y-15338919D01*
X4701546Y-15342000D01*
X4310454Y-15342000D01*
X4279175Y-15338919D01*
X4251454Y-15330510D01*
X4225911Y-15316857D01*
X4203519Y-15298481D01*
X4185143Y-15276089D01*
X4171490Y-15250546D01*
X4163081Y-15222825D01*
X4160000Y-15191546D01*
X4160000Y-14750454D01*
X4163081Y-14719175D01*
X4171490Y-14691454D01*
X4185143Y-14665911D01*
X4203519Y-14643519D01*
X4225911Y-14625143D01*
X4251454Y-14611490D01*
X4279175Y-14603081D01*
X4310454Y-14600000D01*
X4701546Y-14600000D01*
X4732825Y-14603081D01*
X4732825Y-14603081D01*
G37*
G36*
X6866000Y-14666000D02*
X5964000Y-14666000D01*
X5964000Y-13964000D01*
X6866000Y-13964000D01*
X6866000Y-14666000D01*
X6866000Y-14666000D01*
G37*
G36*
X8163825Y-13922081D02*
X8191546Y-13930490D01*
X8217089Y-13944143D01*
X8239481Y-13962519D01*
X8257857Y-13984911D01*
X8271510Y-14010454D01*
X8279919Y-14038175D01*
X8283000Y-14069454D01*
X8283000Y-14460546D01*
X8279919Y-14491825D01*
X8271510Y-14519546D01*
X8257857Y-14545089D01*
X8239481Y-14567481D01*
X8217089Y-14585857D01*
X8191546Y-14599510D01*
X8163825Y-14607919D01*
X8132546Y-14611000D01*
X7691454Y-14611000D01*
X7660175Y-14607919D01*
X7632454Y-14599510D01*
X7606911Y-14585857D01*
X7584519Y-14567481D01*
X7566143Y-14545089D01*
X7552490Y-14519546D01*
X7544081Y-14491825D01*
X7541000Y-14460546D01*
X7541000Y-14069454D01*
X7544081Y-14038175D01*
X7552490Y-14010454D01*
X7566143Y-13984911D01*
X7584519Y-13962519D01*
X7606911Y-13944143D01*
X7632454Y-13930490D01*
X7660175Y-13922081D01*
X7691454Y-13919000D01*
X8132546Y-13919000D01*
X8163825Y-13922081D01*
X8163825Y-13922081D01*
G37*
G36*
X19056825Y-13757081D02*
X19084546Y-13765490D01*
X19110089Y-13779143D01*
X19132481Y-13797519D01*
X19150857Y-13819911D01*
X19164510Y-13845454D01*
X19172919Y-13873175D01*
X19176000Y-13904454D01*
X19176000Y-14295546D01*
X19172919Y-14326825D01*
X19164510Y-14354546D01*
X19150857Y-14380089D01*
X19132481Y-14402481D01*
X19110089Y-14420857D01*
X19084546Y-14434510D01*
X19056825Y-14442919D01*
X19025546Y-14446000D01*
X18584454Y-14446000D01*
X18553175Y-14442919D01*
X18525454Y-14434510D01*
X18499911Y-14420857D01*
X18477519Y-14402481D01*
X18459143Y-14380089D01*
X18445490Y-14354546D01*
X18437081Y-14326825D01*
X18434000Y-14295546D01*
X18434000Y-13904454D01*
X18437081Y-13873175D01*
X18445490Y-13845454D01*
X18459143Y-13819911D01*
X18477519Y-13797519D01*
X18499911Y-13779143D01*
X18525454Y-13765490D01*
X18553175Y-13757081D01*
X18584454Y-13754000D01*
X19025546Y-13754000D01*
X19056825Y-13757081D01*
X19056825Y-13757081D01*
G37*
G36*
X18056825Y-13757081D02*
X18084546Y-13765490D01*
X18110089Y-13779143D01*
X18132481Y-13797519D01*
X18150857Y-13819911D01*
X18164510Y-13845454D01*
X18172919Y-13873175D01*
X18176000Y-13904454D01*
X18176000Y-14295546D01*
X18172919Y-14326825D01*
X18164510Y-14354546D01*
X18150857Y-14380089D01*
X18132481Y-14402481D01*
X18110089Y-14420857D01*
X18084546Y-14434510D01*
X18056825Y-14442919D01*
X18025546Y-14446000D01*
X17584454Y-14446000D01*
X17553175Y-14442919D01*
X17525454Y-14434510D01*
X17499911Y-14420857D01*
X17477519Y-14402481D01*
X17459143Y-14380089D01*
X17445490Y-14354546D01*
X17437081Y-14326825D01*
X17434000Y-14295546D01*
X17434000Y-13904454D01*
X17437081Y-13873175D01*
X17445490Y-13845454D01*
X17459143Y-13819911D01*
X17477519Y-13797519D01*
X17499911Y-13779143D01*
X17525454Y-13765490D01*
X17553175Y-13757081D01*
X17584454Y-13754000D01*
X18025546Y-13754000D01*
X18056825Y-13757081D01*
X18056825Y-13757081D01*
G37*
G36*
X11076000Y-14426000D02*
X10674000Y-14426000D01*
X10674000Y-14024000D01*
X11076000Y-14024000D01*
X11076000Y-14426000D01*
X11076000Y-14426000D01*
G37*
G36*
X14976000Y-14426000D02*
X14574000Y-14426000D01*
X14574000Y-14024000D01*
X14976000Y-14024000D01*
X14976000Y-14426000D01*
X14976000Y-14426000D01*
G37*
G36*
X13676000Y-14426000D02*
X13274000Y-14426000D01*
X13274000Y-14024000D01*
X13676000Y-14024000D01*
X13676000Y-14426000D01*
X13676000Y-14426000D01*
G37*
G36*
X13026000Y-14426000D02*
X12624000Y-14426000D01*
X12624000Y-14024000D01*
X13026000Y-14024000D01*
X13026000Y-14426000D01*
X13026000Y-14426000D01*
G37*
G36*
X14326000Y-14426000D02*
X13924000Y-14426000D01*
X13924000Y-14024000D01*
X14326000Y-14024000D01*
X14326000Y-14426000D01*
X14326000Y-14426000D01*
G37*
G36*
X12376000Y-14426000D02*
X11974000Y-14426000D01*
X11974000Y-14024000D01*
X12376000Y-14024000D01*
X12376000Y-14426000D01*
X12376000Y-14426000D01*
G37*
G36*
X11726000Y-14426000D02*
X11324000Y-14426000D01*
X11324000Y-14024000D01*
X11726000Y-14024000D01*
X11726000Y-14426000D01*
X11726000Y-14426000D01*
G37*
G36*
X10426000Y-14426000D02*
X10024000Y-14426000D01*
X10024000Y-14024000D01*
X10426000Y-14024000D01*
X10426000Y-14426000D01*
X10426000Y-14426000D01*
G37*
G36*
X9776000Y-14426000D02*
X9374000Y-14426000D01*
X9374000Y-14024000D01*
X9776000Y-14024000D01*
X9776000Y-14426000D01*
X9776000Y-14426000D01*
G37*
G36*
X15626000Y-14426000D02*
X15224000Y-14426000D01*
X15224000Y-14024000D01*
X15626000Y-14024000D01*
X15626000Y-14426000D01*
X15626000Y-14426000D01*
G37*
G36*
X21425719Y-13235174D02*
X21425722Y-13235175D01*
X21425721Y-13235175D01*
X21525996Y-13276710D01*
X21616242Y-13337010D01*
X21692990Y-13413758D01*
X21753290Y-13504004D01*
X21765799Y-13534204D01*
X21794826Y-13604281D01*
X21816000Y-13710730D01*
X21816000Y-13819270D01*
X21794826Y-13925719D01*
X21794825Y-13925721D01*
X21753290Y-14025996D01*
X21692990Y-14116242D01*
X21616242Y-14192990D01*
X21525996Y-14253290D01*
X21455090Y-14282660D01*
X21425719Y-14294826D01*
X21319270Y-14316000D01*
X21210730Y-14316000D01*
X21104281Y-14294826D01*
X21074910Y-14282660D01*
X21004004Y-14253290D01*
X20913758Y-14192990D01*
X20837010Y-14116242D01*
X20776710Y-14025996D01*
X20735175Y-13925721D01*
X20735174Y-13925719D01*
X20714000Y-13819270D01*
X20714000Y-13710730D01*
X20735174Y-13604281D01*
X20764201Y-13534204D01*
X20776710Y-13504004D01*
X20837010Y-13413758D01*
X20913758Y-13337010D01*
X21004004Y-13276710D01*
X21104279Y-13235175D01*
X21104278Y-13235175D01*
X21104281Y-13235174D01*
X21210730Y-13214000D01*
X21319270Y-13214000D01*
X21425719Y-13235174D01*
X21425719Y-13235174D01*
G37*
G36*
X9776000Y-13776000D02*
X9374000Y-13776000D01*
X9374000Y-13374000D01*
X9776000Y-13374000D01*
X9776000Y-13776000D01*
X9776000Y-13776000D01*
G37*
G36*
X11076000Y-13776000D02*
X10674000Y-13776000D01*
X10674000Y-13374000D01*
X11076000Y-13374000D01*
X11076000Y-13776000D01*
X11076000Y-13776000D01*
G37*
G36*
X10426000Y-13776000D02*
X10024000Y-13776000D01*
X10024000Y-13374000D01*
X10426000Y-13374000D01*
X10426000Y-13776000D01*
X10426000Y-13776000D01*
G37*
G36*
X11726000Y-13776000D02*
X11324000Y-13776000D01*
X11324000Y-13374000D01*
X11726000Y-13374000D01*
X11726000Y-13776000D01*
X11726000Y-13776000D01*
G37*
G36*
X12376000Y-13776000D02*
X11974000Y-13776000D01*
X11974000Y-13374000D01*
X12376000Y-13374000D01*
X12376000Y-13776000D01*
X12376000Y-13776000D01*
G37*
G36*
X14326000Y-13776000D02*
X13924000Y-13776000D01*
X13924000Y-13374000D01*
X14326000Y-13374000D01*
X14326000Y-13776000D01*
X14326000Y-13776000D01*
G37*
G36*
X13676000Y-13776000D02*
X13274000Y-13776000D01*
X13274000Y-13374000D01*
X13676000Y-13374000D01*
X13676000Y-13776000D01*
X13676000Y-13776000D01*
G37*
G36*
X15626000Y-13776000D02*
X15224000Y-13776000D01*
X15224000Y-13374000D01*
X15626000Y-13374000D01*
X15626000Y-13776000D01*
X15626000Y-13776000D01*
G37*
G36*
X13026000Y-13776000D02*
X12624000Y-13776000D01*
X12624000Y-13374000D01*
X13026000Y-13374000D01*
X13026000Y-13776000D01*
X13026000Y-13776000D01*
G37*
G36*
X14976000Y-13776000D02*
X14574000Y-13776000D01*
X14574000Y-13374000D01*
X14976000Y-13374000D01*
X14976000Y-13776000D01*
X14976000Y-13776000D01*
G37*
G36*
X8163825Y-12952081D02*
X8191546Y-12960490D01*
X8217089Y-12974143D01*
X8239481Y-12992519D01*
X8257857Y-13014911D01*
X8271510Y-13040454D01*
X8279919Y-13068175D01*
X8283000Y-13099454D01*
X8283000Y-13490546D01*
X8279919Y-13521825D01*
X8271510Y-13549546D01*
X8257857Y-13575089D01*
X8239481Y-13597481D01*
X8217089Y-13615857D01*
X8191546Y-13629510D01*
X8163825Y-13637919D01*
X8132546Y-13641000D01*
X7691454Y-13641000D01*
X7660175Y-13637919D01*
X7632454Y-13629510D01*
X7606911Y-13615857D01*
X7584519Y-13597481D01*
X7566143Y-13575089D01*
X7552490Y-13549546D01*
X7544081Y-13521825D01*
X7541000Y-13490546D01*
X7541000Y-13099454D01*
X7544081Y-13068175D01*
X7552490Y-13040454D01*
X7566143Y-13014911D01*
X7584519Y-12992519D01*
X7606911Y-12974143D01*
X7632454Y-12960490D01*
X7660175Y-12952081D01*
X7691454Y-12949000D01*
X8132546Y-12949000D01*
X8163825Y-12952081D01*
X8163825Y-12952081D01*
G37*
G36*
X19056825Y-12787081D02*
X19084546Y-12795490D01*
X19110089Y-12809143D01*
X19132481Y-12827519D01*
X19150857Y-12849911D01*
X19164510Y-12875454D01*
X19172919Y-12903175D01*
X19176000Y-12934454D01*
X19176000Y-13325546D01*
X19172919Y-13356825D01*
X19164510Y-13384546D01*
X19150857Y-13410089D01*
X19132481Y-13432481D01*
X19110089Y-13450857D01*
X19084546Y-13464510D01*
X19056825Y-13472919D01*
X19025546Y-13476000D01*
X18584454Y-13476000D01*
X18553175Y-13472919D01*
X18525454Y-13464510D01*
X18499911Y-13450857D01*
X18477519Y-13432481D01*
X18459143Y-13410089D01*
X18445490Y-13384546D01*
X18437081Y-13356825D01*
X18434000Y-13325546D01*
X18434000Y-12934454D01*
X18437081Y-12903175D01*
X18445490Y-12875454D01*
X18459143Y-12849911D01*
X18477519Y-12827519D01*
X18499911Y-12809143D01*
X18525454Y-12795490D01*
X18553175Y-12787081D01*
X18584454Y-12784000D01*
X19025546Y-12784000D01*
X19056825Y-12787081D01*
X19056825Y-12787081D01*
G37*
G36*
X18056825Y-12787081D02*
X18084546Y-12795490D01*
X18110089Y-12809143D01*
X18132481Y-12827519D01*
X18150857Y-12849911D01*
X18164510Y-12875454D01*
X18172919Y-12903175D01*
X18176000Y-12934454D01*
X18176000Y-13325546D01*
X18172919Y-13356825D01*
X18164510Y-13384546D01*
X18150857Y-13410089D01*
X18132481Y-13432481D01*
X18110089Y-13450857D01*
X18084546Y-13464510D01*
X18056825Y-13472919D01*
X18025546Y-13476000D01*
X17584454Y-13476000D01*
X17553175Y-13472919D01*
X17525454Y-13464510D01*
X17499911Y-13450857D01*
X17477519Y-13432481D01*
X17459143Y-13410089D01*
X17445490Y-13384546D01*
X17437081Y-13356825D01*
X17434000Y-13325546D01*
X17434000Y-12934454D01*
X17437081Y-12903175D01*
X17445490Y-12875454D01*
X17459143Y-12849911D01*
X17477519Y-12827519D01*
X17499911Y-12809143D01*
X17525454Y-12795490D01*
X17553175Y-12787081D01*
X17584454Y-12784000D01*
X18025546Y-12784000D01*
X18056825Y-12787081D01*
X18056825Y-12787081D01*
G37*
G36*
X4426825Y-12697081D02*
X4454546Y-12705490D01*
X4480089Y-12719143D01*
X4502481Y-12737519D01*
X4520857Y-12759911D01*
X4534510Y-12785454D01*
X4542919Y-12813175D01*
X4546000Y-12844454D01*
X4546000Y-13285546D01*
X4542919Y-13316825D01*
X4534510Y-13344546D01*
X4520857Y-13370089D01*
X4502481Y-13392481D01*
X4480089Y-13410857D01*
X4454546Y-13424510D01*
X4426825Y-13432919D01*
X4395546Y-13436000D01*
X4004454Y-13436000D01*
X3973175Y-13432919D01*
X3945454Y-13424510D01*
X3919911Y-13410857D01*
X3897519Y-13392481D01*
X3879143Y-13370089D01*
X3865490Y-13344546D01*
X3857081Y-13316825D01*
X3854000Y-13285546D01*
X3854000Y-12844454D01*
X3857081Y-12813175D01*
X3865490Y-12785454D01*
X3879143Y-12759911D01*
X3897519Y-12737519D01*
X3919911Y-12719143D01*
X3945454Y-12705490D01*
X3973175Y-12697081D01*
X4004454Y-12694000D01*
X4395546Y-12694000D01*
X4426825Y-12697081D01*
X4426825Y-12697081D01*
G37*
G36*
X3456825Y-12697081D02*
X3484546Y-12705490D01*
X3510089Y-12719143D01*
X3532481Y-12737519D01*
X3550857Y-12759911D01*
X3564510Y-12785454D01*
X3572919Y-12813175D01*
X3576000Y-12844454D01*
X3576000Y-13285546D01*
X3572919Y-13316825D01*
X3564510Y-13344546D01*
X3550857Y-13370089D01*
X3532481Y-13392481D01*
X3510089Y-13410857D01*
X3484546Y-13424510D01*
X3456825Y-13432919D01*
X3425546Y-13436000D01*
X3034454Y-13436000D01*
X3003175Y-13432919D01*
X2975454Y-13424510D01*
X2949911Y-13410857D01*
X2927519Y-13392481D01*
X2909143Y-13370089D01*
X2895490Y-13344546D01*
X2887081Y-13316825D01*
X2884000Y-13285546D01*
X2884000Y-12844454D01*
X2887081Y-12813175D01*
X2895490Y-12785454D01*
X2909143Y-12759911D01*
X2927519Y-12737519D01*
X2949911Y-12719143D01*
X2975454Y-12705490D01*
X3003175Y-12697081D01*
X3034454Y-12694000D01*
X3425546Y-12694000D01*
X3456825Y-12697081D01*
X3456825Y-12697081D01*
G37*
G36*
X6866000Y-13266000D02*
X5964000Y-13266000D01*
X5964000Y-12564000D01*
X6866000Y-12564000D01*
X6866000Y-13266000D01*
X6866000Y-13266000D01*
G37*
G36*
X11076000Y-13126000D02*
X10674000Y-13126000D01*
X10674000Y-12724000D01*
X11076000Y-12724000D01*
X11076000Y-13126000D01*
X11076000Y-13126000D01*
G37*
G36*
X13026000Y-13126000D02*
X12624000Y-13126000D01*
X12624000Y-12724000D01*
X13026000Y-12724000D01*
X13026000Y-13126000D01*
X13026000Y-13126000D01*
G37*
G36*
X15626000Y-13126000D02*
X15224000Y-13126000D01*
X15224000Y-12724000D01*
X15626000Y-12724000D01*
X15626000Y-13126000D01*
X15626000Y-13126000D01*
G37*
G36*
X10426000Y-13126000D02*
X10024000Y-13126000D01*
X10024000Y-12724000D01*
X10426000Y-12724000D01*
X10426000Y-13126000D01*
X10426000Y-13126000D01*
G37*
G36*
X14976000Y-13126000D02*
X14574000Y-13126000D01*
X14574000Y-12724000D01*
X14976000Y-12724000D01*
X14976000Y-13126000D01*
X14976000Y-13126000D01*
G37*
G36*
X9776000Y-13126000D02*
X9374000Y-13126000D01*
X9374000Y-12724000D01*
X9776000Y-12724000D01*
X9776000Y-13126000D01*
X9776000Y-13126000D01*
G37*
G36*
X11726000Y-13126000D02*
X11324000Y-13126000D01*
X11324000Y-12724000D01*
X11726000Y-12724000D01*
X11726000Y-13126000D01*
X11726000Y-13126000D01*
G37*
G36*
X14326000Y-13126000D02*
X13924000Y-13126000D01*
X13924000Y-12724000D01*
X14326000Y-12724000D01*
X14326000Y-13126000D01*
X14326000Y-13126000D01*
G37*
G36*
X12376000Y-13126000D02*
X11974000Y-13126000D01*
X11974000Y-12724000D01*
X12376000Y-12724000D01*
X12376000Y-13126000D01*
X12376000Y-13126000D01*
G37*
G36*
X13676000Y-13126000D02*
X13274000Y-13126000D01*
X13274000Y-12724000D01*
X13676000Y-12724000D01*
X13676000Y-13126000D01*
X13676000Y-13126000D01*
G37*
G36*
X7628825Y-11878081D02*
X7656546Y-11886490D01*
X7682089Y-11900143D01*
X7704481Y-11918519D01*
X7722857Y-11940911D01*
X7736510Y-11966454D01*
X7744919Y-11994175D01*
X7748000Y-12025454D01*
X7748000Y-12416546D01*
X7744919Y-12447825D01*
X7736510Y-12475546D01*
X7722857Y-12501089D01*
X7704481Y-12523481D01*
X7682089Y-12541857D01*
X7656546Y-12555510D01*
X7628825Y-12563919D01*
X7597546Y-12567000D01*
X7156454Y-12567000D01*
X7125175Y-12563919D01*
X7097454Y-12555510D01*
X7071911Y-12541857D01*
X7049519Y-12523481D01*
X7031143Y-12501089D01*
X7017490Y-12475546D01*
X7009081Y-12447825D01*
X7006000Y-12416546D01*
X7006000Y-12025454D01*
X7009081Y-11994175D01*
X7017490Y-11966454D01*
X7031143Y-11940911D01*
X7049519Y-11918519D01*
X7071911Y-11900143D01*
X7097454Y-11886490D01*
X7125175Y-11878081D01*
X7156454Y-11875000D01*
X7597546Y-11875000D01*
X7628825Y-11878081D01*
X7628825Y-11878081D01*
G37*
G36*
X18806825Y-11807081D02*
X18834546Y-11815490D01*
X18860089Y-11829143D01*
X18882481Y-11847519D01*
X18900857Y-11869911D01*
X18914510Y-11895454D01*
X18922919Y-11923175D01*
X18926000Y-11954454D01*
X18926000Y-12345546D01*
X18922919Y-12376825D01*
X18914510Y-12404546D01*
X18900857Y-12430089D01*
X18882481Y-12452481D01*
X18860089Y-12470857D01*
X18834546Y-12484510D01*
X18806825Y-12492919D01*
X18775546Y-12496000D01*
X18334454Y-12496000D01*
X18303175Y-12492919D01*
X18275454Y-12484510D01*
X18249911Y-12470857D01*
X18227519Y-12452481D01*
X18209143Y-12430089D01*
X18195490Y-12404546D01*
X18187081Y-12376825D01*
X18184000Y-12345546D01*
X18184000Y-11954454D01*
X18187081Y-11923175D01*
X18195490Y-11895454D01*
X18209143Y-11869911D01*
X18227519Y-11847519D01*
X18249911Y-11829143D01*
X18275454Y-11815490D01*
X18303175Y-11807081D01*
X18334454Y-11804000D01*
X18775546Y-11804000D01*
X18806825Y-11807081D01*
X18806825Y-11807081D01*
G37*
G36*
X9776000Y-12476000D02*
X9374000Y-12476000D01*
X9374000Y-12074000D01*
X9776000Y-12074000D01*
X9776000Y-12476000D01*
X9776000Y-12476000D01*
G37*
G36*
X14326000Y-12476000D02*
X13924000Y-12476000D01*
X13924000Y-12074000D01*
X14326000Y-12074000D01*
X14326000Y-12476000D01*
X14326000Y-12476000D01*
G37*
G36*
X14976000Y-12476000D02*
X14574000Y-12476000D01*
X14574000Y-12074000D01*
X14976000Y-12074000D01*
X14976000Y-12476000D01*
X14976000Y-12476000D01*
G37*
G36*
X15626000Y-12476000D02*
X15224000Y-12476000D01*
X15224000Y-12074000D01*
X15626000Y-12074000D01*
X15626000Y-12476000D01*
X15626000Y-12476000D01*
G37*
G36*
X11076000Y-12476000D02*
X10674000Y-12476000D01*
X10674000Y-12074000D01*
X11076000Y-12074000D01*
X11076000Y-12476000D01*
X11076000Y-12476000D01*
G37*
G36*
X10426000Y-12476000D02*
X10024000Y-12476000D01*
X10024000Y-12074000D01*
X10426000Y-12074000D01*
X10426000Y-12476000D01*
X10426000Y-12476000D01*
G37*
G36*
X16621825Y-11672081D02*
X16649546Y-11680490D01*
X16675089Y-11694143D01*
X16697481Y-11712519D01*
X16715857Y-11734911D01*
X16729510Y-11760454D01*
X16737919Y-11788175D01*
X16741000Y-11819454D01*
X16741000Y-12260546D01*
X16737919Y-12291825D01*
X16729510Y-12319546D01*
X16715857Y-12345089D01*
X16697481Y-12367481D01*
X16675089Y-12385857D01*
X16649546Y-12399510D01*
X16621825Y-12407919D01*
X16590546Y-12411000D01*
X16199454Y-12411000D01*
X16168175Y-12407919D01*
X16140454Y-12399510D01*
X16114911Y-12385857D01*
X16092519Y-12367481D01*
X16074143Y-12345089D01*
X16060490Y-12319546D01*
X16052081Y-12291825D01*
X16049000Y-12260546D01*
X16049000Y-11819454D01*
X16052081Y-11788175D01*
X16060490Y-11760454D01*
X16074143Y-11734911D01*
X16092519Y-11712519D01*
X16114911Y-11694143D01*
X16140454Y-11680490D01*
X16168175Y-11672081D01*
X16199454Y-11669000D01*
X16590546Y-11669000D01*
X16621825Y-11672081D01*
X16621825Y-11672081D01*
G37*
G36*
X17591825Y-11672081D02*
X17619546Y-11680490D01*
X17645089Y-11694143D01*
X17667481Y-11712519D01*
X17685857Y-11734911D01*
X17699510Y-11760454D01*
X17707919Y-11788175D01*
X17711000Y-11819454D01*
X17711000Y-12260546D01*
X17707919Y-12291825D01*
X17699510Y-12319546D01*
X17685857Y-12345089D01*
X17667481Y-12367481D01*
X17645089Y-12385857D01*
X17619546Y-12399510D01*
X17591825Y-12407919D01*
X17560546Y-12411000D01*
X17169454Y-12411000D01*
X17138175Y-12407919D01*
X17110454Y-12399510D01*
X17084911Y-12385857D01*
X17062519Y-12367481D01*
X17044143Y-12345089D01*
X17030490Y-12319546D01*
X17022081Y-12291825D01*
X17019000Y-12260546D01*
X17019000Y-11819454D01*
X17022081Y-11788175D01*
X17030490Y-11760454D01*
X17044143Y-11734911D01*
X17062519Y-11712519D01*
X17084911Y-11694143D01*
X17110454Y-11680490D01*
X17138175Y-11672081D01*
X17169454Y-11669000D01*
X17560546Y-11669000D01*
X17591825Y-11672081D01*
X17591825Y-11672081D01*
G37*
G36*
X10426000Y-11826000D02*
X10024000Y-11826000D01*
X10024000Y-11424000D01*
X10426000Y-11424000D01*
X10426000Y-11826000D01*
X10426000Y-11826000D01*
G37*
G36*
X14976000Y-11826000D02*
X14574000Y-11826000D01*
X14574000Y-11424000D01*
X14976000Y-11424000D01*
X14976000Y-11826000D01*
X14976000Y-11826000D01*
G37*
G36*
X9776000Y-11826000D02*
X9374000Y-11826000D01*
X9374000Y-11424000D01*
X9776000Y-11424000D01*
X9776000Y-11826000D01*
X9776000Y-11826000D01*
G37*
G36*
X15626000Y-11826000D02*
X15224000Y-11826000D01*
X15224000Y-11424000D01*
X15626000Y-11424000D01*
X15626000Y-11826000D01*
X15626000Y-11826000D01*
G37*
G36*
X6563825Y-10971081D02*
X6591546Y-10979490D01*
X6617089Y-10993143D01*
X6639481Y-11011519D01*
X6657857Y-11033911D01*
X6671510Y-11059454D01*
X6679919Y-11087175D01*
X6683000Y-11118454D01*
X6683000Y-11559546D01*
X6679919Y-11590825D01*
X6671510Y-11618546D01*
X6657857Y-11644089D01*
X6639481Y-11666481D01*
X6617089Y-11684857D01*
X6591546Y-11698510D01*
X6563825Y-11706919D01*
X6532546Y-11710000D01*
X6141454Y-11710000D01*
X6110175Y-11706919D01*
X6082454Y-11698510D01*
X6056911Y-11684857D01*
X6034519Y-11666481D01*
X6016143Y-11644089D01*
X6002490Y-11618546D01*
X5994081Y-11590825D01*
X5991000Y-11559546D01*
X5991000Y-11118454D01*
X5994081Y-11087175D01*
X6002490Y-11059454D01*
X6016143Y-11033911D01*
X6034519Y-11011519D01*
X6056911Y-10993143D01*
X6082454Y-10979490D01*
X6110175Y-10971081D01*
X6141454Y-10968000D01*
X6532546Y-10968000D01*
X6563825Y-10971081D01*
X6563825Y-10971081D01*
G37*
G36*
X5593825Y-10971081D02*
X5621546Y-10979490D01*
X5647089Y-10993143D01*
X5669481Y-11011519D01*
X5687857Y-11033911D01*
X5701510Y-11059454D01*
X5709919Y-11087175D01*
X5713000Y-11118454D01*
X5713000Y-11559546D01*
X5709919Y-11590825D01*
X5701510Y-11618546D01*
X5687857Y-11644089D01*
X5669481Y-11666481D01*
X5647089Y-11684857D01*
X5621546Y-11698510D01*
X5593825Y-11706919D01*
X5562546Y-11710000D01*
X5171454Y-11710000D01*
X5140175Y-11706919D01*
X5112454Y-11698510D01*
X5086911Y-11684857D01*
X5064519Y-11666481D01*
X5046143Y-11644089D01*
X5032490Y-11618546D01*
X5024081Y-11590825D01*
X5021000Y-11559546D01*
X5021000Y-11118454D01*
X5024081Y-11087175D01*
X5032490Y-11059454D01*
X5046143Y-11033911D01*
X5064519Y-11011519D01*
X5086911Y-10993143D01*
X5112454Y-10979490D01*
X5140175Y-10971081D01*
X5171454Y-10968000D01*
X5562546Y-10968000D01*
X5593825Y-10971081D01*
X5593825Y-10971081D01*
G37*
G36*
X21491825Y-10882081D02*
X21519546Y-10890490D01*
X21545089Y-10904143D01*
X21567481Y-10922519D01*
X21585857Y-10944911D01*
X21599510Y-10970454D01*
X21607919Y-10998175D01*
X21611000Y-11029454D01*
X21611000Y-11470546D01*
X21607919Y-11501825D01*
X21599510Y-11529546D01*
X21585857Y-11555089D01*
X21567481Y-11577481D01*
X21545089Y-11595857D01*
X21519546Y-11609510D01*
X21491825Y-11617919D01*
X21460546Y-11621000D01*
X21069454Y-11621000D01*
X21038175Y-11617919D01*
X21010454Y-11609510D01*
X20984911Y-11595857D01*
X20962519Y-11577481D01*
X20944143Y-11555089D01*
X20930490Y-11529546D01*
X20922081Y-11501825D01*
X20919000Y-11470546D01*
X20919000Y-11029454D01*
X20922081Y-10998175D01*
X20930490Y-10970454D01*
X20944143Y-10944911D01*
X20962519Y-10922519D01*
X20984911Y-10904143D01*
X21010454Y-10890490D01*
X21038175Y-10882081D01*
X21069454Y-10879000D01*
X21460546Y-10879000D01*
X21491825Y-10882081D01*
X21491825Y-10882081D01*
G37*
G36*
X22461825Y-10882081D02*
X22489546Y-10890490D01*
X22515089Y-10904143D01*
X22537481Y-10922519D01*
X22555857Y-10944911D01*
X22569510Y-10970454D01*
X22577919Y-10998175D01*
X22581000Y-11029454D01*
X22581000Y-11470546D01*
X22577919Y-11501825D01*
X22569510Y-11529546D01*
X22555857Y-11555089D01*
X22537481Y-11577481D01*
X22515089Y-11595857D01*
X22489546Y-11609510D01*
X22461825Y-11617919D01*
X22430546Y-11621000D01*
X22039454Y-11621000D01*
X22008175Y-11617919D01*
X21980454Y-11609510D01*
X21954911Y-11595857D01*
X21932519Y-11577481D01*
X21914143Y-11555089D01*
X21900490Y-11529546D01*
X21892081Y-11501825D01*
X21889000Y-11470546D01*
X21889000Y-11029454D01*
X21892081Y-10998175D01*
X21900490Y-10970454D01*
X21914143Y-10944911D01*
X21932519Y-10922519D01*
X21954911Y-10904143D01*
X21980454Y-10890490D01*
X22008175Y-10882081D01*
X22039454Y-10879000D01*
X22430546Y-10879000D01*
X22461825Y-10882081D01*
X22461825Y-10882081D01*
G37*
G36*
X7628825Y-10908081D02*
X7656546Y-10916490D01*
X7682089Y-10930143D01*
X7704481Y-10948519D01*
X7722857Y-10970911D01*
X7736510Y-10996454D01*
X7744919Y-11024175D01*
X7748000Y-11055454D01*
X7748000Y-11446546D01*
X7744919Y-11477825D01*
X7736510Y-11505546D01*
X7722857Y-11531089D01*
X7704481Y-11553481D01*
X7682089Y-11571857D01*
X7656546Y-11585510D01*
X7628825Y-11593919D01*
X7597546Y-11597000D01*
X7156454Y-11597000D01*
X7125175Y-11593919D01*
X7097454Y-11585510D01*
X7071911Y-11571857D01*
X7049519Y-11553481D01*
X7031143Y-11531089D01*
X7017490Y-11505546D01*
X7009081Y-11477825D01*
X7006000Y-11446546D01*
X7006000Y-11055454D01*
X7009081Y-11024175D01*
X7017490Y-10996454D01*
X7031143Y-10970911D01*
X7049519Y-10948519D01*
X7071911Y-10930143D01*
X7097454Y-10916490D01*
X7125175Y-10908081D01*
X7156454Y-10905000D01*
X7597546Y-10905000D01*
X7628825Y-10908081D01*
X7628825Y-10908081D01*
G37*
G36*
X18806825Y-10837081D02*
X18834546Y-10845490D01*
X18860089Y-10859143D01*
X18882481Y-10877519D01*
X18900857Y-10899911D01*
X18914510Y-10925454D01*
X18922919Y-10953175D01*
X18926000Y-10984454D01*
X18926000Y-11375546D01*
X18922919Y-11406825D01*
X18914510Y-11434546D01*
X18900857Y-11460089D01*
X18882481Y-11482481D01*
X18860089Y-11500857D01*
X18834546Y-11514510D01*
X18806825Y-11522919D01*
X18775546Y-11526000D01*
X18334454Y-11526000D01*
X18303175Y-11522919D01*
X18275454Y-11514510D01*
X18249911Y-11500857D01*
X18227519Y-11482481D01*
X18209143Y-11460089D01*
X18195490Y-11434546D01*
X18187081Y-11406825D01*
X18184000Y-11375546D01*
X18184000Y-10984454D01*
X18187081Y-10953175D01*
X18195490Y-10925454D01*
X18209143Y-10899911D01*
X18227519Y-10877519D01*
X18249911Y-10859143D01*
X18275454Y-10845490D01*
X18303175Y-10837081D01*
X18334454Y-10834000D01*
X18775546Y-10834000D01*
X18806825Y-10837081D01*
X18806825Y-10837081D01*
G37*
G36*
X16621825Y-10722081D02*
X16649546Y-10730490D01*
X16675089Y-10744143D01*
X16697481Y-10762519D01*
X16715857Y-10784911D01*
X16729510Y-10810454D01*
X16737919Y-10838175D01*
X16741000Y-10869454D01*
X16741000Y-11310546D01*
X16737919Y-11341825D01*
X16729510Y-11369546D01*
X16715857Y-11395089D01*
X16697481Y-11417481D01*
X16675089Y-11435857D01*
X16649546Y-11449510D01*
X16621825Y-11457919D01*
X16590546Y-11461000D01*
X16199454Y-11461000D01*
X16168175Y-11457919D01*
X16140454Y-11449510D01*
X16114911Y-11435857D01*
X16092519Y-11417481D01*
X16074143Y-11395089D01*
X16060490Y-11369546D01*
X16052081Y-11341825D01*
X16049000Y-11310546D01*
X16049000Y-10869454D01*
X16052081Y-10838175D01*
X16060490Y-10810454D01*
X16074143Y-10784911D01*
X16092519Y-10762519D01*
X16114911Y-10744143D01*
X16140454Y-10730490D01*
X16168175Y-10722081D01*
X16199454Y-10719000D01*
X16590546Y-10719000D01*
X16621825Y-10722081D01*
X16621825Y-10722081D01*
G37*
G36*
X17591825Y-10722081D02*
X17619546Y-10730490D01*
X17645089Y-10744143D01*
X17667481Y-10762519D01*
X17685857Y-10784911D01*
X17699510Y-10810454D01*
X17707919Y-10838175D01*
X17711000Y-10869454D01*
X17711000Y-11310546D01*
X17707919Y-11341825D01*
X17699510Y-11369546D01*
X17685857Y-11395089D01*
X17667481Y-11417481D01*
X17645089Y-11435857D01*
X17619546Y-11449510D01*
X17591825Y-11457919D01*
X17560546Y-11461000D01*
X17169454Y-11461000D01*
X17138175Y-11457919D01*
X17110454Y-11449510D01*
X17084911Y-11435857D01*
X17062519Y-11417481D01*
X17044143Y-11395089D01*
X17030490Y-11369546D01*
X17022081Y-11341825D01*
X17019000Y-11310546D01*
X17019000Y-10869454D01*
X17022081Y-10838175D01*
X17030490Y-10810454D01*
X17044143Y-10784911D01*
X17062519Y-10762519D01*
X17084911Y-10744143D01*
X17110454Y-10730490D01*
X17138175Y-10722081D01*
X17169454Y-10719000D01*
X17560546Y-10719000D01*
X17591825Y-10722081D01*
X17591825Y-10722081D01*
G37*
G36*
X14351000Y-11451000D02*
X10649000Y-11451000D01*
X10649000Y-8549000D01*
X14351000Y-8549000D01*
X14351000Y-11451000D01*
X14351000Y-11451000D01*
G37*
G36*
X9776000Y-11176000D02*
X9374000Y-11176000D01*
X9374000Y-10774000D01*
X9776000Y-10774000D01*
X9776000Y-11176000D01*
X9776000Y-11176000D01*
G37*
G36*
X15626000Y-11176000D02*
X15224000Y-11176000D01*
X15224000Y-10774000D01*
X15626000Y-10774000D01*
X15626000Y-11176000D01*
X15626000Y-11176000D01*
G37*
G36*
X10426000Y-11176000D02*
X10024000Y-11176000D01*
X10024000Y-10774000D01*
X10426000Y-10774000D01*
X10426000Y-11176000D01*
X10426000Y-11176000D01*
G37*
G36*
X14976000Y-11176000D02*
X14574000Y-11176000D01*
X14574000Y-10774000D01*
X14976000Y-10774000D01*
X14976000Y-11176000D01*
X14976000Y-11176000D01*
G37*
G36*
X6563825Y-9961081D02*
X6591546Y-9969490D01*
X6617089Y-9983143D01*
X6639481Y-10001519D01*
X6657857Y-10023911D01*
X6671510Y-10049454D01*
X6679919Y-10077175D01*
X6683000Y-10108454D01*
X6683000Y-10549546D01*
X6679919Y-10580825D01*
X6671510Y-10608546D01*
X6657857Y-10634089D01*
X6639481Y-10656481D01*
X6617089Y-10674857D01*
X6591546Y-10688510D01*
X6563825Y-10696919D01*
X6532546Y-10700000D01*
X6141454Y-10700000D01*
X6110175Y-10696919D01*
X6082454Y-10688510D01*
X6056911Y-10674857D01*
X6034519Y-10656481D01*
X6016143Y-10634089D01*
X6002490Y-10608546D01*
X5994081Y-10580825D01*
X5991000Y-10549546D01*
X5991000Y-10108454D01*
X5994081Y-10077175D01*
X6002490Y-10049454D01*
X6016143Y-10023911D01*
X6034519Y-10001519D01*
X6056911Y-9983143D01*
X6082454Y-9969490D01*
X6110175Y-9961081D01*
X6141454Y-9958000D01*
X6532546Y-9958000D01*
X6563825Y-9961081D01*
X6563825Y-9961081D01*
G37*
G36*
X5593825Y-9961081D02*
X5621546Y-9969490D01*
X5647089Y-9983143D01*
X5669481Y-10001519D01*
X5687857Y-10023911D01*
X5701510Y-10049454D01*
X5709919Y-10077175D01*
X5713000Y-10108454D01*
X5713000Y-10549546D01*
X5709919Y-10580825D01*
X5701510Y-10608546D01*
X5687857Y-10634089D01*
X5669481Y-10656481D01*
X5647089Y-10674857D01*
X5621546Y-10688510D01*
X5593825Y-10696919D01*
X5562546Y-10700000D01*
X5171454Y-10700000D01*
X5140175Y-10696919D01*
X5112454Y-10688510D01*
X5086911Y-10674857D01*
X5064519Y-10656481D01*
X5046143Y-10634089D01*
X5032490Y-10608546D01*
X5024081Y-10580825D01*
X5021000Y-10549546D01*
X5021000Y-10108454D01*
X5024081Y-10077175D01*
X5032490Y-10049454D01*
X5046143Y-10023911D01*
X5064519Y-10001519D01*
X5086911Y-9983143D01*
X5112454Y-9969490D01*
X5140175Y-9961081D01*
X5171454Y-9958000D01*
X5562546Y-9958000D01*
X5593825Y-9961081D01*
X5593825Y-9961081D01*
G37*
G36*
X21491825Y-9882081D02*
X21519546Y-9890490D01*
X21545089Y-9904143D01*
X21567481Y-9922519D01*
X21585857Y-9944911D01*
X21599510Y-9970454D01*
X21607919Y-9998175D01*
X21611000Y-10029454D01*
X21611000Y-10470546D01*
X21607919Y-10501825D01*
X21599510Y-10529546D01*
X21585857Y-10555089D01*
X21567481Y-10577481D01*
X21545089Y-10595857D01*
X21519546Y-10609510D01*
X21491825Y-10617919D01*
X21460546Y-10621000D01*
X21069454Y-10621000D01*
X21038175Y-10617919D01*
X21010454Y-10609510D01*
X20984911Y-10595857D01*
X20962519Y-10577481D01*
X20944143Y-10555089D01*
X20930490Y-10529546D01*
X20922081Y-10501825D01*
X20919000Y-10470546D01*
X20919000Y-10029454D01*
X20922081Y-9998175D01*
X20930490Y-9970454D01*
X20944143Y-9944911D01*
X20962519Y-9922519D01*
X20984911Y-9904143D01*
X21010454Y-9890490D01*
X21038175Y-9882081D01*
X21069454Y-9879000D01*
X21460546Y-9879000D01*
X21491825Y-9882081D01*
X21491825Y-9882081D01*
G37*
G36*
X22461825Y-9882081D02*
X22489546Y-9890490D01*
X22515089Y-9904143D01*
X22537481Y-9922519D01*
X22555857Y-9944911D01*
X22569510Y-9970454D01*
X22577919Y-9998175D01*
X22581000Y-10029454D01*
X22581000Y-10470546D01*
X22577919Y-10501825D01*
X22569510Y-10529546D01*
X22555857Y-10555089D01*
X22537481Y-10577481D01*
X22515089Y-10595857D01*
X22489546Y-10609510D01*
X22461825Y-10617919D01*
X22430546Y-10621000D01*
X22039454Y-10621000D01*
X22008175Y-10617919D01*
X21980454Y-10609510D01*
X21954911Y-10595857D01*
X21932519Y-10577481D01*
X21914143Y-10555089D01*
X21900490Y-10529546D01*
X21892081Y-10501825D01*
X21889000Y-10470546D01*
X21889000Y-10029454D01*
X21892081Y-9998175D01*
X21900490Y-9970454D01*
X21914143Y-9944911D01*
X21932519Y-9922519D01*
X21954911Y-9904143D01*
X21980454Y-9890490D01*
X22008175Y-9882081D01*
X22039454Y-9879000D01*
X22430546Y-9879000D01*
X22461825Y-9882081D01*
X22461825Y-9882081D01*
G37*
G36*
X9776000Y-10526000D02*
X9374000Y-10526000D01*
X9374000Y-10124000D01*
X9776000Y-10124000D01*
X9776000Y-10526000D01*
X9776000Y-10526000D01*
G37*
G36*
X14976000Y-10526000D02*
X14574000Y-10526000D01*
X14574000Y-10124000D01*
X14976000Y-10124000D01*
X14976000Y-10526000D01*
X14976000Y-10526000D01*
G37*
G36*
X15626000Y-10526000D02*
X15224000Y-10526000D01*
X15224000Y-10124000D01*
X15626000Y-10124000D01*
X15626000Y-10526000D01*
X15626000Y-10526000D01*
G37*
G36*
X10426000Y-10526000D02*
X10024000Y-10526000D01*
X10024000Y-10124000D01*
X10426000Y-10124000D01*
X10426000Y-10526000D01*
X10426000Y-10526000D01*
G37*
G36*
X19496825Y-9777081D02*
X19524546Y-9785490D01*
X19550089Y-9799143D01*
X19572481Y-9817519D01*
X19590857Y-9839911D01*
X19604510Y-9865454D01*
X19612919Y-9893175D01*
X19616000Y-9924454D01*
X19616000Y-10315546D01*
X19612919Y-10346825D01*
X19604510Y-10374546D01*
X19590857Y-10400089D01*
X19572481Y-10422481D01*
X19550089Y-10440857D01*
X19524546Y-10454510D01*
X19496825Y-10462919D01*
X19465546Y-10466000D01*
X19024454Y-10466000D01*
X18993175Y-10462919D01*
X18965454Y-10454510D01*
X18939911Y-10440857D01*
X18917519Y-10422481D01*
X18899143Y-10400089D01*
X18885490Y-10374546D01*
X18877081Y-10346825D01*
X18874000Y-10315546D01*
X18874000Y-9924454D01*
X18877081Y-9893175D01*
X18885490Y-9865454D01*
X18899143Y-9839911D01*
X18917519Y-9817519D01*
X18939911Y-9799143D01*
X18965454Y-9785490D01*
X18993175Y-9777081D01*
X19024454Y-9774000D01*
X19465546Y-9774000D01*
X19496825Y-9777081D01*
X19496825Y-9777081D01*
G37*
G36*
X18552825Y-9767081D02*
X18580546Y-9775490D01*
X18606089Y-9789143D01*
X18628481Y-9807519D01*
X18646857Y-9829911D01*
X18660510Y-9855454D01*
X18668919Y-9883175D01*
X18672000Y-9914454D01*
X18672000Y-10305546D01*
X18668919Y-10336825D01*
X18660510Y-10364546D01*
X18646857Y-10390089D01*
X18628481Y-10412481D01*
X18606089Y-10430857D01*
X18580546Y-10444510D01*
X18552825Y-10452919D01*
X18521546Y-10456000D01*
X18080454Y-10456000D01*
X18049175Y-10452919D01*
X18021454Y-10444510D01*
X17995911Y-10430857D01*
X17973519Y-10412481D01*
X17955143Y-10390089D01*
X17941490Y-10364546D01*
X17933081Y-10336825D01*
X17930000Y-10305546D01*
X17930000Y-9914454D01*
X17933081Y-9883175D01*
X17941490Y-9855454D01*
X17955143Y-9829911D01*
X17973519Y-9807519D01*
X17995911Y-9789143D01*
X18021454Y-9775490D01*
X18049175Y-9767081D01*
X18080454Y-9764000D01*
X18521546Y-9764000D01*
X18552825Y-9767081D01*
X18552825Y-9767081D01*
G37*
G36*
X1225719Y-9054374D02*
X1225722Y-9054375D01*
X1225721Y-9054375D01*
X1325996Y-9095910D01*
X1416242Y-9156210D01*
X1492990Y-9232958D01*
X1553290Y-9323204D01*
X1571358Y-9366825D01*
X1594826Y-9423481D01*
X1616000Y-9529930D01*
X1616000Y-9638470D01*
X1594826Y-9744919D01*
X1594825Y-9744921D01*
X1553290Y-9845196D01*
X1492990Y-9935442D01*
X1416242Y-10012190D01*
X1325996Y-10072490D01*
X1266222Y-10097249D01*
X1225719Y-10114026D01*
X1119270Y-10135200D01*
X1010730Y-10135200D01*
X904281Y-10114026D01*
X863778Y-10097249D01*
X804004Y-10072490D01*
X713758Y-10012190D01*
X637010Y-9935442D01*
X576710Y-9845196D01*
X535175Y-9744921D01*
X535174Y-9744919D01*
X514000Y-9638470D01*
X514000Y-9529930D01*
X535174Y-9423481D01*
X558642Y-9366825D01*
X576710Y-9323204D01*
X637010Y-9232958D01*
X713758Y-9156210D01*
X804004Y-9095910D01*
X904279Y-9054375D01*
X904278Y-9054375D01*
X904281Y-9054374D01*
X1010730Y-9033200D01*
X1119270Y-9033200D01*
X1225719Y-9054374D01*
X1225719Y-9054374D01*
G37*
G36*
X10426000Y-9876000D02*
X10024000Y-9876000D01*
X10024000Y-9474000D01*
X10426000Y-9474000D01*
X10426000Y-9876000D01*
X10426000Y-9876000D01*
G37*
G36*
X14976000Y-9876000D02*
X14574000Y-9876000D01*
X14574000Y-9474000D01*
X14976000Y-9474000D01*
X14976000Y-9876000D01*
X14976000Y-9876000D01*
G37*
G36*
X15626000Y-9876000D02*
X15224000Y-9876000D01*
X15224000Y-9474000D01*
X15626000Y-9474000D01*
X15626000Y-9876000D01*
X15626000Y-9876000D01*
G37*
G36*
X9776000Y-9876000D02*
X9374000Y-9876000D01*
X9374000Y-9474000D01*
X9776000Y-9474000D01*
X9776000Y-9876000D01*
X9776000Y-9876000D01*
G37*
G36*
X5593825Y-8941081D02*
X5621546Y-8949490D01*
X5647089Y-8963143D01*
X5669481Y-8981519D01*
X5687857Y-9003911D01*
X5701510Y-9029454D01*
X5709919Y-9057175D01*
X5713000Y-9088454D01*
X5713000Y-9529546D01*
X5709919Y-9560825D01*
X5701510Y-9588546D01*
X5687857Y-9614089D01*
X5669481Y-9636481D01*
X5647089Y-9654857D01*
X5621546Y-9668510D01*
X5593825Y-9676919D01*
X5562546Y-9680000D01*
X5171454Y-9680000D01*
X5140175Y-9676919D01*
X5112454Y-9668510D01*
X5086911Y-9654857D01*
X5064519Y-9636481D01*
X5046143Y-9614089D01*
X5032490Y-9588546D01*
X5024081Y-9560825D01*
X5021000Y-9529546D01*
X5021000Y-9088454D01*
X5024081Y-9057175D01*
X5032490Y-9029454D01*
X5046143Y-9003911D01*
X5064519Y-8981519D01*
X5086911Y-8963143D01*
X5112454Y-8949490D01*
X5140175Y-8941081D01*
X5171454Y-8938000D01*
X5562546Y-8938000D01*
X5593825Y-8941081D01*
X5593825Y-8941081D01*
G37*
G36*
X6563825Y-8941081D02*
X6591546Y-8949490D01*
X6617089Y-8963143D01*
X6639481Y-8981519D01*
X6657857Y-9003911D01*
X6671510Y-9029454D01*
X6679919Y-9057175D01*
X6683000Y-9088454D01*
X6683000Y-9529546D01*
X6679919Y-9560825D01*
X6671510Y-9588546D01*
X6657857Y-9614089D01*
X6639481Y-9636481D01*
X6617089Y-9654857D01*
X6591546Y-9668510D01*
X6563825Y-9676919D01*
X6532546Y-9680000D01*
X6141454Y-9680000D01*
X6110175Y-9676919D01*
X6082454Y-9668510D01*
X6056911Y-9654857D01*
X6034519Y-9636481D01*
X6016143Y-9614089D01*
X6002490Y-9588546D01*
X5994081Y-9560825D01*
X5991000Y-9529546D01*
X5991000Y-9088454D01*
X5994081Y-9057175D01*
X6002490Y-9029454D01*
X6016143Y-9003911D01*
X6034519Y-8981519D01*
X6056911Y-8963143D01*
X6082454Y-8949490D01*
X6110175Y-8941081D01*
X6141454Y-8938000D01*
X6532546Y-8938000D01*
X6563825Y-8941081D01*
X6563825Y-8941081D01*
G37*
G36*
X21491825Y-8882081D02*
X21519546Y-8890490D01*
X21545089Y-8904143D01*
X21567481Y-8922519D01*
X21585857Y-8944911D01*
X21599510Y-8970454D01*
X21607919Y-8998175D01*
X21611000Y-9029454D01*
X21611000Y-9470546D01*
X21607919Y-9501825D01*
X21599510Y-9529546D01*
X21585857Y-9555089D01*
X21567481Y-9577481D01*
X21545089Y-9595857D01*
X21519546Y-9609510D01*
X21491825Y-9617919D01*
X21460546Y-9621000D01*
X21069454Y-9621000D01*
X21038175Y-9617919D01*
X21010454Y-9609510D01*
X20984911Y-9595857D01*
X20962519Y-9577481D01*
X20944143Y-9555089D01*
X20930490Y-9529546D01*
X20922081Y-9501825D01*
X20919000Y-9470546D01*
X20919000Y-9029454D01*
X20922081Y-8998175D01*
X20930490Y-8970454D01*
X20944143Y-8944911D01*
X20962519Y-8922519D01*
X20984911Y-8904143D01*
X21010454Y-8890490D01*
X21038175Y-8882081D01*
X21069454Y-8879000D01*
X21460546Y-8879000D01*
X21491825Y-8882081D01*
X21491825Y-8882081D01*
G37*
G36*
X22461825Y-8882081D02*
X22489546Y-8890490D01*
X22515089Y-8904143D01*
X22537481Y-8922519D01*
X22555857Y-8944911D01*
X22569510Y-8970454D01*
X22577919Y-8998175D01*
X22581000Y-9029454D01*
X22581000Y-9470546D01*
X22577919Y-9501825D01*
X22569510Y-9529546D01*
X22555857Y-9555089D01*
X22537481Y-9577481D01*
X22515089Y-9595857D01*
X22489546Y-9609510D01*
X22461825Y-9617919D01*
X22430546Y-9621000D01*
X22039454Y-9621000D01*
X22008175Y-9617919D01*
X21980454Y-9609510D01*
X21954911Y-9595857D01*
X21932519Y-9577481D01*
X21914143Y-9555089D01*
X21900490Y-9529546D01*
X21892081Y-9501825D01*
X21889000Y-9470546D01*
X21889000Y-9029454D01*
X21892081Y-8998175D01*
X21900490Y-8970454D01*
X21914143Y-8944911D01*
X21932519Y-8922519D01*
X21954911Y-8904143D01*
X21980454Y-8890490D01*
X22008175Y-8882081D01*
X22039454Y-8879000D01*
X22430546Y-8879000D01*
X22461825Y-8882081D01*
X22461825Y-8882081D01*
G37*
G36*
X19496825Y-8807081D02*
X19524546Y-8815490D01*
X19550089Y-8829143D01*
X19572481Y-8847519D01*
X19590857Y-8869911D01*
X19604510Y-8895454D01*
X19612919Y-8923175D01*
X19616000Y-8954454D01*
X19616000Y-9345546D01*
X19612919Y-9376825D01*
X19604510Y-9404546D01*
X19590857Y-9430089D01*
X19572481Y-9452481D01*
X19550089Y-9470857D01*
X19524546Y-9484510D01*
X19496825Y-9492919D01*
X19465546Y-9496000D01*
X19024454Y-9496000D01*
X18993175Y-9492919D01*
X18965454Y-9484510D01*
X18939911Y-9470857D01*
X18917519Y-9452481D01*
X18899143Y-9430089D01*
X18885490Y-9404546D01*
X18877081Y-9376825D01*
X18874000Y-9345546D01*
X18874000Y-8954454D01*
X18877081Y-8923175D01*
X18885490Y-8895454D01*
X18899143Y-8869911D01*
X18917519Y-8847519D01*
X18939911Y-8829143D01*
X18965454Y-8815490D01*
X18993175Y-8807081D01*
X19024454Y-8804000D01*
X19465546Y-8804000D01*
X19496825Y-8807081D01*
X19496825Y-8807081D01*
G37*
G36*
X18552825Y-8797081D02*
X18580546Y-8805490D01*
X18606089Y-8819143D01*
X18628481Y-8837519D01*
X18646857Y-8859911D01*
X18660510Y-8885454D01*
X18668919Y-8913175D01*
X18672000Y-8944454D01*
X18672000Y-9335546D01*
X18668919Y-9366825D01*
X18660510Y-9394546D01*
X18646857Y-9420089D01*
X18628481Y-9442481D01*
X18606089Y-9460857D01*
X18580546Y-9474510D01*
X18552825Y-9482919D01*
X18521546Y-9486000D01*
X18080454Y-9486000D01*
X18049175Y-9482919D01*
X18021454Y-9474510D01*
X17995911Y-9460857D01*
X17973519Y-9442481D01*
X17955143Y-9420089D01*
X17941490Y-9394546D01*
X17933081Y-9366825D01*
X17930000Y-9335546D01*
X17930000Y-8944454D01*
X17933081Y-8913175D01*
X17941490Y-8885454D01*
X17955143Y-8859911D01*
X17973519Y-8837519D01*
X17995911Y-8819143D01*
X18021454Y-8805490D01*
X18049175Y-8797081D01*
X18080454Y-8794000D01*
X18521546Y-8794000D01*
X18552825Y-8797081D01*
X18552825Y-8797081D01*
G37*
G36*
X9776000Y-9226000D02*
X9374000Y-9226000D01*
X9374000Y-8824000D01*
X9776000Y-8824000D01*
X9776000Y-9226000D01*
X9776000Y-9226000D01*
G37*
G36*
X14976000Y-9226000D02*
X14574000Y-9226000D01*
X14574000Y-8824000D01*
X14976000Y-8824000D01*
X14976000Y-9226000D01*
X14976000Y-9226000D01*
G37*
G36*
X15626000Y-9226000D02*
X15224000Y-9226000D01*
X15224000Y-8824000D01*
X15626000Y-8824000D01*
X15626000Y-9226000D01*
X15626000Y-9226000D01*
G37*
G36*
X10426000Y-9226000D02*
X10024000Y-9226000D01*
X10024000Y-8824000D01*
X10426000Y-8824000D01*
X10426000Y-9226000D01*
X10426000Y-9226000D01*
G37*
G36*
X21491825Y-7882081D02*
X21519546Y-7890490D01*
X21545089Y-7904143D01*
X21567481Y-7922519D01*
X21585857Y-7944911D01*
X21599510Y-7970454D01*
X21607919Y-7998175D01*
X21611000Y-8029454D01*
X21611000Y-8470546D01*
X21607919Y-8501825D01*
X21599510Y-8529546D01*
X21585857Y-8555089D01*
X21567481Y-8577481D01*
X21545089Y-8595857D01*
X21519546Y-8609510D01*
X21491825Y-8617919D01*
X21460546Y-8621000D01*
X21069454Y-8621000D01*
X21038175Y-8617919D01*
X21010454Y-8609510D01*
X20984911Y-8595857D01*
X20962519Y-8577481D01*
X20944143Y-8555089D01*
X20930490Y-8529546D01*
X20922081Y-8501825D01*
X20919000Y-8470546D01*
X20919000Y-8029454D01*
X20922081Y-7998175D01*
X20930490Y-7970454D01*
X20944143Y-7944911D01*
X20962519Y-7922519D01*
X20984911Y-7904143D01*
X21010454Y-7890490D01*
X21038175Y-7882081D01*
X21069454Y-7879000D01*
X21460546Y-7879000D01*
X21491825Y-7882081D01*
X21491825Y-7882081D01*
G37*
G36*
X22461825Y-7882081D02*
X22489546Y-7890490D01*
X22515089Y-7904143D01*
X22537481Y-7922519D01*
X22555857Y-7944911D01*
X22569510Y-7970454D01*
X22577919Y-7998175D01*
X22581000Y-8029454D01*
X22581000Y-8470546D01*
X22577919Y-8501825D01*
X22569510Y-8529546D01*
X22555857Y-8555089D01*
X22537481Y-8577481D01*
X22515089Y-8595857D01*
X22489546Y-8609510D01*
X22461825Y-8617919D01*
X22430546Y-8621000D01*
X22039454Y-8621000D01*
X22008175Y-8617919D01*
X21980454Y-8609510D01*
X21954911Y-8595857D01*
X21932519Y-8577481D01*
X21914143Y-8555089D01*
X21900490Y-8529546D01*
X21892081Y-8501825D01*
X21889000Y-8470546D01*
X21889000Y-8029454D01*
X21892081Y-7998175D01*
X21900490Y-7970454D01*
X21914143Y-7944911D01*
X21932519Y-7922519D01*
X21954911Y-7904143D01*
X21980454Y-7890490D01*
X22008175Y-7882081D01*
X22039454Y-7879000D01*
X22430546Y-7879000D01*
X22461825Y-7882081D01*
X22461825Y-7882081D01*
G37*
G36*
X9776000Y-8576000D02*
X9374000Y-8576000D01*
X9374000Y-8174000D01*
X9776000Y-8174000D01*
X9776000Y-8576000D01*
X9776000Y-8576000D01*
G37*
G36*
X15626000Y-8576000D02*
X15224000Y-8576000D01*
X15224000Y-8174000D01*
X15626000Y-8174000D01*
X15626000Y-8576000D01*
X15626000Y-8576000D01*
G37*
G36*
X10426000Y-8576000D02*
X10024000Y-8576000D01*
X10024000Y-8174000D01*
X10426000Y-8174000D01*
X10426000Y-8576000D01*
X10426000Y-8576000D01*
G37*
G36*
X14976000Y-8576000D02*
X14574000Y-8576000D01*
X14574000Y-8174000D01*
X14976000Y-8174000D01*
X14976000Y-8576000D01*
X14976000Y-8576000D01*
G37*
G36*
X19696825Y-7267081D02*
X19724546Y-7275490D01*
X19750089Y-7289143D01*
X19772481Y-7307519D01*
X19790857Y-7329911D01*
X19804510Y-7355454D01*
X19812919Y-7383175D01*
X19816000Y-7414454D01*
X19816000Y-7855546D01*
X19812919Y-7886825D01*
X19804510Y-7914546D01*
X19790857Y-7940089D01*
X19772481Y-7962481D01*
X19750089Y-7980857D01*
X19724546Y-7994510D01*
X19696825Y-8002919D01*
X19665546Y-8006000D01*
X19274454Y-8006000D01*
X19243175Y-8002919D01*
X19215454Y-7994510D01*
X19189911Y-7980857D01*
X19167519Y-7962481D01*
X19149143Y-7940089D01*
X19135490Y-7914546D01*
X19127081Y-7886825D01*
X19124000Y-7855546D01*
X19124000Y-7414454D01*
X19127081Y-7383175D01*
X19135490Y-7355454D01*
X19149143Y-7329911D01*
X19167519Y-7307519D01*
X19189911Y-7289143D01*
X19215454Y-7275490D01*
X19243175Y-7267081D01*
X19274454Y-7264000D01*
X19665546Y-7264000D01*
X19696825Y-7267081D01*
X19696825Y-7267081D01*
G37*
G36*
X20666825Y-7267081D02*
X20694546Y-7275490D01*
X20720089Y-7289143D01*
X20742481Y-7307519D01*
X20760857Y-7329911D01*
X20774510Y-7355454D01*
X20782919Y-7383175D01*
X20786000Y-7414454D01*
X20786000Y-7855546D01*
X20782919Y-7886825D01*
X20774510Y-7914546D01*
X20760857Y-7940089D01*
X20742481Y-7962481D01*
X20720089Y-7980857D01*
X20694546Y-7994510D01*
X20666825Y-8002919D01*
X20635546Y-8006000D01*
X20244454Y-8006000D01*
X20213175Y-8002919D01*
X20185454Y-7994510D01*
X20159911Y-7980857D01*
X20137519Y-7962481D01*
X20119143Y-7940089D01*
X20105490Y-7914546D01*
X20097081Y-7886825D01*
X20094000Y-7855546D01*
X20094000Y-7414454D01*
X20097081Y-7383175D01*
X20105490Y-7355454D01*
X20119143Y-7329911D01*
X20137519Y-7307519D01*
X20159911Y-7289143D01*
X20185454Y-7275490D01*
X20213175Y-7267081D01*
X20244454Y-7264000D01*
X20635546Y-7264000D01*
X20666825Y-7267081D01*
X20666825Y-7267081D01*
G37*
G36*
X18836825Y-7267081D02*
X18864546Y-7275490D01*
X18890089Y-7289143D01*
X18912481Y-7307519D01*
X18930857Y-7329911D01*
X18944510Y-7355454D01*
X18952919Y-7383175D01*
X18956000Y-7414454D01*
X18956000Y-7855546D01*
X18952919Y-7886825D01*
X18944510Y-7914546D01*
X18930857Y-7940089D01*
X18912481Y-7962481D01*
X18890089Y-7980857D01*
X18864546Y-7994510D01*
X18836825Y-8002919D01*
X18805546Y-8006000D01*
X18414454Y-8006000D01*
X18383175Y-8002919D01*
X18355454Y-7994510D01*
X18329911Y-7980857D01*
X18307519Y-7962481D01*
X18289143Y-7940089D01*
X18275490Y-7914546D01*
X18267081Y-7886825D01*
X18264000Y-7855546D01*
X18264000Y-7414454D01*
X18267081Y-7383175D01*
X18275490Y-7355454D01*
X18289143Y-7329911D01*
X18307519Y-7307519D01*
X18329911Y-7289143D01*
X18355454Y-7275490D01*
X18383175Y-7267081D01*
X18414454Y-7264000D01*
X18805546Y-7264000D01*
X18836825Y-7267081D01*
X18836825Y-7267081D01*
G37*
G36*
X17866825Y-7267081D02*
X17894546Y-7275490D01*
X17920089Y-7289143D01*
X17942481Y-7307519D01*
X17960857Y-7329911D01*
X17974510Y-7355454D01*
X17982919Y-7383175D01*
X17986000Y-7414454D01*
X17986000Y-7855546D01*
X17982919Y-7886825D01*
X17974510Y-7914546D01*
X17960857Y-7940089D01*
X17942481Y-7962481D01*
X17920089Y-7980857D01*
X17894546Y-7994510D01*
X17866825Y-8002919D01*
X17835546Y-8006000D01*
X17444454Y-8006000D01*
X17413175Y-8002919D01*
X17385454Y-7994510D01*
X17359911Y-7980857D01*
X17337519Y-7962481D01*
X17319143Y-7940089D01*
X17305490Y-7914546D01*
X17297081Y-7886825D01*
X17294000Y-7855546D01*
X17294000Y-7414454D01*
X17297081Y-7383175D01*
X17305490Y-7355454D01*
X17319143Y-7329911D01*
X17337519Y-7307519D01*
X17359911Y-7289143D01*
X17385454Y-7275490D01*
X17413175Y-7267081D01*
X17444454Y-7264000D01*
X17835546Y-7264000D01*
X17866825Y-7267081D01*
X17866825Y-7267081D01*
G37*
G36*
X10426000Y-7926000D02*
X10024000Y-7926000D01*
X10024000Y-7524000D01*
X10426000Y-7524000D01*
X10426000Y-7926000D01*
X10426000Y-7926000D01*
G37*
G36*
X15626000Y-7926000D02*
X15224000Y-7926000D01*
X15224000Y-7524000D01*
X15626000Y-7524000D01*
X15626000Y-7926000D01*
X15626000Y-7926000D01*
G37*
G36*
X14976000Y-7926000D02*
X14574000Y-7926000D01*
X14574000Y-7524000D01*
X14976000Y-7524000D01*
X14976000Y-7926000D01*
X14976000Y-7926000D01*
G37*
G36*
X14326000Y-7926000D02*
X13924000Y-7926000D01*
X13924000Y-7524000D01*
X14326000Y-7524000D01*
X14326000Y-7926000D01*
X14326000Y-7926000D01*
G37*
G36*
X11076000Y-7926000D02*
X10674000Y-7926000D01*
X10674000Y-7524000D01*
X11076000Y-7524000D01*
X11076000Y-7926000D01*
X11076000Y-7926000D01*
G37*
G36*
X9776000Y-7926000D02*
X9374000Y-7926000D01*
X9374000Y-7524000D01*
X9776000Y-7524000D01*
X9776000Y-7926000D01*
X9776000Y-7926000D01*
G37*
G36*
X6716825Y-6977081D02*
X6744546Y-6985490D01*
X6770089Y-6999143D01*
X6792481Y-7017519D01*
X6810857Y-7039911D01*
X6824510Y-7065454D01*
X6832919Y-7093175D01*
X6836000Y-7124454D01*
X6836000Y-7565546D01*
X6832919Y-7596825D01*
X6824510Y-7624546D01*
X6810857Y-7650089D01*
X6792481Y-7672481D01*
X6770089Y-7690857D01*
X6744546Y-7704510D01*
X6716825Y-7712919D01*
X6685546Y-7716000D01*
X6294454Y-7716000D01*
X6263175Y-7712919D01*
X6235454Y-7704510D01*
X6209911Y-7690857D01*
X6187519Y-7672481D01*
X6169143Y-7650089D01*
X6155490Y-7624546D01*
X6147081Y-7596825D01*
X6144000Y-7565546D01*
X6144000Y-7124454D01*
X6147081Y-7093175D01*
X6155490Y-7065454D01*
X6169143Y-7039911D01*
X6187519Y-7017519D01*
X6209911Y-6999143D01*
X6235454Y-6985490D01*
X6263175Y-6977081D01*
X6294454Y-6974000D01*
X6685546Y-6974000D01*
X6716825Y-6977081D01*
X6716825Y-6977081D01*
G37*
G36*
X5746825Y-6977081D02*
X5774546Y-6985490D01*
X5800089Y-6999143D01*
X5822481Y-7017519D01*
X5840857Y-7039911D01*
X5854510Y-7065454D01*
X5862919Y-7093175D01*
X5866000Y-7124454D01*
X5866000Y-7565546D01*
X5862919Y-7596825D01*
X5854510Y-7624546D01*
X5840857Y-7650089D01*
X5822481Y-7672481D01*
X5800089Y-7690857D01*
X5774546Y-7704510D01*
X5746825Y-7712919D01*
X5715546Y-7716000D01*
X5324454Y-7716000D01*
X5293175Y-7712919D01*
X5265454Y-7704510D01*
X5239911Y-7690857D01*
X5217519Y-7672481D01*
X5199143Y-7650089D01*
X5185490Y-7624546D01*
X5177081Y-7596825D01*
X5174000Y-7565546D01*
X5174000Y-7124454D01*
X5177081Y-7093175D01*
X5185490Y-7065454D01*
X5199143Y-7039911D01*
X5217519Y-7017519D01*
X5239911Y-6999143D01*
X5265454Y-6985490D01*
X5293175Y-6977081D01*
X5324454Y-6974000D01*
X5715546Y-6974000D01*
X5746825Y-6977081D01*
X5746825Y-6977081D01*
G37*
G36*
X22461825Y-6882081D02*
X22489546Y-6890490D01*
X22515089Y-6904143D01*
X22537481Y-6922519D01*
X22555857Y-6944911D01*
X22569510Y-6970454D01*
X22577919Y-6998175D01*
X22581000Y-7029454D01*
X22581000Y-7470546D01*
X22577919Y-7501825D01*
X22569510Y-7529546D01*
X22555857Y-7555089D01*
X22537481Y-7577481D01*
X22515089Y-7595857D01*
X22489546Y-7609510D01*
X22461825Y-7617919D01*
X22430546Y-7621000D01*
X22039454Y-7621000D01*
X22008175Y-7617919D01*
X21980454Y-7609510D01*
X21954911Y-7595857D01*
X21932519Y-7577481D01*
X21914143Y-7555089D01*
X21900490Y-7529546D01*
X21892081Y-7501825D01*
X21889000Y-7470546D01*
X21889000Y-7029454D01*
X21892081Y-6998175D01*
X21900490Y-6970454D01*
X21914143Y-6944911D01*
X21932519Y-6922519D01*
X21954911Y-6904143D01*
X21980454Y-6890490D01*
X22008175Y-6882081D01*
X22039454Y-6879000D01*
X22430546Y-6879000D01*
X22461825Y-6882081D01*
X22461825Y-6882081D01*
G37*
G36*
X21491825Y-6882081D02*
X21519546Y-6890490D01*
X21545089Y-6904143D01*
X21567481Y-6922519D01*
X21585857Y-6944911D01*
X21599510Y-6970454D01*
X21607919Y-6998175D01*
X21611000Y-7029454D01*
X21611000Y-7470546D01*
X21607919Y-7501825D01*
X21599510Y-7529546D01*
X21585857Y-7555089D01*
X21567481Y-7577481D01*
X21545089Y-7595857D01*
X21519546Y-7609510D01*
X21491825Y-7617919D01*
X21460546Y-7621000D01*
X21069454Y-7621000D01*
X21038175Y-7617919D01*
X21010454Y-7609510D01*
X20984911Y-7595857D01*
X20962519Y-7577481D01*
X20944143Y-7555089D01*
X20930490Y-7529546D01*
X20922081Y-7501825D01*
X20919000Y-7470546D01*
X20919000Y-7029454D01*
X20922081Y-6998175D01*
X20930490Y-6970454D01*
X20944143Y-6944911D01*
X20962519Y-6922519D01*
X20984911Y-6904143D01*
X21010454Y-6890490D01*
X21038175Y-6882081D01*
X21069454Y-6879000D01*
X21460546Y-6879000D01*
X21491825Y-6882081D01*
X21491825Y-6882081D01*
G37*
G36*
X10426000Y-7276000D02*
X10024000Y-7276000D01*
X10024000Y-6874000D01*
X10426000Y-6874000D01*
X10426000Y-7276000D01*
X10426000Y-7276000D01*
G37*
G36*
X11726000Y-7276000D02*
X11324000Y-7276000D01*
X11324000Y-6874000D01*
X11726000Y-6874000D01*
X11726000Y-7276000D01*
X11726000Y-7276000D01*
G37*
G36*
X11076000Y-7276000D02*
X10674000Y-7276000D01*
X10674000Y-6874000D01*
X11076000Y-6874000D01*
X11076000Y-7276000D01*
X11076000Y-7276000D01*
G37*
G36*
X9776000Y-7276000D02*
X9374000Y-7276000D01*
X9374000Y-6874000D01*
X9776000Y-6874000D01*
X9776000Y-7276000D01*
X9776000Y-7276000D01*
G37*
G36*
X13026000Y-7276000D02*
X12624000Y-7276000D01*
X12624000Y-6874000D01*
X13026000Y-6874000D01*
X13026000Y-7276000D01*
X13026000Y-7276000D01*
G37*
G36*
X13676000Y-7276000D02*
X13274000Y-7276000D01*
X13274000Y-6874000D01*
X13676000Y-6874000D01*
X13676000Y-7276000D01*
X13676000Y-7276000D01*
G37*
G36*
X12376000Y-7276000D02*
X11974000Y-7276000D01*
X11974000Y-6874000D01*
X12376000Y-6874000D01*
X12376000Y-7276000D01*
X12376000Y-7276000D01*
G37*
G36*
X15626000Y-7276000D02*
X15224000Y-7276000D01*
X15224000Y-6874000D01*
X15626000Y-6874000D01*
X15626000Y-7276000D01*
X15626000Y-7276000D01*
G37*
G36*
X14976000Y-7276000D02*
X14574000Y-7276000D01*
X14574000Y-6874000D01*
X14976000Y-6874000D01*
X14976000Y-7276000D01*
X14976000Y-7276000D01*
G37*
G36*
X14326000Y-7276000D02*
X13924000Y-7276000D01*
X13924000Y-6874000D01*
X14326000Y-6874000D01*
X14326000Y-7276000D01*
X14326000Y-7276000D01*
G37*
G36*
X1135719Y-5724374D02*
X1135722Y-5724375D01*
X1135721Y-5724375D01*
X1235996Y-5765910D01*
X1326242Y-5826210D01*
X1402990Y-5902958D01*
X1463290Y-5993204D01*
X1463290Y-5993205D01*
X1504826Y-6093481D01*
X1526000Y-6199930D01*
X1526000Y-6308470D01*
X1504826Y-6414919D01*
X1504825Y-6414921D01*
X1463290Y-6515196D01*
X1402990Y-6605442D01*
X1326242Y-6682190D01*
X1235996Y-6742490D01*
X1165090Y-6771860D01*
X1135719Y-6784026D01*
X1029270Y-6805200D01*
X920730Y-6805200D01*
X814281Y-6784026D01*
X784910Y-6771860D01*
X714004Y-6742490D01*
X623758Y-6682190D01*
X547010Y-6605442D01*
X486710Y-6515196D01*
X445175Y-6414921D01*
X445174Y-6414919D01*
X424000Y-6308470D01*
X424000Y-6199930D01*
X445174Y-6093481D01*
X486710Y-5993205D01*
X486710Y-5993204D01*
X547010Y-5902958D01*
X623758Y-5826210D01*
X714004Y-5765910D01*
X814279Y-5724375D01*
X814278Y-5724375D01*
X814281Y-5724374D01*
X920730Y-5703200D01*
X1029270Y-5703200D01*
X1135719Y-5724374D01*
X1135719Y-5724374D01*
G37*
G36*
X11076000Y-6626000D02*
X10674000Y-6626000D01*
X10674000Y-6224000D01*
X11076000Y-6224000D01*
X11076000Y-6626000D01*
X11076000Y-6626000D01*
G37*
G36*
X14976000Y-6626000D02*
X14574000Y-6626000D01*
X14574000Y-6224000D01*
X14976000Y-6224000D01*
X14976000Y-6626000D01*
X14976000Y-6626000D01*
G37*
G36*
X13676000Y-6626000D02*
X13274000Y-6626000D01*
X13274000Y-6224000D01*
X13676000Y-6224000D01*
X13676000Y-6626000D01*
X13676000Y-6626000D01*
G37*
G36*
X10426000Y-6626000D02*
X10024000Y-6626000D01*
X10024000Y-6224000D01*
X10426000Y-6224000D01*
X10426000Y-6626000D01*
X10426000Y-6626000D01*
G37*
G36*
X11726000Y-6626000D02*
X11324000Y-6626000D01*
X11324000Y-6224000D01*
X11726000Y-6224000D01*
X11726000Y-6626000D01*
X11726000Y-6626000D01*
G37*
G36*
X15626000Y-6626000D02*
X15224000Y-6626000D01*
X15224000Y-6224000D01*
X15626000Y-6224000D01*
X15626000Y-6626000D01*
X15626000Y-6626000D01*
G37*
G36*
X9776000Y-6626000D02*
X9374000Y-6626000D01*
X9374000Y-6224000D01*
X9776000Y-6224000D01*
X9776000Y-6626000D01*
X9776000Y-6626000D01*
G37*
G36*
X14326000Y-6626000D02*
X13924000Y-6626000D01*
X13924000Y-6224000D01*
X14326000Y-6224000D01*
X14326000Y-6626000D01*
X14326000Y-6626000D01*
G37*
G36*
X13026000Y-6626000D02*
X12624000Y-6626000D01*
X12624000Y-6224000D01*
X13026000Y-6224000D01*
X13026000Y-6626000D01*
X13026000Y-6626000D01*
G37*
G36*
X12376000Y-6626000D02*
X11974000Y-6626000D01*
X11974000Y-6224000D01*
X12376000Y-6224000D01*
X12376000Y-6626000D01*
X12376000Y-6626000D01*
G37*
G36*
X21491825Y-5882081D02*
X21519546Y-5890490D01*
X21545089Y-5904143D01*
X21567481Y-5922519D01*
X21585857Y-5944911D01*
X21599510Y-5970454D01*
X21607919Y-5998175D01*
X21611000Y-6029454D01*
X21611000Y-6470546D01*
X21607919Y-6501825D01*
X21599510Y-6529546D01*
X21585857Y-6555089D01*
X21567481Y-6577481D01*
X21545089Y-6595857D01*
X21519546Y-6609510D01*
X21491825Y-6617919D01*
X21460546Y-6621000D01*
X21069454Y-6621000D01*
X21038175Y-6617919D01*
X21010454Y-6609510D01*
X20984911Y-6595857D01*
X20962519Y-6577481D01*
X20944143Y-6555089D01*
X20930490Y-6529546D01*
X20922081Y-6501825D01*
X20919000Y-6470546D01*
X20919000Y-6029454D01*
X20922081Y-5998175D01*
X20930490Y-5970454D01*
X20944143Y-5944911D01*
X20962519Y-5922519D01*
X20984911Y-5904143D01*
X21010454Y-5890490D01*
X21038175Y-5882081D01*
X21069454Y-5879000D01*
X21460546Y-5879000D01*
X21491825Y-5882081D01*
X21491825Y-5882081D01*
G37*
G36*
X22461825Y-5882081D02*
X22489546Y-5890490D01*
X22515089Y-5904143D01*
X22537481Y-5922519D01*
X22555857Y-5944911D01*
X22569510Y-5970454D01*
X22577919Y-5998175D01*
X22581000Y-6029454D01*
X22581000Y-6470546D01*
X22577919Y-6501825D01*
X22569510Y-6529546D01*
X22555857Y-6555089D01*
X22537481Y-6577481D01*
X22515089Y-6595857D01*
X22489546Y-6609510D01*
X22461825Y-6617919D01*
X22430546Y-6621000D01*
X22039454Y-6621000D01*
X22008175Y-6617919D01*
X21980454Y-6609510D01*
X21954911Y-6595857D01*
X21932519Y-6577481D01*
X21914143Y-6555089D01*
X21900490Y-6529546D01*
X21892081Y-6501825D01*
X21889000Y-6470546D01*
X21889000Y-6029454D01*
X21892081Y-5998175D01*
X21900490Y-5970454D01*
X21914143Y-5944911D01*
X21932519Y-5922519D01*
X21954911Y-5904143D01*
X21980454Y-5890490D01*
X22008175Y-5882081D01*
X22039454Y-5879000D01*
X22430546Y-5879000D01*
X22461825Y-5882081D01*
X22461825Y-5882081D01*
G37*
G36*
X19856825Y-5827081D02*
X19884546Y-5835490D01*
X19910089Y-5849143D01*
X19932481Y-5867519D01*
X19950857Y-5889911D01*
X19964510Y-5915454D01*
X19972919Y-5943175D01*
X19976000Y-5974454D01*
X19976000Y-6365546D01*
X19972919Y-6396825D01*
X19964510Y-6424546D01*
X19950857Y-6450089D01*
X19932481Y-6472481D01*
X19910089Y-6490857D01*
X19884546Y-6504510D01*
X19856825Y-6512919D01*
X19825546Y-6516000D01*
X19384454Y-6516000D01*
X19353175Y-6512919D01*
X19325454Y-6504510D01*
X19299911Y-6490857D01*
X19277519Y-6472481D01*
X19259143Y-6450089D01*
X19245490Y-6424546D01*
X19237081Y-6396825D01*
X19234000Y-6365546D01*
X19234000Y-5974454D01*
X19237081Y-5943175D01*
X19245490Y-5915454D01*
X19259143Y-5889911D01*
X19277519Y-5867519D01*
X19299911Y-5849143D01*
X19325454Y-5835490D01*
X19353175Y-5827081D01*
X19384454Y-5824000D01*
X19825546Y-5824000D01*
X19856825Y-5827081D01*
X19856825Y-5827081D01*
G37*
G36*
X18816825Y-5807081D02*
X18844546Y-5815490D01*
X18870089Y-5829143D01*
X18892481Y-5847519D01*
X18910857Y-5869911D01*
X18924510Y-5895454D01*
X18932919Y-5923175D01*
X18936000Y-5954454D01*
X18936000Y-6345546D01*
X18932919Y-6376825D01*
X18924510Y-6404546D01*
X18910857Y-6430089D01*
X18892481Y-6452481D01*
X18870089Y-6470857D01*
X18844546Y-6484510D01*
X18816825Y-6492919D01*
X18785546Y-6496000D01*
X18344454Y-6496000D01*
X18313175Y-6492919D01*
X18285454Y-6484510D01*
X18259911Y-6470857D01*
X18237519Y-6452481D01*
X18219143Y-6430089D01*
X18205490Y-6404546D01*
X18197081Y-6376825D01*
X18194000Y-6345546D01*
X18194000Y-5954454D01*
X18197081Y-5923175D01*
X18205490Y-5895454D01*
X18219143Y-5869911D01*
X18237519Y-5847519D01*
X18259911Y-5829143D01*
X18285454Y-5815490D01*
X18313175Y-5807081D01*
X18344454Y-5804000D01*
X18785546Y-5804000D01*
X18816825Y-5807081D01*
X18816825Y-5807081D01*
G37*
G36*
X9776000Y-5976000D02*
X9374000Y-5976000D01*
X9374000Y-5574000D01*
X9776000Y-5574000D01*
X9776000Y-5976000D01*
X9776000Y-5976000D01*
G37*
G36*
X14976000Y-5976000D02*
X14574000Y-5976000D01*
X14574000Y-5574000D01*
X14976000Y-5574000D01*
X14976000Y-5976000D01*
X14976000Y-5976000D01*
G37*
G36*
X14326000Y-5976000D02*
X13924000Y-5976000D01*
X13924000Y-5574000D01*
X14326000Y-5574000D01*
X14326000Y-5976000D01*
X14326000Y-5976000D01*
G37*
G36*
X13676000Y-5976000D02*
X13274000Y-5976000D01*
X13274000Y-5574000D01*
X13676000Y-5574000D01*
X13676000Y-5976000D01*
X13676000Y-5976000D01*
G37*
G36*
X10426000Y-5976000D02*
X10024000Y-5976000D01*
X10024000Y-5574000D01*
X10426000Y-5574000D01*
X10426000Y-5976000D01*
X10426000Y-5976000D01*
G37*
G36*
X12376000Y-5976000D02*
X11974000Y-5976000D01*
X11974000Y-5574000D01*
X12376000Y-5574000D01*
X12376000Y-5976000D01*
X12376000Y-5976000D01*
G37*
G36*
X15626000Y-5976000D02*
X15224000Y-5976000D01*
X15224000Y-5574000D01*
X15626000Y-5574000D01*
X15626000Y-5976000D01*
X15626000Y-5976000D01*
G37*
G36*
X13026000Y-5976000D02*
X12624000Y-5976000D01*
X12624000Y-5574000D01*
X13026000Y-5574000D01*
X13026000Y-5976000D01*
X13026000Y-5976000D01*
G37*
G36*
X11726000Y-5976000D02*
X11324000Y-5976000D01*
X11324000Y-5574000D01*
X11726000Y-5574000D01*
X11726000Y-5976000D01*
X11726000Y-5976000D01*
G37*
G36*
X11076000Y-5976000D02*
X10674000Y-5976000D01*
X10674000Y-5574000D01*
X11076000Y-5574000D01*
X11076000Y-5976000D01*
X11076000Y-5976000D01*
G37*
G36*
X3400719Y-4550974D02*
X3400722Y-4550975D01*
X3400721Y-4550975D01*
X3500996Y-4592510D01*
X3591242Y-4652810D01*
X3667990Y-4729558D01*
X3728290Y-4819804D01*
X3747909Y-4867169D01*
X3769826Y-4920081D01*
X3791000Y-5026530D01*
X3791000Y-5135070D01*
X3769826Y-5241519D01*
X3769825Y-5241521D01*
X3728290Y-5341796D01*
X3667990Y-5432042D01*
X3591242Y-5508790D01*
X3500996Y-5569090D01*
X3436374Y-5595857D01*
X3400719Y-5610626D01*
X3294270Y-5631800D01*
X3185730Y-5631800D01*
X3079281Y-5610626D01*
X3043626Y-5595857D01*
X2979004Y-5569090D01*
X2888758Y-5508790D01*
X2812010Y-5432042D01*
X2751710Y-5341796D01*
X2710175Y-5241521D01*
X2710174Y-5241519D01*
X2689000Y-5135070D01*
X2689000Y-5026530D01*
X2710174Y-4920081D01*
X2732091Y-4867169D01*
X2751710Y-4819804D01*
X2812010Y-4729558D01*
X2888758Y-4652810D01*
X2979004Y-4592510D01*
X3079279Y-4550975D01*
X3079278Y-4550975D01*
X3079281Y-4550974D01*
X3185730Y-4529800D01*
X3294270Y-4529800D01*
X3400719Y-4550974D01*
X3400719Y-4550974D01*
G37*
G36*
X21491825Y-4882081D02*
X21519546Y-4890490D01*
X21545089Y-4904143D01*
X21567481Y-4922519D01*
X21585857Y-4944911D01*
X21599510Y-4970454D01*
X21607919Y-4998175D01*
X21611000Y-5029454D01*
X21611000Y-5470546D01*
X21607919Y-5501825D01*
X21599510Y-5529546D01*
X21585857Y-5555089D01*
X21567481Y-5577481D01*
X21545089Y-5595857D01*
X21519546Y-5609510D01*
X21491825Y-5617919D01*
X21460546Y-5621000D01*
X21069454Y-5621000D01*
X21038175Y-5617919D01*
X21010454Y-5609510D01*
X20984911Y-5595857D01*
X20962519Y-5577481D01*
X20944143Y-5555089D01*
X20930490Y-5529546D01*
X20922081Y-5501825D01*
X20919000Y-5470546D01*
X20919000Y-5029454D01*
X20922081Y-4998175D01*
X20930490Y-4970454D01*
X20944143Y-4944911D01*
X20962519Y-4922519D01*
X20984911Y-4904143D01*
X21010454Y-4890490D01*
X21038175Y-4882081D01*
X21069454Y-4879000D01*
X21460546Y-4879000D01*
X21491825Y-4882081D01*
X21491825Y-4882081D01*
G37*
G36*
X22461825Y-4882081D02*
X22489546Y-4890490D01*
X22515089Y-4904143D01*
X22537481Y-4922519D01*
X22555857Y-4944911D01*
X22569510Y-4970454D01*
X22577919Y-4998175D01*
X22581000Y-5029454D01*
X22581000Y-5470546D01*
X22577919Y-5501825D01*
X22569510Y-5529546D01*
X22555857Y-5555089D01*
X22537481Y-5577481D01*
X22515089Y-5595857D01*
X22489546Y-5609510D01*
X22461825Y-5617919D01*
X22430546Y-5621000D01*
X22039454Y-5621000D01*
X22008175Y-5617919D01*
X21980454Y-5609510D01*
X21954911Y-5595857D01*
X21932519Y-5577481D01*
X21914143Y-5555089D01*
X21900490Y-5529546D01*
X21892081Y-5501825D01*
X21889000Y-5470546D01*
X21889000Y-5029454D01*
X21892081Y-4998175D01*
X21900490Y-4970454D01*
X21914143Y-4944911D01*
X21932519Y-4922519D01*
X21954911Y-4904143D01*
X21980454Y-4890490D01*
X22008175Y-4882081D01*
X22039454Y-4879000D01*
X22430546Y-4879000D01*
X22461825Y-4882081D01*
X22461825Y-4882081D01*
G37*
G36*
X19856825Y-4857081D02*
X19884546Y-4865490D01*
X19910089Y-4879143D01*
X19932481Y-4897519D01*
X19950857Y-4919911D01*
X19964510Y-4945454D01*
X19972919Y-4973175D01*
X19976000Y-5004454D01*
X19976000Y-5395546D01*
X19972919Y-5426825D01*
X19964510Y-5454546D01*
X19950857Y-5480089D01*
X19932481Y-5502481D01*
X19910089Y-5520857D01*
X19884546Y-5534510D01*
X19856825Y-5542919D01*
X19825546Y-5546000D01*
X19384454Y-5546000D01*
X19353175Y-5542919D01*
X19325454Y-5534510D01*
X19299911Y-5520857D01*
X19277519Y-5502481D01*
X19259143Y-5480089D01*
X19245490Y-5454546D01*
X19237081Y-5426825D01*
X19234000Y-5395546D01*
X19234000Y-5004454D01*
X19237081Y-4973175D01*
X19245490Y-4945454D01*
X19259143Y-4919911D01*
X19277519Y-4897519D01*
X19299911Y-4879143D01*
X19325454Y-4865490D01*
X19353175Y-4857081D01*
X19384454Y-4854000D01*
X19825546Y-4854000D01*
X19856825Y-4857081D01*
X19856825Y-4857081D01*
G37*
G36*
X18816825Y-4837081D02*
X18844546Y-4845490D01*
X18870089Y-4859143D01*
X18892481Y-4877519D01*
X18910857Y-4899911D01*
X18924510Y-4925454D01*
X18932919Y-4953175D01*
X18936000Y-4984454D01*
X18936000Y-5375546D01*
X18932919Y-5406825D01*
X18924510Y-5434546D01*
X18910857Y-5460089D01*
X18892481Y-5482481D01*
X18870089Y-5500857D01*
X18844546Y-5514510D01*
X18816825Y-5522919D01*
X18785546Y-5526000D01*
X18344454Y-5526000D01*
X18313175Y-5522919D01*
X18285454Y-5514510D01*
X18259911Y-5500857D01*
X18237519Y-5482481D01*
X18219143Y-5460089D01*
X18205490Y-5434546D01*
X18197081Y-5406825D01*
X18194000Y-5375546D01*
X18194000Y-4984454D01*
X18197081Y-4953175D01*
X18205490Y-4925454D01*
X18219143Y-4899911D01*
X18237519Y-4877519D01*
X18259911Y-4859143D01*
X18285454Y-4845490D01*
X18313175Y-4837081D01*
X18344454Y-4834000D01*
X18785546Y-4834000D01*
X18816825Y-4837081D01*
X18816825Y-4837081D01*
G37*
G36*
X7476825Y-4077081D02*
X7504546Y-4085490D01*
X7530089Y-4099143D01*
X7552481Y-4117519D01*
X7570857Y-4139911D01*
X7584510Y-4165454D01*
X7592919Y-4193175D01*
X7596000Y-4224454D01*
X7596000Y-4665546D01*
X7592919Y-4696825D01*
X7584510Y-4724546D01*
X7570857Y-4750089D01*
X7552481Y-4772481D01*
X7530089Y-4790857D01*
X7504546Y-4804510D01*
X7476825Y-4812919D01*
X7445546Y-4816000D01*
X7054454Y-4816000D01*
X7023175Y-4812919D01*
X6995454Y-4804510D01*
X6969911Y-4790857D01*
X6947519Y-4772481D01*
X6929143Y-4750089D01*
X6915490Y-4724546D01*
X6907081Y-4696825D01*
X6904000Y-4665546D01*
X6904000Y-4224454D01*
X6907081Y-4193175D01*
X6915490Y-4165454D01*
X6929143Y-4139911D01*
X6947519Y-4117519D01*
X6969911Y-4099143D01*
X6995454Y-4085490D01*
X7023175Y-4077081D01*
X7054454Y-4074000D01*
X7445546Y-4074000D01*
X7476825Y-4077081D01*
X7476825Y-4077081D01*
G37*
G36*
X6506825Y-4077081D02*
X6534546Y-4085490D01*
X6560089Y-4099143D01*
X6582481Y-4117519D01*
X6600857Y-4139911D01*
X6614510Y-4165454D01*
X6622919Y-4193175D01*
X6626000Y-4224454D01*
X6626000Y-4665546D01*
X6622919Y-4696825D01*
X6614510Y-4724546D01*
X6600857Y-4750089D01*
X6582481Y-4772481D01*
X6560089Y-4790857D01*
X6534546Y-4804510D01*
X6506825Y-4812919D01*
X6475546Y-4816000D01*
X6084454Y-4816000D01*
X6053175Y-4812919D01*
X6025454Y-4804510D01*
X5999911Y-4790857D01*
X5977519Y-4772481D01*
X5959143Y-4750089D01*
X5945490Y-4724546D01*
X5937081Y-4696825D01*
X5934000Y-4665546D01*
X5934000Y-4224454D01*
X5937081Y-4193175D01*
X5945490Y-4165454D01*
X5959143Y-4139911D01*
X5977519Y-4117519D01*
X5999911Y-4099143D01*
X6025454Y-4085490D01*
X6053175Y-4077081D01*
X6084454Y-4074000D01*
X6475546Y-4074000D01*
X6506825Y-4077081D01*
X6506825Y-4077081D01*
G37*
G36*
X22461825Y-3882081D02*
X22489546Y-3890490D01*
X22515089Y-3904143D01*
X22537481Y-3922519D01*
X22555857Y-3944911D01*
X22569510Y-3970454D01*
X22577919Y-3998175D01*
X22581000Y-4029454D01*
X22581000Y-4470546D01*
X22577919Y-4501825D01*
X22569510Y-4529546D01*
X22555857Y-4555089D01*
X22537481Y-4577481D01*
X22515089Y-4595857D01*
X22489546Y-4609510D01*
X22461825Y-4617919D01*
X22430546Y-4621000D01*
X22039454Y-4621000D01*
X22008175Y-4617919D01*
X21980454Y-4609510D01*
X21954911Y-4595857D01*
X21932519Y-4577481D01*
X21914143Y-4555089D01*
X21900490Y-4529546D01*
X21892081Y-4501825D01*
X21889000Y-4470546D01*
X21889000Y-4029454D01*
X21892081Y-3998175D01*
X21900490Y-3970454D01*
X21914143Y-3944911D01*
X21932519Y-3922519D01*
X21954911Y-3904143D01*
X21980454Y-3890490D01*
X22008175Y-3882081D01*
X22039454Y-3879000D01*
X22430546Y-3879000D01*
X22461825Y-3882081D01*
X22461825Y-3882081D01*
G37*
G36*
X21491825Y-3882081D02*
X21519546Y-3890490D01*
X21545089Y-3904143D01*
X21567481Y-3922519D01*
X21585857Y-3944911D01*
X21599510Y-3970454D01*
X21607919Y-3998175D01*
X21611000Y-4029454D01*
X21611000Y-4470546D01*
X21607919Y-4501825D01*
X21599510Y-4529546D01*
X21585857Y-4555089D01*
X21567481Y-4577481D01*
X21545089Y-4595857D01*
X21519546Y-4609510D01*
X21491825Y-4617919D01*
X21460546Y-4621000D01*
X21069454Y-4621000D01*
X21038175Y-4617919D01*
X21010454Y-4609510D01*
X20984911Y-4595857D01*
X20962519Y-4577481D01*
X20944143Y-4555089D01*
X20930490Y-4529546D01*
X20922081Y-4501825D01*
X20919000Y-4470546D01*
X20919000Y-4029454D01*
X20922081Y-3998175D01*
X20930490Y-3970454D01*
X20944143Y-3944911D01*
X20962519Y-3922519D01*
X20984911Y-3904143D01*
X21010454Y-3890490D01*
X21038175Y-3882081D01*
X21069454Y-3879000D01*
X21460546Y-3879000D01*
X21491825Y-3882081D01*
X21491825Y-3882081D01*
G37*
G36*
X995719Y-3134374D02*
X995722Y-3134375D01*
X995721Y-3134375D01*
X1095996Y-3175910D01*
X1186242Y-3236210D01*
X1262990Y-3312958D01*
X1323290Y-3403204D01*
X1328590Y-3416000D01*
X1364826Y-3503481D01*
X1386000Y-3609930D01*
X1386000Y-3718470D01*
X1364826Y-3824919D01*
X1364825Y-3824921D01*
X1323290Y-3925196D01*
X1262990Y-4015442D01*
X1186242Y-4092190D01*
X1095996Y-4152490D01*
X1027659Y-4180796D01*
X995719Y-4194026D01*
X889270Y-4215200D01*
X780730Y-4215200D01*
X674281Y-4194026D01*
X642341Y-4180796D01*
X574004Y-4152490D01*
X483758Y-4092190D01*
X407010Y-4015442D01*
X346710Y-3925196D01*
X305175Y-3824921D01*
X305174Y-3824919D01*
X284000Y-3718470D01*
X284000Y-3609930D01*
X305174Y-3503481D01*
X341410Y-3416000D01*
X346710Y-3403204D01*
X407010Y-3312958D01*
X483758Y-3236210D01*
X574004Y-3175910D01*
X674279Y-3134375D01*
X674278Y-3134375D01*
X674281Y-3134374D01*
X780730Y-3113200D01*
X889270Y-3113200D01*
X995719Y-3134374D01*
X995719Y-3134374D01*
G37*
G36*
X24055719Y-2725174D02*
X24072394Y-2732081D01*
X24155996Y-2766710D01*
X24246242Y-2827010D01*
X24322990Y-2903758D01*
X24383290Y-2994004D01*
X24383290Y-2994005D01*
X24424826Y-3094281D01*
X24446000Y-3200730D01*
X24446000Y-3309270D01*
X24424826Y-3415719D01*
X24412660Y-3445090D01*
X24383290Y-3515996D01*
X24322990Y-3606242D01*
X24246242Y-3682990D01*
X24155996Y-3743290D01*
X24085090Y-3772660D01*
X24055719Y-3784826D01*
X23949270Y-3806000D01*
X23840730Y-3806000D01*
X23734281Y-3784826D01*
X23704910Y-3772660D01*
X23634004Y-3743290D01*
X23543758Y-3682990D01*
X23467010Y-3606242D01*
X23406710Y-3515996D01*
X23377340Y-3445090D01*
X23365174Y-3415719D01*
X23344000Y-3309270D01*
X23344000Y-3200730D01*
X23365174Y-3094281D01*
X23406710Y-2994005D01*
X23406710Y-2994004D01*
X23467010Y-2903758D01*
X23543758Y-2827010D01*
X23634004Y-2766710D01*
X23717606Y-2732081D01*
X23734281Y-2725174D01*
X23840730Y-2704000D01*
X23949270Y-2704000D01*
X24055719Y-2725174D01*
X24055719Y-2725174D01*
G37*
G36*
X13496825Y-2732081D02*
X13524546Y-2740490D01*
X13550089Y-2754143D01*
X13572481Y-2772519D01*
X13590857Y-2794911D01*
X13604510Y-2820454D01*
X13612919Y-2848175D01*
X13616000Y-2879454D01*
X13616000Y-3270546D01*
X13612919Y-3301825D01*
X13604510Y-3329546D01*
X13590857Y-3355089D01*
X13572481Y-3377481D01*
X13550089Y-3395857D01*
X13524546Y-3409510D01*
X13496825Y-3417919D01*
X13465546Y-3421000D01*
X13024454Y-3421000D01*
X12993175Y-3417919D01*
X12965454Y-3409510D01*
X12939911Y-3395857D01*
X12917519Y-3377481D01*
X12899143Y-3355089D01*
X12885490Y-3329546D01*
X12877081Y-3301825D01*
X12874000Y-3270546D01*
X12874000Y-2879454D01*
X12877081Y-2848175D01*
X12885490Y-2820454D01*
X12899143Y-2794911D01*
X12917519Y-2772519D01*
X12939911Y-2754143D01*
X12965454Y-2740490D01*
X12993175Y-2732081D01*
X13024454Y-2729000D01*
X13465546Y-2729000D01*
X13496825Y-2732081D01*
X13496825Y-2732081D01*
G37*
G36*
X14576825Y-2727081D02*
X14604546Y-2735490D01*
X14630089Y-2749143D01*
X14652481Y-2767519D01*
X14670857Y-2789911D01*
X14684510Y-2815454D01*
X14692919Y-2843175D01*
X14696000Y-2874454D01*
X14696000Y-3265546D01*
X14692919Y-3296825D01*
X14684510Y-3324546D01*
X14670857Y-3350089D01*
X14652481Y-3372481D01*
X14630089Y-3390857D01*
X14604546Y-3404510D01*
X14576825Y-3412919D01*
X14545546Y-3416000D01*
X14104454Y-3416000D01*
X14073175Y-3412919D01*
X14045454Y-3404510D01*
X14019911Y-3390857D01*
X13997519Y-3372481D01*
X13979143Y-3350089D01*
X13965490Y-3324546D01*
X13957081Y-3296825D01*
X13954000Y-3265546D01*
X13954000Y-2874454D01*
X13957081Y-2843175D01*
X13965490Y-2815454D01*
X13979143Y-2789911D01*
X13997519Y-2767519D01*
X14019911Y-2749143D01*
X14045454Y-2735490D01*
X14073175Y-2727081D01*
X14104454Y-2724000D01*
X14545546Y-2724000D01*
X14576825Y-2727081D01*
X14576825Y-2727081D01*
G37*
G36*
X13496825Y-1762081D02*
X13524546Y-1770490D01*
X13550089Y-1784143D01*
X13572481Y-1802519D01*
X13590857Y-1824911D01*
X13604510Y-1850454D01*
X13612919Y-1878175D01*
X13616000Y-1909454D01*
X13616000Y-2300546D01*
X13612919Y-2331825D01*
X13604510Y-2359546D01*
X13590857Y-2385089D01*
X13572481Y-2407481D01*
X13550089Y-2425857D01*
X13524546Y-2439510D01*
X13496825Y-2447919D01*
X13465546Y-2451000D01*
X13024454Y-2451000D01*
X12993175Y-2447919D01*
X12965454Y-2439510D01*
X12939911Y-2425857D01*
X12917519Y-2407481D01*
X12899143Y-2385089D01*
X12885490Y-2359546D01*
X12877081Y-2331825D01*
X12874000Y-2300546D01*
X12874000Y-1909454D01*
X12877081Y-1878175D01*
X12885490Y-1850454D01*
X12899143Y-1824911D01*
X12917519Y-1802519D01*
X12939911Y-1784143D01*
X12965454Y-1770490D01*
X12993175Y-1762081D01*
X13024454Y-1759000D01*
X13465546Y-1759000D01*
X13496825Y-1762081D01*
X13496825Y-1762081D01*
G37*
G36*
X14576825Y-1757081D02*
X14604546Y-1765490D01*
X14630089Y-1779143D01*
X14652481Y-1797519D01*
X14670857Y-1819911D01*
X14684510Y-1845454D01*
X14692919Y-1873175D01*
X14696000Y-1904454D01*
X14696000Y-2295546D01*
X14692919Y-2326825D01*
X14684510Y-2354546D01*
X14670857Y-2380089D01*
X14652481Y-2402481D01*
X14630089Y-2420857D01*
X14604546Y-2434510D01*
X14576825Y-2442919D01*
X14545546Y-2446000D01*
X14104454Y-2446000D01*
X14073175Y-2442919D01*
X14045454Y-2434510D01*
X14019911Y-2420857D01*
X13997519Y-2402481D01*
X13979143Y-2380089D01*
X13965490Y-2354546D01*
X13957081Y-2326825D01*
X13954000Y-2295546D01*
X13954000Y-1904454D01*
X13957081Y-1873175D01*
X13965490Y-1845454D01*
X13979143Y-1819911D01*
X13997519Y-1797519D01*
X14019911Y-1779143D01*
X14045454Y-1765490D01*
X14073175Y-1757081D01*
X14104454Y-1754000D01*
X14545546Y-1754000D01*
X14576825Y-1757081D01*
X14576825Y-1757081D01*
G37*
G36*
X2665719Y-164374D02*
X2665722Y-164375D01*
X2665721Y-164375D01*
X2765996Y-205910D01*
X2856242Y-266210D01*
X2932990Y-342958D01*
X2993290Y-433204D01*
X2993290Y-433205D01*
X3034826Y-533481D01*
X3056000Y-639930D01*
X3056000Y-748470D01*
X3034826Y-854919D01*
X3034825Y-854921D01*
X2993290Y-955196D01*
X2932990Y-1045442D01*
X2856242Y-1122190D01*
X2765996Y-1182490D01*
X2695090Y-1211860D01*
X2665719Y-1224026D01*
X2559270Y-1245200D01*
X2450730Y-1245200D01*
X2344281Y-1224026D01*
X2314910Y-1211860D01*
X2244004Y-1182490D01*
X2153758Y-1122190D01*
X2077010Y-1045442D01*
X2016710Y-955196D01*
X1975175Y-854921D01*
X1975174Y-854919D01*
X1954000Y-748470D01*
X1954000Y-639930D01*
X1975174Y-533481D01*
X2016710Y-433205D01*
X2016710Y-433204D01*
X2077010Y-342958D01*
X2153758Y-266210D01*
X2244004Y-205910D01*
X2344279Y-164375D01*
X2344278Y-164375D01*
X2344281Y-164374D01*
X2450730Y-143200D01*
X2559270Y-143200D01*
X2665719Y-164374D01*
X2665719Y-164374D01*
G37*
G36*
X1135719Y-164374D02*
X1135722Y-164375D01*
X1135721Y-164375D01*
X1235996Y-205910D01*
X1326242Y-266210D01*
X1402990Y-342958D01*
X1463290Y-433204D01*
X1463290Y-433205D01*
X1504826Y-533481D01*
X1526000Y-639930D01*
X1526000Y-748470D01*
X1504826Y-854919D01*
X1504825Y-854921D01*
X1463290Y-955196D01*
X1402990Y-1045442D01*
X1326242Y-1122190D01*
X1235996Y-1182490D01*
X1165090Y-1211860D01*
X1135719Y-1224026D01*
X1029270Y-1245200D01*
X920730Y-1245200D01*
X814281Y-1224026D01*
X784910Y-1211860D01*
X714004Y-1182490D01*
X623758Y-1122190D01*
X547010Y-1045442D01*
X486710Y-955196D01*
X445175Y-854921D01*
X445174Y-854919D01*
X424000Y-748470D01*
X424000Y-639930D01*
X445174Y-533481D01*
X486710Y-433205D01*
X486710Y-433204D01*
X547010Y-342958D01*
X623758Y-266210D01*
X714004Y-205910D01*
X814279Y-164375D01*
X814278Y-164375D01*
X814281Y-164374D01*
X920730Y-143200D01*
X1029270Y-143200D01*
X1135719Y-164374D01*
X1135719Y-164374D01*
G37*
G36*
X13061519Y-159374D02*
X13061522Y-159375D01*
X13061521Y-159375D01*
X13161796Y-200910D01*
X13252042Y-261210D01*
X13328790Y-337958D01*
X13389090Y-428204D01*
X13389090Y-428205D01*
X13430626Y-528481D01*
X13451800Y-634930D01*
X13451800Y-743470D01*
X13430626Y-849919D01*
X13430625Y-849921D01*
X13389090Y-950196D01*
X13328790Y-1040442D01*
X13252042Y-1117190D01*
X13161796Y-1177490D01*
X13090890Y-1206860D01*
X13061519Y-1219026D01*
X12955070Y-1240200D01*
X12846530Y-1240200D01*
X12740081Y-1219026D01*
X12710710Y-1206860D01*
X12639804Y-1177490D01*
X12549558Y-1117190D01*
X12472810Y-1040442D01*
X12412510Y-950196D01*
X12370975Y-849921D01*
X12370974Y-849919D01*
X12349800Y-743470D01*
X12349800Y-634930D01*
X12370974Y-528481D01*
X12412510Y-428205D01*
X12412510Y-428204D01*
X12472810Y-337958D01*
X12549558Y-261210D01*
X12639804Y-200910D01*
X12740079Y-159375D01*
X12740078Y-159375D01*
X12740081Y-159374D01*
X12846530Y-138200D01*
X12955070Y-138200D01*
X13061519Y-159374D01*
X13061519Y-159374D01*
G37*
G36*
X9035719Y-159374D02*
X9035722Y-159375D01*
X9035721Y-159375D01*
X9135996Y-200910D01*
X9226242Y-261210D01*
X9302990Y-337958D01*
X9363290Y-428204D01*
X9363290Y-428205D01*
X9404826Y-528481D01*
X9426000Y-634930D01*
X9426000Y-743470D01*
X9404826Y-849919D01*
X9404825Y-849921D01*
X9363290Y-950196D01*
X9302990Y-1040442D01*
X9226242Y-1117190D01*
X9135996Y-1177490D01*
X9065090Y-1206860D01*
X9035719Y-1219026D01*
X8929270Y-1240200D01*
X8820730Y-1240200D01*
X8714281Y-1219026D01*
X8684910Y-1206860D01*
X8614004Y-1177490D01*
X8523758Y-1117190D01*
X8447010Y-1040442D01*
X8386710Y-950196D01*
X8345175Y-849921D01*
X8345174Y-849919D01*
X8324000Y-743470D01*
X8324000Y-634930D01*
X8345174Y-528481D01*
X8386710Y-428205D01*
X8386710Y-428204D01*
X8447010Y-337958D01*
X8523758Y-261210D01*
X8614004Y-200910D01*
X8714279Y-159375D01*
X8714278Y-159375D01*
X8714281Y-159374D01*
X8820730Y-138200D01*
X8929270Y-138200D01*
X9035719Y-159374D01*
X9035719Y-159374D01*
G37*
G36*
X10311519Y-159374D02*
X10311522Y-159375D01*
X10311521Y-159375D01*
X10411796Y-200910D01*
X10502042Y-261210D01*
X10578790Y-337958D01*
X10639090Y-428204D01*
X10639090Y-428205D01*
X10680626Y-528481D01*
X10701800Y-634930D01*
X10701800Y-743470D01*
X10680626Y-849919D01*
X10680625Y-849921D01*
X10639090Y-950196D01*
X10578790Y-1040442D01*
X10502042Y-1117190D01*
X10411796Y-1177490D01*
X10340890Y-1206860D01*
X10311519Y-1219026D01*
X10205070Y-1240200D01*
X10096530Y-1240200D01*
X9990081Y-1219026D01*
X9960710Y-1206860D01*
X9889804Y-1177490D01*
X9799558Y-1117190D01*
X9722810Y-1040442D01*
X9662510Y-950196D01*
X9620975Y-849921D01*
X9620974Y-849919D01*
X9599800Y-743470D01*
X9599800Y-634930D01*
X9620974Y-528481D01*
X9662510Y-428205D01*
X9662510Y-428204D01*
X9722810Y-337958D01*
X9799558Y-261210D01*
X9889804Y-200910D01*
X9990079Y-159375D01*
X9990078Y-159375D01*
X9990081Y-159374D01*
X10096530Y-138200D01*
X10205070Y-138200D01*
X10311519Y-159374D01*
X10311519Y-159374D01*
G37*
G36*
X11760719Y-159374D02*
X11760722Y-159375D01*
X11760721Y-159375D01*
X11860996Y-200910D01*
X11951242Y-261210D01*
X12027990Y-337958D01*
X12088290Y-428204D01*
X12088290Y-428205D01*
X12129826Y-528481D01*
X12151000Y-634930D01*
X12151000Y-743470D01*
X12129826Y-849919D01*
X12129825Y-849921D01*
X12088290Y-950196D01*
X12027990Y-1040442D01*
X11951242Y-1117190D01*
X11860996Y-1177490D01*
X11790090Y-1206860D01*
X11760719Y-1219026D01*
X11654270Y-1240200D01*
X11545730Y-1240200D01*
X11439281Y-1219026D01*
X11409910Y-1206860D01*
X11339004Y-1177490D01*
X11248758Y-1117190D01*
X11172010Y-1040442D01*
X11111710Y-950196D01*
X11070175Y-849921D01*
X11070174Y-849919D01*
X11049000Y-743470D01*
X11049000Y-634930D01*
X11070174Y-528481D01*
X11111710Y-428205D01*
X11111710Y-428204D01*
X11172010Y-337958D01*
X11248758Y-261210D01*
X11339004Y-200910D01*
X11439279Y-159375D01*
X11439278Y-159375D01*
X11439281Y-159374D01*
X11545730Y-138200D01*
X11654270Y-138200D01*
X11760719Y-159374D01*
X11760719Y-159374D01*
G37*
G36*
X5260719Y-159374D02*
X5260722Y-159375D01*
X5260721Y-159375D01*
X5360996Y-200910D01*
X5451242Y-261210D01*
X5527990Y-337958D01*
X5588290Y-428204D01*
X5588290Y-428205D01*
X5629826Y-528481D01*
X5651000Y-634930D01*
X5651000Y-743470D01*
X5629826Y-849919D01*
X5629825Y-849921D01*
X5588290Y-950196D01*
X5527990Y-1040442D01*
X5451242Y-1117190D01*
X5360996Y-1177490D01*
X5290090Y-1206860D01*
X5260719Y-1219026D01*
X5154270Y-1240200D01*
X5045730Y-1240200D01*
X4939281Y-1219026D01*
X4909910Y-1206860D01*
X4839004Y-1177490D01*
X4748758Y-1117190D01*
X4672010Y-1040442D01*
X4611710Y-950196D01*
X4570175Y-849921D01*
X4570174Y-849919D01*
X4549000Y-743470D01*
X4549000Y-634930D01*
X4570174Y-528481D01*
X4611710Y-428205D01*
X4611710Y-428204D01*
X4672010Y-337958D01*
X4748758Y-261210D01*
X4839004Y-200910D01*
X4939279Y-159375D01*
X4939278Y-159375D01*
X4939281Y-159374D01*
X5045730Y-138200D01*
X5154270Y-138200D01*
X5260719Y-159374D01*
X5260719Y-159374D01*
G37*
G36*
X4010719Y-159374D02*
X4010722Y-159375D01*
X4010721Y-159375D01*
X4110996Y-200910D01*
X4201242Y-261210D01*
X4277990Y-337958D01*
X4338290Y-428204D01*
X4338290Y-428205D01*
X4379826Y-528481D01*
X4401000Y-634930D01*
X4401000Y-743470D01*
X4379826Y-849919D01*
X4379825Y-849921D01*
X4338290Y-950196D01*
X4277990Y-1040442D01*
X4201242Y-1117190D01*
X4110996Y-1177490D01*
X4040090Y-1206860D01*
X4010719Y-1219026D01*
X3904270Y-1240200D01*
X3795730Y-1240200D01*
X3689281Y-1219026D01*
X3659910Y-1206860D01*
X3589004Y-1177490D01*
X3498758Y-1117190D01*
X3422010Y-1040442D01*
X3361710Y-950196D01*
X3320175Y-849921D01*
X3320174Y-849919D01*
X3299000Y-743470D01*
X3299000Y-634930D01*
X3320174Y-528481D01*
X3361710Y-428205D01*
X3361710Y-428204D01*
X3422010Y-337958D01*
X3498758Y-261210D01*
X3589004Y-200910D01*
X3689279Y-159375D01*
X3689278Y-159375D01*
X3689281Y-159374D01*
X3795730Y-138200D01*
X3904270Y-138200D01*
X4010719Y-159374D01*
X4010719Y-159374D01*
G37*
G36*
X7760719Y-159374D02*
X7760722Y-159375D01*
X7760721Y-159375D01*
X7860996Y-200910D01*
X7951242Y-261210D01*
X8027990Y-337958D01*
X8088290Y-428204D01*
X8088290Y-428205D01*
X8129826Y-528481D01*
X8151000Y-634930D01*
X8151000Y-743470D01*
X8129826Y-849919D01*
X8129825Y-849921D01*
X8088290Y-950196D01*
X8027990Y-1040442D01*
X7951242Y-1117190D01*
X7860996Y-1177490D01*
X7790090Y-1206860D01*
X7760719Y-1219026D01*
X7654270Y-1240200D01*
X7545730Y-1240200D01*
X7439281Y-1219026D01*
X7409910Y-1206860D01*
X7339004Y-1177490D01*
X7248758Y-1117190D01*
X7172010Y-1040442D01*
X7111710Y-950196D01*
X7070175Y-849921D01*
X7070174Y-849919D01*
X7049000Y-743470D01*
X7049000Y-634930D01*
X7070174Y-528481D01*
X7111710Y-428205D01*
X7111710Y-428204D01*
X7172010Y-337958D01*
X7248758Y-261210D01*
X7339004Y-200910D01*
X7439279Y-159375D01*
X7439278Y-159375D01*
X7439281Y-159374D01*
X7545730Y-138200D01*
X7654270Y-138200D01*
X7760719Y-159374D01*
X7760719Y-159374D01*
G37*
G36*
X6510719Y-159374D02*
X6510722Y-159375D01*
X6510721Y-159375D01*
X6610996Y-200910D01*
X6701242Y-261210D01*
X6777990Y-337958D01*
X6838290Y-428204D01*
X6838290Y-428205D01*
X6879826Y-528481D01*
X6901000Y-634930D01*
X6901000Y-743470D01*
X6879826Y-849919D01*
X6879825Y-849921D01*
X6838290Y-950196D01*
X6777990Y-1040442D01*
X6701242Y-1117190D01*
X6610996Y-1177490D01*
X6540090Y-1206860D01*
X6510719Y-1219026D01*
X6404270Y-1240200D01*
X6295730Y-1240200D01*
X6189281Y-1219026D01*
X6159910Y-1206860D01*
X6089004Y-1177490D01*
X5998758Y-1117190D01*
X5922010Y-1040442D01*
X5861710Y-950196D01*
X5820175Y-849921D01*
X5820174Y-849919D01*
X5799000Y-743470D01*
X5799000Y-634930D01*
X5820174Y-528481D01*
X5861710Y-428205D01*
X5861710Y-428204D01*
X5922010Y-337958D01*
X5998758Y-261210D01*
X6089004Y-200910D01*
X6189279Y-159375D01*
X6189278Y-159375D01*
X6189281Y-159374D01*
X6295730Y-138200D01*
X6404270Y-138200D01*
X6510719Y-159374D01*
X6510719Y-159374D01*
G37*
G36*
X14413119Y-159374D02*
X14413122Y-159375D01*
X14413121Y-159375D01*
X14513396Y-200910D01*
X14603642Y-261210D01*
X14680390Y-337958D01*
X14740690Y-428204D01*
X14740690Y-428205D01*
X14782226Y-528481D01*
X14803400Y-634930D01*
X14803400Y-743470D01*
X14782226Y-849919D01*
X14782225Y-849921D01*
X14740690Y-950196D01*
X14680390Y-1040442D01*
X14603642Y-1117190D01*
X14513396Y-1177490D01*
X14442490Y-1206860D01*
X14413119Y-1219026D01*
X14306670Y-1240200D01*
X14198130Y-1240200D01*
X14091681Y-1219026D01*
X14062310Y-1206860D01*
X13991404Y-1177490D01*
X13901158Y-1117190D01*
X13824410Y-1040442D01*
X13764110Y-950196D01*
X13722575Y-849921D01*
X13722574Y-849919D01*
X13701400Y-743470D01*
X13701400Y-634930D01*
X13722574Y-528481D01*
X13764110Y-428205D01*
X13764110Y-428204D01*
X13824410Y-337958D01*
X13901158Y-261210D01*
X13991404Y-200910D01*
X14091679Y-159375D01*
X14091678Y-159375D01*
X14091681Y-159374D01*
X14198130Y-138200D01*
X14306670Y-138200D01*
X14413119Y-159374D01*
X14413119Y-159374D01*
G37*
G36*
X17260719Y-159374D02*
X17260722Y-159375D01*
X17260721Y-159375D01*
X17360996Y-200910D01*
X17451242Y-261210D01*
X17527990Y-337958D01*
X17588290Y-428204D01*
X17588290Y-428205D01*
X17629826Y-528481D01*
X17651000Y-634930D01*
X17651000Y-743470D01*
X17629826Y-849919D01*
X17629825Y-849921D01*
X17588290Y-950196D01*
X17527990Y-1040442D01*
X17451242Y-1117190D01*
X17360996Y-1177490D01*
X17290090Y-1206860D01*
X17260719Y-1219026D01*
X17154270Y-1240200D01*
X17045730Y-1240200D01*
X16939281Y-1219026D01*
X16909910Y-1206860D01*
X16839004Y-1177490D01*
X16748758Y-1117190D01*
X16672010Y-1040442D01*
X16611710Y-950196D01*
X16570175Y-849921D01*
X16570174Y-849919D01*
X16549000Y-743470D01*
X16549000Y-634930D01*
X16570174Y-528481D01*
X16611710Y-428205D01*
X16611710Y-428204D01*
X16672010Y-337958D01*
X16748758Y-261210D01*
X16839004Y-200910D01*
X16939279Y-159375D01*
X16939278Y-159375D01*
X16939281Y-159374D01*
X17045730Y-138200D01*
X17154270Y-138200D01*
X17260719Y-159374D01*
X17260719Y-159374D01*
G37*
G36*
X20311519Y-159374D02*
X20311522Y-159375D01*
X20311521Y-159375D01*
X20411796Y-200910D01*
X20502042Y-261210D01*
X20578790Y-337958D01*
X20639090Y-428204D01*
X20639090Y-428205D01*
X20680626Y-528481D01*
X20701800Y-634930D01*
X20701800Y-743470D01*
X20680626Y-849919D01*
X20680625Y-849921D01*
X20639090Y-950196D01*
X20578790Y-1040442D01*
X20502042Y-1117190D01*
X20411796Y-1177490D01*
X20340890Y-1206860D01*
X20311519Y-1219026D01*
X20205070Y-1240200D01*
X20096530Y-1240200D01*
X19990081Y-1219026D01*
X19960710Y-1206860D01*
X19889804Y-1177490D01*
X19799558Y-1117190D01*
X19722810Y-1040442D01*
X19662510Y-950196D01*
X19620975Y-849921D01*
X19620974Y-849919D01*
X19599800Y-743470D01*
X19599800Y-634930D01*
X19620974Y-528481D01*
X19662510Y-428205D01*
X19662510Y-428204D01*
X19722810Y-337958D01*
X19799558Y-261210D01*
X19889804Y-200910D01*
X19990079Y-159375D01*
X19990078Y-159375D01*
X19990081Y-159374D01*
X20096530Y-138200D01*
X20205070Y-138200D01*
X20311519Y-159374D01*
X20311519Y-159374D01*
G37*
G36*
X15811519Y-159374D02*
X15811522Y-159375D01*
X15811521Y-159375D01*
X15911796Y-200910D01*
X16002042Y-261210D01*
X16078790Y-337958D01*
X16139090Y-428204D01*
X16139090Y-428205D01*
X16180626Y-528481D01*
X16201800Y-634930D01*
X16201800Y-743470D01*
X16180626Y-849919D01*
X16180625Y-849921D01*
X16139090Y-950196D01*
X16078790Y-1040442D01*
X16002042Y-1117190D01*
X15911796Y-1177490D01*
X15840890Y-1206860D01*
X15811519Y-1219026D01*
X15705070Y-1240200D01*
X15596530Y-1240200D01*
X15490081Y-1219026D01*
X15460710Y-1206860D01*
X15389804Y-1177490D01*
X15299558Y-1117190D01*
X15222810Y-1040442D01*
X15162510Y-950196D01*
X15120975Y-849921D01*
X15120974Y-849919D01*
X15099800Y-743470D01*
X15099800Y-634930D01*
X15120974Y-528481D01*
X15162510Y-428205D01*
X15162510Y-428204D01*
X15222810Y-337958D01*
X15299558Y-261210D01*
X15389804Y-200910D01*
X15490079Y-159375D01*
X15490078Y-159375D01*
X15490081Y-159374D01*
X15596530Y-138200D01*
X15705070Y-138200D01*
X15811519Y-159374D01*
X15811519Y-159374D01*
G37*
G36*
X23085719Y-159374D02*
X23085722Y-159375D01*
X23085721Y-159375D01*
X23185996Y-200910D01*
X23276242Y-261210D01*
X23352990Y-337958D01*
X23413290Y-428204D01*
X23413290Y-428205D01*
X23454826Y-528481D01*
X23476000Y-634930D01*
X23476000Y-743470D01*
X23454826Y-849919D01*
X23454825Y-849921D01*
X23413290Y-950196D01*
X23352990Y-1040442D01*
X23276242Y-1117190D01*
X23185996Y-1177490D01*
X23115090Y-1206860D01*
X23085719Y-1219026D01*
X22979270Y-1240200D01*
X22870730Y-1240200D01*
X22764281Y-1219026D01*
X22734910Y-1206860D01*
X22664004Y-1177490D01*
X22573758Y-1117190D01*
X22497010Y-1040442D01*
X22436710Y-950196D01*
X22395175Y-849921D01*
X22395174Y-849919D01*
X22374000Y-743470D01*
X22374000Y-634930D01*
X22395174Y-528481D01*
X22436710Y-428205D01*
X22436710Y-428204D01*
X22497010Y-337958D01*
X22573758Y-261210D01*
X22664004Y-200910D01*
X22764279Y-159375D01*
X22764278Y-159375D01*
X22764281Y-159374D01*
X22870730Y-138200D01*
X22979270Y-138200D01*
X23085719Y-159374D01*
X23085719Y-159374D01*
G37*
G36*
X18811519Y-159374D02*
X18811522Y-159375D01*
X18811521Y-159375D01*
X18911796Y-200910D01*
X19002042Y-261210D01*
X19078790Y-337958D01*
X19139090Y-428204D01*
X19139090Y-428205D01*
X19180626Y-528481D01*
X19201800Y-634930D01*
X19201800Y-743470D01*
X19180626Y-849919D01*
X19180625Y-849921D01*
X19139090Y-950196D01*
X19078790Y-1040442D01*
X19002042Y-1117190D01*
X18911796Y-1177490D01*
X18840890Y-1206860D01*
X18811519Y-1219026D01*
X18705070Y-1240200D01*
X18596530Y-1240200D01*
X18490081Y-1219026D01*
X18460710Y-1206860D01*
X18389804Y-1177490D01*
X18299558Y-1117190D01*
X18222810Y-1040442D01*
X18162510Y-950196D01*
X18120975Y-849921D01*
X18120974Y-849919D01*
X18099800Y-743470D01*
X18099800Y-634930D01*
X18120974Y-528481D01*
X18162510Y-428205D01*
X18162510Y-428204D01*
X18222810Y-337958D01*
X18299558Y-261210D01*
X18389804Y-200910D01*
X18490079Y-159375D01*
X18490078Y-159375D01*
X18490081Y-159374D01*
X18596530Y-138200D01*
X18705070Y-138200D01*
X18811519Y-159374D01*
X18811519Y-159374D01*
G37*
G36*
X21615719Y-159374D02*
X21615722Y-159375D01*
X21615721Y-159375D01*
X21715996Y-200910D01*
X21806242Y-261210D01*
X21882990Y-337958D01*
X21943290Y-428204D01*
X21943290Y-428205D01*
X21984826Y-528481D01*
X22006000Y-634930D01*
X22006000Y-743470D01*
X21984826Y-849919D01*
X21984825Y-849921D01*
X21943290Y-950196D01*
X21882990Y-1040442D01*
X21806242Y-1117190D01*
X21715996Y-1177490D01*
X21645090Y-1206860D01*
X21615719Y-1219026D01*
X21509270Y-1240200D01*
X21400730Y-1240200D01*
X21294281Y-1219026D01*
X21264910Y-1206860D01*
X21194004Y-1177490D01*
X21103758Y-1117190D01*
X21027010Y-1040442D01*
X20966710Y-950196D01*
X20925175Y-849921D01*
X20925174Y-849919D01*
X20904000Y-743470D01*
X20904000Y-634930D01*
X20925174Y-528481D01*
X20966710Y-428205D01*
X20966710Y-428204D01*
X21027010Y-337958D01*
X21103758Y-261210D01*
X21194004Y-200910D01*
X21294279Y-159375D01*
X21294278Y-159375D01*
X21294281Y-159374D01*
X21400730Y-138200D01*
X21509270Y-138200D01*
X21615719Y-159374D01*
X21615719Y-159374D01*
G37*
M02*
