G04 #@! TF.GenerationSoftware,KiCad,Pcbnew,5.0.2+dfsg1-1~bpo9+1*
G04 #@! TF.CreationDate,2019-10-17T14:08:20+02:00*
G04 #@! TF.ProjectId,zglue-jade-adapter,7a676c75-652d-46a6-9164-652d61646170,rev?*
G04 #@! TF.SameCoordinates,Original*
G04 #@! TF.FileFunction,Soldermask,Top*
G04 #@! TF.FilePolarity,Negative*
%FSLAX46Y46*%
G04 Gerber Fmt 4.6, Leading zero omitted, Abs format (unit mm)*
G04 Created by KiCad (PCBNEW 5.0.2+dfsg1-1~bpo9+1) date Thu 17 Oct 2019 02:08:20 PM CEST*
%MOMM*%
%LPD*%
G01*
G04 APERTURE LIST*
%ADD10C,0.100000*%
G04 APERTURE END LIST*
D10*
G36*
X8806519Y-18405174D02*
X8806522Y-18405175D01*
X8806521Y-18405175D01*
X8906796Y-18446710D01*
X8997042Y-18507010D01*
X9073790Y-18583758D01*
X9134090Y-18674004D01*
X9153171Y-18720070D01*
X9175626Y-18774281D01*
X9196800Y-18880730D01*
X9196800Y-18989270D01*
X9175626Y-19095719D01*
X9175625Y-19095721D01*
X9134090Y-19195996D01*
X9073790Y-19286242D01*
X8997042Y-19362990D01*
X8906796Y-19423290D01*
X8835890Y-19452660D01*
X8806519Y-19464826D01*
X8700070Y-19486000D01*
X8591530Y-19486000D01*
X8485081Y-19464826D01*
X8455710Y-19452660D01*
X8384804Y-19423290D01*
X8294558Y-19362990D01*
X8217810Y-19286242D01*
X8157510Y-19195996D01*
X8115975Y-19095721D01*
X8115974Y-19095719D01*
X8094800Y-18989270D01*
X8094800Y-18880730D01*
X8115974Y-18774281D01*
X8138429Y-18720070D01*
X8157510Y-18674004D01*
X8217810Y-18583758D01*
X8294558Y-18507010D01*
X8384804Y-18446710D01*
X8485079Y-18405175D01*
X8485078Y-18405175D01*
X8485081Y-18405174D01*
X8591530Y-18384000D01*
X8700070Y-18384000D01*
X8806519Y-18405174D01*
X8806519Y-18405174D01*
G37*
G36*
X16885719Y-18145974D02*
X16915090Y-18158140D01*
X16985996Y-18187510D01*
X17076242Y-18247810D01*
X17152990Y-18324558D01*
X17213290Y-18414804D01*
X17213290Y-18414805D01*
X17254826Y-18515081D01*
X17276000Y-18621530D01*
X17276000Y-18730070D01*
X17254826Y-18836519D01*
X17254825Y-18836521D01*
X17213290Y-18936796D01*
X17152990Y-19027042D01*
X17076242Y-19103790D01*
X16985996Y-19164090D01*
X16915090Y-19193460D01*
X16885719Y-19205626D01*
X16779270Y-19226800D01*
X16670730Y-19226800D01*
X16564281Y-19205626D01*
X16534910Y-19193460D01*
X16464004Y-19164090D01*
X16373758Y-19103790D01*
X16297010Y-19027042D01*
X16236710Y-18936796D01*
X16195175Y-18836521D01*
X16195174Y-18836519D01*
X16174000Y-18730070D01*
X16174000Y-18621530D01*
X16195174Y-18515081D01*
X16236710Y-18414805D01*
X16236710Y-18414804D01*
X16297010Y-18324558D01*
X16373758Y-18247810D01*
X16464004Y-18187510D01*
X16534910Y-18158140D01*
X16564281Y-18145974D01*
X16670730Y-18124800D01*
X16779270Y-18124800D01*
X16885719Y-18145974D01*
X16885719Y-18145974D01*
G37*
G36*
X15585719Y-18145974D02*
X15615090Y-18158140D01*
X15685996Y-18187510D01*
X15776242Y-18247810D01*
X15852990Y-18324558D01*
X15913290Y-18414804D01*
X15913290Y-18414805D01*
X15954826Y-18515081D01*
X15976000Y-18621530D01*
X15976000Y-18730070D01*
X15954826Y-18836519D01*
X15954825Y-18836521D01*
X15913290Y-18936796D01*
X15852990Y-19027042D01*
X15776242Y-19103790D01*
X15685996Y-19164090D01*
X15615090Y-19193460D01*
X15585719Y-19205626D01*
X15479270Y-19226800D01*
X15370730Y-19226800D01*
X15264281Y-19205626D01*
X15234910Y-19193460D01*
X15164004Y-19164090D01*
X15073758Y-19103790D01*
X14997010Y-19027042D01*
X14936710Y-18936796D01*
X14895175Y-18836521D01*
X14895174Y-18836519D01*
X14874000Y-18730070D01*
X14874000Y-18621530D01*
X14895174Y-18515081D01*
X14936710Y-18414805D01*
X14936710Y-18414804D01*
X14997010Y-18324558D01*
X15073758Y-18247810D01*
X15164004Y-18187510D01*
X15234910Y-18158140D01*
X15264281Y-18145974D01*
X15370730Y-18124800D01*
X15479270Y-18124800D01*
X15585719Y-18145974D01*
X15585719Y-18145974D01*
G37*
G36*
X14295719Y-18135974D02*
X14313282Y-18143249D01*
X14395996Y-18177510D01*
X14486242Y-18237810D01*
X14562990Y-18314558D01*
X14623290Y-18404804D01*
X14640648Y-18446710D01*
X14664826Y-18505081D01*
X14686000Y-18611530D01*
X14686000Y-18720070D01*
X14664826Y-18826519D01*
X14664825Y-18826521D01*
X14623290Y-18926796D01*
X14562990Y-19017042D01*
X14486242Y-19093790D01*
X14395996Y-19154090D01*
X14325090Y-19183460D01*
X14295719Y-19195626D01*
X14189270Y-19216800D01*
X14080730Y-19216800D01*
X13974281Y-19195626D01*
X13944910Y-19183460D01*
X13874004Y-19154090D01*
X13783758Y-19093790D01*
X13707010Y-19017042D01*
X13646710Y-18926796D01*
X13605175Y-18826521D01*
X13605174Y-18826519D01*
X13584000Y-18720070D01*
X13584000Y-18611530D01*
X13605174Y-18505081D01*
X13629352Y-18446710D01*
X13646710Y-18404804D01*
X13707010Y-18314558D01*
X13783758Y-18237810D01*
X13874004Y-18177510D01*
X13956718Y-18143249D01*
X13974281Y-18135974D01*
X14080730Y-18114800D01*
X14189270Y-18114800D01*
X14295719Y-18135974D01*
X14295719Y-18135974D01*
G37*
G36*
X9936825Y-18067081D02*
X9964546Y-18075490D01*
X9990089Y-18089143D01*
X10012481Y-18107519D01*
X10030857Y-18129911D01*
X10044510Y-18155454D01*
X10052919Y-18183175D01*
X10056000Y-18214454D01*
X10056000Y-18655546D01*
X10052919Y-18686825D01*
X10044510Y-18714546D01*
X10030857Y-18740089D01*
X10012481Y-18762481D01*
X9990089Y-18780857D01*
X9964546Y-18794510D01*
X9936825Y-18802919D01*
X9905546Y-18806000D01*
X9514454Y-18806000D01*
X9483175Y-18802919D01*
X9455454Y-18794510D01*
X9429911Y-18780857D01*
X9407519Y-18762481D01*
X9389143Y-18740089D01*
X9375490Y-18714546D01*
X9367081Y-18686825D01*
X9364000Y-18655546D01*
X9364000Y-18214454D01*
X9367081Y-18183175D01*
X9375490Y-18155454D01*
X9389143Y-18129911D01*
X9407519Y-18107519D01*
X9429911Y-18089143D01*
X9455454Y-18075490D01*
X9483175Y-18067081D01*
X9514454Y-18064000D01*
X9905546Y-18064000D01*
X9936825Y-18067081D01*
X9936825Y-18067081D01*
G37*
G36*
X10906825Y-18067081D02*
X10934546Y-18075490D01*
X10960089Y-18089143D01*
X10982481Y-18107519D01*
X11000857Y-18129911D01*
X11014510Y-18155454D01*
X11022919Y-18183175D01*
X11026000Y-18214454D01*
X11026000Y-18655546D01*
X11022919Y-18686825D01*
X11014510Y-18714546D01*
X11000857Y-18740089D01*
X10982481Y-18762481D01*
X10960089Y-18780857D01*
X10934546Y-18794510D01*
X10906825Y-18802919D01*
X10875546Y-18806000D01*
X10484454Y-18806000D01*
X10453175Y-18802919D01*
X10425454Y-18794510D01*
X10399911Y-18780857D01*
X10377519Y-18762481D01*
X10359143Y-18740089D01*
X10345490Y-18714546D01*
X10337081Y-18686825D01*
X10334000Y-18655546D01*
X10334000Y-18214454D01*
X10337081Y-18183175D01*
X10345490Y-18155454D01*
X10359143Y-18129911D01*
X10377519Y-18107519D01*
X10399911Y-18089143D01*
X10425454Y-18075490D01*
X10453175Y-18067081D01*
X10484454Y-18064000D01*
X10875546Y-18064000D01*
X10906825Y-18067081D01*
X10906825Y-18067081D01*
G37*
G36*
X11986825Y-18007081D02*
X12014546Y-18015490D01*
X12040089Y-18029143D01*
X12062481Y-18047519D01*
X12080857Y-18069911D01*
X12094510Y-18095454D01*
X12102919Y-18123175D01*
X12106000Y-18154454D01*
X12106000Y-18545546D01*
X12102919Y-18576825D01*
X12094510Y-18604546D01*
X12080857Y-18630089D01*
X12062481Y-18652481D01*
X12040089Y-18670857D01*
X12014546Y-18684510D01*
X11986825Y-18692919D01*
X11955546Y-18696000D01*
X11514454Y-18696000D01*
X11483175Y-18692919D01*
X11455454Y-18684510D01*
X11429911Y-18670857D01*
X11407519Y-18652481D01*
X11389143Y-18630089D01*
X11375490Y-18604546D01*
X11367081Y-18576825D01*
X11364000Y-18545546D01*
X11364000Y-18154454D01*
X11367081Y-18123175D01*
X11375490Y-18095454D01*
X11389143Y-18069911D01*
X11407519Y-18047519D01*
X11429911Y-18029143D01*
X11455454Y-18015490D01*
X11483175Y-18007081D01*
X11514454Y-18004000D01*
X11955546Y-18004000D01*
X11986825Y-18007081D01*
X11986825Y-18007081D01*
G37*
G36*
X8158119Y-16765974D02*
X8158122Y-16765975D01*
X8158121Y-16765975D01*
X8258396Y-16807510D01*
X8348642Y-16867810D01*
X8425390Y-16944558D01*
X8485690Y-17034804D01*
X8506345Y-17084671D01*
X8527226Y-17135081D01*
X8548400Y-17241530D01*
X8548400Y-17350070D01*
X8527226Y-17456519D01*
X8527225Y-17456521D01*
X8485690Y-17556796D01*
X8425390Y-17647042D01*
X8348642Y-17723790D01*
X8258396Y-17784090D01*
X8187490Y-17813460D01*
X8158119Y-17825626D01*
X8051670Y-17846800D01*
X7943130Y-17846800D01*
X7836681Y-17825626D01*
X7807310Y-17813460D01*
X7736404Y-17784090D01*
X7646158Y-17723790D01*
X7569410Y-17647042D01*
X7509110Y-17556796D01*
X7467575Y-17456521D01*
X7467574Y-17456519D01*
X7446400Y-17350070D01*
X7446400Y-17241530D01*
X7467574Y-17135081D01*
X7488455Y-17084671D01*
X7509110Y-17034804D01*
X7569410Y-16944558D01*
X7646158Y-16867810D01*
X7736404Y-16807510D01*
X7836679Y-16765975D01*
X7836678Y-16765975D01*
X7836681Y-16765974D01*
X7943130Y-16744800D01*
X8051670Y-16744800D01*
X8158119Y-16765974D01*
X8158119Y-16765974D01*
G37*
G36*
X3735719Y-16765974D02*
X3735722Y-16765975D01*
X3735721Y-16765975D01*
X3835996Y-16807510D01*
X3926242Y-16867810D01*
X4002990Y-16944558D01*
X4063290Y-17034804D01*
X4083945Y-17084671D01*
X4104826Y-17135081D01*
X4126000Y-17241530D01*
X4126000Y-17350070D01*
X4104826Y-17456519D01*
X4104825Y-17456521D01*
X4063290Y-17556796D01*
X4002990Y-17647042D01*
X3926242Y-17723790D01*
X3835996Y-17784090D01*
X3765090Y-17813460D01*
X3735719Y-17825626D01*
X3629270Y-17846800D01*
X3520730Y-17846800D01*
X3414281Y-17825626D01*
X3384910Y-17813460D01*
X3314004Y-17784090D01*
X3223758Y-17723790D01*
X3147010Y-17647042D01*
X3086710Y-17556796D01*
X3045175Y-17456521D01*
X3045174Y-17456519D01*
X3024000Y-17350070D01*
X3024000Y-17241530D01*
X3045174Y-17135081D01*
X3066055Y-17084671D01*
X3086710Y-17034804D01*
X3147010Y-16944558D01*
X3223758Y-16867810D01*
X3314004Y-16807510D01*
X3414279Y-16765975D01*
X3414278Y-16765975D01*
X3414281Y-16765974D01*
X3520730Y-16744800D01*
X3629270Y-16744800D01*
X3735719Y-16765974D01*
X3735719Y-16765974D01*
G37*
G36*
X2355719Y-16765974D02*
X2355722Y-16765975D01*
X2355721Y-16765975D01*
X2455996Y-16807510D01*
X2546242Y-16867810D01*
X2622990Y-16944558D01*
X2683290Y-17034804D01*
X2703945Y-17084671D01*
X2724826Y-17135081D01*
X2746000Y-17241530D01*
X2746000Y-17350070D01*
X2724826Y-17456519D01*
X2724825Y-17456521D01*
X2683290Y-17556796D01*
X2622990Y-17647042D01*
X2546242Y-17723790D01*
X2455996Y-17784090D01*
X2385090Y-17813460D01*
X2355719Y-17825626D01*
X2249270Y-17846800D01*
X2140730Y-17846800D01*
X2034281Y-17825626D01*
X2004910Y-17813460D01*
X1934004Y-17784090D01*
X1843758Y-17723790D01*
X1767010Y-17647042D01*
X1706710Y-17556796D01*
X1665175Y-17456521D01*
X1665174Y-17456519D01*
X1644000Y-17350070D01*
X1644000Y-17241530D01*
X1665174Y-17135081D01*
X1686055Y-17084671D01*
X1706710Y-17034804D01*
X1767010Y-16944558D01*
X1843758Y-16867810D01*
X1934004Y-16807510D01*
X2034279Y-16765975D01*
X2034278Y-16765975D01*
X2034281Y-16765974D01*
X2140730Y-16744800D01*
X2249270Y-16744800D01*
X2355719Y-16765974D01*
X2355719Y-16765974D01*
G37*
G36*
X6675719Y-16765974D02*
X6675722Y-16765975D01*
X6675721Y-16765975D01*
X6775996Y-16807510D01*
X6866242Y-16867810D01*
X6942990Y-16944558D01*
X7003290Y-17034804D01*
X7023945Y-17084671D01*
X7044826Y-17135081D01*
X7066000Y-17241530D01*
X7066000Y-17350070D01*
X7044826Y-17456519D01*
X7044825Y-17456521D01*
X7003290Y-17556796D01*
X6942990Y-17647042D01*
X6866242Y-17723790D01*
X6775996Y-17784090D01*
X6705090Y-17813460D01*
X6675719Y-17825626D01*
X6569270Y-17846800D01*
X6460730Y-17846800D01*
X6354281Y-17825626D01*
X6324910Y-17813460D01*
X6254004Y-17784090D01*
X6163758Y-17723790D01*
X6087010Y-17647042D01*
X6026710Y-17556796D01*
X5985175Y-17456521D01*
X5985174Y-17456519D01*
X5964000Y-17350070D01*
X5964000Y-17241530D01*
X5985174Y-17135081D01*
X6006055Y-17084671D01*
X6026710Y-17034804D01*
X6087010Y-16944558D01*
X6163758Y-16867810D01*
X6254004Y-16807510D01*
X6354279Y-16765975D01*
X6354278Y-16765975D01*
X6354281Y-16765974D01*
X6460730Y-16744800D01*
X6569270Y-16744800D01*
X6675719Y-16765974D01*
X6675719Y-16765974D01*
G37*
G36*
X5165719Y-16765974D02*
X5165722Y-16765975D01*
X5165721Y-16765975D01*
X5265996Y-16807510D01*
X5356242Y-16867810D01*
X5432990Y-16944558D01*
X5493290Y-17034804D01*
X5513945Y-17084671D01*
X5534826Y-17135081D01*
X5556000Y-17241530D01*
X5556000Y-17350070D01*
X5534826Y-17456519D01*
X5534825Y-17456521D01*
X5493290Y-17556796D01*
X5432990Y-17647042D01*
X5356242Y-17723790D01*
X5265996Y-17784090D01*
X5195090Y-17813460D01*
X5165719Y-17825626D01*
X5059270Y-17846800D01*
X4950730Y-17846800D01*
X4844281Y-17825626D01*
X4814910Y-17813460D01*
X4744004Y-17784090D01*
X4653758Y-17723790D01*
X4577010Y-17647042D01*
X4516710Y-17556796D01*
X4475175Y-17456521D01*
X4475174Y-17456519D01*
X4454000Y-17350070D01*
X4454000Y-17241530D01*
X4475174Y-17135081D01*
X4496055Y-17084671D01*
X4516710Y-17034804D01*
X4577010Y-16944558D01*
X4653758Y-16867810D01*
X4744004Y-16807510D01*
X4844279Y-16765975D01*
X4844278Y-16765975D01*
X4844281Y-16765974D01*
X4950730Y-16744800D01*
X5059270Y-16744800D01*
X5165719Y-16765974D01*
X5165719Y-16765974D01*
G37*
G36*
X11986825Y-17037081D02*
X12014546Y-17045490D01*
X12040089Y-17059143D01*
X12062481Y-17077519D01*
X12080857Y-17099911D01*
X12094510Y-17125454D01*
X12102919Y-17153175D01*
X12106000Y-17184454D01*
X12106000Y-17575546D01*
X12102919Y-17606825D01*
X12094510Y-17634546D01*
X12080857Y-17660089D01*
X12062481Y-17682481D01*
X12040089Y-17700857D01*
X12014546Y-17714510D01*
X11986825Y-17722919D01*
X11955546Y-17726000D01*
X11514454Y-17726000D01*
X11483175Y-17722919D01*
X11455454Y-17714510D01*
X11429911Y-17700857D01*
X11407519Y-17682481D01*
X11389143Y-17660089D01*
X11375490Y-17634546D01*
X11367081Y-17606825D01*
X11364000Y-17575546D01*
X11364000Y-17184454D01*
X11367081Y-17153175D01*
X11375490Y-17125454D01*
X11389143Y-17099911D01*
X11407519Y-17077519D01*
X11429911Y-17059143D01*
X11455454Y-17045490D01*
X11483175Y-17037081D01*
X11514454Y-17034000D01*
X11955546Y-17034000D01*
X11986825Y-17037081D01*
X11986825Y-17037081D01*
G37*
G36*
X13066825Y-16937081D02*
X13094546Y-16945490D01*
X13120089Y-16959143D01*
X13142481Y-16977519D01*
X13160857Y-16999911D01*
X13174510Y-17025454D01*
X13182919Y-17053175D01*
X13186000Y-17084454D01*
X13186000Y-17475546D01*
X13182919Y-17506825D01*
X13174510Y-17534546D01*
X13160857Y-17560089D01*
X13142481Y-17582481D01*
X13120089Y-17600857D01*
X13094546Y-17614510D01*
X13066825Y-17622919D01*
X13035546Y-17626000D01*
X12594454Y-17626000D01*
X12563175Y-17622919D01*
X12535454Y-17614510D01*
X12509911Y-17600857D01*
X12487519Y-17582481D01*
X12469143Y-17560089D01*
X12455490Y-17534546D01*
X12447081Y-17506825D01*
X12444000Y-17475546D01*
X12444000Y-17084454D01*
X12447081Y-17053175D01*
X12455490Y-17025454D01*
X12469143Y-16999911D01*
X12487519Y-16977519D01*
X12509911Y-16959143D01*
X12535454Y-16945490D01*
X12563175Y-16937081D01*
X12594454Y-16934000D01*
X13035546Y-16934000D01*
X13066825Y-16937081D01*
X13066825Y-16937081D01*
G37*
G36*
X10521825Y-16777081D02*
X10549546Y-16785490D01*
X10575089Y-16799143D01*
X10597481Y-16817519D01*
X10615857Y-16839911D01*
X10629510Y-16865454D01*
X10637919Y-16893175D01*
X10641000Y-16924454D01*
X10641000Y-17315546D01*
X10637919Y-17346825D01*
X10629510Y-17374546D01*
X10615857Y-17400089D01*
X10597481Y-17422481D01*
X10575089Y-17440857D01*
X10549546Y-17454510D01*
X10521825Y-17462919D01*
X10490546Y-17466000D01*
X10049454Y-17466000D01*
X10018175Y-17462919D01*
X9990454Y-17454510D01*
X9964911Y-17440857D01*
X9942519Y-17422481D01*
X9924143Y-17400089D01*
X9910490Y-17374546D01*
X9902081Y-17346825D01*
X9899000Y-17315546D01*
X9899000Y-16924454D01*
X9902081Y-16893175D01*
X9910490Y-16865454D01*
X9924143Y-16839911D01*
X9942519Y-16817519D01*
X9964911Y-16799143D01*
X9990454Y-16785490D01*
X10018175Y-16777081D01*
X10049454Y-16774000D01*
X10490546Y-16774000D01*
X10521825Y-16777081D01*
X10521825Y-16777081D01*
G37*
G36*
X13066825Y-15967081D02*
X13094546Y-15975490D01*
X13120089Y-15989143D01*
X13142481Y-16007519D01*
X13160857Y-16029911D01*
X13174510Y-16055454D01*
X13182919Y-16083175D01*
X13186000Y-16114454D01*
X13186000Y-16505546D01*
X13182919Y-16536825D01*
X13174510Y-16564546D01*
X13160857Y-16590089D01*
X13142481Y-16612481D01*
X13120089Y-16630857D01*
X13094546Y-16644510D01*
X13066825Y-16652919D01*
X13035546Y-16656000D01*
X12594454Y-16656000D01*
X12563175Y-16652919D01*
X12535454Y-16644510D01*
X12509911Y-16630857D01*
X12487519Y-16612481D01*
X12469143Y-16590089D01*
X12455490Y-16564546D01*
X12447081Y-16536825D01*
X12444000Y-16505546D01*
X12444000Y-16114454D01*
X12447081Y-16083175D01*
X12455490Y-16055454D01*
X12469143Y-16029911D01*
X12487519Y-16007519D01*
X12509911Y-15989143D01*
X12535454Y-15975490D01*
X12563175Y-15967081D01*
X12594454Y-15964000D01*
X13035546Y-15964000D01*
X13066825Y-15967081D01*
X13066825Y-15967081D01*
G37*
G36*
X10521825Y-15807081D02*
X10549546Y-15815490D01*
X10575089Y-15829143D01*
X10597481Y-15847519D01*
X10615857Y-15869911D01*
X10629510Y-15895454D01*
X10637919Y-15923175D01*
X10641000Y-15954454D01*
X10641000Y-16345546D01*
X10637919Y-16376825D01*
X10629510Y-16404546D01*
X10615857Y-16430089D01*
X10597481Y-16452481D01*
X10575089Y-16470857D01*
X10549546Y-16484510D01*
X10521825Y-16492919D01*
X10490546Y-16496000D01*
X10049454Y-16496000D01*
X10018175Y-16492919D01*
X9990454Y-16484510D01*
X9964911Y-16470857D01*
X9942519Y-16452481D01*
X9924143Y-16430089D01*
X9910490Y-16404546D01*
X9902081Y-16376825D01*
X9899000Y-16345546D01*
X9899000Y-15954454D01*
X9902081Y-15923175D01*
X9910490Y-15895454D01*
X9924143Y-15869911D01*
X9942519Y-15847519D01*
X9964911Y-15829143D01*
X9990454Y-15815490D01*
X10018175Y-15807081D01*
X10049454Y-15804000D01*
X10490546Y-15804000D01*
X10521825Y-15807081D01*
X10521825Y-15807081D01*
G37*
G36*
X7716825Y-15297081D02*
X7744546Y-15305490D01*
X7770089Y-15319143D01*
X7792481Y-15337519D01*
X7810857Y-15359911D01*
X7824510Y-15385454D01*
X7832919Y-15413175D01*
X7836000Y-15444454D01*
X7836000Y-15885546D01*
X7832919Y-15916825D01*
X7824510Y-15944546D01*
X7810857Y-15970089D01*
X7792481Y-15992481D01*
X7770089Y-16010857D01*
X7744546Y-16024510D01*
X7716825Y-16032919D01*
X7685546Y-16036000D01*
X7294454Y-16036000D01*
X7263175Y-16032919D01*
X7235454Y-16024510D01*
X7209911Y-16010857D01*
X7187519Y-15992481D01*
X7169143Y-15970089D01*
X7155490Y-15944546D01*
X7147081Y-15916825D01*
X7144000Y-15885546D01*
X7144000Y-15444454D01*
X7147081Y-15413175D01*
X7155490Y-15385454D01*
X7169143Y-15359911D01*
X7187519Y-15337519D01*
X7209911Y-15319143D01*
X7235454Y-15305490D01*
X7263175Y-15297081D01*
X7294454Y-15294000D01*
X7685546Y-15294000D01*
X7716825Y-15297081D01*
X7716825Y-15297081D01*
G37*
G36*
X6746825Y-15297081D02*
X6774546Y-15305490D01*
X6800089Y-15319143D01*
X6822481Y-15337519D01*
X6840857Y-15359911D01*
X6854510Y-15385454D01*
X6862919Y-15413175D01*
X6866000Y-15444454D01*
X6866000Y-15885546D01*
X6862919Y-15916825D01*
X6854510Y-15944546D01*
X6840857Y-15970089D01*
X6822481Y-15992481D01*
X6800089Y-16010857D01*
X6774546Y-16024510D01*
X6746825Y-16032919D01*
X6715546Y-16036000D01*
X6324454Y-16036000D01*
X6293175Y-16032919D01*
X6265454Y-16024510D01*
X6239911Y-16010857D01*
X6217519Y-15992481D01*
X6199143Y-15970089D01*
X6185490Y-15944546D01*
X6177081Y-15916825D01*
X6174000Y-15885546D01*
X6174000Y-15444454D01*
X6177081Y-15413175D01*
X6185490Y-15385454D01*
X6199143Y-15359911D01*
X6217519Y-15337519D01*
X6239911Y-15319143D01*
X6265454Y-15305490D01*
X6293175Y-15297081D01*
X6324454Y-15294000D01*
X6715546Y-15294000D01*
X6746825Y-15297081D01*
X6746825Y-15297081D01*
G37*
G36*
X3255719Y-14655174D02*
X3255722Y-14655175D01*
X3255721Y-14655175D01*
X3355996Y-14696710D01*
X3446242Y-14757010D01*
X3522990Y-14833758D01*
X3583290Y-14924004D01*
X3592401Y-14946000D01*
X3624826Y-15024281D01*
X3646000Y-15130730D01*
X3646000Y-15239270D01*
X3624826Y-15345719D01*
X3624825Y-15345721D01*
X3583290Y-15445996D01*
X3522990Y-15536242D01*
X3446242Y-15612990D01*
X3355996Y-15673290D01*
X3285090Y-15702660D01*
X3255719Y-15714826D01*
X3149270Y-15736000D01*
X3040730Y-15736000D01*
X2934281Y-15714826D01*
X2904910Y-15702660D01*
X2834004Y-15673290D01*
X2743758Y-15612990D01*
X2667010Y-15536242D01*
X2606710Y-15445996D01*
X2565175Y-15345721D01*
X2565174Y-15345719D01*
X2544000Y-15239270D01*
X2544000Y-15130730D01*
X2565174Y-15024281D01*
X2597599Y-14946000D01*
X2606710Y-14924004D01*
X2667010Y-14833758D01*
X2743758Y-14757010D01*
X2834004Y-14696710D01*
X2934279Y-14655175D01*
X2934278Y-14655175D01*
X2934281Y-14655174D01*
X3040730Y-14634000D01*
X3149270Y-14634000D01*
X3255719Y-14655174D01*
X3255719Y-14655174D01*
G37*
G36*
X21505719Y-14405174D02*
X21505722Y-14405175D01*
X21505721Y-14405175D01*
X21605996Y-14446710D01*
X21696242Y-14507010D01*
X21772990Y-14583758D01*
X21833290Y-14674004D01*
X21833290Y-14674005D01*
X21874826Y-14774281D01*
X21896000Y-14880730D01*
X21896000Y-14989270D01*
X21874826Y-15095719D01*
X21874825Y-15095721D01*
X21833290Y-15195996D01*
X21772990Y-15286242D01*
X21696242Y-15362990D01*
X21605996Y-15423290D01*
X21535090Y-15452660D01*
X21505719Y-15464826D01*
X21399270Y-15486000D01*
X21290730Y-15486000D01*
X21184281Y-15464826D01*
X21154910Y-15452660D01*
X21084004Y-15423290D01*
X20993758Y-15362990D01*
X20917010Y-15286242D01*
X20856710Y-15195996D01*
X20815175Y-15095721D01*
X20815174Y-15095719D01*
X20794000Y-14989270D01*
X20794000Y-14880730D01*
X20815174Y-14774281D01*
X20856710Y-14674005D01*
X20856710Y-14674004D01*
X20917010Y-14583758D01*
X20993758Y-14507010D01*
X21084004Y-14446710D01*
X21184279Y-14405175D01*
X21184278Y-14405175D01*
X21184281Y-14405174D01*
X21290730Y-14384000D01*
X21399270Y-14384000D01*
X21505719Y-14405174D01*
X21505719Y-14405174D01*
G37*
G36*
X6736825Y-14207081D02*
X6764546Y-14215490D01*
X6790089Y-14229143D01*
X6812481Y-14247519D01*
X6830857Y-14269911D01*
X6844510Y-14295454D01*
X6852919Y-14323175D01*
X6856000Y-14354454D01*
X6856000Y-14795546D01*
X6852919Y-14826825D01*
X6844510Y-14854546D01*
X6830857Y-14880089D01*
X6812481Y-14902481D01*
X6790089Y-14920857D01*
X6764546Y-14934510D01*
X6736825Y-14942919D01*
X6705546Y-14946000D01*
X6314454Y-14946000D01*
X6283175Y-14942919D01*
X6255454Y-14934510D01*
X6229911Y-14920857D01*
X6207519Y-14902481D01*
X6189143Y-14880089D01*
X6175490Y-14854546D01*
X6167081Y-14826825D01*
X6164000Y-14795546D01*
X6164000Y-14354454D01*
X6167081Y-14323175D01*
X6175490Y-14295454D01*
X6189143Y-14269911D01*
X6207519Y-14247519D01*
X6229911Y-14229143D01*
X6255454Y-14215490D01*
X6283175Y-14207081D01*
X6314454Y-14204000D01*
X6705546Y-14204000D01*
X6736825Y-14207081D01*
X6736825Y-14207081D01*
G37*
G36*
X7706825Y-14207081D02*
X7734546Y-14215490D01*
X7760089Y-14229143D01*
X7782481Y-14247519D01*
X7800857Y-14269911D01*
X7814510Y-14295454D01*
X7822919Y-14323175D01*
X7826000Y-14354454D01*
X7826000Y-14795546D01*
X7822919Y-14826825D01*
X7814510Y-14854546D01*
X7800857Y-14880089D01*
X7782481Y-14902481D01*
X7760089Y-14920857D01*
X7734546Y-14934510D01*
X7706825Y-14942919D01*
X7675546Y-14946000D01*
X7284454Y-14946000D01*
X7253175Y-14942919D01*
X7225454Y-14934510D01*
X7199911Y-14920857D01*
X7177519Y-14902481D01*
X7159143Y-14880089D01*
X7145490Y-14854546D01*
X7137081Y-14826825D01*
X7134000Y-14795546D01*
X7134000Y-14354454D01*
X7137081Y-14323175D01*
X7145490Y-14295454D01*
X7159143Y-14269911D01*
X7177519Y-14247519D01*
X7199911Y-14229143D01*
X7225454Y-14215490D01*
X7253175Y-14207081D01*
X7284454Y-14204000D01*
X7675546Y-14204000D01*
X7706825Y-14207081D01*
X7706825Y-14207081D01*
G37*
G36*
X17396825Y-13867081D02*
X17424546Y-13875490D01*
X17450089Y-13889143D01*
X17472481Y-13907519D01*
X17490857Y-13929911D01*
X17504510Y-13955454D01*
X17512919Y-13983175D01*
X17516000Y-14014454D01*
X17516000Y-14405546D01*
X17512919Y-14436825D01*
X17504510Y-14464546D01*
X17490857Y-14490089D01*
X17472481Y-14512481D01*
X17450089Y-14530857D01*
X17424546Y-14544510D01*
X17396825Y-14552919D01*
X17365546Y-14556000D01*
X16924454Y-14556000D01*
X16893175Y-14552919D01*
X16865454Y-14544510D01*
X16839911Y-14530857D01*
X16817519Y-14512481D01*
X16799143Y-14490089D01*
X16785490Y-14464546D01*
X16777081Y-14436825D01*
X16774000Y-14405546D01*
X16774000Y-14014454D01*
X16777081Y-13983175D01*
X16785490Y-13955454D01*
X16799143Y-13929911D01*
X16817519Y-13907519D01*
X16839911Y-13889143D01*
X16865454Y-13875490D01*
X16893175Y-13867081D01*
X16924454Y-13864000D01*
X17365546Y-13864000D01*
X17396825Y-13867081D01*
X17396825Y-13867081D01*
G37*
G36*
X19496825Y-13867081D02*
X19524546Y-13875490D01*
X19550089Y-13889143D01*
X19572481Y-13907519D01*
X19590857Y-13929911D01*
X19604510Y-13955454D01*
X19612919Y-13983175D01*
X19616000Y-14014454D01*
X19616000Y-14405546D01*
X19612919Y-14436825D01*
X19604510Y-14464546D01*
X19590857Y-14490089D01*
X19572481Y-14512481D01*
X19550089Y-14530857D01*
X19524546Y-14544510D01*
X19496825Y-14552919D01*
X19465546Y-14556000D01*
X19024454Y-14556000D01*
X18993175Y-14552919D01*
X18965454Y-14544510D01*
X18939911Y-14530857D01*
X18917519Y-14512481D01*
X18899143Y-14490089D01*
X18885490Y-14464546D01*
X18877081Y-14436825D01*
X18874000Y-14405546D01*
X18874000Y-14014454D01*
X18877081Y-13983175D01*
X18885490Y-13955454D01*
X18899143Y-13929911D01*
X18917519Y-13907519D01*
X18939911Y-13889143D01*
X18965454Y-13875490D01*
X18993175Y-13867081D01*
X19024454Y-13864000D01*
X19465546Y-13864000D01*
X19496825Y-13867081D01*
X19496825Y-13867081D01*
G37*
G36*
X18446825Y-13867081D02*
X18474546Y-13875490D01*
X18500089Y-13889143D01*
X18522481Y-13907519D01*
X18540857Y-13929911D01*
X18554510Y-13955454D01*
X18562919Y-13983175D01*
X18566000Y-14014454D01*
X18566000Y-14405546D01*
X18562919Y-14436825D01*
X18554510Y-14464546D01*
X18540857Y-14490089D01*
X18522481Y-14512481D01*
X18500089Y-14530857D01*
X18474546Y-14544510D01*
X18446825Y-14552919D01*
X18415546Y-14556000D01*
X17974454Y-14556000D01*
X17943175Y-14552919D01*
X17915454Y-14544510D01*
X17889911Y-14530857D01*
X17867519Y-14512481D01*
X17849143Y-14490089D01*
X17835490Y-14464546D01*
X17827081Y-14436825D01*
X17824000Y-14405546D01*
X17824000Y-14014454D01*
X17827081Y-13983175D01*
X17835490Y-13955454D01*
X17849143Y-13929911D01*
X17867519Y-13907519D01*
X17889911Y-13889143D01*
X17915454Y-13875490D01*
X17943175Y-13867081D01*
X17974454Y-13864000D01*
X18415546Y-13864000D01*
X18446825Y-13867081D01*
X18446825Y-13867081D01*
G37*
G36*
X13671000Y-14431000D02*
X13269000Y-14431000D01*
X13269000Y-14029000D01*
X13671000Y-14029000D01*
X13671000Y-14431000D01*
X13671000Y-14431000D01*
G37*
G36*
X15621000Y-14431000D02*
X15219000Y-14431000D01*
X15219000Y-14029000D01*
X15621000Y-14029000D01*
X15621000Y-14431000D01*
X15621000Y-14431000D01*
G37*
G36*
X14971000Y-14431000D02*
X14569000Y-14431000D01*
X14569000Y-14029000D01*
X14971000Y-14029000D01*
X14971000Y-14431000D01*
X14971000Y-14431000D01*
G37*
G36*
X9771000Y-14431000D02*
X9369000Y-14431000D01*
X9369000Y-14029000D01*
X9771000Y-14029000D01*
X9771000Y-14431000D01*
X9771000Y-14431000D01*
G37*
G36*
X10421000Y-14431000D02*
X10019000Y-14431000D01*
X10019000Y-14029000D01*
X10421000Y-14029000D01*
X10421000Y-14431000D01*
X10421000Y-14431000D01*
G37*
G36*
X11071000Y-14431000D02*
X10669000Y-14431000D01*
X10669000Y-14029000D01*
X11071000Y-14029000D01*
X11071000Y-14431000D01*
X11071000Y-14431000D01*
G37*
G36*
X11721000Y-14431000D02*
X11319000Y-14431000D01*
X11319000Y-14029000D01*
X11721000Y-14029000D01*
X11721000Y-14431000D01*
X11721000Y-14431000D01*
G37*
G36*
X14321000Y-14431000D02*
X13919000Y-14431000D01*
X13919000Y-14029000D01*
X14321000Y-14029000D01*
X14321000Y-14431000D01*
X14321000Y-14431000D01*
G37*
G36*
X13021000Y-14431000D02*
X12619000Y-14431000D01*
X12619000Y-14029000D01*
X13021000Y-14029000D01*
X13021000Y-14431000D01*
X13021000Y-14431000D01*
G37*
G36*
X12371000Y-14431000D02*
X11969000Y-14431000D01*
X11969000Y-14029000D01*
X12371000Y-14029000D01*
X12371000Y-14431000D01*
X12371000Y-14431000D01*
G37*
G36*
X21505719Y-12905174D02*
X21531510Y-12915857D01*
X21605996Y-12946710D01*
X21696242Y-13007010D01*
X21772990Y-13083758D01*
X21833290Y-13174004D01*
X21833290Y-13174005D01*
X21874826Y-13274281D01*
X21896000Y-13380730D01*
X21896000Y-13489270D01*
X21874826Y-13595719D01*
X21874825Y-13595721D01*
X21833290Y-13695996D01*
X21772990Y-13786242D01*
X21696242Y-13862990D01*
X21605996Y-13923290D01*
X21590011Y-13929911D01*
X21505719Y-13964826D01*
X21399270Y-13986000D01*
X21290730Y-13986000D01*
X21184281Y-13964826D01*
X21099989Y-13929911D01*
X21084004Y-13923290D01*
X20993758Y-13862990D01*
X20917010Y-13786242D01*
X20856710Y-13695996D01*
X20815175Y-13595721D01*
X20815174Y-13595719D01*
X20794000Y-13489270D01*
X20794000Y-13380730D01*
X20815174Y-13274281D01*
X20856710Y-13174005D01*
X20856710Y-13174004D01*
X20917010Y-13083758D01*
X20993758Y-13007010D01*
X21084004Y-12946710D01*
X21158490Y-12915857D01*
X21184281Y-12905174D01*
X21290730Y-12884000D01*
X21399270Y-12884000D01*
X21505719Y-12905174D01*
X21505719Y-12905174D01*
G37*
G36*
X15621000Y-13781000D02*
X15219000Y-13781000D01*
X15219000Y-13379000D01*
X15621000Y-13379000D01*
X15621000Y-13781000D01*
X15621000Y-13781000D01*
G37*
G36*
X14321000Y-13781000D02*
X13919000Y-13781000D01*
X13919000Y-13379000D01*
X14321000Y-13379000D01*
X14321000Y-13781000D01*
X14321000Y-13781000D01*
G37*
G36*
X14971000Y-13781000D02*
X14569000Y-13781000D01*
X14569000Y-13379000D01*
X14971000Y-13379000D01*
X14971000Y-13781000D01*
X14971000Y-13781000D01*
G37*
G36*
X13021000Y-13781000D02*
X12619000Y-13781000D01*
X12619000Y-13379000D01*
X13021000Y-13379000D01*
X13021000Y-13781000D01*
X13021000Y-13781000D01*
G37*
G36*
X12371000Y-13781000D02*
X11969000Y-13781000D01*
X11969000Y-13379000D01*
X12371000Y-13379000D01*
X12371000Y-13781000D01*
X12371000Y-13781000D01*
G37*
G36*
X11721000Y-13781000D02*
X11319000Y-13781000D01*
X11319000Y-13379000D01*
X11721000Y-13379000D01*
X11721000Y-13781000D01*
X11721000Y-13781000D01*
G37*
G36*
X13671000Y-13781000D02*
X13269000Y-13781000D01*
X13269000Y-13379000D01*
X13671000Y-13379000D01*
X13671000Y-13781000D01*
X13671000Y-13781000D01*
G37*
G36*
X11071000Y-13781000D02*
X10669000Y-13781000D01*
X10669000Y-13379000D01*
X11071000Y-13379000D01*
X11071000Y-13781000D01*
X11071000Y-13781000D01*
G37*
G36*
X9771000Y-13781000D02*
X9369000Y-13781000D01*
X9369000Y-13379000D01*
X9771000Y-13379000D01*
X9771000Y-13781000D01*
X9771000Y-13781000D01*
G37*
G36*
X10421000Y-13781000D02*
X10019000Y-13781000D01*
X10019000Y-13379000D01*
X10421000Y-13379000D01*
X10421000Y-13781000D01*
X10421000Y-13781000D01*
G37*
G36*
X17396825Y-12897081D02*
X17424546Y-12905490D01*
X17450089Y-12919143D01*
X17472481Y-12937519D01*
X17490857Y-12959911D01*
X17504510Y-12985454D01*
X17512919Y-13013175D01*
X17516000Y-13044454D01*
X17516000Y-13435546D01*
X17512919Y-13466825D01*
X17504510Y-13494546D01*
X17490857Y-13520089D01*
X17472481Y-13542481D01*
X17450089Y-13560857D01*
X17424546Y-13574510D01*
X17396825Y-13582919D01*
X17365546Y-13586000D01*
X16924454Y-13586000D01*
X16893175Y-13582919D01*
X16865454Y-13574510D01*
X16839911Y-13560857D01*
X16817519Y-13542481D01*
X16799143Y-13520089D01*
X16785490Y-13494546D01*
X16777081Y-13466825D01*
X16774000Y-13435546D01*
X16774000Y-13044454D01*
X16777081Y-13013175D01*
X16785490Y-12985454D01*
X16799143Y-12959911D01*
X16817519Y-12937519D01*
X16839911Y-12919143D01*
X16865454Y-12905490D01*
X16893175Y-12897081D01*
X16924454Y-12894000D01*
X17365546Y-12894000D01*
X17396825Y-12897081D01*
X17396825Y-12897081D01*
G37*
G36*
X18446825Y-12897081D02*
X18474546Y-12905490D01*
X18500089Y-12919143D01*
X18522481Y-12937519D01*
X18540857Y-12959911D01*
X18554510Y-12985454D01*
X18562919Y-13013175D01*
X18566000Y-13044454D01*
X18566000Y-13435546D01*
X18562919Y-13466825D01*
X18554510Y-13494546D01*
X18540857Y-13520089D01*
X18522481Y-13542481D01*
X18500089Y-13560857D01*
X18474546Y-13574510D01*
X18446825Y-13582919D01*
X18415546Y-13586000D01*
X17974454Y-13586000D01*
X17943175Y-13582919D01*
X17915454Y-13574510D01*
X17889911Y-13560857D01*
X17867519Y-13542481D01*
X17849143Y-13520089D01*
X17835490Y-13494546D01*
X17827081Y-13466825D01*
X17824000Y-13435546D01*
X17824000Y-13044454D01*
X17827081Y-13013175D01*
X17835490Y-12985454D01*
X17849143Y-12959911D01*
X17867519Y-12937519D01*
X17889911Y-12919143D01*
X17915454Y-12905490D01*
X17943175Y-12897081D01*
X17974454Y-12894000D01*
X18415546Y-12894000D01*
X18446825Y-12897081D01*
X18446825Y-12897081D01*
G37*
G36*
X19496825Y-12897081D02*
X19524546Y-12905490D01*
X19550089Y-12919143D01*
X19572481Y-12937519D01*
X19590857Y-12959911D01*
X19604510Y-12985454D01*
X19612919Y-13013175D01*
X19616000Y-13044454D01*
X19616000Y-13435546D01*
X19612919Y-13466825D01*
X19604510Y-13494546D01*
X19590857Y-13520089D01*
X19572481Y-13542481D01*
X19550089Y-13560857D01*
X19524546Y-13574510D01*
X19496825Y-13582919D01*
X19465546Y-13586000D01*
X19024454Y-13586000D01*
X18993175Y-13582919D01*
X18965454Y-13574510D01*
X18939911Y-13560857D01*
X18917519Y-13542481D01*
X18899143Y-13520089D01*
X18885490Y-13494546D01*
X18877081Y-13466825D01*
X18874000Y-13435546D01*
X18874000Y-13044454D01*
X18877081Y-13013175D01*
X18885490Y-12985454D01*
X18899143Y-12959911D01*
X18917519Y-12937519D01*
X18939911Y-12919143D01*
X18965454Y-12905490D01*
X18993175Y-12897081D01*
X19024454Y-12894000D01*
X19465546Y-12894000D01*
X19496825Y-12897081D01*
X19496825Y-12897081D01*
G37*
G36*
X5146825Y-12807081D02*
X5174546Y-12815490D01*
X5200089Y-12829143D01*
X5222481Y-12847519D01*
X5240857Y-12869911D01*
X5254510Y-12895454D01*
X5262919Y-12923175D01*
X5266000Y-12954454D01*
X5266000Y-13395546D01*
X5262919Y-13426825D01*
X5254510Y-13454546D01*
X5240857Y-13480089D01*
X5222481Y-13502481D01*
X5200089Y-13520857D01*
X5174546Y-13534510D01*
X5146825Y-13542919D01*
X5115546Y-13546000D01*
X4724454Y-13546000D01*
X4693175Y-13542919D01*
X4665454Y-13534510D01*
X4639911Y-13520857D01*
X4617519Y-13502481D01*
X4599143Y-13480089D01*
X4585490Y-13454546D01*
X4577081Y-13426825D01*
X4574000Y-13395546D01*
X4574000Y-12954454D01*
X4577081Y-12923175D01*
X4585490Y-12895454D01*
X4599143Y-12869911D01*
X4617519Y-12847519D01*
X4639911Y-12829143D01*
X4665454Y-12815490D01*
X4693175Y-12807081D01*
X4724454Y-12804000D01*
X5115546Y-12804000D01*
X5146825Y-12807081D01*
X5146825Y-12807081D01*
G37*
G36*
X4176825Y-12807081D02*
X4204546Y-12815490D01*
X4230089Y-12829143D01*
X4252481Y-12847519D01*
X4270857Y-12869911D01*
X4284510Y-12895454D01*
X4292919Y-12923175D01*
X4296000Y-12954454D01*
X4296000Y-13395546D01*
X4292919Y-13426825D01*
X4284510Y-13454546D01*
X4270857Y-13480089D01*
X4252481Y-13502481D01*
X4230089Y-13520857D01*
X4204546Y-13534510D01*
X4176825Y-13542919D01*
X4145546Y-13546000D01*
X3754454Y-13546000D01*
X3723175Y-13542919D01*
X3695454Y-13534510D01*
X3669911Y-13520857D01*
X3647519Y-13502481D01*
X3629143Y-13480089D01*
X3615490Y-13454546D01*
X3607081Y-13426825D01*
X3604000Y-13395546D01*
X3604000Y-12954454D01*
X3607081Y-12923175D01*
X3615490Y-12895454D01*
X3629143Y-12869911D01*
X3647519Y-12847519D01*
X3669911Y-12829143D01*
X3695454Y-12815490D01*
X3723175Y-12807081D01*
X3754454Y-12804000D01*
X4145546Y-12804000D01*
X4176825Y-12807081D01*
X4176825Y-12807081D01*
G37*
G36*
X11071000Y-13131000D02*
X10669000Y-13131000D01*
X10669000Y-12729000D01*
X11071000Y-12729000D01*
X11071000Y-13131000D01*
X11071000Y-13131000D01*
G37*
G36*
X12371000Y-13131000D02*
X11969000Y-13131000D01*
X11969000Y-12729000D01*
X12371000Y-12729000D01*
X12371000Y-13131000D01*
X12371000Y-13131000D01*
G37*
G36*
X13671000Y-13131000D02*
X13269000Y-13131000D01*
X13269000Y-12729000D01*
X13671000Y-12729000D01*
X13671000Y-13131000D01*
X13671000Y-13131000D01*
G37*
G36*
X14971000Y-13131000D02*
X14569000Y-13131000D01*
X14569000Y-12729000D01*
X14971000Y-12729000D01*
X14971000Y-13131000D01*
X14971000Y-13131000D01*
G37*
G36*
X13021000Y-13131000D02*
X12619000Y-13131000D01*
X12619000Y-12729000D01*
X13021000Y-12729000D01*
X13021000Y-13131000D01*
X13021000Y-13131000D01*
G37*
G36*
X11721000Y-13131000D02*
X11319000Y-13131000D01*
X11319000Y-12729000D01*
X11721000Y-12729000D01*
X11721000Y-13131000D01*
X11721000Y-13131000D01*
G37*
G36*
X10421000Y-13131000D02*
X10019000Y-13131000D01*
X10019000Y-12729000D01*
X10421000Y-12729000D01*
X10421000Y-13131000D01*
X10421000Y-13131000D01*
G37*
G36*
X9771000Y-13131000D02*
X9369000Y-13131000D01*
X9369000Y-12729000D01*
X9771000Y-12729000D01*
X9771000Y-13131000D01*
X9771000Y-13131000D01*
G37*
G36*
X14321000Y-13131000D02*
X13919000Y-13131000D01*
X13919000Y-12729000D01*
X14321000Y-12729000D01*
X14321000Y-13131000D01*
X14321000Y-13131000D01*
G37*
G36*
X15621000Y-13131000D02*
X15219000Y-13131000D01*
X15219000Y-12729000D01*
X15621000Y-12729000D01*
X15621000Y-13131000D01*
X15621000Y-13131000D01*
G37*
G36*
X8096825Y-12252081D02*
X8124546Y-12260490D01*
X8150089Y-12274143D01*
X8172481Y-12292519D01*
X8190857Y-12314911D01*
X8204510Y-12340454D01*
X8212919Y-12368175D01*
X8216000Y-12399454D01*
X8216000Y-12790546D01*
X8212919Y-12821825D01*
X8204510Y-12849546D01*
X8190857Y-12875089D01*
X8172481Y-12897481D01*
X8150089Y-12915857D01*
X8124546Y-12929510D01*
X8096825Y-12937919D01*
X8065546Y-12941000D01*
X7624454Y-12941000D01*
X7593175Y-12937919D01*
X7565454Y-12929510D01*
X7539911Y-12915857D01*
X7517519Y-12897481D01*
X7499143Y-12875089D01*
X7485490Y-12849546D01*
X7477081Y-12821825D01*
X7474000Y-12790546D01*
X7474000Y-12399454D01*
X7477081Y-12368175D01*
X7485490Y-12340454D01*
X7499143Y-12314911D01*
X7517519Y-12292519D01*
X7539911Y-12274143D01*
X7565454Y-12260490D01*
X7593175Y-12252081D01*
X7624454Y-12249000D01*
X8065546Y-12249000D01*
X8096825Y-12252081D01*
X8096825Y-12252081D01*
G37*
G36*
X17406825Y-11817081D02*
X17434546Y-11825490D01*
X17460089Y-11839143D01*
X17482481Y-11857519D01*
X17500857Y-11879911D01*
X17514510Y-11905454D01*
X17522919Y-11933175D01*
X17526000Y-11964454D01*
X17526000Y-12355546D01*
X17522919Y-12386825D01*
X17514510Y-12414546D01*
X17500857Y-12440089D01*
X17482481Y-12462481D01*
X17460089Y-12480857D01*
X17434546Y-12494510D01*
X17406825Y-12502919D01*
X17375546Y-12506000D01*
X16934454Y-12506000D01*
X16903175Y-12502919D01*
X16875454Y-12494510D01*
X16849911Y-12480857D01*
X16827519Y-12462481D01*
X16809143Y-12440089D01*
X16795490Y-12414546D01*
X16787081Y-12386825D01*
X16784000Y-12355546D01*
X16784000Y-11964454D01*
X16787081Y-11933175D01*
X16795490Y-11905454D01*
X16809143Y-11879911D01*
X16827519Y-11857519D01*
X16849911Y-11839143D01*
X16875454Y-11825490D01*
X16903175Y-11817081D01*
X16934454Y-11814000D01*
X17375546Y-11814000D01*
X17406825Y-11817081D01*
X17406825Y-11817081D01*
G37*
G36*
X19496825Y-11817081D02*
X19524546Y-11825490D01*
X19550089Y-11839143D01*
X19572481Y-11857519D01*
X19590857Y-11879911D01*
X19604510Y-11905454D01*
X19612919Y-11933175D01*
X19616000Y-11964454D01*
X19616000Y-12355546D01*
X19612919Y-12386825D01*
X19604510Y-12414546D01*
X19590857Y-12440089D01*
X19572481Y-12462481D01*
X19550089Y-12480857D01*
X19524546Y-12494510D01*
X19496825Y-12502919D01*
X19465546Y-12506000D01*
X19024454Y-12506000D01*
X18993175Y-12502919D01*
X18965454Y-12494510D01*
X18939911Y-12480857D01*
X18917519Y-12462481D01*
X18899143Y-12440089D01*
X18885490Y-12414546D01*
X18877081Y-12386825D01*
X18874000Y-12355546D01*
X18874000Y-11964454D01*
X18877081Y-11933175D01*
X18885490Y-11905454D01*
X18899143Y-11879911D01*
X18917519Y-11857519D01*
X18939911Y-11839143D01*
X18965454Y-11825490D01*
X18993175Y-11817081D01*
X19024454Y-11814000D01*
X19465546Y-11814000D01*
X19496825Y-11817081D01*
X19496825Y-11817081D01*
G37*
G36*
X18456825Y-11817081D02*
X18484546Y-11825490D01*
X18510089Y-11839143D01*
X18532481Y-11857519D01*
X18550857Y-11879911D01*
X18564510Y-11905454D01*
X18572919Y-11933175D01*
X18576000Y-11964454D01*
X18576000Y-12355546D01*
X18572919Y-12386825D01*
X18564510Y-12414546D01*
X18550857Y-12440089D01*
X18532481Y-12462481D01*
X18510089Y-12480857D01*
X18484546Y-12494510D01*
X18456825Y-12502919D01*
X18425546Y-12506000D01*
X17984454Y-12506000D01*
X17953175Y-12502919D01*
X17925454Y-12494510D01*
X17899911Y-12480857D01*
X17877519Y-12462481D01*
X17859143Y-12440089D01*
X17845490Y-12414546D01*
X17837081Y-12386825D01*
X17834000Y-12355546D01*
X17834000Y-11964454D01*
X17837081Y-11933175D01*
X17845490Y-11905454D01*
X17859143Y-11879911D01*
X17877519Y-11857519D01*
X17899911Y-11839143D01*
X17925454Y-11825490D01*
X17953175Y-11817081D01*
X17984454Y-11814000D01*
X18425546Y-11814000D01*
X18456825Y-11817081D01*
X18456825Y-11817081D01*
G37*
G36*
X14971000Y-12481000D02*
X14569000Y-12481000D01*
X14569000Y-12079000D01*
X14971000Y-12079000D01*
X14971000Y-12481000D01*
X14971000Y-12481000D01*
G37*
G36*
X15621000Y-12481000D02*
X15219000Y-12481000D01*
X15219000Y-12079000D01*
X15621000Y-12079000D01*
X15621000Y-12481000D01*
X15621000Y-12481000D01*
G37*
G36*
X14321000Y-12481000D02*
X13919000Y-12481000D01*
X13919000Y-12079000D01*
X14321000Y-12079000D01*
X14321000Y-12481000D01*
X14321000Y-12481000D01*
G37*
G36*
X11071000Y-12481000D02*
X10669000Y-12481000D01*
X10669000Y-12079000D01*
X11071000Y-12079000D01*
X11071000Y-12481000D01*
X11071000Y-12481000D01*
G37*
G36*
X10421000Y-12481000D02*
X10019000Y-12481000D01*
X10019000Y-12079000D01*
X10421000Y-12079000D01*
X10421000Y-12481000D01*
X10421000Y-12481000D01*
G37*
G36*
X9771000Y-12481000D02*
X9369000Y-12481000D01*
X9369000Y-12079000D01*
X9771000Y-12079000D01*
X9771000Y-12481000D01*
X9771000Y-12481000D01*
G37*
G36*
X6031825Y-11557081D02*
X6059546Y-11565490D01*
X6085089Y-11579143D01*
X6107481Y-11597519D01*
X6125857Y-11619911D01*
X6139510Y-11645454D01*
X6147919Y-11673175D01*
X6151000Y-11704454D01*
X6151000Y-12145546D01*
X6147919Y-12176825D01*
X6139510Y-12204546D01*
X6125857Y-12230089D01*
X6107481Y-12252481D01*
X6085089Y-12270857D01*
X6059546Y-12284510D01*
X6031825Y-12292919D01*
X6000546Y-12296000D01*
X5609454Y-12296000D01*
X5578175Y-12292919D01*
X5550454Y-12284510D01*
X5524911Y-12270857D01*
X5502519Y-12252481D01*
X5484143Y-12230089D01*
X5470490Y-12204546D01*
X5462081Y-12176825D01*
X5459000Y-12145546D01*
X5459000Y-11704454D01*
X5462081Y-11673175D01*
X5470490Y-11645454D01*
X5484143Y-11619911D01*
X5502519Y-11597519D01*
X5524911Y-11579143D01*
X5550454Y-11565490D01*
X5578175Y-11557081D01*
X5609454Y-11554000D01*
X6000546Y-11554000D01*
X6031825Y-11557081D01*
X6031825Y-11557081D01*
G37*
G36*
X7001825Y-11557081D02*
X7029546Y-11565490D01*
X7055089Y-11579143D01*
X7077481Y-11597519D01*
X7095857Y-11619911D01*
X7109510Y-11645454D01*
X7117919Y-11673175D01*
X7121000Y-11704454D01*
X7121000Y-12145546D01*
X7117919Y-12176825D01*
X7109510Y-12204546D01*
X7095857Y-12230089D01*
X7077481Y-12252481D01*
X7055089Y-12270857D01*
X7029546Y-12284510D01*
X7001825Y-12292919D01*
X6970546Y-12296000D01*
X6579454Y-12296000D01*
X6548175Y-12292919D01*
X6520454Y-12284510D01*
X6494911Y-12270857D01*
X6472519Y-12252481D01*
X6454143Y-12230089D01*
X6440490Y-12204546D01*
X6432081Y-12176825D01*
X6429000Y-12145546D01*
X6429000Y-11704454D01*
X6432081Y-11673175D01*
X6440490Y-11645454D01*
X6454143Y-11619911D01*
X6472519Y-11597519D01*
X6494911Y-11579143D01*
X6520454Y-11565490D01*
X6548175Y-11557081D01*
X6579454Y-11554000D01*
X6970546Y-11554000D01*
X7001825Y-11557081D01*
X7001825Y-11557081D01*
G37*
G36*
X8096825Y-11282081D02*
X8124546Y-11290490D01*
X8150089Y-11304143D01*
X8172481Y-11322519D01*
X8190857Y-11344911D01*
X8204510Y-11370454D01*
X8212919Y-11398175D01*
X8216000Y-11429454D01*
X8216000Y-11820546D01*
X8212919Y-11851825D01*
X8204510Y-11879546D01*
X8190857Y-11905089D01*
X8172481Y-11927481D01*
X8150089Y-11945857D01*
X8124546Y-11959510D01*
X8096825Y-11967919D01*
X8065546Y-11971000D01*
X7624454Y-11971000D01*
X7593175Y-11967919D01*
X7565454Y-11959510D01*
X7539911Y-11945857D01*
X7517519Y-11927481D01*
X7499143Y-11905089D01*
X7485490Y-11879546D01*
X7477081Y-11851825D01*
X7474000Y-11820546D01*
X7474000Y-11429454D01*
X7477081Y-11398175D01*
X7485490Y-11370454D01*
X7499143Y-11344911D01*
X7517519Y-11322519D01*
X7539911Y-11304143D01*
X7565454Y-11290490D01*
X7593175Y-11282081D01*
X7624454Y-11279000D01*
X8065546Y-11279000D01*
X8096825Y-11282081D01*
X8096825Y-11282081D01*
G37*
G36*
X10421000Y-11831000D02*
X10019000Y-11831000D01*
X10019000Y-11429000D01*
X10421000Y-11429000D01*
X10421000Y-11831000D01*
X10421000Y-11831000D01*
G37*
G36*
X15621000Y-11831000D02*
X15219000Y-11831000D01*
X15219000Y-11429000D01*
X15621000Y-11429000D01*
X15621000Y-11831000D01*
X15621000Y-11831000D01*
G37*
G36*
X9771000Y-11831000D02*
X9369000Y-11831000D01*
X9369000Y-11429000D01*
X9771000Y-11429000D01*
X9771000Y-11831000D01*
X9771000Y-11831000D01*
G37*
G36*
X14971000Y-11831000D02*
X14569000Y-11831000D01*
X14569000Y-11429000D01*
X14971000Y-11429000D01*
X14971000Y-11831000D01*
X14971000Y-11831000D01*
G37*
G36*
X21486825Y-10887081D02*
X21514546Y-10895490D01*
X21540089Y-10909143D01*
X21562481Y-10927519D01*
X21580857Y-10949911D01*
X21594510Y-10975454D01*
X21602919Y-11003175D01*
X21606000Y-11034454D01*
X21606000Y-11475546D01*
X21602919Y-11506825D01*
X21594510Y-11534546D01*
X21580857Y-11560089D01*
X21562481Y-11582481D01*
X21540089Y-11600857D01*
X21514546Y-11614510D01*
X21486825Y-11622919D01*
X21455546Y-11626000D01*
X21064454Y-11626000D01*
X21033175Y-11622919D01*
X21005454Y-11614510D01*
X20979911Y-11600857D01*
X20957519Y-11582481D01*
X20939143Y-11560089D01*
X20925490Y-11534546D01*
X20917081Y-11506825D01*
X20914000Y-11475546D01*
X20914000Y-11034454D01*
X20917081Y-11003175D01*
X20925490Y-10975454D01*
X20939143Y-10949911D01*
X20957519Y-10927519D01*
X20979911Y-10909143D01*
X21005454Y-10895490D01*
X21033175Y-10887081D01*
X21064454Y-10884000D01*
X21455546Y-10884000D01*
X21486825Y-10887081D01*
X21486825Y-10887081D01*
G37*
G36*
X22456825Y-10887081D02*
X22484546Y-10895490D01*
X22510089Y-10909143D01*
X22532481Y-10927519D01*
X22550857Y-10949911D01*
X22564510Y-10975454D01*
X22572919Y-11003175D01*
X22576000Y-11034454D01*
X22576000Y-11475546D01*
X22572919Y-11506825D01*
X22564510Y-11534546D01*
X22550857Y-11560089D01*
X22532481Y-11582481D01*
X22510089Y-11600857D01*
X22484546Y-11614510D01*
X22456825Y-11622919D01*
X22425546Y-11626000D01*
X22034454Y-11626000D01*
X22003175Y-11622919D01*
X21975454Y-11614510D01*
X21949911Y-11600857D01*
X21927519Y-11582481D01*
X21909143Y-11560089D01*
X21895490Y-11534546D01*
X21887081Y-11506825D01*
X21884000Y-11475546D01*
X21884000Y-11034454D01*
X21887081Y-11003175D01*
X21895490Y-10975454D01*
X21909143Y-10949911D01*
X21927519Y-10927519D01*
X21949911Y-10909143D01*
X21975454Y-10895490D01*
X22003175Y-10887081D01*
X22034454Y-10884000D01*
X22425546Y-10884000D01*
X22456825Y-10887081D01*
X22456825Y-10887081D01*
G37*
G36*
X18456825Y-10847081D02*
X18484546Y-10855490D01*
X18510089Y-10869143D01*
X18532481Y-10887519D01*
X18550857Y-10909911D01*
X18564510Y-10935454D01*
X18572919Y-10963175D01*
X18576000Y-10994454D01*
X18576000Y-11385546D01*
X18572919Y-11416825D01*
X18564510Y-11444546D01*
X18550857Y-11470089D01*
X18532481Y-11492481D01*
X18510089Y-11510857D01*
X18484546Y-11524510D01*
X18456825Y-11532919D01*
X18425546Y-11536000D01*
X17984454Y-11536000D01*
X17953175Y-11532919D01*
X17925454Y-11524510D01*
X17899911Y-11510857D01*
X17877519Y-11492481D01*
X17859143Y-11470089D01*
X17845490Y-11444546D01*
X17837081Y-11416825D01*
X17834000Y-11385546D01*
X17834000Y-10994454D01*
X17837081Y-10963175D01*
X17845490Y-10935454D01*
X17859143Y-10909911D01*
X17877519Y-10887519D01*
X17899911Y-10869143D01*
X17925454Y-10855490D01*
X17953175Y-10847081D01*
X17984454Y-10844000D01*
X18425546Y-10844000D01*
X18456825Y-10847081D01*
X18456825Y-10847081D01*
G37*
G36*
X19496825Y-10847081D02*
X19524546Y-10855490D01*
X19550089Y-10869143D01*
X19572481Y-10887519D01*
X19590857Y-10909911D01*
X19604510Y-10935454D01*
X19612919Y-10963175D01*
X19616000Y-10994454D01*
X19616000Y-11385546D01*
X19612919Y-11416825D01*
X19604510Y-11444546D01*
X19590857Y-11470089D01*
X19572481Y-11492481D01*
X19550089Y-11510857D01*
X19524546Y-11524510D01*
X19496825Y-11532919D01*
X19465546Y-11536000D01*
X19024454Y-11536000D01*
X18993175Y-11532919D01*
X18965454Y-11524510D01*
X18939911Y-11510857D01*
X18917519Y-11492481D01*
X18899143Y-11470089D01*
X18885490Y-11444546D01*
X18877081Y-11416825D01*
X18874000Y-11385546D01*
X18874000Y-10994454D01*
X18877081Y-10963175D01*
X18885490Y-10935454D01*
X18899143Y-10909911D01*
X18917519Y-10887519D01*
X18939911Y-10869143D01*
X18965454Y-10855490D01*
X18993175Y-10847081D01*
X19024454Y-10844000D01*
X19465546Y-10844000D01*
X19496825Y-10847081D01*
X19496825Y-10847081D01*
G37*
G36*
X17406825Y-10847081D02*
X17434546Y-10855490D01*
X17460089Y-10869143D01*
X17482481Y-10887519D01*
X17500857Y-10909911D01*
X17514510Y-10935454D01*
X17522919Y-10963175D01*
X17526000Y-10994454D01*
X17526000Y-11385546D01*
X17522919Y-11416825D01*
X17514510Y-11444546D01*
X17500857Y-11470089D01*
X17482481Y-11492481D01*
X17460089Y-11510857D01*
X17434546Y-11524510D01*
X17406825Y-11532919D01*
X17375546Y-11536000D01*
X16934454Y-11536000D01*
X16903175Y-11532919D01*
X16875454Y-11524510D01*
X16849911Y-11510857D01*
X16827519Y-11492481D01*
X16809143Y-11470089D01*
X16795490Y-11444546D01*
X16787081Y-11416825D01*
X16784000Y-11385546D01*
X16784000Y-10994454D01*
X16787081Y-10963175D01*
X16795490Y-10935454D01*
X16809143Y-10909911D01*
X16827519Y-10887519D01*
X16849911Y-10869143D01*
X16875454Y-10855490D01*
X16903175Y-10847081D01*
X16934454Y-10844000D01*
X17375546Y-10844000D01*
X17406825Y-10847081D01*
X17406825Y-10847081D01*
G37*
G36*
X14346000Y-11456000D02*
X10644000Y-11456000D01*
X10644000Y-8554000D01*
X14346000Y-8554000D01*
X14346000Y-11456000D01*
X14346000Y-11456000D01*
G37*
G36*
X7001825Y-10547081D02*
X7029546Y-10555490D01*
X7055089Y-10569143D01*
X7077481Y-10587519D01*
X7095857Y-10609911D01*
X7109510Y-10635454D01*
X7117919Y-10663175D01*
X7121000Y-10694454D01*
X7121000Y-11135546D01*
X7117919Y-11166825D01*
X7109510Y-11194546D01*
X7095857Y-11220089D01*
X7077481Y-11242481D01*
X7055089Y-11260857D01*
X7029546Y-11274510D01*
X7001825Y-11282919D01*
X6970546Y-11286000D01*
X6579454Y-11286000D01*
X6548175Y-11282919D01*
X6520454Y-11274510D01*
X6494911Y-11260857D01*
X6472519Y-11242481D01*
X6454143Y-11220089D01*
X6440490Y-11194546D01*
X6432081Y-11166825D01*
X6429000Y-11135546D01*
X6429000Y-10694454D01*
X6432081Y-10663175D01*
X6440490Y-10635454D01*
X6454143Y-10609911D01*
X6472519Y-10587519D01*
X6494911Y-10569143D01*
X6520454Y-10555490D01*
X6548175Y-10547081D01*
X6579454Y-10544000D01*
X6970546Y-10544000D01*
X7001825Y-10547081D01*
X7001825Y-10547081D01*
G37*
G36*
X6031825Y-10547081D02*
X6059546Y-10555490D01*
X6085089Y-10569143D01*
X6107481Y-10587519D01*
X6125857Y-10609911D01*
X6139510Y-10635454D01*
X6147919Y-10663175D01*
X6151000Y-10694454D01*
X6151000Y-11135546D01*
X6147919Y-11166825D01*
X6139510Y-11194546D01*
X6125857Y-11220089D01*
X6107481Y-11242481D01*
X6085089Y-11260857D01*
X6059546Y-11274510D01*
X6031825Y-11282919D01*
X6000546Y-11286000D01*
X5609454Y-11286000D01*
X5578175Y-11282919D01*
X5550454Y-11274510D01*
X5524911Y-11260857D01*
X5502519Y-11242481D01*
X5484143Y-11220089D01*
X5470490Y-11194546D01*
X5462081Y-11166825D01*
X5459000Y-11135546D01*
X5459000Y-10694454D01*
X5462081Y-10663175D01*
X5470490Y-10635454D01*
X5484143Y-10609911D01*
X5502519Y-10587519D01*
X5524911Y-10569143D01*
X5550454Y-10555490D01*
X5578175Y-10547081D01*
X5609454Y-10544000D01*
X6000546Y-10544000D01*
X6031825Y-10547081D01*
X6031825Y-10547081D01*
G37*
G36*
X9771000Y-11181000D02*
X9369000Y-11181000D01*
X9369000Y-10779000D01*
X9771000Y-10779000D01*
X9771000Y-11181000D01*
X9771000Y-11181000D01*
G37*
G36*
X10421000Y-11181000D02*
X10019000Y-11181000D01*
X10019000Y-10779000D01*
X10421000Y-10779000D01*
X10421000Y-11181000D01*
X10421000Y-11181000D01*
G37*
G36*
X14971000Y-11181000D02*
X14569000Y-11181000D01*
X14569000Y-10779000D01*
X14971000Y-10779000D01*
X14971000Y-11181000D01*
X14971000Y-11181000D01*
G37*
G36*
X15621000Y-11181000D02*
X15219000Y-11181000D01*
X15219000Y-10779000D01*
X15621000Y-10779000D01*
X15621000Y-11181000D01*
X15621000Y-11181000D01*
G37*
G36*
X21486825Y-9887081D02*
X21514546Y-9895490D01*
X21540089Y-9909143D01*
X21562481Y-9927519D01*
X21580857Y-9949911D01*
X21594510Y-9975454D01*
X21602919Y-10003175D01*
X21606000Y-10034454D01*
X21606000Y-10475546D01*
X21602919Y-10506825D01*
X21594510Y-10534546D01*
X21580857Y-10560089D01*
X21562481Y-10582481D01*
X21540089Y-10600857D01*
X21514546Y-10614510D01*
X21486825Y-10622919D01*
X21455546Y-10626000D01*
X21064454Y-10626000D01*
X21033175Y-10622919D01*
X21005454Y-10614510D01*
X20979911Y-10600857D01*
X20957519Y-10582481D01*
X20939143Y-10560089D01*
X20925490Y-10534546D01*
X20917081Y-10506825D01*
X20914000Y-10475546D01*
X20914000Y-10034454D01*
X20917081Y-10003175D01*
X20925490Y-9975454D01*
X20939143Y-9949911D01*
X20957519Y-9927519D01*
X20979911Y-9909143D01*
X21005454Y-9895490D01*
X21033175Y-9887081D01*
X21064454Y-9884000D01*
X21455546Y-9884000D01*
X21486825Y-9887081D01*
X21486825Y-9887081D01*
G37*
G36*
X22456825Y-9887081D02*
X22484546Y-9895490D01*
X22510089Y-9909143D01*
X22532481Y-9927519D01*
X22550857Y-9949911D01*
X22564510Y-9975454D01*
X22572919Y-10003175D01*
X22576000Y-10034454D01*
X22576000Y-10475546D01*
X22572919Y-10506825D01*
X22564510Y-10534546D01*
X22550857Y-10560089D01*
X22532481Y-10582481D01*
X22510089Y-10600857D01*
X22484546Y-10614510D01*
X22456825Y-10622919D01*
X22425546Y-10626000D01*
X22034454Y-10626000D01*
X22003175Y-10622919D01*
X21975454Y-10614510D01*
X21949911Y-10600857D01*
X21927519Y-10582481D01*
X21909143Y-10560089D01*
X21895490Y-10534546D01*
X21887081Y-10506825D01*
X21884000Y-10475546D01*
X21884000Y-10034454D01*
X21887081Y-10003175D01*
X21895490Y-9975454D01*
X21909143Y-9949911D01*
X21927519Y-9927519D01*
X21949911Y-9909143D01*
X21975454Y-9895490D01*
X22003175Y-9887081D01*
X22034454Y-9884000D01*
X22425546Y-9884000D01*
X22456825Y-9887081D01*
X22456825Y-9887081D01*
G37*
G36*
X15621000Y-10531000D02*
X15219000Y-10531000D01*
X15219000Y-10129000D01*
X15621000Y-10129000D01*
X15621000Y-10531000D01*
X15621000Y-10531000D01*
G37*
G36*
X10421000Y-10531000D02*
X10019000Y-10531000D01*
X10019000Y-10129000D01*
X10421000Y-10129000D01*
X10421000Y-10531000D01*
X10421000Y-10531000D01*
G37*
G36*
X9771000Y-10531000D02*
X9369000Y-10531000D01*
X9369000Y-10129000D01*
X9771000Y-10129000D01*
X9771000Y-10531000D01*
X9771000Y-10531000D01*
G37*
G36*
X14971000Y-10531000D02*
X14569000Y-10531000D01*
X14569000Y-10129000D01*
X14971000Y-10129000D01*
X14971000Y-10531000D01*
X14971000Y-10531000D01*
G37*
G36*
X6031825Y-9527081D02*
X6059546Y-9535490D01*
X6085089Y-9549143D01*
X6107481Y-9567519D01*
X6125857Y-9589911D01*
X6139510Y-9615454D01*
X6147919Y-9643175D01*
X6151000Y-9674454D01*
X6151000Y-10115546D01*
X6147919Y-10146825D01*
X6139510Y-10174546D01*
X6125857Y-10200089D01*
X6107481Y-10222481D01*
X6085089Y-10240857D01*
X6059546Y-10254510D01*
X6031825Y-10262919D01*
X6000546Y-10266000D01*
X5609454Y-10266000D01*
X5578175Y-10262919D01*
X5550454Y-10254510D01*
X5524911Y-10240857D01*
X5502519Y-10222481D01*
X5484143Y-10200089D01*
X5470490Y-10174546D01*
X5462081Y-10146825D01*
X5459000Y-10115546D01*
X5459000Y-9674454D01*
X5462081Y-9643175D01*
X5470490Y-9615454D01*
X5484143Y-9589911D01*
X5502519Y-9567519D01*
X5524911Y-9549143D01*
X5550454Y-9535490D01*
X5578175Y-9527081D01*
X5609454Y-9524000D01*
X6000546Y-9524000D01*
X6031825Y-9527081D01*
X6031825Y-9527081D01*
G37*
G36*
X7001825Y-9527081D02*
X7029546Y-9535490D01*
X7055089Y-9549143D01*
X7077481Y-9567519D01*
X7095857Y-9589911D01*
X7109510Y-9615454D01*
X7117919Y-9643175D01*
X7121000Y-9674454D01*
X7121000Y-10115546D01*
X7117919Y-10146825D01*
X7109510Y-10174546D01*
X7095857Y-10200089D01*
X7077481Y-10222481D01*
X7055089Y-10240857D01*
X7029546Y-10254510D01*
X7001825Y-10262919D01*
X6970546Y-10266000D01*
X6579454Y-10266000D01*
X6548175Y-10262919D01*
X6520454Y-10254510D01*
X6494911Y-10240857D01*
X6472519Y-10222481D01*
X6454143Y-10200089D01*
X6440490Y-10174546D01*
X6432081Y-10146825D01*
X6429000Y-10115546D01*
X6429000Y-9674454D01*
X6432081Y-9643175D01*
X6440490Y-9615454D01*
X6454143Y-9589911D01*
X6472519Y-9567519D01*
X6494911Y-9549143D01*
X6520454Y-9535490D01*
X6548175Y-9527081D01*
X6579454Y-9524000D01*
X6970546Y-9524000D01*
X7001825Y-9527081D01*
X7001825Y-9527081D01*
G37*
G36*
X10421000Y-9881000D02*
X10019000Y-9881000D01*
X10019000Y-9479000D01*
X10421000Y-9479000D01*
X10421000Y-9881000D01*
X10421000Y-9881000D01*
G37*
G36*
X14971000Y-9881000D02*
X14569000Y-9881000D01*
X14569000Y-9479000D01*
X14971000Y-9479000D01*
X14971000Y-9881000D01*
X14971000Y-9881000D01*
G37*
G36*
X15621000Y-9881000D02*
X15219000Y-9881000D01*
X15219000Y-9479000D01*
X15621000Y-9479000D01*
X15621000Y-9881000D01*
X15621000Y-9881000D01*
G37*
G36*
X9771000Y-9881000D02*
X9369000Y-9881000D01*
X9369000Y-9479000D01*
X9771000Y-9479000D01*
X9771000Y-9881000D01*
X9771000Y-9881000D01*
G37*
G36*
X21486825Y-8887081D02*
X21514546Y-8895490D01*
X21540089Y-8909143D01*
X21562481Y-8927519D01*
X21580857Y-8949911D01*
X21594510Y-8975454D01*
X21602919Y-9003175D01*
X21606000Y-9034454D01*
X21606000Y-9475546D01*
X21602919Y-9506825D01*
X21594510Y-9534546D01*
X21580857Y-9560089D01*
X21562481Y-9582481D01*
X21540089Y-9600857D01*
X21514546Y-9614510D01*
X21486825Y-9622919D01*
X21455546Y-9626000D01*
X21064454Y-9626000D01*
X21033175Y-9622919D01*
X21005454Y-9614510D01*
X20979911Y-9600857D01*
X20957519Y-9582481D01*
X20939143Y-9560089D01*
X20925490Y-9534546D01*
X20917081Y-9506825D01*
X20914000Y-9475546D01*
X20914000Y-9034454D01*
X20917081Y-9003175D01*
X20925490Y-8975454D01*
X20939143Y-8949911D01*
X20957519Y-8927519D01*
X20979911Y-8909143D01*
X21005454Y-8895490D01*
X21033175Y-8887081D01*
X21064454Y-8884000D01*
X21455546Y-8884000D01*
X21486825Y-8887081D01*
X21486825Y-8887081D01*
G37*
G36*
X22456825Y-8887081D02*
X22484546Y-8895490D01*
X22510089Y-8909143D01*
X22532481Y-8927519D01*
X22550857Y-8949911D01*
X22564510Y-8975454D01*
X22572919Y-9003175D01*
X22576000Y-9034454D01*
X22576000Y-9475546D01*
X22572919Y-9506825D01*
X22564510Y-9534546D01*
X22550857Y-9560089D01*
X22532481Y-9582481D01*
X22510089Y-9600857D01*
X22484546Y-9614510D01*
X22456825Y-9622919D01*
X22425546Y-9626000D01*
X22034454Y-9626000D01*
X22003175Y-9622919D01*
X21975454Y-9614510D01*
X21949911Y-9600857D01*
X21927519Y-9582481D01*
X21909143Y-9560089D01*
X21895490Y-9534546D01*
X21887081Y-9506825D01*
X21884000Y-9475546D01*
X21884000Y-9034454D01*
X21887081Y-9003175D01*
X21895490Y-8975454D01*
X21909143Y-8949911D01*
X21927519Y-8927519D01*
X21949911Y-8909143D01*
X21975454Y-8895490D01*
X22003175Y-8887081D01*
X22034454Y-8884000D01*
X22425546Y-8884000D01*
X22456825Y-8887081D01*
X22456825Y-8887081D01*
G37*
G36*
X15621000Y-9231000D02*
X15219000Y-9231000D01*
X15219000Y-8829000D01*
X15621000Y-8829000D01*
X15621000Y-9231000D01*
X15621000Y-9231000D01*
G37*
G36*
X14971000Y-9231000D02*
X14569000Y-9231000D01*
X14569000Y-8829000D01*
X14971000Y-8829000D01*
X14971000Y-9231000D01*
X14971000Y-9231000D01*
G37*
G36*
X10421000Y-9231000D02*
X10019000Y-9231000D01*
X10019000Y-8829000D01*
X10421000Y-8829000D01*
X10421000Y-9231000D01*
X10421000Y-9231000D01*
G37*
G36*
X9771000Y-9231000D02*
X9369000Y-9231000D01*
X9369000Y-8829000D01*
X9771000Y-8829000D01*
X9771000Y-9231000D01*
X9771000Y-9231000D01*
G37*
G36*
X7956825Y-8292081D02*
X7984546Y-8300490D01*
X8010089Y-8314143D01*
X8032481Y-8332519D01*
X8050857Y-8354911D01*
X8064510Y-8380454D01*
X8072919Y-8408175D01*
X8076000Y-8439454D01*
X8076000Y-8880546D01*
X8072919Y-8911825D01*
X8064510Y-8939546D01*
X8050857Y-8965089D01*
X8032481Y-8987481D01*
X8010089Y-9005857D01*
X7984546Y-9019510D01*
X7956825Y-9027919D01*
X7925546Y-9031000D01*
X7534454Y-9031000D01*
X7503175Y-9027919D01*
X7475454Y-9019510D01*
X7449911Y-9005857D01*
X7427519Y-8987481D01*
X7409143Y-8965089D01*
X7395490Y-8939546D01*
X7387081Y-8911825D01*
X7384000Y-8880546D01*
X7384000Y-8439454D01*
X7387081Y-8408175D01*
X7395490Y-8380454D01*
X7409143Y-8354911D01*
X7427519Y-8332519D01*
X7449911Y-8314143D01*
X7475454Y-8300490D01*
X7503175Y-8292081D01*
X7534454Y-8289000D01*
X7925546Y-8289000D01*
X7956825Y-8292081D01*
X7956825Y-8292081D01*
G37*
G36*
X6986825Y-8292081D02*
X7014546Y-8300490D01*
X7040089Y-8314143D01*
X7062481Y-8332519D01*
X7080857Y-8354911D01*
X7094510Y-8380454D01*
X7102919Y-8408175D01*
X7106000Y-8439454D01*
X7106000Y-8880546D01*
X7102919Y-8911825D01*
X7094510Y-8939546D01*
X7080857Y-8965089D01*
X7062481Y-8987481D01*
X7040089Y-9005857D01*
X7014546Y-9019510D01*
X6986825Y-9027919D01*
X6955546Y-9031000D01*
X6564454Y-9031000D01*
X6533175Y-9027919D01*
X6505454Y-9019510D01*
X6479911Y-9005857D01*
X6457519Y-8987481D01*
X6439143Y-8965089D01*
X6425490Y-8939546D01*
X6417081Y-8911825D01*
X6414000Y-8880546D01*
X6414000Y-8439454D01*
X6417081Y-8408175D01*
X6425490Y-8380454D01*
X6439143Y-8354911D01*
X6457519Y-8332519D01*
X6479911Y-8314143D01*
X6505454Y-8300490D01*
X6533175Y-8292081D01*
X6564454Y-8289000D01*
X6955546Y-8289000D01*
X6986825Y-8292081D01*
X6986825Y-8292081D01*
G37*
G36*
X21486825Y-7887081D02*
X21514546Y-7895490D01*
X21540089Y-7909143D01*
X21562481Y-7927519D01*
X21580857Y-7949911D01*
X21594510Y-7975454D01*
X21602919Y-8003175D01*
X21606000Y-8034454D01*
X21606000Y-8475546D01*
X21602919Y-8506825D01*
X21594510Y-8534546D01*
X21580857Y-8560089D01*
X21562481Y-8582481D01*
X21540089Y-8600857D01*
X21514546Y-8614510D01*
X21486825Y-8622919D01*
X21455546Y-8626000D01*
X21064454Y-8626000D01*
X21033175Y-8622919D01*
X21005454Y-8614510D01*
X20979911Y-8600857D01*
X20957519Y-8582481D01*
X20939143Y-8560089D01*
X20925490Y-8534546D01*
X20917081Y-8506825D01*
X20914000Y-8475546D01*
X20914000Y-8034454D01*
X20917081Y-8003175D01*
X20925490Y-7975454D01*
X20939143Y-7949911D01*
X20957519Y-7927519D01*
X20979911Y-7909143D01*
X21005454Y-7895490D01*
X21033175Y-7887081D01*
X21064454Y-7884000D01*
X21455546Y-7884000D01*
X21486825Y-7887081D01*
X21486825Y-7887081D01*
G37*
G36*
X22456825Y-7887081D02*
X22484546Y-7895490D01*
X22510089Y-7909143D01*
X22532481Y-7927519D01*
X22550857Y-7949911D01*
X22564510Y-7975454D01*
X22572919Y-8003175D01*
X22576000Y-8034454D01*
X22576000Y-8475546D01*
X22572919Y-8506825D01*
X22564510Y-8534546D01*
X22550857Y-8560089D01*
X22532481Y-8582481D01*
X22510089Y-8600857D01*
X22484546Y-8614510D01*
X22456825Y-8622919D01*
X22425546Y-8626000D01*
X22034454Y-8626000D01*
X22003175Y-8622919D01*
X21975454Y-8614510D01*
X21949911Y-8600857D01*
X21927519Y-8582481D01*
X21909143Y-8560089D01*
X21895490Y-8534546D01*
X21887081Y-8506825D01*
X21884000Y-8475546D01*
X21884000Y-8034454D01*
X21887081Y-8003175D01*
X21895490Y-7975454D01*
X21909143Y-7949911D01*
X21927519Y-7927519D01*
X21949911Y-7909143D01*
X21975454Y-7895490D01*
X22003175Y-7887081D01*
X22034454Y-7884000D01*
X22425546Y-7884000D01*
X22456825Y-7887081D01*
X22456825Y-7887081D01*
G37*
G36*
X9771000Y-8581000D02*
X9369000Y-8581000D01*
X9369000Y-8179000D01*
X9771000Y-8179000D01*
X9771000Y-8581000D01*
X9771000Y-8581000D01*
G37*
G36*
X10421000Y-8581000D02*
X10019000Y-8581000D01*
X10019000Y-8179000D01*
X10421000Y-8179000D01*
X10421000Y-8581000D01*
X10421000Y-8581000D01*
G37*
G36*
X14971000Y-8581000D02*
X14569000Y-8581000D01*
X14569000Y-8179000D01*
X14971000Y-8179000D01*
X14971000Y-8581000D01*
X14971000Y-8581000D01*
G37*
G36*
X15621000Y-8581000D02*
X15219000Y-8581000D01*
X15219000Y-8179000D01*
X15621000Y-8179000D01*
X15621000Y-8581000D01*
X15621000Y-8581000D01*
G37*
G36*
X4005719Y-7405174D02*
X4005722Y-7405175D01*
X4005721Y-7405175D01*
X4105996Y-7446710D01*
X4196242Y-7507010D01*
X4272990Y-7583758D01*
X4333290Y-7674004D01*
X4333290Y-7674005D01*
X4374826Y-7774281D01*
X4396000Y-7880730D01*
X4396000Y-7989270D01*
X4374826Y-8095719D01*
X4374825Y-8095721D01*
X4333290Y-8195996D01*
X4272990Y-8286242D01*
X4196242Y-8362990D01*
X4105996Y-8423290D01*
X4066972Y-8439454D01*
X4005719Y-8464826D01*
X3899270Y-8486000D01*
X3790730Y-8486000D01*
X3684281Y-8464826D01*
X3623028Y-8439454D01*
X3584004Y-8423290D01*
X3493758Y-8362990D01*
X3417010Y-8286242D01*
X3356710Y-8195996D01*
X3315175Y-8095721D01*
X3315174Y-8095719D01*
X3294000Y-7989270D01*
X3294000Y-7880730D01*
X3315174Y-7774281D01*
X3356710Y-7674005D01*
X3356710Y-7674004D01*
X3417010Y-7583758D01*
X3493758Y-7507010D01*
X3584004Y-7446710D01*
X3684279Y-7405175D01*
X3684278Y-7405175D01*
X3684281Y-7405174D01*
X3790730Y-7384000D01*
X3899270Y-7384000D01*
X4005719Y-7405174D01*
X4005719Y-7405174D01*
G37*
G36*
X7996825Y-7352081D02*
X8024546Y-7360490D01*
X8050089Y-7374143D01*
X8072481Y-7392519D01*
X8090857Y-7414911D01*
X8104510Y-7440454D01*
X8112919Y-7468175D01*
X8116000Y-7499454D01*
X8116000Y-7890546D01*
X8112919Y-7921825D01*
X8104510Y-7949546D01*
X8090857Y-7975089D01*
X8072481Y-7997481D01*
X8050089Y-8015857D01*
X8024546Y-8029510D01*
X7996825Y-8037919D01*
X7965546Y-8041000D01*
X7524454Y-8041000D01*
X7493175Y-8037919D01*
X7465454Y-8029510D01*
X7439911Y-8015857D01*
X7417519Y-7997481D01*
X7399143Y-7975089D01*
X7385490Y-7949546D01*
X7377081Y-7921825D01*
X7374000Y-7890546D01*
X7374000Y-7499454D01*
X7377081Y-7468175D01*
X7385490Y-7440454D01*
X7399143Y-7414911D01*
X7417519Y-7392519D01*
X7439911Y-7374143D01*
X7465454Y-7360490D01*
X7493175Y-7352081D01*
X7524454Y-7349000D01*
X7965546Y-7349000D01*
X7996825Y-7352081D01*
X7996825Y-7352081D01*
G37*
G36*
X6946825Y-7352081D02*
X6974546Y-7360490D01*
X7000089Y-7374143D01*
X7022481Y-7392519D01*
X7040857Y-7414911D01*
X7054510Y-7440454D01*
X7062919Y-7468175D01*
X7066000Y-7499454D01*
X7066000Y-7890546D01*
X7062919Y-7921825D01*
X7054510Y-7949546D01*
X7040857Y-7975089D01*
X7022481Y-7997481D01*
X7000089Y-8015857D01*
X6974546Y-8029510D01*
X6946825Y-8037919D01*
X6915546Y-8041000D01*
X6474454Y-8041000D01*
X6443175Y-8037919D01*
X6415454Y-8029510D01*
X6389911Y-8015857D01*
X6367519Y-7997481D01*
X6349143Y-7975089D01*
X6335490Y-7949546D01*
X6327081Y-7921825D01*
X6324000Y-7890546D01*
X6324000Y-7499454D01*
X6327081Y-7468175D01*
X6335490Y-7440454D01*
X6349143Y-7414911D01*
X6367519Y-7392519D01*
X6389911Y-7374143D01*
X6415454Y-7360490D01*
X6443175Y-7352081D01*
X6474454Y-7349000D01*
X6915546Y-7349000D01*
X6946825Y-7352081D01*
X6946825Y-7352081D01*
G37*
G36*
X5946825Y-7352081D02*
X5974546Y-7360490D01*
X6000089Y-7374143D01*
X6022481Y-7392519D01*
X6040857Y-7414911D01*
X6054510Y-7440454D01*
X6062919Y-7468175D01*
X6066000Y-7499454D01*
X6066000Y-7890546D01*
X6062919Y-7921825D01*
X6054510Y-7949546D01*
X6040857Y-7975089D01*
X6022481Y-7997481D01*
X6000089Y-8015857D01*
X5974546Y-8029510D01*
X5946825Y-8037919D01*
X5915546Y-8041000D01*
X5474454Y-8041000D01*
X5443175Y-8037919D01*
X5415454Y-8029510D01*
X5389911Y-8015857D01*
X5367519Y-7997481D01*
X5349143Y-7975089D01*
X5335490Y-7949546D01*
X5327081Y-7921825D01*
X5324000Y-7890546D01*
X5324000Y-7499454D01*
X5327081Y-7468175D01*
X5335490Y-7440454D01*
X5349143Y-7414911D01*
X5367519Y-7392519D01*
X5389911Y-7374143D01*
X5415454Y-7360490D01*
X5443175Y-7352081D01*
X5474454Y-7349000D01*
X5915546Y-7349000D01*
X5946825Y-7352081D01*
X5946825Y-7352081D01*
G37*
G36*
X9771000Y-7931000D02*
X9369000Y-7931000D01*
X9369000Y-7529000D01*
X9771000Y-7529000D01*
X9771000Y-7931000D01*
X9771000Y-7931000D01*
G37*
G36*
X10421000Y-7931000D02*
X10019000Y-7931000D01*
X10019000Y-7529000D01*
X10421000Y-7529000D01*
X10421000Y-7931000D01*
X10421000Y-7931000D01*
G37*
G36*
X11071000Y-7931000D02*
X10669000Y-7931000D01*
X10669000Y-7529000D01*
X11071000Y-7529000D01*
X11071000Y-7931000D01*
X11071000Y-7931000D01*
G37*
G36*
X14321000Y-7931000D02*
X13919000Y-7931000D01*
X13919000Y-7529000D01*
X14321000Y-7529000D01*
X14321000Y-7931000D01*
X14321000Y-7931000D01*
G37*
G36*
X14971000Y-7931000D02*
X14569000Y-7931000D01*
X14569000Y-7529000D01*
X14971000Y-7529000D01*
X14971000Y-7931000D01*
X14971000Y-7931000D01*
G37*
G36*
X15621000Y-7931000D02*
X15219000Y-7931000D01*
X15219000Y-7529000D01*
X15621000Y-7529000D01*
X15621000Y-7931000D01*
X15621000Y-7931000D01*
G37*
G36*
X21486825Y-6887081D02*
X21514546Y-6895490D01*
X21540089Y-6909143D01*
X21562481Y-6927519D01*
X21580857Y-6949911D01*
X21594510Y-6975454D01*
X21602919Y-7003175D01*
X21606000Y-7034454D01*
X21606000Y-7475546D01*
X21602919Y-7506825D01*
X21594510Y-7534546D01*
X21580857Y-7560089D01*
X21562481Y-7582481D01*
X21540089Y-7600857D01*
X21514546Y-7614510D01*
X21486825Y-7622919D01*
X21455546Y-7626000D01*
X21064454Y-7626000D01*
X21033175Y-7622919D01*
X21005454Y-7614510D01*
X20979911Y-7600857D01*
X20957519Y-7582481D01*
X20939143Y-7560089D01*
X20925490Y-7534546D01*
X20917081Y-7506825D01*
X20914000Y-7475546D01*
X20914000Y-7034454D01*
X20917081Y-7003175D01*
X20925490Y-6975454D01*
X20939143Y-6949911D01*
X20957519Y-6927519D01*
X20979911Y-6909143D01*
X21005454Y-6895490D01*
X21033175Y-6887081D01*
X21064454Y-6884000D01*
X21455546Y-6884000D01*
X21486825Y-6887081D01*
X21486825Y-6887081D01*
G37*
G36*
X22456825Y-6887081D02*
X22484546Y-6895490D01*
X22510089Y-6909143D01*
X22532481Y-6927519D01*
X22550857Y-6949911D01*
X22564510Y-6975454D01*
X22572919Y-7003175D01*
X22576000Y-7034454D01*
X22576000Y-7475546D01*
X22572919Y-7506825D01*
X22564510Y-7534546D01*
X22550857Y-7560089D01*
X22532481Y-7582481D01*
X22510089Y-7600857D01*
X22484546Y-7614510D01*
X22456825Y-7622919D01*
X22425546Y-7626000D01*
X22034454Y-7626000D01*
X22003175Y-7622919D01*
X21975454Y-7614510D01*
X21949911Y-7600857D01*
X21927519Y-7582481D01*
X21909143Y-7560089D01*
X21895490Y-7534546D01*
X21887081Y-7506825D01*
X21884000Y-7475546D01*
X21884000Y-7034454D01*
X21887081Y-7003175D01*
X21895490Y-6975454D01*
X21909143Y-6949911D01*
X21927519Y-6927519D01*
X21949911Y-6909143D01*
X21975454Y-6895490D01*
X22003175Y-6887081D01*
X22034454Y-6884000D01*
X22425546Y-6884000D01*
X22456825Y-6887081D01*
X22456825Y-6887081D01*
G37*
G36*
X12371000Y-7281000D02*
X11969000Y-7281000D01*
X11969000Y-6879000D01*
X12371000Y-6879000D01*
X12371000Y-7281000D01*
X12371000Y-7281000D01*
G37*
G36*
X9771000Y-7281000D02*
X9369000Y-7281000D01*
X9369000Y-6879000D01*
X9771000Y-6879000D01*
X9771000Y-7281000D01*
X9771000Y-7281000D01*
G37*
G36*
X10421000Y-7281000D02*
X10019000Y-7281000D01*
X10019000Y-6879000D01*
X10421000Y-6879000D01*
X10421000Y-7281000D01*
X10421000Y-7281000D01*
G37*
G36*
X11071000Y-7281000D02*
X10669000Y-7281000D01*
X10669000Y-6879000D01*
X11071000Y-6879000D01*
X11071000Y-7281000D01*
X11071000Y-7281000D01*
G37*
G36*
X15621000Y-7281000D02*
X15219000Y-7281000D01*
X15219000Y-6879000D01*
X15621000Y-6879000D01*
X15621000Y-7281000D01*
X15621000Y-7281000D01*
G37*
G36*
X14321000Y-7281000D02*
X13919000Y-7281000D01*
X13919000Y-6879000D01*
X14321000Y-6879000D01*
X14321000Y-7281000D01*
X14321000Y-7281000D01*
G37*
G36*
X14971000Y-7281000D02*
X14569000Y-7281000D01*
X14569000Y-6879000D01*
X14971000Y-6879000D01*
X14971000Y-7281000D01*
X14971000Y-7281000D01*
G37*
G36*
X13671000Y-7281000D02*
X13269000Y-7281000D01*
X13269000Y-6879000D01*
X13671000Y-6879000D01*
X13671000Y-7281000D01*
X13671000Y-7281000D01*
G37*
G36*
X13021000Y-7281000D02*
X12619000Y-7281000D01*
X12619000Y-6879000D01*
X13021000Y-6879000D01*
X13021000Y-7281000D01*
X13021000Y-7281000D01*
G37*
G36*
X11721000Y-7281000D02*
X11319000Y-7281000D01*
X11319000Y-6879000D01*
X11721000Y-6879000D01*
X11721000Y-7281000D01*
X11721000Y-7281000D01*
G37*
G36*
X6946825Y-6382081D02*
X6974546Y-6390490D01*
X7000089Y-6404143D01*
X7022481Y-6422519D01*
X7040857Y-6444911D01*
X7054510Y-6470454D01*
X7062919Y-6498175D01*
X7066000Y-6529454D01*
X7066000Y-6920546D01*
X7062919Y-6951825D01*
X7054510Y-6979546D01*
X7040857Y-7005089D01*
X7022481Y-7027481D01*
X7000089Y-7045857D01*
X6974546Y-7059510D01*
X6946825Y-7067919D01*
X6915546Y-7071000D01*
X6474454Y-7071000D01*
X6443175Y-7067919D01*
X6415454Y-7059510D01*
X6389911Y-7045857D01*
X6367519Y-7027481D01*
X6349143Y-7005089D01*
X6335490Y-6979546D01*
X6327081Y-6951825D01*
X6324000Y-6920546D01*
X6324000Y-6529454D01*
X6327081Y-6498175D01*
X6335490Y-6470454D01*
X6349143Y-6444911D01*
X6367519Y-6422519D01*
X6389911Y-6404143D01*
X6415454Y-6390490D01*
X6443175Y-6382081D01*
X6474454Y-6379000D01*
X6915546Y-6379000D01*
X6946825Y-6382081D01*
X6946825Y-6382081D01*
G37*
G36*
X7996825Y-6382081D02*
X8024546Y-6390490D01*
X8050089Y-6404143D01*
X8072481Y-6422519D01*
X8090857Y-6444911D01*
X8104510Y-6470454D01*
X8112919Y-6498175D01*
X8116000Y-6529454D01*
X8116000Y-6920546D01*
X8112919Y-6951825D01*
X8104510Y-6979546D01*
X8090857Y-7005089D01*
X8072481Y-7027481D01*
X8050089Y-7045857D01*
X8024546Y-7059510D01*
X7996825Y-7067919D01*
X7965546Y-7071000D01*
X7524454Y-7071000D01*
X7493175Y-7067919D01*
X7465454Y-7059510D01*
X7439911Y-7045857D01*
X7417519Y-7027481D01*
X7399143Y-7005089D01*
X7385490Y-6979546D01*
X7377081Y-6951825D01*
X7374000Y-6920546D01*
X7374000Y-6529454D01*
X7377081Y-6498175D01*
X7385490Y-6470454D01*
X7399143Y-6444911D01*
X7417519Y-6422519D01*
X7439911Y-6404143D01*
X7465454Y-6390490D01*
X7493175Y-6382081D01*
X7524454Y-6379000D01*
X7965546Y-6379000D01*
X7996825Y-6382081D01*
X7996825Y-6382081D01*
G37*
G36*
X5946825Y-6382081D02*
X5974546Y-6390490D01*
X6000089Y-6404143D01*
X6022481Y-6422519D01*
X6040857Y-6444911D01*
X6054510Y-6470454D01*
X6062919Y-6498175D01*
X6066000Y-6529454D01*
X6066000Y-6920546D01*
X6062919Y-6951825D01*
X6054510Y-6979546D01*
X6040857Y-7005089D01*
X6022481Y-7027481D01*
X6000089Y-7045857D01*
X5974546Y-7059510D01*
X5946825Y-7067919D01*
X5915546Y-7071000D01*
X5474454Y-7071000D01*
X5443175Y-7067919D01*
X5415454Y-7059510D01*
X5389911Y-7045857D01*
X5367519Y-7027481D01*
X5349143Y-7005089D01*
X5335490Y-6979546D01*
X5327081Y-6951825D01*
X5324000Y-6920546D01*
X5324000Y-6529454D01*
X5327081Y-6498175D01*
X5335490Y-6470454D01*
X5349143Y-6444911D01*
X5367519Y-6422519D01*
X5389911Y-6404143D01*
X5415454Y-6390490D01*
X5443175Y-6382081D01*
X5474454Y-6379000D01*
X5915546Y-6379000D01*
X5946825Y-6382081D01*
X5946825Y-6382081D01*
G37*
G36*
X13671000Y-6631000D02*
X13269000Y-6631000D01*
X13269000Y-6229000D01*
X13671000Y-6229000D01*
X13671000Y-6631000D01*
X13671000Y-6631000D01*
G37*
G36*
X14971000Y-6631000D02*
X14569000Y-6631000D01*
X14569000Y-6229000D01*
X14971000Y-6229000D01*
X14971000Y-6631000D01*
X14971000Y-6631000D01*
G37*
G36*
X11071000Y-6631000D02*
X10669000Y-6631000D01*
X10669000Y-6229000D01*
X11071000Y-6229000D01*
X11071000Y-6631000D01*
X11071000Y-6631000D01*
G37*
G36*
X15621000Y-6631000D02*
X15219000Y-6631000D01*
X15219000Y-6229000D01*
X15621000Y-6229000D01*
X15621000Y-6631000D01*
X15621000Y-6631000D01*
G37*
G36*
X12371000Y-6631000D02*
X11969000Y-6631000D01*
X11969000Y-6229000D01*
X12371000Y-6229000D01*
X12371000Y-6631000D01*
X12371000Y-6631000D01*
G37*
G36*
X9771000Y-6631000D02*
X9369000Y-6631000D01*
X9369000Y-6229000D01*
X9771000Y-6229000D01*
X9771000Y-6631000D01*
X9771000Y-6631000D01*
G37*
G36*
X11721000Y-6631000D02*
X11319000Y-6631000D01*
X11319000Y-6229000D01*
X11721000Y-6229000D01*
X11721000Y-6631000D01*
X11721000Y-6631000D01*
G37*
G36*
X10421000Y-6631000D02*
X10019000Y-6631000D01*
X10019000Y-6229000D01*
X10421000Y-6229000D01*
X10421000Y-6631000D01*
X10421000Y-6631000D01*
G37*
G36*
X13021000Y-6631000D02*
X12619000Y-6631000D01*
X12619000Y-6229000D01*
X13021000Y-6229000D01*
X13021000Y-6631000D01*
X13021000Y-6631000D01*
G37*
G36*
X14321000Y-6631000D02*
X13919000Y-6631000D01*
X13919000Y-6229000D01*
X14321000Y-6229000D01*
X14321000Y-6631000D01*
X14321000Y-6631000D01*
G37*
G36*
X22456825Y-5887081D02*
X22484546Y-5895490D01*
X22510089Y-5909143D01*
X22532481Y-5927519D01*
X22550857Y-5949911D01*
X22564510Y-5975454D01*
X22572919Y-6003175D01*
X22576000Y-6034454D01*
X22576000Y-6475546D01*
X22572919Y-6506825D01*
X22564510Y-6534546D01*
X22550857Y-6560089D01*
X22532481Y-6582481D01*
X22510089Y-6600857D01*
X22484546Y-6614510D01*
X22456825Y-6622919D01*
X22425546Y-6626000D01*
X22034454Y-6626000D01*
X22003175Y-6622919D01*
X21975454Y-6614510D01*
X21949911Y-6600857D01*
X21927519Y-6582481D01*
X21909143Y-6560089D01*
X21895490Y-6534546D01*
X21887081Y-6506825D01*
X21884000Y-6475546D01*
X21884000Y-6034454D01*
X21887081Y-6003175D01*
X21895490Y-5975454D01*
X21909143Y-5949911D01*
X21927519Y-5927519D01*
X21949911Y-5909143D01*
X21975454Y-5895490D01*
X22003175Y-5887081D01*
X22034454Y-5884000D01*
X22425546Y-5884000D01*
X22456825Y-5887081D01*
X22456825Y-5887081D01*
G37*
G36*
X21486825Y-5887081D02*
X21514546Y-5895490D01*
X21540089Y-5909143D01*
X21562481Y-5927519D01*
X21580857Y-5949911D01*
X21594510Y-5975454D01*
X21602919Y-6003175D01*
X21606000Y-6034454D01*
X21606000Y-6475546D01*
X21602919Y-6506825D01*
X21594510Y-6534546D01*
X21580857Y-6560089D01*
X21562481Y-6582481D01*
X21540089Y-6600857D01*
X21514546Y-6614510D01*
X21486825Y-6622919D01*
X21455546Y-6626000D01*
X21064454Y-6626000D01*
X21033175Y-6622919D01*
X21005454Y-6614510D01*
X20979911Y-6600857D01*
X20957519Y-6582481D01*
X20939143Y-6560089D01*
X20925490Y-6534546D01*
X20917081Y-6506825D01*
X20914000Y-6475546D01*
X20914000Y-6034454D01*
X20917081Y-6003175D01*
X20925490Y-5975454D01*
X20939143Y-5949911D01*
X20957519Y-5927519D01*
X20979911Y-5909143D01*
X21005454Y-5895490D01*
X21033175Y-5887081D01*
X21064454Y-5884000D01*
X21455546Y-5884000D01*
X21486825Y-5887081D01*
X21486825Y-5887081D01*
G37*
G36*
X13671000Y-5981000D02*
X13269000Y-5981000D01*
X13269000Y-5579000D01*
X13671000Y-5579000D01*
X13671000Y-5981000D01*
X13671000Y-5981000D01*
G37*
G36*
X10421000Y-5981000D02*
X10019000Y-5981000D01*
X10019000Y-5579000D01*
X10421000Y-5579000D01*
X10421000Y-5981000D01*
X10421000Y-5981000D01*
G37*
G36*
X14971000Y-5981000D02*
X14569000Y-5981000D01*
X14569000Y-5579000D01*
X14971000Y-5579000D01*
X14971000Y-5981000D01*
X14971000Y-5981000D01*
G37*
G36*
X9771000Y-5981000D02*
X9369000Y-5981000D01*
X9369000Y-5579000D01*
X9771000Y-5579000D01*
X9771000Y-5981000D01*
X9771000Y-5981000D01*
G37*
G36*
X11721000Y-5981000D02*
X11319000Y-5981000D01*
X11319000Y-5579000D01*
X11721000Y-5579000D01*
X11721000Y-5981000D01*
X11721000Y-5981000D01*
G37*
G36*
X12371000Y-5981000D02*
X11969000Y-5981000D01*
X11969000Y-5579000D01*
X12371000Y-5579000D01*
X12371000Y-5981000D01*
X12371000Y-5981000D01*
G37*
G36*
X11071000Y-5981000D02*
X10669000Y-5981000D01*
X10669000Y-5579000D01*
X11071000Y-5579000D01*
X11071000Y-5981000D01*
X11071000Y-5981000D01*
G37*
G36*
X15621000Y-5981000D02*
X15219000Y-5981000D01*
X15219000Y-5579000D01*
X15621000Y-5579000D01*
X15621000Y-5981000D01*
X15621000Y-5981000D01*
G37*
G36*
X14321000Y-5981000D02*
X13919000Y-5981000D01*
X13919000Y-5579000D01*
X14321000Y-5579000D01*
X14321000Y-5981000D01*
X14321000Y-5981000D01*
G37*
G36*
X13021000Y-5981000D02*
X12619000Y-5981000D01*
X12619000Y-5579000D01*
X13021000Y-5579000D01*
X13021000Y-5981000D01*
X13021000Y-5981000D01*
G37*
G36*
X3395719Y-4555974D02*
X3395722Y-4555975D01*
X3395721Y-4555975D01*
X3495996Y-4597510D01*
X3586242Y-4657810D01*
X3662990Y-4734558D01*
X3723290Y-4824804D01*
X3723290Y-4824805D01*
X3764826Y-4925081D01*
X3786000Y-5031530D01*
X3786000Y-5140070D01*
X3764826Y-5246519D01*
X3764825Y-5246521D01*
X3723290Y-5346796D01*
X3662990Y-5437042D01*
X3586242Y-5513790D01*
X3495996Y-5574090D01*
X3431374Y-5600857D01*
X3395719Y-5615626D01*
X3289270Y-5636800D01*
X3180730Y-5636800D01*
X3074281Y-5615626D01*
X3038626Y-5600857D01*
X2974004Y-5574090D01*
X2883758Y-5513790D01*
X2807010Y-5437042D01*
X2746710Y-5346796D01*
X2705175Y-5246521D01*
X2705174Y-5246519D01*
X2684000Y-5140070D01*
X2684000Y-5031530D01*
X2705174Y-4925081D01*
X2746710Y-4824805D01*
X2746710Y-4824804D01*
X2807010Y-4734558D01*
X2883758Y-4657810D01*
X2974004Y-4597510D01*
X3074279Y-4555975D01*
X3074278Y-4555975D01*
X3074281Y-4555974D01*
X3180730Y-4534800D01*
X3289270Y-4534800D01*
X3395719Y-4555974D01*
X3395719Y-4555974D01*
G37*
G36*
X22456825Y-4887081D02*
X22484546Y-4895490D01*
X22510089Y-4909143D01*
X22532481Y-4927519D01*
X22550857Y-4949911D01*
X22564510Y-4975454D01*
X22572919Y-5003175D01*
X22576000Y-5034454D01*
X22576000Y-5475546D01*
X22572919Y-5506825D01*
X22564510Y-5534546D01*
X22550857Y-5560089D01*
X22532481Y-5582481D01*
X22510089Y-5600857D01*
X22484546Y-5614510D01*
X22456825Y-5622919D01*
X22425546Y-5626000D01*
X22034454Y-5626000D01*
X22003175Y-5622919D01*
X21975454Y-5614510D01*
X21949911Y-5600857D01*
X21927519Y-5582481D01*
X21909143Y-5560089D01*
X21895490Y-5534546D01*
X21887081Y-5506825D01*
X21884000Y-5475546D01*
X21884000Y-5034454D01*
X21887081Y-5003175D01*
X21895490Y-4975454D01*
X21909143Y-4949911D01*
X21927519Y-4927519D01*
X21949911Y-4909143D01*
X21975454Y-4895490D01*
X22003175Y-4887081D01*
X22034454Y-4884000D01*
X22425546Y-4884000D01*
X22456825Y-4887081D01*
X22456825Y-4887081D01*
G37*
G36*
X21486825Y-4887081D02*
X21514546Y-4895490D01*
X21540089Y-4909143D01*
X21562481Y-4927519D01*
X21580857Y-4949911D01*
X21594510Y-4975454D01*
X21602919Y-5003175D01*
X21606000Y-5034454D01*
X21606000Y-5475546D01*
X21602919Y-5506825D01*
X21594510Y-5534546D01*
X21580857Y-5560089D01*
X21562481Y-5582481D01*
X21540089Y-5600857D01*
X21514546Y-5614510D01*
X21486825Y-5622919D01*
X21455546Y-5626000D01*
X21064454Y-5626000D01*
X21033175Y-5622919D01*
X21005454Y-5614510D01*
X20979911Y-5600857D01*
X20957519Y-5582481D01*
X20939143Y-5560089D01*
X20925490Y-5534546D01*
X20917081Y-5506825D01*
X20914000Y-5475546D01*
X20914000Y-5034454D01*
X20917081Y-5003175D01*
X20925490Y-4975454D01*
X20939143Y-4949911D01*
X20957519Y-4927519D01*
X20979911Y-4909143D01*
X21005454Y-4895490D01*
X21033175Y-4887081D01*
X21064454Y-4884000D01*
X21455546Y-4884000D01*
X21486825Y-4887081D01*
X21486825Y-4887081D01*
G37*
G36*
X22456825Y-3887081D02*
X22484546Y-3895490D01*
X22510089Y-3909143D01*
X22532481Y-3927519D01*
X22550857Y-3949911D01*
X22564510Y-3975454D01*
X22572919Y-4003175D01*
X22576000Y-4034454D01*
X22576000Y-4475546D01*
X22572919Y-4506825D01*
X22564510Y-4534546D01*
X22550857Y-4560089D01*
X22532481Y-4582481D01*
X22510089Y-4600857D01*
X22484546Y-4614510D01*
X22456825Y-4622919D01*
X22425546Y-4626000D01*
X22034454Y-4626000D01*
X22003175Y-4622919D01*
X21975454Y-4614510D01*
X21949911Y-4600857D01*
X21927519Y-4582481D01*
X21909143Y-4560089D01*
X21895490Y-4534546D01*
X21887081Y-4506825D01*
X21884000Y-4475546D01*
X21884000Y-4034454D01*
X21887081Y-4003175D01*
X21895490Y-3975454D01*
X21909143Y-3949911D01*
X21927519Y-3927519D01*
X21949911Y-3909143D01*
X21975454Y-3895490D01*
X22003175Y-3887081D01*
X22034454Y-3884000D01*
X22425546Y-3884000D01*
X22456825Y-3887081D01*
X22456825Y-3887081D01*
G37*
G36*
X21486825Y-3887081D02*
X21514546Y-3895490D01*
X21540089Y-3909143D01*
X21562481Y-3927519D01*
X21580857Y-3949911D01*
X21594510Y-3975454D01*
X21602919Y-4003175D01*
X21606000Y-4034454D01*
X21606000Y-4475546D01*
X21602919Y-4506825D01*
X21594510Y-4534546D01*
X21580857Y-4560089D01*
X21562481Y-4582481D01*
X21540089Y-4600857D01*
X21514546Y-4614510D01*
X21486825Y-4622919D01*
X21455546Y-4626000D01*
X21064454Y-4626000D01*
X21033175Y-4622919D01*
X21005454Y-4614510D01*
X20979911Y-4600857D01*
X20957519Y-4582481D01*
X20939143Y-4560089D01*
X20925490Y-4534546D01*
X20917081Y-4506825D01*
X20914000Y-4475546D01*
X20914000Y-4034454D01*
X20917081Y-4003175D01*
X20925490Y-3975454D01*
X20939143Y-3949911D01*
X20957519Y-3927519D01*
X20979911Y-3909143D01*
X21005454Y-3895490D01*
X21033175Y-3887081D01*
X21064454Y-3884000D01*
X21455546Y-3884000D01*
X21486825Y-3887081D01*
X21486825Y-3887081D01*
G37*
G36*
X23755719Y-1405174D02*
X23755722Y-1405175D01*
X23755721Y-1405175D01*
X23855996Y-1446710D01*
X23946242Y-1507010D01*
X24022990Y-1583758D01*
X24083290Y-1674004D01*
X24083290Y-1674005D01*
X24124826Y-1774281D01*
X24146000Y-1880730D01*
X24146000Y-1989270D01*
X24124826Y-2095719D01*
X24124825Y-2095721D01*
X24083290Y-2195996D01*
X24022990Y-2286242D01*
X23946242Y-2362990D01*
X23855996Y-2423290D01*
X23785090Y-2452660D01*
X23755719Y-2464826D01*
X23649270Y-2486000D01*
X23540730Y-2486000D01*
X23434281Y-2464826D01*
X23404910Y-2452660D01*
X23334004Y-2423290D01*
X23243758Y-2362990D01*
X23167010Y-2286242D01*
X23106710Y-2195996D01*
X23065175Y-2095721D01*
X23065174Y-2095719D01*
X23044000Y-1989270D01*
X23044000Y-1880730D01*
X23065174Y-1774281D01*
X23106710Y-1674005D01*
X23106710Y-1674004D01*
X23167010Y-1583758D01*
X23243758Y-1507010D01*
X23334004Y-1446710D01*
X23434279Y-1405175D01*
X23434278Y-1405175D01*
X23434281Y-1405174D01*
X23540730Y-1384000D01*
X23649270Y-1384000D01*
X23755719Y-1405174D01*
X23755719Y-1405174D01*
G37*
G36*
X22005719Y-1405174D02*
X22005722Y-1405175D01*
X22005721Y-1405175D01*
X22105996Y-1446710D01*
X22196242Y-1507010D01*
X22272990Y-1583758D01*
X22333290Y-1674004D01*
X22333290Y-1674005D01*
X22374826Y-1774281D01*
X22396000Y-1880730D01*
X22396000Y-1989270D01*
X22374826Y-2095719D01*
X22374825Y-2095721D01*
X22333290Y-2195996D01*
X22272990Y-2286242D01*
X22196242Y-2362990D01*
X22105996Y-2423290D01*
X22035090Y-2452660D01*
X22005719Y-2464826D01*
X21899270Y-2486000D01*
X21790730Y-2486000D01*
X21684281Y-2464826D01*
X21654910Y-2452660D01*
X21584004Y-2423290D01*
X21493758Y-2362990D01*
X21417010Y-2286242D01*
X21356710Y-2195996D01*
X21315175Y-2095721D01*
X21315174Y-2095719D01*
X21294000Y-1989270D01*
X21294000Y-1880730D01*
X21315174Y-1774281D01*
X21356710Y-1674005D01*
X21356710Y-1674004D01*
X21417010Y-1583758D01*
X21493758Y-1507010D01*
X21584004Y-1446710D01*
X21684279Y-1405175D01*
X21684278Y-1405175D01*
X21684281Y-1405174D01*
X21790730Y-1384000D01*
X21899270Y-1384000D01*
X22005719Y-1405174D01*
X22005719Y-1405174D01*
G37*
G36*
X20306519Y-405174D02*
X20306522Y-405175D01*
X20306521Y-405175D01*
X20406796Y-446710D01*
X20497042Y-507010D01*
X20573790Y-583758D01*
X20634090Y-674004D01*
X20634090Y-674005D01*
X20675626Y-774281D01*
X20696800Y-880730D01*
X20696800Y-989270D01*
X20675626Y-1095719D01*
X20675625Y-1095721D01*
X20634090Y-1195996D01*
X20573790Y-1286242D01*
X20497042Y-1362990D01*
X20406796Y-1423290D01*
X20350255Y-1446710D01*
X20306519Y-1464826D01*
X20200070Y-1486000D01*
X20091530Y-1486000D01*
X19985081Y-1464826D01*
X19941345Y-1446710D01*
X19884804Y-1423290D01*
X19794558Y-1362990D01*
X19717810Y-1286242D01*
X19657510Y-1195996D01*
X19615975Y-1095721D01*
X19615974Y-1095719D01*
X19594800Y-989270D01*
X19594800Y-880730D01*
X19615974Y-774281D01*
X19657510Y-674005D01*
X19657510Y-674004D01*
X19717810Y-583758D01*
X19794558Y-507010D01*
X19884804Y-446710D01*
X19985079Y-405175D01*
X19985078Y-405175D01*
X19985081Y-405174D01*
X20091530Y-384000D01*
X20200070Y-384000D01*
X20306519Y-405174D01*
X20306519Y-405174D01*
G37*
G36*
X18806519Y-405174D02*
X18806522Y-405175D01*
X18806521Y-405175D01*
X18906796Y-446710D01*
X18997042Y-507010D01*
X19073790Y-583758D01*
X19134090Y-674004D01*
X19134090Y-674005D01*
X19175626Y-774281D01*
X19196800Y-880730D01*
X19196800Y-989270D01*
X19175626Y-1095719D01*
X19175625Y-1095721D01*
X19134090Y-1195996D01*
X19073790Y-1286242D01*
X18997042Y-1362990D01*
X18906796Y-1423290D01*
X18850255Y-1446710D01*
X18806519Y-1464826D01*
X18700070Y-1486000D01*
X18591530Y-1486000D01*
X18485081Y-1464826D01*
X18441345Y-1446710D01*
X18384804Y-1423290D01*
X18294558Y-1362990D01*
X18217810Y-1286242D01*
X18157510Y-1195996D01*
X18115975Y-1095721D01*
X18115974Y-1095719D01*
X18094800Y-989270D01*
X18094800Y-880730D01*
X18115974Y-774281D01*
X18157510Y-674005D01*
X18157510Y-674004D01*
X18217810Y-583758D01*
X18294558Y-507010D01*
X18384804Y-446710D01*
X18485079Y-405175D01*
X18485078Y-405175D01*
X18485081Y-405174D01*
X18591530Y-384000D01*
X18700070Y-384000D01*
X18806519Y-405174D01*
X18806519Y-405174D01*
G37*
G36*
X17255719Y-405174D02*
X17255722Y-405175D01*
X17255721Y-405175D01*
X17355996Y-446710D01*
X17446242Y-507010D01*
X17522990Y-583758D01*
X17583290Y-674004D01*
X17583290Y-674005D01*
X17624826Y-774281D01*
X17646000Y-880730D01*
X17646000Y-989270D01*
X17624826Y-1095719D01*
X17624825Y-1095721D01*
X17583290Y-1195996D01*
X17522990Y-1286242D01*
X17446242Y-1362990D01*
X17355996Y-1423290D01*
X17299455Y-1446710D01*
X17255719Y-1464826D01*
X17149270Y-1486000D01*
X17040730Y-1486000D01*
X16934281Y-1464826D01*
X16890545Y-1446710D01*
X16834004Y-1423290D01*
X16743758Y-1362990D01*
X16667010Y-1286242D01*
X16606710Y-1195996D01*
X16565175Y-1095721D01*
X16565174Y-1095719D01*
X16544000Y-989270D01*
X16544000Y-880730D01*
X16565174Y-774281D01*
X16606710Y-674005D01*
X16606710Y-674004D01*
X16667010Y-583758D01*
X16743758Y-507010D01*
X16834004Y-446710D01*
X16934279Y-405175D01*
X16934278Y-405175D01*
X16934281Y-405174D01*
X17040730Y-384000D01*
X17149270Y-384000D01*
X17255719Y-405174D01*
X17255719Y-405174D01*
G37*
G36*
X15806519Y-405174D02*
X15806522Y-405175D01*
X15806521Y-405175D01*
X15906796Y-446710D01*
X15997042Y-507010D01*
X16073790Y-583758D01*
X16134090Y-674004D01*
X16134090Y-674005D01*
X16175626Y-774281D01*
X16196800Y-880730D01*
X16196800Y-989270D01*
X16175626Y-1095719D01*
X16175625Y-1095721D01*
X16134090Y-1195996D01*
X16073790Y-1286242D01*
X15997042Y-1362990D01*
X15906796Y-1423290D01*
X15850255Y-1446710D01*
X15806519Y-1464826D01*
X15700070Y-1486000D01*
X15591530Y-1486000D01*
X15485081Y-1464826D01*
X15441345Y-1446710D01*
X15384804Y-1423290D01*
X15294558Y-1362990D01*
X15217810Y-1286242D01*
X15157510Y-1195996D01*
X15115975Y-1095721D01*
X15115974Y-1095719D01*
X15094800Y-989270D01*
X15094800Y-880730D01*
X15115974Y-774281D01*
X15157510Y-674005D01*
X15157510Y-674004D01*
X15217810Y-583758D01*
X15294558Y-507010D01*
X15384804Y-446710D01*
X15485079Y-405175D01*
X15485078Y-405175D01*
X15485081Y-405174D01*
X15591530Y-384000D01*
X15700070Y-384000D01*
X15806519Y-405174D01*
X15806519Y-405174D01*
G37*
G36*
X14408119Y-405174D02*
X14408122Y-405175D01*
X14408121Y-405175D01*
X14508396Y-446710D01*
X14598642Y-507010D01*
X14675390Y-583758D01*
X14735690Y-674004D01*
X14735690Y-674005D01*
X14777226Y-774281D01*
X14798400Y-880730D01*
X14798400Y-989270D01*
X14777226Y-1095719D01*
X14777225Y-1095721D01*
X14735690Y-1195996D01*
X14675390Y-1286242D01*
X14598642Y-1362990D01*
X14508396Y-1423290D01*
X14451855Y-1446710D01*
X14408119Y-1464826D01*
X14301670Y-1486000D01*
X14193130Y-1486000D01*
X14086681Y-1464826D01*
X14042945Y-1446710D01*
X13986404Y-1423290D01*
X13896158Y-1362990D01*
X13819410Y-1286242D01*
X13759110Y-1195996D01*
X13717575Y-1095721D01*
X13717574Y-1095719D01*
X13696400Y-989270D01*
X13696400Y-880730D01*
X13717574Y-774281D01*
X13759110Y-674005D01*
X13759110Y-674004D01*
X13819410Y-583758D01*
X13896158Y-507010D01*
X13986404Y-446710D01*
X14086679Y-405175D01*
X14086678Y-405175D01*
X14086681Y-405174D01*
X14193130Y-384000D01*
X14301670Y-384000D01*
X14408119Y-405174D01*
X14408119Y-405174D01*
G37*
G36*
X13056519Y-405174D02*
X13056522Y-405175D01*
X13056521Y-405175D01*
X13156796Y-446710D01*
X13247042Y-507010D01*
X13323790Y-583758D01*
X13384090Y-674004D01*
X13384090Y-674005D01*
X13425626Y-774281D01*
X13446800Y-880730D01*
X13446800Y-989270D01*
X13425626Y-1095719D01*
X13425625Y-1095721D01*
X13384090Y-1195996D01*
X13323790Y-1286242D01*
X13247042Y-1362990D01*
X13156796Y-1423290D01*
X13100255Y-1446710D01*
X13056519Y-1464826D01*
X12950070Y-1486000D01*
X12841530Y-1486000D01*
X12735081Y-1464826D01*
X12691345Y-1446710D01*
X12634804Y-1423290D01*
X12544558Y-1362990D01*
X12467810Y-1286242D01*
X12407510Y-1195996D01*
X12365975Y-1095721D01*
X12365974Y-1095719D01*
X12344800Y-989270D01*
X12344800Y-880730D01*
X12365974Y-774281D01*
X12407510Y-674005D01*
X12407510Y-674004D01*
X12467810Y-583758D01*
X12544558Y-507010D01*
X12634804Y-446710D01*
X12735079Y-405175D01*
X12735078Y-405175D01*
X12735081Y-405174D01*
X12841530Y-384000D01*
X12950070Y-384000D01*
X13056519Y-405174D01*
X13056519Y-405174D01*
G37*
G36*
X11755719Y-405174D02*
X11755722Y-405175D01*
X11755721Y-405175D01*
X11855996Y-446710D01*
X11946242Y-507010D01*
X12022990Y-583758D01*
X12083290Y-674004D01*
X12083290Y-674005D01*
X12124826Y-774281D01*
X12146000Y-880730D01*
X12146000Y-989270D01*
X12124826Y-1095719D01*
X12124825Y-1095721D01*
X12083290Y-1195996D01*
X12022990Y-1286242D01*
X11946242Y-1362990D01*
X11855996Y-1423290D01*
X11799455Y-1446710D01*
X11755719Y-1464826D01*
X11649270Y-1486000D01*
X11540730Y-1486000D01*
X11434281Y-1464826D01*
X11390545Y-1446710D01*
X11334004Y-1423290D01*
X11243758Y-1362990D01*
X11167010Y-1286242D01*
X11106710Y-1195996D01*
X11065175Y-1095721D01*
X11065174Y-1095719D01*
X11044000Y-989270D01*
X11044000Y-880730D01*
X11065174Y-774281D01*
X11106710Y-674005D01*
X11106710Y-674004D01*
X11167010Y-583758D01*
X11243758Y-507010D01*
X11334004Y-446710D01*
X11434279Y-405175D01*
X11434278Y-405175D01*
X11434281Y-405174D01*
X11540730Y-384000D01*
X11649270Y-384000D01*
X11755719Y-405174D01*
X11755719Y-405174D01*
G37*
G36*
X10306519Y-405174D02*
X10306522Y-405175D01*
X10306521Y-405175D01*
X10406796Y-446710D01*
X10497042Y-507010D01*
X10573790Y-583758D01*
X10634090Y-674004D01*
X10634090Y-674005D01*
X10675626Y-774281D01*
X10696800Y-880730D01*
X10696800Y-989270D01*
X10675626Y-1095719D01*
X10675625Y-1095721D01*
X10634090Y-1195996D01*
X10573790Y-1286242D01*
X10497042Y-1362990D01*
X10406796Y-1423290D01*
X10350255Y-1446710D01*
X10306519Y-1464826D01*
X10200070Y-1486000D01*
X10091530Y-1486000D01*
X9985081Y-1464826D01*
X9941345Y-1446710D01*
X9884804Y-1423290D01*
X9794558Y-1362990D01*
X9717810Y-1286242D01*
X9657510Y-1195996D01*
X9615975Y-1095721D01*
X9615974Y-1095719D01*
X9594800Y-989270D01*
X9594800Y-880730D01*
X9615974Y-774281D01*
X9657510Y-674005D01*
X9657510Y-674004D01*
X9717810Y-583758D01*
X9794558Y-507010D01*
X9884804Y-446710D01*
X9985079Y-405175D01*
X9985078Y-405175D01*
X9985081Y-405174D01*
X10091530Y-384000D01*
X10200070Y-384000D01*
X10306519Y-405174D01*
X10306519Y-405174D01*
G37*
G36*
X9005719Y-405174D02*
X9005722Y-405175D01*
X9005721Y-405175D01*
X9105996Y-446710D01*
X9196242Y-507010D01*
X9272990Y-583758D01*
X9333290Y-674004D01*
X9333290Y-674005D01*
X9374826Y-774281D01*
X9396000Y-880730D01*
X9396000Y-989270D01*
X9374826Y-1095719D01*
X9374825Y-1095721D01*
X9333290Y-1195996D01*
X9272990Y-1286242D01*
X9196242Y-1362990D01*
X9105996Y-1423290D01*
X9049455Y-1446710D01*
X9005719Y-1464826D01*
X8899270Y-1486000D01*
X8790730Y-1486000D01*
X8684281Y-1464826D01*
X8640545Y-1446710D01*
X8584004Y-1423290D01*
X8493758Y-1362990D01*
X8417010Y-1286242D01*
X8356710Y-1195996D01*
X8315175Y-1095721D01*
X8315174Y-1095719D01*
X8294000Y-989270D01*
X8294000Y-880730D01*
X8315174Y-774281D01*
X8356710Y-674005D01*
X8356710Y-674004D01*
X8417010Y-583758D01*
X8493758Y-507010D01*
X8584004Y-446710D01*
X8684279Y-405175D01*
X8684278Y-405175D01*
X8684281Y-405174D01*
X8790730Y-384000D01*
X8899270Y-384000D01*
X9005719Y-405174D01*
X9005719Y-405174D01*
G37*
G36*
X7755719Y-405174D02*
X7755722Y-405175D01*
X7755721Y-405175D01*
X7855996Y-446710D01*
X7946242Y-507010D01*
X8022990Y-583758D01*
X8083290Y-674004D01*
X8083290Y-674005D01*
X8124826Y-774281D01*
X8146000Y-880730D01*
X8146000Y-989270D01*
X8124826Y-1095719D01*
X8124825Y-1095721D01*
X8083290Y-1195996D01*
X8022990Y-1286242D01*
X7946242Y-1362990D01*
X7855996Y-1423290D01*
X7799455Y-1446710D01*
X7755719Y-1464826D01*
X7649270Y-1486000D01*
X7540730Y-1486000D01*
X7434281Y-1464826D01*
X7390545Y-1446710D01*
X7334004Y-1423290D01*
X7243758Y-1362990D01*
X7167010Y-1286242D01*
X7106710Y-1195996D01*
X7065175Y-1095721D01*
X7065174Y-1095719D01*
X7044000Y-989270D01*
X7044000Y-880730D01*
X7065174Y-774281D01*
X7106710Y-674005D01*
X7106710Y-674004D01*
X7167010Y-583758D01*
X7243758Y-507010D01*
X7334004Y-446710D01*
X7434279Y-405175D01*
X7434278Y-405175D01*
X7434281Y-405174D01*
X7540730Y-384000D01*
X7649270Y-384000D01*
X7755719Y-405174D01*
X7755719Y-405174D01*
G37*
G36*
X6505719Y-405174D02*
X6505722Y-405175D01*
X6505721Y-405175D01*
X6605996Y-446710D01*
X6696242Y-507010D01*
X6772990Y-583758D01*
X6833290Y-674004D01*
X6833290Y-674005D01*
X6874826Y-774281D01*
X6896000Y-880730D01*
X6896000Y-989270D01*
X6874826Y-1095719D01*
X6874825Y-1095721D01*
X6833290Y-1195996D01*
X6772990Y-1286242D01*
X6696242Y-1362990D01*
X6605996Y-1423290D01*
X6549455Y-1446710D01*
X6505719Y-1464826D01*
X6399270Y-1486000D01*
X6290730Y-1486000D01*
X6184281Y-1464826D01*
X6140545Y-1446710D01*
X6084004Y-1423290D01*
X5993758Y-1362990D01*
X5917010Y-1286242D01*
X5856710Y-1195996D01*
X5815175Y-1095721D01*
X5815174Y-1095719D01*
X5794000Y-989270D01*
X5794000Y-880730D01*
X5815174Y-774281D01*
X5856710Y-674005D01*
X5856710Y-674004D01*
X5917010Y-583758D01*
X5993758Y-507010D01*
X6084004Y-446710D01*
X6184279Y-405175D01*
X6184278Y-405175D01*
X6184281Y-405174D01*
X6290730Y-384000D01*
X6399270Y-384000D01*
X6505719Y-405174D01*
X6505719Y-405174D01*
G37*
G36*
X5255719Y-405174D02*
X5255722Y-405175D01*
X5255721Y-405175D01*
X5355996Y-446710D01*
X5446242Y-507010D01*
X5522990Y-583758D01*
X5583290Y-674004D01*
X5583290Y-674005D01*
X5624826Y-774281D01*
X5646000Y-880730D01*
X5646000Y-989270D01*
X5624826Y-1095719D01*
X5624825Y-1095721D01*
X5583290Y-1195996D01*
X5522990Y-1286242D01*
X5446242Y-1362990D01*
X5355996Y-1423290D01*
X5299455Y-1446710D01*
X5255719Y-1464826D01*
X5149270Y-1486000D01*
X5040730Y-1486000D01*
X4934281Y-1464826D01*
X4890545Y-1446710D01*
X4834004Y-1423290D01*
X4743758Y-1362990D01*
X4667010Y-1286242D01*
X4606710Y-1195996D01*
X4565175Y-1095721D01*
X4565174Y-1095719D01*
X4544000Y-989270D01*
X4544000Y-880730D01*
X4565174Y-774281D01*
X4606710Y-674005D01*
X4606710Y-674004D01*
X4667010Y-583758D01*
X4743758Y-507010D01*
X4834004Y-446710D01*
X4934279Y-405175D01*
X4934278Y-405175D01*
X4934281Y-405174D01*
X5040730Y-384000D01*
X5149270Y-384000D01*
X5255719Y-405174D01*
X5255719Y-405174D01*
G37*
G36*
X4005719Y-405174D02*
X4005722Y-405175D01*
X4005721Y-405175D01*
X4105996Y-446710D01*
X4196242Y-507010D01*
X4272990Y-583758D01*
X4333290Y-674004D01*
X4333290Y-674005D01*
X4374826Y-774281D01*
X4396000Y-880730D01*
X4396000Y-989270D01*
X4374826Y-1095719D01*
X4374825Y-1095721D01*
X4333290Y-1195996D01*
X4272990Y-1286242D01*
X4196242Y-1362990D01*
X4105996Y-1423290D01*
X4049455Y-1446710D01*
X4005719Y-1464826D01*
X3899270Y-1486000D01*
X3790730Y-1486000D01*
X3684281Y-1464826D01*
X3640545Y-1446710D01*
X3584004Y-1423290D01*
X3493758Y-1362990D01*
X3417010Y-1286242D01*
X3356710Y-1195996D01*
X3315175Y-1095721D01*
X3315174Y-1095719D01*
X3294000Y-989270D01*
X3294000Y-880730D01*
X3315174Y-774281D01*
X3356710Y-674005D01*
X3356710Y-674004D01*
X3417010Y-583758D01*
X3493758Y-507010D01*
X3584004Y-446710D01*
X3684279Y-405175D01*
X3684278Y-405175D01*
X3684281Y-405174D01*
X3790730Y-384000D01*
X3899270Y-384000D01*
X4005719Y-405174D01*
X4005719Y-405174D01*
G37*
G36*
X1056519Y-405174D02*
X1056522Y-405175D01*
X1056521Y-405175D01*
X1156796Y-446710D01*
X1247042Y-507010D01*
X1323790Y-583758D01*
X1384090Y-674004D01*
X1384090Y-674005D01*
X1425626Y-774281D01*
X1446800Y-880730D01*
X1446800Y-989270D01*
X1425626Y-1095719D01*
X1425625Y-1095721D01*
X1384090Y-1195996D01*
X1323790Y-1286242D01*
X1247042Y-1362990D01*
X1156796Y-1423290D01*
X1100255Y-1446710D01*
X1056519Y-1464826D01*
X950070Y-1486000D01*
X841530Y-1486000D01*
X735081Y-1464826D01*
X691345Y-1446710D01*
X634804Y-1423290D01*
X544558Y-1362990D01*
X467810Y-1286242D01*
X407510Y-1195996D01*
X365975Y-1095721D01*
X365974Y-1095719D01*
X344800Y-989270D01*
X344800Y-880730D01*
X365974Y-774281D01*
X407510Y-674005D01*
X407510Y-674004D01*
X467810Y-583758D01*
X544558Y-507010D01*
X634804Y-446710D01*
X735079Y-405175D01*
X735078Y-405175D01*
X735081Y-405174D01*
X841530Y-384000D01*
X950070Y-384000D01*
X1056519Y-405174D01*
X1056519Y-405174D01*
G37*
G36*
X2505719Y-405174D02*
X2505722Y-405175D01*
X2505721Y-405175D01*
X2605996Y-446710D01*
X2696242Y-507010D01*
X2772990Y-583758D01*
X2833290Y-674004D01*
X2833290Y-674005D01*
X2874826Y-774281D01*
X2896000Y-880730D01*
X2896000Y-989270D01*
X2874826Y-1095719D01*
X2874825Y-1095721D01*
X2833290Y-1195996D01*
X2772990Y-1286242D01*
X2696242Y-1362990D01*
X2605996Y-1423290D01*
X2549455Y-1446710D01*
X2505719Y-1464826D01*
X2399270Y-1486000D01*
X2290730Y-1486000D01*
X2184281Y-1464826D01*
X2140545Y-1446710D01*
X2084004Y-1423290D01*
X1993758Y-1362990D01*
X1917010Y-1286242D01*
X1856710Y-1195996D01*
X1815175Y-1095721D01*
X1815174Y-1095719D01*
X1794000Y-989270D01*
X1794000Y-880730D01*
X1815174Y-774281D01*
X1856710Y-674005D01*
X1856710Y-674004D01*
X1917010Y-583758D01*
X1993758Y-507010D01*
X2084004Y-446710D01*
X2184279Y-405175D01*
X2184278Y-405175D01*
X2184281Y-405174D01*
X2290730Y-384000D01*
X2399270Y-384000D01*
X2505719Y-405174D01*
X2505719Y-405174D01*
G37*
M02*
