G04 #@! TF.GenerationSoftware,KiCad,Pcbnew,5.0.2+dfsg1-1~bpo9+1*
G04 #@! TF.CreationDate,2019-10-30T13:19:41+01:00*
G04 #@! TF.ProjectId,zglue-jade-adapter,7a676c75-652d-46a6-9164-652d61646170,rev?*
G04 #@! TF.SameCoordinates,Original*
G04 #@! TF.FileFunction,Paste,Top*
G04 #@! TF.FilePolarity,Positive*
%FSLAX46Y46*%
G04 Gerber Fmt 4.6, Leading zero omitted, Abs format (unit mm)*
G04 Created by KiCad (PCBNEW 5.0.2+dfsg1-1~bpo9+1) date Wed 30 Oct 2019 01:19:41 PM CET*
%MOMM*%
%LPD*%
G01*
G04 APERTURE LIST*
%ADD10C,0.100000*%
%ADD11C,0.590000*%
%ADD12C,1.000000*%
%ADD13R,0.300000X0.300000*%
%ADD14R,0.800000X0.600000*%
G04 APERTURE END LIST*
D10*
G04 #@! TO.C,R29*
G36*
X7406958Y-4130710D02*
X7421276Y-4132834D01*
X7435317Y-4136351D01*
X7448946Y-4141228D01*
X7462031Y-4147417D01*
X7474447Y-4154858D01*
X7486073Y-4163481D01*
X7496798Y-4173202D01*
X7506519Y-4183927D01*
X7515142Y-4195553D01*
X7522583Y-4207969D01*
X7528772Y-4221054D01*
X7533649Y-4234683D01*
X7537166Y-4248724D01*
X7539290Y-4263042D01*
X7540000Y-4277500D01*
X7540000Y-4622500D01*
X7539290Y-4636958D01*
X7537166Y-4651276D01*
X7533649Y-4665317D01*
X7528772Y-4678946D01*
X7522583Y-4692031D01*
X7515142Y-4704447D01*
X7506519Y-4716073D01*
X7496798Y-4726798D01*
X7486073Y-4736519D01*
X7474447Y-4745142D01*
X7462031Y-4752583D01*
X7448946Y-4758772D01*
X7435317Y-4763649D01*
X7421276Y-4767166D01*
X7406958Y-4769290D01*
X7392500Y-4770000D01*
X7097500Y-4770000D01*
X7083042Y-4769290D01*
X7068724Y-4767166D01*
X7054683Y-4763649D01*
X7041054Y-4758772D01*
X7027969Y-4752583D01*
X7015553Y-4745142D01*
X7003927Y-4736519D01*
X6993202Y-4726798D01*
X6983481Y-4716073D01*
X6974858Y-4704447D01*
X6967417Y-4692031D01*
X6961228Y-4678946D01*
X6956351Y-4665317D01*
X6952834Y-4651276D01*
X6950710Y-4636958D01*
X6950000Y-4622500D01*
X6950000Y-4277500D01*
X6950710Y-4263042D01*
X6952834Y-4248724D01*
X6956351Y-4234683D01*
X6961228Y-4221054D01*
X6967417Y-4207969D01*
X6974858Y-4195553D01*
X6983481Y-4183927D01*
X6993202Y-4173202D01*
X7003927Y-4163481D01*
X7015553Y-4154858D01*
X7027969Y-4147417D01*
X7041054Y-4141228D01*
X7054683Y-4136351D01*
X7068724Y-4132834D01*
X7083042Y-4130710D01*
X7097500Y-4130000D01*
X7392500Y-4130000D01*
X7406958Y-4130710D01*
X7406958Y-4130710D01*
G37*
D11*
X7245000Y-4450000D03*
D10*
G36*
X6436958Y-4130710D02*
X6451276Y-4132834D01*
X6465317Y-4136351D01*
X6478946Y-4141228D01*
X6492031Y-4147417D01*
X6504447Y-4154858D01*
X6516073Y-4163481D01*
X6526798Y-4173202D01*
X6536519Y-4183927D01*
X6545142Y-4195553D01*
X6552583Y-4207969D01*
X6558772Y-4221054D01*
X6563649Y-4234683D01*
X6567166Y-4248724D01*
X6569290Y-4263042D01*
X6570000Y-4277500D01*
X6570000Y-4622500D01*
X6569290Y-4636958D01*
X6567166Y-4651276D01*
X6563649Y-4665317D01*
X6558772Y-4678946D01*
X6552583Y-4692031D01*
X6545142Y-4704447D01*
X6536519Y-4716073D01*
X6526798Y-4726798D01*
X6516073Y-4736519D01*
X6504447Y-4745142D01*
X6492031Y-4752583D01*
X6478946Y-4758772D01*
X6465317Y-4763649D01*
X6451276Y-4767166D01*
X6436958Y-4769290D01*
X6422500Y-4770000D01*
X6127500Y-4770000D01*
X6113042Y-4769290D01*
X6098724Y-4767166D01*
X6084683Y-4763649D01*
X6071054Y-4758772D01*
X6057969Y-4752583D01*
X6045553Y-4745142D01*
X6033927Y-4736519D01*
X6023202Y-4726798D01*
X6013481Y-4716073D01*
X6004858Y-4704447D01*
X5997417Y-4692031D01*
X5991228Y-4678946D01*
X5986351Y-4665317D01*
X5982834Y-4651276D01*
X5980710Y-4636958D01*
X5980000Y-4622500D01*
X5980000Y-4277500D01*
X5980710Y-4263042D01*
X5982834Y-4248724D01*
X5986351Y-4234683D01*
X5991228Y-4221054D01*
X5997417Y-4207969D01*
X6004858Y-4195553D01*
X6013481Y-4183927D01*
X6023202Y-4173202D01*
X6033927Y-4163481D01*
X6045553Y-4154858D01*
X6057969Y-4147417D01*
X6071054Y-4141228D01*
X6084683Y-4136351D01*
X6098724Y-4132834D01*
X6113042Y-4130710D01*
X6127500Y-4130000D01*
X6422500Y-4130000D01*
X6436958Y-4130710D01*
X6436958Y-4130710D01*
G37*
D11*
X6275000Y-4450000D03*
G04 #@! TD*
D10*
G04 #@! TO.C,C6*
G36*
X18736958Y-11860710D02*
X18751276Y-11862834D01*
X18765317Y-11866351D01*
X18778946Y-11871228D01*
X18792031Y-11877417D01*
X18804447Y-11884858D01*
X18816073Y-11893481D01*
X18826798Y-11903202D01*
X18836519Y-11913927D01*
X18845142Y-11925553D01*
X18852583Y-11937969D01*
X18858772Y-11951054D01*
X18863649Y-11964683D01*
X18867166Y-11978724D01*
X18869290Y-11993042D01*
X18870000Y-12007500D01*
X18870000Y-12302500D01*
X18869290Y-12316958D01*
X18867166Y-12331276D01*
X18863649Y-12345317D01*
X18858772Y-12358946D01*
X18852583Y-12372031D01*
X18845142Y-12384447D01*
X18836519Y-12396073D01*
X18826798Y-12406798D01*
X18816073Y-12416519D01*
X18804447Y-12425142D01*
X18792031Y-12432583D01*
X18778946Y-12438772D01*
X18765317Y-12443649D01*
X18751276Y-12447166D01*
X18736958Y-12449290D01*
X18722500Y-12450000D01*
X18377500Y-12450000D01*
X18363042Y-12449290D01*
X18348724Y-12447166D01*
X18334683Y-12443649D01*
X18321054Y-12438772D01*
X18307969Y-12432583D01*
X18295553Y-12425142D01*
X18283927Y-12416519D01*
X18273202Y-12406798D01*
X18263481Y-12396073D01*
X18254858Y-12384447D01*
X18247417Y-12372031D01*
X18241228Y-12358946D01*
X18236351Y-12345317D01*
X18232834Y-12331276D01*
X18230710Y-12316958D01*
X18230000Y-12302500D01*
X18230000Y-12007500D01*
X18230710Y-11993042D01*
X18232834Y-11978724D01*
X18236351Y-11964683D01*
X18241228Y-11951054D01*
X18247417Y-11937969D01*
X18254858Y-11925553D01*
X18263481Y-11913927D01*
X18273202Y-11903202D01*
X18283927Y-11893481D01*
X18295553Y-11884858D01*
X18307969Y-11877417D01*
X18321054Y-11871228D01*
X18334683Y-11866351D01*
X18348724Y-11862834D01*
X18363042Y-11860710D01*
X18377500Y-11860000D01*
X18722500Y-11860000D01*
X18736958Y-11860710D01*
X18736958Y-11860710D01*
G37*
D11*
X18550000Y-12155000D03*
D10*
G36*
X18736958Y-10890710D02*
X18751276Y-10892834D01*
X18765317Y-10896351D01*
X18778946Y-10901228D01*
X18792031Y-10907417D01*
X18804447Y-10914858D01*
X18816073Y-10923481D01*
X18826798Y-10933202D01*
X18836519Y-10943927D01*
X18845142Y-10955553D01*
X18852583Y-10967969D01*
X18858772Y-10981054D01*
X18863649Y-10994683D01*
X18867166Y-11008724D01*
X18869290Y-11023042D01*
X18870000Y-11037500D01*
X18870000Y-11332500D01*
X18869290Y-11346958D01*
X18867166Y-11361276D01*
X18863649Y-11375317D01*
X18858772Y-11388946D01*
X18852583Y-11402031D01*
X18845142Y-11414447D01*
X18836519Y-11426073D01*
X18826798Y-11436798D01*
X18816073Y-11446519D01*
X18804447Y-11455142D01*
X18792031Y-11462583D01*
X18778946Y-11468772D01*
X18765317Y-11473649D01*
X18751276Y-11477166D01*
X18736958Y-11479290D01*
X18722500Y-11480000D01*
X18377500Y-11480000D01*
X18363042Y-11479290D01*
X18348724Y-11477166D01*
X18334683Y-11473649D01*
X18321054Y-11468772D01*
X18307969Y-11462583D01*
X18295553Y-11455142D01*
X18283927Y-11446519D01*
X18273202Y-11436798D01*
X18263481Y-11426073D01*
X18254858Y-11414447D01*
X18247417Y-11402031D01*
X18241228Y-11388946D01*
X18236351Y-11375317D01*
X18232834Y-11361276D01*
X18230710Y-11346958D01*
X18230000Y-11332500D01*
X18230000Y-11037500D01*
X18230710Y-11023042D01*
X18232834Y-11008724D01*
X18236351Y-10994683D01*
X18241228Y-10981054D01*
X18247417Y-10967969D01*
X18254858Y-10955553D01*
X18263481Y-10943927D01*
X18273202Y-10933202D01*
X18283927Y-10923481D01*
X18295553Y-10914858D01*
X18307969Y-10907417D01*
X18321054Y-10901228D01*
X18334683Y-10896351D01*
X18348724Y-10892834D01*
X18363042Y-10890710D01*
X18377500Y-10890000D01*
X18722500Y-10890000D01*
X18736958Y-10890710D01*
X18736958Y-10890710D01*
G37*
D11*
X18550000Y-11185000D03*
G04 #@! TD*
D10*
G04 #@! TO.C,R23*
G36*
X16551958Y-10775710D02*
X16566276Y-10777834D01*
X16580317Y-10781351D01*
X16593946Y-10786228D01*
X16607031Y-10792417D01*
X16619447Y-10799858D01*
X16631073Y-10808481D01*
X16641798Y-10818202D01*
X16651519Y-10828927D01*
X16660142Y-10840553D01*
X16667583Y-10852969D01*
X16673772Y-10866054D01*
X16678649Y-10879683D01*
X16682166Y-10893724D01*
X16684290Y-10908042D01*
X16685000Y-10922500D01*
X16685000Y-11267500D01*
X16684290Y-11281958D01*
X16682166Y-11296276D01*
X16678649Y-11310317D01*
X16673772Y-11323946D01*
X16667583Y-11337031D01*
X16660142Y-11349447D01*
X16651519Y-11361073D01*
X16641798Y-11371798D01*
X16631073Y-11381519D01*
X16619447Y-11390142D01*
X16607031Y-11397583D01*
X16593946Y-11403772D01*
X16580317Y-11408649D01*
X16566276Y-11412166D01*
X16551958Y-11414290D01*
X16537500Y-11415000D01*
X16242500Y-11415000D01*
X16228042Y-11414290D01*
X16213724Y-11412166D01*
X16199683Y-11408649D01*
X16186054Y-11403772D01*
X16172969Y-11397583D01*
X16160553Y-11390142D01*
X16148927Y-11381519D01*
X16138202Y-11371798D01*
X16128481Y-11361073D01*
X16119858Y-11349447D01*
X16112417Y-11337031D01*
X16106228Y-11323946D01*
X16101351Y-11310317D01*
X16097834Y-11296276D01*
X16095710Y-11281958D01*
X16095000Y-11267500D01*
X16095000Y-10922500D01*
X16095710Y-10908042D01*
X16097834Y-10893724D01*
X16101351Y-10879683D01*
X16106228Y-10866054D01*
X16112417Y-10852969D01*
X16119858Y-10840553D01*
X16128481Y-10828927D01*
X16138202Y-10818202D01*
X16148927Y-10808481D01*
X16160553Y-10799858D01*
X16172969Y-10792417D01*
X16186054Y-10786228D01*
X16199683Y-10781351D01*
X16213724Y-10777834D01*
X16228042Y-10775710D01*
X16242500Y-10775000D01*
X16537500Y-10775000D01*
X16551958Y-10775710D01*
X16551958Y-10775710D01*
G37*
D11*
X16390000Y-11095000D03*
D10*
G36*
X17521958Y-10775710D02*
X17536276Y-10777834D01*
X17550317Y-10781351D01*
X17563946Y-10786228D01*
X17577031Y-10792417D01*
X17589447Y-10799858D01*
X17601073Y-10808481D01*
X17611798Y-10818202D01*
X17621519Y-10828927D01*
X17630142Y-10840553D01*
X17637583Y-10852969D01*
X17643772Y-10866054D01*
X17648649Y-10879683D01*
X17652166Y-10893724D01*
X17654290Y-10908042D01*
X17655000Y-10922500D01*
X17655000Y-11267500D01*
X17654290Y-11281958D01*
X17652166Y-11296276D01*
X17648649Y-11310317D01*
X17643772Y-11323946D01*
X17637583Y-11337031D01*
X17630142Y-11349447D01*
X17621519Y-11361073D01*
X17611798Y-11371798D01*
X17601073Y-11381519D01*
X17589447Y-11390142D01*
X17577031Y-11397583D01*
X17563946Y-11403772D01*
X17550317Y-11408649D01*
X17536276Y-11412166D01*
X17521958Y-11414290D01*
X17507500Y-11415000D01*
X17212500Y-11415000D01*
X17198042Y-11414290D01*
X17183724Y-11412166D01*
X17169683Y-11408649D01*
X17156054Y-11403772D01*
X17142969Y-11397583D01*
X17130553Y-11390142D01*
X17118927Y-11381519D01*
X17108202Y-11371798D01*
X17098481Y-11361073D01*
X17089858Y-11349447D01*
X17082417Y-11337031D01*
X17076228Y-11323946D01*
X17071351Y-11310317D01*
X17067834Y-11296276D01*
X17065710Y-11281958D01*
X17065000Y-11267500D01*
X17065000Y-10922500D01*
X17065710Y-10908042D01*
X17067834Y-10893724D01*
X17071351Y-10879683D01*
X17076228Y-10866054D01*
X17082417Y-10852969D01*
X17089858Y-10840553D01*
X17098481Y-10828927D01*
X17108202Y-10818202D01*
X17118927Y-10808481D01*
X17130553Y-10799858D01*
X17142969Y-10792417D01*
X17156054Y-10786228D01*
X17169683Y-10781351D01*
X17183724Y-10777834D01*
X17198042Y-10775710D01*
X17212500Y-10775000D01*
X17507500Y-10775000D01*
X17521958Y-10775710D01*
X17521958Y-10775710D01*
G37*
D11*
X17360000Y-11095000D03*
G04 #@! TD*
D10*
G04 #@! TO.C,R15*
G36*
X21421958Y-3935710D02*
X21436276Y-3937834D01*
X21450317Y-3941351D01*
X21463946Y-3946228D01*
X21477031Y-3952417D01*
X21489447Y-3959858D01*
X21501073Y-3968481D01*
X21511798Y-3978202D01*
X21521519Y-3988927D01*
X21530142Y-4000553D01*
X21537583Y-4012969D01*
X21543772Y-4026054D01*
X21548649Y-4039683D01*
X21552166Y-4053724D01*
X21554290Y-4068042D01*
X21555000Y-4082500D01*
X21555000Y-4427500D01*
X21554290Y-4441958D01*
X21552166Y-4456276D01*
X21548649Y-4470317D01*
X21543772Y-4483946D01*
X21537583Y-4497031D01*
X21530142Y-4509447D01*
X21521519Y-4521073D01*
X21511798Y-4531798D01*
X21501073Y-4541519D01*
X21489447Y-4550142D01*
X21477031Y-4557583D01*
X21463946Y-4563772D01*
X21450317Y-4568649D01*
X21436276Y-4572166D01*
X21421958Y-4574290D01*
X21407500Y-4575000D01*
X21112500Y-4575000D01*
X21098042Y-4574290D01*
X21083724Y-4572166D01*
X21069683Y-4568649D01*
X21056054Y-4563772D01*
X21042969Y-4557583D01*
X21030553Y-4550142D01*
X21018927Y-4541519D01*
X21008202Y-4531798D01*
X20998481Y-4521073D01*
X20989858Y-4509447D01*
X20982417Y-4497031D01*
X20976228Y-4483946D01*
X20971351Y-4470317D01*
X20967834Y-4456276D01*
X20965710Y-4441958D01*
X20965000Y-4427500D01*
X20965000Y-4082500D01*
X20965710Y-4068042D01*
X20967834Y-4053724D01*
X20971351Y-4039683D01*
X20976228Y-4026054D01*
X20982417Y-4012969D01*
X20989858Y-4000553D01*
X20998481Y-3988927D01*
X21008202Y-3978202D01*
X21018927Y-3968481D01*
X21030553Y-3959858D01*
X21042969Y-3952417D01*
X21056054Y-3946228D01*
X21069683Y-3941351D01*
X21083724Y-3937834D01*
X21098042Y-3935710D01*
X21112500Y-3935000D01*
X21407500Y-3935000D01*
X21421958Y-3935710D01*
X21421958Y-3935710D01*
G37*
D11*
X21260000Y-4255000D03*
D10*
G36*
X22391958Y-3935710D02*
X22406276Y-3937834D01*
X22420317Y-3941351D01*
X22433946Y-3946228D01*
X22447031Y-3952417D01*
X22459447Y-3959858D01*
X22471073Y-3968481D01*
X22481798Y-3978202D01*
X22491519Y-3988927D01*
X22500142Y-4000553D01*
X22507583Y-4012969D01*
X22513772Y-4026054D01*
X22518649Y-4039683D01*
X22522166Y-4053724D01*
X22524290Y-4068042D01*
X22525000Y-4082500D01*
X22525000Y-4427500D01*
X22524290Y-4441958D01*
X22522166Y-4456276D01*
X22518649Y-4470317D01*
X22513772Y-4483946D01*
X22507583Y-4497031D01*
X22500142Y-4509447D01*
X22491519Y-4521073D01*
X22481798Y-4531798D01*
X22471073Y-4541519D01*
X22459447Y-4550142D01*
X22447031Y-4557583D01*
X22433946Y-4563772D01*
X22420317Y-4568649D01*
X22406276Y-4572166D01*
X22391958Y-4574290D01*
X22377500Y-4575000D01*
X22082500Y-4575000D01*
X22068042Y-4574290D01*
X22053724Y-4572166D01*
X22039683Y-4568649D01*
X22026054Y-4563772D01*
X22012969Y-4557583D01*
X22000553Y-4550142D01*
X21988927Y-4541519D01*
X21978202Y-4531798D01*
X21968481Y-4521073D01*
X21959858Y-4509447D01*
X21952417Y-4497031D01*
X21946228Y-4483946D01*
X21941351Y-4470317D01*
X21937834Y-4456276D01*
X21935710Y-4441958D01*
X21935000Y-4427500D01*
X21935000Y-4082500D01*
X21935710Y-4068042D01*
X21937834Y-4053724D01*
X21941351Y-4039683D01*
X21946228Y-4026054D01*
X21952417Y-4012969D01*
X21959858Y-4000553D01*
X21968481Y-3988927D01*
X21978202Y-3978202D01*
X21988927Y-3968481D01*
X22000553Y-3959858D01*
X22012969Y-3952417D01*
X22026054Y-3946228D01*
X22039683Y-3941351D01*
X22053724Y-3937834D01*
X22068042Y-3935710D01*
X22082500Y-3935000D01*
X22377500Y-3935000D01*
X22391958Y-3935710D01*
X22391958Y-3935710D01*
G37*
D11*
X22230000Y-4255000D03*
G04 #@! TD*
D10*
G04 #@! TO.C,U1*
G36*
X11569504Y-8756204D02*
X11593773Y-8759804D01*
X11617571Y-8765765D01*
X11640671Y-8774030D01*
X11662849Y-8784520D01*
X11683893Y-8797133D01*
X11703598Y-8811747D01*
X11721777Y-8828223D01*
X11738253Y-8846402D01*
X11752867Y-8866107D01*
X11765480Y-8887151D01*
X11775970Y-8909329D01*
X11784235Y-8932429D01*
X11790196Y-8956227D01*
X11793796Y-8980496D01*
X11795000Y-9005000D01*
X11795000Y-9705000D01*
X11793796Y-9729504D01*
X11790196Y-9753773D01*
X11784235Y-9777571D01*
X11775970Y-9800671D01*
X11765480Y-9822849D01*
X11752867Y-9843893D01*
X11738253Y-9863598D01*
X11721777Y-9881777D01*
X11703598Y-9898253D01*
X11683893Y-9912867D01*
X11662849Y-9925480D01*
X11640671Y-9935970D01*
X11617571Y-9944235D01*
X11593773Y-9950196D01*
X11569504Y-9953796D01*
X11545000Y-9955000D01*
X11045000Y-9955000D01*
X11020496Y-9953796D01*
X10996227Y-9950196D01*
X10972429Y-9944235D01*
X10949329Y-9935970D01*
X10927151Y-9925480D01*
X10906107Y-9912867D01*
X10886402Y-9898253D01*
X10868223Y-9881777D01*
X10851747Y-9863598D01*
X10837133Y-9843893D01*
X10824520Y-9822849D01*
X10814030Y-9800671D01*
X10805765Y-9777571D01*
X10799804Y-9753773D01*
X10796204Y-9729504D01*
X10795000Y-9705000D01*
X10795000Y-9005000D01*
X10796204Y-8980496D01*
X10799804Y-8956227D01*
X10805765Y-8932429D01*
X10814030Y-8909329D01*
X10824520Y-8887151D01*
X10837133Y-8866107D01*
X10851747Y-8846402D01*
X10868223Y-8828223D01*
X10886402Y-8811747D01*
X10906107Y-8797133D01*
X10927151Y-8784520D01*
X10949329Y-8774030D01*
X10972429Y-8765765D01*
X10996227Y-8759804D01*
X11020496Y-8756204D01*
X11045000Y-8755000D01*
X11545000Y-8755000D01*
X11569504Y-8756204D01*
X11569504Y-8756204D01*
G37*
D12*
X11295000Y-9355000D03*
D10*
G36*
X12769504Y-8756204D02*
X12793773Y-8759804D01*
X12817571Y-8765765D01*
X12840671Y-8774030D01*
X12862849Y-8784520D01*
X12883893Y-8797133D01*
X12903598Y-8811747D01*
X12921777Y-8828223D01*
X12938253Y-8846402D01*
X12952867Y-8866107D01*
X12965480Y-8887151D01*
X12975970Y-8909329D01*
X12984235Y-8932429D01*
X12990196Y-8956227D01*
X12993796Y-8980496D01*
X12995000Y-9005000D01*
X12995000Y-9705000D01*
X12993796Y-9729504D01*
X12990196Y-9753773D01*
X12984235Y-9777571D01*
X12975970Y-9800671D01*
X12965480Y-9822849D01*
X12952867Y-9843893D01*
X12938253Y-9863598D01*
X12921777Y-9881777D01*
X12903598Y-9898253D01*
X12883893Y-9912867D01*
X12862849Y-9925480D01*
X12840671Y-9935970D01*
X12817571Y-9944235D01*
X12793773Y-9950196D01*
X12769504Y-9953796D01*
X12745000Y-9955000D01*
X12245000Y-9955000D01*
X12220496Y-9953796D01*
X12196227Y-9950196D01*
X12172429Y-9944235D01*
X12149329Y-9935970D01*
X12127151Y-9925480D01*
X12106107Y-9912867D01*
X12086402Y-9898253D01*
X12068223Y-9881777D01*
X12051747Y-9863598D01*
X12037133Y-9843893D01*
X12024520Y-9822849D01*
X12014030Y-9800671D01*
X12005765Y-9777571D01*
X11999804Y-9753773D01*
X11996204Y-9729504D01*
X11995000Y-9705000D01*
X11995000Y-9005000D01*
X11996204Y-8980496D01*
X11999804Y-8956227D01*
X12005765Y-8932429D01*
X12014030Y-8909329D01*
X12024520Y-8887151D01*
X12037133Y-8866107D01*
X12051747Y-8846402D01*
X12068223Y-8828223D01*
X12086402Y-8811747D01*
X12106107Y-8797133D01*
X12127151Y-8784520D01*
X12149329Y-8774030D01*
X12172429Y-8765765D01*
X12196227Y-8759804D01*
X12220496Y-8756204D01*
X12245000Y-8755000D01*
X12745000Y-8755000D01*
X12769504Y-8756204D01*
X12769504Y-8756204D01*
G37*
D12*
X12495000Y-9355000D03*
D10*
G36*
X11569504Y-10056204D02*
X11593773Y-10059804D01*
X11617571Y-10065765D01*
X11640671Y-10074030D01*
X11662849Y-10084520D01*
X11683893Y-10097133D01*
X11703598Y-10111747D01*
X11721777Y-10128223D01*
X11738253Y-10146402D01*
X11752867Y-10166107D01*
X11765480Y-10187151D01*
X11775970Y-10209329D01*
X11784235Y-10232429D01*
X11790196Y-10256227D01*
X11793796Y-10280496D01*
X11795000Y-10305000D01*
X11795000Y-11005000D01*
X11793796Y-11029504D01*
X11790196Y-11053773D01*
X11784235Y-11077571D01*
X11775970Y-11100671D01*
X11765480Y-11122849D01*
X11752867Y-11143893D01*
X11738253Y-11163598D01*
X11721777Y-11181777D01*
X11703598Y-11198253D01*
X11683893Y-11212867D01*
X11662849Y-11225480D01*
X11640671Y-11235970D01*
X11617571Y-11244235D01*
X11593773Y-11250196D01*
X11569504Y-11253796D01*
X11545000Y-11255000D01*
X11045000Y-11255000D01*
X11020496Y-11253796D01*
X10996227Y-11250196D01*
X10972429Y-11244235D01*
X10949329Y-11235970D01*
X10927151Y-11225480D01*
X10906107Y-11212867D01*
X10886402Y-11198253D01*
X10868223Y-11181777D01*
X10851747Y-11163598D01*
X10837133Y-11143893D01*
X10824520Y-11122849D01*
X10814030Y-11100671D01*
X10805765Y-11077571D01*
X10799804Y-11053773D01*
X10796204Y-11029504D01*
X10795000Y-11005000D01*
X10795000Y-10305000D01*
X10796204Y-10280496D01*
X10799804Y-10256227D01*
X10805765Y-10232429D01*
X10814030Y-10209329D01*
X10824520Y-10187151D01*
X10837133Y-10166107D01*
X10851747Y-10146402D01*
X10868223Y-10128223D01*
X10886402Y-10111747D01*
X10906107Y-10097133D01*
X10927151Y-10084520D01*
X10949329Y-10074030D01*
X10972429Y-10065765D01*
X10996227Y-10059804D01*
X11020496Y-10056204D01*
X11045000Y-10055000D01*
X11545000Y-10055000D01*
X11569504Y-10056204D01*
X11569504Y-10056204D01*
G37*
D12*
X11295000Y-10655000D03*
D10*
G36*
X12769504Y-10056204D02*
X12793773Y-10059804D01*
X12817571Y-10065765D01*
X12840671Y-10074030D01*
X12862849Y-10084520D01*
X12883893Y-10097133D01*
X12903598Y-10111747D01*
X12921777Y-10128223D01*
X12938253Y-10146402D01*
X12952867Y-10166107D01*
X12965480Y-10187151D01*
X12975970Y-10209329D01*
X12984235Y-10232429D01*
X12990196Y-10256227D01*
X12993796Y-10280496D01*
X12995000Y-10305000D01*
X12995000Y-11005000D01*
X12993796Y-11029504D01*
X12990196Y-11053773D01*
X12984235Y-11077571D01*
X12975970Y-11100671D01*
X12965480Y-11122849D01*
X12952867Y-11143893D01*
X12938253Y-11163598D01*
X12921777Y-11181777D01*
X12903598Y-11198253D01*
X12883893Y-11212867D01*
X12862849Y-11225480D01*
X12840671Y-11235970D01*
X12817571Y-11244235D01*
X12793773Y-11250196D01*
X12769504Y-11253796D01*
X12745000Y-11255000D01*
X12245000Y-11255000D01*
X12220496Y-11253796D01*
X12196227Y-11250196D01*
X12172429Y-11244235D01*
X12149329Y-11235970D01*
X12127151Y-11225480D01*
X12106107Y-11212867D01*
X12086402Y-11198253D01*
X12068223Y-11181777D01*
X12051747Y-11163598D01*
X12037133Y-11143893D01*
X12024520Y-11122849D01*
X12014030Y-11100671D01*
X12005765Y-11077571D01*
X11999804Y-11053773D01*
X11996204Y-11029504D01*
X11995000Y-11005000D01*
X11995000Y-10305000D01*
X11996204Y-10280496D01*
X11999804Y-10256227D01*
X12005765Y-10232429D01*
X12014030Y-10209329D01*
X12024520Y-10187151D01*
X12037133Y-10166107D01*
X12051747Y-10146402D01*
X12068223Y-10128223D01*
X12086402Y-10111747D01*
X12106107Y-10097133D01*
X12127151Y-10084520D01*
X12149329Y-10074030D01*
X12172429Y-10065765D01*
X12196227Y-10059804D01*
X12220496Y-10056204D01*
X12245000Y-10055000D01*
X12745000Y-10055000D01*
X12769504Y-10056204D01*
X12769504Y-10056204D01*
G37*
D12*
X12495000Y-10655000D03*
D10*
G36*
X13969504Y-8756204D02*
X13993773Y-8759804D01*
X14017571Y-8765765D01*
X14040671Y-8774030D01*
X14062849Y-8784520D01*
X14083893Y-8797133D01*
X14103598Y-8811747D01*
X14121777Y-8828223D01*
X14138253Y-8846402D01*
X14152867Y-8866107D01*
X14165480Y-8887151D01*
X14175970Y-8909329D01*
X14184235Y-8932429D01*
X14190196Y-8956227D01*
X14193796Y-8980496D01*
X14195000Y-9005000D01*
X14195000Y-9705000D01*
X14193796Y-9729504D01*
X14190196Y-9753773D01*
X14184235Y-9777571D01*
X14175970Y-9800671D01*
X14165480Y-9822849D01*
X14152867Y-9843893D01*
X14138253Y-9863598D01*
X14121777Y-9881777D01*
X14103598Y-9898253D01*
X14083893Y-9912867D01*
X14062849Y-9925480D01*
X14040671Y-9935970D01*
X14017571Y-9944235D01*
X13993773Y-9950196D01*
X13969504Y-9953796D01*
X13945000Y-9955000D01*
X13445000Y-9955000D01*
X13420496Y-9953796D01*
X13396227Y-9950196D01*
X13372429Y-9944235D01*
X13349329Y-9935970D01*
X13327151Y-9925480D01*
X13306107Y-9912867D01*
X13286402Y-9898253D01*
X13268223Y-9881777D01*
X13251747Y-9863598D01*
X13237133Y-9843893D01*
X13224520Y-9822849D01*
X13214030Y-9800671D01*
X13205765Y-9777571D01*
X13199804Y-9753773D01*
X13196204Y-9729504D01*
X13195000Y-9705000D01*
X13195000Y-9005000D01*
X13196204Y-8980496D01*
X13199804Y-8956227D01*
X13205765Y-8932429D01*
X13214030Y-8909329D01*
X13224520Y-8887151D01*
X13237133Y-8866107D01*
X13251747Y-8846402D01*
X13268223Y-8828223D01*
X13286402Y-8811747D01*
X13306107Y-8797133D01*
X13327151Y-8784520D01*
X13349329Y-8774030D01*
X13372429Y-8765765D01*
X13396227Y-8759804D01*
X13420496Y-8756204D01*
X13445000Y-8755000D01*
X13945000Y-8755000D01*
X13969504Y-8756204D01*
X13969504Y-8756204D01*
G37*
D12*
X13695000Y-9355000D03*
D13*
X9570000Y-14230000D03*
X10220000Y-14230000D03*
X10870000Y-14230000D03*
X11520000Y-14230000D03*
X12170000Y-14230000D03*
X12820000Y-14230000D03*
X13470000Y-14230000D03*
X14120000Y-14230000D03*
X14770000Y-14230000D03*
X15420000Y-14230000D03*
X13470000Y-13580000D03*
X12170000Y-13580000D03*
X10870000Y-13580000D03*
X14120000Y-13580000D03*
X11520000Y-13580000D03*
X9570000Y-13580000D03*
X14770000Y-13580000D03*
X10220000Y-13580000D03*
X15420000Y-13580000D03*
X12820000Y-13580000D03*
X13470000Y-12930000D03*
X12170000Y-12930000D03*
X10870000Y-12930000D03*
X14120000Y-12930000D03*
X11520000Y-12930000D03*
X9570000Y-12930000D03*
X14770000Y-12930000D03*
X10220000Y-12930000D03*
X15420000Y-12930000D03*
X12820000Y-12930000D03*
X10870000Y-12280000D03*
X14120000Y-12280000D03*
X9570000Y-12280000D03*
X14770000Y-12280000D03*
X10220000Y-12280000D03*
X15420000Y-12280000D03*
X14770000Y-11630000D03*
X9570000Y-11630000D03*
X15420000Y-11630000D03*
X10220000Y-11630000D03*
X14770000Y-10980000D03*
X10220000Y-10980000D03*
X15420000Y-10980000D03*
X9570000Y-10980000D03*
X14770000Y-10330000D03*
X10220000Y-10330000D03*
X15420000Y-10330000D03*
X9570000Y-10330000D03*
X14770000Y-9680000D03*
X10220000Y-9680000D03*
X15420000Y-9680000D03*
X9570000Y-9680000D03*
X14770000Y-9030000D03*
X10220000Y-9030000D03*
X15420000Y-9030000D03*
X9570000Y-9030000D03*
X14770000Y-8380000D03*
X10220000Y-8380000D03*
X15420000Y-8380000D03*
X9570000Y-8380000D03*
X14120000Y-7730000D03*
X10870000Y-7730000D03*
X14770000Y-7730000D03*
X9570000Y-7730000D03*
X15420000Y-7730000D03*
X10220000Y-7730000D03*
X14120000Y-7080000D03*
X14770000Y-7080000D03*
X11520000Y-6430000D03*
X13470000Y-5780000D03*
X13470000Y-6430000D03*
X14770000Y-6430000D03*
X10220000Y-7080000D03*
X15420000Y-7080000D03*
X12170000Y-7080000D03*
X13470000Y-7080000D03*
X12820000Y-7080000D03*
X10220000Y-6430000D03*
X10220000Y-5780000D03*
X14770000Y-5780000D03*
X9570000Y-5780000D03*
X11520000Y-5780000D03*
X9570000Y-7080000D03*
X10870000Y-7080000D03*
X11520000Y-7080000D03*
X12820000Y-5780000D03*
X15420000Y-5780000D03*
X12170000Y-5780000D03*
X14120000Y-6430000D03*
X14120000Y-5780000D03*
X10870000Y-5780000D03*
X12820000Y-6430000D03*
X10870000Y-6430000D03*
X15420000Y-6430000D03*
X12170000Y-6430000D03*
X9570000Y-6430000D03*
D10*
G36*
X13969504Y-10056204D02*
X13993773Y-10059804D01*
X14017571Y-10065765D01*
X14040671Y-10074030D01*
X14062849Y-10084520D01*
X14083893Y-10097133D01*
X14103598Y-10111747D01*
X14121777Y-10128223D01*
X14138253Y-10146402D01*
X14152867Y-10166107D01*
X14165480Y-10187151D01*
X14175970Y-10209329D01*
X14184235Y-10232429D01*
X14190196Y-10256227D01*
X14193796Y-10280496D01*
X14195000Y-10305000D01*
X14195000Y-11005000D01*
X14193796Y-11029504D01*
X14190196Y-11053773D01*
X14184235Y-11077571D01*
X14175970Y-11100671D01*
X14165480Y-11122849D01*
X14152867Y-11143893D01*
X14138253Y-11163598D01*
X14121777Y-11181777D01*
X14103598Y-11198253D01*
X14083893Y-11212867D01*
X14062849Y-11225480D01*
X14040671Y-11235970D01*
X14017571Y-11244235D01*
X13993773Y-11250196D01*
X13969504Y-11253796D01*
X13945000Y-11255000D01*
X13445000Y-11255000D01*
X13420496Y-11253796D01*
X13396227Y-11250196D01*
X13372429Y-11244235D01*
X13349329Y-11235970D01*
X13327151Y-11225480D01*
X13306107Y-11212867D01*
X13286402Y-11198253D01*
X13268223Y-11181777D01*
X13251747Y-11163598D01*
X13237133Y-11143893D01*
X13224520Y-11122849D01*
X13214030Y-11100671D01*
X13205765Y-11077571D01*
X13199804Y-11053773D01*
X13196204Y-11029504D01*
X13195000Y-11005000D01*
X13195000Y-10305000D01*
X13196204Y-10280496D01*
X13199804Y-10256227D01*
X13205765Y-10232429D01*
X13214030Y-10209329D01*
X13224520Y-10187151D01*
X13237133Y-10166107D01*
X13251747Y-10146402D01*
X13268223Y-10128223D01*
X13286402Y-10111747D01*
X13306107Y-10097133D01*
X13327151Y-10084520D01*
X13349329Y-10074030D01*
X13372429Y-10065765D01*
X13396227Y-10059804D01*
X13420496Y-10056204D01*
X13445000Y-10055000D01*
X13945000Y-10055000D01*
X13969504Y-10056204D01*
X13969504Y-10056204D01*
G37*
D12*
X13695000Y-10655000D03*
G04 #@! TD*
D10*
G04 #@! TO.C,R12*
G36*
X12911958Y-15835710D02*
X12926276Y-15837834D01*
X12940317Y-15841351D01*
X12953946Y-15846228D01*
X12967031Y-15852417D01*
X12979447Y-15859858D01*
X12991073Y-15868481D01*
X13001798Y-15878202D01*
X13011519Y-15888927D01*
X13020142Y-15900553D01*
X13027583Y-15912969D01*
X13033772Y-15926054D01*
X13038649Y-15939683D01*
X13042166Y-15953724D01*
X13044290Y-15968042D01*
X13045000Y-15982500D01*
X13045000Y-16277500D01*
X13044290Y-16291958D01*
X13042166Y-16306276D01*
X13038649Y-16320317D01*
X13033772Y-16333946D01*
X13027583Y-16347031D01*
X13020142Y-16359447D01*
X13011519Y-16371073D01*
X13001798Y-16381798D01*
X12991073Y-16391519D01*
X12979447Y-16400142D01*
X12967031Y-16407583D01*
X12953946Y-16413772D01*
X12940317Y-16418649D01*
X12926276Y-16422166D01*
X12911958Y-16424290D01*
X12897500Y-16425000D01*
X12552500Y-16425000D01*
X12538042Y-16424290D01*
X12523724Y-16422166D01*
X12509683Y-16418649D01*
X12496054Y-16413772D01*
X12482969Y-16407583D01*
X12470553Y-16400142D01*
X12458927Y-16391519D01*
X12448202Y-16381798D01*
X12438481Y-16371073D01*
X12429858Y-16359447D01*
X12422417Y-16347031D01*
X12416228Y-16333946D01*
X12411351Y-16320317D01*
X12407834Y-16306276D01*
X12405710Y-16291958D01*
X12405000Y-16277500D01*
X12405000Y-15982500D01*
X12405710Y-15968042D01*
X12407834Y-15953724D01*
X12411351Y-15939683D01*
X12416228Y-15926054D01*
X12422417Y-15912969D01*
X12429858Y-15900553D01*
X12438481Y-15888927D01*
X12448202Y-15878202D01*
X12458927Y-15868481D01*
X12470553Y-15859858D01*
X12482969Y-15852417D01*
X12496054Y-15846228D01*
X12509683Y-15841351D01*
X12523724Y-15837834D01*
X12538042Y-15835710D01*
X12552500Y-15835000D01*
X12897500Y-15835000D01*
X12911958Y-15835710D01*
X12911958Y-15835710D01*
G37*
D11*
X12725000Y-16130000D03*
D10*
G36*
X12911958Y-14865710D02*
X12926276Y-14867834D01*
X12940317Y-14871351D01*
X12953946Y-14876228D01*
X12967031Y-14882417D01*
X12979447Y-14889858D01*
X12991073Y-14898481D01*
X13001798Y-14908202D01*
X13011519Y-14918927D01*
X13020142Y-14930553D01*
X13027583Y-14942969D01*
X13033772Y-14956054D01*
X13038649Y-14969683D01*
X13042166Y-14983724D01*
X13044290Y-14998042D01*
X13045000Y-15012500D01*
X13045000Y-15307500D01*
X13044290Y-15321958D01*
X13042166Y-15336276D01*
X13038649Y-15350317D01*
X13033772Y-15363946D01*
X13027583Y-15377031D01*
X13020142Y-15389447D01*
X13011519Y-15401073D01*
X13001798Y-15411798D01*
X12991073Y-15421519D01*
X12979447Y-15430142D01*
X12967031Y-15437583D01*
X12953946Y-15443772D01*
X12940317Y-15448649D01*
X12926276Y-15452166D01*
X12911958Y-15454290D01*
X12897500Y-15455000D01*
X12552500Y-15455000D01*
X12538042Y-15454290D01*
X12523724Y-15452166D01*
X12509683Y-15448649D01*
X12496054Y-15443772D01*
X12482969Y-15437583D01*
X12470553Y-15430142D01*
X12458927Y-15421519D01*
X12448202Y-15411798D01*
X12438481Y-15401073D01*
X12429858Y-15389447D01*
X12422417Y-15377031D01*
X12416228Y-15363946D01*
X12411351Y-15350317D01*
X12407834Y-15336276D01*
X12405710Y-15321958D01*
X12405000Y-15307500D01*
X12405000Y-15012500D01*
X12405710Y-14998042D01*
X12407834Y-14983724D01*
X12411351Y-14969683D01*
X12416228Y-14956054D01*
X12422417Y-14942969D01*
X12429858Y-14930553D01*
X12438481Y-14918927D01*
X12448202Y-14908202D01*
X12458927Y-14898481D01*
X12470553Y-14889858D01*
X12482969Y-14882417D01*
X12496054Y-14876228D01*
X12509683Y-14871351D01*
X12523724Y-14867834D01*
X12538042Y-14865710D01*
X12552500Y-14865000D01*
X12897500Y-14865000D01*
X12911958Y-14865710D01*
X12911958Y-14865710D01*
G37*
D11*
X12725000Y-15160000D03*
G04 #@! TD*
D10*
G04 #@! TO.C,R10*
G36*
X6646958Y-7030710D02*
X6661276Y-7032834D01*
X6675317Y-7036351D01*
X6688946Y-7041228D01*
X6702031Y-7047417D01*
X6714447Y-7054858D01*
X6726073Y-7063481D01*
X6736798Y-7073202D01*
X6746519Y-7083927D01*
X6755142Y-7095553D01*
X6762583Y-7107969D01*
X6768772Y-7121054D01*
X6773649Y-7134683D01*
X6777166Y-7148724D01*
X6779290Y-7163042D01*
X6780000Y-7177500D01*
X6780000Y-7522500D01*
X6779290Y-7536958D01*
X6777166Y-7551276D01*
X6773649Y-7565317D01*
X6768772Y-7578946D01*
X6762583Y-7592031D01*
X6755142Y-7604447D01*
X6746519Y-7616073D01*
X6736798Y-7626798D01*
X6726073Y-7636519D01*
X6714447Y-7645142D01*
X6702031Y-7652583D01*
X6688946Y-7658772D01*
X6675317Y-7663649D01*
X6661276Y-7667166D01*
X6646958Y-7669290D01*
X6632500Y-7670000D01*
X6337500Y-7670000D01*
X6323042Y-7669290D01*
X6308724Y-7667166D01*
X6294683Y-7663649D01*
X6281054Y-7658772D01*
X6267969Y-7652583D01*
X6255553Y-7645142D01*
X6243927Y-7636519D01*
X6233202Y-7626798D01*
X6223481Y-7616073D01*
X6214858Y-7604447D01*
X6207417Y-7592031D01*
X6201228Y-7578946D01*
X6196351Y-7565317D01*
X6192834Y-7551276D01*
X6190710Y-7536958D01*
X6190000Y-7522500D01*
X6190000Y-7177500D01*
X6190710Y-7163042D01*
X6192834Y-7148724D01*
X6196351Y-7134683D01*
X6201228Y-7121054D01*
X6207417Y-7107969D01*
X6214858Y-7095553D01*
X6223481Y-7083927D01*
X6233202Y-7073202D01*
X6243927Y-7063481D01*
X6255553Y-7054858D01*
X6267969Y-7047417D01*
X6281054Y-7041228D01*
X6294683Y-7036351D01*
X6308724Y-7032834D01*
X6323042Y-7030710D01*
X6337500Y-7030000D01*
X6632500Y-7030000D01*
X6646958Y-7030710D01*
X6646958Y-7030710D01*
G37*
D11*
X6485000Y-7350000D03*
D10*
G36*
X5676958Y-7030710D02*
X5691276Y-7032834D01*
X5705317Y-7036351D01*
X5718946Y-7041228D01*
X5732031Y-7047417D01*
X5744447Y-7054858D01*
X5756073Y-7063481D01*
X5766798Y-7073202D01*
X5776519Y-7083927D01*
X5785142Y-7095553D01*
X5792583Y-7107969D01*
X5798772Y-7121054D01*
X5803649Y-7134683D01*
X5807166Y-7148724D01*
X5809290Y-7163042D01*
X5810000Y-7177500D01*
X5810000Y-7522500D01*
X5809290Y-7536958D01*
X5807166Y-7551276D01*
X5803649Y-7565317D01*
X5798772Y-7578946D01*
X5792583Y-7592031D01*
X5785142Y-7604447D01*
X5776519Y-7616073D01*
X5766798Y-7626798D01*
X5756073Y-7636519D01*
X5744447Y-7645142D01*
X5732031Y-7652583D01*
X5718946Y-7658772D01*
X5705317Y-7663649D01*
X5691276Y-7667166D01*
X5676958Y-7669290D01*
X5662500Y-7670000D01*
X5367500Y-7670000D01*
X5353042Y-7669290D01*
X5338724Y-7667166D01*
X5324683Y-7663649D01*
X5311054Y-7658772D01*
X5297969Y-7652583D01*
X5285553Y-7645142D01*
X5273927Y-7636519D01*
X5263202Y-7626798D01*
X5253481Y-7616073D01*
X5244858Y-7604447D01*
X5237417Y-7592031D01*
X5231228Y-7578946D01*
X5226351Y-7565317D01*
X5222834Y-7551276D01*
X5220710Y-7536958D01*
X5220000Y-7522500D01*
X5220000Y-7177500D01*
X5220710Y-7163042D01*
X5222834Y-7148724D01*
X5226351Y-7134683D01*
X5231228Y-7121054D01*
X5237417Y-7107969D01*
X5244858Y-7095553D01*
X5253481Y-7083927D01*
X5263202Y-7073202D01*
X5273927Y-7063481D01*
X5285553Y-7054858D01*
X5297969Y-7047417D01*
X5311054Y-7041228D01*
X5324683Y-7036351D01*
X5338724Y-7032834D01*
X5353042Y-7030710D01*
X5367500Y-7030000D01*
X5662500Y-7030000D01*
X5676958Y-7030710D01*
X5676958Y-7030710D01*
G37*
D11*
X5515000Y-7350000D03*
G04 #@! TD*
D10*
G04 #@! TO.C,R6*
G36*
X13426958Y-1815710D02*
X13441276Y-1817834D01*
X13455317Y-1821351D01*
X13468946Y-1826228D01*
X13482031Y-1832417D01*
X13494447Y-1839858D01*
X13506073Y-1848481D01*
X13516798Y-1858202D01*
X13526519Y-1868927D01*
X13535142Y-1880553D01*
X13542583Y-1892969D01*
X13548772Y-1906054D01*
X13553649Y-1919683D01*
X13557166Y-1933724D01*
X13559290Y-1948042D01*
X13560000Y-1962500D01*
X13560000Y-2257500D01*
X13559290Y-2271958D01*
X13557166Y-2286276D01*
X13553649Y-2300317D01*
X13548772Y-2313946D01*
X13542583Y-2327031D01*
X13535142Y-2339447D01*
X13526519Y-2351073D01*
X13516798Y-2361798D01*
X13506073Y-2371519D01*
X13494447Y-2380142D01*
X13482031Y-2387583D01*
X13468946Y-2393772D01*
X13455317Y-2398649D01*
X13441276Y-2402166D01*
X13426958Y-2404290D01*
X13412500Y-2405000D01*
X13067500Y-2405000D01*
X13053042Y-2404290D01*
X13038724Y-2402166D01*
X13024683Y-2398649D01*
X13011054Y-2393772D01*
X12997969Y-2387583D01*
X12985553Y-2380142D01*
X12973927Y-2371519D01*
X12963202Y-2361798D01*
X12953481Y-2351073D01*
X12944858Y-2339447D01*
X12937417Y-2327031D01*
X12931228Y-2313946D01*
X12926351Y-2300317D01*
X12922834Y-2286276D01*
X12920710Y-2271958D01*
X12920000Y-2257500D01*
X12920000Y-1962500D01*
X12920710Y-1948042D01*
X12922834Y-1933724D01*
X12926351Y-1919683D01*
X12931228Y-1906054D01*
X12937417Y-1892969D01*
X12944858Y-1880553D01*
X12953481Y-1868927D01*
X12963202Y-1858202D01*
X12973927Y-1848481D01*
X12985553Y-1839858D01*
X12997969Y-1832417D01*
X13011054Y-1826228D01*
X13024683Y-1821351D01*
X13038724Y-1817834D01*
X13053042Y-1815710D01*
X13067500Y-1815000D01*
X13412500Y-1815000D01*
X13426958Y-1815710D01*
X13426958Y-1815710D01*
G37*
D11*
X13240000Y-2110000D03*
D10*
G36*
X13426958Y-2785710D02*
X13441276Y-2787834D01*
X13455317Y-2791351D01*
X13468946Y-2796228D01*
X13482031Y-2802417D01*
X13494447Y-2809858D01*
X13506073Y-2818481D01*
X13516798Y-2828202D01*
X13526519Y-2838927D01*
X13535142Y-2850553D01*
X13542583Y-2862969D01*
X13548772Y-2876054D01*
X13553649Y-2889683D01*
X13557166Y-2903724D01*
X13559290Y-2918042D01*
X13560000Y-2932500D01*
X13560000Y-3227500D01*
X13559290Y-3241958D01*
X13557166Y-3256276D01*
X13553649Y-3270317D01*
X13548772Y-3283946D01*
X13542583Y-3297031D01*
X13535142Y-3309447D01*
X13526519Y-3321073D01*
X13516798Y-3331798D01*
X13506073Y-3341519D01*
X13494447Y-3350142D01*
X13482031Y-3357583D01*
X13468946Y-3363772D01*
X13455317Y-3368649D01*
X13441276Y-3372166D01*
X13426958Y-3374290D01*
X13412500Y-3375000D01*
X13067500Y-3375000D01*
X13053042Y-3374290D01*
X13038724Y-3372166D01*
X13024683Y-3368649D01*
X13011054Y-3363772D01*
X12997969Y-3357583D01*
X12985553Y-3350142D01*
X12973927Y-3341519D01*
X12963202Y-3331798D01*
X12953481Y-3321073D01*
X12944858Y-3309447D01*
X12937417Y-3297031D01*
X12931228Y-3283946D01*
X12926351Y-3270317D01*
X12922834Y-3256276D01*
X12920710Y-3241958D01*
X12920000Y-3227500D01*
X12920000Y-2932500D01*
X12920710Y-2918042D01*
X12922834Y-2903724D01*
X12926351Y-2889683D01*
X12931228Y-2876054D01*
X12937417Y-2862969D01*
X12944858Y-2850553D01*
X12953481Y-2838927D01*
X12963202Y-2828202D01*
X12973927Y-2818481D01*
X12985553Y-2809858D01*
X12997969Y-2802417D01*
X13011054Y-2796228D01*
X13024683Y-2791351D01*
X13038724Y-2787834D01*
X13053042Y-2785710D01*
X13067500Y-2785000D01*
X13412500Y-2785000D01*
X13426958Y-2785710D01*
X13426958Y-2785710D01*
G37*
D11*
X13240000Y-3080000D03*
G04 #@! TD*
D10*
G04 #@! TO.C,R27*
G36*
X19626958Y-7320710D02*
X19641276Y-7322834D01*
X19655317Y-7326351D01*
X19668946Y-7331228D01*
X19682031Y-7337417D01*
X19694447Y-7344858D01*
X19706073Y-7353481D01*
X19716798Y-7363202D01*
X19726519Y-7373927D01*
X19735142Y-7385553D01*
X19742583Y-7397969D01*
X19748772Y-7411054D01*
X19753649Y-7424683D01*
X19757166Y-7438724D01*
X19759290Y-7453042D01*
X19760000Y-7467500D01*
X19760000Y-7812500D01*
X19759290Y-7826958D01*
X19757166Y-7841276D01*
X19753649Y-7855317D01*
X19748772Y-7868946D01*
X19742583Y-7882031D01*
X19735142Y-7894447D01*
X19726519Y-7906073D01*
X19716798Y-7916798D01*
X19706073Y-7926519D01*
X19694447Y-7935142D01*
X19682031Y-7942583D01*
X19668946Y-7948772D01*
X19655317Y-7953649D01*
X19641276Y-7957166D01*
X19626958Y-7959290D01*
X19612500Y-7960000D01*
X19317500Y-7960000D01*
X19303042Y-7959290D01*
X19288724Y-7957166D01*
X19274683Y-7953649D01*
X19261054Y-7948772D01*
X19247969Y-7942583D01*
X19235553Y-7935142D01*
X19223927Y-7926519D01*
X19213202Y-7916798D01*
X19203481Y-7906073D01*
X19194858Y-7894447D01*
X19187417Y-7882031D01*
X19181228Y-7868946D01*
X19176351Y-7855317D01*
X19172834Y-7841276D01*
X19170710Y-7826958D01*
X19170000Y-7812500D01*
X19170000Y-7467500D01*
X19170710Y-7453042D01*
X19172834Y-7438724D01*
X19176351Y-7424683D01*
X19181228Y-7411054D01*
X19187417Y-7397969D01*
X19194858Y-7385553D01*
X19203481Y-7373927D01*
X19213202Y-7363202D01*
X19223927Y-7353481D01*
X19235553Y-7344858D01*
X19247969Y-7337417D01*
X19261054Y-7331228D01*
X19274683Y-7326351D01*
X19288724Y-7322834D01*
X19303042Y-7320710D01*
X19317500Y-7320000D01*
X19612500Y-7320000D01*
X19626958Y-7320710D01*
X19626958Y-7320710D01*
G37*
D11*
X19465000Y-7640000D03*
D10*
G36*
X20596958Y-7320710D02*
X20611276Y-7322834D01*
X20625317Y-7326351D01*
X20638946Y-7331228D01*
X20652031Y-7337417D01*
X20664447Y-7344858D01*
X20676073Y-7353481D01*
X20686798Y-7363202D01*
X20696519Y-7373927D01*
X20705142Y-7385553D01*
X20712583Y-7397969D01*
X20718772Y-7411054D01*
X20723649Y-7424683D01*
X20727166Y-7438724D01*
X20729290Y-7453042D01*
X20730000Y-7467500D01*
X20730000Y-7812500D01*
X20729290Y-7826958D01*
X20727166Y-7841276D01*
X20723649Y-7855317D01*
X20718772Y-7868946D01*
X20712583Y-7882031D01*
X20705142Y-7894447D01*
X20696519Y-7906073D01*
X20686798Y-7916798D01*
X20676073Y-7926519D01*
X20664447Y-7935142D01*
X20652031Y-7942583D01*
X20638946Y-7948772D01*
X20625317Y-7953649D01*
X20611276Y-7957166D01*
X20596958Y-7959290D01*
X20582500Y-7960000D01*
X20287500Y-7960000D01*
X20273042Y-7959290D01*
X20258724Y-7957166D01*
X20244683Y-7953649D01*
X20231054Y-7948772D01*
X20217969Y-7942583D01*
X20205553Y-7935142D01*
X20193927Y-7926519D01*
X20183202Y-7916798D01*
X20173481Y-7906073D01*
X20164858Y-7894447D01*
X20157417Y-7882031D01*
X20151228Y-7868946D01*
X20146351Y-7855317D01*
X20142834Y-7841276D01*
X20140710Y-7826958D01*
X20140000Y-7812500D01*
X20140000Y-7467500D01*
X20140710Y-7453042D01*
X20142834Y-7438724D01*
X20146351Y-7424683D01*
X20151228Y-7411054D01*
X20157417Y-7397969D01*
X20164858Y-7385553D01*
X20173481Y-7373927D01*
X20183202Y-7363202D01*
X20193927Y-7353481D01*
X20205553Y-7344858D01*
X20217969Y-7337417D01*
X20231054Y-7331228D01*
X20244683Y-7326351D01*
X20258724Y-7322834D01*
X20273042Y-7320710D01*
X20287500Y-7320000D01*
X20582500Y-7320000D01*
X20596958Y-7320710D01*
X20596958Y-7320710D01*
G37*
D11*
X20435000Y-7640000D03*
G04 #@! TD*
D10*
G04 #@! TO.C,R28*
G36*
X14236958Y-16010710D02*
X14251276Y-16012834D01*
X14265317Y-16016351D01*
X14278946Y-16021228D01*
X14292031Y-16027417D01*
X14304447Y-16034858D01*
X14316073Y-16043481D01*
X14326798Y-16053202D01*
X14336519Y-16063927D01*
X14345142Y-16075553D01*
X14352583Y-16087969D01*
X14358772Y-16101054D01*
X14363649Y-16114683D01*
X14367166Y-16128724D01*
X14369290Y-16143042D01*
X14370000Y-16157500D01*
X14370000Y-16452500D01*
X14369290Y-16466958D01*
X14367166Y-16481276D01*
X14363649Y-16495317D01*
X14358772Y-16508946D01*
X14352583Y-16522031D01*
X14345142Y-16534447D01*
X14336519Y-16546073D01*
X14326798Y-16556798D01*
X14316073Y-16566519D01*
X14304447Y-16575142D01*
X14292031Y-16582583D01*
X14278946Y-16588772D01*
X14265317Y-16593649D01*
X14251276Y-16597166D01*
X14236958Y-16599290D01*
X14222500Y-16600000D01*
X13877500Y-16600000D01*
X13863042Y-16599290D01*
X13848724Y-16597166D01*
X13834683Y-16593649D01*
X13821054Y-16588772D01*
X13807969Y-16582583D01*
X13795553Y-16575142D01*
X13783927Y-16566519D01*
X13773202Y-16556798D01*
X13763481Y-16546073D01*
X13754858Y-16534447D01*
X13747417Y-16522031D01*
X13741228Y-16508946D01*
X13736351Y-16495317D01*
X13732834Y-16481276D01*
X13730710Y-16466958D01*
X13730000Y-16452500D01*
X13730000Y-16157500D01*
X13730710Y-16143042D01*
X13732834Y-16128724D01*
X13736351Y-16114683D01*
X13741228Y-16101054D01*
X13747417Y-16087969D01*
X13754858Y-16075553D01*
X13763481Y-16063927D01*
X13773202Y-16053202D01*
X13783927Y-16043481D01*
X13795553Y-16034858D01*
X13807969Y-16027417D01*
X13821054Y-16021228D01*
X13834683Y-16016351D01*
X13848724Y-16012834D01*
X13863042Y-16010710D01*
X13877500Y-16010000D01*
X14222500Y-16010000D01*
X14236958Y-16010710D01*
X14236958Y-16010710D01*
G37*
D11*
X14050000Y-16305000D03*
D10*
G36*
X14236958Y-15040710D02*
X14251276Y-15042834D01*
X14265317Y-15046351D01*
X14278946Y-15051228D01*
X14292031Y-15057417D01*
X14304447Y-15064858D01*
X14316073Y-15073481D01*
X14326798Y-15083202D01*
X14336519Y-15093927D01*
X14345142Y-15105553D01*
X14352583Y-15117969D01*
X14358772Y-15131054D01*
X14363649Y-15144683D01*
X14367166Y-15158724D01*
X14369290Y-15173042D01*
X14370000Y-15187500D01*
X14370000Y-15482500D01*
X14369290Y-15496958D01*
X14367166Y-15511276D01*
X14363649Y-15525317D01*
X14358772Y-15538946D01*
X14352583Y-15552031D01*
X14345142Y-15564447D01*
X14336519Y-15576073D01*
X14326798Y-15586798D01*
X14316073Y-15596519D01*
X14304447Y-15605142D01*
X14292031Y-15612583D01*
X14278946Y-15618772D01*
X14265317Y-15623649D01*
X14251276Y-15627166D01*
X14236958Y-15629290D01*
X14222500Y-15630000D01*
X13877500Y-15630000D01*
X13863042Y-15629290D01*
X13848724Y-15627166D01*
X13834683Y-15623649D01*
X13821054Y-15618772D01*
X13807969Y-15612583D01*
X13795553Y-15605142D01*
X13783927Y-15596519D01*
X13773202Y-15586798D01*
X13763481Y-15576073D01*
X13754858Y-15564447D01*
X13747417Y-15552031D01*
X13741228Y-15538946D01*
X13736351Y-15525317D01*
X13732834Y-15511276D01*
X13730710Y-15496958D01*
X13730000Y-15482500D01*
X13730000Y-15187500D01*
X13730710Y-15173042D01*
X13732834Y-15158724D01*
X13736351Y-15144683D01*
X13741228Y-15131054D01*
X13747417Y-15117969D01*
X13754858Y-15105553D01*
X13763481Y-15093927D01*
X13773202Y-15083202D01*
X13783927Y-15073481D01*
X13795553Y-15064858D01*
X13807969Y-15057417D01*
X13821054Y-15051228D01*
X13834683Y-15046351D01*
X13848724Y-15042834D01*
X13863042Y-15040710D01*
X13877500Y-15040000D01*
X14222500Y-15040000D01*
X14236958Y-15040710D01*
X14236958Y-15040710D01*
G37*
D11*
X14050000Y-15335000D03*
G04 #@! TD*
D10*
G04 #@! TO.C,R13*
G36*
X16146958Y-15000710D02*
X16161276Y-15002834D01*
X16175317Y-15006351D01*
X16188946Y-15011228D01*
X16202031Y-15017417D01*
X16214447Y-15024858D01*
X16226073Y-15033481D01*
X16236798Y-15043202D01*
X16246519Y-15053927D01*
X16255142Y-15065553D01*
X16262583Y-15077969D01*
X16268772Y-15091054D01*
X16273649Y-15104683D01*
X16277166Y-15118724D01*
X16279290Y-15133042D01*
X16280000Y-15147500D01*
X16280000Y-15492500D01*
X16279290Y-15506958D01*
X16277166Y-15521276D01*
X16273649Y-15535317D01*
X16268772Y-15548946D01*
X16262583Y-15562031D01*
X16255142Y-15574447D01*
X16246519Y-15586073D01*
X16236798Y-15596798D01*
X16226073Y-15606519D01*
X16214447Y-15615142D01*
X16202031Y-15622583D01*
X16188946Y-15628772D01*
X16175317Y-15633649D01*
X16161276Y-15637166D01*
X16146958Y-15639290D01*
X16132500Y-15640000D01*
X15837500Y-15640000D01*
X15823042Y-15639290D01*
X15808724Y-15637166D01*
X15794683Y-15633649D01*
X15781054Y-15628772D01*
X15767969Y-15622583D01*
X15755553Y-15615142D01*
X15743927Y-15606519D01*
X15733202Y-15596798D01*
X15723481Y-15586073D01*
X15714858Y-15574447D01*
X15707417Y-15562031D01*
X15701228Y-15548946D01*
X15696351Y-15535317D01*
X15692834Y-15521276D01*
X15690710Y-15506958D01*
X15690000Y-15492500D01*
X15690000Y-15147500D01*
X15690710Y-15133042D01*
X15692834Y-15118724D01*
X15696351Y-15104683D01*
X15701228Y-15091054D01*
X15707417Y-15077969D01*
X15714858Y-15065553D01*
X15723481Y-15053927D01*
X15733202Y-15043202D01*
X15743927Y-15033481D01*
X15755553Y-15024858D01*
X15767969Y-15017417D01*
X15781054Y-15011228D01*
X15794683Y-15006351D01*
X15808724Y-15002834D01*
X15823042Y-15000710D01*
X15837500Y-15000000D01*
X16132500Y-15000000D01*
X16146958Y-15000710D01*
X16146958Y-15000710D01*
G37*
D11*
X15985000Y-15320000D03*
D10*
G36*
X15176958Y-15000710D02*
X15191276Y-15002834D01*
X15205317Y-15006351D01*
X15218946Y-15011228D01*
X15232031Y-15017417D01*
X15244447Y-15024858D01*
X15256073Y-15033481D01*
X15266798Y-15043202D01*
X15276519Y-15053927D01*
X15285142Y-15065553D01*
X15292583Y-15077969D01*
X15298772Y-15091054D01*
X15303649Y-15104683D01*
X15307166Y-15118724D01*
X15309290Y-15133042D01*
X15310000Y-15147500D01*
X15310000Y-15492500D01*
X15309290Y-15506958D01*
X15307166Y-15521276D01*
X15303649Y-15535317D01*
X15298772Y-15548946D01*
X15292583Y-15562031D01*
X15285142Y-15574447D01*
X15276519Y-15586073D01*
X15266798Y-15596798D01*
X15256073Y-15606519D01*
X15244447Y-15615142D01*
X15232031Y-15622583D01*
X15218946Y-15628772D01*
X15205317Y-15633649D01*
X15191276Y-15637166D01*
X15176958Y-15639290D01*
X15162500Y-15640000D01*
X14867500Y-15640000D01*
X14853042Y-15639290D01*
X14838724Y-15637166D01*
X14824683Y-15633649D01*
X14811054Y-15628772D01*
X14797969Y-15622583D01*
X14785553Y-15615142D01*
X14773927Y-15606519D01*
X14763202Y-15596798D01*
X14753481Y-15586073D01*
X14744858Y-15574447D01*
X14737417Y-15562031D01*
X14731228Y-15548946D01*
X14726351Y-15535317D01*
X14722834Y-15521276D01*
X14720710Y-15506958D01*
X14720000Y-15492500D01*
X14720000Y-15147500D01*
X14720710Y-15133042D01*
X14722834Y-15118724D01*
X14726351Y-15104683D01*
X14731228Y-15091054D01*
X14737417Y-15077969D01*
X14744858Y-15065553D01*
X14753481Y-15053927D01*
X14763202Y-15043202D01*
X14773927Y-15033481D01*
X14785553Y-15024858D01*
X14797969Y-15017417D01*
X14811054Y-15011228D01*
X14824683Y-15006351D01*
X14838724Y-15002834D01*
X14853042Y-15000710D01*
X14867500Y-15000000D01*
X15162500Y-15000000D01*
X15176958Y-15000710D01*
X15176958Y-15000710D01*
G37*
D11*
X15015000Y-15320000D03*
G04 #@! TD*
D10*
G04 #@! TO.C,R25*
G36*
X19786958Y-4910710D02*
X19801276Y-4912834D01*
X19815317Y-4916351D01*
X19828946Y-4921228D01*
X19842031Y-4927417D01*
X19854447Y-4934858D01*
X19866073Y-4943481D01*
X19876798Y-4953202D01*
X19886519Y-4963927D01*
X19895142Y-4975553D01*
X19902583Y-4987969D01*
X19908772Y-5001054D01*
X19913649Y-5014683D01*
X19917166Y-5028724D01*
X19919290Y-5043042D01*
X19920000Y-5057500D01*
X19920000Y-5352500D01*
X19919290Y-5366958D01*
X19917166Y-5381276D01*
X19913649Y-5395317D01*
X19908772Y-5408946D01*
X19902583Y-5422031D01*
X19895142Y-5434447D01*
X19886519Y-5446073D01*
X19876798Y-5456798D01*
X19866073Y-5466519D01*
X19854447Y-5475142D01*
X19842031Y-5482583D01*
X19828946Y-5488772D01*
X19815317Y-5493649D01*
X19801276Y-5497166D01*
X19786958Y-5499290D01*
X19772500Y-5500000D01*
X19427500Y-5500000D01*
X19413042Y-5499290D01*
X19398724Y-5497166D01*
X19384683Y-5493649D01*
X19371054Y-5488772D01*
X19357969Y-5482583D01*
X19345553Y-5475142D01*
X19333927Y-5466519D01*
X19323202Y-5456798D01*
X19313481Y-5446073D01*
X19304858Y-5434447D01*
X19297417Y-5422031D01*
X19291228Y-5408946D01*
X19286351Y-5395317D01*
X19282834Y-5381276D01*
X19280710Y-5366958D01*
X19280000Y-5352500D01*
X19280000Y-5057500D01*
X19280710Y-5043042D01*
X19282834Y-5028724D01*
X19286351Y-5014683D01*
X19291228Y-5001054D01*
X19297417Y-4987969D01*
X19304858Y-4975553D01*
X19313481Y-4963927D01*
X19323202Y-4953202D01*
X19333927Y-4943481D01*
X19345553Y-4934858D01*
X19357969Y-4927417D01*
X19371054Y-4921228D01*
X19384683Y-4916351D01*
X19398724Y-4912834D01*
X19413042Y-4910710D01*
X19427500Y-4910000D01*
X19772500Y-4910000D01*
X19786958Y-4910710D01*
X19786958Y-4910710D01*
G37*
D11*
X19600000Y-5205000D03*
D10*
G36*
X19786958Y-5880710D02*
X19801276Y-5882834D01*
X19815317Y-5886351D01*
X19828946Y-5891228D01*
X19842031Y-5897417D01*
X19854447Y-5904858D01*
X19866073Y-5913481D01*
X19876798Y-5923202D01*
X19886519Y-5933927D01*
X19895142Y-5945553D01*
X19902583Y-5957969D01*
X19908772Y-5971054D01*
X19913649Y-5984683D01*
X19917166Y-5998724D01*
X19919290Y-6013042D01*
X19920000Y-6027500D01*
X19920000Y-6322500D01*
X19919290Y-6336958D01*
X19917166Y-6351276D01*
X19913649Y-6365317D01*
X19908772Y-6378946D01*
X19902583Y-6392031D01*
X19895142Y-6404447D01*
X19886519Y-6416073D01*
X19876798Y-6426798D01*
X19866073Y-6436519D01*
X19854447Y-6445142D01*
X19842031Y-6452583D01*
X19828946Y-6458772D01*
X19815317Y-6463649D01*
X19801276Y-6467166D01*
X19786958Y-6469290D01*
X19772500Y-6470000D01*
X19427500Y-6470000D01*
X19413042Y-6469290D01*
X19398724Y-6467166D01*
X19384683Y-6463649D01*
X19371054Y-6458772D01*
X19357969Y-6452583D01*
X19345553Y-6445142D01*
X19333927Y-6436519D01*
X19323202Y-6426798D01*
X19313481Y-6416073D01*
X19304858Y-6404447D01*
X19297417Y-6392031D01*
X19291228Y-6378946D01*
X19286351Y-6365317D01*
X19282834Y-6351276D01*
X19280710Y-6336958D01*
X19280000Y-6322500D01*
X19280000Y-6027500D01*
X19280710Y-6013042D01*
X19282834Y-5998724D01*
X19286351Y-5984683D01*
X19291228Y-5971054D01*
X19297417Y-5957969D01*
X19304858Y-5945553D01*
X19313481Y-5933927D01*
X19323202Y-5923202D01*
X19333927Y-5913481D01*
X19345553Y-5904858D01*
X19357969Y-5897417D01*
X19371054Y-5891228D01*
X19384683Y-5886351D01*
X19398724Y-5882834D01*
X19413042Y-5880710D01*
X19427500Y-5880000D01*
X19772500Y-5880000D01*
X19786958Y-5880710D01*
X19786958Y-5880710D01*
G37*
D11*
X19600000Y-6175000D03*
G04 #@! TD*
D10*
G04 #@! TO.C,R24*
G36*
X17521958Y-11725710D02*
X17536276Y-11727834D01*
X17550317Y-11731351D01*
X17563946Y-11736228D01*
X17577031Y-11742417D01*
X17589447Y-11749858D01*
X17601073Y-11758481D01*
X17611798Y-11768202D01*
X17621519Y-11778927D01*
X17630142Y-11790553D01*
X17637583Y-11802969D01*
X17643772Y-11816054D01*
X17648649Y-11829683D01*
X17652166Y-11843724D01*
X17654290Y-11858042D01*
X17655000Y-11872500D01*
X17655000Y-12217500D01*
X17654290Y-12231958D01*
X17652166Y-12246276D01*
X17648649Y-12260317D01*
X17643772Y-12273946D01*
X17637583Y-12287031D01*
X17630142Y-12299447D01*
X17621519Y-12311073D01*
X17611798Y-12321798D01*
X17601073Y-12331519D01*
X17589447Y-12340142D01*
X17577031Y-12347583D01*
X17563946Y-12353772D01*
X17550317Y-12358649D01*
X17536276Y-12362166D01*
X17521958Y-12364290D01*
X17507500Y-12365000D01*
X17212500Y-12365000D01*
X17198042Y-12364290D01*
X17183724Y-12362166D01*
X17169683Y-12358649D01*
X17156054Y-12353772D01*
X17142969Y-12347583D01*
X17130553Y-12340142D01*
X17118927Y-12331519D01*
X17108202Y-12321798D01*
X17098481Y-12311073D01*
X17089858Y-12299447D01*
X17082417Y-12287031D01*
X17076228Y-12273946D01*
X17071351Y-12260317D01*
X17067834Y-12246276D01*
X17065710Y-12231958D01*
X17065000Y-12217500D01*
X17065000Y-11872500D01*
X17065710Y-11858042D01*
X17067834Y-11843724D01*
X17071351Y-11829683D01*
X17076228Y-11816054D01*
X17082417Y-11802969D01*
X17089858Y-11790553D01*
X17098481Y-11778927D01*
X17108202Y-11768202D01*
X17118927Y-11758481D01*
X17130553Y-11749858D01*
X17142969Y-11742417D01*
X17156054Y-11736228D01*
X17169683Y-11731351D01*
X17183724Y-11727834D01*
X17198042Y-11725710D01*
X17212500Y-11725000D01*
X17507500Y-11725000D01*
X17521958Y-11725710D01*
X17521958Y-11725710D01*
G37*
D11*
X17360000Y-12045000D03*
D10*
G36*
X16551958Y-11725710D02*
X16566276Y-11727834D01*
X16580317Y-11731351D01*
X16593946Y-11736228D01*
X16607031Y-11742417D01*
X16619447Y-11749858D01*
X16631073Y-11758481D01*
X16641798Y-11768202D01*
X16651519Y-11778927D01*
X16660142Y-11790553D01*
X16667583Y-11802969D01*
X16673772Y-11816054D01*
X16678649Y-11829683D01*
X16682166Y-11843724D01*
X16684290Y-11858042D01*
X16685000Y-11872500D01*
X16685000Y-12217500D01*
X16684290Y-12231958D01*
X16682166Y-12246276D01*
X16678649Y-12260317D01*
X16673772Y-12273946D01*
X16667583Y-12287031D01*
X16660142Y-12299447D01*
X16651519Y-12311073D01*
X16641798Y-12321798D01*
X16631073Y-12331519D01*
X16619447Y-12340142D01*
X16607031Y-12347583D01*
X16593946Y-12353772D01*
X16580317Y-12358649D01*
X16566276Y-12362166D01*
X16551958Y-12364290D01*
X16537500Y-12365000D01*
X16242500Y-12365000D01*
X16228042Y-12364290D01*
X16213724Y-12362166D01*
X16199683Y-12358649D01*
X16186054Y-12353772D01*
X16172969Y-12347583D01*
X16160553Y-12340142D01*
X16148927Y-12331519D01*
X16138202Y-12321798D01*
X16128481Y-12311073D01*
X16119858Y-12299447D01*
X16112417Y-12287031D01*
X16106228Y-12273946D01*
X16101351Y-12260317D01*
X16097834Y-12246276D01*
X16095710Y-12231958D01*
X16095000Y-12217500D01*
X16095000Y-11872500D01*
X16095710Y-11858042D01*
X16097834Y-11843724D01*
X16101351Y-11829683D01*
X16106228Y-11816054D01*
X16112417Y-11802969D01*
X16119858Y-11790553D01*
X16128481Y-11778927D01*
X16138202Y-11768202D01*
X16148927Y-11758481D01*
X16160553Y-11749858D01*
X16172969Y-11742417D01*
X16186054Y-11736228D01*
X16199683Y-11731351D01*
X16213724Y-11727834D01*
X16228042Y-11725710D01*
X16242500Y-11725000D01*
X16537500Y-11725000D01*
X16551958Y-11725710D01*
X16551958Y-11725710D01*
G37*
D11*
X16390000Y-12045000D03*
G04 #@! TD*
D10*
G04 #@! TO.C,R14*
G36*
X18746958Y-5860710D02*
X18761276Y-5862834D01*
X18775317Y-5866351D01*
X18788946Y-5871228D01*
X18802031Y-5877417D01*
X18814447Y-5884858D01*
X18826073Y-5893481D01*
X18836798Y-5903202D01*
X18846519Y-5913927D01*
X18855142Y-5925553D01*
X18862583Y-5937969D01*
X18868772Y-5951054D01*
X18873649Y-5964683D01*
X18877166Y-5978724D01*
X18879290Y-5993042D01*
X18880000Y-6007500D01*
X18880000Y-6302500D01*
X18879290Y-6316958D01*
X18877166Y-6331276D01*
X18873649Y-6345317D01*
X18868772Y-6358946D01*
X18862583Y-6372031D01*
X18855142Y-6384447D01*
X18846519Y-6396073D01*
X18836798Y-6406798D01*
X18826073Y-6416519D01*
X18814447Y-6425142D01*
X18802031Y-6432583D01*
X18788946Y-6438772D01*
X18775317Y-6443649D01*
X18761276Y-6447166D01*
X18746958Y-6449290D01*
X18732500Y-6450000D01*
X18387500Y-6450000D01*
X18373042Y-6449290D01*
X18358724Y-6447166D01*
X18344683Y-6443649D01*
X18331054Y-6438772D01*
X18317969Y-6432583D01*
X18305553Y-6425142D01*
X18293927Y-6416519D01*
X18283202Y-6406798D01*
X18273481Y-6396073D01*
X18264858Y-6384447D01*
X18257417Y-6372031D01*
X18251228Y-6358946D01*
X18246351Y-6345317D01*
X18242834Y-6331276D01*
X18240710Y-6316958D01*
X18240000Y-6302500D01*
X18240000Y-6007500D01*
X18240710Y-5993042D01*
X18242834Y-5978724D01*
X18246351Y-5964683D01*
X18251228Y-5951054D01*
X18257417Y-5937969D01*
X18264858Y-5925553D01*
X18273481Y-5913927D01*
X18283202Y-5903202D01*
X18293927Y-5893481D01*
X18305553Y-5884858D01*
X18317969Y-5877417D01*
X18331054Y-5871228D01*
X18344683Y-5866351D01*
X18358724Y-5862834D01*
X18373042Y-5860710D01*
X18387500Y-5860000D01*
X18732500Y-5860000D01*
X18746958Y-5860710D01*
X18746958Y-5860710D01*
G37*
D11*
X18560000Y-6155000D03*
D10*
G36*
X18746958Y-4890710D02*
X18761276Y-4892834D01*
X18775317Y-4896351D01*
X18788946Y-4901228D01*
X18802031Y-4907417D01*
X18814447Y-4914858D01*
X18826073Y-4923481D01*
X18836798Y-4933202D01*
X18846519Y-4943927D01*
X18855142Y-4955553D01*
X18862583Y-4967969D01*
X18868772Y-4981054D01*
X18873649Y-4994683D01*
X18877166Y-5008724D01*
X18879290Y-5023042D01*
X18880000Y-5037500D01*
X18880000Y-5332500D01*
X18879290Y-5346958D01*
X18877166Y-5361276D01*
X18873649Y-5375317D01*
X18868772Y-5388946D01*
X18862583Y-5402031D01*
X18855142Y-5414447D01*
X18846519Y-5426073D01*
X18836798Y-5436798D01*
X18826073Y-5446519D01*
X18814447Y-5455142D01*
X18802031Y-5462583D01*
X18788946Y-5468772D01*
X18775317Y-5473649D01*
X18761276Y-5477166D01*
X18746958Y-5479290D01*
X18732500Y-5480000D01*
X18387500Y-5480000D01*
X18373042Y-5479290D01*
X18358724Y-5477166D01*
X18344683Y-5473649D01*
X18331054Y-5468772D01*
X18317969Y-5462583D01*
X18305553Y-5455142D01*
X18293927Y-5446519D01*
X18283202Y-5436798D01*
X18273481Y-5426073D01*
X18264858Y-5414447D01*
X18257417Y-5402031D01*
X18251228Y-5388946D01*
X18246351Y-5375317D01*
X18242834Y-5361276D01*
X18240710Y-5346958D01*
X18240000Y-5332500D01*
X18240000Y-5037500D01*
X18240710Y-5023042D01*
X18242834Y-5008724D01*
X18246351Y-4994683D01*
X18251228Y-4981054D01*
X18257417Y-4967969D01*
X18264858Y-4955553D01*
X18273481Y-4943927D01*
X18283202Y-4933202D01*
X18293927Y-4923481D01*
X18305553Y-4914858D01*
X18317969Y-4907417D01*
X18331054Y-4901228D01*
X18344683Y-4896351D01*
X18358724Y-4892834D01*
X18373042Y-4890710D01*
X18387500Y-4890000D01*
X18732500Y-4890000D01*
X18746958Y-4890710D01*
X18746958Y-4890710D01*
G37*
D11*
X18560000Y-5185000D03*
G04 #@! TD*
D10*
G04 #@! TO.C,R26*
G36*
X18766958Y-7320710D02*
X18781276Y-7322834D01*
X18795317Y-7326351D01*
X18808946Y-7331228D01*
X18822031Y-7337417D01*
X18834447Y-7344858D01*
X18846073Y-7353481D01*
X18856798Y-7363202D01*
X18866519Y-7373927D01*
X18875142Y-7385553D01*
X18882583Y-7397969D01*
X18888772Y-7411054D01*
X18893649Y-7424683D01*
X18897166Y-7438724D01*
X18899290Y-7453042D01*
X18900000Y-7467500D01*
X18900000Y-7812500D01*
X18899290Y-7826958D01*
X18897166Y-7841276D01*
X18893649Y-7855317D01*
X18888772Y-7868946D01*
X18882583Y-7882031D01*
X18875142Y-7894447D01*
X18866519Y-7906073D01*
X18856798Y-7916798D01*
X18846073Y-7926519D01*
X18834447Y-7935142D01*
X18822031Y-7942583D01*
X18808946Y-7948772D01*
X18795317Y-7953649D01*
X18781276Y-7957166D01*
X18766958Y-7959290D01*
X18752500Y-7960000D01*
X18457500Y-7960000D01*
X18443042Y-7959290D01*
X18428724Y-7957166D01*
X18414683Y-7953649D01*
X18401054Y-7948772D01*
X18387969Y-7942583D01*
X18375553Y-7935142D01*
X18363927Y-7926519D01*
X18353202Y-7916798D01*
X18343481Y-7906073D01*
X18334858Y-7894447D01*
X18327417Y-7882031D01*
X18321228Y-7868946D01*
X18316351Y-7855317D01*
X18312834Y-7841276D01*
X18310710Y-7826958D01*
X18310000Y-7812500D01*
X18310000Y-7467500D01*
X18310710Y-7453042D01*
X18312834Y-7438724D01*
X18316351Y-7424683D01*
X18321228Y-7411054D01*
X18327417Y-7397969D01*
X18334858Y-7385553D01*
X18343481Y-7373927D01*
X18353202Y-7363202D01*
X18363927Y-7353481D01*
X18375553Y-7344858D01*
X18387969Y-7337417D01*
X18401054Y-7331228D01*
X18414683Y-7326351D01*
X18428724Y-7322834D01*
X18443042Y-7320710D01*
X18457500Y-7320000D01*
X18752500Y-7320000D01*
X18766958Y-7320710D01*
X18766958Y-7320710D01*
G37*
D11*
X18605000Y-7640000D03*
D10*
G36*
X17796958Y-7320710D02*
X17811276Y-7322834D01*
X17825317Y-7326351D01*
X17838946Y-7331228D01*
X17852031Y-7337417D01*
X17864447Y-7344858D01*
X17876073Y-7353481D01*
X17886798Y-7363202D01*
X17896519Y-7373927D01*
X17905142Y-7385553D01*
X17912583Y-7397969D01*
X17918772Y-7411054D01*
X17923649Y-7424683D01*
X17927166Y-7438724D01*
X17929290Y-7453042D01*
X17930000Y-7467500D01*
X17930000Y-7812500D01*
X17929290Y-7826958D01*
X17927166Y-7841276D01*
X17923649Y-7855317D01*
X17918772Y-7868946D01*
X17912583Y-7882031D01*
X17905142Y-7894447D01*
X17896519Y-7906073D01*
X17886798Y-7916798D01*
X17876073Y-7926519D01*
X17864447Y-7935142D01*
X17852031Y-7942583D01*
X17838946Y-7948772D01*
X17825317Y-7953649D01*
X17811276Y-7957166D01*
X17796958Y-7959290D01*
X17782500Y-7960000D01*
X17487500Y-7960000D01*
X17473042Y-7959290D01*
X17458724Y-7957166D01*
X17444683Y-7953649D01*
X17431054Y-7948772D01*
X17417969Y-7942583D01*
X17405553Y-7935142D01*
X17393927Y-7926519D01*
X17383202Y-7916798D01*
X17373481Y-7906073D01*
X17364858Y-7894447D01*
X17357417Y-7882031D01*
X17351228Y-7868946D01*
X17346351Y-7855317D01*
X17342834Y-7841276D01*
X17340710Y-7826958D01*
X17340000Y-7812500D01*
X17340000Y-7467500D01*
X17340710Y-7453042D01*
X17342834Y-7438724D01*
X17346351Y-7424683D01*
X17351228Y-7411054D01*
X17357417Y-7397969D01*
X17364858Y-7385553D01*
X17373481Y-7373927D01*
X17383202Y-7363202D01*
X17393927Y-7353481D01*
X17405553Y-7344858D01*
X17417969Y-7337417D01*
X17431054Y-7331228D01*
X17444683Y-7326351D01*
X17458724Y-7322834D01*
X17473042Y-7320710D01*
X17487500Y-7320000D01*
X17782500Y-7320000D01*
X17796958Y-7320710D01*
X17796958Y-7320710D01*
G37*
D11*
X17635000Y-7640000D03*
G04 #@! TD*
D14*
G04 #@! TO.C,C11*
X6410000Y-14320000D03*
X6410000Y-12920000D03*
G04 #@! TD*
D10*
G04 #@! TO.C,C7*
G36*
X18482958Y-9820710D02*
X18497276Y-9822834D01*
X18511317Y-9826351D01*
X18524946Y-9831228D01*
X18538031Y-9837417D01*
X18550447Y-9844858D01*
X18562073Y-9853481D01*
X18572798Y-9863202D01*
X18582519Y-9873927D01*
X18591142Y-9885553D01*
X18598583Y-9897969D01*
X18604772Y-9911054D01*
X18609649Y-9924683D01*
X18613166Y-9938724D01*
X18615290Y-9953042D01*
X18616000Y-9967500D01*
X18616000Y-10262500D01*
X18615290Y-10276958D01*
X18613166Y-10291276D01*
X18609649Y-10305317D01*
X18604772Y-10318946D01*
X18598583Y-10332031D01*
X18591142Y-10344447D01*
X18582519Y-10356073D01*
X18572798Y-10366798D01*
X18562073Y-10376519D01*
X18550447Y-10385142D01*
X18538031Y-10392583D01*
X18524946Y-10398772D01*
X18511317Y-10403649D01*
X18497276Y-10407166D01*
X18482958Y-10409290D01*
X18468500Y-10410000D01*
X18123500Y-10410000D01*
X18109042Y-10409290D01*
X18094724Y-10407166D01*
X18080683Y-10403649D01*
X18067054Y-10398772D01*
X18053969Y-10392583D01*
X18041553Y-10385142D01*
X18029927Y-10376519D01*
X18019202Y-10366798D01*
X18009481Y-10356073D01*
X18000858Y-10344447D01*
X17993417Y-10332031D01*
X17987228Y-10318946D01*
X17982351Y-10305317D01*
X17978834Y-10291276D01*
X17976710Y-10276958D01*
X17976000Y-10262500D01*
X17976000Y-9967500D01*
X17976710Y-9953042D01*
X17978834Y-9938724D01*
X17982351Y-9924683D01*
X17987228Y-9911054D01*
X17993417Y-9897969D01*
X18000858Y-9885553D01*
X18009481Y-9873927D01*
X18019202Y-9863202D01*
X18029927Y-9853481D01*
X18041553Y-9844858D01*
X18053969Y-9837417D01*
X18067054Y-9831228D01*
X18080683Y-9826351D01*
X18094724Y-9822834D01*
X18109042Y-9820710D01*
X18123500Y-9820000D01*
X18468500Y-9820000D01*
X18482958Y-9820710D01*
X18482958Y-9820710D01*
G37*
D11*
X18296000Y-10115000D03*
D10*
G36*
X18482958Y-8850710D02*
X18497276Y-8852834D01*
X18511317Y-8856351D01*
X18524946Y-8861228D01*
X18538031Y-8867417D01*
X18550447Y-8874858D01*
X18562073Y-8883481D01*
X18572798Y-8893202D01*
X18582519Y-8903927D01*
X18591142Y-8915553D01*
X18598583Y-8927969D01*
X18604772Y-8941054D01*
X18609649Y-8954683D01*
X18613166Y-8968724D01*
X18615290Y-8983042D01*
X18616000Y-8997500D01*
X18616000Y-9292500D01*
X18615290Y-9306958D01*
X18613166Y-9321276D01*
X18609649Y-9335317D01*
X18604772Y-9348946D01*
X18598583Y-9362031D01*
X18591142Y-9374447D01*
X18582519Y-9386073D01*
X18572798Y-9396798D01*
X18562073Y-9406519D01*
X18550447Y-9415142D01*
X18538031Y-9422583D01*
X18524946Y-9428772D01*
X18511317Y-9433649D01*
X18497276Y-9437166D01*
X18482958Y-9439290D01*
X18468500Y-9440000D01*
X18123500Y-9440000D01*
X18109042Y-9439290D01*
X18094724Y-9437166D01*
X18080683Y-9433649D01*
X18067054Y-9428772D01*
X18053969Y-9422583D01*
X18041553Y-9415142D01*
X18029927Y-9406519D01*
X18019202Y-9396798D01*
X18009481Y-9386073D01*
X18000858Y-9374447D01*
X17993417Y-9362031D01*
X17987228Y-9348946D01*
X17982351Y-9335317D01*
X17978834Y-9321276D01*
X17976710Y-9306958D01*
X17976000Y-9292500D01*
X17976000Y-8997500D01*
X17976710Y-8983042D01*
X17978834Y-8968724D01*
X17982351Y-8954683D01*
X17987228Y-8941054D01*
X17993417Y-8927969D01*
X18000858Y-8915553D01*
X18009481Y-8903927D01*
X18019202Y-8893202D01*
X18029927Y-8883481D01*
X18041553Y-8874858D01*
X18053969Y-8867417D01*
X18067054Y-8861228D01*
X18080683Y-8856351D01*
X18094724Y-8852834D01*
X18109042Y-8850710D01*
X18123500Y-8850000D01*
X18468500Y-8850000D01*
X18482958Y-8850710D01*
X18482958Y-8850710D01*
G37*
D11*
X18296000Y-9145000D03*
G04 #@! TD*
D10*
G04 #@! TO.C,C5*
G36*
X17986958Y-12840710D02*
X18001276Y-12842834D01*
X18015317Y-12846351D01*
X18028946Y-12851228D01*
X18042031Y-12857417D01*
X18054447Y-12864858D01*
X18066073Y-12873481D01*
X18076798Y-12883202D01*
X18086519Y-12893927D01*
X18095142Y-12905553D01*
X18102583Y-12917969D01*
X18108772Y-12931054D01*
X18113649Y-12944683D01*
X18117166Y-12958724D01*
X18119290Y-12973042D01*
X18120000Y-12987500D01*
X18120000Y-13282500D01*
X18119290Y-13296958D01*
X18117166Y-13311276D01*
X18113649Y-13325317D01*
X18108772Y-13338946D01*
X18102583Y-13352031D01*
X18095142Y-13364447D01*
X18086519Y-13376073D01*
X18076798Y-13386798D01*
X18066073Y-13396519D01*
X18054447Y-13405142D01*
X18042031Y-13412583D01*
X18028946Y-13418772D01*
X18015317Y-13423649D01*
X18001276Y-13427166D01*
X17986958Y-13429290D01*
X17972500Y-13430000D01*
X17627500Y-13430000D01*
X17613042Y-13429290D01*
X17598724Y-13427166D01*
X17584683Y-13423649D01*
X17571054Y-13418772D01*
X17557969Y-13412583D01*
X17545553Y-13405142D01*
X17533927Y-13396519D01*
X17523202Y-13386798D01*
X17513481Y-13376073D01*
X17504858Y-13364447D01*
X17497417Y-13352031D01*
X17491228Y-13338946D01*
X17486351Y-13325317D01*
X17482834Y-13311276D01*
X17480710Y-13296958D01*
X17480000Y-13282500D01*
X17480000Y-12987500D01*
X17480710Y-12973042D01*
X17482834Y-12958724D01*
X17486351Y-12944683D01*
X17491228Y-12931054D01*
X17497417Y-12917969D01*
X17504858Y-12905553D01*
X17513481Y-12893927D01*
X17523202Y-12883202D01*
X17533927Y-12873481D01*
X17545553Y-12864858D01*
X17557969Y-12857417D01*
X17571054Y-12851228D01*
X17584683Y-12846351D01*
X17598724Y-12842834D01*
X17613042Y-12840710D01*
X17627500Y-12840000D01*
X17972500Y-12840000D01*
X17986958Y-12840710D01*
X17986958Y-12840710D01*
G37*
D11*
X17800000Y-13135000D03*
D10*
G36*
X17986958Y-13810710D02*
X18001276Y-13812834D01*
X18015317Y-13816351D01*
X18028946Y-13821228D01*
X18042031Y-13827417D01*
X18054447Y-13834858D01*
X18066073Y-13843481D01*
X18076798Y-13853202D01*
X18086519Y-13863927D01*
X18095142Y-13875553D01*
X18102583Y-13887969D01*
X18108772Y-13901054D01*
X18113649Y-13914683D01*
X18117166Y-13928724D01*
X18119290Y-13943042D01*
X18120000Y-13957500D01*
X18120000Y-14252500D01*
X18119290Y-14266958D01*
X18117166Y-14281276D01*
X18113649Y-14295317D01*
X18108772Y-14308946D01*
X18102583Y-14322031D01*
X18095142Y-14334447D01*
X18086519Y-14346073D01*
X18076798Y-14356798D01*
X18066073Y-14366519D01*
X18054447Y-14375142D01*
X18042031Y-14382583D01*
X18028946Y-14388772D01*
X18015317Y-14393649D01*
X18001276Y-14397166D01*
X17986958Y-14399290D01*
X17972500Y-14400000D01*
X17627500Y-14400000D01*
X17613042Y-14399290D01*
X17598724Y-14397166D01*
X17584683Y-14393649D01*
X17571054Y-14388772D01*
X17557969Y-14382583D01*
X17545553Y-14375142D01*
X17533927Y-14366519D01*
X17523202Y-14356798D01*
X17513481Y-14346073D01*
X17504858Y-14334447D01*
X17497417Y-14322031D01*
X17491228Y-14308946D01*
X17486351Y-14295317D01*
X17482834Y-14281276D01*
X17480710Y-14266958D01*
X17480000Y-14252500D01*
X17480000Y-13957500D01*
X17480710Y-13943042D01*
X17482834Y-13928724D01*
X17486351Y-13914683D01*
X17491228Y-13901054D01*
X17497417Y-13887969D01*
X17504858Y-13875553D01*
X17513481Y-13863927D01*
X17523202Y-13853202D01*
X17533927Y-13843481D01*
X17545553Y-13834858D01*
X17557969Y-13827417D01*
X17571054Y-13821228D01*
X17584683Y-13816351D01*
X17598724Y-13812834D01*
X17613042Y-13810710D01*
X17627500Y-13810000D01*
X17972500Y-13810000D01*
X17986958Y-13810710D01*
X17986958Y-13810710D01*
G37*
D11*
X17800000Y-14105000D03*
G04 #@! TD*
D10*
G04 #@! TO.C,C4*
G36*
X12536958Y-16640710D02*
X12551276Y-16642834D01*
X12565317Y-16646351D01*
X12578946Y-16651228D01*
X12592031Y-16657417D01*
X12604447Y-16664858D01*
X12616073Y-16673481D01*
X12626798Y-16683202D01*
X12636519Y-16693927D01*
X12645142Y-16705553D01*
X12652583Y-16717969D01*
X12658772Y-16731054D01*
X12663649Y-16744683D01*
X12667166Y-16758724D01*
X12669290Y-16773042D01*
X12670000Y-16787500D01*
X12670000Y-17082500D01*
X12669290Y-17096958D01*
X12667166Y-17111276D01*
X12663649Y-17125317D01*
X12658772Y-17138946D01*
X12652583Y-17152031D01*
X12645142Y-17164447D01*
X12636519Y-17176073D01*
X12626798Y-17186798D01*
X12616073Y-17196519D01*
X12604447Y-17205142D01*
X12592031Y-17212583D01*
X12578946Y-17218772D01*
X12565317Y-17223649D01*
X12551276Y-17227166D01*
X12536958Y-17229290D01*
X12522500Y-17230000D01*
X12177500Y-17230000D01*
X12163042Y-17229290D01*
X12148724Y-17227166D01*
X12134683Y-17223649D01*
X12121054Y-17218772D01*
X12107969Y-17212583D01*
X12095553Y-17205142D01*
X12083927Y-17196519D01*
X12073202Y-17186798D01*
X12063481Y-17176073D01*
X12054858Y-17164447D01*
X12047417Y-17152031D01*
X12041228Y-17138946D01*
X12036351Y-17125317D01*
X12032834Y-17111276D01*
X12030710Y-17096958D01*
X12030000Y-17082500D01*
X12030000Y-16787500D01*
X12030710Y-16773042D01*
X12032834Y-16758724D01*
X12036351Y-16744683D01*
X12041228Y-16731054D01*
X12047417Y-16717969D01*
X12054858Y-16705553D01*
X12063481Y-16693927D01*
X12073202Y-16683202D01*
X12083927Y-16673481D01*
X12095553Y-16664858D01*
X12107969Y-16657417D01*
X12121054Y-16651228D01*
X12134683Y-16646351D01*
X12148724Y-16642834D01*
X12163042Y-16640710D01*
X12177500Y-16640000D01*
X12522500Y-16640000D01*
X12536958Y-16640710D01*
X12536958Y-16640710D01*
G37*
D11*
X12350000Y-16935000D03*
D10*
G36*
X12536958Y-17610710D02*
X12551276Y-17612834D01*
X12565317Y-17616351D01*
X12578946Y-17621228D01*
X12592031Y-17627417D01*
X12604447Y-17634858D01*
X12616073Y-17643481D01*
X12626798Y-17653202D01*
X12636519Y-17663927D01*
X12645142Y-17675553D01*
X12652583Y-17687969D01*
X12658772Y-17701054D01*
X12663649Y-17714683D01*
X12667166Y-17728724D01*
X12669290Y-17743042D01*
X12670000Y-17757500D01*
X12670000Y-18052500D01*
X12669290Y-18066958D01*
X12667166Y-18081276D01*
X12663649Y-18095317D01*
X12658772Y-18108946D01*
X12652583Y-18122031D01*
X12645142Y-18134447D01*
X12636519Y-18146073D01*
X12626798Y-18156798D01*
X12616073Y-18166519D01*
X12604447Y-18175142D01*
X12592031Y-18182583D01*
X12578946Y-18188772D01*
X12565317Y-18193649D01*
X12551276Y-18197166D01*
X12536958Y-18199290D01*
X12522500Y-18200000D01*
X12177500Y-18200000D01*
X12163042Y-18199290D01*
X12148724Y-18197166D01*
X12134683Y-18193649D01*
X12121054Y-18188772D01*
X12107969Y-18182583D01*
X12095553Y-18175142D01*
X12083927Y-18166519D01*
X12073202Y-18156798D01*
X12063481Y-18146073D01*
X12054858Y-18134447D01*
X12047417Y-18122031D01*
X12041228Y-18108946D01*
X12036351Y-18095317D01*
X12032834Y-18081276D01*
X12030710Y-18066958D01*
X12030000Y-18052500D01*
X12030000Y-17757500D01*
X12030710Y-17743042D01*
X12032834Y-17728724D01*
X12036351Y-17714683D01*
X12041228Y-17701054D01*
X12047417Y-17687969D01*
X12054858Y-17675553D01*
X12063481Y-17663927D01*
X12073202Y-17653202D01*
X12083927Y-17643481D01*
X12095553Y-17634858D01*
X12107969Y-17627417D01*
X12121054Y-17621228D01*
X12134683Y-17616351D01*
X12148724Y-17612834D01*
X12163042Y-17610710D01*
X12177500Y-17610000D01*
X12522500Y-17610000D01*
X12536958Y-17610710D01*
X12536958Y-17610710D01*
G37*
D11*
X12350000Y-17905000D03*
G04 #@! TD*
D10*
G04 #@! TO.C,C3*
G36*
X14461958Y-16965710D02*
X14476276Y-16967834D01*
X14490317Y-16971351D01*
X14503946Y-16976228D01*
X14517031Y-16982417D01*
X14529447Y-16989858D01*
X14541073Y-16998481D01*
X14551798Y-17008202D01*
X14561519Y-17018927D01*
X14570142Y-17030553D01*
X14577583Y-17042969D01*
X14583772Y-17056054D01*
X14588649Y-17069683D01*
X14592166Y-17083724D01*
X14594290Y-17098042D01*
X14595000Y-17112500D01*
X14595000Y-17407500D01*
X14594290Y-17421958D01*
X14592166Y-17436276D01*
X14588649Y-17450317D01*
X14583772Y-17463946D01*
X14577583Y-17477031D01*
X14570142Y-17489447D01*
X14561519Y-17501073D01*
X14551798Y-17511798D01*
X14541073Y-17521519D01*
X14529447Y-17530142D01*
X14517031Y-17537583D01*
X14503946Y-17543772D01*
X14490317Y-17548649D01*
X14476276Y-17552166D01*
X14461958Y-17554290D01*
X14447500Y-17555000D01*
X14102500Y-17555000D01*
X14088042Y-17554290D01*
X14073724Y-17552166D01*
X14059683Y-17548649D01*
X14046054Y-17543772D01*
X14032969Y-17537583D01*
X14020553Y-17530142D01*
X14008927Y-17521519D01*
X13998202Y-17511798D01*
X13988481Y-17501073D01*
X13979858Y-17489447D01*
X13972417Y-17477031D01*
X13966228Y-17463946D01*
X13961351Y-17450317D01*
X13957834Y-17436276D01*
X13955710Y-17421958D01*
X13955000Y-17407500D01*
X13955000Y-17112500D01*
X13955710Y-17098042D01*
X13957834Y-17083724D01*
X13961351Y-17069683D01*
X13966228Y-17056054D01*
X13972417Y-17042969D01*
X13979858Y-17030553D01*
X13988481Y-17018927D01*
X13998202Y-17008202D01*
X14008927Y-16998481D01*
X14020553Y-16989858D01*
X14032969Y-16982417D01*
X14046054Y-16976228D01*
X14059683Y-16971351D01*
X14073724Y-16967834D01*
X14088042Y-16965710D01*
X14102500Y-16965000D01*
X14447500Y-16965000D01*
X14461958Y-16965710D01*
X14461958Y-16965710D01*
G37*
D11*
X14275000Y-17260000D03*
D10*
G36*
X14461958Y-17935710D02*
X14476276Y-17937834D01*
X14490317Y-17941351D01*
X14503946Y-17946228D01*
X14517031Y-17952417D01*
X14529447Y-17959858D01*
X14541073Y-17968481D01*
X14551798Y-17978202D01*
X14561519Y-17988927D01*
X14570142Y-18000553D01*
X14577583Y-18012969D01*
X14583772Y-18026054D01*
X14588649Y-18039683D01*
X14592166Y-18053724D01*
X14594290Y-18068042D01*
X14595000Y-18082500D01*
X14595000Y-18377500D01*
X14594290Y-18391958D01*
X14592166Y-18406276D01*
X14588649Y-18420317D01*
X14583772Y-18433946D01*
X14577583Y-18447031D01*
X14570142Y-18459447D01*
X14561519Y-18471073D01*
X14551798Y-18481798D01*
X14541073Y-18491519D01*
X14529447Y-18500142D01*
X14517031Y-18507583D01*
X14503946Y-18513772D01*
X14490317Y-18518649D01*
X14476276Y-18522166D01*
X14461958Y-18524290D01*
X14447500Y-18525000D01*
X14102500Y-18525000D01*
X14088042Y-18524290D01*
X14073724Y-18522166D01*
X14059683Y-18518649D01*
X14046054Y-18513772D01*
X14032969Y-18507583D01*
X14020553Y-18500142D01*
X14008927Y-18491519D01*
X13998202Y-18481798D01*
X13988481Y-18471073D01*
X13979858Y-18459447D01*
X13972417Y-18447031D01*
X13966228Y-18433946D01*
X13961351Y-18420317D01*
X13957834Y-18406276D01*
X13955710Y-18391958D01*
X13955000Y-18377500D01*
X13955000Y-18082500D01*
X13955710Y-18068042D01*
X13957834Y-18053724D01*
X13961351Y-18039683D01*
X13966228Y-18026054D01*
X13972417Y-18012969D01*
X13979858Y-18000553D01*
X13988481Y-17988927D01*
X13998202Y-17978202D01*
X14008927Y-17968481D01*
X14020553Y-17959858D01*
X14032969Y-17952417D01*
X14046054Y-17946228D01*
X14059683Y-17941351D01*
X14073724Y-17937834D01*
X14088042Y-17935710D01*
X14102500Y-17935000D01*
X14447500Y-17935000D01*
X14461958Y-17935710D01*
X14461958Y-17935710D01*
G37*
D11*
X14275000Y-18230000D03*
G04 #@! TD*
D10*
G04 #@! TO.C,C2*
G36*
X11597958Y-16034710D02*
X11612276Y-16036834D01*
X11626317Y-16040351D01*
X11639946Y-16045228D01*
X11653031Y-16051417D01*
X11665447Y-16058858D01*
X11677073Y-16067481D01*
X11687798Y-16077202D01*
X11697519Y-16087927D01*
X11706142Y-16099553D01*
X11713583Y-16111969D01*
X11719772Y-16125054D01*
X11724649Y-16138683D01*
X11728166Y-16152724D01*
X11730290Y-16167042D01*
X11731000Y-16181500D01*
X11731000Y-16476500D01*
X11730290Y-16490958D01*
X11728166Y-16505276D01*
X11724649Y-16519317D01*
X11719772Y-16532946D01*
X11713583Y-16546031D01*
X11706142Y-16558447D01*
X11697519Y-16570073D01*
X11687798Y-16580798D01*
X11677073Y-16590519D01*
X11665447Y-16599142D01*
X11653031Y-16606583D01*
X11639946Y-16612772D01*
X11626317Y-16617649D01*
X11612276Y-16621166D01*
X11597958Y-16623290D01*
X11583500Y-16624000D01*
X11238500Y-16624000D01*
X11224042Y-16623290D01*
X11209724Y-16621166D01*
X11195683Y-16617649D01*
X11182054Y-16612772D01*
X11168969Y-16606583D01*
X11156553Y-16599142D01*
X11144927Y-16590519D01*
X11134202Y-16580798D01*
X11124481Y-16570073D01*
X11115858Y-16558447D01*
X11108417Y-16546031D01*
X11102228Y-16532946D01*
X11097351Y-16519317D01*
X11093834Y-16505276D01*
X11091710Y-16490958D01*
X11091000Y-16476500D01*
X11091000Y-16181500D01*
X11091710Y-16167042D01*
X11093834Y-16152724D01*
X11097351Y-16138683D01*
X11102228Y-16125054D01*
X11108417Y-16111969D01*
X11115858Y-16099553D01*
X11124481Y-16087927D01*
X11134202Y-16077202D01*
X11144927Y-16067481D01*
X11156553Y-16058858D01*
X11168969Y-16051417D01*
X11182054Y-16045228D01*
X11195683Y-16040351D01*
X11209724Y-16036834D01*
X11224042Y-16034710D01*
X11238500Y-16034000D01*
X11583500Y-16034000D01*
X11597958Y-16034710D01*
X11597958Y-16034710D01*
G37*
D11*
X11411000Y-16329000D03*
D10*
G36*
X11597958Y-17004710D02*
X11612276Y-17006834D01*
X11626317Y-17010351D01*
X11639946Y-17015228D01*
X11653031Y-17021417D01*
X11665447Y-17028858D01*
X11677073Y-17037481D01*
X11687798Y-17047202D01*
X11697519Y-17057927D01*
X11706142Y-17069553D01*
X11713583Y-17081969D01*
X11719772Y-17095054D01*
X11724649Y-17108683D01*
X11728166Y-17122724D01*
X11730290Y-17137042D01*
X11731000Y-17151500D01*
X11731000Y-17446500D01*
X11730290Y-17460958D01*
X11728166Y-17475276D01*
X11724649Y-17489317D01*
X11719772Y-17502946D01*
X11713583Y-17516031D01*
X11706142Y-17528447D01*
X11697519Y-17540073D01*
X11687798Y-17550798D01*
X11677073Y-17560519D01*
X11665447Y-17569142D01*
X11653031Y-17576583D01*
X11639946Y-17582772D01*
X11626317Y-17587649D01*
X11612276Y-17591166D01*
X11597958Y-17593290D01*
X11583500Y-17594000D01*
X11238500Y-17594000D01*
X11224042Y-17593290D01*
X11209724Y-17591166D01*
X11195683Y-17587649D01*
X11182054Y-17582772D01*
X11168969Y-17576583D01*
X11156553Y-17569142D01*
X11144927Y-17560519D01*
X11134202Y-17550798D01*
X11124481Y-17540073D01*
X11115858Y-17528447D01*
X11108417Y-17516031D01*
X11102228Y-17502946D01*
X11097351Y-17489317D01*
X11093834Y-17475276D01*
X11091710Y-17460958D01*
X11091000Y-17446500D01*
X11091000Y-17151500D01*
X11091710Y-17137042D01*
X11093834Y-17122724D01*
X11097351Y-17108683D01*
X11102228Y-17095054D01*
X11108417Y-17081969D01*
X11115858Y-17069553D01*
X11124481Y-17057927D01*
X11134202Y-17047202D01*
X11144927Y-17037481D01*
X11156553Y-17028858D01*
X11168969Y-17021417D01*
X11182054Y-17015228D01*
X11195683Y-17010351D01*
X11209724Y-17006834D01*
X11224042Y-17004710D01*
X11238500Y-17004000D01*
X11583500Y-17004000D01*
X11597958Y-17004710D01*
X11597958Y-17004710D01*
G37*
D11*
X11411000Y-17299000D03*
G04 #@! TD*
D10*
G04 #@! TO.C,C10*
G36*
X10386958Y-16040710D02*
X10401276Y-16042834D01*
X10415317Y-16046351D01*
X10428946Y-16051228D01*
X10442031Y-16057417D01*
X10454447Y-16064858D01*
X10466073Y-16073481D01*
X10476798Y-16083202D01*
X10486519Y-16093927D01*
X10495142Y-16105553D01*
X10502583Y-16117969D01*
X10508772Y-16131054D01*
X10513649Y-16144683D01*
X10517166Y-16158724D01*
X10519290Y-16173042D01*
X10520000Y-16187500D01*
X10520000Y-16482500D01*
X10519290Y-16496958D01*
X10517166Y-16511276D01*
X10513649Y-16525317D01*
X10508772Y-16538946D01*
X10502583Y-16552031D01*
X10495142Y-16564447D01*
X10486519Y-16576073D01*
X10476798Y-16586798D01*
X10466073Y-16596519D01*
X10454447Y-16605142D01*
X10442031Y-16612583D01*
X10428946Y-16618772D01*
X10415317Y-16623649D01*
X10401276Y-16627166D01*
X10386958Y-16629290D01*
X10372500Y-16630000D01*
X10027500Y-16630000D01*
X10013042Y-16629290D01*
X9998724Y-16627166D01*
X9984683Y-16623649D01*
X9971054Y-16618772D01*
X9957969Y-16612583D01*
X9945553Y-16605142D01*
X9933927Y-16596519D01*
X9923202Y-16586798D01*
X9913481Y-16576073D01*
X9904858Y-16564447D01*
X9897417Y-16552031D01*
X9891228Y-16538946D01*
X9886351Y-16525317D01*
X9882834Y-16511276D01*
X9880710Y-16496958D01*
X9880000Y-16482500D01*
X9880000Y-16187500D01*
X9880710Y-16173042D01*
X9882834Y-16158724D01*
X9886351Y-16144683D01*
X9891228Y-16131054D01*
X9897417Y-16117969D01*
X9904858Y-16105553D01*
X9913481Y-16093927D01*
X9923202Y-16083202D01*
X9933927Y-16073481D01*
X9945553Y-16064858D01*
X9957969Y-16057417D01*
X9971054Y-16051228D01*
X9984683Y-16046351D01*
X9998724Y-16042834D01*
X10013042Y-16040710D01*
X10027500Y-16040000D01*
X10372500Y-16040000D01*
X10386958Y-16040710D01*
X10386958Y-16040710D01*
G37*
D11*
X10200000Y-16335000D03*
D10*
G36*
X10386958Y-17010710D02*
X10401276Y-17012834D01*
X10415317Y-17016351D01*
X10428946Y-17021228D01*
X10442031Y-17027417D01*
X10454447Y-17034858D01*
X10466073Y-17043481D01*
X10476798Y-17053202D01*
X10486519Y-17063927D01*
X10495142Y-17075553D01*
X10502583Y-17087969D01*
X10508772Y-17101054D01*
X10513649Y-17114683D01*
X10517166Y-17128724D01*
X10519290Y-17143042D01*
X10520000Y-17157500D01*
X10520000Y-17452500D01*
X10519290Y-17466958D01*
X10517166Y-17481276D01*
X10513649Y-17495317D01*
X10508772Y-17508946D01*
X10502583Y-17522031D01*
X10495142Y-17534447D01*
X10486519Y-17546073D01*
X10476798Y-17556798D01*
X10466073Y-17566519D01*
X10454447Y-17575142D01*
X10442031Y-17582583D01*
X10428946Y-17588772D01*
X10415317Y-17593649D01*
X10401276Y-17597166D01*
X10386958Y-17599290D01*
X10372500Y-17600000D01*
X10027500Y-17600000D01*
X10013042Y-17599290D01*
X9998724Y-17597166D01*
X9984683Y-17593649D01*
X9971054Y-17588772D01*
X9957969Y-17582583D01*
X9945553Y-17575142D01*
X9933927Y-17566519D01*
X9923202Y-17556798D01*
X9913481Y-17546073D01*
X9904858Y-17534447D01*
X9897417Y-17522031D01*
X9891228Y-17508946D01*
X9886351Y-17495317D01*
X9882834Y-17481276D01*
X9880710Y-17466958D01*
X9880000Y-17452500D01*
X9880000Y-17157500D01*
X9880710Y-17143042D01*
X9882834Y-17128724D01*
X9886351Y-17114683D01*
X9891228Y-17101054D01*
X9897417Y-17087969D01*
X9904858Y-17075553D01*
X9913481Y-17063927D01*
X9923202Y-17053202D01*
X9933927Y-17043481D01*
X9945553Y-17034858D01*
X9957969Y-17027417D01*
X9971054Y-17021228D01*
X9984683Y-17016351D01*
X9998724Y-17012834D01*
X10013042Y-17010710D01*
X10027500Y-17010000D01*
X10372500Y-17010000D01*
X10386958Y-17010710D01*
X10386958Y-17010710D01*
G37*
D11*
X10200000Y-17305000D03*
G04 #@! TD*
D10*
G04 #@! TO.C,C14*
G36*
X6493958Y-8994710D02*
X6508276Y-8996834D01*
X6522317Y-9000351D01*
X6535946Y-9005228D01*
X6549031Y-9011417D01*
X6561447Y-9018858D01*
X6573073Y-9027481D01*
X6583798Y-9037202D01*
X6593519Y-9047927D01*
X6602142Y-9059553D01*
X6609583Y-9071969D01*
X6615772Y-9085054D01*
X6620649Y-9098683D01*
X6624166Y-9112724D01*
X6626290Y-9127042D01*
X6627000Y-9141500D01*
X6627000Y-9486500D01*
X6626290Y-9500958D01*
X6624166Y-9515276D01*
X6620649Y-9529317D01*
X6615772Y-9542946D01*
X6609583Y-9556031D01*
X6602142Y-9568447D01*
X6593519Y-9580073D01*
X6583798Y-9590798D01*
X6573073Y-9600519D01*
X6561447Y-9609142D01*
X6549031Y-9616583D01*
X6535946Y-9622772D01*
X6522317Y-9627649D01*
X6508276Y-9631166D01*
X6493958Y-9633290D01*
X6479500Y-9634000D01*
X6184500Y-9634000D01*
X6170042Y-9633290D01*
X6155724Y-9631166D01*
X6141683Y-9627649D01*
X6128054Y-9622772D01*
X6114969Y-9616583D01*
X6102553Y-9609142D01*
X6090927Y-9600519D01*
X6080202Y-9590798D01*
X6070481Y-9580073D01*
X6061858Y-9568447D01*
X6054417Y-9556031D01*
X6048228Y-9542946D01*
X6043351Y-9529317D01*
X6039834Y-9515276D01*
X6037710Y-9500958D01*
X6037000Y-9486500D01*
X6037000Y-9141500D01*
X6037710Y-9127042D01*
X6039834Y-9112724D01*
X6043351Y-9098683D01*
X6048228Y-9085054D01*
X6054417Y-9071969D01*
X6061858Y-9059553D01*
X6070481Y-9047927D01*
X6080202Y-9037202D01*
X6090927Y-9027481D01*
X6102553Y-9018858D01*
X6114969Y-9011417D01*
X6128054Y-9005228D01*
X6141683Y-9000351D01*
X6155724Y-8996834D01*
X6170042Y-8994710D01*
X6184500Y-8994000D01*
X6479500Y-8994000D01*
X6493958Y-8994710D01*
X6493958Y-8994710D01*
G37*
D11*
X6332000Y-9314000D03*
D10*
G36*
X5523958Y-8994710D02*
X5538276Y-8996834D01*
X5552317Y-9000351D01*
X5565946Y-9005228D01*
X5579031Y-9011417D01*
X5591447Y-9018858D01*
X5603073Y-9027481D01*
X5613798Y-9037202D01*
X5623519Y-9047927D01*
X5632142Y-9059553D01*
X5639583Y-9071969D01*
X5645772Y-9085054D01*
X5650649Y-9098683D01*
X5654166Y-9112724D01*
X5656290Y-9127042D01*
X5657000Y-9141500D01*
X5657000Y-9486500D01*
X5656290Y-9500958D01*
X5654166Y-9515276D01*
X5650649Y-9529317D01*
X5645772Y-9542946D01*
X5639583Y-9556031D01*
X5632142Y-9568447D01*
X5623519Y-9580073D01*
X5613798Y-9590798D01*
X5603073Y-9600519D01*
X5591447Y-9609142D01*
X5579031Y-9616583D01*
X5565946Y-9622772D01*
X5552317Y-9627649D01*
X5538276Y-9631166D01*
X5523958Y-9633290D01*
X5509500Y-9634000D01*
X5214500Y-9634000D01*
X5200042Y-9633290D01*
X5185724Y-9631166D01*
X5171683Y-9627649D01*
X5158054Y-9622772D01*
X5144969Y-9616583D01*
X5132553Y-9609142D01*
X5120927Y-9600519D01*
X5110202Y-9590798D01*
X5100481Y-9580073D01*
X5091858Y-9568447D01*
X5084417Y-9556031D01*
X5078228Y-9542946D01*
X5073351Y-9529317D01*
X5069834Y-9515276D01*
X5067710Y-9500958D01*
X5067000Y-9486500D01*
X5067000Y-9141500D01*
X5067710Y-9127042D01*
X5069834Y-9112724D01*
X5073351Y-9098683D01*
X5078228Y-9085054D01*
X5084417Y-9071969D01*
X5091858Y-9059553D01*
X5100481Y-9047927D01*
X5110202Y-9037202D01*
X5120927Y-9027481D01*
X5132553Y-9018858D01*
X5144969Y-9011417D01*
X5158054Y-9005228D01*
X5171683Y-9000351D01*
X5185724Y-8996834D01*
X5200042Y-8994710D01*
X5214500Y-8994000D01*
X5509500Y-8994000D01*
X5523958Y-8994710D01*
X5523958Y-8994710D01*
G37*
D11*
X5362000Y-9314000D03*
G04 #@! TD*
D10*
G04 #@! TO.C,C1*
G36*
X8093958Y-13005710D02*
X8108276Y-13007834D01*
X8122317Y-13011351D01*
X8135946Y-13016228D01*
X8149031Y-13022417D01*
X8161447Y-13029858D01*
X8173073Y-13038481D01*
X8183798Y-13048202D01*
X8193519Y-13058927D01*
X8202142Y-13070553D01*
X8209583Y-13082969D01*
X8215772Y-13096054D01*
X8220649Y-13109683D01*
X8224166Y-13123724D01*
X8226290Y-13138042D01*
X8227000Y-13152500D01*
X8227000Y-13447500D01*
X8226290Y-13461958D01*
X8224166Y-13476276D01*
X8220649Y-13490317D01*
X8215772Y-13503946D01*
X8209583Y-13517031D01*
X8202142Y-13529447D01*
X8193519Y-13541073D01*
X8183798Y-13551798D01*
X8173073Y-13561519D01*
X8161447Y-13570142D01*
X8149031Y-13577583D01*
X8135946Y-13583772D01*
X8122317Y-13588649D01*
X8108276Y-13592166D01*
X8093958Y-13594290D01*
X8079500Y-13595000D01*
X7734500Y-13595000D01*
X7720042Y-13594290D01*
X7705724Y-13592166D01*
X7691683Y-13588649D01*
X7678054Y-13583772D01*
X7664969Y-13577583D01*
X7652553Y-13570142D01*
X7640927Y-13561519D01*
X7630202Y-13551798D01*
X7620481Y-13541073D01*
X7611858Y-13529447D01*
X7604417Y-13517031D01*
X7598228Y-13503946D01*
X7593351Y-13490317D01*
X7589834Y-13476276D01*
X7587710Y-13461958D01*
X7587000Y-13447500D01*
X7587000Y-13152500D01*
X7587710Y-13138042D01*
X7589834Y-13123724D01*
X7593351Y-13109683D01*
X7598228Y-13096054D01*
X7604417Y-13082969D01*
X7611858Y-13070553D01*
X7620481Y-13058927D01*
X7630202Y-13048202D01*
X7640927Y-13038481D01*
X7652553Y-13029858D01*
X7664969Y-13022417D01*
X7678054Y-13016228D01*
X7691683Y-13011351D01*
X7705724Y-13007834D01*
X7720042Y-13005710D01*
X7734500Y-13005000D01*
X8079500Y-13005000D01*
X8093958Y-13005710D01*
X8093958Y-13005710D01*
G37*
D11*
X7907000Y-13300000D03*
D10*
G36*
X8093958Y-13975710D02*
X8108276Y-13977834D01*
X8122317Y-13981351D01*
X8135946Y-13986228D01*
X8149031Y-13992417D01*
X8161447Y-13999858D01*
X8173073Y-14008481D01*
X8183798Y-14018202D01*
X8193519Y-14028927D01*
X8202142Y-14040553D01*
X8209583Y-14052969D01*
X8215772Y-14066054D01*
X8220649Y-14079683D01*
X8224166Y-14093724D01*
X8226290Y-14108042D01*
X8227000Y-14122500D01*
X8227000Y-14417500D01*
X8226290Y-14431958D01*
X8224166Y-14446276D01*
X8220649Y-14460317D01*
X8215772Y-14473946D01*
X8209583Y-14487031D01*
X8202142Y-14499447D01*
X8193519Y-14511073D01*
X8183798Y-14521798D01*
X8173073Y-14531519D01*
X8161447Y-14540142D01*
X8149031Y-14547583D01*
X8135946Y-14553772D01*
X8122317Y-14558649D01*
X8108276Y-14562166D01*
X8093958Y-14564290D01*
X8079500Y-14565000D01*
X7734500Y-14565000D01*
X7720042Y-14564290D01*
X7705724Y-14562166D01*
X7691683Y-14558649D01*
X7678054Y-14553772D01*
X7664969Y-14547583D01*
X7652553Y-14540142D01*
X7640927Y-14531519D01*
X7630202Y-14521798D01*
X7620481Y-14511073D01*
X7611858Y-14499447D01*
X7604417Y-14487031D01*
X7598228Y-14473946D01*
X7593351Y-14460317D01*
X7589834Y-14446276D01*
X7587710Y-14431958D01*
X7587000Y-14417500D01*
X7587000Y-14122500D01*
X7587710Y-14108042D01*
X7589834Y-14093724D01*
X7593351Y-14079683D01*
X7598228Y-14066054D01*
X7604417Y-14052969D01*
X7611858Y-14040553D01*
X7620481Y-14028927D01*
X7630202Y-14018202D01*
X7640927Y-14008481D01*
X7652553Y-13999858D01*
X7664969Y-13992417D01*
X7678054Y-13986228D01*
X7691683Y-13981351D01*
X7705724Y-13977834D01*
X7720042Y-13975710D01*
X7734500Y-13975000D01*
X8079500Y-13975000D01*
X8093958Y-13975710D01*
X8093958Y-13975710D01*
G37*
D11*
X7907000Y-14270000D03*
G04 #@! TD*
D10*
G04 #@! TO.C,R11*
G36*
X3386958Y-12750710D02*
X3401276Y-12752834D01*
X3415317Y-12756351D01*
X3428946Y-12761228D01*
X3442031Y-12767417D01*
X3454447Y-12774858D01*
X3466073Y-12783481D01*
X3476798Y-12793202D01*
X3486519Y-12803927D01*
X3495142Y-12815553D01*
X3502583Y-12827969D01*
X3508772Y-12841054D01*
X3513649Y-12854683D01*
X3517166Y-12868724D01*
X3519290Y-12883042D01*
X3520000Y-12897500D01*
X3520000Y-13242500D01*
X3519290Y-13256958D01*
X3517166Y-13271276D01*
X3513649Y-13285317D01*
X3508772Y-13298946D01*
X3502583Y-13312031D01*
X3495142Y-13324447D01*
X3486519Y-13336073D01*
X3476798Y-13346798D01*
X3466073Y-13356519D01*
X3454447Y-13365142D01*
X3442031Y-13372583D01*
X3428946Y-13378772D01*
X3415317Y-13383649D01*
X3401276Y-13387166D01*
X3386958Y-13389290D01*
X3372500Y-13390000D01*
X3077500Y-13390000D01*
X3063042Y-13389290D01*
X3048724Y-13387166D01*
X3034683Y-13383649D01*
X3021054Y-13378772D01*
X3007969Y-13372583D01*
X2995553Y-13365142D01*
X2983927Y-13356519D01*
X2973202Y-13346798D01*
X2963481Y-13336073D01*
X2954858Y-13324447D01*
X2947417Y-13312031D01*
X2941228Y-13298946D01*
X2936351Y-13285317D01*
X2932834Y-13271276D01*
X2930710Y-13256958D01*
X2930000Y-13242500D01*
X2930000Y-12897500D01*
X2930710Y-12883042D01*
X2932834Y-12868724D01*
X2936351Y-12854683D01*
X2941228Y-12841054D01*
X2947417Y-12827969D01*
X2954858Y-12815553D01*
X2963481Y-12803927D01*
X2973202Y-12793202D01*
X2983927Y-12783481D01*
X2995553Y-12774858D01*
X3007969Y-12767417D01*
X3021054Y-12761228D01*
X3034683Y-12756351D01*
X3048724Y-12752834D01*
X3063042Y-12750710D01*
X3077500Y-12750000D01*
X3372500Y-12750000D01*
X3386958Y-12750710D01*
X3386958Y-12750710D01*
G37*
D11*
X3225000Y-13070000D03*
D10*
G36*
X4356958Y-12750710D02*
X4371276Y-12752834D01*
X4385317Y-12756351D01*
X4398946Y-12761228D01*
X4412031Y-12767417D01*
X4424447Y-12774858D01*
X4436073Y-12783481D01*
X4446798Y-12793202D01*
X4456519Y-12803927D01*
X4465142Y-12815553D01*
X4472583Y-12827969D01*
X4478772Y-12841054D01*
X4483649Y-12854683D01*
X4487166Y-12868724D01*
X4489290Y-12883042D01*
X4490000Y-12897500D01*
X4490000Y-13242500D01*
X4489290Y-13256958D01*
X4487166Y-13271276D01*
X4483649Y-13285317D01*
X4478772Y-13298946D01*
X4472583Y-13312031D01*
X4465142Y-13324447D01*
X4456519Y-13336073D01*
X4446798Y-13346798D01*
X4436073Y-13356519D01*
X4424447Y-13365142D01*
X4412031Y-13372583D01*
X4398946Y-13378772D01*
X4385317Y-13383649D01*
X4371276Y-13387166D01*
X4356958Y-13389290D01*
X4342500Y-13390000D01*
X4047500Y-13390000D01*
X4033042Y-13389290D01*
X4018724Y-13387166D01*
X4004683Y-13383649D01*
X3991054Y-13378772D01*
X3977969Y-13372583D01*
X3965553Y-13365142D01*
X3953927Y-13356519D01*
X3943202Y-13346798D01*
X3933481Y-13336073D01*
X3924858Y-13324447D01*
X3917417Y-13312031D01*
X3911228Y-13298946D01*
X3906351Y-13285317D01*
X3902834Y-13271276D01*
X3900710Y-13256958D01*
X3900000Y-13242500D01*
X3900000Y-12897500D01*
X3900710Y-12883042D01*
X3902834Y-12868724D01*
X3906351Y-12854683D01*
X3911228Y-12841054D01*
X3917417Y-12827969D01*
X3924858Y-12815553D01*
X3933481Y-12803927D01*
X3943202Y-12793202D01*
X3953927Y-12783481D01*
X3965553Y-12774858D01*
X3977969Y-12767417D01*
X3991054Y-12761228D01*
X4004683Y-12756351D01*
X4018724Y-12752834D01*
X4033042Y-12750710D01*
X4047500Y-12750000D01*
X4342500Y-12750000D01*
X4356958Y-12750710D01*
X4356958Y-12750710D01*
G37*
D11*
X4195000Y-13070000D03*
G04 #@! TD*
D10*
G04 #@! TO.C,R9*
G36*
X5523958Y-11024710D02*
X5538276Y-11026834D01*
X5552317Y-11030351D01*
X5565946Y-11035228D01*
X5579031Y-11041417D01*
X5591447Y-11048858D01*
X5603073Y-11057481D01*
X5613798Y-11067202D01*
X5623519Y-11077927D01*
X5632142Y-11089553D01*
X5639583Y-11101969D01*
X5645772Y-11115054D01*
X5650649Y-11128683D01*
X5654166Y-11142724D01*
X5656290Y-11157042D01*
X5657000Y-11171500D01*
X5657000Y-11516500D01*
X5656290Y-11530958D01*
X5654166Y-11545276D01*
X5650649Y-11559317D01*
X5645772Y-11572946D01*
X5639583Y-11586031D01*
X5632142Y-11598447D01*
X5623519Y-11610073D01*
X5613798Y-11620798D01*
X5603073Y-11630519D01*
X5591447Y-11639142D01*
X5579031Y-11646583D01*
X5565946Y-11652772D01*
X5552317Y-11657649D01*
X5538276Y-11661166D01*
X5523958Y-11663290D01*
X5509500Y-11664000D01*
X5214500Y-11664000D01*
X5200042Y-11663290D01*
X5185724Y-11661166D01*
X5171683Y-11657649D01*
X5158054Y-11652772D01*
X5144969Y-11646583D01*
X5132553Y-11639142D01*
X5120927Y-11630519D01*
X5110202Y-11620798D01*
X5100481Y-11610073D01*
X5091858Y-11598447D01*
X5084417Y-11586031D01*
X5078228Y-11572946D01*
X5073351Y-11559317D01*
X5069834Y-11545276D01*
X5067710Y-11530958D01*
X5067000Y-11516500D01*
X5067000Y-11171500D01*
X5067710Y-11157042D01*
X5069834Y-11142724D01*
X5073351Y-11128683D01*
X5078228Y-11115054D01*
X5084417Y-11101969D01*
X5091858Y-11089553D01*
X5100481Y-11077927D01*
X5110202Y-11067202D01*
X5120927Y-11057481D01*
X5132553Y-11048858D01*
X5144969Y-11041417D01*
X5158054Y-11035228D01*
X5171683Y-11030351D01*
X5185724Y-11026834D01*
X5200042Y-11024710D01*
X5214500Y-11024000D01*
X5509500Y-11024000D01*
X5523958Y-11024710D01*
X5523958Y-11024710D01*
G37*
D11*
X5362000Y-11344000D03*
D10*
G36*
X6493958Y-11024710D02*
X6508276Y-11026834D01*
X6522317Y-11030351D01*
X6535946Y-11035228D01*
X6549031Y-11041417D01*
X6561447Y-11048858D01*
X6573073Y-11057481D01*
X6583798Y-11067202D01*
X6593519Y-11077927D01*
X6602142Y-11089553D01*
X6609583Y-11101969D01*
X6615772Y-11115054D01*
X6620649Y-11128683D01*
X6624166Y-11142724D01*
X6626290Y-11157042D01*
X6627000Y-11171500D01*
X6627000Y-11516500D01*
X6626290Y-11530958D01*
X6624166Y-11545276D01*
X6620649Y-11559317D01*
X6615772Y-11572946D01*
X6609583Y-11586031D01*
X6602142Y-11598447D01*
X6593519Y-11610073D01*
X6583798Y-11620798D01*
X6573073Y-11630519D01*
X6561447Y-11639142D01*
X6549031Y-11646583D01*
X6535946Y-11652772D01*
X6522317Y-11657649D01*
X6508276Y-11661166D01*
X6493958Y-11663290D01*
X6479500Y-11664000D01*
X6184500Y-11664000D01*
X6170042Y-11663290D01*
X6155724Y-11661166D01*
X6141683Y-11657649D01*
X6128054Y-11652772D01*
X6114969Y-11646583D01*
X6102553Y-11639142D01*
X6090927Y-11630519D01*
X6080202Y-11620798D01*
X6070481Y-11610073D01*
X6061858Y-11598447D01*
X6054417Y-11586031D01*
X6048228Y-11572946D01*
X6043351Y-11559317D01*
X6039834Y-11545276D01*
X6037710Y-11530958D01*
X6037000Y-11516500D01*
X6037000Y-11171500D01*
X6037710Y-11157042D01*
X6039834Y-11142724D01*
X6043351Y-11128683D01*
X6048228Y-11115054D01*
X6054417Y-11101969D01*
X6061858Y-11089553D01*
X6070481Y-11077927D01*
X6080202Y-11067202D01*
X6090927Y-11057481D01*
X6102553Y-11048858D01*
X6114969Y-11041417D01*
X6128054Y-11035228D01*
X6141683Y-11030351D01*
X6155724Y-11026834D01*
X6170042Y-11024710D01*
X6184500Y-11024000D01*
X6479500Y-11024000D01*
X6493958Y-11024710D01*
X6493958Y-11024710D01*
G37*
D11*
X6332000Y-11344000D03*
G04 #@! TD*
D10*
G04 #@! TO.C,R8*
G36*
X4672958Y-15746710D02*
X4687276Y-15748834D01*
X4701317Y-15752351D01*
X4714946Y-15757228D01*
X4728031Y-15763417D01*
X4740447Y-15770858D01*
X4752073Y-15779481D01*
X4762798Y-15789202D01*
X4772519Y-15799927D01*
X4781142Y-15811553D01*
X4788583Y-15823969D01*
X4794772Y-15837054D01*
X4799649Y-15850683D01*
X4803166Y-15864724D01*
X4805290Y-15879042D01*
X4806000Y-15893500D01*
X4806000Y-16238500D01*
X4805290Y-16252958D01*
X4803166Y-16267276D01*
X4799649Y-16281317D01*
X4794772Y-16294946D01*
X4788583Y-16308031D01*
X4781142Y-16320447D01*
X4772519Y-16332073D01*
X4762798Y-16342798D01*
X4752073Y-16352519D01*
X4740447Y-16361142D01*
X4728031Y-16368583D01*
X4714946Y-16374772D01*
X4701317Y-16379649D01*
X4687276Y-16383166D01*
X4672958Y-16385290D01*
X4658500Y-16386000D01*
X4363500Y-16386000D01*
X4349042Y-16385290D01*
X4334724Y-16383166D01*
X4320683Y-16379649D01*
X4307054Y-16374772D01*
X4293969Y-16368583D01*
X4281553Y-16361142D01*
X4269927Y-16352519D01*
X4259202Y-16342798D01*
X4249481Y-16332073D01*
X4240858Y-16320447D01*
X4233417Y-16308031D01*
X4227228Y-16294946D01*
X4222351Y-16281317D01*
X4218834Y-16267276D01*
X4216710Y-16252958D01*
X4216000Y-16238500D01*
X4216000Y-15893500D01*
X4216710Y-15879042D01*
X4218834Y-15864724D01*
X4222351Y-15850683D01*
X4227228Y-15837054D01*
X4233417Y-15823969D01*
X4240858Y-15811553D01*
X4249481Y-15799927D01*
X4259202Y-15789202D01*
X4269927Y-15779481D01*
X4281553Y-15770858D01*
X4293969Y-15763417D01*
X4307054Y-15757228D01*
X4320683Y-15752351D01*
X4334724Y-15748834D01*
X4349042Y-15746710D01*
X4363500Y-15746000D01*
X4658500Y-15746000D01*
X4672958Y-15746710D01*
X4672958Y-15746710D01*
G37*
D11*
X4511000Y-16066000D03*
D10*
G36*
X5642958Y-15746710D02*
X5657276Y-15748834D01*
X5671317Y-15752351D01*
X5684946Y-15757228D01*
X5698031Y-15763417D01*
X5710447Y-15770858D01*
X5722073Y-15779481D01*
X5732798Y-15789202D01*
X5742519Y-15799927D01*
X5751142Y-15811553D01*
X5758583Y-15823969D01*
X5764772Y-15837054D01*
X5769649Y-15850683D01*
X5773166Y-15864724D01*
X5775290Y-15879042D01*
X5776000Y-15893500D01*
X5776000Y-16238500D01*
X5775290Y-16252958D01*
X5773166Y-16267276D01*
X5769649Y-16281317D01*
X5764772Y-16294946D01*
X5758583Y-16308031D01*
X5751142Y-16320447D01*
X5742519Y-16332073D01*
X5732798Y-16342798D01*
X5722073Y-16352519D01*
X5710447Y-16361142D01*
X5698031Y-16368583D01*
X5684946Y-16374772D01*
X5671317Y-16379649D01*
X5657276Y-16383166D01*
X5642958Y-16385290D01*
X5628500Y-16386000D01*
X5333500Y-16386000D01*
X5319042Y-16385290D01*
X5304724Y-16383166D01*
X5290683Y-16379649D01*
X5277054Y-16374772D01*
X5263969Y-16368583D01*
X5251553Y-16361142D01*
X5239927Y-16352519D01*
X5229202Y-16342798D01*
X5219481Y-16332073D01*
X5210858Y-16320447D01*
X5203417Y-16308031D01*
X5197228Y-16294946D01*
X5192351Y-16281317D01*
X5188834Y-16267276D01*
X5186710Y-16252958D01*
X5186000Y-16238500D01*
X5186000Y-15893500D01*
X5186710Y-15879042D01*
X5188834Y-15864724D01*
X5192351Y-15850683D01*
X5197228Y-15837054D01*
X5203417Y-15823969D01*
X5210858Y-15811553D01*
X5219481Y-15799927D01*
X5229202Y-15789202D01*
X5239927Y-15779481D01*
X5251553Y-15770858D01*
X5263969Y-15763417D01*
X5277054Y-15757228D01*
X5290683Y-15752351D01*
X5304724Y-15748834D01*
X5319042Y-15746710D01*
X5333500Y-15746000D01*
X5628500Y-15746000D01*
X5642958Y-15746710D01*
X5642958Y-15746710D01*
G37*
D11*
X5481000Y-16066000D03*
G04 #@! TD*
D10*
G04 #@! TO.C,R7*
G36*
X4662958Y-14656710D02*
X4677276Y-14658834D01*
X4691317Y-14662351D01*
X4704946Y-14667228D01*
X4718031Y-14673417D01*
X4730447Y-14680858D01*
X4742073Y-14689481D01*
X4752798Y-14699202D01*
X4762519Y-14709927D01*
X4771142Y-14721553D01*
X4778583Y-14733969D01*
X4784772Y-14747054D01*
X4789649Y-14760683D01*
X4793166Y-14774724D01*
X4795290Y-14789042D01*
X4796000Y-14803500D01*
X4796000Y-15148500D01*
X4795290Y-15162958D01*
X4793166Y-15177276D01*
X4789649Y-15191317D01*
X4784772Y-15204946D01*
X4778583Y-15218031D01*
X4771142Y-15230447D01*
X4762519Y-15242073D01*
X4752798Y-15252798D01*
X4742073Y-15262519D01*
X4730447Y-15271142D01*
X4718031Y-15278583D01*
X4704946Y-15284772D01*
X4691317Y-15289649D01*
X4677276Y-15293166D01*
X4662958Y-15295290D01*
X4648500Y-15296000D01*
X4353500Y-15296000D01*
X4339042Y-15295290D01*
X4324724Y-15293166D01*
X4310683Y-15289649D01*
X4297054Y-15284772D01*
X4283969Y-15278583D01*
X4271553Y-15271142D01*
X4259927Y-15262519D01*
X4249202Y-15252798D01*
X4239481Y-15242073D01*
X4230858Y-15230447D01*
X4223417Y-15218031D01*
X4217228Y-15204946D01*
X4212351Y-15191317D01*
X4208834Y-15177276D01*
X4206710Y-15162958D01*
X4206000Y-15148500D01*
X4206000Y-14803500D01*
X4206710Y-14789042D01*
X4208834Y-14774724D01*
X4212351Y-14760683D01*
X4217228Y-14747054D01*
X4223417Y-14733969D01*
X4230858Y-14721553D01*
X4239481Y-14709927D01*
X4249202Y-14699202D01*
X4259927Y-14689481D01*
X4271553Y-14680858D01*
X4283969Y-14673417D01*
X4297054Y-14667228D01*
X4310683Y-14662351D01*
X4324724Y-14658834D01*
X4339042Y-14656710D01*
X4353500Y-14656000D01*
X4648500Y-14656000D01*
X4662958Y-14656710D01*
X4662958Y-14656710D01*
G37*
D11*
X4501000Y-14976000D03*
D10*
G36*
X5632958Y-14656710D02*
X5647276Y-14658834D01*
X5661317Y-14662351D01*
X5674946Y-14667228D01*
X5688031Y-14673417D01*
X5700447Y-14680858D01*
X5712073Y-14689481D01*
X5722798Y-14699202D01*
X5732519Y-14709927D01*
X5741142Y-14721553D01*
X5748583Y-14733969D01*
X5754772Y-14747054D01*
X5759649Y-14760683D01*
X5763166Y-14774724D01*
X5765290Y-14789042D01*
X5766000Y-14803500D01*
X5766000Y-15148500D01*
X5765290Y-15162958D01*
X5763166Y-15177276D01*
X5759649Y-15191317D01*
X5754772Y-15204946D01*
X5748583Y-15218031D01*
X5741142Y-15230447D01*
X5732519Y-15242073D01*
X5722798Y-15252798D01*
X5712073Y-15262519D01*
X5700447Y-15271142D01*
X5688031Y-15278583D01*
X5674946Y-15284772D01*
X5661317Y-15289649D01*
X5647276Y-15293166D01*
X5632958Y-15295290D01*
X5618500Y-15296000D01*
X5323500Y-15296000D01*
X5309042Y-15295290D01*
X5294724Y-15293166D01*
X5280683Y-15289649D01*
X5267054Y-15284772D01*
X5253969Y-15278583D01*
X5241553Y-15271142D01*
X5229927Y-15262519D01*
X5219202Y-15252798D01*
X5209481Y-15242073D01*
X5200858Y-15230447D01*
X5193417Y-15218031D01*
X5187228Y-15204946D01*
X5182351Y-15191317D01*
X5178834Y-15177276D01*
X5176710Y-15162958D01*
X5176000Y-15148500D01*
X5176000Y-14803500D01*
X5176710Y-14789042D01*
X5178834Y-14774724D01*
X5182351Y-14760683D01*
X5187228Y-14747054D01*
X5193417Y-14733969D01*
X5200858Y-14721553D01*
X5209481Y-14709927D01*
X5219202Y-14699202D01*
X5229927Y-14689481D01*
X5241553Y-14680858D01*
X5253969Y-14673417D01*
X5267054Y-14667228D01*
X5280683Y-14662351D01*
X5294724Y-14658834D01*
X5309042Y-14656710D01*
X5323500Y-14656000D01*
X5618500Y-14656000D01*
X5632958Y-14656710D01*
X5632958Y-14656710D01*
G37*
D11*
X5471000Y-14976000D03*
G04 #@! TD*
D10*
G04 #@! TO.C,R5*
G36*
X14506958Y-1810710D02*
X14521276Y-1812834D01*
X14535317Y-1816351D01*
X14548946Y-1821228D01*
X14562031Y-1827417D01*
X14574447Y-1834858D01*
X14586073Y-1843481D01*
X14596798Y-1853202D01*
X14606519Y-1863927D01*
X14615142Y-1875553D01*
X14622583Y-1887969D01*
X14628772Y-1901054D01*
X14633649Y-1914683D01*
X14637166Y-1928724D01*
X14639290Y-1943042D01*
X14640000Y-1957500D01*
X14640000Y-2252500D01*
X14639290Y-2266958D01*
X14637166Y-2281276D01*
X14633649Y-2295317D01*
X14628772Y-2308946D01*
X14622583Y-2322031D01*
X14615142Y-2334447D01*
X14606519Y-2346073D01*
X14596798Y-2356798D01*
X14586073Y-2366519D01*
X14574447Y-2375142D01*
X14562031Y-2382583D01*
X14548946Y-2388772D01*
X14535317Y-2393649D01*
X14521276Y-2397166D01*
X14506958Y-2399290D01*
X14492500Y-2400000D01*
X14147500Y-2400000D01*
X14133042Y-2399290D01*
X14118724Y-2397166D01*
X14104683Y-2393649D01*
X14091054Y-2388772D01*
X14077969Y-2382583D01*
X14065553Y-2375142D01*
X14053927Y-2366519D01*
X14043202Y-2356798D01*
X14033481Y-2346073D01*
X14024858Y-2334447D01*
X14017417Y-2322031D01*
X14011228Y-2308946D01*
X14006351Y-2295317D01*
X14002834Y-2281276D01*
X14000710Y-2266958D01*
X14000000Y-2252500D01*
X14000000Y-1957500D01*
X14000710Y-1943042D01*
X14002834Y-1928724D01*
X14006351Y-1914683D01*
X14011228Y-1901054D01*
X14017417Y-1887969D01*
X14024858Y-1875553D01*
X14033481Y-1863927D01*
X14043202Y-1853202D01*
X14053927Y-1843481D01*
X14065553Y-1834858D01*
X14077969Y-1827417D01*
X14091054Y-1821228D01*
X14104683Y-1816351D01*
X14118724Y-1812834D01*
X14133042Y-1810710D01*
X14147500Y-1810000D01*
X14492500Y-1810000D01*
X14506958Y-1810710D01*
X14506958Y-1810710D01*
G37*
D11*
X14320000Y-2105000D03*
D10*
G36*
X14506958Y-2780710D02*
X14521276Y-2782834D01*
X14535317Y-2786351D01*
X14548946Y-2791228D01*
X14562031Y-2797417D01*
X14574447Y-2804858D01*
X14586073Y-2813481D01*
X14596798Y-2823202D01*
X14606519Y-2833927D01*
X14615142Y-2845553D01*
X14622583Y-2857969D01*
X14628772Y-2871054D01*
X14633649Y-2884683D01*
X14637166Y-2898724D01*
X14639290Y-2913042D01*
X14640000Y-2927500D01*
X14640000Y-3222500D01*
X14639290Y-3236958D01*
X14637166Y-3251276D01*
X14633649Y-3265317D01*
X14628772Y-3278946D01*
X14622583Y-3292031D01*
X14615142Y-3304447D01*
X14606519Y-3316073D01*
X14596798Y-3326798D01*
X14586073Y-3336519D01*
X14574447Y-3345142D01*
X14562031Y-3352583D01*
X14548946Y-3358772D01*
X14535317Y-3363649D01*
X14521276Y-3367166D01*
X14506958Y-3369290D01*
X14492500Y-3370000D01*
X14147500Y-3370000D01*
X14133042Y-3369290D01*
X14118724Y-3367166D01*
X14104683Y-3363649D01*
X14091054Y-3358772D01*
X14077969Y-3352583D01*
X14065553Y-3345142D01*
X14053927Y-3336519D01*
X14043202Y-3326798D01*
X14033481Y-3316073D01*
X14024858Y-3304447D01*
X14017417Y-3292031D01*
X14011228Y-3278946D01*
X14006351Y-3265317D01*
X14002834Y-3251276D01*
X14000710Y-3236958D01*
X14000000Y-3222500D01*
X14000000Y-2927500D01*
X14000710Y-2913042D01*
X14002834Y-2898724D01*
X14006351Y-2884683D01*
X14011228Y-2871054D01*
X14017417Y-2857969D01*
X14024858Y-2845553D01*
X14033481Y-2833927D01*
X14043202Y-2823202D01*
X14053927Y-2813481D01*
X14065553Y-2804858D01*
X14077969Y-2797417D01*
X14091054Y-2791228D01*
X14104683Y-2786351D01*
X14118724Y-2782834D01*
X14133042Y-2780710D01*
X14147500Y-2780000D01*
X14492500Y-2780000D01*
X14506958Y-2780710D01*
X14506958Y-2780710D01*
G37*
D11*
X14320000Y-3075000D03*
G04 #@! TD*
D10*
G04 #@! TO.C,R4*
G36*
X13386958Y-17840710D02*
X13401276Y-17842834D01*
X13415317Y-17846351D01*
X13428946Y-17851228D01*
X13442031Y-17857417D01*
X13454447Y-17864858D01*
X13466073Y-17873481D01*
X13476798Y-17883202D01*
X13486519Y-17893927D01*
X13495142Y-17905553D01*
X13502583Y-17917969D01*
X13508772Y-17931054D01*
X13513649Y-17944683D01*
X13517166Y-17958724D01*
X13519290Y-17973042D01*
X13520000Y-17987500D01*
X13520000Y-18282500D01*
X13519290Y-18296958D01*
X13517166Y-18311276D01*
X13513649Y-18325317D01*
X13508772Y-18338946D01*
X13502583Y-18352031D01*
X13495142Y-18364447D01*
X13486519Y-18376073D01*
X13476798Y-18386798D01*
X13466073Y-18396519D01*
X13454447Y-18405142D01*
X13442031Y-18412583D01*
X13428946Y-18418772D01*
X13415317Y-18423649D01*
X13401276Y-18427166D01*
X13386958Y-18429290D01*
X13372500Y-18430000D01*
X13027500Y-18430000D01*
X13013042Y-18429290D01*
X12998724Y-18427166D01*
X12984683Y-18423649D01*
X12971054Y-18418772D01*
X12957969Y-18412583D01*
X12945553Y-18405142D01*
X12933927Y-18396519D01*
X12923202Y-18386798D01*
X12913481Y-18376073D01*
X12904858Y-18364447D01*
X12897417Y-18352031D01*
X12891228Y-18338946D01*
X12886351Y-18325317D01*
X12882834Y-18311276D01*
X12880710Y-18296958D01*
X12880000Y-18282500D01*
X12880000Y-17987500D01*
X12880710Y-17973042D01*
X12882834Y-17958724D01*
X12886351Y-17944683D01*
X12891228Y-17931054D01*
X12897417Y-17917969D01*
X12904858Y-17905553D01*
X12913481Y-17893927D01*
X12923202Y-17883202D01*
X12933927Y-17873481D01*
X12945553Y-17864858D01*
X12957969Y-17857417D01*
X12971054Y-17851228D01*
X12984683Y-17846351D01*
X12998724Y-17842834D01*
X13013042Y-17840710D01*
X13027500Y-17840000D01*
X13372500Y-17840000D01*
X13386958Y-17840710D01*
X13386958Y-17840710D01*
G37*
D11*
X13200000Y-18135000D03*
D10*
G36*
X13386958Y-18810710D02*
X13401276Y-18812834D01*
X13415317Y-18816351D01*
X13428946Y-18821228D01*
X13442031Y-18827417D01*
X13454447Y-18834858D01*
X13466073Y-18843481D01*
X13476798Y-18853202D01*
X13486519Y-18863927D01*
X13495142Y-18875553D01*
X13502583Y-18887969D01*
X13508772Y-18901054D01*
X13513649Y-18914683D01*
X13517166Y-18928724D01*
X13519290Y-18943042D01*
X13520000Y-18957500D01*
X13520000Y-19252500D01*
X13519290Y-19266958D01*
X13517166Y-19281276D01*
X13513649Y-19295317D01*
X13508772Y-19308946D01*
X13502583Y-19322031D01*
X13495142Y-19334447D01*
X13486519Y-19346073D01*
X13476798Y-19356798D01*
X13466073Y-19366519D01*
X13454447Y-19375142D01*
X13442031Y-19382583D01*
X13428946Y-19388772D01*
X13415317Y-19393649D01*
X13401276Y-19397166D01*
X13386958Y-19399290D01*
X13372500Y-19400000D01*
X13027500Y-19400000D01*
X13013042Y-19399290D01*
X12998724Y-19397166D01*
X12984683Y-19393649D01*
X12971054Y-19388772D01*
X12957969Y-19382583D01*
X12945553Y-19375142D01*
X12933927Y-19366519D01*
X12923202Y-19356798D01*
X12913481Y-19346073D01*
X12904858Y-19334447D01*
X12897417Y-19322031D01*
X12891228Y-19308946D01*
X12886351Y-19295317D01*
X12882834Y-19281276D01*
X12880710Y-19266958D01*
X12880000Y-19252500D01*
X12880000Y-18957500D01*
X12880710Y-18943042D01*
X12882834Y-18928724D01*
X12886351Y-18914683D01*
X12891228Y-18901054D01*
X12897417Y-18887969D01*
X12904858Y-18875553D01*
X12913481Y-18863927D01*
X12923202Y-18853202D01*
X12933927Y-18843481D01*
X12945553Y-18834858D01*
X12957969Y-18827417D01*
X12971054Y-18821228D01*
X12984683Y-18816351D01*
X12998724Y-18812834D01*
X13013042Y-18810710D01*
X13027500Y-18810000D01*
X13372500Y-18810000D01*
X13386958Y-18810710D01*
X13386958Y-18810710D01*
G37*
D11*
X13200000Y-19105000D03*
G04 #@! TD*
D10*
G04 #@! TO.C,R3*
G36*
X19426958Y-8860710D02*
X19441276Y-8862834D01*
X19455317Y-8866351D01*
X19468946Y-8871228D01*
X19482031Y-8877417D01*
X19494447Y-8884858D01*
X19506073Y-8893481D01*
X19516798Y-8903202D01*
X19526519Y-8913927D01*
X19535142Y-8925553D01*
X19542583Y-8937969D01*
X19548772Y-8951054D01*
X19553649Y-8964683D01*
X19557166Y-8978724D01*
X19559290Y-8993042D01*
X19560000Y-9007500D01*
X19560000Y-9302500D01*
X19559290Y-9316958D01*
X19557166Y-9331276D01*
X19553649Y-9345317D01*
X19548772Y-9358946D01*
X19542583Y-9372031D01*
X19535142Y-9384447D01*
X19526519Y-9396073D01*
X19516798Y-9406798D01*
X19506073Y-9416519D01*
X19494447Y-9425142D01*
X19482031Y-9432583D01*
X19468946Y-9438772D01*
X19455317Y-9443649D01*
X19441276Y-9447166D01*
X19426958Y-9449290D01*
X19412500Y-9450000D01*
X19067500Y-9450000D01*
X19053042Y-9449290D01*
X19038724Y-9447166D01*
X19024683Y-9443649D01*
X19011054Y-9438772D01*
X18997969Y-9432583D01*
X18985553Y-9425142D01*
X18973927Y-9416519D01*
X18963202Y-9406798D01*
X18953481Y-9396073D01*
X18944858Y-9384447D01*
X18937417Y-9372031D01*
X18931228Y-9358946D01*
X18926351Y-9345317D01*
X18922834Y-9331276D01*
X18920710Y-9316958D01*
X18920000Y-9302500D01*
X18920000Y-9007500D01*
X18920710Y-8993042D01*
X18922834Y-8978724D01*
X18926351Y-8964683D01*
X18931228Y-8951054D01*
X18937417Y-8937969D01*
X18944858Y-8925553D01*
X18953481Y-8913927D01*
X18963202Y-8903202D01*
X18973927Y-8893481D01*
X18985553Y-8884858D01*
X18997969Y-8877417D01*
X19011054Y-8871228D01*
X19024683Y-8866351D01*
X19038724Y-8862834D01*
X19053042Y-8860710D01*
X19067500Y-8860000D01*
X19412500Y-8860000D01*
X19426958Y-8860710D01*
X19426958Y-8860710D01*
G37*
D11*
X19240000Y-9155000D03*
D10*
G36*
X19426958Y-9830710D02*
X19441276Y-9832834D01*
X19455317Y-9836351D01*
X19468946Y-9841228D01*
X19482031Y-9847417D01*
X19494447Y-9854858D01*
X19506073Y-9863481D01*
X19516798Y-9873202D01*
X19526519Y-9883927D01*
X19535142Y-9895553D01*
X19542583Y-9907969D01*
X19548772Y-9921054D01*
X19553649Y-9934683D01*
X19557166Y-9948724D01*
X19559290Y-9963042D01*
X19560000Y-9977500D01*
X19560000Y-10272500D01*
X19559290Y-10286958D01*
X19557166Y-10301276D01*
X19553649Y-10315317D01*
X19548772Y-10328946D01*
X19542583Y-10342031D01*
X19535142Y-10354447D01*
X19526519Y-10366073D01*
X19516798Y-10376798D01*
X19506073Y-10386519D01*
X19494447Y-10395142D01*
X19482031Y-10402583D01*
X19468946Y-10408772D01*
X19455317Y-10413649D01*
X19441276Y-10417166D01*
X19426958Y-10419290D01*
X19412500Y-10420000D01*
X19067500Y-10420000D01*
X19053042Y-10419290D01*
X19038724Y-10417166D01*
X19024683Y-10413649D01*
X19011054Y-10408772D01*
X18997969Y-10402583D01*
X18985553Y-10395142D01*
X18973927Y-10386519D01*
X18963202Y-10376798D01*
X18953481Y-10366073D01*
X18944858Y-10354447D01*
X18937417Y-10342031D01*
X18931228Y-10328946D01*
X18926351Y-10315317D01*
X18922834Y-10301276D01*
X18920710Y-10286958D01*
X18920000Y-10272500D01*
X18920000Y-9977500D01*
X18920710Y-9963042D01*
X18922834Y-9948724D01*
X18926351Y-9934683D01*
X18931228Y-9921054D01*
X18937417Y-9907969D01*
X18944858Y-9895553D01*
X18953481Y-9883927D01*
X18963202Y-9873202D01*
X18973927Y-9863481D01*
X18985553Y-9854858D01*
X18997969Y-9847417D01*
X19011054Y-9841228D01*
X19024683Y-9836351D01*
X19038724Y-9832834D01*
X19053042Y-9830710D01*
X19067500Y-9830000D01*
X19412500Y-9830000D01*
X19426958Y-9830710D01*
X19426958Y-9830710D01*
G37*
D11*
X19240000Y-10125000D03*
G04 #@! TD*
D10*
G04 #@! TO.C,R2*
G36*
X16716958Y-17595710D02*
X16731276Y-17597834D01*
X16745317Y-17601351D01*
X16758946Y-17606228D01*
X16772031Y-17612417D01*
X16784447Y-17619858D01*
X16796073Y-17628481D01*
X16806798Y-17638202D01*
X16816519Y-17648927D01*
X16825142Y-17660553D01*
X16832583Y-17672969D01*
X16838772Y-17686054D01*
X16843649Y-17699683D01*
X16847166Y-17713724D01*
X16849290Y-17728042D01*
X16850000Y-17742500D01*
X16850000Y-18037500D01*
X16849290Y-18051958D01*
X16847166Y-18066276D01*
X16843649Y-18080317D01*
X16838772Y-18093946D01*
X16832583Y-18107031D01*
X16825142Y-18119447D01*
X16816519Y-18131073D01*
X16806798Y-18141798D01*
X16796073Y-18151519D01*
X16784447Y-18160142D01*
X16772031Y-18167583D01*
X16758946Y-18173772D01*
X16745317Y-18178649D01*
X16731276Y-18182166D01*
X16716958Y-18184290D01*
X16702500Y-18185000D01*
X16357500Y-18185000D01*
X16343042Y-18184290D01*
X16328724Y-18182166D01*
X16314683Y-18178649D01*
X16301054Y-18173772D01*
X16287969Y-18167583D01*
X16275553Y-18160142D01*
X16263927Y-18151519D01*
X16253202Y-18141798D01*
X16243481Y-18131073D01*
X16234858Y-18119447D01*
X16227417Y-18107031D01*
X16221228Y-18093946D01*
X16216351Y-18080317D01*
X16212834Y-18066276D01*
X16210710Y-18051958D01*
X16210000Y-18037500D01*
X16210000Y-17742500D01*
X16210710Y-17728042D01*
X16212834Y-17713724D01*
X16216351Y-17699683D01*
X16221228Y-17686054D01*
X16227417Y-17672969D01*
X16234858Y-17660553D01*
X16243481Y-17648927D01*
X16253202Y-17638202D01*
X16263927Y-17628481D01*
X16275553Y-17619858D01*
X16287969Y-17612417D01*
X16301054Y-17606228D01*
X16314683Y-17601351D01*
X16328724Y-17597834D01*
X16343042Y-17595710D01*
X16357500Y-17595000D01*
X16702500Y-17595000D01*
X16716958Y-17595710D01*
X16716958Y-17595710D01*
G37*
D11*
X16530000Y-17890000D03*
D10*
G36*
X16716958Y-16625710D02*
X16731276Y-16627834D01*
X16745317Y-16631351D01*
X16758946Y-16636228D01*
X16772031Y-16642417D01*
X16784447Y-16649858D01*
X16796073Y-16658481D01*
X16806798Y-16668202D01*
X16816519Y-16678927D01*
X16825142Y-16690553D01*
X16832583Y-16702969D01*
X16838772Y-16716054D01*
X16843649Y-16729683D01*
X16847166Y-16743724D01*
X16849290Y-16758042D01*
X16850000Y-16772500D01*
X16850000Y-17067500D01*
X16849290Y-17081958D01*
X16847166Y-17096276D01*
X16843649Y-17110317D01*
X16838772Y-17123946D01*
X16832583Y-17137031D01*
X16825142Y-17149447D01*
X16816519Y-17161073D01*
X16806798Y-17171798D01*
X16796073Y-17181519D01*
X16784447Y-17190142D01*
X16772031Y-17197583D01*
X16758946Y-17203772D01*
X16745317Y-17208649D01*
X16731276Y-17212166D01*
X16716958Y-17214290D01*
X16702500Y-17215000D01*
X16357500Y-17215000D01*
X16343042Y-17214290D01*
X16328724Y-17212166D01*
X16314683Y-17208649D01*
X16301054Y-17203772D01*
X16287969Y-17197583D01*
X16275553Y-17190142D01*
X16263927Y-17181519D01*
X16253202Y-17171798D01*
X16243481Y-17161073D01*
X16234858Y-17149447D01*
X16227417Y-17137031D01*
X16221228Y-17123946D01*
X16216351Y-17110317D01*
X16212834Y-17096276D01*
X16210710Y-17081958D01*
X16210000Y-17067500D01*
X16210000Y-16772500D01*
X16210710Y-16758042D01*
X16212834Y-16743724D01*
X16216351Y-16729683D01*
X16221228Y-16716054D01*
X16227417Y-16702969D01*
X16234858Y-16690553D01*
X16243481Y-16678927D01*
X16253202Y-16668202D01*
X16263927Y-16658481D01*
X16275553Y-16649858D01*
X16287969Y-16642417D01*
X16301054Y-16636228D01*
X16314683Y-16631351D01*
X16328724Y-16627834D01*
X16343042Y-16625710D01*
X16357500Y-16625000D01*
X16702500Y-16625000D01*
X16716958Y-16625710D01*
X16716958Y-16625710D01*
G37*
D11*
X16530000Y-16920000D03*
G04 #@! TD*
D10*
G04 #@! TO.C,R1*
G36*
X18986958Y-12840710D02*
X19001276Y-12842834D01*
X19015317Y-12846351D01*
X19028946Y-12851228D01*
X19042031Y-12857417D01*
X19054447Y-12864858D01*
X19066073Y-12873481D01*
X19076798Y-12883202D01*
X19086519Y-12893927D01*
X19095142Y-12905553D01*
X19102583Y-12917969D01*
X19108772Y-12931054D01*
X19113649Y-12944683D01*
X19117166Y-12958724D01*
X19119290Y-12973042D01*
X19120000Y-12987500D01*
X19120000Y-13282500D01*
X19119290Y-13296958D01*
X19117166Y-13311276D01*
X19113649Y-13325317D01*
X19108772Y-13338946D01*
X19102583Y-13352031D01*
X19095142Y-13364447D01*
X19086519Y-13376073D01*
X19076798Y-13386798D01*
X19066073Y-13396519D01*
X19054447Y-13405142D01*
X19042031Y-13412583D01*
X19028946Y-13418772D01*
X19015317Y-13423649D01*
X19001276Y-13427166D01*
X18986958Y-13429290D01*
X18972500Y-13430000D01*
X18627500Y-13430000D01*
X18613042Y-13429290D01*
X18598724Y-13427166D01*
X18584683Y-13423649D01*
X18571054Y-13418772D01*
X18557969Y-13412583D01*
X18545553Y-13405142D01*
X18533927Y-13396519D01*
X18523202Y-13386798D01*
X18513481Y-13376073D01*
X18504858Y-13364447D01*
X18497417Y-13352031D01*
X18491228Y-13338946D01*
X18486351Y-13325317D01*
X18482834Y-13311276D01*
X18480710Y-13296958D01*
X18480000Y-13282500D01*
X18480000Y-12987500D01*
X18480710Y-12973042D01*
X18482834Y-12958724D01*
X18486351Y-12944683D01*
X18491228Y-12931054D01*
X18497417Y-12917969D01*
X18504858Y-12905553D01*
X18513481Y-12893927D01*
X18523202Y-12883202D01*
X18533927Y-12873481D01*
X18545553Y-12864858D01*
X18557969Y-12857417D01*
X18571054Y-12851228D01*
X18584683Y-12846351D01*
X18598724Y-12842834D01*
X18613042Y-12840710D01*
X18627500Y-12840000D01*
X18972500Y-12840000D01*
X18986958Y-12840710D01*
X18986958Y-12840710D01*
G37*
D11*
X18800000Y-13135000D03*
D10*
G36*
X18986958Y-13810710D02*
X19001276Y-13812834D01*
X19015317Y-13816351D01*
X19028946Y-13821228D01*
X19042031Y-13827417D01*
X19054447Y-13834858D01*
X19066073Y-13843481D01*
X19076798Y-13853202D01*
X19086519Y-13863927D01*
X19095142Y-13875553D01*
X19102583Y-13887969D01*
X19108772Y-13901054D01*
X19113649Y-13914683D01*
X19117166Y-13928724D01*
X19119290Y-13943042D01*
X19120000Y-13957500D01*
X19120000Y-14252500D01*
X19119290Y-14266958D01*
X19117166Y-14281276D01*
X19113649Y-14295317D01*
X19108772Y-14308946D01*
X19102583Y-14322031D01*
X19095142Y-14334447D01*
X19086519Y-14346073D01*
X19076798Y-14356798D01*
X19066073Y-14366519D01*
X19054447Y-14375142D01*
X19042031Y-14382583D01*
X19028946Y-14388772D01*
X19015317Y-14393649D01*
X19001276Y-14397166D01*
X18986958Y-14399290D01*
X18972500Y-14400000D01*
X18627500Y-14400000D01*
X18613042Y-14399290D01*
X18598724Y-14397166D01*
X18584683Y-14393649D01*
X18571054Y-14388772D01*
X18557969Y-14382583D01*
X18545553Y-14375142D01*
X18533927Y-14366519D01*
X18523202Y-14356798D01*
X18513481Y-14346073D01*
X18504858Y-14334447D01*
X18497417Y-14322031D01*
X18491228Y-14308946D01*
X18486351Y-14295317D01*
X18482834Y-14281276D01*
X18480710Y-14266958D01*
X18480000Y-14252500D01*
X18480000Y-13957500D01*
X18480710Y-13943042D01*
X18482834Y-13928724D01*
X18486351Y-13914683D01*
X18491228Y-13901054D01*
X18497417Y-13887969D01*
X18504858Y-13875553D01*
X18513481Y-13863927D01*
X18523202Y-13853202D01*
X18533927Y-13843481D01*
X18545553Y-13834858D01*
X18557969Y-13827417D01*
X18571054Y-13821228D01*
X18584683Y-13816351D01*
X18598724Y-13812834D01*
X18613042Y-13810710D01*
X18627500Y-13810000D01*
X18972500Y-13810000D01*
X18986958Y-13810710D01*
X18986958Y-13810710D01*
G37*
D11*
X18800000Y-14105000D03*
G04 #@! TD*
D10*
G04 #@! TO.C,C15*
G36*
X6493958Y-10014710D02*
X6508276Y-10016834D01*
X6522317Y-10020351D01*
X6535946Y-10025228D01*
X6549031Y-10031417D01*
X6561447Y-10038858D01*
X6573073Y-10047481D01*
X6583798Y-10057202D01*
X6593519Y-10067927D01*
X6602142Y-10079553D01*
X6609583Y-10091969D01*
X6615772Y-10105054D01*
X6620649Y-10118683D01*
X6624166Y-10132724D01*
X6626290Y-10147042D01*
X6627000Y-10161500D01*
X6627000Y-10506500D01*
X6626290Y-10520958D01*
X6624166Y-10535276D01*
X6620649Y-10549317D01*
X6615772Y-10562946D01*
X6609583Y-10576031D01*
X6602142Y-10588447D01*
X6593519Y-10600073D01*
X6583798Y-10610798D01*
X6573073Y-10620519D01*
X6561447Y-10629142D01*
X6549031Y-10636583D01*
X6535946Y-10642772D01*
X6522317Y-10647649D01*
X6508276Y-10651166D01*
X6493958Y-10653290D01*
X6479500Y-10654000D01*
X6184500Y-10654000D01*
X6170042Y-10653290D01*
X6155724Y-10651166D01*
X6141683Y-10647649D01*
X6128054Y-10642772D01*
X6114969Y-10636583D01*
X6102553Y-10629142D01*
X6090927Y-10620519D01*
X6080202Y-10610798D01*
X6070481Y-10600073D01*
X6061858Y-10588447D01*
X6054417Y-10576031D01*
X6048228Y-10562946D01*
X6043351Y-10549317D01*
X6039834Y-10535276D01*
X6037710Y-10520958D01*
X6037000Y-10506500D01*
X6037000Y-10161500D01*
X6037710Y-10147042D01*
X6039834Y-10132724D01*
X6043351Y-10118683D01*
X6048228Y-10105054D01*
X6054417Y-10091969D01*
X6061858Y-10079553D01*
X6070481Y-10067927D01*
X6080202Y-10057202D01*
X6090927Y-10047481D01*
X6102553Y-10038858D01*
X6114969Y-10031417D01*
X6128054Y-10025228D01*
X6141683Y-10020351D01*
X6155724Y-10016834D01*
X6170042Y-10014710D01*
X6184500Y-10014000D01*
X6479500Y-10014000D01*
X6493958Y-10014710D01*
X6493958Y-10014710D01*
G37*
D11*
X6332000Y-10334000D03*
D10*
G36*
X5523958Y-10014710D02*
X5538276Y-10016834D01*
X5552317Y-10020351D01*
X5565946Y-10025228D01*
X5579031Y-10031417D01*
X5591447Y-10038858D01*
X5603073Y-10047481D01*
X5613798Y-10057202D01*
X5623519Y-10067927D01*
X5632142Y-10079553D01*
X5639583Y-10091969D01*
X5645772Y-10105054D01*
X5650649Y-10118683D01*
X5654166Y-10132724D01*
X5656290Y-10147042D01*
X5657000Y-10161500D01*
X5657000Y-10506500D01*
X5656290Y-10520958D01*
X5654166Y-10535276D01*
X5650649Y-10549317D01*
X5645772Y-10562946D01*
X5639583Y-10576031D01*
X5632142Y-10588447D01*
X5623519Y-10600073D01*
X5613798Y-10610798D01*
X5603073Y-10620519D01*
X5591447Y-10629142D01*
X5579031Y-10636583D01*
X5565946Y-10642772D01*
X5552317Y-10647649D01*
X5538276Y-10651166D01*
X5523958Y-10653290D01*
X5509500Y-10654000D01*
X5214500Y-10654000D01*
X5200042Y-10653290D01*
X5185724Y-10651166D01*
X5171683Y-10647649D01*
X5158054Y-10642772D01*
X5144969Y-10636583D01*
X5132553Y-10629142D01*
X5120927Y-10620519D01*
X5110202Y-10610798D01*
X5100481Y-10600073D01*
X5091858Y-10588447D01*
X5084417Y-10576031D01*
X5078228Y-10562946D01*
X5073351Y-10549317D01*
X5069834Y-10535276D01*
X5067710Y-10520958D01*
X5067000Y-10506500D01*
X5067000Y-10161500D01*
X5067710Y-10147042D01*
X5069834Y-10132724D01*
X5073351Y-10118683D01*
X5078228Y-10105054D01*
X5084417Y-10091969D01*
X5091858Y-10079553D01*
X5100481Y-10067927D01*
X5110202Y-10057202D01*
X5120927Y-10047481D01*
X5132553Y-10038858D01*
X5144969Y-10031417D01*
X5158054Y-10025228D01*
X5171683Y-10020351D01*
X5185724Y-10016834D01*
X5200042Y-10014710D01*
X5214500Y-10014000D01*
X5509500Y-10014000D01*
X5523958Y-10014710D01*
X5523958Y-10014710D01*
G37*
D11*
X5362000Y-10334000D03*
G04 #@! TD*
D10*
G04 #@! TO.C,C9*
G36*
X7558958Y-10961710D02*
X7573276Y-10963834D01*
X7587317Y-10967351D01*
X7600946Y-10972228D01*
X7614031Y-10978417D01*
X7626447Y-10985858D01*
X7638073Y-10994481D01*
X7648798Y-11004202D01*
X7658519Y-11014927D01*
X7667142Y-11026553D01*
X7674583Y-11038969D01*
X7680772Y-11052054D01*
X7685649Y-11065683D01*
X7689166Y-11079724D01*
X7691290Y-11094042D01*
X7692000Y-11108500D01*
X7692000Y-11403500D01*
X7691290Y-11417958D01*
X7689166Y-11432276D01*
X7685649Y-11446317D01*
X7680772Y-11459946D01*
X7674583Y-11473031D01*
X7667142Y-11485447D01*
X7658519Y-11497073D01*
X7648798Y-11507798D01*
X7638073Y-11517519D01*
X7626447Y-11526142D01*
X7614031Y-11533583D01*
X7600946Y-11539772D01*
X7587317Y-11544649D01*
X7573276Y-11548166D01*
X7558958Y-11550290D01*
X7544500Y-11551000D01*
X7199500Y-11551000D01*
X7185042Y-11550290D01*
X7170724Y-11548166D01*
X7156683Y-11544649D01*
X7143054Y-11539772D01*
X7129969Y-11533583D01*
X7117553Y-11526142D01*
X7105927Y-11517519D01*
X7095202Y-11507798D01*
X7085481Y-11497073D01*
X7076858Y-11485447D01*
X7069417Y-11473031D01*
X7063228Y-11459946D01*
X7058351Y-11446317D01*
X7054834Y-11432276D01*
X7052710Y-11417958D01*
X7052000Y-11403500D01*
X7052000Y-11108500D01*
X7052710Y-11094042D01*
X7054834Y-11079724D01*
X7058351Y-11065683D01*
X7063228Y-11052054D01*
X7069417Y-11038969D01*
X7076858Y-11026553D01*
X7085481Y-11014927D01*
X7095202Y-11004202D01*
X7105927Y-10994481D01*
X7117553Y-10985858D01*
X7129969Y-10978417D01*
X7143054Y-10972228D01*
X7156683Y-10967351D01*
X7170724Y-10963834D01*
X7185042Y-10961710D01*
X7199500Y-10961000D01*
X7544500Y-10961000D01*
X7558958Y-10961710D01*
X7558958Y-10961710D01*
G37*
D11*
X7372000Y-11256000D03*
D10*
G36*
X7558958Y-11931710D02*
X7573276Y-11933834D01*
X7587317Y-11937351D01*
X7600946Y-11942228D01*
X7614031Y-11948417D01*
X7626447Y-11955858D01*
X7638073Y-11964481D01*
X7648798Y-11974202D01*
X7658519Y-11984927D01*
X7667142Y-11996553D01*
X7674583Y-12008969D01*
X7680772Y-12022054D01*
X7685649Y-12035683D01*
X7689166Y-12049724D01*
X7691290Y-12064042D01*
X7692000Y-12078500D01*
X7692000Y-12373500D01*
X7691290Y-12387958D01*
X7689166Y-12402276D01*
X7685649Y-12416317D01*
X7680772Y-12429946D01*
X7674583Y-12443031D01*
X7667142Y-12455447D01*
X7658519Y-12467073D01*
X7648798Y-12477798D01*
X7638073Y-12487519D01*
X7626447Y-12496142D01*
X7614031Y-12503583D01*
X7600946Y-12509772D01*
X7587317Y-12514649D01*
X7573276Y-12518166D01*
X7558958Y-12520290D01*
X7544500Y-12521000D01*
X7199500Y-12521000D01*
X7185042Y-12520290D01*
X7170724Y-12518166D01*
X7156683Y-12514649D01*
X7143054Y-12509772D01*
X7129969Y-12503583D01*
X7117553Y-12496142D01*
X7105927Y-12487519D01*
X7095202Y-12477798D01*
X7085481Y-12467073D01*
X7076858Y-12455447D01*
X7069417Y-12443031D01*
X7063228Y-12429946D01*
X7058351Y-12416317D01*
X7054834Y-12402276D01*
X7052710Y-12387958D01*
X7052000Y-12373500D01*
X7052000Y-12078500D01*
X7052710Y-12064042D01*
X7054834Y-12049724D01*
X7058351Y-12035683D01*
X7063228Y-12022054D01*
X7069417Y-12008969D01*
X7076858Y-11996553D01*
X7085481Y-11984927D01*
X7095202Y-11974202D01*
X7105927Y-11964481D01*
X7117553Y-11955858D01*
X7129969Y-11948417D01*
X7143054Y-11942228D01*
X7156683Y-11937351D01*
X7170724Y-11933834D01*
X7185042Y-11931710D01*
X7199500Y-11931000D01*
X7544500Y-11931000D01*
X7558958Y-11931710D01*
X7558958Y-11931710D01*
G37*
D11*
X7372000Y-12226000D03*
G04 #@! TD*
D10*
G04 #@! TO.C,R22*
G36*
X21421958Y-10935710D02*
X21436276Y-10937834D01*
X21450317Y-10941351D01*
X21463946Y-10946228D01*
X21477031Y-10952417D01*
X21489447Y-10959858D01*
X21501073Y-10968481D01*
X21511798Y-10978202D01*
X21521519Y-10988927D01*
X21530142Y-11000553D01*
X21537583Y-11012969D01*
X21543772Y-11026054D01*
X21548649Y-11039683D01*
X21552166Y-11053724D01*
X21554290Y-11068042D01*
X21555000Y-11082500D01*
X21555000Y-11427500D01*
X21554290Y-11441958D01*
X21552166Y-11456276D01*
X21548649Y-11470317D01*
X21543772Y-11483946D01*
X21537583Y-11497031D01*
X21530142Y-11509447D01*
X21521519Y-11521073D01*
X21511798Y-11531798D01*
X21501073Y-11541519D01*
X21489447Y-11550142D01*
X21477031Y-11557583D01*
X21463946Y-11563772D01*
X21450317Y-11568649D01*
X21436276Y-11572166D01*
X21421958Y-11574290D01*
X21407500Y-11575000D01*
X21112500Y-11575000D01*
X21098042Y-11574290D01*
X21083724Y-11572166D01*
X21069683Y-11568649D01*
X21056054Y-11563772D01*
X21042969Y-11557583D01*
X21030553Y-11550142D01*
X21018927Y-11541519D01*
X21008202Y-11531798D01*
X20998481Y-11521073D01*
X20989858Y-11509447D01*
X20982417Y-11497031D01*
X20976228Y-11483946D01*
X20971351Y-11470317D01*
X20967834Y-11456276D01*
X20965710Y-11441958D01*
X20965000Y-11427500D01*
X20965000Y-11082500D01*
X20965710Y-11068042D01*
X20967834Y-11053724D01*
X20971351Y-11039683D01*
X20976228Y-11026054D01*
X20982417Y-11012969D01*
X20989858Y-11000553D01*
X20998481Y-10988927D01*
X21008202Y-10978202D01*
X21018927Y-10968481D01*
X21030553Y-10959858D01*
X21042969Y-10952417D01*
X21056054Y-10946228D01*
X21069683Y-10941351D01*
X21083724Y-10937834D01*
X21098042Y-10935710D01*
X21112500Y-10935000D01*
X21407500Y-10935000D01*
X21421958Y-10935710D01*
X21421958Y-10935710D01*
G37*
D11*
X21260000Y-11255000D03*
D10*
G36*
X22391958Y-10935710D02*
X22406276Y-10937834D01*
X22420317Y-10941351D01*
X22433946Y-10946228D01*
X22447031Y-10952417D01*
X22459447Y-10959858D01*
X22471073Y-10968481D01*
X22481798Y-10978202D01*
X22491519Y-10988927D01*
X22500142Y-11000553D01*
X22507583Y-11012969D01*
X22513772Y-11026054D01*
X22518649Y-11039683D01*
X22522166Y-11053724D01*
X22524290Y-11068042D01*
X22525000Y-11082500D01*
X22525000Y-11427500D01*
X22524290Y-11441958D01*
X22522166Y-11456276D01*
X22518649Y-11470317D01*
X22513772Y-11483946D01*
X22507583Y-11497031D01*
X22500142Y-11509447D01*
X22491519Y-11521073D01*
X22481798Y-11531798D01*
X22471073Y-11541519D01*
X22459447Y-11550142D01*
X22447031Y-11557583D01*
X22433946Y-11563772D01*
X22420317Y-11568649D01*
X22406276Y-11572166D01*
X22391958Y-11574290D01*
X22377500Y-11575000D01*
X22082500Y-11575000D01*
X22068042Y-11574290D01*
X22053724Y-11572166D01*
X22039683Y-11568649D01*
X22026054Y-11563772D01*
X22012969Y-11557583D01*
X22000553Y-11550142D01*
X21988927Y-11541519D01*
X21978202Y-11531798D01*
X21968481Y-11521073D01*
X21959858Y-11509447D01*
X21952417Y-11497031D01*
X21946228Y-11483946D01*
X21941351Y-11470317D01*
X21937834Y-11456276D01*
X21935710Y-11441958D01*
X21935000Y-11427500D01*
X21935000Y-11082500D01*
X21935710Y-11068042D01*
X21937834Y-11053724D01*
X21941351Y-11039683D01*
X21946228Y-11026054D01*
X21952417Y-11012969D01*
X21959858Y-11000553D01*
X21968481Y-10988927D01*
X21978202Y-10978202D01*
X21988927Y-10968481D01*
X22000553Y-10959858D01*
X22012969Y-10952417D01*
X22026054Y-10946228D01*
X22039683Y-10941351D01*
X22053724Y-10937834D01*
X22068042Y-10935710D01*
X22082500Y-10935000D01*
X22377500Y-10935000D01*
X22391958Y-10935710D01*
X22391958Y-10935710D01*
G37*
D11*
X22230000Y-11255000D03*
G04 #@! TD*
D10*
G04 #@! TO.C,R21*
G36*
X21421958Y-9935710D02*
X21436276Y-9937834D01*
X21450317Y-9941351D01*
X21463946Y-9946228D01*
X21477031Y-9952417D01*
X21489447Y-9959858D01*
X21501073Y-9968481D01*
X21511798Y-9978202D01*
X21521519Y-9988927D01*
X21530142Y-10000553D01*
X21537583Y-10012969D01*
X21543772Y-10026054D01*
X21548649Y-10039683D01*
X21552166Y-10053724D01*
X21554290Y-10068042D01*
X21555000Y-10082500D01*
X21555000Y-10427500D01*
X21554290Y-10441958D01*
X21552166Y-10456276D01*
X21548649Y-10470317D01*
X21543772Y-10483946D01*
X21537583Y-10497031D01*
X21530142Y-10509447D01*
X21521519Y-10521073D01*
X21511798Y-10531798D01*
X21501073Y-10541519D01*
X21489447Y-10550142D01*
X21477031Y-10557583D01*
X21463946Y-10563772D01*
X21450317Y-10568649D01*
X21436276Y-10572166D01*
X21421958Y-10574290D01*
X21407500Y-10575000D01*
X21112500Y-10575000D01*
X21098042Y-10574290D01*
X21083724Y-10572166D01*
X21069683Y-10568649D01*
X21056054Y-10563772D01*
X21042969Y-10557583D01*
X21030553Y-10550142D01*
X21018927Y-10541519D01*
X21008202Y-10531798D01*
X20998481Y-10521073D01*
X20989858Y-10509447D01*
X20982417Y-10497031D01*
X20976228Y-10483946D01*
X20971351Y-10470317D01*
X20967834Y-10456276D01*
X20965710Y-10441958D01*
X20965000Y-10427500D01*
X20965000Y-10082500D01*
X20965710Y-10068042D01*
X20967834Y-10053724D01*
X20971351Y-10039683D01*
X20976228Y-10026054D01*
X20982417Y-10012969D01*
X20989858Y-10000553D01*
X20998481Y-9988927D01*
X21008202Y-9978202D01*
X21018927Y-9968481D01*
X21030553Y-9959858D01*
X21042969Y-9952417D01*
X21056054Y-9946228D01*
X21069683Y-9941351D01*
X21083724Y-9937834D01*
X21098042Y-9935710D01*
X21112500Y-9935000D01*
X21407500Y-9935000D01*
X21421958Y-9935710D01*
X21421958Y-9935710D01*
G37*
D11*
X21260000Y-10255000D03*
D10*
G36*
X22391958Y-9935710D02*
X22406276Y-9937834D01*
X22420317Y-9941351D01*
X22433946Y-9946228D01*
X22447031Y-9952417D01*
X22459447Y-9959858D01*
X22471073Y-9968481D01*
X22481798Y-9978202D01*
X22491519Y-9988927D01*
X22500142Y-10000553D01*
X22507583Y-10012969D01*
X22513772Y-10026054D01*
X22518649Y-10039683D01*
X22522166Y-10053724D01*
X22524290Y-10068042D01*
X22525000Y-10082500D01*
X22525000Y-10427500D01*
X22524290Y-10441958D01*
X22522166Y-10456276D01*
X22518649Y-10470317D01*
X22513772Y-10483946D01*
X22507583Y-10497031D01*
X22500142Y-10509447D01*
X22491519Y-10521073D01*
X22481798Y-10531798D01*
X22471073Y-10541519D01*
X22459447Y-10550142D01*
X22447031Y-10557583D01*
X22433946Y-10563772D01*
X22420317Y-10568649D01*
X22406276Y-10572166D01*
X22391958Y-10574290D01*
X22377500Y-10575000D01*
X22082500Y-10575000D01*
X22068042Y-10574290D01*
X22053724Y-10572166D01*
X22039683Y-10568649D01*
X22026054Y-10563772D01*
X22012969Y-10557583D01*
X22000553Y-10550142D01*
X21988927Y-10541519D01*
X21978202Y-10531798D01*
X21968481Y-10521073D01*
X21959858Y-10509447D01*
X21952417Y-10497031D01*
X21946228Y-10483946D01*
X21941351Y-10470317D01*
X21937834Y-10456276D01*
X21935710Y-10441958D01*
X21935000Y-10427500D01*
X21935000Y-10082500D01*
X21935710Y-10068042D01*
X21937834Y-10053724D01*
X21941351Y-10039683D01*
X21946228Y-10026054D01*
X21952417Y-10012969D01*
X21959858Y-10000553D01*
X21968481Y-9988927D01*
X21978202Y-9978202D01*
X21988927Y-9968481D01*
X22000553Y-9959858D01*
X22012969Y-9952417D01*
X22026054Y-9946228D01*
X22039683Y-9941351D01*
X22053724Y-9937834D01*
X22068042Y-9935710D01*
X22082500Y-9935000D01*
X22377500Y-9935000D01*
X22391958Y-9935710D01*
X22391958Y-9935710D01*
G37*
D11*
X22230000Y-10255000D03*
G04 #@! TD*
D10*
G04 #@! TO.C,R20*
G36*
X21421958Y-8935710D02*
X21436276Y-8937834D01*
X21450317Y-8941351D01*
X21463946Y-8946228D01*
X21477031Y-8952417D01*
X21489447Y-8959858D01*
X21501073Y-8968481D01*
X21511798Y-8978202D01*
X21521519Y-8988927D01*
X21530142Y-9000553D01*
X21537583Y-9012969D01*
X21543772Y-9026054D01*
X21548649Y-9039683D01*
X21552166Y-9053724D01*
X21554290Y-9068042D01*
X21555000Y-9082500D01*
X21555000Y-9427500D01*
X21554290Y-9441958D01*
X21552166Y-9456276D01*
X21548649Y-9470317D01*
X21543772Y-9483946D01*
X21537583Y-9497031D01*
X21530142Y-9509447D01*
X21521519Y-9521073D01*
X21511798Y-9531798D01*
X21501073Y-9541519D01*
X21489447Y-9550142D01*
X21477031Y-9557583D01*
X21463946Y-9563772D01*
X21450317Y-9568649D01*
X21436276Y-9572166D01*
X21421958Y-9574290D01*
X21407500Y-9575000D01*
X21112500Y-9575000D01*
X21098042Y-9574290D01*
X21083724Y-9572166D01*
X21069683Y-9568649D01*
X21056054Y-9563772D01*
X21042969Y-9557583D01*
X21030553Y-9550142D01*
X21018927Y-9541519D01*
X21008202Y-9531798D01*
X20998481Y-9521073D01*
X20989858Y-9509447D01*
X20982417Y-9497031D01*
X20976228Y-9483946D01*
X20971351Y-9470317D01*
X20967834Y-9456276D01*
X20965710Y-9441958D01*
X20965000Y-9427500D01*
X20965000Y-9082500D01*
X20965710Y-9068042D01*
X20967834Y-9053724D01*
X20971351Y-9039683D01*
X20976228Y-9026054D01*
X20982417Y-9012969D01*
X20989858Y-9000553D01*
X20998481Y-8988927D01*
X21008202Y-8978202D01*
X21018927Y-8968481D01*
X21030553Y-8959858D01*
X21042969Y-8952417D01*
X21056054Y-8946228D01*
X21069683Y-8941351D01*
X21083724Y-8937834D01*
X21098042Y-8935710D01*
X21112500Y-8935000D01*
X21407500Y-8935000D01*
X21421958Y-8935710D01*
X21421958Y-8935710D01*
G37*
D11*
X21260000Y-9255000D03*
D10*
G36*
X22391958Y-8935710D02*
X22406276Y-8937834D01*
X22420317Y-8941351D01*
X22433946Y-8946228D01*
X22447031Y-8952417D01*
X22459447Y-8959858D01*
X22471073Y-8968481D01*
X22481798Y-8978202D01*
X22491519Y-8988927D01*
X22500142Y-9000553D01*
X22507583Y-9012969D01*
X22513772Y-9026054D01*
X22518649Y-9039683D01*
X22522166Y-9053724D01*
X22524290Y-9068042D01*
X22525000Y-9082500D01*
X22525000Y-9427500D01*
X22524290Y-9441958D01*
X22522166Y-9456276D01*
X22518649Y-9470317D01*
X22513772Y-9483946D01*
X22507583Y-9497031D01*
X22500142Y-9509447D01*
X22491519Y-9521073D01*
X22481798Y-9531798D01*
X22471073Y-9541519D01*
X22459447Y-9550142D01*
X22447031Y-9557583D01*
X22433946Y-9563772D01*
X22420317Y-9568649D01*
X22406276Y-9572166D01*
X22391958Y-9574290D01*
X22377500Y-9575000D01*
X22082500Y-9575000D01*
X22068042Y-9574290D01*
X22053724Y-9572166D01*
X22039683Y-9568649D01*
X22026054Y-9563772D01*
X22012969Y-9557583D01*
X22000553Y-9550142D01*
X21988927Y-9541519D01*
X21978202Y-9531798D01*
X21968481Y-9521073D01*
X21959858Y-9509447D01*
X21952417Y-9497031D01*
X21946228Y-9483946D01*
X21941351Y-9470317D01*
X21937834Y-9456276D01*
X21935710Y-9441958D01*
X21935000Y-9427500D01*
X21935000Y-9082500D01*
X21935710Y-9068042D01*
X21937834Y-9053724D01*
X21941351Y-9039683D01*
X21946228Y-9026054D01*
X21952417Y-9012969D01*
X21959858Y-9000553D01*
X21968481Y-8988927D01*
X21978202Y-8978202D01*
X21988927Y-8968481D01*
X22000553Y-8959858D01*
X22012969Y-8952417D01*
X22026054Y-8946228D01*
X22039683Y-8941351D01*
X22053724Y-8937834D01*
X22068042Y-8935710D01*
X22082500Y-8935000D01*
X22377500Y-8935000D01*
X22391958Y-8935710D01*
X22391958Y-8935710D01*
G37*
D11*
X22230000Y-9255000D03*
G04 #@! TD*
D10*
G04 #@! TO.C,R19*
G36*
X21421958Y-7935710D02*
X21436276Y-7937834D01*
X21450317Y-7941351D01*
X21463946Y-7946228D01*
X21477031Y-7952417D01*
X21489447Y-7959858D01*
X21501073Y-7968481D01*
X21511798Y-7978202D01*
X21521519Y-7988927D01*
X21530142Y-8000553D01*
X21537583Y-8012969D01*
X21543772Y-8026054D01*
X21548649Y-8039683D01*
X21552166Y-8053724D01*
X21554290Y-8068042D01*
X21555000Y-8082500D01*
X21555000Y-8427500D01*
X21554290Y-8441958D01*
X21552166Y-8456276D01*
X21548649Y-8470317D01*
X21543772Y-8483946D01*
X21537583Y-8497031D01*
X21530142Y-8509447D01*
X21521519Y-8521073D01*
X21511798Y-8531798D01*
X21501073Y-8541519D01*
X21489447Y-8550142D01*
X21477031Y-8557583D01*
X21463946Y-8563772D01*
X21450317Y-8568649D01*
X21436276Y-8572166D01*
X21421958Y-8574290D01*
X21407500Y-8575000D01*
X21112500Y-8575000D01*
X21098042Y-8574290D01*
X21083724Y-8572166D01*
X21069683Y-8568649D01*
X21056054Y-8563772D01*
X21042969Y-8557583D01*
X21030553Y-8550142D01*
X21018927Y-8541519D01*
X21008202Y-8531798D01*
X20998481Y-8521073D01*
X20989858Y-8509447D01*
X20982417Y-8497031D01*
X20976228Y-8483946D01*
X20971351Y-8470317D01*
X20967834Y-8456276D01*
X20965710Y-8441958D01*
X20965000Y-8427500D01*
X20965000Y-8082500D01*
X20965710Y-8068042D01*
X20967834Y-8053724D01*
X20971351Y-8039683D01*
X20976228Y-8026054D01*
X20982417Y-8012969D01*
X20989858Y-8000553D01*
X20998481Y-7988927D01*
X21008202Y-7978202D01*
X21018927Y-7968481D01*
X21030553Y-7959858D01*
X21042969Y-7952417D01*
X21056054Y-7946228D01*
X21069683Y-7941351D01*
X21083724Y-7937834D01*
X21098042Y-7935710D01*
X21112500Y-7935000D01*
X21407500Y-7935000D01*
X21421958Y-7935710D01*
X21421958Y-7935710D01*
G37*
D11*
X21260000Y-8255000D03*
D10*
G36*
X22391958Y-7935710D02*
X22406276Y-7937834D01*
X22420317Y-7941351D01*
X22433946Y-7946228D01*
X22447031Y-7952417D01*
X22459447Y-7959858D01*
X22471073Y-7968481D01*
X22481798Y-7978202D01*
X22491519Y-7988927D01*
X22500142Y-8000553D01*
X22507583Y-8012969D01*
X22513772Y-8026054D01*
X22518649Y-8039683D01*
X22522166Y-8053724D01*
X22524290Y-8068042D01*
X22525000Y-8082500D01*
X22525000Y-8427500D01*
X22524290Y-8441958D01*
X22522166Y-8456276D01*
X22518649Y-8470317D01*
X22513772Y-8483946D01*
X22507583Y-8497031D01*
X22500142Y-8509447D01*
X22491519Y-8521073D01*
X22481798Y-8531798D01*
X22471073Y-8541519D01*
X22459447Y-8550142D01*
X22447031Y-8557583D01*
X22433946Y-8563772D01*
X22420317Y-8568649D01*
X22406276Y-8572166D01*
X22391958Y-8574290D01*
X22377500Y-8575000D01*
X22082500Y-8575000D01*
X22068042Y-8574290D01*
X22053724Y-8572166D01*
X22039683Y-8568649D01*
X22026054Y-8563772D01*
X22012969Y-8557583D01*
X22000553Y-8550142D01*
X21988927Y-8541519D01*
X21978202Y-8531798D01*
X21968481Y-8521073D01*
X21959858Y-8509447D01*
X21952417Y-8497031D01*
X21946228Y-8483946D01*
X21941351Y-8470317D01*
X21937834Y-8456276D01*
X21935710Y-8441958D01*
X21935000Y-8427500D01*
X21935000Y-8082500D01*
X21935710Y-8068042D01*
X21937834Y-8053724D01*
X21941351Y-8039683D01*
X21946228Y-8026054D01*
X21952417Y-8012969D01*
X21959858Y-8000553D01*
X21968481Y-7988927D01*
X21978202Y-7978202D01*
X21988927Y-7968481D01*
X22000553Y-7959858D01*
X22012969Y-7952417D01*
X22026054Y-7946228D01*
X22039683Y-7941351D01*
X22053724Y-7937834D01*
X22068042Y-7935710D01*
X22082500Y-7935000D01*
X22377500Y-7935000D01*
X22391958Y-7935710D01*
X22391958Y-7935710D01*
G37*
D11*
X22230000Y-8255000D03*
G04 #@! TD*
D10*
G04 #@! TO.C,R18*
G36*
X21421958Y-6935710D02*
X21436276Y-6937834D01*
X21450317Y-6941351D01*
X21463946Y-6946228D01*
X21477031Y-6952417D01*
X21489447Y-6959858D01*
X21501073Y-6968481D01*
X21511798Y-6978202D01*
X21521519Y-6988927D01*
X21530142Y-7000553D01*
X21537583Y-7012969D01*
X21543772Y-7026054D01*
X21548649Y-7039683D01*
X21552166Y-7053724D01*
X21554290Y-7068042D01*
X21555000Y-7082500D01*
X21555000Y-7427500D01*
X21554290Y-7441958D01*
X21552166Y-7456276D01*
X21548649Y-7470317D01*
X21543772Y-7483946D01*
X21537583Y-7497031D01*
X21530142Y-7509447D01*
X21521519Y-7521073D01*
X21511798Y-7531798D01*
X21501073Y-7541519D01*
X21489447Y-7550142D01*
X21477031Y-7557583D01*
X21463946Y-7563772D01*
X21450317Y-7568649D01*
X21436276Y-7572166D01*
X21421958Y-7574290D01*
X21407500Y-7575000D01*
X21112500Y-7575000D01*
X21098042Y-7574290D01*
X21083724Y-7572166D01*
X21069683Y-7568649D01*
X21056054Y-7563772D01*
X21042969Y-7557583D01*
X21030553Y-7550142D01*
X21018927Y-7541519D01*
X21008202Y-7531798D01*
X20998481Y-7521073D01*
X20989858Y-7509447D01*
X20982417Y-7497031D01*
X20976228Y-7483946D01*
X20971351Y-7470317D01*
X20967834Y-7456276D01*
X20965710Y-7441958D01*
X20965000Y-7427500D01*
X20965000Y-7082500D01*
X20965710Y-7068042D01*
X20967834Y-7053724D01*
X20971351Y-7039683D01*
X20976228Y-7026054D01*
X20982417Y-7012969D01*
X20989858Y-7000553D01*
X20998481Y-6988927D01*
X21008202Y-6978202D01*
X21018927Y-6968481D01*
X21030553Y-6959858D01*
X21042969Y-6952417D01*
X21056054Y-6946228D01*
X21069683Y-6941351D01*
X21083724Y-6937834D01*
X21098042Y-6935710D01*
X21112500Y-6935000D01*
X21407500Y-6935000D01*
X21421958Y-6935710D01*
X21421958Y-6935710D01*
G37*
D11*
X21260000Y-7255000D03*
D10*
G36*
X22391958Y-6935710D02*
X22406276Y-6937834D01*
X22420317Y-6941351D01*
X22433946Y-6946228D01*
X22447031Y-6952417D01*
X22459447Y-6959858D01*
X22471073Y-6968481D01*
X22481798Y-6978202D01*
X22491519Y-6988927D01*
X22500142Y-7000553D01*
X22507583Y-7012969D01*
X22513772Y-7026054D01*
X22518649Y-7039683D01*
X22522166Y-7053724D01*
X22524290Y-7068042D01*
X22525000Y-7082500D01*
X22525000Y-7427500D01*
X22524290Y-7441958D01*
X22522166Y-7456276D01*
X22518649Y-7470317D01*
X22513772Y-7483946D01*
X22507583Y-7497031D01*
X22500142Y-7509447D01*
X22491519Y-7521073D01*
X22481798Y-7531798D01*
X22471073Y-7541519D01*
X22459447Y-7550142D01*
X22447031Y-7557583D01*
X22433946Y-7563772D01*
X22420317Y-7568649D01*
X22406276Y-7572166D01*
X22391958Y-7574290D01*
X22377500Y-7575000D01*
X22082500Y-7575000D01*
X22068042Y-7574290D01*
X22053724Y-7572166D01*
X22039683Y-7568649D01*
X22026054Y-7563772D01*
X22012969Y-7557583D01*
X22000553Y-7550142D01*
X21988927Y-7541519D01*
X21978202Y-7531798D01*
X21968481Y-7521073D01*
X21959858Y-7509447D01*
X21952417Y-7497031D01*
X21946228Y-7483946D01*
X21941351Y-7470317D01*
X21937834Y-7456276D01*
X21935710Y-7441958D01*
X21935000Y-7427500D01*
X21935000Y-7082500D01*
X21935710Y-7068042D01*
X21937834Y-7053724D01*
X21941351Y-7039683D01*
X21946228Y-7026054D01*
X21952417Y-7012969D01*
X21959858Y-7000553D01*
X21968481Y-6988927D01*
X21978202Y-6978202D01*
X21988927Y-6968481D01*
X22000553Y-6959858D01*
X22012969Y-6952417D01*
X22026054Y-6946228D01*
X22039683Y-6941351D01*
X22053724Y-6937834D01*
X22068042Y-6935710D01*
X22082500Y-6935000D01*
X22377500Y-6935000D01*
X22391958Y-6935710D01*
X22391958Y-6935710D01*
G37*
D11*
X22230000Y-7255000D03*
G04 #@! TD*
D10*
G04 #@! TO.C,R17*
G36*
X21421958Y-5935710D02*
X21436276Y-5937834D01*
X21450317Y-5941351D01*
X21463946Y-5946228D01*
X21477031Y-5952417D01*
X21489447Y-5959858D01*
X21501073Y-5968481D01*
X21511798Y-5978202D01*
X21521519Y-5988927D01*
X21530142Y-6000553D01*
X21537583Y-6012969D01*
X21543772Y-6026054D01*
X21548649Y-6039683D01*
X21552166Y-6053724D01*
X21554290Y-6068042D01*
X21555000Y-6082500D01*
X21555000Y-6427500D01*
X21554290Y-6441958D01*
X21552166Y-6456276D01*
X21548649Y-6470317D01*
X21543772Y-6483946D01*
X21537583Y-6497031D01*
X21530142Y-6509447D01*
X21521519Y-6521073D01*
X21511798Y-6531798D01*
X21501073Y-6541519D01*
X21489447Y-6550142D01*
X21477031Y-6557583D01*
X21463946Y-6563772D01*
X21450317Y-6568649D01*
X21436276Y-6572166D01*
X21421958Y-6574290D01*
X21407500Y-6575000D01*
X21112500Y-6575000D01*
X21098042Y-6574290D01*
X21083724Y-6572166D01*
X21069683Y-6568649D01*
X21056054Y-6563772D01*
X21042969Y-6557583D01*
X21030553Y-6550142D01*
X21018927Y-6541519D01*
X21008202Y-6531798D01*
X20998481Y-6521073D01*
X20989858Y-6509447D01*
X20982417Y-6497031D01*
X20976228Y-6483946D01*
X20971351Y-6470317D01*
X20967834Y-6456276D01*
X20965710Y-6441958D01*
X20965000Y-6427500D01*
X20965000Y-6082500D01*
X20965710Y-6068042D01*
X20967834Y-6053724D01*
X20971351Y-6039683D01*
X20976228Y-6026054D01*
X20982417Y-6012969D01*
X20989858Y-6000553D01*
X20998481Y-5988927D01*
X21008202Y-5978202D01*
X21018927Y-5968481D01*
X21030553Y-5959858D01*
X21042969Y-5952417D01*
X21056054Y-5946228D01*
X21069683Y-5941351D01*
X21083724Y-5937834D01*
X21098042Y-5935710D01*
X21112500Y-5935000D01*
X21407500Y-5935000D01*
X21421958Y-5935710D01*
X21421958Y-5935710D01*
G37*
D11*
X21260000Y-6255000D03*
D10*
G36*
X22391958Y-5935710D02*
X22406276Y-5937834D01*
X22420317Y-5941351D01*
X22433946Y-5946228D01*
X22447031Y-5952417D01*
X22459447Y-5959858D01*
X22471073Y-5968481D01*
X22481798Y-5978202D01*
X22491519Y-5988927D01*
X22500142Y-6000553D01*
X22507583Y-6012969D01*
X22513772Y-6026054D01*
X22518649Y-6039683D01*
X22522166Y-6053724D01*
X22524290Y-6068042D01*
X22525000Y-6082500D01*
X22525000Y-6427500D01*
X22524290Y-6441958D01*
X22522166Y-6456276D01*
X22518649Y-6470317D01*
X22513772Y-6483946D01*
X22507583Y-6497031D01*
X22500142Y-6509447D01*
X22491519Y-6521073D01*
X22481798Y-6531798D01*
X22471073Y-6541519D01*
X22459447Y-6550142D01*
X22447031Y-6557583D01*
X22433946Y-6563772D01*
X22420317Y-6568649D01*
X22406276Y-6572166D01*
X22391958Y-6574290D01*
X22377500Y-6575000D01*
X22082500Y-6575000D01*
X22068042Y-6574290D01*
X22053724Y-6572166D01*
X22039683Y-6568649D01*
X22026054Y-6563772D01*
X22012969Y-6557583D01*
X22000553Y-6550142D01*
X21988927Y-6541519D01*
X21978202Y-6531798D01*
X21968481Y-6521073D01*
X21959858Y-6509447D01*
X21952417Y-6497031D01*
X21946228Y-6483946D01*
X21941351Y-6470317D01*
X21937834Y-6456276D01*
X21935710Y-6441958D01*
X21935000Y-6427500D01*
X21935000Y-6082500D01*
X21935710Y-6068042D01*
X21937834Y-6053724D01*
X21941351Y-6039683D01*
X21946228Y-6026054D01*
X21952417Y-6012969D01*
X21959858Y-6000553D01*
X21968481Y-5988927D01*
X21978202Y-5978202D01*
X21988927Y-5968481D01*
X22000553Y-5959858D01*
X22012969Y-5952417D01*
X22026054Y-5946228D01*
X22039683Y-5941351D01*
X22053724Y-5937834D01*
X22068042Y-5935710D01*
X22082500Y-5935000D01*
X22377500Y-5935000D01*
X22391958Y-5935710D01*
X22391958Y-5935710D01*
G37*
D11*
X22230000Y-6255000D03*
G04 #@! TD*
D10*
G04 #@! TO.C,R16*
G36*
X21421958Y-4935710D02*
X21436276Y-4937834D01*
X21450317Y-4941351D01*
X21463946Y-4946228D01*
X21477031Y-4952417D01*
X21489447Y-4959858D01*
X21501073Y-4968481D01*
X21511798Y-4978202D01*
X21521519Y-4988927D01*
X21530142Y-5000553D01*
X21537583Y-5012969D01*
X21543772Y-5026054D01*
X21548649Y-5039683D01*
X21552166Y-5053724D01*
X21554290Y-5068042D01*
X21555000Y-5082500D01*
X21555000Y-5427500D01*
X21554290Y-5441958D01*
X21552166Y-5456276D01*
X21548649Y-5470317D01*
X21543772Y-5483946D01*
X21537583Y-5497031D01*
X21530142Y-5509447D01*
X21521519Y-5521073D01*
X21511798Y-5531798D01*
X21501073Y-5541519D01*
X21489447Y-5550142D01*
X21477031Y-5557583D01*
X21463946Y-5563772D01*
X21450317Y-5568649D01*
X21436276Y-5572166D01*
X21421958Y-5574290D01*
X21407500Y-5575000D01*
X21112500Y-5575000D01*
X21098042Y-5574290D01*
X21083724Y-5572166D01*
X21069683Y-5568649D01*
X21056054Y-5563772D01*
X21042969Y-5557583D01*
X21030553Y-5550142D01*
X21018927Y-5541519D01*
X21008202Y-5531798D01*
X20998481Y-5521073D01*
X20989858Y-5509447D01*
X20982417Y-5497031D01*
X20976228Y-5483946D01*
X20971351Y-5470317D01*
X20967834Y-5456276D01*
X20965710Y-5441958D01*
X20965000Y-5427500D01*
X20965000Y-5082500D01*
X20965710Y-5068042D01*
X20967834Y-5053724D01*
X20971351Y-5039683D01*
X20976228Y-5026054D01*
X20982417Y-5012969D01*
X20989858Y-5000553D01*
X20998481Y-4988927D01*
X21008202Y-4978202D01*
X21018927Y-4968481D01*
X21030553Y-4959858D01*
X21042969Y-4952417D01*
X21056054Y-4946228D01*
X21069683Y-4941351D01*
X21083724Y-4937834D01*
X21098042Y-4935710D01*
X21112500Y-4935000D01*
X21407500Y-4935000D01*
X21421958Y-4935710D01*
X21421958Y-4935710D01*
G37*
D11*
X21260000Y-5255000D03*
D10*
G36*
X22391958Y-4935710D02*
X22406276Y-4937834D01*
X22420317Y-4941351D01*
X22433946Y-4946228D01*
X22447031Y-4952417D01*
X22459447Y-4959858D01*
X22471073Y-4968481D01*
X22481798Y-4978202D01*
X22491519Y-4988927D01*
X22500142Y-5000553D01*
X22507583Y-5012969D01*
X22513772Y-5026054D01*
X22518649Y-5039683D01*
X22522166Y-5053724D01*
X22524290Y-5068042D01*
X22525000Y-5082500D01*
X22525000Y-5427500D01*
X22524290Y-5441958D01*
X22522166Y-5456276D01*
X22518649Y-5470317D01*
X22513772Y-5483946D01*
X22507583Y-5497031D01*
X22500142Y-5509447D01*
X22491519Y-5521073D01*
X22481798Y-5531798D01*
X22471073Y-5541519D01*
X22459447Y-5550142D01*
X22447031Y-5557583D01*
X22433946Y-5563772D01*
X22420317Y-5568649D01*
X22406276Y-5572166D01*
X22391958Y-5574290D01*
X22377500Y-5575000D01*
X22082500Y-5575000D01*
X22068042Y-5574290D01*
X22053724Y-5572166D01*
X22039683Y-5568649D01*
X22026054Y-5563772D01*
X22012969Y-5557583D01*
X22000553Y-5550142D01*
X21988927Y-5541519D01*
X21978202Y-5531798D01*
X21968481Y-5521073D01*
X21959858Y-5509447D01*
X21952417Y-5497031D01*
X21946228Y-5483946D01*
X21941351Y-5470317D01*
X21937834Y-5456276D01*
X21935710Y-5441958D01*
X21935000Y-5427500D01*
X21935000Y-5082500D01*
X21935710Y-5068042D01*
X21937834Y-5053724D01*
X21941351Y-5039683D01*
X21946228Y-5026054D01*
X21952417Y-5012969D01*
X21959858Y-5000553D01*
X21968481Y-4988927D01*
X21978202Y-4978202D01*
X21988927Y-4968481D01*
X22000553Y-4959858D01*
X22012969Y-4952417D01*
X22026054Y-4946228D01*
X22039683Y-4941351D01*
X22053724Y-4937834D01*
X22068042Y-4935710D01*
X22082500Y-4935000D01*
X22377500Y-4935000D01*
X22391958Y-4935710D01*
X22391958Y-4935710D01*
G37*
D11*
X22230000Y-5255000D03*
G04 #@! TD*
M02*
