M48
;DRILL file {KiCad 5.0.2+dfsg1-1~bpo9+1} date Tue 29 Oct 2019 06:12:19 PM CET
;FORMAT={-:-/ absolute / metric / decimal}
FMAT,2
METRIC,TZ
T1C0.200
%
G90
G05
T1
X0.56Y-17.2
X1.51Y-2.09
X1.74Y-19.24
X1.929Y-6.731
X1.96Y-10.65
X1.991Y-11.234
X2.009Y-7.681
X2.05Y-8.24
X2.11Y-12.87
X2.157Y-13.757
X2.436Y-10.339
X2.443Y-9.766
X2.457Y-9.135
X2.637Y-6.913
X2.67Y-2.1
X3.099Y-6.47
X3.23Y-2.19
X3.575Y-10.46
X3.65Y-1.77
X3.73Y-16.32
X3.739Y-12.39
X3.88Y-11.46
X4.026Y-6.45
X4.093Y-13.78
X4.093Y-14.42
X4.223Y-1.828
X4.26Y-18.01
X4.325Y-18.715
X4.38Y-3.04
X4.385Y-7.235
X4.395Y-5.357
X4.469Y-8.61
X4.472Y-4.831
X4.561Y-14.07
X4.62Y-11.243
X4.67Y-12.33
X4.671Y-5.889
X4.772Y-13.581
X4.797Y-9.03
X4.815Y-6.805
X4.886Y-12.99
X4.991Y-7.976
X5.Y-18.633
X5.059Y-5.501
X5.201Y-14.011
X5.384Y-1.887
X5.535Y-6.695
X5.648Y-5.369
X5.88Y-18.77
X6.48Y-18.7
X6.938Y-1.533
X7.277Y-15.993
X7.302Y-15.079
X7.355Y-14.27
X7.46Y-18.996
X7.496Y-6.787
X7.54Y-5.27
X7.694Y-10.054
X7.82Y-18.56
X7.88Y-9.556
X7.897Y-14.907
X7.945Y-11.743
X8.009Y-16.051
X8.028Y-11.175
X8.104Y-6.787
X8.237Y-9.95
X8.24Y-18.2
X8.336Y-12.665
X8.517Y-8.716
X8.572Y-8.186
X8.907Y-15.783
X8.932Y-7.433
X8.954Y-9.069
X8.99Y-17.816
X9.04Y-16.96
X9.237Y-3.751
X9.237Y-4.308
X9.4Y-18.6
X9.53Y-16.51
X9.781Y-14.856
X10.09Y-3.749
X10.363Y-18.985
X10.495Y-4.985
X10.67Y-18.55
X10.8Y-3.82
X10.8Y-4.42
X10.867Y-11.789
X10.87Y-8.225
X11.086Y-1.68
X11.232Y-14.997
X11.47Y-8.22
X11.48Y-18.57
X11.501Y-11.799
X11.518Y-17.816
X11.803Y-15.452
X12.1Y-18.524
X12.114Y-11.809
X12.17Y-7.53
X12.17Y-8.215
X12.17Y-12.393
X12.268Y-2.474
X12.47Y-1.83
X12.575Y-15.23
X12.761Y-11.86
X12.82Y-7.53
X12.822Y-12.389
X12.845Y-8.23
X12.848Y-4.82
X13.075Y-15.82
X13.13Y-17.483
X13.35Y-3.95
X13.366Y-12.484
X13.47Y-8.205
X13.49Y-0.47
X13.604Y-11.725
X13.673Y-4.82
X13.901Y-15.491
X14.12Y-8.21
X14.196Y-11.752
X14.4Y-15.995
X14.601Y-4.42
X14.957Y-2.12
X15.015Y-15.32
X15.214Y-16.026
X15.353Y-4.3
X15.664Y-2.146
X15.688Y-17.876
X15.732Y-17.262
X15.9Y-3.13
X15.911Y-9.142
X15.93Y-18.35
X15.963Y-15.958
X16.3Y-5.63
X16.33Y-9.47
X16.351Y-4.309
X16.356Y-6.243
X16.57Y-8.157
X16.67Y-14.37
X16.81Y-7.23
X16.876Y-9.424
X16.995Y-7.749
X17.Y-19.21
X17.06Y-8.434
X17.064Y-13.976
X17.17Y-4.36
X17.205Y-18.184
X17.207Y-14.747
X17.457Y-5.257
X17.48Y-6.06
X17.5Y-3.85
X17.51Y-18.62
X17.52Y-6.88
X17.583Y-9.549
X17.654Y-8.34
X17.663Y-8.983
X17.747Y-4.794
X17.75Y-11.953
X17.859Y-10.878
X18.27Y-18.65
X19.141Y-19.589
X19.39Y-11.31
X19.427Y-8.509
X19.47Y-6.95
X19.625Y-10.795
X19.67Y-15.25
X19.695Y-16.944
X19.702Y-4.505
X19.712Y-12.113
X19.961Y-9.356
X20.Y-7.
X20.114Y-8.822
X20.259Y-4.505
X20.45Y-5.26
X20.47Y-6.22
X20.507Y-8.428
X20.525Y-2.095
X20.53Y-6.88
X20.588Y-10.291
X20.591Y-12.15
X20.655Y-10.86
X20.775Y-4.374
X20.81Y-15.69
X21.079Y-3.028
X21.195Y-12.316
X22.159Y-14.16
X22.193Y-12.625
X22.506Y-17.406
X22.75Y-1.82
X22.805Y-9.345
X22.811Y-7.247
X22.835Y-6.268
X22.847Y-8.226
X22.847Y-10.423
X22.855Y-4.01
X23.06Y-13.18
X23.097Y-5.731
X23.115Y-8.779
X23.115Y-10.883
X23.121Y-6.779
X23.121Y-9.789
X23.158Y-7.764
X23.71Y-17.45
X10.945Y-8.855
X10.945Y-10.005
X10.945Y-11.155
X11.845Y-8.855
X11.895Y-10.005
X11.895Y-11.155
X13.095Y-8.855
X13.095Y-10.005
X13.095Y-11.155
X14.045Y-8.855
X14.045Y-10.005
X14.045Y-11.155
T0
M30
