G04 #@! TF.GenerationSoftware,KiCad,Pcbnew,5.0.2+dfsg1-1~bpo9+1*
G04 #@! TF.CreationDate,2019-10-28T12:22:29+01:00*
G04 #@! TF.ProjectId,zglue-jade-adapter,7a676c75-652d-46a6-9164-652d61646170,rev?*
G04 #@! TF.SameCoordinates,Original*
G04 #@! TF.FileFunction,Paste,Bot*
G04 #@! TF.FilePolarity,Positive*
%FSLAX46Y46*%
G04 Gerber Fmt 4.6, Leading zero omitted, Abs format (unit mm)*
G04 Created by KiCad (PCBNEW 5.0.2+dfsg1-1~bpo9+1) date Mon 28 Oct 2019 12:22:29 PM CET*
%MOMM*%
%LPD*%
G01*
G04 APERTURE LIST*
%ADD10R,1.100000X0.300000*%
%ADD11R,1.320000X1.300000*%
G04 APERTURE END LIST*
D10*
G04 #@! TO.C,J1*
X6501220Y-14757000D03*
X6501220Y-14257000D03*
X6501220Y-13757000D03*
X6501220Y-13257000D03*
X6501220Y-12757000D03*
X6501220Y-12257000D03*
X6501220Y-11757000D03*
X6501220Y-11257000D03*
X6501220Y-10757000D03*
X6501220Y-10257000D03*
X6501220Y-9757000D03*
X6501220Y-9257000D03*
X6501220Y-8757000D03*
X6501220Y-8257000D03*
X6501220Y-7757000D03*
X6501220Y-7257000D03*
X6501220Y-6757000D03*
X6501220Y-6257000D03*
X6501220Y-5757000D03*
X6501220Y-5257000D03*
X1002120Y-14757000D03*
X1002120Y-14257000D03*
X1002120Y-13757000D03*
X1002120Y-13257000D03*
X1002120Y-12757000D03*
X1002120Y-12257000D03*
X1002120Y-11757000D03*
X1002120Y-11257000D03*
X1002120Y-10757000D03*
X1002120Y-10257000D03*
X1002120Y-9757000D03*
X1002120Y-9257000D03*
X1002120Y-8757000D03*
X1002120Y-8257000D03*
X1002120Y-7757000D03*
X1002120Y-7257000D03*
X1002120Y-6757000D03*
X1002120Y-6257000D03*
X1002120Y-5757000D03*
X1002120Y-5257000D03*
D11*
X6313260Y-15963500D03*
X1192620Y-15958420D03*
X6313260Y-4055980D03*
X1192620Y-4055980D03*
G04 #@! TD*
D10*
G04 #@! TO.C,J2*
X24001220Y-14757000D03*
X24001220Y-14257000D03*
X24001220Y-13757000D03*
X24001220Y-13257000D03*
X24001220Y-12757000D03*
X24001220Y-12257000D03*
X24001220Y-11757000D03*
X24001220Y-11257000D03*
X24001220Y-10757000D03*
X24001220Y-10257000D03*
X24001220Y-9757000D03*
X24001220Y-9257000D03*
X24001220Y-8757000D03*
X24001220Y-8257000D03*
X24001220Y-7757000D03*
X24001220Y-7257000D03*
X24001220Y-6757000D03*
X24001220Y-6257000D03*
X24001220Y-5757000D03*
X24001220Y-5257000D03*
X18502120Y-14757000D03*
X18502120Y-14257000D03*
X18502120Y-13757000D03*
X18502120Y-13257000D03*
X18502120Y-12757000D03*
X18502120Y-12257000D03*
X18502120Y-11757000D03*
X18502120Y-11257000D03*
X18502120Y-10757000D03*
X18502120Y-10257000D03*
X18502120Y-9757000D03*
X18502120Y-9257000D03*
X18502120Y-8757000D03*
X18502120Y-8257000D03*
X18502120Y-7757000D03*
X18502120Y-7257000D03*
X18502120Y-6757000D03*
X18502120Y-6257000D03*
X18502120Y-5757000D03*
X18502120Y-5257000D03*
D11*
X23813260Y-15963500D03*
X18692620Y-15958420D03*
X23813260Y-4055980D03*
X18692620Y-4055980D03*
G04 #@! TD*
M02*
