G04 #@! TF.GenerationSoftware,KiCad,Pcbnew,5.0.2+dfsg1-1~bpo9+1*
G04 #@! TF.CreationDate,2019-10-16T17:12:59+02:00*
G04 #@! TF.ProjectId,zglue-jade-adapter,7a676c75-652d-46a6-9164-652d61646170,rev?*
G04 #@! TF.SameCoordinates,Original*
G04 #@! TF.FileFunction,Copper,L1,Top*
G04 #@! TF.FilePolarity,Positive*
%FSLAX46Y46*%
G04 Gerber Fmt 4.6, Leading zero omitted, Abs format (unit mm)*
G04 Created by KiCad (PCBNEW 5.0.2+dfsg1-1~bpo9+1) date Wed 16 Oct 2019 05:12:59 PM CEST*
%MOMM*%
%LPD*%
G01*
G04 APERTURE LIST*
G04 #@! TA.AperFunction,SMDPad,CuDef*
%ADD10R,0.300000X0.300000*%
G04 #@! TD*
G04 #@! TA.AperFunction,SMDPad,CuDef*
%ADD11R,3.600000X2.800000*%
G04 #@! TD*
G04 #@! TA.AperFunction,BGAPad,CuDef*
%ADD12C,1.000000*%
G04 #@! TD*
G04 #@! TA.AperFunction,Conductor*
%ADD13C,0.100000*%
G04 #@! TD*
G04 #@! TA.AperFunction,SMDPad,CuDef*
%ADD14C,0.590000*%
G04 #@! TD*
G04 #@! TA.AperFunction,ViaPad*
%ADD15C,0.400000*%
G04 #@! TD*
G04 #@! TA.AperFunction,Conductor*
%ADD16C,0.080000*%
G04 #@! TD*
G04 APERTURE END LIST*
D10*
G04 #@! TO.P,U1,P1*
G04 #@! TO.N,/VX*
X15425000Y-5775000D03*
G04 #@! TO.P,U1,P2*
G04 #@! TO.N,GND*
X14775000Y-5775000D03*
G04 #@! TO.P,U1,P3*
G04 #@! TO.N,/CTRL_SS*
X14125000Y-5775000D03*
G04 #@! TO.P,U1,P4*
G04 #@! TO.N,/PROC_SI*
X13475000Y-5775000D03*
G04 #@! TO.P,U1,P5*
G04 #@! TO.N,/PROC_SO*
X12825000Y-5775000D03*
G04 #@! TO.P,U1,P6*
G04 #@! TO.N,/CSI_CLK_IN_N*
X12175000Y-5775000D03*
G04 #@! TO.P,U1,P7*
G04 #@! TO.N,/CSI_CLK_IN_P*
X11525000Y-5775000D03*
G04 #@! TO.P,U1,P8*
G04 #@! TO.N,/CSI_D2_IN_N*
X10875000Y-5775000D03*
G04 #@! TO.P,U1,P9*
G04 #@! TO.N,/CSI_D1_IN_P*
X10225000Y-5775000D03*
G04 #@! TO.P,U1,P10*
G04 #@! TO.N,/CSI_CLK_OUT_P*
X9575000Y-5775000D03*
G04 #@! TO.P,U1,N7*
G04 #@! TO.N,/3V3_SYS*
X11525000Y-6425000D03*
G04 #@! TO.P,U1,N5*
G04 #@! TO.N,/CTRL_SCK*
X12825000Y-6425000D03*
G04 #@! TO.P,U1,N3*
G04 #@! TO.N,/VDDANA*
X14125000Y-6425000D03*
G04 #@! TO.P,U1,N8*
G04 #@! TO.N,/2V5*
X10875000Y-6425000D03*
G04 #@! TO.P,U1,N4*
G04 #@! TO.N,/1V8*
X13475000Y-6425000D03*
G04 #@! TO.P,U1,N1*
G04 #@! TO.N,/VDDIO_BST*
X15425000Y-6425000D03*
G04 #@! TO.P,U1,N9*
G04 #@! TO.N,/CSI_D1_IN_N*
X10225000Y-6425000D03*
G04 #@! TO.P,U1,N2*
G04 #@! TO.N,GND*
X14775000Y-6425000D03*
G04 #@! TO.P,U1,N10*
G04 #@! TO.N,/CSI_CLK_OUT_N*
X9575000Y-6425000D03*
G04 #@! TO.P,U1,N6*
G04 #@! TO.N,/1V2*
X12175000Y-6425000D03*
G04 #@! TO.P,U1,M7*
G04 #@! TO.N,/LED3_ISINK*
X11525000Y-7075000D03*
G04 #@! TO.P,U1,M5*
G04 #@! TO.N,/LED1_ISINK*
X12825000Y-7075000D03*
G04 #@! TO.P,U1,M3*
G04 #@! TO.N,/DMUX*
X14125000Y-7075000D03*
G04 #@! TO.P,U1,M8*
G04 #@! TO.N,/TMS*
X10875000Y-7075000D03*
G04 #@! TO.P,U1,M4*
G04 #@! TO.N,/VSENSE*
X13475000Y-7075000D03*
G04 #@! TO.P,U1,M1*
G04 #@! TO.N,GND*
X15425000Y-7075000D03*
G04 #@! TO.P,U1,M9*
G04 #@! TO.N,/CSI_D2_IN_P*
X10225000Y-7075000D03*
G04 #@! TO.P,U1,M2*
G04 #@! TO.N,/AMUX*
X14775000Y-7075000D03*
G04 #@! TO.P,U1,M10*
G04 #@! TO.N,/1V8_SYS*
X9575000Y-7075000D03*
G04 #@! TO.P,U1,M6*
G04 #@! TO.N,/LED2_ISINK*
X12175000Y-7075000D03*
G04 #@! TO.P,U1,L3*
G04 #@! TO.N,/EXTCLK_EN*
X14125000Y-7725000D03*
G04 #@! TO.P,U1,L8*
G04 #@! TO.N,/TDO*
X10875000Y-7725000D03*
G04 #@! TO.P,U1,L1*
G04 #@! TO.N,/3V3*
X15425000Y-7725000D03*
G04 #@! TO.P,U1,L9*
G04 #@! TO.N,/TDI*
X10225000Y-7725000D03*
G04 #@! TO.P,U1,L2*
G04 #@! TO.N,/PC_RDY*
X14775000Y-7725000D03*
G04 #@! TO.P,U1,L10*
G04 #@! TO.N,/3V3_SYS*
X9575000Y-7725000D03*
G04 #@! TO.P,U1,K9*
G04 #@! TO.N,/TCK*
X10225000Y-8375000D03*
G04 #@! TO.P,U1,K1*
G04 #@! TO.N,/VBATH*
X15425000Y-8375000D03*
G04 #@! TO.P,U1,K10*
G04 #@! TO.N,/CSI_D1_OUT_N*
X9575000Y-8375000D03*
G04 #@! TO.P,U1,K2*
G04 #@! TO.N,/EXT_CLK*
X14775000Y-8375000D03*
G04 #@! TO.P,U1,J9*
G04 #@! TO.N,/I2C_0_SCL*
X10225000Y-9025000D03*
G04 #@! TO.P,U1,J2*
G04 #@! TO.N,/ZIP_EN_L*
X14775000Y-9025000D03*
G04 #@! TO.P,U1,J10*
G04 #@! TO.N,/CSI_D1_OUT_P*
X9575000Y-9025000D03*
G04 #@! TO.P,U1,J1*
G04 #@! TO.N,/PWR_BTN*
X15425000Y-9025000D03*
G04 #@! TO.P,U1,H9*
G04 #@! TO.N,/I2C_0_SDA*
X10225000Y-9675000D03*
G04 #@! TO.P,U1,H2*
G04 #@! TO.N,/1V2_SYS*
X14775000Y-9675000D03*
G04 #@! TO.P,U1,H10*
G04 #@! TO.N,/2V5_SYS*
X9575000Y-9675000D03*
G04 #@! TO.P,U1,H1*
G04 #@! TO.N,/VPLL_A*
X15425000Y-9675000D03*
G04 #@! TO.P,U1,G9*
G04 #@! TO.N,/PIO16*
X10225000Y-10325000D03*
G04 #@! TO.P,U1,G2*
G04 #@! TO.N,/FLASH_IO2*
X14775000Y-10325000D03*
G04 #@! TO.P,U1,G10*
G04 #@! TO.N,/USB_DET*
X9575000Y-10325000D03*
G04 #@! TO.P,U1,G1*
G04 #@! TO.N,/FLASH_IO1*
X15425000Y-10325000D03*
G04 #@! TO.P,U1,F9*
G04 #@! TO.N,/PROC_SS*
X10225000Y-10975000D03*
G04 #@! TO.P,U1,F2*
G04 #@! TO.N,/FLASH_CS*
X14775000Y-10975000D03*
G04 #@! TO.P,U1,F10*
G04 #@! TO.N,/PROC_SCK*
X9575000Y-10975000D03*
G04 #@! TO.P,U1,F1*
G04 #@! TO.N,/FLASH_IO3*
X15425000Y-10975000D03*
G04 #@! TO.P,U1,E9*
G04 #@! TO.N,/CTRL_SI*
X10225000Y-11625000D03*
G04 #@! TO.P,U1,E2*
G04 #@! TO.N,/FLASH_IO0*
X14775000Y-11625000D03*
G04 #@! TO.P,U1,E10*
G04 #@! TO.N,/PIO15*
X9575000Y-11625000D03*
G04 #@! TO.P,U1,E1*
G04 #@! TO.N,/CTRL_RST_FLASH_SOC_CS*
X15425000Y-11625000D03*
G04 #@! TO.P,U1,D8*
G04 #@! TO.N,Net-(U1-PadD8)*
X10875000Y-12275000D03*
G04 #@! TO.P,U1,D3*
G04 #@! TO.N,/ULPM_WAKE*
X14125000Y-12275000D03*
G04 #@! TO.P,U1,D9*
G04 #@! TO.N,/USB_D_N*
X10225000Y-12275000D03*
G04 #@! TO.P,U1,D1*
G04 #@! TO.N,/PIO18*
X15425000Y-12275000D03*
G04 #@! TO.P,U1,D10*
G04 #@! TO.N,/USB_D_P*
X9575000Y-12275000D03*
G04 #@! TO.P,U1,D2*
G04 #@! TO.N,/FLASH_CLK*
X14775000Y-12275000D03*
G04 #@! TO.P,U1,C8*
G04 #@! TO.N,/PIO13*
X10875000Y-12925000D03*
G04 #@! TO.P,U1,C9*
G04 #@! TO.N,Net-(U1-PadC9)*
X10225000Y-12925000D03*
G04 #@! TO.P,U1,B4*
G04 #@! TO.N,/PIO1*
X13475000Y-13575000D03*
G04 #@! TO.P,U1,A7*
G04 #@! TO.N,/DBG_TX*
X11525000Y-14225000D03*
G04 #@! TO.P,U1,B7*
G04 #@! TO.N,/PIO9*
X11525000Y-13575000D03*
G04 #@! TO.P,U1,B9*
G04 #@! TO.N,/PIO12*
X10225000Y-13575000D03*
G04 #@! TO.P,U1,C2*
G04 #@! TO.N,/PIO17*
X14775000Y-12925000D03*
G04 #@! TO.P,U1,C10*
G04 #@! TO.N,/SYS_CLK*
X9575000Y-12925000D03*
G04 #@! TO.P,U1,C5*
G04 #@! TO.N,/PIO6*
X12825000Y-12925000D03*
G04 #@! TO.P,U1,C7*
G04 #@! TO.N,/PIO14*
X11525000Y-12925000D03*
G04 #@! TO.P,U1,C6*
G04 #@! TO.N,/PIO8*
X12175000Y-12925000D03*
G04 #@! TO.P,U1,B2*
G04 #@! TO.N,/PROC_OUT_1*
X14775000Y-13575000D03*
G04 #@! TO.P,U1,A2*
G04 #@! TO.N,/PROC_OUT_0*
X14775000Y-14225000D03*
G04 #@! TO.P,U1,A9*
G04 #@! TO.N,Net-(U1-PadA9)*
X10225000Y-14225000D03*
G04 #@! TO.P,U1,A1*
G04 #@! TO.N,/PROC_RST*
X15425000Y-14225000D03*
G04 #@! TO.P,U1,A4*
G04 #@! TO.N,/PIO3*
X13475000Y-14225000D03*
G04 #@! TO.P,U1,C1*
G04 #@! TO.N,/PIO19*
X15425000Y-12925000D03*
G04 #@! TO.P,U1,C3*
G04 #@! TO.N,Net-(U1-PadC3)*
X14125000Y-12925000D03*
G04 #@! TO.P,U1,C4*
G04 #@! TO.N,/PIO2*
X13475000Y-12925000D03*
G04 #@! TO.P,U1,A6*
G04 #@! TO.N,/RAVEN_VCC*
X12175000Y-14225000D03*
G04 #@! TO.P,U1,A10*
G04 #@! TO.N,/PIO11*
X9575000Y-14225000D03*
G04 #@! TO.P,U1,A5*
G04 #@! TO.N,/PIO5*
X12825000Y-14225000D03*
G04 #@! TO.P,U1,B8*
G04 #@! TO.N,/PIO10*
X10875000Y-13575000D03*
G04 #@! TO.P,U1,A8*
G04 #@! TO.N,/DBG_RX*
X10875000Y-14225000D03*
G04 #@! TO.P,U1,A3*
G04 #@! TO.N,/DONE*
X14125000Y-14225000D03*
G04 #@! TO.P,U1,B6*
G04 #@! TO.N,/PIO7*
X12175000Y-13575000D03*
G04 #@! TO.P,U1,B3*
G04 #@! TO.N,/PROC_OUT_2*
X14125000Y-13575000D03*
G04 #@! TO.P,U1,B10*
G04 #@! TO.N,/CTRL_SO*
X9575000Y-13575000D03*
G04 #@! TO.P,U1,B5*
G04 #@! TO.N,/PIO4*
X12825000Y-13575000D03*
G04 #@! TO.P,U1,B1*
G04 #@! TO.N,/3V3_SYS*
X15425000Y-13575000D03*
D11*
G04 #@! TO.P,U1,EP*
G04 #@! TO.N,GND*
X12500000Y-10000000D03*
G04 #@! TD*
D12*
G04 #@! TO.P,TP5,1*
G04 #@! TO.N,/DMUX*
X16997600Y-2709200D03*
G04 #@! TD*
G04 #@! TO.P,TP6,1*
G04 #@! TO.N,/AMUX*
X21900000Y-4820000D03*
G04 #@! TD*
G04 #@! TO.P,TP31,1*
G04 #@! TO.N,/PIO19*
X24099200Y-19070000D03*
G04 #@! TD*
G04 #@! TO.P,TP13,1*
G04 #@! TO.N,/VX*
X16349200Y-1070000D03*
G04 #@! TD*
G04 #@! TO.P,TP18,1*
G04 #@! TO.N,/PIO6*
X14849200Y-19070000D03*
G04 #@! TD*
G04 #@! TO.P,TP19,1*
G04 #@! TO.N,/PIO7*
X13400000Y-19070000D03*
G04 #@! TD*
G04 #@! TO.P,TP20,1*
G04 #@! TO.N,/PIO8*
X12099200Y-19070000D03*
G04 #@! TD*
G04 #@! TO.P,TP30,1*
G04 #@! TO.N,/PIO18*
X21150000Y-12070000D03*
G04 #@! TD*
G04 #@! TO.P,TP29,1*
G04 #@! TO.N,/PIO17*
X22650000Y-19070000D03*
G04 #@! TD*
G04 #@! TO.P,TP28,1*
G04 #@! TO.N,/PIO16*
X3650000Y-5070000D03*
G04 #@! TD*
G04 #@! TO.P,TP27,1*
G04 #@! TO.N,/PIO15*
X3650000Y-6570000D03*
G04 #@! TD*
G04 #@! TO.P,TP26,1*
G04 #@! TO.N,/PIO14*
X9349200Y-19070000D03*
G04 #@! TD*
G04 #@! TO.P,TP25,1*
G04 #@! TO.N,/PIO13*
X3150000Y-18070000D03*
G04 #@! TD*
G04 #@! TO.P,TP24,1*
G04 #@! TO.N,/PIO12*
X6349200Y-19070000D03*
G04 #@! TD*
G04 #@! TO.P,TP23,1*
G04 #@! TO.N,/PIO11*
X4849200Y-19070000D03*
G04 #@! TD*
G04 #@! TO.P,TP22,1*
G04 #@! TO.N,/PIO10*
X7900000Y-19070000D03*
G04 #@! TD*
G04 #@! TO.P,TP21,1*
G04 #@! TO.N,/PIO9*
X10747600Y-19070000D03*
G04 #@! TD*
D13*
G04 #@! TO.N,GND*
G04 #@! TO.C,C7*
G36*
X18486958Y-12985710D02*
X18501276Y-12987834D01*
X18515317Y-12991351D01*
X18528946Y-12996228D01*
X18542031Y-13002417D01*
X18554447Y-13009858D01*
X18566073Y-13018481D01*
X18576798Y-13028202D01*
X18586519Y-13038927D01*
X18595142Y-13050553D01*
X18602583Y-13062969D01*
X18608772Y-13076054D01*
X18613649Y-13089683D01*
X18617166Y-13103724D01*
X18619290Y-13118042D01*
X18620000Y-13132500D01*
X18620000Y-13427500D01*
X18619290Y-13441958D01*
X18617166Y-13456276D01*
X18613649Y-13470317D01*
X18608772Y-13483946D01*
X18602583Y-13497031D01*
X18595142Y-13509447D01*
X18586519Y-13521073D01*
X18576798Y-13531798D01*
X18566073Y-13541519D01*
X18554447Y-13550142D01*
X18542031Y-13557583D01*
X18528946Y-13563772D01*
X18515317Y-13568649D01*
X18501276Y-13572166D01*
X18486958Y-13574290D01*
X18472500Y-13575000D01*
X18127500Y-13575000D01*
X18113042Y-13574290D01*
X18098724Y-13572166D01*
X18084683Y-13568649D01*
X18071054Y-13563772D01*
X18057969Y-13557583D01*
X18045553Y-13550142D01*
X18033927Y-13541519D01*
X18023202Y-13531798D01*
X18013481Y-13521073D01*
X18004858Y-13509447D01*
X17997417Y-13497031D01*
X17991228Y-13483946D01*
X17986351Y-13470317D01*
X17982834Y-13456276D01*
X17980710Y-13441958D01*
X17980000Y-13427500D01*
X17980000Y-13132500D01*
X17980710Y-13118042D01*
X17982834Y-13103724D01*
X17986351Y-13089683D01*
X17991228Y-13076054D01*
X17997417Y-13062969D01*
X18004858Y-13050553D01*
X18013481Y-13038927D01*
X18023202Y-13028202D01*
X18033927Y-13018481D01*
X18045553Y-13009858D01*
X18057969Y-13002417D01*
X18071054Y-12996228D01*
X18084683Y-12991351D01*
X18098724Y-12987834D01*
X18113042Y-12985710D01*
X18127500Y-12985000D01*
X18472500Y-12985000D01*
X18486958Y-12985710D01*
X18486958Y-12985710D01*
G37*
D14*
G04 #@! TD*
G04 #@! TO.P,C7,2*
G04 #@! TO.N,GND*
X18300000Y-13280000D03*
D13*
G04 #@! TO.N,/2V5_SYS*
G04 #@! TO.C,C7*
G36*
X18486958Y-12015710D02*
X18501276Y-12017834D01*
X18515317Y-12021351D01*
X18528946Y-12026228D01*
X18542031Y-12032417D01*
X18554447Y-12039858D01*
X18566073Y-12048481D01*
X18576798Y-12058202D01*
X18586519Y-12068927D01*
X18595142Y-12080553D01*
X18602583Y-12092969D01*
X18608772Y-12106054D01*
X18613649Y-12119683D01*
X18617166Y-12133724D01*
X18619290Y-12148042D01*
X18620000Y-12162500D01*
X18620000Y-12457500D01*
X18619290Y-12471958D01*
X18617166Y-12486276D01*
X18613649Y-12500317D01*
X18608772Y-12513946D01*
X18602583Y-12527031D01*
X18595142Y-12539447D01*
X18586519Y-12551073D01*
X18576798Y-12561798D01*
X18566073Y-12571519D01*
X18554447Y-12580142D01*
X18542031Y-12587583D01*
X18528946Y-12593772D01*
X18515317Y-12598649D01*
X18501276Y-12602166D01*
X18486958Y-12604290D01*
X18472500Y-12605000D01*
X18127500Y-12605000D01*
X18113042Y-12604290D01*
X18098724Y-12602166D01*
X18084683Y-12598649D01*
X18071054Y-12593772D01*
X18057969Y-12587583D01*
X18045553Y-12580142D01*
X18033927Y-12571519D01*
X18023202Y-12561798D01*
X18013481Y-12551073D01*
X18004858Y-12539447D01*
X17997417Y-12527031D01*
X17991228Y-12513946D01*
X17986351Y-12500317D01*
X17982834Y-12486276D01*
X17980710Y-12471958D01*
X17980000Y-12457500D01*
X17980000Y-12162500D01*
X17980710Y-12148042D01*
X17982834Y-12133724D01*
X17986351Y-12119683D01*
X17991228Y-12106054D01*
X17997417Y-12092969D01*
X18004858Y-12080553D01*
X18013481Y-12068927D01*
X18023202Y-12058202D01*
X18033927Y-12048481D01*
X18045553Y-12039858D01*
X18057969Y-12032417D01*
X18071054Y-12026228D01*
X18084683Y-12021351D01*
X18098724Y-12017834D01*
X18113042Y-12015710D01*
X18127500Y-12015000D01*
X18472500Y-12015000D01*
X18486958Y-12015710D01*
X18486958Y-12015710D01*
G37*
D14*
G04 #@! TD*
G04 #@! TO.P,C7,1*
G04 #@! TO.N,/2V5_SYS*
X18300000Y-12310000D03*
D13*
G04 #@! TO.N,GND*
G04 #@! TO.C,C6*
G36*
X8036958Y-5500710D02*
X8051276Y-5502834D01*
X8065317Y-5506351D01*
X8078946Y-5511228D01*
X8092031Y-5517417D01*
X8104447Y-5524858D01*
X8116073Y-5533481D01*
X8126798Y-5543202D01*
X8136519Y-5553927D01*
X8145142Y-5565553D01*
X8152583Y-5577969D01*
X8158772Y-5591054D01*
X8163649Y-5604683D01*
X8167166Y-5618724D01*
X8169290Y-5633042D01*
X8170000Y-5647500D01*
X8170000Y-5942500D01*
X8169290Y-5956958D01*
X8167166Y-5971276D01*
X8163649Y-5985317D01*
X8158772Y-5998946D01*
X8152583Y-6012031D01*
X8145142Y-6024447D01*
X8136519Y-6036073D01*
X8126798Y-6046798D01*
X8116073Y-6056519D01*
X8104447Y-6065142D01*
X8092031Y-6072583D01*
X8078946Y-6078772D01*
X8065317Y-6083649D01*
X8051276Y-6087166D01*
X8036958Y-6089290D01*
X8022500Y-6090000D01*
X7677500Y-6090000D01*
X7663042Y-6089290D01*
X7648724Y-6087166D01*
X7634683Y-6083649D01*
X7621054Y-6078772D01*
X7607969Y-6072583D01*
X7595553Y-6065142D01*
X7583927Y-6056519D01*
X7573202Y-6046798D01*
X7563481Y-6036073D01*
X7554858Y-6024447D01*
X7547417Y-6012031D01*
X7541228Y-5998946D01*
X7536351Y-5985317D01*
X7532834Y-5971276D01*
X7530710Y-5956958D01*
X7530000Y-5942500D01*
X7530000Y-5647500D01*
X7530710Y-5633042D01*
X7532834Y-5618724D01*
X7536351Y-5604683D01*
X7541228Y-5591054D01*
X7547417Y-5577969D01*
X7554858Y-5565553D01*
X7563481Y-5553927D01*
X7573202Y-5543202D01*
X7583927Y-5533481D01*
X7595553Y-5524858D01*
X7607969Y-5517417D01*
X7621054Y-5511228D01*
X7634683Y-5506351D01*
X7648724Y-5502834D01*
X7663042Y-5500710D01*
X7677500Y-5500000D01*
X8022500Y-5500000D01*
X8036958Y-5500710D01*
X8036958Y-5500710D01*
G37*
D14*
G04 #@! TD*
G04 #@! TO.P,C6,2*
G04 #@! TO.N,GND*
X7850000Y-5795000D03*
D13*
G04 #@! TO.N,/1V8_SYS*
G04 #@! TO.C,C6*
G36*
X8036958Y-6470710D02*
X8051276Y-6472834D01*
X8065317Y-6476351D01*
X8078946Y-6481228D01*
X8092031Y-6487417D01*
X8104447Y-6494858D01*
X8116073Y-6503481D01*
X8126798Y-6513202D01*
X8136519Y-6523927D01*
X8145142Y-6535553D01*
X8152583Y-6547969D01*
X8158772Y-6561054D01*
X8163649Y-6574683D01*
X8167166Y-6588724D01*
X8169290Y-6603042D01*
X8170000Y-6617500D01*
X8170000Y-6912500D01*
X8169290Y-6926958D01*
X8167166Y-6941276D01*
X8163649Y-6955317D01*
X8158772Y-6968946D01*
X8152583Y-6982031D01*
X8145142Y-6994447D01*
X8136519Y-7006073D01*
X8126798Y-7016798D01*
X8116073Y-7026519D01*
X8104447Y-7035142D01*
X8092031Y-7042583D01*
X8078946Y-7048772D01*
X8065317Y-7053649D01*
X8051276Y-7057166D01*
X8036958Y-7059290D01*
X8022500Y-7060000D01*
X7677500Y-7060000D01*
X7663042Y-7059290D01*
X7648724Y-7057166D01*
X7634683Y-7053649D01*
X7621054Y-7048772D01*
X7607969Y-7042583D01*
X7595553Y-7035142D01*
X7583927Y-7026519D01*
X7573202Y-7016798D01*
X7563481Y-7006073D01*
X7554858Y-6994447D01*
X7547417Y-6982031D01*
X7541228Y-6968946D01*
X7536351Y-6955317D01*
X7532834Y-6941276D01*
X7530710Y-6926958D01*
X7530000Y-6912500D01*
X7530000Y-6617500D01*
X7530710Y-6603042D01*
X7532834Y-6588724D01*
X7536351Y-6574683D01*
X7541228Y-6561054D01*
X7547417Y-6547969D01*
X7554858Y-6535553D01*
X7563481Y-6523927D01*
X7573202Y-6513202D01*
X7583927Y-6503481D01*
X7595553Y-6494858D01*
X7607969Y-6487417D01*
X7621054Y-6481228D01*
X7634683Y-6476351D01*
X7648724Y-6472834D01*
X7663042Y-6470710D01*
X7677500Y-6470000D01*
X8022500Y-6470000D01*
X8036958Y-6470710D01*
X8036958Y-6470710D01*
G37*
D14*
G04 #@! TD*
G04 #@! TO.P,C6,1*
G04 #@! TO.N,/1V8_SYS*
X7850000Y-6765000D03*
D13*
G04 #@! TO.N,GND*
G04 #@! TO.C,C5*
G36*
X8026958Y-8520710D02*
X8041276Y-8522834D01*
X8055317Y-8526351D01*
X8068946Y-8531228D01*
X8082031Y-8537417D01*
X8094447Y-8544858D01*
X8106073Y-8553481D01*
X8116798Y-8563202D01*
X8126519Y-8573927D01*
X8135142Y-8585553D01*
X8142583Y-8597969D01*
X8148772Y-8611054D01*
X8153649Y-8624683D01*
X8157166Y-8638724D01*
X8159290Y-8653042D01*
X8160000Y-8667500D01*
X8160000Y-8962500D01*
X8159290Y-8976958D01*
X8157166Y-8991276D01*
X8153649Y-9005317D01*
X8148772Y-9018946D01*
X8142583Y-9032031D01*
X8135142Y-9044447D01*
X8126519Y-9056073D01*
X8116798Y-9066798D01*
X8106073Y-9076519D01*
X8094447Y-9085142D01*
X8082031Y-9092583D01*
X8068946Y-9098772D01*
X8055317Y-9103649D01*
X8041276Y-9107166D01*
X8026958Y-9109290D01*
X8012500Y-9110000D01*
X7667500Y-9110000D01*
X7653042Y-9109290D01*
X7638724Y-9107166D01*
X7624683Y-9103649D01*
X7611054Y-9098772D01*
X7597969Y-9092583D01*
X7585553Y-9085142D01*
X7573927Y-9076519D01*
X7563202Y-9066798D01*
X7553481Y-9056073D01*
X7544858Y-9044447D01*
X7537417Y-9032031D01*
X7531228Y-9018946D01*
X7526351Y-9005317D01*
X7522834Y-8991276D01*
X7520710Y-8976958D01*
X7520000Y-8962500D01*
X7520000Y-8667500D01*
X7520710Y-8653042D01*
X7522834Y-8638724D01*
X7526351Y-8624683D01*
X7531228Y-8611054D01*
X7537417Y-8597969D01*
X7544858Y-8585553D01*
X7553481Y-8573927D01*
X7563202Y-8563202D01*
X7573927Y-8553481D01*
X7585553Y-8544858D01*
X7597969Y-8537417D01*
X7611054Y-8531228D01*
X7624683Y-8526351D01*
X7638724Y-8522834D01*
X7653042Y-8520710D01*
X7667500Y-8520000D01*
X8012500Y-8520000D01*
X8026958Y-8520710D01*
X8026958Y-8520710D01*
G37*
D14*
G04 #@! TD*
G04 #@! TO.P,C5,2*
G04 #@! TO.N,GND*
X7840000Y-8815000D03*
D13*
G04 #@! TO.N,/3V3_SYS*
G04 #@! TO.C,C5*
G36*
X8026958Y-7550710D02*
X8041276Y-7552834D01*
X8055317Y-7556351D01*
X8068946Y-7561228D01*
X8082031Y-7567417D01*
X8094447Y-7574858D01*
X8106073Y-7583481D01*
X8116798Y-7593202D01*
X8126519Y-7603927D01*
X8135142Y-7615553D01*
X8142583Y-7627969D01*
X8148772Y-7641054D01*
X8153649Y-7654683D01*
X8157166Y-7668724D01*
X8159290Y-7683042D01*
X8160000Y-7697500D01*
X8160000Y-7992500D01*
X8159290Y-8006958D01*
X8157166Y-8021276D01*
X8153649Y-8035317D01*
X8148772Y-8048946D01*
X8142583Y-8062031D01*
X8135142Y-8074447D01*
X8126519Y-8086073D01*
X8116798Y-8096798D01*
X8106073Y-8106519D01*
X8094447Y-8115142D01*
X8082031Y-8122583D01*
X8068946Y-8128772D01*
X8055317Y-8133649D01*
X8041276Y-8137166D01*
X8026958Y-8139290D01*
X8012500Y-8140000D01*
X7667500Y-8140000D01*
X7653042Y-8139290D01*
X7638724Y-8137166D01*
X7624683Y-8133649D01*
X7611054Y-8128772D01*
X7597969Y-8122583D01*
X7585553Y-8115142D01*
X7573927Y-8106519D01*
X7563202Y-8096798D01*
X7553481Y-8086073D01*
X7544858Y-8074447D01*
X7537417Y-8062031D01*
X7531228Y-8048946D01*
X7526351Y-8035317D01*
X7522834Y-8021276D01*
X7520710Y-8006958D01*
X7520000Y-7992500D01*
X7520000Y-7697500D01*
X7520710Y-7683042D01*
X7522834Y-7668724D01*
X7526351Y-7654683D01*
X7531228Y-7641054D01*
X7537417Y-7627969D01*
X7544858Y-7615553D01*
X7553481Y-7603927D01*
X7563202Y-7593202D01*
X7573927Y-7583481D01*
X7585553Y-7574858D01*
X7597969Y-7567417D01*
X7611054Y-7561228D01*
X7624683Y-7556351D01*
X7638724Y-7552834D01*
X7653042Y-7550710D01*
X7667500Y-7550000D01*
X8012500Y-7550000D01*
X8026958Y-7550710D01*
X8026958Y-7550710D01*
G37*
D14*
G04 #@! TD*
G04 #@! TO.P,C5,1*
G04 #@! TO.N,/3V3_SYS*
X7840000Y-7845000D03*
D13*
G04 #@! TO.N,GND*
G04 #@! TO.C,C4*
G36*
X13446958Y-1360710D02*
X13461276Y-1362834D01*
X13475317Y-1366351D01*
X13488946Y-1371228D01*
X13502031Y-1377417D01*
X13514447Y-1384858D01*
X13526073Y-1393481D01*
X13536798Y-1403202D01*
X13546519Y-1413927D01*
X13555142Y-1425553D01*
X13562583Y-1437969D01*
X13568772Y-1451054D01*
X13573649Y-1464683D01*
X13577166Y-1478724D01*
X13579290Y-1493042D01*
X13580000Y-1507500D01*
X13580000Y-1802500D01*
X13579290Y-1816958D01*
X13577166Y-1831276D01*
X13573649Y-1845317D01*
X13568772Y-1858946D01*
X13562583Y-1872031D01*
X13555142Y-1884447D01*
X13546519Y-1896073D01*
X13536798Y-1906798D01*
X13526073Y-1916519D01*
X13514447Y-1925142D01*
X13502031Y-1932583D01*
X13488946Y-1938772D01*
X13475317Y-1943649D01*
X13461276Y-1947166D01*
X13446958Y-1949290D01*
X13432500Y-1950000D01*
X13087500Y-1950000D01*
X13073042Y-1949290D01*
X13058724Y-1947166D01*
X13044683Y-1943649D01*
X13031054Y-1938772D01*
X13017969Y-1932583D01*
X13005553Y-1925142D01*
X12993927Y-1916519D01*
X12983202Y-1906798D01*
X12973481Y-1896073D01*
X12964858Y-1884447D01*
X12957417Y-1872031D01*
X12951228Y-1858946D01*
X12946351Y-1845317D01*
X12942834Y-1831276D01*
X12940710Y-1816958D01*
X12940000Y-1802500D01*
X12940000Y-1507500D01*
X12940710Y-1493042D01*
X12942834Y-1478724D01*
X12946351Y-1464683D01*
X12951228Y-1451054D01*
X12957417Y-1437969D01*
X12964858Y-1425553D01*
X12973481Y-1413927D01*
X12983202Y-1403202D01*
X12993927Y-1393481D01*
X13005553Y-1384858D01*
X13017969Y-1377417D01*
X13031054Y-1371228D01*
X13044683Y-1366351D01*
X13058724Y-1362834D01*
X13073042Y-1360710D01*
X13087500Y-1360000D01*
X13432500Y-1360000D01*
X13446958Y-1360710D01*
X13446958Y-1360710D01*
G37*
D14*
G04 #@! TD*
G04 #@! TO.P,C4,2*
G04 #@! TO.N,GND*
X13260000Y-1655000D03*
D13*
G04 #@! TO.N,/1V2_SYS*
G04 #@! TO.C,C4*
G36*
X13446958Y-2330710D02*
X13461276Y-2332834D01*
X13475317Y-2336351D01*
X13488946Y-2341228D01*
X13502031Y-2347417D01*
X13514447Y-2354858D01*
X13526073Y-2363481D01*
X13536798Y-2373202D01*
X13546519Y-2383927D01*
X13555142Y-2395553D01*
X13562583Y-2407969D01*
X13568772Y-2421054D01*
X13573649Y-2434683D01*
X13577166Y-2448724D01*
X13579290Y-2463042D01*
X13580000Y-2477500D01*
X13580000Y-2772500D01*
X13579290Y-2786958D01*
X13577166Y-2801276D01*
X13573649Y-2815317D01*
X13568772Y-2828946D01*
X13562583Y-2842031D01*
X13555142Y-2854447D01*
X13546519Y-2866073D01*
X13536798Y-2876798D01*
X13526073Y-2886519D01*
X13514447Y-2895142D01*
X13502031Y-2902583D01*
X13488946Y-2908772D01*
X13475317Y-2913649D01*
X13461276Y-2917166D01*
X13446958Y-2919290D01*
X13432500Y-2920000D01*
X13087500Y-2920000D01*
X13073042Y-2919290D01*
X13058724Y-2917166D01*
X13044683Y-2913649D01*
X13031054Y-2908772D01*
X13017969Y-2902583D01*
X13005553Y-2895142D01*
X12993927Y-2886519D01*
X12983202Y-2876798D01*
X12973481Y-2866073D01*
X12964858Y-2854447D01*
X12957417Y-2842031D01*
X12951228Y-2828946D01*
X12946351Y-2815317D01*
X12942834Y-2801276D01*
X12940710Y-2786958D01*
X12940000Y-2772500D01*
X12940000Y-2477500D01*
X12940710Y-2463042D01*
X12942834Y-2448724D01*
X12946351Y-2434683D01*
X12951228Y-2421054D01*
X12957417Y-2407969D01*
X12964858Y-2395553D01*
X12973481Y-2383927D01*
X12983202Y-2373202D01*
X12993927Y-2363481D01*
X13005553Y-2354858D01*
X13017969Y-2347417D01*
X13031054Y-2341228D01*
X13044683Y-2336351D01*
X13058724Y-2332834D01*
X13073042Y-2330710D01*
X13087500Y-2330000D01*
X13432500Y-2330000D01*
X13446958Y-2330710D01*
X13446958Y-2330710D01*
G37*
D14*
G04 #@! TD*
G04 #@! TO.P,C4,1*
G04 #@! TO.N,/1V2_SYS*
X13260000Y-2625000D03*
D13*
G04 #@! TO.N,GND*
G04 #@! TO.C,C3*
G36*
X17436958Y-12985710D02*
X17451276Y-12987834D01*
X17465317Y-12991351D01*
X17478946Y-12996228D01*
X17492031Y-13002417D01*
X17504447Y-13009858D01*
X17516073Y-13018481D01*
X17526798Y-13028202D01*
X17536519Y-13038927D01*
X17545142Y-13050553D01*
X17552583Y-13062969D01*
X17558772Y-13076054D01*
X17563649Y-13089683D01*
X17567166Y-13103724D01*
X17569290Y-13118042D01*
X17570000Y-13132500D01*
X17570000Y-13427500D01*
X17569290Y-13441958D01*
X17567166Y-13456276D01*
X17563649Y-13470317D01*
X17558772Y-13483946D01*
X17552583Y-13497031D01*
X17545142Y-13509447D01*
X17536519Y-13521073D01*
X17526798Y-13531798D01*
X17516073Y-13541519D01*
X17504447Y-13550142D01*
X17492031Y-13557583D01*
X17478946Y-13563772D01*
X17465317Y-13568649D01*
X17451276Y-13572166D01*
X17436958Y-13574290D01*
X17422500Y-13575000D01*
X17077500Y-13575000D01*
X17063042Y-13574290D01*
X17048724Y-13572166D01*
X17034683Y-13568649D01*
X17021054Y-13563772D01*
X17007969Y-13557583D01*
X16995553Y-13550142D01*
X16983927Y-13541519D01*
X16973202Y-13531798D01*
X16963481Y-13521073D01*
X16954858Y-13509447D01*
X16947417Y-13497031D01*
X16941228Y-13483946D01*
X16936351Y-13470317D01*
X16932834Y-13456276D01*
X16930710Y-13441958D01*
X16930000Y-13427500D01*
X16930000Y-13132500D01*
X16930710Y-13118042D01*
X16932834Y-13103724D01*
X16936351Y-13089683D01*
X16941228Y-13076054D01*
X16947417Y-13062969D01*
X16954858Y-13050553D01*
X16963481Y-13038927D01*
X16973202Y-13028202D01*
X16983927Y-13018481D01*
X16995553Y-13009858D01*
X17007969Y-13002417D01*
X17021054Y-12996228D01*
X17034683Y-12991351D01*
X17048724Y-12987834D01*
X17063042Y-12985710D01*
X17077500Y-12985000D01*
X17422500Y-12985000D01*
X17436958Y-12985710D01*
X17436958Y-12985710D01*
G37*
D14*
G04 #@! TD*
G04 #@! TO.P,C3,2*
G04 #@! TO.N,GND*
X17250000Y-13280000D03*
D13*
G04 #@! TO.N,/2V5_SYS*
G04 #@! TO.C,C3*
G36*
X17436958Y-12015710D02*
X17451276Y-12017834D01*
X17465317Y-12021351D01*
X17478946Y-12026228D01*
X17492031Y-12032417D01*
X17504447Y-12039858D01*
X17516073Y-12048481D01*
X17526798Y-12058202D01*
X17536519Y-12068927D01*
X17545142Y-12080553D01*
X17552583Y-12092969D01*
X17558772Y-12106054D01*
X17563649Y-12119683D01*
X17567166Y-12133724D01*
X17569290Y-12148042D01*
X17570000Y-12162500D01*
X17570000Y-12457500D01*
X17569290Y-12471958D01*
X17567166Y-12486276D01*
X17563649Y-12500317D01*
X17558772Y-12513946D01*
X17552583Y-12527031D01*
X17545142Y-12539447D01*
X17536519Y-12551073D01*
X17526798Y-12561798D01*
X17516073Y-12571519D01*
X17504447Y-12580142D01*
X17492031Y-12587583D01*
X17478946Y-12593772D01*
X17465317Y-12598649D01*
X17451276Y-12602166D01*
X17436958Y-12604290D01*
X17422500Y-12605000D01*
X17077500Y-12605000D01*
X17063042Y-12604290D01*
X17048724Y-12602166D01*
X17034683Y-12598649D01*
X17021054Y-12593772D01*
X17007969Y-12587583D01*
X16995553Y-12580142D01*
X16983927Y-12571519D01*
X16973202Y-12561798D01*
X16963481Y-12551073D01*
X16954858Y-12539447D01*
X16947417Y-12527031D01*
X16941228Y-12513946D01*
X16936351Y-12500317D01*
X16932834Y-12486276D01*
X16930710Y-12471958D01*
X16930000Y-12457500D01*
X16930000Y-12162500D01*
X16930710Y-12148042D01*
X16932834Y-12133724D01*
X16936351Y-12119683D01*
X16941228Y-12106054D01*
X16947417Y-12092969D01*
X16954858Y-12080553D01*
X16963481Y-12068927D01*
X16973202Y-12058202D01*
X16983927Y-12048481D01*
X16995553Y-12039858D01*
X17007969Y-12032417D01*
X17021054Y-12026228D01*
X17034683Y-12021351D01*
X17048724Y-12017834D01*
X17063042Y-12015710D01*
X17077500Y-12015000D01*
X17422500Y-12015000D01*
X17436958Y-12015710D01*
X17436958Y-12015710D01*
G37*
D14*
G04 #@! TD*
G04 #@! TO.P,C3,1*
G04 #@! TO.N,/2V5_SYS*
X17250000Y-12310000D03*
D13*
G04 #@! TO.N,GND*
G04 #@! TO.C,C2*
G36*
X6986958Y-5500710D02*
X7001276Y-5502834D01*
X7015317Y-5506351D01*
X7028946Y-5511228D01*
X7042031Y-5517417D01*
X7054447Y-5524858D01*
X7066073Y-5533481D01*
X7076798Y-5543202D01*
X7086519Y-5553927D01*
X7095142Y-5565553D01*
X7102583Y-5577969D01*
X7108772Y-5591054D01*
X7113649Y-5604683D01*
X7117166Y-5618724D01*
X7119290Y-5633042D01*
X7120000Y-5647500D01*
X7120000Y-5942500D01*
X7119290Y-5956958D01*
X7117166Y-5971276D01*
X7113649Y-5985317D01*
X7108772Y-5998946D01*
X7102583Y-6012031D01*
X7095142Y-6024447D01*
X7086519Y-6036073D01*
X7076798Y-6046798D01*
X7066073Y-6056519D01*
X7054447Y-6065142D01*
X7042031Y-6072583D01*
X7028946Y-6078772D01*
X7015317Y-6083649D01*
X7001276Y-6087166D01*
X6986958Y-6089290D01*
X6972500Y-6090000D01*
X6627500Y-6090000D01*
X6613042Y-6089290D01*
X6598724Y-6087166D01*
X6584683Y-6083649D01*
X6571054Y-6078772D01*
X6557969Y-6072583D01*
X6545553Y-6065142D01*
X6533927Y-6056519D01*
X6523202Y-6046798D01*
X6513481Y-6036073D01*
X6504858Y-6024447D01*
X6497417Y-6012031D01*
X6491228Y-5998946D01*
X6486351Y-5985317D01*
X6482834Y-5971276D01*
X6480710Y-5956958D01*
X6480000Y-5942500D01*
X6480000Y-5647500D01*
X6480710Y-5633042D01*
X6482834Y-5618724D01*
X6486351Y-5604683D01*
X6491228Y-5591054D01*
X6497417Y-5577969D01*
X6504858Y-5565553D01*
X6513481Y-5553927D01*
X6523202Y-5543202D01*
X6533927Y-5533481D01*
X6545553Y-5524858D01*
X6557969Y-5517417D01*
X6571054Y-5511228D01*
X6584683Y-5506351D01*
X6598724Y-5502834D01*
X6613042Y-5500710D01*
X6627500Y-5500000D01*
X6972500Y-5500000D01*
X6986958Y-5500710D01*
X6986958Y-5500710D01*
G37*
D14*
G04 #@! TD*
G04 #@! TO.P,C2,2*
G04 #@! TO.N,GND*
X6800000Y-5795000D03*
D13*
G04 #@! TO.N,/1V8_SYS*
G04 #@! TO.C,C2*
G36*
X6986958Y-6470710D02*
X7001276Y-6472834D01*
X7015317Y-6476351D01*
X7028946Y-6481228D01*
X7042031Y-6487417D01*
X7054447Y-6494858D01*
X7066073Y-6503481D01*
X7076798Y-6513202D01*
X7086519Y-6523927D01*
X7095142Y-6535553D01*
X7102583Y-6547969D01*
X7108772Y-6561054D01*
X7113649Y-6574683D01*
X7117166Y-6588724D01*
X7119290Y-6603042D01*
X7120000Y-6617500D01*
X7120000Y-6912500D01*
X7119290Y-6926958D01*
X7117166Y-6941276D01*
X7113649Y-6955317D01*
X7108772Y-6968946D01*
X7102583Y-6982031D01*
X7095142Y-6994447D01*
X7086519Y-7006073D01*
X7076798Y-7016798D01*
X7066073Y-7026519D01*
X7054447Y-7035142D01*
X7042031Y-7042583D01*
X7028946Y-7048772D01*
X7015317Y-7053649D01*
X7001276Y-7057166D01*
X6986958Y-7059290D01*
X6972500Y-7060000D01*
X6627500Y-7060000D01*
X6613042Y-7059290D01*
X6598724Y-7057166D01*
X6584683Y-7053649D01*
X6571054Y-7048772D01*
X6557969Y-7042583D01*
X6545553Y-7035142D01*
X6533927Y-7026519D01*
X6523202Y-7016798D01*
X6513481Y-7006073D01*
X6504858Y-6994447D01*
X6497417Y-6982031D01*
X6491228Y-6968946D01*
X6486351Y-6955317D01*
X6482834Y-6941276D01*
X6480710Y-6926958D01*
X6480000Y-6912500D01*
X6480000Y-6617500D01*
X6480710Y-6603042D01*
X6482834Y-6588724D01*
X6486351Y-6574683D01*
X6491228Y-6561054D01*
X6497417Y-6547969D01*
X6504858Y-6535553D01*
X6513481Y-6523927D01*
X6523202Y-6513202D01*
X6533927Y-6503481D01*
X6545553Y-6494858D01*
X6557969Y-6487417D01*
X6571054Y-6481228D01*
X6584683Y-6476351D01*
X6598724Y-6472834D01*
X6613042Y-6470710D01*
X6627500Y-6470000D01*
X6972500Y-6470000D01*
X6986958Y-6470710D01*
X6986958Y-6470710D01*
G37*
D14*
G04 #@! TD*
G04 #@! TO.P,C2,1*
G04 #@! TO.N,/1V8_SYS*
X6800000Y-6765000D03*
D13*
G04 #@! TO.N,GND*
G04 #@! TO.C,C10*
G36*
X14911958Y-2590710D02*
X14926276Y-2592834D01*
X14940317Y-2596351D01*
X14953946Y-2601228D01*
X14967031Y-2607417D01*
X14979447Y-2614858D01*
X14991073Y-2623481D01*
X15001798Y-2633202D01*
X15011519Y-2643927D01*
X15020142Y-2655553D01*
X15027583Y-2667969D01*
X15033772Y-2681054D01*
X15038649Y-2694683D01*
X15042166Y-2708724D01*
X15044290Y-2723042D01*
X15045000Y-2737500D01*
X15045000Y-3032500D01*
X15044290Y-3046958D01*
X15042166Y-3061276D01*
X15038649Y-3075317D01*
X15033772Y-3088946D01*
X15027583Y-3102031D01*
X15020142Y-3114447D01*
X15011519Y-3126073D01*
X15001798Y-3136798D01*
X14991073Y-3146519D01*
X14979447Y-3155142D01*
X14967031Y-3162583D01*
X14953946Y-3168772D01*
X14940317Y-3173649D01*
X14926276Y-3177166D01*
X14911958Y-3179290D01*
X14897500Y-3180000D01*
X14552500Y-3180000D01*
X14538042Y-3179290D01*
X14523724Y-3177166D01*
X14509683Y-3173649D01*
X14496054Y-3168772D01*
X14482969Y-3162583D01*
X14470553Y-3155142D01*
X14458927Y-3146519D01*
X14448202Y-3136798D01*
X14438481Y-3126073D01*
X14429858Y-3114447D01*
X14422417Y-3102031D01*
X14416228Y-3088946D01*
X14411351Y-3075317D01*
X14407834Y-3061276D01*
X14405710Y-3046958D01*
X14405000Y-3032500D01*
X14405000Y-2737500D01*
X14405710Y-2723042D01*
X14407834Y-2708724D01*
X14411351Y-2694683D01*
X14416228Y-2681054D01*
X14422417Y-2667969D01*
X14429858Y-2655553D01*
X14438481Y-2643927D01*
X14448202Y-2633202D01*
X14458927Y-2623481D01*
X14470553Y-2614858D01*
X14482969Y-2607417D01*
X14496054Y-2601228D01*
X14509683Y-2596351D01*
X14523724Y-2592834D01*
X14538042Y-2590710D01*
X14552500Y-2590000D01*
X14897500Y-2590000D01*
X14911958Y-2590710D01*
X14911958Y-2590710D01*
G37*
D14*
G04 #@! TD*
G04 #@! TO.P,C10,2*
G04 #@! TO.N,GND*
X14725000Y-2885000D03*
D13*
G04 #@! TO.N,/VDDANA*
G04 #@! TO.C,C10*
G36*
X14911958Y-3560710D02*
X14926276Y-3562834D01*
X14940317Y-3566351D01*
X14953946Y-3571228D01*
X14967031Y-3577417D01*
X14979447Y-3584858D01*
X14991073Y-3593481D01*
X15001798Y-3603202D01*
X15011519Y-3613927D01*
X15020142Y-3625553D01*
X15027583Y-3637969D01*
X15033772Y-3651054D01*
X15038649Y-3664683D01*
X15042166Y-3678724D01*
X15044290Y-3693042D01*
X15045000Y-3707500D01*
X15045000Y-4002500D01*
X15044290Y-4016958D01*
X15042166Y-4031276D01*
X15038649Y-4045317D01*
X15033772Y-4058946D01*
X15027583Y-4072031D01*
X15020142Y-4084447D01*
X15011519Y-4096073D01*
X15001798Y-4106798D01*
X14991073Y-4116519D01*
X14979447Y-4125142D01*
X14967031Y-4132583D01*
X14953946Y-4138772D01*
X14940317Y-4143649D01*
X14926276Y-4147166D01*
X14911958Y-4149290D01*
X14897500Y-4150000D01*
X14552500Y-4150000D01*
X14538042Y-4149290D01*
X14523724Y-4147166D01*
X14509683Y-4143649D01*
X14496054Y-4138772D01*
X14482969Y-4132583D01*
X14470553Y-4125142D01*
X14458927Y-4116519D01*
X14448202Y-4106798D01*
X14438481Y-4096073D01*
X14429858Y-4084447D01*
X14422417Y-4072031D01*
X14416228Y-4058946D01*
X14411351Y-4045317D01*
X14407834Y-4031276D01*
X14405710Y-4016958D01*
X14405000Y-4002500D01*
X14405000Y-3707500D01*
X14405710Y-3693042D01*
X14407834Y-3678724D01*
X14411351Y-3664683D01*
X14416228Y-3651054D01*
X14422417Y-3637969D01*
X14429858Y-3625553D01*
X14438481Y-3613927D01*
X14448202Y-3603202D01*
X14458927Y-3593481D01*
X14470553Y-3584858D01*
X14482969Y-3577417D01*
X14496054Y-3571228D01*
X14509683Y-3566351D01*
X14523724Y-3562834D01*
X14538042Y-3560710D01*
X14552500Y-3560000D01*
X14897500Y-3560000D01*
X14911958Y-3560710D01*
X14911958Y-3560710D01*
G37*
D14*
G04 #@! TD*
G04 #@! TO.P,C10,1*
G04 #@! TO.N,/VDDANA*
X14725000Y-3855000D03*
D13*
G04 #@! TO.N,GND*
G04 #@! TO.C,C14*
G36*
X19351958Y-9790710D02*
X19366276Y-9792834D01*
X19380317Y-9796351D01*
X19393946Y-9801228D01*
X19407031Y-9807417D01*
X19419447Y-9814858D01*
X19431073Y-9823481D01*
X19441798Y-9833202D01*
X19451519Y-9843927D01*
X19460142Y-9855553D01*
X19467583Y-9867969D01*
X19473772Y-9881054D01*
X19478649Y-9894683D01*
X19482166Y-9908724D01*
X19484290Y-9923042D01*
X19485000Y-9937500D01*
X19485000Y-10282500D01*
X19484290Y-10296958D01*
X19482166Y-10311276D01*
X19478649Y-10325317D01*
X19473772Y-10338946D01*
X19467583Y-10352031D01*
X19460142Y-10364447D01*
X19451519Y-10376073D01*
X19441798Y-10386798D01*
X19431073Y-10396519D01*
X19419447Y-10405142D01*
X19407031Y-10412583D01*
X19393946Y-10418772D01*
X19380317Y-10423649D01*
X19366276Y-10427166D01*
X19351958Y-10429290D01*
X19337500Y-10430000D01*
X19042500Y-10430000D01*
X19028042Y-10429290D01*
X19013724Y-10427166D01*
X18999683Y-10423649D01*
X18986054Y-10418772D01*
X18972969Y-10412583D01*
X18960553Y-10405142D01*
X18948927Y-10396519D01*
X18938202Y-10386798D01*
X18928481Y-10376073D01*
X18919858Y-10364447D01*
X18912417Y-10352031D01*
X18906228Y-10338946D01*
X18901351Y-10325317D01*
X18897834Y-10311276D01*
X18895710Y-10296958D01*
X18895000Y-10282500D01*
X18895000Y-9937500D01*
X18895710Y-9923042D01*
X18897834Y-9908724D01*
X18901351Y-9894683D01*
X18906228Y-9881054D01*
X18912417Y-9867969D01*
X18919858Y-9855553D01*
X18928481Y-9843927D01*
X18938202Y-9833202D01*
X18948927Y-9823481D01*
X18960553Y-9814858D01*
X18972969Y-9807417D01*
X18986054Y-9801228D01*
X18999683Y-9796351D01*
X19013724Y-9792834D01*
X19028042Y-9790710D01*
X19042500Y-9790000D01*
X19337500Y-9790000D01*
X19351958Y-9790710D01*
X19351958Y-9790710D01*
G37*
D14*
G04 #@! TD*
G04 #@! TO.P,C14,2*
G04 #@! TO.N,GND*
X19190000Y-10110000D03*
D13*
G04 #@! TO.N,/VPLL_A*
G04 #@! TO.C,C14*
G36*
X18381958Y-9790710D02*
X18396276Y-9792834D01*
X18410317Y-9796351D01*
X18423946Y-9801228D01*
X18437031Y-9807417D01*
X18449447Y-9814858D01*
X18461073Y-9823481D01*
X18471798Y-9833202D01*
X18481519Y-9843927D01*
X18490142Y-9855553D01*
X18497583Y-9867969D01*
X18503772Y-9881054D01*
X18508649Y-9894683D01*
X18512166Y-9908724D01*
X18514290Y-9923042D01*
X18515000Y-9937500D01*
X18515000Y-10282500D01*
X18514290Y-10296958D01*
X18512166Y-10311276D01*
X18508649Y-10325317D01*
X18503772Y-10338946D01*
X18497583Y-10352031D01*
X18490142Y-10364447D01*
X18481519Y-10376073D01*
X18471798Y-10386798D01*
X18461073Y-10396519D01*
X18449447Y-10405142D01*
X18437031Y-10412583D01*
X18423946Y-10418772D01*
X18410317Y-10423649D01*
X18396276Y-10427166D01*
X18381958Y-10429290D01*
X18367500Y-10430000D01*
X18072500Y-10430000D01*
X18058042Y-10429290D01*
X18043724Y-10427166D01*
X18029683Y-10423649D01*
X18016054Y-10418772D01*
X18002969Y-10412583D01*
X17990553Y-10405142D01*
X17978927Y-10396519D01*
X17968202Y-10386798D01*
X17958481Y-10376073D01*
X17949858Y-10364447D01*
X17942417Y-10352031D01*
X17936228Y-10338946D01*
X17931351Y-10325317D01*
X17927834Y-10311276D01*
X17925710Y-10296958D01*
X17925000Y-10282500D01*
X17925000Y-9937500D01*
X17925710Y-9923042D01*
X17927834Y-9908724D01*
X17931351Y-9894683D01*
X17936228Y-9881054D01*
X17942417Y-9867969D01*
X17949858Y-9855553D01*
X17958481Y-9843927D01*
X17968202Y-9833202D01*
X17978927Y-9823481D01*
X17990553Y-9814858D01*
X18002969Y-9807417D01*
X18016054Y-9801228D01*
X18029683Y-9796351D01*
X18043724Y-9792834D01*
X18058042Y-9790710D01*
X18072500Y-9790000D01*
X18367500Y-9790000D01*
X18381958Y-9790710D01*
X18381958Y-9790710D01*
G37*
D14*
G04 #@! TD*
G04 #@! TO.P,C14,1*
G04 #@! TO.N,/VPLL_A*
X18220000Y-10110000D03*
D13*
G04 #@! TO.N,GND*
G04 #@! TO.C,C1*
G36*
X6976958Y-8520710D02*
X6991276Y-8522834D01*
X7005317Y-8526351D01*
X7018946Y-8531228D01*
X7032031Y-8537417D01*
X7044447Y-8544858D01*
X7056073Y-8553481D01*
X7066798Y-8563202D01*
X7076519Y-8573927D01*
X7085142Y-8585553D01*
X7092583Y-8597969D01*
X7098772Y-8611054D01*
X7103649Y-8624683D01*
X7107166Y-8638724D01*
X7109290Y-8653042D01*
X7110000Y-8667500D01*
X7110000Y-8962500D01*
X7109290Y-8976958D01*
X7107166Y-8991276D01*
X7103649Y-9005317D01*
X7098772Y-9018946D01*
X7092583Y-9032031D01*
X7085142Y-9044447D01*
X7076519Y-9056073D01*
X7066798Y-9066798D01*
X7056073Y-9076519D01*
X7044447Y-9085142D01*
X7032031Y-9092583D01*
X7018946Y-9098772D01*
X7005317Y-9103649D01*
X6991276Y-9107166D01*
X6976958Y-9109290D01*
X6962500Y-9110000D01*
X6617500Y-9110000D01*
X6603042Y-9109290D01*
X6588724Y-9107166D01*
X6574683Y-9103649D01*
X6561054Y-9098772D01*
X6547969Y-9092583D01*
X6535553Y-9085142D01*
X6523927Y-9076519D01*
X6513202Y-9066798D01*
X6503481Y-9056073D01*
X6494858Y-9044447D01*
X6487417Y-9032031D01*
X6481228Y-9018946D01*
X6476351Y-9005317D01*
X6472834Y-8991276D01*
X6470710Y-8976958D01*
X6470000Y-8962500D01*
X6470000Y-8667500D01*
X6470710Y-8653042D01*
X6472834Y-8638724D01*
X6476351Y-8624683D01*
X6481228Y-8611054D01*
X6487417Y-8597969D01*
X6494858Y-8585553D01*
X6503481Y-8573927D01*
X6513202Y-8563202D01*
X6523927Y-8553481D01*
X6535553Y-8544858D01*
X6547969Y-8537417D01*
X6561054Y-8531228D01*
X6574683Y-8526351D01*
X6588724Y-8522834D01*
X6603042Y-8520710D01*
X6617500Y-8520000D01*
X6962500Y-8520000D01*
X6976958Y-8520710D01*
X6976958Y-8520710D01*
G37*
D14*
G04 #@! TD*
G04 #@! TO.P,C1,2*
G04 #@! TO.N,GND*
X6790000Y-8815000D03*
D13*
G04 #@! TO.N,/3V3_SYS*
G04 #@! TO.C,C1*
G36*
X6976958Y-7550710D02*
X6991276Y-7552834D01*
X7005317Y-7556351D01*
X7018946Y-7561228D01*
X7032031Y-7567417D01*
X7044447Y-7574858D01*
X7056073Y-7583481D01*
X7066798Y-7593202D01*
X7076519Y-7603927D01*
X7085142Y-7615553D01*
X7092583Y-7627969D01*
X7098772Y-7641054D01*
X7103649Y-7654683D01*
X7107166Y-7668724D01*
X7109290Y-7683042D01*
X7110000Y-7697500D01*
X7110000Y-7992500D01*
X7109290Y-8006958D01*
X7107166Y-8021276D01*
X7103649Y-8035317D01*
X7098772Y-8048946D01*
X7092583Y-8062031D01*
X7085142Y-8074447D01*
X7076519Y-8086073D01*
X7066798Y-8096798D01*
X7056073Y-8106519D01*
X7044447Y-8115142D01*
X7032031Y-8122583D01*
X7018946Y-8128772D01*
X7005317Y-8133649D01*
X6991276Y-8137166D01*
X6976958Y-8139290D01*
X6962500Y-8140000D01*
X6617500Y-8140000D01*
X6603042Y-8139290D01*
X6588724Y-8137166D01*
X6574683Y-8133649D01*
X6561054Y-8128772D01*
X6547969Y-8122583D01*
X6535553Y-8115142D01*
X6523927Y-8106519D01*
X6513202Y-8096798D01*
X6503481Y-8086073D01*
X6494858Y-8074447D01*
X6487417Y-8062031D01*
X6481228Y-8048946D01*
X6476351Y-8035317D01*
X6472834Y-8021276D01*
X6470710Y-8006958D01*
X6470000Y-7992500D01*
X6470000Y-7697500D01*
X6470710Y-7683042D01*
X6472834Y-7668724D01*
X6476351Y-7654683D01*
X6481228Y-7641054D01*
X6487417Y-7627969D01*
X6494858Y-7615553D01*
X6503481Y-7603927D01*
X6513202Y-7593202D01*
X6523927Y-7583481D01*
X6535553Y-7574858D01*
X6547969Y-7567417D01*
X6561054Y-7561228D01*
X6574683Y-7556351D01*
X6588724Y-7552834D01*
X6603042Y-7550710D01*
X6617500Y-7550000D01*
X6962500Y-7550000D01*
X6976958Y-7550710D01*
X6976958Y-7550710D01*
G37*
D14*
G04 #@! TD*
G04 #@! TO.P,C1,1*
G04 #@! TO.N,/3V3_SYS*
X6790000Y-7845000D03*
D13*
G04 #@! TO.N,/USB_D_P*
G04 #@! TO.C,R11*
G36*
X20236958Y-6510710D02*
X20251276Y-6512834D01*
X20265317Y-6516351D01*
X20278946Y-6521228D01*
X20292031Y-6527417D01*
X20304447Y-6534858D01*
X20316073Y-6543481D01*
X20326798Y-6553202D01*
X20336519Y-6563927D01*
X20345142Y-6575553D01*
X20352583Y-6587969D01*
X20358772Y-6601054D01*
X20363649Y-6614683D01*
X20367166Y-6628724D01*
X20369290Y-6643042D01*
X20370000Y-6657500D01*
X20370000Y-7002500D01*
X20369290Y-7016958D01*
X20367166Y-7031276D01*
X20363649Y-7045317D01*
X20358772Y-7058946D01*
X20352583Y-7072031D01*
X20345142Y-7084447D01*
X20336519Y-7096073D01*
X20326798Y-7106798D01*
X20316073Y-7116519D01*
X20304447Y-7125142D01*
X20292031Y-7132583D01*
X20278946Y-7138772D01*
X20265317Y-7143649D01*
X20251276Y-7147166D01*
X20236958Y-7149290D01*
X20222500Y-7150000D01*
X19927500Y-7150000D01*
X19913042Y-7149290D01*
X19898724Y-7147166D01*
X19884683Y-7143649D01*
X19871054Y-7138772D01*
X19857969Y-7132583D01*
X19845553Y-7125142D01*
X19833927Y-7116519D01*
X19823202Y-7106798D01*
X19813481Y-7096073D01*
X19804858Y-7084447D01*
X19797417Y-7072031D01*
X19791228Y-7058946D01*
X19786351Y-7045317D01*
X19782834Y-7031276D01*
X19780710Y-7016958D01*
X19780000Y-7002500D01*
X19780000Y-6657500D01*
X19780710Y-6643042D01*
X19782834Y-6628724D01*
X19786351Y-6614683D01*
X19791228Y-6601054D01*
X19797417Y-6587969D01*
X19804858Y-6575553D01*
X19813481Y-6563927D01*
X19823202Y-6553202D01*
X19833927Y-6543481D01*
X19845553Y-6534858D01*
X19857969Y-6527417D01*
X19871054Y-6521228D01*
X19884683Y-6516351D01*
X19898724Y-6512834D01*
X19913042Y-6510710D01*
X19927500Y-6510000D01*
X20222500Y-6510000D01*
X20236958Y-6510710D01*
X20236958Y-6510710D01*
G37*
D14*
G04 #@! TD*
G04 #@! TO.P,R11,2*
G04 #@! TO.N,/USB_D_P*
X20075000Y-6830000D03*
D13*
G04 #@! TO.N,/USB_DET*
G04 #@! TO.C,R11*
G36*
X21206958Y-6510710D02*
X21221276Y-6512834D01*
X21235317Y-6516351D01*
X21248946Y-6521228D01*
X21262031Y-6527417D01*
X21274447Y-6534858D01*
X21286073Y-6543481D01*
X21296798Y-6553202D01*
X21306519Y-6563927D01*
X21315142Y-6575553D01*
X21322583Y-6587969D01*
X21328772Y-6601054D01*
X21333649Y-6614683D01*
X21337166Y-6628724D01*
X21339290Y-6643042D01*
X21340000Y-6657500D01*
X21340000Y-7002500D01*
X21339290Y-7016958D01*
X21337166Y-7031276D01*
X21333649Y-7045317D01*
X21328772Y-7058946D01*
X21322583Y-7072031D01*
X21315142Y-7084447D01*
X21306519Y-7096073D01*
X21296798Y-7106798D01*
X21286073Y-7116519D01*
X21274447Y-7125142D01*
X21262031Y-7132583D01*
X21248946Y-7138772D01*
X21235317Y-7143649D01*
X21221276Y-7147166D01*
X21206958Y-7149290D01*
X21192500Y-7150000D01*
X20897500Y-7150000D01*
X20883042Y-7149290D01*
X20868724Y-7147166D01*
X20854683Y-7143649D01*
X20841054Y-7138772D01*
X20827969Y-7132583D01*
X20815553Y-7125142D01*
X20803927Y-7116519D01*
X20793202Y-7106798D01*
X20783481Y-7096073D01*
X20774858Y-7084447D01*
X20767417Y-7072031D01*
X20761228Y-7058946D01*
X20756351Y-7045317D01*
X20752834Y-7031276D01*
X20750710Y-7016958D01*
X20750000Y-7002500D01*
X20750000Y-6657500D01*
X20750710Y-6643042D01*
X20752834Y-6628724D01*
X20756351Y-6614683D01*
X20761228Y-6601054D01*
X20767417Y-6587969D01*
X20774858Y-6575553D01*
X20783481Y-6563927D01*
X20793202Y-6553202D01*
X20803927Y-6543481D01*
X20815553Y-6534858D01*
X20827969Y-6527417D01*
X20841054Y-6521228D01*
X20854683Y-6516351D01*
X20868724Y-6512834D01*
X20883042Y-6510710D01*
X20897500Y-6510000D01*
X21192500Y-6510000D01*
X21206958Y-6510710D01*
X21206958Y-6510710D01*
G37*
D14*
G04 #@! TD*
G04 #@! TO.P,R11,1*
G04 #@! TO.N,/USB_DET*
X21045000Y-6830000D03*
D13*
G04 #@! TO.N,/VPLL_A*
G04 #@! TO.C,R9*
G36*
X18381958Y-7760710D02*
X18396276Y-7762834D01*
X18410317Y-7766351D01*
X18423946Y-7771228D01*
X18437031Y-7777417D01*
X18449447Y-7784858D01*
X18461073Y-7793481D01*
X18471798Y-7803202D01*
X18481519Y-7813927D01*
X18490142Y-7825553D01*
X18497583Y-7837969D01*
X18503772Y-7851054D01*
X18508649Y-7864683D01*
X18512166Y-7878724D01*
X18514290Y-7893042D01*
X18515000Y-7907500D01*
X18515000Y-8252500D01*
X18514290Y-8266958D01*
X18512166Y-8281276D01*
X18508649Y-8295317D01*
X18503772Y-8308946D01*
X18497583Y-8322031D01*
X18490142Y-8334447D01*
X18481519Y-8346073D01*
X18471798Y-8356798D01*
X18461073Y-8366519D01*
X18449447Y-8375142D01*
X18437031Y-8382583D01*
X18423946Y-8388772D01*
X18410317Y-8393649D01*
X18396276Y-8397166D01*
X18381958Y-8399290D01*
X18367500Y-8400000D01*
X18072500Y-8400000D01*
X18058042Y-8399290D01*
X18043724Y-8397166D01*
X18029683Y-8393649D01*
X18016054Y-8388772D01*
X18002969Y-8382583D01*
X17990553Y-8375142D01*
X17978927Y-8366519D01*
X17968202Y-8356798D01*
X17958481Y-8346073D01*
X17949858Y-8334447D01*
X17942417Y-8322031D01*
X17936228Y-8308946D01*
X17931351Y-8295317D01*
X17927834Y-8281276D01*
X17925710Y-8266958D01*
X17925000Y-8252500D01*
X17925000Y-7907500D01*
X17925710Y-7893042D01*
X17927834Y-7878724D01*
X17931351Y-7864683D01*
X17936228Y-7851054D01*
X17942417Y-7837969D01*
X17949858Y-7825553D01*
X17958481Y-7813927D01*
X17968202Y-7803202D01*
X17978927Y-7793481D01*
X17990553Y-7784858D01*
X18002969Y-7777417D01*
X18016054Y-7771228D01*
X18029683Y-7766351D01*
X18043724Y-7762834D01*
X18058042Y-7760710D01*
X18072500Y-7760000D01*
X18367500Y-7760000D01*
X18381958Y-7760710D01*
X18381958Y-7760710D01*
G37*
D14*
G04 #@! TD*
G04 #@! TO.P,R9,2*
G04 #@! TO.N,/VPLL_A*
X18220000Y-8080000D03*
D13*
G04 #@! TO.N,/1V2_SYS*
G04 #@! TO.C,R9*
G36*
X19351958Y-7760710D02*
X19366276Y-7762834D01*
X19380317Y-7766351D01*
X19393946Y-7771228D01*
X19407031Y-7777417D01*
X19419447Y-7784858D01*
X19431073Y-7793481D01*
X19441798Y-7803202D01*
X19451519Y-7813927D01*
X19460142Y-7825553D01*
X19467583Y-7837969D01*
X19473772Y-7851054D01*
X19478649Y-7864683D01*
X19482166Y-7878724D01*
X19484290Y-7893042D01*
X19485000Y-7907500D01*
X19485000Y-8252500D01*
X19484290Y-8266958D01*
X19482166Y-8281276D01*
X19478649Y-8295317D01*
X19473772Y-8308946D01*
X19467583Y-8322031D01*
X19460142Y-8334447D01*
X19451519Y-8346073D01*
X19441798Y-8356798D01*
X19431073Y-8366519D01*
X19419447Y-8375142D01*
X19407031Y-8382583D01*
X19393946Y-8388772D01*
X19380317Y-8393649D01*
X19366276Y-8397166D01*
X19351958Y-8399290D01*
X19337500Y-8400000D01*
X19042500Y-8400000D01*
X19028042Y-8399290D01*
X19013724Y-8397166D01*
X18999683Y-8393649D01*
X18986054Y-8388772D01*
X18972969Y-8382583D01*
X18960553Y-8375142D01*
X18948927Y-8366519D01*
X18938202Y-8356798D01*
X18928481Y-8346073D01*
X18919858Y-8334447D01*
X18912417Y-8322031D01*
X18906228Y-8308946D01*
X18901351Y-8295317D01*
X18897834Y-8281276D01*
X18895710Y-8266958D01*
X18895000Y-8252500D01*
X18895000Y-7907500D01*
X18895710Y-7893042D01*
X18897834Y-7878724D01*
X18901351Y-7864683D01*
X18906228Y-7851054D01*
X18912417Y-7837969D01*
X18919858Y-7825553D01*
X18928481Y-7813927D01*
X18938202Y-7803202D01*
X18948927Y-7793481D01*
X18960553Y-7784858D01*
X18972969Y-7777417D01*
X18986054Y-7771228D01*
X18999683Y-7766351D01*
X19013724Y-7762834D01*
X19028042Y-7760710D01*
X19042500Y-7760000D01*
X19337500Y-7760000D01*
X19351958Y-7760710D01*
X19351958Y-7760710D01*
G37*
D14*
G04 #@! TD*
G04 #@! TO.P,R9,1*
G04 #@! TO.N,/1V2_SYS*
X19190000Y-8080000D03*
D13*
G04 #@! TO.N,/VDDANA*
G04 #@! TO.C,R8*
G36*
X17666958Y-4020710D02*
X17681276Y-4022834D01*
X17695317Y-4026351D01*
X17708946Y-4031228D01*
X17722031Y-4037417D01*
X17734447Y-4044858D01*
X17746073Y-4053481D01*
X17756798Y-4063202D01*
X17766519Y-4073927D01*
X17775142Y-4085553D01*
X17782583Y-4097969D01*
X17788772Y-4111054D01*
X17793649Y-4124683D01*
X17797166Y-4138724D01*
X17799290Y-4153042D01*
X17800000Y-4167500D01*
X17800000Y-4512500D01*
X17799290Y-4526958D01*
X17797166Y-4541276D01*
X17793649Y-4555317D01*
X17788772Y-4568946D01*
X17782583Y-4582031D01*
X17775142Y-4594447D01*
X17766519Y-4606073D01*
X17756798Y-4616798D01*
X17746073Y-4626519D01*
X17734447Y-4635142D01*
X17722031Y-4642583D01*
X17708946Y-4648772D01*
X17695317Y-4653649D01*
X17681276Y-4657166D01*
X17666958Y-4659290D01*
X17652500Y-4660000D01*
X17357500Y-4660000D01*
X17343042Y-4659290D01*
X17328724Y-4657166D01*
X17314683Y-4653649D01*
X17301054Y-4648772D01*
X17287969Y-4642583D01*
X17275553Y-4635142D01*
X17263927Y-4626519D01*
X17253202Y-4616798D01*
X17243481Y-4606073D01*
X17234858Y-4594447D01*
X17227417Y-4582031D01*
X17221228Y-4568946D01*
X17216351Y-4555317D01*
X17212834Y-4541276D01*
X17210710Y-4526958D01*
X17210000Y-4512500D01*
X17210000Y-4167500D01*
X17210710Y-4153042D01*
X17212834Y-4138724D01*
X17216351Y-4124683D01*
X17221228Y-4111054D01*
X17227417Y-4097969D01*
X17234858Y-4085553D01*
X17243481Y-4073927D01*
X17253202Y-4063202D01*
X17263927Y-4053481D01*
X17275553Y-4044858D01*
X17287969Y-4037417D01*
X17301054Y-4031228D01*
X17314683Y-4026351D01*
X17328724Y-4022834D01*
X17343042Y-4020710D01*
X17357500Y-4020000D01*
X17652500Y-4020000D01*
X17666958Y-4020710D01*
X17666958Y-4020710D01*
G37*
D14*
G04 #@! TD*
G04 #@! TO.P,R8,2*
G04 #@! TO.N,/VDDANA*
X17505000Y-4340000D03*
D13*
G04 #@! TO.N,/VUSB*
G04 #@! TO.C,R8*
G36*
X18636958Y-4020710D02*
X18651276Y-4022834D01*
X18665317Y-4026351D01*
X18678946Y-4031228D01*
X18692031Y-4037417D01*
X18704447Y-4044858D01*
X18716073Y-4053481D01*
X18726798Y-4063202D01*
X18736519Y-4073927D01*
X18745142Y-4085553D01*
X18752583Y-4097969D01*
X18758772Y-4111054D01*
X18763649Y-4124683D01*
X18767166Y-4138724D01*
X18769290Y-4153042D01*
X18770000Y-4167500D01*
X18770000Y-4512500D01*
X18769290Y-4526958D01*
X18767166Y-4541276D01*
X18763649Y-4555317D01*
X18758772Y-4568946D01*
X18752583Y-4582031D01*
X18745142Y-4594447D01*
X18736519Y-4606073D01*
X18726798Y-4616798D01*
X18716073Y-4626519D01*
X18704447Y-4635142D01*
X18692031Y-4642583D01*
X18678946Y-4648772D01*
X18665317Y-4653649D01*
X18651276Y-4657166D01*
X18636958Y-4659290D01*
X18622500Y-4660000D01*
X18327500Y-4660000D01*
X18313042Y-4659290D01*
X18298724Y-4657166D01*
X18284683Y-4653649D01*
X18271054Y-4648772D01*
X18257969Y-4642583D01*
X18245553Y-4635142D01*
X18233927Y-4626519D01*
X18223202Y-4616798D01*
X18213481Y-4606073D01*
X18204858Y-4594447D01*
X18197417Y-4582031D01*
X18191228Y-4568946D01*
X18186351Y-4555317D01*
X18182834Y-4541276D01*
X18180710Y-4526958D01*
X18180000Y-4512500D01*
X18180000Y-4167500D01*
X18180710Y-4153042D01*
X18182834Y-4138724D01*
X18186351Y-4124683D01*
X18191228Y-4111054D01*
X18197417Y-4097969D01*
X18204858Y-4085553D01*
X18213481Y-4073927D01*
X18223202Y-4063202D01*
X18233927Y-4053481D01*
X18245553Y-4044858D01*
X18257969Y-4037417D01*
X18271054Y-4031228D01*
X18284683Y-4026351D01*
X18298724Y-4022834D01*
X18313042Y-4020710D01*
X18327500Y-4020000D01*
X18622500Y-4020000D01*
X18636958Y-4020710D01*
X18636958Y-4020710D01*
G37*
D14*
G04 #@! TD*
G04 #@! TO.P,R8,1*
G04 #@! TO.N,/VUSB*
X18475000Y-4340000D03*
D13*
G04 #@! TO.N,/VBATH*
G04 #@! TO.C,R7*
G36*
X17676958Y-5110710D02*
X17691276Y-5112834D01*
X17705317Y-5116351D01*
X17718946Y-5121228D01*
X17732031Y-5127417D01*
X17744447Y-5134858D01*
X17756073Y-5143481D01*
X17766798Y-5153202D01*
X17776519Y-5163927D01*
X17785142Y-5175553D01*
X17792583Y-5187969D01*
X17798772Y-5201054D01*
X17803649Y-5214683D01*
X17807166Y-5228724D01*
X17809290Y-5243042D01*
X17810000Y-5257500D01*
X17810000Y-5602500D01*
X17809290Y-5616958D01*
X17807166Y-5631276D01*
X17803649Y-5645317D01*
X17798772Y-5658946D01*
X17792583Y-5672031D01*
X17785142Y-5684447D01*
X17776519Y-5696073D01*
X17766798Y-5706798D01*
X17756073Y-5716519D01*
X17744447Y-5725142D01*
X17732031Y-5732583D01*
X17718946Y-5738772D01*
X17705317Y-5743649D01*
X17691276Y-5747166D01*
X17676958Y-5749290D01*
X17662500Y-5750000D01*
X17367500Y-5750000D01*
X17353042Y-5749290D01*
X17338724Y-5747166D01*
X17324683Y-5743649D01*
X17311054Y-5738772D01*
X17297969Y-5732583D01*
X17285553Y-5725142D01*
X17273927Y-5716519D01*
X17263202Y-5706798D01*
X17253481Y-5696073D01*
X17244858Y-5684447D01*
X17237417Y-5672031D01*
X17231228Y-5658946D01*
X17226351Y-5645317D01*
X17222834Y-5631276D01*
X17220710Y-5616958D01*
X17220000Y-5602500D01*
X17220000Y-5257500D01*
X17220710Y-5243042D01*
X17222834Y-5228724D01*
X17226351Y-5214683D01*
X17231228Y-5201054D01*
X17237417Y-5187969D01*
X17244858Y-5175553D01*
X17253481Y-5163927D01*
X17263202Y-5153202D01*
X17273927Y-5143481D01*
X17285553Y-5134858D01*
X17297969Y-5127417D01*
X17311054Y-5121228D01*
X17324683Y-5116351D01*
X17338724Y-5112834D01*
X17353042Y-5110710D01*
X17367500Y-5110000D01*
X17662500Y-5110000D01*
X17676958Y-5110710D01*
X17676958Y-5110710D01*
G37*
D14*
G04 #@! TD*
G04 #@! TO.P,R7,2*
G04 #@! TO.N,/VBATH*
X17515000Y-5430000D03*
D13*
G04 #@! TO.N,/VUSB*
G04 #@! TO.C,R7*
G36*
X18646958Y-5110710D02*
X18661276Y-5112834D01*
X18675317Y-5116351D01*
X18688946Y-5121228D01*
X18702031Y-5127417D01*
X18714447Y-5134858D01*
X18726073Y-5143481D01*
X18736798Y-5153202D01*
X18746519Y-5163927D01*
X18755142Y-5175553D01*
X18762583Y-5187969D01*
X18768772Y-5201054D01*
X18773649Y-5214683D01*
X18777166Y-5228724D01*
X18779290Y-5243042D01*
X18780000Y-5257500D01*
X18780000Y-5602500D01*
X18779290Y-5616958D01*
X18777166Y-5631276D01*
X18773649Y-5645317D01*
X18768772Y-5658946D01*
X18762583Y-5672031D01*
X18755142Y-5684447D01*
X18746519Y-5696073D01*
X18736798Y-5706798D01*
X18726073Y-5716519D01*
X18714447Y-5725142D01*
X18702031Y-5732583D01*
X18688946Y-5738772D01*
X18675317Y-5743649D01*
X18661276Y-5747166D01*
X18646958Y-5749290D01*
X18632500Y-5750000D01*
X18337500Y-5750000D01*
X18323042Y-5749290D01*
X18308724Y-5747166D01*
X18294683Y-5743649D01*
X18281054Y-5738772D01*
X18267969Y-5732583D01*
X18255553Y-5725142D01*
X18243927Y-5716519D01*
X18233202Y-5706798D01*
X18223481Y-5696073D01*
X18214858Y-5684447D01*
X18207417Y-5672031D01*
X18201228Y-5658946D01*
X18196351Y-5645317D01*
X18192834Y-5631276D01*
X18190710Y-5616958D01*
X18190000Y-5602500D01*
X18190000Y-5257500D01*
X18190710Y-5243042D01*
X18192834Y-5228724D01*
X18196351Y-5214683D01*
X18201228Y-5201054D01*
X18207417Y-5187969D01*
X18214858Y-5175553D01*
X18223481Y-5163927D01*
X18233202Y-5153202D01*
X18243927Y-5143481D01*
X18255553Y-5134858D01*
X18267969Y-5127417D01*
X18281054Y-5121228D01*
X18294683Y-5116351D01*
X18308724Y-5112834D01*
X18323042Y-5110710D01*
X18337500Y-5110000D01*
X18632500Y-5110000D01*
X18646958Y-5110710D01*
X18646958Y-5110710D01*
G37*
D14*
G04 #@! TD*
G04 #@! TO.P,R7,1*
G04 #@! TO.N,/VUSB*
X18485000Y-5430000D03*
D13*
G04 #@! TO.N,/1V2_SYS*
G04 #@! TO.C,R5*
G36*
X15446958Y-1250710D02*
X15461276Y-1252834D01*
X15475317Y-1256351D01*
X15488946Y-1261228D01*
X15502031Y-1267417D01*
X15514447Y-1274858D01*
X15526073Y-1283481D01*
X15536798Y-1293202D01*
X15546519Y-1303927D01*
X15555142Y-1315553D01*
X15562583Y-1327969D01*
X15568772Y-1341054D01*
X15573649Y-1354683D01*
X15577166Y-1368724D01*
X15579290Y-1383042D01*
X15580000Y-1397500D01*
X15580000Y-1742500D01*
X15579290Y-1756958D01*
X15577166Y-1771276D01*
X15573649Y-1785317D01*
X15568772Y-1798946D01*
X15562583Y-1812031D01*
X15555142Y-1824447D01*
X15546519Y-1836073D01*
X15536798Y-1846798D01*
X15526073Y-1856519D01*
X15514447Y-1865142D01*
X15502031Y-1872583D01*
X15488946Y-1878772D01*
X15475317Y-1883649D01*
X15461276Y-1887166D01*
X15446958Y-1889290D01*
X15432500Y-1890000D01*
X15137500Y-1890000D01*
X15123042Y-1889290D01*
X15108724Y-1887166D01*
X15094683Y-1883649D01*
X15081054Y-1878772D01*
X15067969Y-1872583D01*
X15055553Y-1865142D01*
X15043927Y-1856519D01*
X15033202Y-1846798D01*
X15023481Y-1836073D01*
X15014858Y-1824447D01*
X15007417Y-1812031D01*
X15001228Y-1798946D01*
X14996351Y-1785317D01*
X14992834Y-1771276D01*
X14990710Y-1756958D01*
X14990000Y-1742500D01*
X14990000Y-1397500D01*
X14990710Y-1383042D01*
X14992834Y-1368724D01*
X14996351Y-1354683D01*
X15001228Y-1341054D01*
X15007417Y-1327969D01*
X15014858Y-1315553D01*
X15023481Y-1303927D01*
X15033202Y-1293202D01*
X15043927Y-1283481D01*
X15055553Y-1274858D01*
X15067969Y-1267417D01*
X15081054Y-1261228D01*
X15094683Y-1256351D01*
X15108724Y-1252834D01*
X15123042Y-1250710D01*
X15137500Y-1250000D01*
X15432500Y-1250000D01*
X15446958Y-1250710D01*
X15446958Y-1250710D01*
G37*
D14*
G04 #@! TD*
G04 #@! TO.P,R5,2*
G04 #@! TO.N,/1V2_SYS*
X15285000Y-1570000D03*
D13*
G04 #@! TO.N,/1V2_SYS*
G04 #@! TO.C,R5*
G36*
X14476958Y-1250710D02*
X14491276Y-1252834D01*
X14505317Y-1256351D01*
X14518946Y-1261228D01*
X14532031Y-1267417D01*
X14544447Y-1274858D01*
X14556073Y-1283481D01*
X14566798Y-1293202D01*
X14576519Y-1303927D01*
X14585142Y-1315553D01*
X14592583Y-1327969D01*
X14598772Y-1341054D01*
X14603649Y-1354683D01*
X14607166Y-1368724D01*
X14609290Y-1383042D01*
X14610000Y-1397500D01*
X14610000Y-1742500D01*
X14609290Y-1756958D01*
X14607166Y-1771276D01*
X14603649Y-1785317D01*
X14598772Y-1798946D01*
X14592583Y-1812031D01*
X14585142Y-1824447D01*
X14576519Y-1836073D01*
X14566798Y-1846798D01*
X14556073Y-1856519D01*
X14544447Y-1865142D01*
X14532031Y-1872583D01*
X14518946Y-1878772D01*
X14505317Y-1883649D01*
X14491276Y-1887166D01*
X14476958Y-1889290D01*
X14462500Y-1890000D01*
X14167500Y-1890000D01*
X14153042Y-1889290D01*
X14138724Y-1887166D01*
X14124683Y-1883649D01*
X14111054Y-1878772D01*
X14097969Y-1872583D01*
X14085553Y-1865142D01*
X14073927Y-1856519D01*
X14063202Y-1846798D01*
X14053481Y-1836073D01*
X14044858Y-1824447D01*
X14037417Y-1812031D01*
X14031228Y-1798946D01*
X14026351Y-1785317D01*
X14022834Y-1771276D01*
X14020710Y-1756958D01*
X14020000Y-1742500D01*
X14020000Y-1397500D01*
X14020710Y-1383042D01*
X14022834Y-1368724D01*
X14026351Y-1354683D01*
X14031228Y-1341054D01*
X14037417Y-1327969D01*
X14044858Y-1315553D01*
X14053481Y-1303927D01*
X14063202Y-1293202D01*
X14073927Y-1283481D01*
X14085553Y-1274858D01*
X14097969Y-1267417D01*
X14111054Y-1261228D01*
X14124683Y-1256351D01*
X14138724Y-1252834D01*
X14153042Y-1250710D01*
X14167500Y-1250000D01*
X14462500Y-1250000D01*
X14476958Y-1250710D01*
X14476958Y-1250710D01*
G37*
D14*
G04 #@! TD*
G04 #@! TO.P,R5,1*
G04 #@! TO.N,/1V2_SYS*
X14315000Y-1570000D03*
D13*
G04 #@! TO.N,/1V2_SYS*
G04 #@! TO.C,R4*
G36*
X12366958Y-2430710D02*
X12381276Y-2432834D01*
X12395317Y-2436351D01*
X12408946Y-2441228D01*
X12422031Y-2447417D01*
X12434447Y-2454858D01*
X12446073Y-2463481D01*
X12456798Y-2473202D01*
X12466519Y-2483927D01*
X12475142Y-2495553D01*
X12482583Y-2507969D01*
X12488772Y-2521054D01*
X12493649Y-2534683D01*
X12497166Y-2548724D01*
X12499290Y-2563042D01*
X12500000Y-2577500D01*
X12500000Y-2872500D01*
X12499290Y-2886958D01*
X12497166Y-2901276D01*
X12493649Y-2915317D01*
X12488772Y-2928946D01*
X12482583Y-2942031D01*
X12475142Y-2954447D01*
X12466519Y-2966073D01*
X12456798Y-2976798D01*
X12446073Y-2986519D01*
X12434447Y-2995142D01*
X12422031Y-3002583D01*
X12408946Y-3008772D01*
X12395317Y-3013649D01*
X12381276Y-3017166D01*
X12366958Y-3019290D01*
X12352500Y-3020000D01*
X12007500Y-3020000D01*
X11993042Y-3019290D01*
X11978724Y-3017166D01*
X11964683Y-3013649D01*
X11951054Y-3008772D01*
X11937969Y-3002583D01*
X11925553Y-2995142D01*
X11913927Y-2986519D01*
X11903202Y-2976798D01*
X11893481Y-2966073D01*
X11884858Y-2954447D01*
X11877417Y-2942031D01*
X11871228Y-2928946D01*
X11866351Y-2915317D01*
X11862834Y-2901276D01*
X11860710Y-2886958D01*
X11860000Y-2872500D01*
X11860000Y-2577500D01*
X11860710Y-2563042D01*
X11862834Y-2548724D01*
X11866351Y-2534683D01*
X11871228Y-2521054D01*
X11877417Y-2507969D01*
X11884858Y-2495553D01*
X11893481Y-2483927D01*
X11903202Y-2473202D01*
X11913927Y-2463481D01*
X11925553Y-2454858D01*
X11937969Y-2447417D01*
X11951054Y-2441228D01*
X11964683Y-2436351D01*
X11978724Y-2432834D01*
X11993042Y-2430710D01*
X12007500Y-2430000D01*
X12352500Y-2430000D01*
X12366958Y-2430710D01*
X12366958Y-2430710D01*
G37*
D14*
G04 #@! TD*
G04 #@! TO.P,R4,2*
G04 #@! TO.N,/1V2_SYS*
X12180000Y-2725000D03*
D13*
G04 #@! TO.N,/1V2*
G04 #@! TO.C,R4*
G36*
X12366958Y-3400710D02*
X12381276Y-3402834D01*
X12395317Y-3406351D01*
X12408946Y-3411228D01*
X12422031Y-3417417D01*
X12434447Y-3424858D01*
X12446073Y-3433481D01*
X12456798Y-3443202D01*
X12466519Y-3453927D01*
X12475142Y-3465553D01*
X12482583Y-3477969D01*
X12488772Y-3491054D01*
X12493649Y-3504683D01*
X12497166Y-3518724D01*
X12499290Y-3533042D01*
X12500000Y-3547500D01*
X12500000Y-3842500D01*
X12499290Y-3856958D01*
X12497166Y-3871276D01*
X12493649Y-3885317D01*
X12488772Y-3898946D01*
X12482583Y-3912031D01*
X12475142Y-3924447D01*
X12466519Y-3936073D01*
X12456798Y-3946798D01*
X12446073Y-3956519D01*
X12434447Y-3965142D01*
X12422031Y-3972583D01*
X12408946Y-3978772D01*
X12395317Y-3983649D01*
X12381276Y-3987166D01*
X12366958Y-3989290D01*
X12352500Y-3990000D01*
X12007500Y-3990000D01*
X11993042Y-3989290D01*
X11978724Y-3987166D01*
X11964683Y-3983649D01*
X11951054Y-3978772D01*
X11937969Y-3972583D01*
X11925553Y-3965142D01*
X11913927Y-3956519D01*
X11903202Y-3946798D01*
X11893481Y-3936073D01*
X11884858Y-3924447D01*
X11877417Y-3912031D01*
X11871228Y-3898946D01*
X11866351Y-3885317D01*
X11862834Y-3871276D01*
X11860710Y-3856958D01*
X11860000Y-3842500D01*
X11860000Y-3547500D01*
X11860710Y-3533042D01*
X11862834Y-3518724D01*
X11866351Y-3504683D01*
X11871228Y-3491054D01*
X11877417Y-3477969D01*
X11884858Y-3465553D01*
X11893481Y-3453927D01*
X11903202Y-3443202D01*
X11913927Y-3433481D01*
X11925553Y-3424858D01*
X11937969Y-3417417D01*
X11951054Y-3411228D01*
X11964683Y-3406351D01*
X11978724Y-3402834D01*
X11993042Y-3400710D01*
X12007500Y-3400000D01*
X12352500Y-3400000D01*
X12366958Y-3400710D01*
X12366958Y-3400710D01*
G37*
D14*
G04 #@! TD*
G04 #@! TO.P,R4,1*
G04 #@! TO.N,/1V2*
X12180000Y-3695000D03*
D13*
G04 #@! TO.N,/2V5_SYS*
G04 #@! TO.C,R3*
G36*
X19486958Y-12015710D02*
X19501276Y-12017834D01*
X19515317Y-12021351D01*
X19528946Y-12026228D01*
X19542031Y-12032417D01*
X19554447Y-12039858D01*
X19566073Y-12048481D01*
X19576798Y-12058202D01*
X19586519Y-12068927D01*
X19595142Y-12080553D01*
X19602583Y-12092969D01*
X19608772Y-12106054D01*
X19613649Y-12119683D01*
X19617166Y-12133724D01*
X19619290Y-12148042D01*
X19620000Y-12162500D01*
X19620000Y-12457500D01*
X19619290Y-12471958D01*
X19617166Y-12486276D01*
X19613649Y-12500317D01*
X19608772Y-12513946D01*
X19602583Y-12527031D01*
X19595142Y-12539447D01*
X19586519Y-12551073D01*
X19576798Y-12561798D01*
X19566073Y-12571519D01*
X19554447Y-12580142D01*
X19542031Y-12587583D01*
X19528946Y-12593772D01*
X19515317Y-12598649D01*
X19501276Y-12602166D01*
X19486958Y-12604290D01*
X19472500Y-12605000D01*
X19127500Y-12605000D01*
X19113042Y-12604290D01*
X19098724Y-12602166D01*
X19084683Y-12598649D01*
X19071054Y-12593772D01*
X19057969Y-12587583D01*
X19045553Y-12580142D01*
X19033927Y-12571519D01*
X19023202Y-12561798D01*
X19013481Y-12551073D01*
X19004858Y-12539447D01*
X18997417Y-12527031D01*
X18991228Y-12513946D01*
X18986351Y-12500317D01*
X18982834Y-12486276D01*
X18980710Y-12471958D01*
X18980000Y-12457500D01*
X18980000Y-12162500D01*
X18980710Y-12148042D01*
X18982834Y-12133724D01*
X18986351Y-12119683D01*
X18991228Y-12106054D01*
X18997417Y-12092969D01*
X19004858Y-12080553D01*
X19013481Y-12068927D01*
X19023202Y-12058202D01*
X19033927Y-12048481D01*
X19045553Y-12039858D01*
X19057969Y-12032417D01*
X19071054Y-12026228D01*
X19084683Y-12021351D01*
X19098724Y-12017834D01*
X19113042Y-12015710D01*
X19127500Y-12015000D01*
X19472500Y-12015000D01*
X19486958Y-12015710D01*
X19486958Y-12015710D01*
G37*
D14*
G04 #@! TD*
G04 #@! TO.P,R3,2*
G04 #@! TO.N,/2V5_SYS*
X19300000Y-12310000D03*
D13*
G04 #@! TO.N,/2V5*
G04 #@! TO.C,R3*
G36*
X19486958Y-12985710D02*
X19501276Y-12987834D01*
X19515317Y-12991351D01*
X19528946Y-12996228D01*
X19542031Y-13002417D01*
X19554447Y-13009858D01*
X19566073Y-13018481D01*
X19576798Y-13028202D01*
X19586519Y-13038927D01*
X19595142Y-13050553D01*
X19602583Y-13062969D01*
X19608772Y-13076054D01*
X19613649Y-13089683D01*
X19617166Y-13103724D01*
X19619290Y-13118042D01*
X19620000Y-13132500D01*
X19620000Y-13427500D01*
X19619290Y-13441958D01*
X19617166Y-13456276D01*
X19613649Y-13470317D01*
X19608772Y-13483946D01*
X19602583Y-13497031D01*
X19595142Y-13509447D01*
X19586519Y-13521073D01*
X19576798Y-13531798D01*
X19566073Y-13541519D01*
X19554447Y-13550142D01*
X19542031Y-13557583D01*
X19528946Y-13563772D01*
X19515317Y-13568649D01*
X19501276Y-13572166D01*
X19486958Y-13574290D01*
X19472500Y-13575000D01*
X19127500Y-13575000D01*
X19113042Y-13574290D01*
X19098724Y-13572166D01*
X19084683Y-13568649D01*
X19071054Y-13563772D01*
X19057969Y-13557583D01*
X19045553Y-13550142D01*
X19033927Y-13541519D01*
X19023202Y-13531798D01*
X19013481Y-13521073D01*
X19004858Y-13509447D01*
X18997417Y-13497031D01*
X18991228Y-13483946D01*
X18986351Y-13470317D01*
X18982834Y-13456276D01*
X18980710Y-13441958D01*
X18980000Y-13427500D01*
X18980000Y-13132500D01*
X18980710Y-13118042D01*
X18982834Y-13103724D01*
X18986351Y-13089683D01*
X18991228Y-13076054D01*
X18997417Y-13062969D01*
X19004858Y-13050553D01*
X19013481Y-13038927D01*
X19023202Y-13028202D01*
X19033927Y-13018481D01*
X19045553Y-13009858D01*
X19057969Y-13002417D01*
X19071054Y-12996228D01*
X19084683Y-12991351D01*
X19098724Y-12987834D01*
X19113042Y-12985710D01*
X19127500Y-12985000D01*
X19472500Y-12985000D01*
X19486958Y-12985710D01*
X19486958Y-12985710D01*
G37*
D14*
G04 #@! TD*
G04 #@! TO.P,R3,1*
G04 #@! TO.N,/2V5*
X19300000Y-13280000D03*
D13*
G04 #@! TO.N,/1V8_SYS*
G04 #@! TO.C,R2*
G36*
X5936958Y-5500710D02*
X5951276Y-5502834D01*
X5965317Y-5506351D01*
X5978946Y-5511228D01*
X5992031Y-5517417D01*
X6004447Y-5524858D01*
X6016073Y-5533481D01*
X6026798Y-5543202D01*
X6036519Y-5553927D01*
X6045142Y-5565553D01*
X6052583Y-5577969D01*
X6058772Y-5591054D01*
X6063649Y-5604683D01*
X6067166Y-5618724D01*
X6069290Y-5633042D01*
X6070000Y-5647500D01*
X6070000Y-5942500D01*
X6069290Y-5956958D01*
X6067166Y-5971276D01*
X6063649Y-5985317D01*
X6058772Y-5998946D01*
X6052583Y-6012031D01*
X6045142Y-6024447D01*
X6036519Y-6036073D01*
X6026798Y-6046798D01*
X6016073Y-6056519D01*
X6004447Y-6065142D01*
X5992031Y-6072583D01*
X5978946Y-6078772D01*
X5965317Y-6083649D01*
X5951276Y-6087166D01*
X5936958Y-6089290D01*
X5922500Y-6090000D01*
X5577500Y-6090000D01*
X5563042Y-6089290D01*
X5548724Y-6087166D01*
X5534683Y-6083649D01*
X5521054Y-6078772D01*
X5507969Y-6072583D01*
X5495553Y-6065142D01*
X5483927Y-6056519D01*
X5473202Y-6046798D01*
X5463481Y-6036073D01*
X5454858Y-6024447D01*
X5447417Y-6012031D01*
X5441228Y-5998946D01*
X5436351Y-5985317D01*
X5432834Y-5971276D01*
X5430710Y-5956958D01*
X5430000Y-5942500D01*
X5430000Y-5647500D01*
X5430710Y-5633042D01*
X5432834Y-5618724D01*
X5436351Y-5604683D01*
X5441228Y-5591054D01*
X5447417Y-5577969D01*
X5454858Y-5565553D01*
X5463481Y-5553927D01*
X5473202Y-5543202D01*
X5483927Y-5533481D01*
X5495553Y-5524858D01*
X5507969Y-5517417D01*
X5521054Y-5511228D01*
X5534683Y-5506351D01*
X5548724Y-5502834D01*
X5563042Y-5500710D01*
X5577500Y-5500000D01*
X5922500Y-5500000D01*
X5936958Y-5500710D01*
X5936958Y-5500710D01*
G37*
D14*
G04 #@! TD*
G04 #@! TO.P,R2,2*
G04 #@! TO.N,/1V8_SYS*
X5750000Y-5795000D03*
D13*
G04 #@! TO.N,/1V8*
G04 #@! TO.C,R2*
G36*
X5936958Y-6470710D02*
X5951276Y-6472834D01*
X5965317Y-6476351D01*
X5978946Y-6481228D01*
X5992031Y-6487417D01*
X6004447Y-6494858D01*
X6016073Y-6503481D01*
X6026798Y-6513202D01*
X6036519Y-6523927D01*
X6045142Y-6535553D01*
X6052583Y-6547969D01*
X6058772Y-6561054D01*
X6063649Y-6574683D01*
X6067166Y-6588724D01*
X6069290Y-6603042D01*
X6070000Y-6617500D01*
X6070000Y-6912500D01*
X6069290Y-6926958D01*
X6067166Y-6941276D01*
X6063649Y-6955317D01*
X6058772Y-6968946D01*
X6052583Y-6982031D01*
X6045142Y-6994447D01*
X6036519Y-7006073D01*
X6026798Y-7016798D01*
X6016073Y-7026519D01*
X6004447Y-7035142D01*
X5992031Y-7042583D01*
X5978946Y-7048772D01*
X5965317Y-7053649D01*
X5951276Y-7057166D01*
X5936958Y-7059290D01*
X5922500Y-7060000D01*
X5577500Y-7060000D01*
X5563042Y-7059290D01*
X5548724Y-7057166D01*
X5534683Y-7053649D01*
X5521054Y-7048772D01*
X5507969Y-7042583D01*
X5495553Y-7035142D01*
X5483927Y-7026519D01*
X5473202Y-7016798D01*
X5463481Y-7006073D01*
X5454858Y-6994447D01*
X5447417Y-6982031D01*
X5441228Y-6968946D01*
X5436351Y-6955317D01*
X5432834Y-6941276D01*
X5430710Y-6926958D01*
X5430000Y-6912500D01*
X5430000Y-6617500D01*
X5430710Y-6603042D01*
X5432834Y-6588724D01*
X5436351Y-6574683D01*
X5441228Y-6561054D01*
X5447417Y-6547969D01*
X5454858Y-6535553D01*
X5463481Y-6523927D01*
X5473202Y-6513202D01*
X5483927Y-6503481D01*
X5495553Y-6494858D01*
X5507969Y-6487417D01*
X5521054Y-6481228D01*
X5534683Y-6476351D01*
X5548724Y-6472834D01*
X5563042Y-6470710D01*
X5577500Y-6470000D01*
X5922500Y-6470000D01*
X5936958Y-6470710D01*
X5936958Y-6470710D01*
G37*
D14*
G04 #@! TD*
G04 #@! TO.P,R2,1*
G04 #@! TO.N,/1V8*
X5750000Y-6765000D03*
D13*
G04 #@! TO.N,/3V3_SYS*
G04 #@! TO.C,R1*
G36*
X5936958Y-8520710D02*
X5951276Y-8522834D01*
X5965317Y-8526351D01*
X5978946Y-8531228D01*
X5992031Y-8537417D01*
X6004447Y-8544858D01*
X6016073Y-8553481D01*
X6026798Y-8563202D01*
X6036519Y-8573927D01*
X6045142Y-8585553D01*
X6052583Y-8597969D01*
X6058772Y-8611054D01*
X6063649Y-8624683D01*
X6067166Y-8638724D01*
X6069290Y-8653042D01*
X6070000Y-8667500D01*
X6070000Y-8962500D01*
X6069290Y-8976958D01*
X6067166Y-8991276D01*
X6063649Y-9005317D01*
X6058772Y-9018946D01*
X6052583Y-9032031D01*
X6045142Y-9044447D01*
X6036519Y-9056073D01*
X6026798Y-9066798D01*
X6016073Y-9076519D01*
X6004447Y-9085142D01*
X5992031Y-9092583D01*
X5978946Y-9098772D01*
X5965317Y-9103649D01*
X5951276Y-9107166D01*
X5936958Y-9109290D01*
X5922500Y-9110000D01*
X5577500Y-9110000D01*
X5563042Y-9109290D01*
X5548724Y-9107166D01*
X5534683Y-9103649D01*
X5521054Y-9098772D01*
X5507969Y-9092583D01*
X5495553Y-9085142D01*
X5483927Y-9076519D01*
X5473202Y-9066798D01*
X5463481Y-9056073D01*
X5454858Y-9044447D01*
X5447417Y-9032031D01*
X5441228Y-9018946D01*
X5436351Y-9005317D01*
X5432834Y-8991276D01*
X5430710Y-8976958D01*
X5430000Y-8962500D01*
X5430000Y-8667500D01*
X5430710Y-8653042D01*
X5432834Y-8638724D01*
X5436351Y-8624683D01*
X5441228Y-8611054D01*
X5447417Y-8597969D01*
X5454858Y-8585553D01*
X5463481Y-8573927D01*
X5473202Y-8563202D01*
X5483927Y-8553481D01*
X5495553Y-8544858D01*
X5507969Y-8537417D01*
X5521054Y-8531228D01*
X5534683Y-8526351D01*
X5548724Y-8522834D01*
X5563042Y-8520710D01*
X5577500Y-8520000D01*
X5922500Y-8520000D01*
X5936958Y-8520710D01*
X5936958Y-8520710D01*
G37*
D14*
G04 #@! TD*
G04 #@! TO.P,R1,2*
G04 #@! TO.N,/3V3_SYS*
X5750000Y-8815000D03*
D13*
G04 #@! TO.N,/3V3*
G04 #@! TO.C,R1*
G36*
X5936958Y-7550710D02*
X5951276Y-7552834D01*
X5965317Y-7556351D01*
X5978946Y-7561228D01*
X5992031Y-7567417D01*
X6004447Y-7574858D01*
X6016073Y-7583481D01*
X6026798Y-7593202D01*
X6036519Y-7603927D01*
X6045142Y-7615553D01*
X6052583Y-7627969D01*
X6058772Y-7641054D01*
X6063649Y-7654683D01*
X6067166Y-7668724D01*
X6069290Y-7683042D01*
X6070000Y-7697500D01*
X6070000Y-7992500D01*
X6069290Y-8006958D01*
X6067166Y-8021276D01*
X6063649Y-8035317D01*
X6058772Y-8048946D01*
X6052583Y-8062031D01*
X6045142Y-8074447D01*
X6036519Y-8086073D01*
X6026798Y-8096798D01*
X6016073Y-8106519D01*
X6004447Y-8115142D01*
X5992031Y-8122583D01*
X5978946Y-8128772D01*
X5965317Y-8133649D01*
X5951276Y-8137166D01*
X5936958Y-8139290D01*
X5922500Y-8140000D01*
X5577500Y-8140000D01*
X5563042Y-8139290D01*
X5548724Y-8137166D01*
X5534683Y-8133649D01*
X5521054Y-8128772D01*
X5507969Y-8122583D01*
X5495553Y-8115142D01*
X5483927Y-8106519D01*
X5473202Y-8096798D01*
X5463481Y-8086073D01*
X5454858Y-8074447D01*
X5447417Y-8062031D01*
X5441228Y-8048946D01*
X5436351Y-8035317D01*
X5432834Y-8021276D01*
X5430710Y-8006958D01*
X5430000Y-7992500D01*
X5430000Y-7697500D01*
X5430710Y-7683042D01*
X5432834Y-7668724D01*
X5436351Y-7654683D01*
X5441228Y-7641054D01*
X5447417Y-7627969D01*
X5454858Y-7615553D01*
X5463481Y-7603927D01*
X5473202Y-7593202D01*
X5483927Y-7583481D01*
X5495553Y-7574858D01*
X5507969Y-7567417D01*
X5521054Y-7561228D01*
X5534683Y-7556351D01*
X5548724Y-7552834D01*
X5563042Y-7550710D01*
X5577500Y-7550000D01*
X5922500Y-7550000D01*
X5936958Y-7550710D01*
X5936958Y-7550710D01*
G37*
D14*
G04 #@! TD*
G04 #@! TO.P,R1,1*
G04 #@! TO.N,/3V3*
X5750000Y-7845000D03*
D12*
G04 #@! TO.P,TP4,1*
G04 #@! TO.N,/PC_RDY*
X19990000Y-2709200D03*
G04 #@! TD*
G04 #@! TO.P,TP9,1*
G04 #@! TO.N,/PIO3*
X18650000Y-19070000D03*
G04 #@! TD*
G04 #@! TO.P,TP7,1*
G04 #@! TO.N,/EXTCLK_EN*
X18480000Y-2709200D03*
G04 #@! TD*
G04 #@! TO.P,TP3,1*
G04 #@! TO.N,/ZIP_EN_L*
X22800000Y-2709200D03*
G04 #@! TD*
G04 #@! TO.P,TP1,1*
G04 #@! TO.N,/PIO4*
X16150000Y-19070000D03*
G04 #@! TD*
G04 #@! TO.P,TP2,1*
G04 #@! TO.N,/PIO5*
X17400000Y-19070000D03*
G04 #@! TD*
G04 #@! TO.P,TP8,1*
G04 #@! TO.N,/EXT_CLK*
X21420000Y-2709200D03*
G04 #@! TD*
G04 #@! TO.P,TP11,1*
G04 #@! TO.N,/PIO1*
X21150000Y-19070000D03*
G04 #@! TD*
G04 #@! TO.P,TP12,1*
G04 #@! TO.N,/ULPM_WAKE*
X21760000Y-14919200D03*
G04 #@! TD*
G04 #@! TO.P,TP14,1*
G04 #@! TO.N,/LED1_ISINK*
X10860000Y-1339200D03*
G04 #@! TD*
G04 #@! TO.P,TP15,1*
G04 #@! TO.N,/LED2_ISINK*
X9570000Y-1329200D03*
G04 #@! TD*
G04 #@! TO.P,TP16,1*
G04 #@! TO.N,/LED3_ISINK*
X8270000Y-1329200D03*
G04 #@! TD*
G04 #@! TO.P,TP10,1*
G04 #@! TO.N,/PIO2*
X19900000Y-19070000D03*
G04 #@! TD*
D13*
G04 #@! TO.N,GND*
G04 #@! TO.C,C15*
G36*
X19351958Y-8770710D02*
X19366276Y-8772834D01*
X19380317Y-8776351D01*
X19393946Y-8781228D01*
X19407031Y-8787417D01*
X19419447Y-8794858D01*
X19431073Y-8803481D01*
X19441798Y-8813202D01*
X19451519Y-8823927D01*
X19460142Y-8835553D01*
X19467583Y-8847969D01*
X19473772Y-8861054D01*
X19478649Y-8874683D01*
X19482166Y-8888724D01*
X19484290Y-8903042D01*
X19485000Y-8917500D01*
X19485000Y-9262500D01*
X19484290Y-9276958D01*
X19482166Y-9291276D01*
X19478649Y-9305317D01*
X19473772Y-9318946D01*
X19467583Y-9332031D01*
X19460142Y-9344447D01*
X19451519Y-9356073D01*
X19441798Y-9366798D01*
X19431073Y-9376519D01*
X19419447Y-9385142D01*
X19407031Y-9392583D01*
X19393946Y-9398772D01*
X19380317Y-9403649D01*
X19366276Y-9407166D01*
X19351958Y-9409290D01*
X19337500Y-9410000D01*
X19042500Y-9410000D01*
X19028042Y-9409290D01*
X19013724Y-9407166D01*
X18999683Y-9403649D01*
X18986054Y-9398772D01*
X18972969Y-9392583D01*
X18960553Y-9385142D01*
X18948927Y-9376519D01*
X18938202Y-9366798D01*
X18928481Y-9356073D01*
X18919858Y-9344447D01*
X18912417Y-9332031D01*
X18906228Y-9318946D01*
X18901351Y-9305317D01*
X18897834Y-9291276D01*
X18895710Y-9276958D01*
X18895000Y-9262500D01*
X18895000Y-8917500D01*
X18895710Y-8903042D01*
X18897834Y-8888724D01*
X18901351Y-8874683D01*
X18906228Y-8861054D01*
X18912417Y-8847969D01*
X18919858Y-8835553D01*
X18928481Y-8823927D01*
X18938202Y-8813202D01*
X18948927Y-8803481D01*
X18960553Y-8794858D01*
X18972969Y-8787417D01*
X18986054Y-8781228D01*
X18999683Y-8776351D01*
X19013724Y-8772834D01*
X19028042Y-8770710D01*
X19042500Y-8770000D01*
X19337500Y-8770000D01*
X19351958Y-8770710D01*
X19351958Y-8770710D01*
G37*
D14*
G04 #@! TD*
G04 #@! TO.P,C15,2*
G04 #@! TO.N,GND*
X19190000Y-9090000D03*
D13*
G04 #@! TO.N,/VPLL_A*
G04 #@! TO.C,C15*
G36*
X18381958Y-8770710D02*
X18396276Y-8772834D01*
X18410317Y-8776351D01*
X18423946Y-8781228D01*
X18437031Y-8787417D01*
X18449447Y-8794858D01*
X18461073Y-8803481D01*
X18471798Y-8813202D01*
X18481519Y-8823927D01*
X18490142Y-8835553D01*
X18497583Y-8847969D01*
X18503772Y-8861054D01*
X18508649Y-8874683D01*
X18512166Y-8888724D01*
X18514290Y-8903042D01*
X18515000Y-8917500D01*
X18515000Y-9262500D01*
X18514290Y-9276958D01*
X18512166Y-9291276D01*
X18508649Y-9305317D01*
X18503772Y-9318946D01*
X18497583Y-9332031D01*
X18490142Y-9344447D01*
X18481519Y-9356073D01*
X18471798Y-9366798D01*
X18461073Y-9376519D01*
X18449447Y-9385142D01*
X18437031Y-9392583D01*
X18423946Y-9398772D01*
X18410317Y-9403649D01*
X18396276Y-9407166D01*
X18381958Y-9409290D01*
X18367500Y-9410000D01*
X18072500Y-9410000D01*
X18058042Y-9409290D01*
X18043724Y-9407166D01*
X18029683Y-9403649D01*
X18016054Y-9398772D01*
X18002969Y-9392583D01*
X17990553Y-9385142D01*
X17978927Y-9376519D01*
X17968202Y-9366798D01*
X17958481Y-9356073D01*
X17949858Y-9344447D01*
X17942417Y-9332031D01*
X17936228Y-9318946D01*
X17931351Y-9305317D01*
X17927834Y-9291276D01*
X17925710Y-9276958D01*
X17925000Y-9262500D01*
X17925000Y-8917500D01*
X17925710Y-8903042D01*
X17927834Y-8888724D01*
X17931351Y-8874683D01*
X17936228Y-8861054D01*
X17942417Y-8847969D01*
X17949858Y-8835553D01*
X17958481Y-8823927D01*
X17968202Y-8813202D01*
X17978927Y-8803481D01*
X17990553Y-8794858D01*
X18002969Y-8787417D01*
X18016054Y-8781228D01*
X18029683Y-8776351D01*
X18043724Y-8772834D01*
X18058042Y-8770710D01*
X18072500Y-8770000D01*
X18367500Y-8770000D01*
X18381958Y-8770710D01*
X18381958Y-8770710D01*
G37*
D14*
G04 #@! TD*
G04 #@! TO.P,C15,1*
G04 #@! TO.N,/VPLL_A*
X18220000Y-9090000D03*
D13*
G04 #@! TO.N,GND*
G04 #@! TO.C,C9*
G36*
X18396958Y-11025710D02*
X18411276Y-11027834D01*
X18425317Y-11031351D01*
X18438946Y-11036228D01*
X18452031Y-11042417D01*
X18464447Y-11049858D01*
X18476073Y-11058481D01*
X18486798Y-11068202D01*
X18496519Y-11078927D01*
X18505142Y-11090553D01*
X18512583Y-11102969D01*
X18518772Y-11116054D01*
X18523649Y-11129683D01*
X18527166Y-11143724D01*
X18529290Y-11158042D01*
X18530000Y-11172500D01*
X18530000Y-11517500D01*
X18529290Y-11531958D01*
X18527166Y-11546276D01*
X18523649Y-11560317D01*
X18518772Y-11573946D01*
X18512583Y-11587031D01*
X18505142Y-11599447D01*
X18496519Y-11611073D01*
X18486798Y-11621798D01*
X18476073Y-11631519D01*
X18464447Y-11640142D01*
X18452031Y-11647583D01*
X18438946Y-11653772D01*
X18425317Y-11658649D01*
X18411276Y-11662166D01*
X18396958Y-11664290D01*
X18382500Y-11665000D01*
X18087500Y-11665000D01*
X18073042Y-11664290D01*
X18058724Y-11662166D01*
X18044683Y-11658649D01*
X18031054Y-11653772D01*
X18017969Y-11647583D01*
X18005553Y-11640142D01*
X17993927Y-11631519D01*
X17983202Y-11621798D01*
X17973481Y-11611073D01*
X17964858Y-11599447D01*
X17957417Y-11587031D01*
X17951228Y-11573946D01*
X17946351Y-11560317D01*
X17942834Y-11546276D01*
X17940710Y-11531958D01*
X17940000Y-11517500D01*
X17940000Y-11172500D01*
X17940710Y-11158042D01*
X17942834Y-11143724D01*
X17946351Y-11129683D01*
X17951228Y-11116054D01*
X17957417Y-11102969D01*
X17964858Y-11090553D01*
X17973481Y-11078927D01*
X17983202Y-11068202D01*
X17993927Y-11058481D01*
X18005553Y-11049858D01*
X18017969Y-11042417D01*
X18031054Y-11036228D01*
X18044683Y-11031351D01*
X18058724Y-11027834D01*
X18073042Y-11025710D01*
X18087500Y-11025000D01*
X18382500Y-11025000D01*
X18396958Y-11025710D01*
X18396958Y-11025710D01*
G37*
D14*
G04 #@! TD*
G04 #@! TO.P,C9,2*
G04 #@! TO.N,GND*
X18235000Y-11345000D03*
D13*
G04 #@! TO.N,/1V2_SYS*
G04 #@! TO.C,C9*
G36*
X17426958Y-11025710D02*
X17441276Y-11027834D01*
X17455317Y-11031351D01*
X17468946Y-11036228D01*
X17482031Y-11042417D01*
X17494447Y-11049858D01*
X17506073Y-11058481D01*
X17516798Y-11068202D01*
X17526519Y-11078927D01*
X17535142Y-11090553D01*
X17542583Y-11102969D01*
X17548772Y-11116054D01*
X17553649Y-11129683D01*
X17557166Y-11143724D01*
X17559290Y-11158042D01*
X17560000Y-11172500D01*
X17560000Y-11517500D01*
X17559290Y-11531958D01*
X17557166Y-11546276D01*
X17553649Y-11560317D01*
X17548772Y-11573946D01*
X17542583Y-11587031D01*
X17535142Y-11599447D01*
X17526519Y-11611073D01*
X17516798Y-11621798D01*
X17506073Y-11631519D01*
X17494447Y-11640142D01*
X17482031Y-11647583D01*
X17468946Y-11653772D01*
X17455317Y-11658649D01*
X17441276Y-11662166D01*
X17426958Y-11664290D01*
X17412500Y-11665000D01*
X17117500Y-11665000D01*
X17103042Y-11664290D01*
X17088724Y-11662166D01*
X17074683Y-11658649D01*
X17061054Y-11653772D01*
X17047969Y-11647583D01*
X17035553Y-11640142D01*
X17023927Y-11631519D01*
X17013202Y-11621798D01*
X17003481Y-11611073D01*
X16994858Y-11599447D01*
X16987417Y-11587031D01*
X16981228Y-11573946D01*
X16976351Y-11560317D01*
X16972834Y-11546276D01*
X16970710Y-11531958D01*
X16970000Y-11517500D01*
X16970000Y-11172500D01*
X16970710Y-11158042D01*
X16972834Y-11143724D01*
X16976351Y-11129683D01*
X16981228Y-11116054D01*
X16987417Y-11102969D01*
X16994858Y-11090553D01*
X17003481Y-11078927D01*
X17013202Y-11068202D01*
X17023927Y-11058481D01*
X17035553Y-11049858D01*
X17047969Y-11042417D01*
X17061054Y-11036228D01*
X17074683Y-11031351D01*
X17088724Y-11027834D01*
X17103042Y-11025710D01*
X17117500Y-11025000D01*
X17412500Y-11025000D01*
X17426958Y-11025710D01*
X17426958Y-11025710D01*
G37*
D14*
G04 #@! TD*
G04 #@! TO.P,C9,1*
G04 #@! TO.N,/1V2_SYS*
X17265000Y-11345000D03*
D13*
G04 #@! TO.N,GND*
G04 #@! TO.C,C11*
G36*
X17336958Y-7115710D02*
X17351276Y-7117834D01*
X17365317Y-7121351D01*
X17378946Y-7126228D01*
X17392031Y-7132417D01*
X17404447Y-7139858D01*
X17416073Y-7148481D01*
X17426798Y-7158202D01*
X17436519Y-7168927D01*
X17445142Y-7180553D01*
X17452583Y-7192969D01*
X17458772Y-7206054D01*
X17463649Y-7219683D01*
X17467166Y-7233724D01*
X17469290Y-7248042D01*
X17470000Y-7262500D01*
X17470000Y-7557500D01*
X17469290Y-7571958D01*
X17467166Y-7586276D01*
X17463649Y-7600317D01*
X17458772Y-7613946D01*
X17452583Y-7627031D01*
X17445142Y-7639447D01*
X17436519Y-7651073D01*
X17426798Y-7661798D01*
X17416073Y-7671519D01*
X17404447Y-7680142D01*
X17392031Y-7687583D01*
X17378946Y-7693772D01*
X17365317Y-7698649D01*
X17351276Y-7702166D01*
X17336958Y-7704290D01*
X17322500Y-7705000D01*
X16977500Y-7705000D01*
X16963042Y-7704290D01*
X16948724Y-7702166D01*
X16934683Y-7698649D01*
X16921054Y-7693772D01*
X16907969Y-7687583D01*
X16895553Y-7680142D01*
X16883927Y-7671519D01*
X16873202Y-7661798D01*
X16863481Y-7651073D01*
X16854858Y-7639447D01*
X16847417Y-7627031D01*
X16841228Y-7613946D01*
X16836351Y-7600317D01*
X16832834Y-7586276D01*
X16830710Y-7571958D01*
X16830000Y-7557500D01*
X16830000Y-7262500D01*
X16830710Y-7248042D01*
X16832834Y-7233724D01*
X16836351Y-7219683D01*
X16841228Y-7206054D01*
X16847417Y-7192969D01*
X16854858Y-7180553D01*
X16863481Y-7168927D01*
X16873202Y-7158202D01*
X16883927Y-7148481D01*
X16895553Y-7139858D01*
X16907969Y-7132417D01*
X16921054Y-7126228D01*
X16934683Y-7121351D01*
X16948724Y-7117834D01*
X16963042Y-7115710D01*
X16977500Y-7115000D01*
X17322500Y-7115000D01*
X17336958Y-7115710D01*
X17336958Y-7115710D01*
G37*
D14*
G04 #@! TD*
G04 #@! TO.P,C11,2*
G04 #@! TO.N,GND*
X17150000Y-7410000D03*
D13*
G04 #@! TO.N,/VBATH*
G04 #@! TO.C,C11*
G36*
X17336958Y-8085710D02*
X17351276Y-8087834D01*
X17365317Y-8091351D01*
X17378946Y-8096228D01*
X17392031Y-8102417D01*
X17404447Y-8109858D01*
X17416073Y-8118481D01*
X17426798Y-8128202D01*
X17436519Y-8138927D01*
X17445142Y-8150553D01*
X17452583Y-8162969D01*
X17458772Y-8176054D01*
X17463649Y-8189683D01*
X17467166Y-8203724D01*
X17469290Y-8218042D01*
X17470000Y-8232500D01*
X17470000Y-8527500D01*
X17469290Y-8541958D01*
X17467166Y-8556276D01*
X17463649Y-8570317D01*
X17458772Y-8583946D01*
X17452583Y-8597031D01*
X17445142Y-8609447D01*
X17436519Y-8621073D01*
X17426798Y-8631798D01*
X17416073Y-8641519D01*
X17404447Y-8650142D01*
X17392031Y-8657583D01*
X17378946Y-8663772D01*
X17365317Y-8668649D01*
X17351276Y-8672166D01*
X17336958Y-8674290D01*
X17322500Y-8675000D01*
X16977500Y-8675000D01*
X16963042Y-8674290D01*
X16948724Y-8672166D01*
X16934683Y-8668649D01*
X16921054Y-8663772D01*
X16907969Y-8657583D01*
X16895553Y-8650142D01*
X16883927Y-8641519D01*
X16873202Y-8631798D01*
X16863481Y-8621073D01*
X16854858Y-8609447D01*
X16847417Y-8597031D01*
X16841228Y-8583946D01*
X16836351Y-8570317D01*
X16832834Y-8556276D01*
X16830710Y-8541958D01*
X16830000Y-8527500D01*
X16830000Y-8232500D01*
X16830710Y-8218042D01*
X16832834Y-8203724D01*
X16836351Y-8189683D01*
X16841228Y-8176054D01*
X16847417Y-8162969D01*
X16854858Y-8150553D01*
X16863481Y-8138927D01*
X16873202Y-8128202D01*
X16883927Y-8118481D01*
X16895553Y-8109858D01*
X16907969Y-8102417D01*
X16921054Y-8096228D01*
X16934683Y-8091351D01*
X16948724Y-8087834D01*
X16963042Y-8085710D01*
X16977500Y-8085000D01*
X17322500Y-8085000D01*
X17336958Y-8085710D01*
X17336958Y-8085710D01*
G37*
D14*
G04 #@! TD*
G04 #@! TO.P,C11,1*
G04 #@! TO.N,/VBATH*
X17150000Y-8380000D03*
D13*
G04 #@! TO.N,/E_CTRL_SS*
G04 #@! TO.C,R22*
G36*
X2926958Y-8430710D02*
X2941276Y-8432834D01*
X2955317Y-8436351D01*
X2968946Y-8441228D01*
X2982031Y-8447417D01*
X2994447Y-8454858D01*
X3006073Y-8463481D01*
X3016798Y-8473202D01*
X3026519Y-8483927D01*
X3035142Y-8495553D01*
X3042583Y-8507969D01*
X3048772Y-8521054D01*
X3053649Y-8534683D01*
X3057166Y-8548724D01*
X3059290Y-8563042D01*
X3060000Y-8577500D01*
X3060000Y-8922500D01*
X3059290Y-8936958D01*
X3057166Y-8951276D01*
X3053649Y-8965317D01*
X3048772Y-8978946D01*
X3042583Y-8992031D01*
X3035142Y-9004447D01*
X3026519Y-9016073D01*
X3016798Y-9026798D01*
X3006073Y-9036519D01*
X2994447Y-9045142D01*
X2982031Y-9052583D01*
X2968946Y-9058772D01*
X2955317Y-9063649D01*
X2941276Y-9067166D01*
X2926958Y-9069290D01*
X2912500Y-9070000D01*
X2617500Y-9070000D01*
X2603042Y-9069290D01*
X2588724Y-9067166D01*
X2574683Y-9063649D01*
X2561054Y-9058772D01*
X2547969Y-9052583D01*
X2535553Y-9045142D01*
X2523927Y-9036519D01*
X2513202Y-9026798D01*
X2503481Y-9016073D01*
X2494858Y-9004447D01*
X2487417Y-8992031D01*
X2481228Y-8978946D01*
X2476351Y-8965317D01*
X2472834Y-8951276D01*
X2470710Y-8936958D01*
X2470000Y-8922500D01*
X2470000Y-8577500D01*
X2470710Y-8563042D01*
X2472834Y-8548724D01*
X2476351Y-8534683D01*
X2481228Y-8521054D01*
X2487417Y-8507969D01*
X2494858Y-8495553D01*
X2503481Y-8483927D01*
X2513202Y-8473202D01*
X2523927Y-8463481D01*
X2535553Y-8454858D01*
X2547969Y-8447417D01*
X2561054Y-8441228D01*
X2574683Y-8436351D01*
X2588724Y-8432834D01*
X2603042Y-8430710D01*
X2617500Y-8430000D01*
X2912500Y-8430000D01*
X2926958Y-8430710D01*
X2926958Y-8430710D01*
G37*
D14*
G04 #@! TD*
G04 #@! TO.P,R22,2*
G04 #@! TO.N,/E_CTRL_SS*
X2765000Y-8750000D03*
D13*
G04 #@! TO.N,/CTRL_SS*
G04 #@! TO.C,R22*
G36*
X3896958Y-8430710D02*
X3911276Y-8432834D01*
X3925317Y-8436351D01*
X3938946Y-8441228D01*
X3952031Y-8447417D01*
X3964447Y-8454858D01*
X3976073Y-8463481D01*
X3986798Y-8473202D01*
X3996519Y-8483927D01*
X4005142Y-8495553D01*
X4012583Y-8507969D01*
X4018772Y-8521054D01*
X4023649Y-8534683D01*
X4027166Y-8548724D01*
X4029290Y-8563042D01*
X4030000Y-8577500D01*
X4030000Y-8922500D01*
X4029290Y-8936958D01*
X4027166Y-8951276D01*
X4023649Y-8965317D01*
X4018772Y-8978946D01*
X4012583Y-8992031D01*
X4005142Y-9004447D01*
X3996519Y-9016073D01*
X3986798Y-9026798D01*
X3976073Y-9036519D01*
X3964447Y-9045142D01*
X3952031Y-9052583D01*
X3938946Y-9058772D01*
X3925317Y-9063649D01*
X3911276Y-9067166D01*
X3896958Y-9069290D01*
X3882500Y-9070000D01*
X3587500Y-9070000D01*
X3573042Y-9069290D01*
X3558724Y-9067166D01*
X3544683Y-9063649D01*
X3531054Y-9058772D01*
X3517969Y-9052583D01*
X3505553Y-9045142D01*
X3493927Y-9036519D01*
X3483202Y-9026798D01*
X3473481Y-9016073D01*
X3464858Y-9004447D01*
X3457417Y-8992031D01*
X3451228Y-8978946D01*
X3446351Y-8965317D01*
X3442834Y-8951276D01*
X3440710Y-8936958D01*
X3440000Y-8922500D01*
X3440000Y-8577500D01*
X3440710Y-8563042D01*
X3442834Y-8548724D01*
X3446351Y-8534683D01*
X3451228Y-8521054D01*
X3457417Y-8507969D01*
X3464858Y-8495553D01*
X3473481Y-8483927D01*
X3483202Y-8473202D01*
X3493927Y-8463481D01*
X3505553Y-8454858D01*
X3517969Y-8447417D01*
X3531054Y-8441228D01*
X3544683Y-8436351D01*
X3558724Y-8432834D01*
X3573042Y-8430710D01*
X3587500Y-8430000D01*
X3882500Y-8430000D01*
X3896958Y-8430710D01*
X3896958Y-8430710D01*
G37*
D14*
G04 #@! TD*
G04 #@! TO.P,R22,1*
G04 #@! TO.N,/CTRL_SS*
X3735000Y-8750000D03*
D13*
G04 #@! TO.N,/E_CTRL_SCK*
G04 #@! TO.C,R21*
G36*
X2926958Y-9430710D02*
X2941276Y-9432834D01*
X2955317Y-9436351D01*
X2968946Y-9441228D01*
X2982031Y-9447417D01*
X2994447Y-9454858D01*
X3006073Y-9463481D01*
X3016798Y-9473202D01*
X3026519Y-9483927D01*
X3035142Y-9495553D01*
X3042583Y-9507969D01*
X3048772Y-9521054D01*
X3053649Y-9534683D01*
X3057166Y-9548724D01*
X3059290Y-9563042D01*
X3060000Y-9577500D01*
X3060000Y-9922500D01*
X3059290Y-9936958D01*
X3057166Y-9951276D01*
X3053649Y-9965317D01*
X3048772Y-9978946D01*
X3042583Y-9992031D01*
X3035142Y-10004447D01*
X3026519Y-10016073D01*
X3016798Y-10026798D01*
X3006073Y-10036519D01*
X2994447Y-10045142D01*
X2982031Y-10052583D01*
X2968946Y-10058772D01*
X2955317Y-10063649D01*
X2941276Y-10067166D01*
X2926958Y-10069290D01*
X2912500Y-10070000D01*
X2617500Y-10070000D01*
X2603042Y-10069290D01*
X2588724Y-10067166D01*
X2574683Y-10063649D01*
X2561054Y-10058772D01*
X2547969Y-10052583D01*
X2535553Y-10045142D01*
X2523927Y-10036519D01*
X2513202Y-10026798D01*
X2503481Y-10016073D01*
X2494858Y-10004447D01*
X2487417Y-9992031D01*
X2481228Y-9978946D01*
X2476351Y-9965317D01*
X2472834Y-9951276D01*
X2470710Y-9936958D01*
X2470000Y-9922500D01*
X2470000Y-9577500D01*
X2470710Y-9563042D01*
X2472834Y-9548724D01*
X2476351Y-9534683D01*
X2481228Y-9521054D01*
X2487417Y-9507969D01*
X2494858Y-9495553D01*
X2503481Y-9483927D01*
X2513202Y-9473202D01*
X2523927Y-9463481D01*
X2535553Y-9454858D01*
X2547969Y-9447417D01*
X2561054Y-9441228D01*
X2574683Y-9436351D01*
X2588724Y-9432834D01*
X2603042Y-9430710D01*
X2617500Y-9430000D01*
X2912500Y-9430000D01*
X2926958Y-9430710D01*
X2926958Y-9430710D01*
G37*
D14*
G04 #@! TD*
G04 #@! TO.P,R21,2*
G04 #@! TO.N,/E_CTRL_SCK*
X2765000Y-9750000D03*
D13*
G04 #@! TO.N,/CTRL_SCK*
G04 #@! TO.C,R21*
G36*
X3896958Y-9430710D02*
X3911276Y-9432834D01*
X3925317Y-9436351D01*
X3938946Y-9441228D01*
X3952031Y-9447417D01*
X3964447Y-9454858D01*
X3976073Y-9463481D01*
X3986798Y-9473202D01*
X3996519Y-9483927D01*
X4005142Y-9495553D01*
X4012583Y-9507969D01*
X4018772Y-9521054D01*
X4023649Y-9534683D01*
X4027166Y-9548724D01*
X4029290Y-9563042D01*
X4030000Y-9577500D01*
X4030000Y-9922500D01*
X4029290Y-9936958D01*
X4027166Y-9951276D01*
X4023649Y-9965317D01*
X4018772Y-9978946D01*
X4012583Y-9992031D01*
X4005142Y-10004447D01*
X3996519Y-10016073D01*
X3986798Y-10026798D01*
X3976073Y-10036519D01*
X3964447Y-10045142D01*
X3952031Y-10052583D01*
X3938946Y-10058772D01*
X3925317Y-10063649D01*
X3911276Y-10067166D01*
X3896958Y-10069290D01*
X3882500Y-10070000D01*
X3587500Y-10070000D01*
X3573042Y-10069290D01*
X3558724Y-10067166D01*
X3544683Y-10063649D01*
X3531054Y-10058772D01*
X3517969Y-10052583D01*
X3505553Y-10045142D01*
X3493927Y-10036519D01*
X3483202Y-10026798D01*
X3473481Y-10016073D01*
X3464858Y-10004447D01*
X3457417Y-9992031D01*
X3451228Y-9978946D01*
X3446351Y-9965317D01*
X3442834Y-9951276D01*
X3440710Y-9936958D01*
X3440000Y-9922500D01*
X3440000Y-9577500D01*
X3440710Y-9563042D01*
X3442834Y-9548724D01*
X3446351Y-9534683D01*
X3451228Y-9521054D01*
X3457417Y-9507969D01*
X3464858Y-9495553D01*
X3473481Y-9483927D01*
X3483202Y-9473202D01*
X3493927Y-9463481D01*
X3505553Y-9454858D01*
X3517969Y-9447417D01*
X3531054Y-9441228D01*
X3544683Y-9436351D01*
X3558724Y-9432834D01*
X3573042Y-9430710D01*
X3587500Y-9430000D01*
X3882500Y-9430000D01*
X3896958Y-9430710D01*
X3896958Y-9430710D01*
G37*
D14*
G04 #@! TD*
G04 #@! TO.P,R21,1*
G04 #@! TO.N,/CTRL_SCK*
X3735000Y-9750000D03*
D13*
G04 #@! TO.N,/E_CTRL_SO*
G04 #@! TO.C,R20*
G36*
X2926958Y-10430710D02*
X2941276Y-10432834D01*
X2955317Y-10436351D01*
X2968946Y-10441228D01*
X2982031Y-10447417D01*
X2994447Y-10454858D01*
X3006073Y-10463481D01*
X3016798Y-10473202D01*
X3026519Y-10483927D01*
X3035142Y-10495553D01*
X3042583Y-10507969D01*
X3048772Y-10521054D01*
X3053649Y-10534683D01*
X3057166Y-10548724D01*
X3059290Y-10563042D01*
X3060000Y-10577500D01*
X3060000Y-10922500D01*
X3059290Y-10936958D01*
X3057166Y-10951276D01*
X3053649Y-10965317D01*
X3048772Y-10978946D01*
X3042583Y-10992031D01*
X3035142Y-11004447D01*
X3026519Y-11016073D01*
X3016798Y-11026798D01*
X3006073Y-11036519D01*
X2994447Y-11045142D01*
X2982031Y-11052583D01*
X2968946Y-11058772D01*
X2955317Y-11063649D01*
X2941276Y-11067166D01*
X2926958Y-11069290D01*
X2912500Y-11070000D01*
X2617500Y-11070000D01*
X2603042Y-11069290D01*
X2588724Y-11067166D01*
X2574683Y-11063649D01*
X2561054Y-11058772D01*
X2547969Y-11052583D01*
X2535553Y-11045142D01*
X2523927Y-11036519D01*
X2513202Y-11026798D01*
X2503481Y-11016073D01*
X2494858Y-11004447D01*
X2487417Y-10992031D01*
X2481228Y-10978946D01*
X2476351Y-10965317D01*
X2472834Y-10951276D01*
X2470710Y-10936958D01*
X2470000Y-10922500D01*
X2470000Y-10577500D01*
X2470710Y-10563042D01*
X2472834Y-10548724D01*
X2476351Y-10534683D01*
X2481228Y-10521054D01*
X2487417Y-10507969D01*
X2494858Y-10495553D01*
X2503481Y-10483927D01*
X2513202Y-10473202D01*
X2523927Y-10463481D01*
X2535553Y-10454858D01*
X2547969Y-10447417D01*
X2561054Y-10441228D01*
X2574683Y-10436351D01*
X2588724Y-10432834D01*
X2603042Y-10430710D01*
X2617500Y-10430000D01*
X2912500Y-10430000D01*
X2926958Y-10430710D01*
X2926958Y-10430710D01*
G37*
D14*
G04 #@! TD*
G04 #@! TO.P,R20,2*
G04 #@! TO.N,/E_CTRL_SO*
X2765000Y-10750000D03*
D13*
G04 #@! TO.N,/CTRL_SO*
G04 #@! TO.C,R20*
G36*
X3896958Y-10430710D02*
X3911276Y-10432834D01*
X3925317Y-10436351D01*
X3938946Y-10441228D01*
X3952031Y-10447417D01*
X3964447Y-10454858D01*
X3976073Y-10463481D01*
X3986798Y-10473202D01*
X3996519Y-10483927D01*
X4005142Y-10495553D01*
X4012583Y-10507969D01*
X4018772Y-10521054D01*
X4023649Y-10534683D01*
X4027166Y-10548724D01*
X4029290Y-10563042D01*
X4030000Y-10577500D01*
X4030000Y-10922500D01*
X4029290Y-10936958D01*
X4027166Y-10951276D01*
X4023649Y-10965317D01*
X4018772Y-10978946D01*
X4012583Y-10992031D01*
X4005142Y-11004447D01*
X3996519Y-11016073D01*
X3986798Y-11026798D01*
X3976073Y-11036519D01*
X3964447Y-11045142D01*
X3952031Y-11052583D01*
X3938946Y-11058772D01*
X3925317Y-11063649D01*
X3911276Y-11067166D01*
X3896958Y-11069290D01*
X3882500Y-11070000D01*
X3587500Y-11070000D01*
X3573042Y-11069290D01*
X3558724Y-11067166D01*
X3544683Y-11063649D01*
X3531054Y-11058772D01*
X3517969Y-11052583D01*
X3505553Y-11045142D01*
X3493927Y-11036519D01*
X3483202Y-11026798D01*
X3473481Y-11016073D01*
X3464858Y-11004447D01*
X3457417Y-10992031D01*
X3451228Y-10978946D01*
X3446351Y-10965317D01*
X3442834Y-10951276D01*
X3440710Y-10936958D01*
X3440000Y-10922500D01*
X3440000Y-10577500D01*
X3440710Y-10563042D01*
X3442834Y-10548724D01*
X3446351Y-10534683D01*
X3451228Y-10521054D01*
X3457417Y-10507969D01*
X3464858Y-10495553D01*
X3473481Y-10483927D01*
X3483202Y-10473202D01*
X3493927Y-10463481D01*
X3505553Y-10454858D01*
X3517969Y-10447417D01*
X3531054Y-10441228D01*
X3544683Y-10436351D01*
X3558724Y-10432834D01*
X3573042Y-10430710D01*
X3587500Y-10430000D01*
X3882500Y-10430000D01*
X3896958Y-10430710D01*
X3896958Y-10430710D01*
G37*
D14*
G04 #@! TD*
G04 #@! TO.P,R20,1*
G04 #@! TO.N,/CTRL_SO*
X3735000Y-10750000D03*
D13*
G04 #@! TO.N,/E_CTRL_SI*
G04 #@! TO.C,R19*
G36*
X2926958Y-11430710D02*
X2941276Y-11432834D01*
X2955317Y-11436351D01*
X2968946Y-11441228D01*
X2982031Y-11447417D01*
X2994447Y-11454858D01*
X3006073Y-11463481D01*
X3016798Y-11473202D01*
X3026519Y-11483927D01*
X3035142Y-11495553D01*
X3042583Y-11507969D01*
X3048772Y-11521054D01*
X3053649Y-11534683D01*
X3057166Y-11548724D01*
X3059290Y-11563042D01*
X3060000Y-11577500D01*
X3060000Y-11922500D01*
X3059290Y-11936958D01*
X3057166Y-11951276D01*
X3053649Y-11965317D01*
X3048772Y-11978946D01*
X3042583Y-11992031D01*
X3035142Y-12004447D01*
X3026519Y-12016073D01*
X3016798Y-12026798D01*
X3006073Y-12036519D01*
X2994447Y-12045142D01*
X2982031Y-12052583D01*
X2968946Y-12058772D01*
X2955317Y-12063649D01*
X2941276Y-12067166D01*
X2926958Y-12069290D01*
X2912500Y-12070000D01*
X2617500Y-12070000D01*
X2603042Y-12069290D01*
X2588724Y-12067166D01*
X2574683Y-12063649D01*
X2561054Y-12058772D01*
X2547969Y-12052583D01*
X2535553Y-12045142D01*
X2523927Y-12036519D01*
X2513202Y-12026798D01*
X2503481Y-12016073D01*
X2494858Y-12004447D01*
X2487417Y-11992031D01*
X2481228Y-11978946D01*
X2476351Y-11965317D01*
X2472834Y-11951276D01*
X2470710Y-11936958D01*
X2470000Y-11922500D01*
X2470000Y-11577500D01*
X2470710Y-11563042D01*
X2472834Y-11548724D01*
X2476351Y-11534683D01*
X2481228Y-11521054D01*
X2487417Y-11507969D01*
X2494858Y-11495553D01*
X2503481Y-11483927D01*
X2513202Y-11473202D01*
X2523927Y-11463481D01*
X2535553Y-11454858D01*
X2547969Y-11447417D01*
X2561054Y-11441228D01*
X2574683Y-11436351D01*
X2588724Y-11432834D01*
X2603042Y-11430710D01*
X2617500Y-11430000D01*
X2912500Y-11430000D01*
X2926958Y-11430710D01*
X2926958Y-11430710D01*
G37*
D14*
G04 #@! TD*
G04 #@! TO.P,R19,2*
G04 #@! TO.N,/E_CTRL_SI*
X2765000Y-11750000D03*
D13*
G04 #@! TO.N,/CTRL_SI*
G04 #@! TO.C,R19*
G36*
X3896958Y-11430710D02*
X3911276Y-11432834D01*
X3925317Y-11436351D01*
X3938946Y-11441228D01*
X3952031Y-11447417D01*
X3964447Y-11454858D01*
X3976073Y-11463481D01*
X3986798Y-11473202D01*
X3996519Y-11483927D01*
X4005142Y-11495553D01*
X4012583Y-11507969D01*
X4018772Y-11521054D01*
X4023649Y-11534683D01*
X4027166Y-11548724D01*
X4029290Y-11563042D01*
X4030000Y-11577500D01*
X4030000Y-11922500D01*
X4029290Y-11936958D01*
X4027166Y-11951276D01*
X4023649Y-11965317D01*
X4018772Y-11978946D01*
X4012583Y-11992031D01*
X4005142Y-12004447D01*
X3996519Y-12016073D01*
X3986798Y-12026798D01*
X3976073Y-12036519D01*
X3964447Y-12045142D01*
X3952031Y-12052583D01*
X3938946Y-12058772D01*
X3925317Y-12063649D01*
X3911276Y-12067166D01*
X3896958Y-12069290D01*
X3882500Y-12070000D01*
X3587500Y-12070000D01*
X3573042Y-12069290D01*
X3558724Y-12067166D01*
X3544683Y-12063649D01*
X3531054Y-12058772D01*
X3517969Y-12052583D01*
X3505553Y-12045142D01*
X3493927Y-12036519D01*
X3483202Y-12026798D01*
X3473481Y-12016073D01*
X3464858Y-12004447D01*
X3457417Y-11992031D01*
X3451228Y-11978946D01*
X3446351Y-11965317D01*
X3442834Y-11951276D01*
X3440710Y-11936958D01*
X3440000Y-11922500D01*
X3440000Y-11577500D01*
X3440710Y-11563042D01*
X3442834Y-11548724D01*
X3446351Y-11534683D01*
X3451228Y-11521054D01*
X3457417Y-11507969D01*
X3464858Y-11495553D01*
X3473481Y-11483927D01*
X3483202Y-11473202D01*
X3493927Y-11463481D01*
X3505553Y-11454858D01*
X3517969Y-11447417D01*
X3531054Y-11441228D01*
X3544683Y-11436351D01*
X3558724Y-11432834D01*
X3573042Y-11430710D01*
X3587500Y-11430000D01*
X3882500Y-11430000D01*
X3896958Y-11430710D01*
X3896958Y-11430710D01*
G37*
D14*
G04 #@! TD*
G04 #@! TO.P,R19,1*
G04 #@! TO.N,/CTRL_SI*
X3735000Y-11750000D03*
D13*
G04 #@! TO.N,/E_PROC_SS*
G04 #@! TO.C,R18*
G36*
X2926958Y-12430710D02*
X2941276Y-12432834D01*
X2955317Y-12436351D01*
X2968946Y-12441228D01*
X2982031Y-12447417D01*
X2994447Y-12454858D01*
X3006073Y-12463481D01*
X3016798Y-12473202D01*
X3026519Y-12483927D01*
X3035142Y-12495553D01*
X3042583Y-12507969D01*
X3048772Y-12521054D01*
X3053649Y-12534683D01*
X3057166Y-12548724D01*
X3059290Y-12563042D01*
X3060000Y-12577500D01*
X3060000Y-12922500D01*
X3059290Y-12936958D01*
X3057166Y-12951276D01*
X3053649Y-12965317D01*
X3048772Y-12978946D01*
X3042583Y-12992031D01*
X3035142Y-13004447D01*
X3026519Y-13016073D01*
X3016798Y-13026798D01*
X3006073Y-13036519D01*
X2994447Y-13045142D01*
X2982031Y-13052583D01*
X2968946Y-13058772D01*
X2955317Y-13063649D01*
X2941276Y-13067166D01*
X2926958Y-13069290D01*
X2912500Y-13070000D01*
X2617500Y-13070000D01*
X2603042Y-13069290D01*
X2588724Y-13067166D01*
X2574683Y-13063649D01*
X2561054Y-13058772D01*
X2547969Y-13052583D01*
X2535553Y-13045142D01*
X2523927Y-13036519D01*
X2513202Y-13026798D01*
X2503481Y-13016073D01*
X2494858Y-13004447D01*
X2487417Y-12992031D01*
X2481228Y-12978946D01*
X2476351Y-12965317D01*
X2472834Y-12951276D01*
X2470710Y-12936958D01*
X2470000Y-12922500D01*
X2470000Y-12577500D01*
X2470710Y-12563042D01*
X2472834Y-12548724D01*
X2476351Y-12534683D01*
X2481228Y-12521054D01*
X2487417Y-12507969D01*
X2494858Y-12495553D01*
X2503481Y-12483927D01*
X2513202Y-12473202D01*
X2523927Y-12463481D01*
X2535553Y-12454858D01*
X2547969Y-12447417D01*
X2561054Y-12441228D01*
X2574683Y-12436351D01*
X2588724Y-12432834D01*
X2603042Y-12430710D01*
X2617500Y-12430000D01*
X2912500Y-12430000D01*
X2926958Y-12430710D01*
X2926958Y-12430710D01*
G37*
D14*
G04 #@! TD*
G04 #@! TO.P,R18,2*
G04 #@! TO.N,/E_PROC_SS*
X2765000Y-12750000D03*
D13*
G04 #@! TO.N,/PROC_SS*
G04 #@! TO.C,R18*
G36*
X3896958Y-12430710D02*
X3911276Y-12432834D01*
X3925317Y-12436351D01*
X3938946Y-12441228D01*
X3952031Y-12447417D01*
X3964447Y-12454858D01*
X3976073Y-12463481D01*
X3986798Y-12473202D01*
X3996519Y-12483927D01*
X4005142Y-12495553D01*
X4012583Y-12507969D01*
X4018772Y-12521054D01*
X4023649Y-12534683D01*
X4027166Y-12548724D01*
X4029290Y-12563042D01*
X4030000Y-12577500D01*
X4030000Y-12922500D01*
X4029290Y-12936958D01*
X4027166Y-12951276D01*
X4023649Y-12965317D01*
X4018772Y-12978946D01*
X4012583Y-12992031D01*
X4005142Y-13004447D01*
X3996519Y-13016073D01*
X3986798Y-13026798D01*
X3976073Y-13036519D01*
X3964447Y-13045142D01*
X3952031Y-13052583D01*
X3938946Y-13058772D01*
X3925317Y-13063649D01*
X3911276Y-13067166D01*
X3896958Y-13069290D01*
X3882500Y-13070000D01*
X3587500Y-13070000D01*
X3573042Y-13069290D01*
X3558724Y-13067166D01*
X3544683Y-13063649D01*
X3531054Y-13058772D01*
X3517969Y-13052583D01*
X3505553Y-13045142D01*
X3493927Y-13036519D01*
X3483202Y-13026798D01*
X3473481Y-13016073D01*
X3464858Y-13004447D01*
X3457417Y-12992031D01*
X3451228Y-12978946D01*
X3446351Y-12965317D01*
X3442834Y-12951276D01*
X3440710Y-12936958D01*
X3440000Y-12922500D01*
X3440000Y-12577500D01*
X3440710Y-12563042D01*
X3442834Y-12548724D01*
X3446351Y-12534683D01*
X3451228Y-12521054D01*
X3457417Y-12507969D01*
X3464858Y-12495553D01*
X3473481Y-12483927D01*
X3483202Y-12473202D01*
X3493927Y-12463481D01*
X3505553Y-12454858D01*
X3517969Y-12447417D01*
X3531054Y-12441228D01*
X3544683Y-12436351D01*
X3558724Y-12432834D01*
X3573042Y-12430710D01*
X3587500Y-12430000D01*
X3882500Y-12430000D01*
X3896958Y-12430710D01*
X3896958Y-12430710D01*
G37*
D14*
G04 #@! TD*
G04 #@! TO.P,R18,1*
G04 #@! TO.N,/PROC_SS*
X3735000Y-12750000D03*
D13*
G04 #@! TO.N,/E_PROC_SCK*
G04 #@! TO.C,R17*
G36*
X2926958Y-13430710D02*
X2941276Y-13432834D01*
X2955317Y-13436351D01*
X2968946Y-13441228D01*
X2982031Y-13447417D01*
X2994447Y-13454858D01*
X3006073Y-13463481D01*
X3016798Y-13473202D01*
X3026519Y-13483927D01*
X3035142Y-13495553D01*
X3042583Y-13507969D01*
X3048772Y-13521054D01*
X3053649Y-13534683D01*
X3057166Y-13548724D01*
X3059290Y-13563042D01*
X3060000Y-13577500D01*
X3060000Y-13922500D01*
X3059290Y-13936958D01*
X3057166Y-13951276D01*
X3053649Y-13965317D01*
X3048772Y-13978946D01*
X3042583Y-13992031D01*
X3035142Y-14004447D01*
X3026519Y-14016073D01*
X3016798Y-14026798D01*
X3006073Y-14036519D01*
X2994447Y-14045142D01*
X2982031Y-14052583D01*
X2968946Y-14058772D01*
X2955317Y-14063649D01*
X2941276Y-14067166D01*
X2926958Y-14069290D01*
X2912500Y-14070000D01*
X2617500Y-14070000D01*
X2603042Y-14069290D01*
X2588724Y-14067166D01*
X2574683Y-14063649D01*
X2561054Y-14058772D01*
X2547969Y-14052583D01*
X2535553Y-14045142D01*
X2523927Y-14036519D01*
X2513202Y-14026798D01*
X2503481Y-14016073D01*
X2494858Y-14004447D01*
X2487417Y-13992031D01*
X2481228Y-13978946D01*
X2476351Y-13965317D01*
X2472834Y-13951276D01*
X2470710Y-13936958D01*
X2470000Y-13922500D01*
X2470000Y-13577500D01*
X2470710Y-13563042D01*
X2472834Y-13548724D01*
X2476351Y-13534683D01*
X2481228Y-13521054D01*
X2487417Y-13507969D01*
X2494858Y-13495553D01*
X2503481Y-13483927D01*
X2513202Y-13473202D01*
X2523927Y-13463481D01*
X2535553Y-13454858D01*
X2547969Y-13447417D01*
X2561054Y-13441228D01*
X2574683Y-13436351D01*
X2588724Y-13432834D01*
X2603042Y-13430710D01*
X2617500Y-13430000D01*
X2912500Y-13430000D01*
X2926958Y-13430710D01*
X2926958Y-13430710D01*
G37*
D14*
G04 #@! TD*
G04 #@! TO.P,R17,2*
G04 #@! TO.N,/E_PROC_SCK*
X2765000Y-13750000D03*
D13*
G04 #@! TO.N,/PROC_SCK*
G04 #@! TO.C,R17*
G36*
X3896958Y-13430710D02*
X3911276Y-13432834D01*
X3925317Y-13436351D01*
X3938946Y-13441228D01*
X3952031Y-13447417D01*
X3964447Y-13454858D01*
X3976073Y-13463481D01*
X3986798Y-13473202D01*
X3996519Y-13483927D01*
X4005142Y-13495553D01*
X4012583Y-13507969D01*
X4018772Y-13521054D01*
X4023649Y-13534683D01*
X4027166Y-13548724D01*
X4029290Y-13563042D01*
X4030000Y-13577500D01*
X4030000Y-13922500D01*
X4029290Y-13936958D01*
X4027166Y-13951276D01*
X4023649Y-13965317D01*
X4018772Y-13978946D01*
X4012583Y-13992031D01*
X4005142Y-14004447D01*
X3996519Y-14016073D01*
X3986798Y-14026798D01*
X3976073Y-14036519D01*
X3964447Y-14045142D01*
X3952031Y-14052583D01*
X3938946Y-14058772D01*
X3925317Y-14063649D01*
X3911276Y-14067166D01*
X3896958Y-14069290D01*
X3882500Y-14070000D01*
X3587500Y-14070000D01*
X3573042Y-14069290D01*
X3558724Y-14067166D01*
X3544683Y-14063649D01*
X3531054Y-14058772D01*
X3517969Y-14052583D01*
X3505553Y-14045142D01*
X3493927Y-14036519D01*
X3483202Y-14026798D01*
X3473481Y-14016073D01*
X3464858Y-14004447D01*
X3457417Y-13992031D01*
X3451228Y-13978946D01*
X3446351Y-13965317D01*
X3442834Y-13951276D01*
X3440710Y-13936958D01*
X3440000Y-13922500D01*
X3440000Y-13577500D01*
X3440710Y-13563042D01*
X3442834Y-13548724D01*
X3446351Y-13534683D01*
X3451228Y-13521054D01*
X3457417Y-13507969D01*
X3464858Y-13495553D01*
X3473481Y-13483927D01*
X3483202Y-13473202D01*
X3493927Y-13463481D01*
X3505553Y-13454858D01*
X3517969Y-13447417D01*
X3531054Y-13441228D01*
X3544683Y-13436351D01*
X3558724Y-13432834D01*
X3573042Y-13430710D01*
X3587500Y-13430000D01*
X3882500Y-13430000D01*
X3896958Y-13430710D01*
X3896958Y-13430710D01*
G37*
D14*
G04 #@! TD*
G04 #@! TO.P,R17,1*
G04 #@! TO.N,/PROC_SCK*
X3735000Y-13750000D03*
D13*
G04 #@! TO.N,/E_PROC_SO*
G04 #@! TO.C,R16*
G36*
X2926958Y-14430710D02*
X2941276Y-14432834D01*
X2955317Y-14436351D01*
X2968946Y-14441228D01*
X2982031Y-14447417D01*
X2994447Y-14454858D01*
X3006073Y-14463481D01*
X3016798Y-14473202D01*
X3026519Y-14483927D01*
X3035142Y-14495553D01*
X3042583Y-14507969D01*
X3048772Y-14521054D01*
X3053649Y-14534683D01*
X3057166Y-14548724D01*
X3059290Y-14563042D01*
X3060000Y-14577500D01*
X3060000Y-14922500D01*
X3059290Y-14936958D01*
X3057166Y-14951276D01*
X3053649Y-14965317D01*
X3048772Y-14978946D01*
X3042583Y-14992031D01*
X3035142Y-15004447D01*
X3026519Y-15016073D01*
X3016798Y-15026798D01*
X3006073Y-15036519D01*
X2994447Y-15045142D01*
X2982031Y-15052583D01*
X2968946Y-15058772D01*
X2955317Y-15063649D01*
X2941276Y-15067166D01*
X2926958Y-15069290D01*
X2912500Y-15070000D01*
X2617500Y-15070000D01*
X2603042Y-15069290D01*
X2588724Y-15067166D01*
X2574683Y-15063649D01*
X2561054Y-15058772D01*
X2547969Y-15052583D01*
X2535553Y-15045142D01*
X2523927Y-15036519D01*
X2513202Y-15026798D01*
X2503481Y-15016073D01*
X2494858Y-15004447D01*
X2487417Y-14992031D01*
X2481228Y-14978946D01*
X2476351Y-14965317D01*
X2472834Y-14951276D01*
X2470710Y-14936958D01*
X2470000Y-14922500D01*
X2470000Y-14577500D01*
X2470710Y-14563042D01*
X2472834Y-14548724D01*
X2476351Y-14534683D01*
X2481228Y-14521054D01*
X2487417Y-14507969D01*
X2494858Y-14495553D01*
X2503481Y-14483927D01*
X2513202Y-14473202D01*
X2523927Y-14463481D01*
X2535553Y-14454858D01*
X2547969Y-14447417D01*
X2561054Y-14441228D01*
X2574683Y-14436351D01*
X2588724Y-14432834D01*
X2603042Y-14430710D01*
X2617500Y-14430000D01*
X2912500Y-14430000D01*
X2926958Y-14430710D01*
X2926958Y-14430710D01*
G37*
D14*
G04 #@! TD*
G04 #@! TO.P,R16,2*
G04 #@! TO.N,/E_PROC_SO*
X2765000Y-14750000D03*
D13*
G04 #@! TO.N,/PROC_SO*
G04 #@! TO.C,R16*
G36*
X3896958Y-14430710D02*
X3911276Y-14432834D01*
X3925317Y-14436351D01*
X3938946Y-14441228D01*
X3952031Y-14447417D01*
X3964447Y-14454858D01*
X3976073Y-14463481D01*
X3986798Y-14473202D01*
X3996519Y-14483927D01*
X4005142Y-14495553D01*
X4012583Y-14507969D01*
X4018772Y-14521054D01*
X4023649Y-14534683D01*
X4027166Y-14548724D01*
X4029290Y-14563042D01*
X4030000Y-14577500D01*
X4030000Y-14922500D01*
X4029290Y-14936958D01*
X4027166Y-14951276D01*
X4023649Y-14965317D01*
X4018772Y-14978946D01*
X4012583Y-14992031D01*
X4005142Y-15004447D01*
X3996519Y-15016073D01*
X3986798Y-15026798D01*
X3976073Y-15036519D01*
X3964447Y-15045142D01*
X3952031Y-15052583D01*
X3938946Y-15058772D01*
X3925317Y-15063649D01*
X3911276Y-15067166D01*
X3896958Y-15069290D01*
X3882500Y-15070000D01*
X3587500Y-15070000D01*
X3573042Y-15069290D01*
X3558724Y-15067166D01*
X3544683Y-15063649D01*
X3531054Y-15058772D01*
X3517969Y-15052583D01*
X3505553Y-15045142D01*
X3493927Y-15036519D01*
X3483202Y-15026798D01*
X3473481Y-15016073D01*
X3464858Y-15004447D01*
X3457417Y-14992031D01*
X3451228Y-14978946D01*
X3446351Y-14965317D01*
X3442834Y-14951276D01*
X3440710Y-14936958D01*
X3440000Y-14922500D01*
X3440000Y-14577500D01*
X3440710Y-14563042D01*
X3442834Y-14548724D01*
X3446351Y-14534683D01*
X3451228Y-14521054D01*
X3457417Y-14507969D01*
X3464858Y-14495553D01*
X3473481Y-14483927D01*
X3483202Y-14473202D01*
X3493927Y-14463481D01*
X3505553Y-14454858D01*
X3517969Y-14447417D01*
X3531054Y-14441228D01*
X3544683Y-14436351D01*
X3558724Y-14432834D01*
X3573042Y-14430710D01*
X3587500Y-14430000D01*
X3882500Y-14430000D01*
X3896958Y-14430710D01*
X3896958Y-14430710D01*
G37*
D14*
G04 #@! TD*
G04 #@! TO.P,R16,1*
G04 #@! TO.N,/PROC_SO*
X3735000Y-14750000D03*
D13*
G04 #@! TO.N,/E_PROC_SI*
G04 #@! TO.C,R15*
G36*
X2926958Y-15430710D02*
X2941276Y-15432834D01*
X2955317Y-15436351D01*
X2968946Y-15441228D01*
X2982031Y-15447417D01*
X2994447Y-15454858D01*
X3006073Y-15463481D01*
X3016798Y-15473202D01*
X3026519Y-15483927D01*
X3035142Y-15495553D01*
X3042583Y-15507969D01*
X3048772Y-15521054D01*
X3053649Y-15534683D01*
X3057166Y-15548724D01*
X3059290Y-15563042D01*
X3060000Y-15577500D01*
X3060000Y-15922500D01*
X3059290Y-15936958D01*
X3057166Y-15951276D01*
X3053649Y-15965317D01*
X3048772Y-15978946D01*
X3042583Y-15992031D01*
X3035142Y-16004447D01*
X3026519Y-16016073D01*
X3016798Y-16026798D01*
X3006073Y-16036519D01*
X2994447Y-16045142D01*
X2982031Y-16052583D01*
X2968946Y-16058772D01*
X2955317Y-16063649D01*
X2941276Y-16067166D01*
X2926958Y-16069290D01*
X2912500Y-16070000D01*
X2617500Y-16070000D01*
X2603042Y-16069290D01*
X2588724Y-16067166D01*
X2574683Y-16063649D01*
X2561054Y-16058772D01*
X2547969Y-16052583D01*
X2535553Y-16045142D01*
X2523927Y-16036519D01*
X2513202Y-16026798D01*
X2503481Y-16016073D01*
X2494858Y-16004447D01*
X2487417Y-15992031D01*
X2481228Y-15978946D01*
X2476351Y-15965317D01*
X2472834Y-15951276D01*
X2470710Y-15936958D01*
X2470000Y-15922500D01*
X2470000Y-15577500D01*
X2470710Y-15563042D01*
X2472834Y-15548724D01*
X2476351Y-15534683D01*
X2481228Y-15521054D01*
X2487417Y-15507969D01*
X2494858Y-15495553D01*
X2503481Y-15483927D01*
X2513202Y-15473202D01*
X2523927Y-15463481D01*
X2535553Y-15454858D01*
X2547969Y-15447417D01*
X2561054Y-15441228D01*
X2574683Y-15436351D01*
X2588724Y-15432834D01*
X2603042Y-15430710D01*
X2617500Y-15430000D01*
X2912500Y-15430000D01*
X2926958Y-15430710D01*
X2926958Y-15430710D01*
G37*
D14*
G04 #@! TD*
G04 #@! TO.P,R15,2*
G04 #@! TO.N,/E_PROC_SI*
X2765000Y-15750000D03*
D13*
G04 #@! TO.N,/PROC_SI*
G04 #@! TO.C,R15*
G36*
X3896958Y-15430710D02*
X3911276Y-15432834D01*
X3925317Y-15436351D01*
X3938946Y-15441228D01*
X3952031Y-15447417D01*
X3964447Y-15454858D01*
X3976073Y-15463481D01*
X3986798Y-15473202D01*
X3996519Y-15483927D01*
X4005142Y-15495553D01*
X4012583Y-15507969D01*
X4018772Y-15521054D01*
X4023649Y-15534683D01*
X4027166Y-15548724D01*
X4029290Y-15563042D01*
X4030000Y-15577500D01*
X4030000Y-15922500D01*
X4029290Y-15936958D01*
X4027166Y-15951276D01*
X4023649Y-15965317D01*
X4018772Y-15978946D01*
X4012583Y-15992031D01*
X4005142Y-16004447D01*
X3996519Y-16016073D01*
X3986798Y-16026798D01*
X3976073Y-16036519D01*
X3964447Y-16045142D01*
X3952031Y-16052583D01*
X3938946Y-16058772D01*
X3925317Y-16063649D01*
X3911276Y-16067166D01*
X3896958Y-16069290D01*
X3882500Y-16070000D01*
X3587500Y-16070000D01*
X3573042Y-16069290D01*
X3558724Y-16067166D01*
X3544683Y-16063649D01*
X3531054Y-16058772D01*
X3517969Y-16052583D01*
X3505553Y-16045142D01*
X3493927Y-16036519D01*
X3483202Y-16026798D01*
X3473481Y-16016073D01*
X3464858Y-16004447D01*
X3457417Y-15992031D01*
X3451228Y-15978946D01*
X3446351Y-15965317D01*
X3442834Y-15951276D01*
X3440710Y-15936958D01*
X3440000Y-15922500D01*
X3440000Y-15577500D01*
X3440710Y-15563042D01*
X3442834Y-15548724D01*
X3446351Y-15534683D01*
X3451228Y-15521054D01*
X3457417Y-15507969D01*
X3464858Y-15495553D01*
X3473481Y-15483927D01*
X3483202Y-15473202D01*
X3493927Y-15463481D01*
X3505553Y-15454858D01*
X3517969Y-15447417D01*
X3531054Y-15441228D01*
X3544683Y-15436351D01*
X3558724Y-15432834D01*
X3573042Y-15430710D01*
X3587500Y-15430000D01*
X3882500Y-15430000D01*
X3896958Y-15430710D01*
X3896958Y-15430710D01*
G37*
D14*
G04 #@! TD*
G04 #@! TO.P,R15,1*
G04 #@! TO.N,/PROC_SI*
X3735000Y-15750000D03*
D12*
G04 #@! TO.P,TP17,1*
G04 #@! TO.N,/SYS_CLK*
X1400000Y-18070000D03*
G04 #@! TD*
D15*
G04 #@! TO.N,/CSI_CLK_IN_P*
X19935545Y-14504455D03*
G04 #@! TO.N,/CSI_CLK_IN_N*
X20324455Y-14115545D03*
G04 #@! TO.N,Net-(U1-PadD8)*
X10875000Y-11795000D03*
G04 #@! TO.N,/ULPM_WAKE*
X14125000Y-11780000D03*
G04 #@! TO.N,/PIO3*
X13450000Y-15420000D03*
G04 #@! TO.N,/PROC_OUT_1*
X14500000Y-15020000D03*
G04 #@! TO.N,/PROC_OUT_2*
X13800000Y-14970000D03*
G04 #@! TO.N,/PIO1*
X13150000Y-15020000D03*
G04 #@! TO.N,/DONE*
X14100000Y-15370000D03*
G04 #@! TO.N,/PIO2*
X12825000Y-11790000D03*
G04 #@! TO.N,/PIO13*
X11525000Y-11800000D03*
G04 #@! TO.N,/PIO14*
X12150000Y-11775000D03*
G04 #@! TO.N,/PIO8*
X12175000Y-12475000D03*
G04 #@! TO.N,/PIO6*
X12825000Y-12475000D03*
G04 #@! TO.N,Net-(U1-PadC3)*
X13525000Y-11785000D03*
G04 #@! TD*
D13*
G04 #@! TO.N,GND*
X14775000Y-6175000D02*
X14840000Y-6110000D01*
X14775000Y-6425000D02*
X14775000Y-6175000D01*
X14840000Y-6110000D02*
X16510000Y-6110000D01*
X7134168Y-5460832D02*
X7159168Y-5460832D01*
X6800000Y-5795000D02*
X7134168Y-5460832D01*
G04 #@! TO.N,/3V3_SYS*
X15675000Y-13575000D02*
X15680000Y-13570000D01*
X15425000Y-13575000D02*
X15675000Y-13575000D01*
X15680000Y-13570000D02*
X16110000Y-13570000D01*
D16*
G04 #@! TO.N,Net-(U1-PadD8)*
X10875000Y-12275000D02*
X10875000Y-11800000D01*
D13*
X10875000Y-12275000D02*
X10875000Y-11795000D01*
D16*
G04 #@! TO.N,/ULPM_WAKE*
X14125000Y-12275000D02*
X14125000Y-11775000D01*
D13*
X14125000Y-12275000D02*
X14125000Y-11780000D01*
G04 #@! TO.N,/PIO3*
X13475000Y-14225000D02*
X13475000Y-15145000D01*
X13475000Y-15395000D02*
X13450000Y-15420000D01*
X13475000Y-15145000D02*
X13475000Y-15395000D01*
D16*
G04 #@! TO.N,/PROC_SCK*
X9565000Y-10985000D02*
X9575000Y-10975000D01*
D13*
X8760000Y-10975000D02*
X8500000Y-11235000D01*
X9575000Y-10975000D02*
X8760000Y-10975000D01*
G04 #@! TO.N,/PROC_OUT_1*
X14775000Y-13575000D02*
X14695000Y-13575000D01*
X14695000Y-13575000D02*
X14500000Y-13770000D01*
X14500000Y-13770000D02*
X14500000Y-15020000D01*
X14500000Y-15020000D02*
X14500000Y-15120000D01*
G04 #@! TO.N,/PROC_OUT_2*
X13875000Y-13575000D02*
X13820000Y-13630000D01*
X14125000Y-13575000D02*
X13875000Y-13575000D01*
X13820000Y-14950000D02*
X13800000Y-14970000D01*
X13820000Y-13630000D02*
X13820000Y-14950000D01*
G04 #@! TO.N,/PIO1*
X13475000Y-13575000D02*
X13475000Y-13645000D01*
X13475000Y-13645000D02*
X13200000Y-13920000D01*
X13200000Y-14970000D02*
X13150000Y-15020000D01*
X13200000Y-13920000D02*
X13200000Y-14970000D01*
G04 #@! TO.N,/DONE*
X14125000Y-14225000D02*
X14125000Y-14970000D01*
X14125000Y-14970000D02*
X14125000Y-15195000D01*
X14125000Y-14970000D02*
X14125000Y-15345000D01*
X14125000Y-15345000D02*
X14100000Y-15370000D01*
G04 #@! TO.N,/PIO2*
X13475000Y-12440000D02*
X12825000Y-11790000D01*
X13475000Y-12925000D02*
X13475000Y-12440000D01*
G04 #@! TO.N,/SYS_CLK*
X8590000Y-12925000D02*
X8500000Y-13015000D01*
X9575000Y-12925000D02*
X8590000Y-12925000D01*
G04 #@! TO.N,/PIO13*
X11525000Y-11925000D02*
X11400000Y-12050000D01*
X11525000Y-11800000D02*
X11525000Y-11925000D01*
D16*
X11400000Y-12050000D02*
X11550000Y-11900000D01*
D13*
X11125000Y-12925000D02*
X10875000Y-12925000D01*
X11225000Y-12825000D02*
X11125000Y-12925000D01*
X11225000Y-12225000D02*
X11225000Y-12825000D01*
X11400000Y-12050000D02*
X11225000Y-12225000D01*
D16*
G04 #@! TO.N,/PIO14*
X12150000Y-11900000D02*
X12175000Y-11900000D01*
D13*
X11525000Y-12675000D02*
X11525000Y-12525000D01*
X11525000Y-12925000D02*
X11525000Y-12675000D01*
X11525000Y-12400000D02*
X12150000Y-11775000D01*
X11525000Y-12525000D02*
X11525000Y-12400000D01*
G04 #@! TO.N,/PIO16*
X8920000Y-10265000D02*
X9305000Y-10650000D01*
X8500000Y-10265000D02*
X8920000Y-10265000D01*
X10150000Y-10650000D02*
X10225000Y-10575000D01*
X10225000Y-10575000D02*
X10225000Y-10325000D01*
X9305000Y-10650000D02*
X10150000Y-10650000D01*
G04 #@! TO.N,/PIO17*
X14775000Y-13175000D02*
X14870000Y-13270000D01*
X14775000Y-12925000D02*
X14775000Y-13175000D01*
X14870000Y-13270000D02*
X16190000Y-13270000D01*
G04 #@! TO.N,/PIO18*
X15675000Y-12275000D02*
X15680000Y-12270000D01*
X15425000Y-12275000D02*
X15675000Y-12275000D01*
X15680000Y-12270000D02*
X16210000Y-12270000D01*
D16*
G04 #@! TO.N,/PIO8*
X12175000Y-12925000D02*
X12175000Y-12475000D01*
G04 #@! TO.N,/PIO6*
X12825000Y-12925000D02*
X12825000Y-12475000D01*
D13*
G04 #@! TO.N,/PIO19*
X15425000Y-12925000D02*
X16195000Y-12925000D01*
G04 #@! TO.N,/AMUX*
X14775000Y-6825000D02*
X14850000Y-6750000D01*
X14775000Y-7075000D02*
X14775000Y-6825000D01*
X14850000Y-6750000D02*
X16530000Y-6750000D01*
G04 #@! TO.N,/PIO5*
X12825000Y-14225000D02*
X12825000Y-14745000D01*
G04 #@! TO.N,/PIO4*
X12825000Y-13575000D02*
X12825000Y-13595000D01*
X12825000Y-13595000D02*
X12500000Y-13920000D01*
X12500000Y-13920000D02*
X12500000Y-14870000D01*
G04 #@! TO.N,/FLASH_CLK*
X14775000Y-12525000D02*
X14830000Y-12580000D01*
X14775000Y-12275000D02*
X14775000Y-12525000D01*
X14830000Y-12580000D02*
X16070000Y-12580000D01*
D16*
G04 #@! TO.N,Net-(U1-PadC3)*
X13550000Y-11900000D02*
X13550000Y-11875000D01*
D13*
X13525000Y-11900000D02*
X13525000Y-11785000D01*
X14125000Y-12925000D02*
X13875000Y-12925000D01*
X13800000Y-12850000D02*
X13800000Y-12175000D01*
X13800000Y-12175000D02*
X13525000Y-11900000D01*
X13875000Y-12925000D02*
X13800000Y-12850000D01*
G04 #@! TO.N,Net-(U1-PadC9)*
X10225000Y-13175000D02*
X10150000Y-13250000D01*
X10225000Y-12925000D02*
X10225000Y-13175000D01*
D16*
X9875000Y-13250000D02*
X9235000Y-13250000D01*
D13*
X10150000Y-13250000D02*
X9950000Y-13250000D01*
X9950000Y-13250000D02*
X9235000Y-13250000D01*
X9950000Y-13250000D02*
X9875000Y-13250000D01*
X9235000Y-13250000D02*
X8500000Y-13985000D01*
G04 #@! TO.N,/VDDIO_BST*
X15675000Y-6425000D02*
X15680000Y-6420000D01*
X15425000Y-6425000D02*
X15675000Y-6425000D01*
X15680000Y-6420000D02*
X16490000Y-6420000D01*
G04 #@! TD*
M02*
