G04 #@! TF.GenerationSoftware,KiCad,Pcbnew,5.0.2+dfsg1-1~bpo9+1*
G04 #@! TF.CreationDate,2019-10-29T18:28:34+01:00*
G04 #@! TF.ProjectId,zglue-jade-adapter,7a676c75-652d-46a6-9164-652d61646170,rev?*
G04 #@! TF.SameCoordinates,Original*
G04 #@! TF.FileFunction,Legend,Top*
G04 #@! TF.FilePolarity,Positive*
%FSLAX46Y46*%
G04 Gerber Fmt 4.6, Leading zero omitted, Abs format (unit mm)*
G04 Created by KiCad (PCBNEW 5.0.2+dfsg1-1~bpo9+1) date Tue 29 Oct 2019 06:28:34 PM CET*
%MOMM*%
%LPD*%
G01*
G04 APERTURE LIST*
%ADD10C,0.150000*%
%ADD11C,0.200000*%
%ADD12C,0.100000*%
%ADD13C,0.120000*%
G04 APERTURE END LIST*
D10*
X19773333Y-17696666D02*
X19540000Y-17363333D01*
X19373333Y-17696666D02*
X19373333Y-16996666D01*
X19640000Y-16996666D01*
X19706666Y-17030000D01*
X19740000Y-17063333D01*
X19773333Y-17130000D01*
X19773333Y-17230000D01*
X19740000Y-17296666D01*
X19706666Y-17330000D01*
X19640000Y-17363333D01*
X19373333Y-17363333D01*
X20340000Y-17663333D02*
X20273333Y-17696666D01*
X20140000Y-17696666D01*
X20073333Y-17663333D01*
X20040000Y-17596666D01*
X20040000Y-17330000D01*
X20073333Y-17263333D01*
X20140000Y-17230000D01*
X20273333Y-17230000D01*
X20340000Y-17263333D01*
X20373333Y-17330000D01*
X20373333Y-17396666D01*
X20040000Y-17463333D01*
X20606666Y-17230000D02*
X20773333Y-17696666D01*
X20940000Y-17230000D01*
X21206666Y-17630000D02*
X21240000Y-17663333D01*
X21206666Y-17696666D01*
X21173333Y-17663333D01*
X21206666Y-17630000D01*
X21206666Y-17696666D01*
X22440000Y-17696666D02*
X22040000Y-17696666D01*
X22240000Y-17696666D02*
X22240000Y-16996666D01*
X22173333Y-17096666D01*
X22106666Y-17163333D01*
X22040000Y-17196666D01*
X22740000Y-17630000D02*
X22773333Y-17663333D01*
X22740000Y-17696666D01*
X22706666Y-17663333D01*
X22740000Y-17630000D01*
X22740000Y-17696666D01*
X23206666Y-16996666D02*
X23273333Y-16996666D01*
X23340000Y-17030000D01*
X23373333Y-17063333D01*
X23406666Y-17130000D01*
X23440000Y-17263333D01*
X23440000Y-17430000D01*
X23406666Y-17563333D01*
X23373333Y-17630000D01*
X23340000Y-17663333D01*
X23273333Y-17696666D01*
X23206666Y-17696666D01*
X23140000Y-17663333D01*
X23106666Y-17630000D01*
X23073333Y-17563333D01*
X23040000Y-17430000D01*
X23040000Y-17263333D01*
X23073333Y-17130000D01*
X23106666Y-17063333D01*
X23140000Y-17030000D01*
X23206666Y-16996666D01*
X19556666Y-18896666D02*
X19156666Y-18896666D01*
X19356666Y-18896666D02*
X19356666Y-18196666D01*
X19290000Y-18296666D01*
X19223333Y-18363333D01*
X19156666Y-18396666D01*
X19990000Y-18196666D02*
X20056666Y-18196666D01*
X20123333Y-18230000D01*
X20156666Y-18263333D01*
X20190000Y-18330000D01*
X20223333Y-18463333D01*
X20223333Y-18630000D01*
X20190000Y-18763333D01*
X20156666Y-18830000D01*
X20123333Y-18863333D01*
X20056666Y-18896666D01*
X19990000Y-18896666D01*
X19923333Y-18863333D01*
X19890000Y-18830000D01*
X19856666Y-18763333D01*
X19823333Y-18630000D01*
X19823333Y-18463333D01*
X19856666Y-18330000D01*
X19890000Y-18263333D01*
X19923333Y-18230000D01*
X19990000Y-18196666D01*
X21023333Y-18163333D02*
X20423333Y-19063333D01*
X21223333Y-18263333D02*
X21256666Y-18230000D01*
X21323333Y-18196666D01*
X21490000Y-18196666D01*
X21556666Y-18230000D01*
X21590000Y-18263333D01*
X21623333Y-18330000D01*
X21623333Y-18396666D01*
X21590000Y-18496666D01*
X21190000Y-18896666D01*
X21623333Y-18896666D01*
X22056666Y-18196666D02*
X22123333Y-18196666D01*
X22190000Y-18230000D01*
X22223333Y-18263333D01*
X22256666Y-18330000D01*
X22290000Y-18463333D01*
X22290000Y-18630000D01*
X22256666Y-18763333D01*
X22223333Y-18830000D01*
X22190000Y-18863333D01*
X22123333Y-18896666D01*
X22056666Y-18896666D01*
X21990000Y-18863333D01*
X21956666Y-18830000D01*
X21923333Y-18763333D01*
X21890000Y-18630000D01*
X21890000Y-18463333D01*
X21923333Y-18330000D01*
X21956666Y-18263333D01*
X21990000Y-18230000D01*
X22056666Y-18196666D01*
X22956666Y-18896666D02*
X22556666Y-18896666D01*
X22756666Y-18896666D02*
X22756666Y-18196666D01*
X22690000Y-18296666D01*
X22623333Y-18363333D01*
X22556666Y-18396666D01*
X23290000Y-18896666D02*
X23423333Y-18896666D01*
X23490000Y-18863333D01*
X23523333Y-18830000D01*
X23590000Y-18730000D01*
X23623333Y-18596666D01*
X23623333Y-18330000D01*
X23590000Y-18263333D01*
X23556666Y-18230000D01*
X23490000Y-18196666D01*
X23356666Y-18196666D01*
X23290000Y-18230000D01*
X23256666Y-18263333D01*
X23223333Y-18330000D01*
X23223333Y-18496666D01*
X23256666Y-18563333D01*
X23290000Y-18596666D01*
X23356666Y-18630000D01*
X23490000Y-18630000D01*
X23556666Y-18596666D01*
X23590000Y-18563333D01*
X23623333Y-18496666D01*
D11*
X8750000Y-5400000D02*
G75*
G03X8750000Y-5400000I-150000J0D01*
G01*
D12*
G04 #@! TO.C,U1*
X15895000Y-14755000D02*
X15895000Y-5255000D01*
X9095000Y-14755000D02*
X9095000Y-5255000D01*
X15895000Y-14755000D02*
X9095000Y-14755000D01*
X15895000Y-5255000D02*
X9095000Y-5255000D01*
D13*
G04 #@! TO.C,C11*
X6110000Y-13320000D02*
X6110000Y-13920000D01*
X6710000Y-13320000D02*
X6710000Y-13920000D01*
G04 #@! TO.C,TP29*
D10*
X1666666Y-4016666D02*
X1666666Y-3616666D01*
X2366666Y-3816666D02*
X1666666Y-3816666D01*
X2366666Y-3383333D02*
X1666666Y-3383333D01*
X1666666Y-3116666D01*
X1700000Y-3050000D01*
X1733333Y-3016666D01*
X1800000Y-2983333D01*
X1900000Y-2983333D01*
X1966666Y-3016666D01*
X2000000Y-3050000D01*
X2033333Y-3116666D01*
X2033333Y-3383333D01*
X1733333Y-2716666D02*
X1700000Y-2683333D01*
X1666666Y-2616666D01*
X1666666Y-2450000D01*
X1700000Y-2383333D01*
X1733333Y-2350000D01*
X1800000Y-2316666D01*
X1866666Y-2316666D01*
X1966666Y-2350000D01*
X2366666Y-2750000D01*
X2366666Y-2316666D01*
X2366666Y-1983333D02*
X2366666Y-1850000D01*
X2333333Y-1783333D01*
X2300000Y-1750000D01*
X2200000Y-1683333D01*
X2066666Y-1650000D01*
X1800000Y-1650000D01*
X1733333Y-1683333D01*
X1700000Y-1716666D01*
X1666666Y-1783333D01*
X1666666Y-1916666D01*
X1700000Y-1983333D01*
X1733333Y-2016666D01*
X1800000Y-2050000D01*
X1966666Y-2050000D01*
X2033333Y-2016666D01*
X2066666Y-1983333D01*
X2100000Y-1916666D01*
X2100000Y-1783333D01*
X2066666Y-1716666D01*
X2033333Y-1683333D01*
X1966666Y-1650000D01*
G04 #@! TO.C,C6*
X20250000Y-11986666D02*
X20283333Y-12020000D01*
X20316666Y-12120000D01*
X20316666Y-12186666D01*
X20283333Y-12286666D01*
X20216666Y-12353333D01*
X20150000Y-12386666D01*
X20016666Y-12420000D01*
X19916666Y-12420000D01*
X19783333Y-12386666D01*
X19716666Y-12353333D01*
X19650000Y-12286666D01*
X19616666Y-12186666D01*
X19616666Y-12120000D01*
X19650000Y-12020000D01*
X19683333Y-11986666D01*
X19616666Y-11386666D02*
X19616666Y-11520000D01*
X19650000Y-11586666D01*
X19683333Y-11620000D01*
X19783333Y-11686666D01*
X19916666Y-11720000D01*
X20183333Y-11720000D01*
X20250000Y-11686666D01*
X20283333Y-11653333D01*
X20316666Y-11586666D01*
X20316666Y-11453333D01*
X20283333Y-11386666D01*
X20250000Y-11353333D01*
X20183333Y-11320000D01*
X20016666Y-11320000D01*
X19950000Y-11353333D01*
X19916666Y-11386666D01*
X19883333Y-11453333D01*
X19883333Y-11586666D01*
X19916666Y-11653333D01*
X19950000Y-11686666D01*
X20016666Y-11720000D01*
G04 #@! TO.C,R15*
X23335000Y-4391666D02*
X23101666Y-4058333D01*
X22935000Y-4391666D02*
X22935000Y-3691666D01*
X23201666Y-3691666D01*
X23268333Y-3725000D01*
X23301666Y-3758333D01*
X23335000Y-3825000D01*
X23335000Y-3925000D01*
X23301666Y-3991666D01*
X23268333Y-4025000D01*
X23201666Y-4058333D01*
X22935000Y-4058333D01*
X24001666Y-4391666D02*
X23601666Y-4391666D01*
X23801666Y-4391666D02*
X23801666Y-3691666D01*
X23735000Y-3791666D01*
X23668333Y-3858333D01*
X23601666Y-3891666D01*
X24635000Y-3691666D02*
X24301666Y-3691666D01*
X24268333Y-4025000D01*
X24301666Y-3991666D01*
X24368333Y-3958333D01*
X24535000Y-3958333D01*
X24601666Y-3991666D01*
X24635000Y-4025000D01*
X24668333Y-4091666D01*
X24668333Y-4258333D01*
X24635000Y-4325000D01*
X24601666Y-4358333D01*
X24535000Y-4391666D01*
X24368333Y-4391666D01*
X24301666Y-4358333D01*
X24268333Y-4325000D01*
G04 #@! TO.C,U1*
X7746666Y-6026666D02*
X7746666Y-6593333D01*
X7780000Y-6660000D01*
X7813333Y-6693333D01*
X7880000Y-6726666D01*
X8013333Y-6726666D01*
X8080000Y-6693333D01*
X8113333Y-6660000D01*
X8146666Y-6593333D01*
X8146666Y-6026666D01*
X8846666Y-6726666D02*
X8446666Y-6726666D01*
X8646666Y-6726666D02*
X8646666Y-6026666D01*
X8580000Y-6126666D01*
X8513333Y-6193333D01*
X8446666Y-6226666D01*
G04 #@! TO.C,R10*
X5510000Y-8526666D02*
X5276666Y-8193333D01*
X5110000Y-8526666D02*
X5110000Y-7826666D01*
X5376666Y-7826666D01*
X5443333Y-7860000D01*
X5476666Y-7893333D01*
X5510000Y-7960000D01*
X5510000Y-8060000D01*
X5476666Y-8126666D01*
X5443333Y-8160000D01*
X5376666Y-8193333D01*
X5110000Y-8193333D01*
X6176666Y-8526666D02*
X5776666Y-8526666D01*
X5976666Y-8526666D02*
X5976666Y-7826666D01*
X5910000Y-7926666D01*
X5843333Y-7993333D01*
X5776666Y-8026666D01*
X6610000Y-7826666D02*
X6676666Y-7826666D01*
X6743333Y-7860000D01*
X6776666Y-7893333D01*
X6810000Y-7960000D01*
X6843333Y-8093333D01*
X6843333Y-8260000D01*
X6810000Y-8393333D01*
X6776666Y-8460000D01*
X6743333Y-8493333D01*
X6676666Y-8526666D01*
X6610000Y-8526666D01*
X6543333Y-8493333D01*
X6510000Y-8460000D01*
X6476666Y-8393333D01*
X6443333Y-8260000D01*
X6443333Y-8093333D01*
X6476666Y-7960000D01*
X6510000Y-7893333D01*
X6543333Y-7860000D01*
X6610000Y-7826666D01*
G04 #@! TO.C,R6*
X12643333Y-4936666D02*
X12410000Y-4603333D01*
X12243333Y-4936666D02*
X12243333Y-4236666D01*
X12510000Y-4236666D01*
X12576666Y-4270000D01*
X12610000Y-4303333D01*
X12643333Y-4370000D01*
X12643333Y-4470000D01*
X12610000Y-4536666D01*
X12576666Y-4570000D01*
X12510000Y-4603333D01*
X12243333Y-4603333D01*
X13243333Y-4236666D02*
X13110000Y-4236666D01*
X13043333Y-4270000D01*
X13010000Y-4303333D01*
X12943333Y-4403333D01*
X12910000Y-4536666D01*
X12910000Y-4803333D01*
X12943333Y-4870000D01*
X12976666Y-4903333D01*
X13043333Y-4936666D01*
X13176666Y-4936666D01*
X13243333Y-4903333D01*
X13276666Y-4870000D01*
X13310000Y-4803333D01*
X13310000Y-4636666D01*
X13276666Y-4570000D01*
X13243333Y-4536666D01*
X13176666Y-4503333D01*
X13043333Y-4503333D01*
X12976666Y-4536666D01*
X12943333Y-4570000D01*
X12910000Y-4636666D01*
G04 #@! TO.C,R13*
X15075000Y-16636666D02*
X14841666Y-16303333D01*
X14675000Y-16636666D02*
X14675000Y-15936666D01*
X14941666Y-15936666D01*
X15008333Y-15970000D01*
X15041666Y-16003333D01*
X15075000Y-16070000D01*
X15075000Y-16170000D01*
X15041666Y-16236666D01*
X15008333Y-16270000D01*
X14941666Y-16303333D01*
X14675000Y-16303333D01*
X15741666Y-16636666D02*
X15341666Y-16636666D01*
X15541666Y-16636666D02*
X15541666Y-15936666D01*
X15475000Y-16036666D01*
X15408333Y-16103333D01*
X15341666Y-16136666D01*
X15975000Y-15936666D02*
X16408333Y-15936666D01*
X16175000Y-16203333D01*
X16275000Y-16203333D01*
X16341666Y-16236666D01*
X16375000Y-16270000D01*
X16408333Y-16336666D01*
X16408333Y-16503333D01*
X16375000Y-16570000D01*
X16341666Y-16603333D01*
X16275000Y-16636666D01*
X16075000Y-16636666D01*
X16008333Y-16603333D01*
X15975000Y-16570000D01*
G04 #@! TO.C,R25*
X20806666Y-6140000D02*
X20473333Y-6373333D01*
X20806666Y-6540000D02*
X20106666Y-6540000D01*
X20106666Y-6273333D01*
X20140000Y-6206666D01*
X20173333Y-6173333D01*
X20240000Y-6140000D01*
X20340000Y-6140000D01*
X20406666Y-6173333D01*
X20440000Y-6206666D01*
X20473333Y-6273333D01*
X20473333Y-6540000D01*
X20173333Y-5873333D02*
X20140000Y-5840000D01*
X20106666Y-5773333D01*
X20106666Y-5606666D01*
X20140000Y-5540000D01*
X20173333Y-5506666D01*
X20240000Y-5473333D01*
X20306666Y-5473333D01*
X20406666Y-5506666D01*
X20806666Y-5906666D01*
X20806666Y-5473333D01*
X20106666Y-4840000D02*
X20106666Y-5173333D01*
X20440000Y-5206666D01*
X20406666Y-5173333D01*
X20373333Y-5106666D01*
X20373333Y-4940000D01*
X20406666Y-4873333D01*
X20440000Y-4840000D01*
X20506666Y-4806666D01*
X20673333Y-4806666D01*
X20740000Y-4840000D01*
X20773333Y-4873333D01*
X20806666Y-4940000D01*
X20806666Y-5106666D01*
X20773333Y-5173333D01*
X20740000Y-5206666D01*
G04 #@! TO.C,R14*
X17776666Y-6170000D02*
X17443333Y-6403333D01*
X17776666Y-6570000D02*
X17076666Y-6570000D01*
X17076666Y-6303333D01*
X17110000Y-6236666D01*
X17143333Y-6203333D01*
X17210000Y-6170000D01*
X17310000Y-6170000D01*
X17376666Y-6203333D01*
X17410000Y-6236666D01*
X17443333Y-6303333D01*
X17443333Y-6570000D01*
X17776666Y-5503333D02*
X17776666Y-5903333D01*
X17776666Y-5703333D02*
X17076666Y-5703333D01*
X17176666Y-5770000D01*
X17243333Y-5836666D01*
X17276666Y-5903333D01*
X17310000Y-4903333D02*
X17776666Y-4903333D01*
X17043333Y-5070000D02*
X17543333Y-5236666D01*
X17543333Y-4803333D01*
G04 #@! TO.C,TP35*
X22108333Y-236666D02*
X22508333Y-236666D01*
X22308333Y-936666D02*
X22308333Y-236666D01*
X22741666Y-936666D02*
X22741666Y-236666D01*
X23008333Y-236666D01*
X23075000Y-270000D01*
X23108333Y-303333D01*
X23141666Y-370000D01*
X23141666Y-470000D01*
X23108333Y-536666D01*
X23075000Y-570000D01*
X23008333Y-603333D01*
X22741666Y-603333D01*
X23375000Y-236666D02*
X23808333Y-236666D01*
X23575000Y-503333D01*
X23675000Y-503333D01*
X23741666Y-536666D01*
X23775000Y-570000D01*
X23808333Y-636666D01*
X23808333Y-803333D01*
X23775000Y-870000D01*
X23741666Y-903333D01*
X23675000Y-936666D01*
X23475000Y-936666D01*
X23408333Y-903333D01*
X23375000Y-870000D01*
X24441666Y-236666D02*
X24108333Y-236666D01*
X24075000Y-570000D01*
X24108333Y-536666D01*
X24175000Y-503333D01*
X24341666Y-503333D01*
X24408333Y-536666D01*
X24441666Y-570000D01*
X24475000Y-636666D01*
X24475000Y-803333D01*
X24441666Y-870000D01*
X24408333Y-903333D01*
X24341666Y-936666D01*
X24175000Y-936666D01*
X24108333Y-903333D01*
X24075000Y-870000D01*
G04 #@! TO.C,TP14*
X163333Y-4526666D02*
X563333Y-4526666D01*
X363333Y-5226666D02*
X363333Y-4526666D01*
X796666Y-5226666D02*
X796666Y-4526666D01*
X1063333Y-4526666D01*
X1129999Y-4560000D01*
X1163333Y-4593333D01*
X1196666Y-4660000D01*
X1196666Y-4760000D01*
X1163333Y-4826666D01*
X1129999Y-4860000D01*
X1063333Y-4893333D01*
X796666Y-4893333D01*
X1863333Y-5226666D02*
X1463333Y-5226666D01*
X1663333Y-5226666D02*
X1663333Y-4526666D01*
X1596666Y-4626666D01*
X1529999Y-4693333D01*
X1463333Y-4726666D01*
X2463333Y-4760000D02*
X2463333Y-5226666D01*
X2296666Y-4493333D02*
X2129999Y-4993333D01*
X2563333Y-4993333D01*
G04 #@! TO.C,TP15*
X163333Y-10486666D02*
X563333Y-10486666D01*
X363333Y-11186666D02*
X363333Y-10486666D01*
X796666Y-11186666D02*
X796666Y-10486666D01*
X1063333Y-10486666D01*
X1129999Y-10520000D01*
X1163333Y-10553333D01*
X1196666Y-10620000D01*
X1196666Y-10720000D01*
X1163333Y-10786666D01*
X1129999Y-10820000D01*
X1063333Y-10853333D01*
X796666Y-10853333D01*
X1863333Y-11186666D02*
X1463333Y-11186666D01*
X1663333Y-11186666D02*
X1663333Y-10486666D01*
X1596666Y-10586666D01*
X1529999Y-10653333D01*
X1463333Y-10686666D01*
X2496666Y-10486666D02*
X2163333Y-10486666D01*
X2129999Y-10820000D01*
X2163333Y-10786666D01*
X2229999Y-10753333D01*
X2396666Y-10753333D01*
X2463333Y-10786666D01*
X2496666Y-10820000D01*
X2529999Y-10886666D01*
X2529999Y-11053333D01*
X2496666Y-11120000D01*
X2463333Y-11153333D01*
X2396666Y-11186666D01*
X2229999Y-11186666D01*
X2163333Y-11153333D01*
X2129999Y-11120000D01*
G04 #@! TO.C,TP16*
X1833333Y-6146666D02*
X2233333Y-6146666D01*
X2033333Y-6846666D02*
X2033333Y-6146666D01*
X2466666Y-6846666D02*
X2466666Y-6146666D01*
X2733333Y-6146666D01*
X2800000Y-6180000D01*
X2833333Y-6213333D01*
X2866666Y-6280000D01*
X2866666Y-6380000D01*
X2833333Y-6446666D01*
X2800000Y-6480000D01*
X2733333Y-6513333D01*
X2466666Y-6513333D01*
X3533333Y-6846666D02*
X3133333Y-6846666D01*
X3333333Y-6846666D02*
X3333333Y-6146666D01*
X3266666Y-6246666D01*
X3199999Y-6313333D01*
X3133333Y-6346666D01*
X4133333Y-6146666D02*
X3999999Y-6146666D01*
X3933333Y-6180000D01*
X3899999Y-6213333D01*
X3833333Y-6313333D01*
X3799999Y-6446666D01*
X3799999Y-6713333D01*
X3833333Y-6780000D01*
X3866666Y-6813333D01*
X3933333Y-6846666D01*
X4066666Y-6846666D01*
X4133333Y-6813333D01*
X4166666Y-6780000D01*
X4200000Y-6713333D01*
X4200000Y-6546666D01*
X4166666Y-6480000D01*
X4133333Y-6446666D01*
X4066666Y-6413333D01*
X3933333Y-6413333D01*
X3866666Y-6446666D01*
X3833333Y-6480000D01*
X3799999Y-6546666D01*
G04 #@! TO.C,TP34*
X21693333Y-1696666D02*
X22093333Y-1696666D01*
X21893333Y-2396666D02*
X21893333Y-1696666D01*
X22326666Y-2396666D02*
X22326666Y-1696666D01*
X22593333Y-1696666D01*
X22660000Y-1730000D01*
X22693333Y-1763333D01*
X22726666Y-1830000D01*
X22726666Y-1930000D01*
X22693333Y-1996666D01*
X22660000Y-2030000D01*
X22593333Y-2063333D01*
X22326666Y-2063333D01*
X22960000Y-1696666D02*
X23393333Y-1696666D01*
X23160000Y-1963333D01*
X23260000Y-1963333D01*
X23326666Y-1996666D01*
X23360000Y-2030000D01*
X23393333Y-2096666D01*
X23393333Y-2263333D01*
X23360000Y-2330000D01*
X23326666Y-2363333D01*
X23260000Y-2396666D01*
X23060000Y-2396666D01*
X22993333Y-2363333D01*
X22960000Y-2330000D01*
X23993333Y-1930000D02*
X23993333Y-2396666D01*
X23826666Y-1663333D02*
X23660000Y-2163333D01*
X24093333Y-2163333D01*
G04 #@! TO.C,TP33*
X1243333Y-18166666D02*
X1643333Y-18166666D01*
X1443333Y-18866666D02*
X1443333Y-18166666D01*
X1876666Y-18866666D02*
X1876666Y-18166666D01*
X2143333Y-18166666D01*
X2210000Y-18200000D01*
X2243333Y-18233333D01*
X2276666Y-18300000D01*
X2276666Y-18400000D01*
X2243333Y-18466666D01*
X2210000Y-18500000D01*
X2143333Y-18533333D01*
X1876666Y-18533333D01*
X2509999Y-18166666D02*
X2943333Y-18166666D01*
X2709999Y-18433333D01*
X2809999Y-18433333D01*
X2876666Y-18466666D01*
X2909999Y-18500000D01*
X2943333Y-18566666D01*
X2943333Y-18733333D01*
X2909999Y-18800000D01*
X2876666Y-18833333D01*
X2809999Y-18866666D01*
X2609999Y-18866666D01*
X2543333Y-18833333D01*
X2509999Y-18800000D01*
X3176666Y-18166666D02*
X3609999Y-18166666D01*
X3376666Y-18433333D01*
X3476666Y-18433333D01*
X3543333Y-18466666D01*
X3576666Y-18500000D01*
X3609999Y-18566666D01*
X3609999Y-18733333D01*
X3576666Y-18800000D01*
X3543333Y-18833333D01*
X3476666Y-18866666D01*
X3276666Y-18866666D01*
X3209999Y-18833333D01*
X3176666Y-18800000D01*
G04 #@! TO.C,TP32*
X16083333Y-18511666D02*
X16483333Y-18511666D01*
X16283333Y-19211666D02*
X16283333Y-18511666D01*
X16716666Y-19211666D02*
X16716666Y-18511666D01*
X16983333Y-18511666D01*
X17050000Y-18545000D01*
X17083333Y-18578333D01*
X17116666Y-18645000D01*
X17116666Y-18745000D01*
X17083333Y-18811666D01*
X17050000Y-18845000D01*
X16983333Y-18878333D01*
X16716666Y-18878333D01*
X17350000Y-18511666D02*
X17783333Y-18511666D01*
X17550000Y-18778333D01*
X17650000Y-18778333D01*
X17716666Y-18811666D01*
X17750000Y-18845000D01*
X17783333Y-18911666D01*
X17783333Y-19078333D01*
X17750000Y-19145000D01*
X17716666Y-19178333D01*
X17650000Y-19211666D01*
X17450000Y-19211666D01*
X17383333Y-19178333D01*
X17350000Y-19145000D01*
X18050000Y-18578333D02*
X18083333Y-18545000D01*
X18150000Y-18511666D01*
X18316666Y-18511666D01*
X18383333Y-18545000D01*
X18416666Y-18578333D01*
X18450000Y-18645000D01*
X18450000Y-18711666D01*
X18416666Y-18811666D01*
X18016666Y-19211666D01*
X18450000Y-19211666D01*
G04 #@! TO.C,C11*
X5440000Y-13710000D02*
X5473333Y-13743333D01*
X5506666Y-13843333D01*
X5506666Y-13910000D01*
X5473333Y-14010000D01*
X5406666Y-14076666D01*
X5340000Y-14110000D01*
X5206666Y-14143333D01*
X5106666Y-14143333D01*
X4973333Y-14110000D01*
X4906666Y-14076666D01*
X4840000Y-14010000D01*
X4806666Y-13910000D01*
X4806666Y-13843333D01*
X4840000Y-13743333D01*
X4873333Y-13710000D01*
X5506666Y-13043333D02*
X5506666Y-13443333D01*
X5506666Y-13243333D02*
X4806666Y-13243333D01*
X4906666Y-13310000D01*
X4973333Y-13376666D01*
X5006666Y-13443333D01*
X5506666Y-12376666D02*
X5506666Y-12776666D01*
X5506666Y-12576666D02*
X4806666Y-12576666D01*
X4906666Y-12643333D01*
X4973333Y-12710000D01*
X5006666Y-12776666D01*
G04 #@! TO.C,TP5*
X7286666Y-19783333D02*
X7286666Y-19383333D01*
X7986666Y-19583333D02*
X7286666Y-19583333D01*
X7986666Y-19150000D02*
X7286666Y-19150000D01*
X7286666Y-18883333D01*
X7320000Y-18816666D01*
X7353333Y-18783333D01*
X7420000Y-18750000D01*
X7520000Y-18750000D01*
X7586666Y-18783333D01*
X7620000Y-18816666D01*
X7653333Y-18883333D01*
X7653333Y-19150000D01*
X7286666Y-18116666D02*
X7286666Y-18450000D01*
X7620000Y-18483333D01*
X7586666Y-18450000D01*
X7553333Y-18383333D01*
X7553333Y-18216666D01*
X7586666Y-18150000D01*
X7620000Y-18116666D01*
X7686666Y-18083333D01*
X7853333Y-18083333D01*
X7920000Y-18116666D01*
X7953333Y-18150000D01*
X7986666Y-18216666D01*
X7986666Y-18383333D01*
X7953333Y-18450000D01*
X7920000Y-18483333D01*
G04 #@! TO.C,TP6*
X736666Y-14036666D02*
X1136666Y-14036666D01*
X936666Y-14736666D02*
X936666Y-14036666D01*
X1370000Y-14736666D02*
X1370000Y-14036666D01*
X1636666Y-14036666D01*
X1703333Y-14070000D01*
X1736666Y-14103333D01*
X1770000Y-14170000D01*
X1770000Y-14270000D01*
X1736666Y-14336666D01*
X1703333Y-14370000D01*
X1636666Y-14403333D01*
X1370000Y-14403333D01*
X2369999Y-14036666D02*
X2236666Y-14036666D01*
X2169999Y-14070000D01*
X2136666Y-14103333D01*
X2069999Y-14203333D01*
X2036666Y-14336666D01*
X2036666Y-14603333D01*
X2069999Y-14670000D01*
X2103333Y-14703333D01*
X2169999Y-14736666D01*
X2303333Y-14736666D01*
X2369999Y-14703333D01*
X2403333Y-14670000D01*
X2436666Y-14603333D01*
X2436666Y-14436666D01*
X2403333Y-14370000D01*
X2369999Y-14336666D01*
X2303333Y-14303333D01*
X2169999Y-14303333D01*
X2103333Y-14336666D01*
X2069999Y-14370000D01*
X2036666Y-14436666D01*
G04 #@! TO.C,TP18*
X8986666Y-4306666D02*
X8986666Y-3906666D01*
X9686666Y-4106666D02*
X8986666Y-4106666D01*
X9686666Y-3673333D02*
X8986666Y-3673333D01*
X8986666Y-3406666D01*
X9020000Y-3340000D01*
X9053333Y-3306666D01*
X9120000Y-3273333D01*
X9220000Y-3273333D01*
X9286666Y-3306666D01*
X9320000Y-3340000D01*
X9353333Y-3406666D01*
X9353333Y-3673333D01*
X9686666Y-2606666D02*
X9686666Y-3006666D01*
X9686666Y-2806666D02*
X8986666Y-2806666D01*
X9086666Y-2873333D01*
X9153333Y-2940000D01*
X9186666Y-3006666D01*
X9286666Y-2206666D02*
X9253333Y-2273333D01*
X9220000Y-2306666D01*
X9153333Y-2340000D01*
X9120000Y-2340000D01*
X9053333Y-2306666D01*
X9020000Y-2273333D01*
X8986666Y-2206666D01*
X8986666Y-2073333D01*
X9020000Y-2006666D01*
X9053333Y-1973333D01*
X9120000Y-1940000D01*
X9153333Y-1940000D01*
X9220000Y-1973333D01*
X9253333Y-2006666D01*
X9286666Y-2073333D01*
X9286666Y-2206666D01*
X9320000Y-2273333D01*
X9353333Y-2306666D01*
X9420000Y-2340000D01*
X9553333Y-2340000D01*
X9620000Y-2306666D01*
X9653333Y-2273333D01*
X9686666Y-2206666D01*
X9686666Y-2073333D01*
X9653333Y-2006666D01*
X9620000Y-1973333D01*
X9553333Y-1940000D01*
X9420000Y-1940000D01*
X9353333Y-1973333D01*
X9320000Y-2006666D01*
X9286666Y-2073333D01*
G04 #@! TO.C,TP19*
X10136666Y-4336666D02*
X10136666Y-3936666D01*
X10836666Y-4136666D02*
X10136666Y-4136666D01*
X10836666Y-3703333D02*
X10136666Y-3703333D01*
X10136666Y-3436666D01*
X10170000Y-3370000D01*
X10203333Y-3336666D01*
X10270000Y-3303333D01*
X10370000Y-3303333D01*
X10436666Y-3336666D01*
X10470000Y-3370000D01*
X10503333Y-3436666D01*
X10503333Y-3703333D01*
X10836666Y-2636666D02*
X10836666Y-3036666D01*
X10836666Y-2836666D02*
X10136666Y-2836666D01*
X10236666Y-2903333D01*
X10303333Y-2970000D01*
X10336666Y-3036666D01*
X10836666Y-2303333D02*
X10836666Y-2170000D01*
X10803333Y-2103333D01*
X10770000Y-2070000D01*
X10670000Y-2003333D01*
X10536666Y-1970000D01*
X10270000Y-1970000D01*
X10203333Y-2003333D01*
X10170000Y-2036666D01*
X10136666Y-2103333D01*
X10136666Y-2236666D01*
X10170000Y-2303333D01*
X10203333Y-2336666D01*
X10270000Y-2370000D01*
X10436666Y-2370000D01*
X10503333Y-2336666D01*
X10536666Y-2303333D01*
X10570000Y-2236666D01*
X10570000Y-2103333D01*
X10536666Y-2036666D01*
X10503333Y-2003333D01*
X10436666Y-1970000D01*
G04 #@! TO.C,TP20*
X11296666Y-4296666D02*
X11296666Y-3896666D01*
X11996666Y-4096666D02*
X11296666Y-4096666D01*
X11996666Y-3663333D02*
X11296666Y-3663333D01*
X11296666Y-3396666D01*
X11330000Y-3330000D01*
X11363333Y-3296666D01*
X11430000Y-3263333D01*
X11530000Y-3263333D01*
X11596666Y-3296666D01*
X11630000Y-3330000D01*
X11663333Y-3396666D01*
X11663333Y-3663333D01*
X11363333Y-2996666D02*
X11330000Y-2963333D01*
X11296666Y-2896666D01*
X11296666Y-2730000D01*
X11330000Y-2663333D01*
X11363333Y-2630000D01*
X11430000Y-2596666D01*
X11496666Y-2596666D01*
X11596666Y-2630000D01*
X11996666Y-3030000D01*
X11996666Y-2596666D01*
X11296666Y-2163333D02*
X11296666Y-2096666D01*
X11330000Y-2030000D01*
X11363333Y-1996666D01*
X11430000Y-1963333D01*
X11563333Y-1930000D01*
X11730000Y-1930000D01*
X11863333Y-1963333D01*
X11930000Y-1996666D01*
X11963333Y-2030000D01*
X11996666Y-2096666D01*
X11996666Y-2163333D01*
X11963333Y-2230000D01*
X11930000Y-2263333D01*
X11863333Y-2296666D01*
X11730000Y-2330000D01*
X11563333Y-2330000D01*
X11430000Y-2296666D01*
X11363333Y-2263333D01*
X11330000Y-2230000D01*
X11296666Y-2163333D01*
G04 #@! TO.C,TP28*
X22128333Y-14801666D02*
X22528333Y-14801666D01*
X22328333Y-15501666D02*
X22328333Y-14801666D01*
X22761666Y-15501666D02*
X22761666Y-14801666D01*
X23028333Y-14801666D01*
X23095000Y-14835000D01*
X23128333Y-14868333D01*
X23161666Y-14935000D01*
X23161666Y-15035000D01*
X23128333Y-15101666D01*
X23095000Y-15135000D01*
X23028333Y-15168333D01*
X22761666Y-15168333D01*
X23428333Y-14868333D02*
X23461666Y-14835000D01*
X23528333Y-14801666D01*
X23695000Y-14801666D01*
X23761666Y-14835000D01*
X23795000Y-14868333D01*
X23828333Y-14935000D01*
X23828333Y-15001666D01*
X23795000Y-15101666D01*
X23395000Y-15501666D01*
X23828333Y-15501666D01*
X24228333Y-15101666D02*
X24161666Y-15068333D01*
X24128333Y-15035000D01*
X24095000Y-14968333D01*
X24095000Y-14935000D01*
X24128333Y-14868333D01*
X24161666Y-14835000D01*
X24228333Y-14801666D01*
X24361666Y-14801666D01*
X24428333Y-14835000D01*
X24461666Y-14868333D01*
X24495000Y-14935000D01*
X24495000Y-14968333D01*
X24461666Y-15035000D01*
X24428333Y-15068333D01*
X24361666Y-15101666D01*
X24228333Y-15101666D01*
X24161666Y-15135000D01*
X24128333Y-15168333D01*
X24095000Y-15235000D01*
X24095000Y-15368333D01*
X24128333Y-15435000D01*
X24161666Y-15468333D01*
X24228333Y-15501666D01*
X24361666Y-15501666D01*
X24428333Y-15468333D01*
X24461666Y-15435000D01*
X24495000Y-15368333D01*
X24495000Y-15235000D01*
X24461666Y-15168333D01*
X24428333Y-15135000D01*
X24361666Y-15101666D01*
G04 #@! TO.C,TP27*
X22128333Y-13051666D02*
X22528333Y-13051666D01*
X22328333Y-13751666D02*
X22328333Y-13051666D01*
X22761666Y-13751666D02*
X22761666Y-13051666D01*
X23028333Y-13051666D01*
X23095000Y-13085000D01*
X23128333Y-13118333D01*
X23161666Y-13185000D01*
X23161666Y-13285000D01*
X23128333Y-13351666D01*
X23095000Y-13385000D01*
X23028333Y-13418333D01*
X22761666Y-13418333D01*
X23428333Y-13118333D02*
X23461666Y-13085000D01*
X23528333Y-13051666D01*
X23695000Y-13051666D01*
X23761666Y-13085000D01*
X23795000Y-13118333D01*
X23828333Y-13185000D01*
X23828333Y-13251666D01*
X23795000Y-13351666D01*
X23395000Y-13751666D01*
X23828333Y-13751666D01*
X24061666Y-13051666D02*
X24528333Y-13051666D01*
X24228333Y-13751666D01*
G04 #@! TO.C,TP26*
X16156666Y-4306666D02*
X16156666Y-3906666D01*
X16856666Y-4106666D02*
X16156666Y-4106666D01*
X16856666Y-3673333D02*
X16156666Y-3673333D01*
X16156666Y-3406666D01*
X16190000Y-3340000D01*
X16223333Y-3306666D01*
X16290000Y-3273333D01*
X16390000Y-3273333D01*
X16456666Y-3306666D01*
X16490000Y-3340000D01*
X16523333Y-3406666D01*
X16523333Y-3673333D01*
X16223333Y-3006666D02*
X16190000Y-2973333D01*
X16156666Y-2906666D01*
X16156666Y-2740000D01*
X16190000Y-2673333D01*
X16223333Y-2640000D01*
X16290000Y-2606666D01*
X16356666Y-2606666D01*
X16456666Y-2640000D01*
X16856666Y-3040000D01*
X16856666Y-2606666D01*
X16156666Y-2006666D02*
X16156666Y-2140000D01*
X16190000Y-2206666D01*
X16223333Y-2240000D01*
X16323333Y-2306666D01*
X16456666Y-2340000D01*
X16723333Y-2340000D01*
X16790000Y-2306666D01*
X16823333Y-2273333D01*
X16856666Y-2206666D01*
X16856666Y-2073333D01*
X16823333Y-2006666D01*
X16790000Y-1973333D01*
X16723333Y-1940000D01*
X16556666Y-1940000D01*
X16490000Y-1973333D01*
X16456666Y-2006666D01*
X16423333Y-2073333D01*
X16423333Y-2206666D01*
X16456666Y-2273333D01*
X16490000Y-2306666D01*
X16556666Y-2340000D01*
G04 #@! TO.C,TP25*
X20633333Y-2756666D02*
X21033333Y-2756666D01*
X20833333Y-3456666D02*
X20833333Y-2756666D01*
X21266666Y-3456666D02*
X21266666Y-2756666D01*
X21533333Y-2756666D01*
X21600000Y-2790000D01*
X21633333Y-2823333D01*
X21666666Y-2890000D01*
X21666666Y-2990000D01*
X21633333Y-3056666D01*
X21600000Y-3090000D01*
X21533333Y-3123333D01*
X21266666Y-3123333D01*
X21933333Y-2823333D02*
X21966666Y-2790000D01*
X22033333Y-2756666D01*
X22200000Y-2756666D01*
X22266666Y-2790000D01*
X22300000Y-2823333D01*
X22333333Y-2890000D01*
X22333333Y-2956666D01*
X22300000Y-3056666D01*
X21900000Y-3456666D01*
X22333333Y-3456666D01*
X22966666Y-2756666D02*
X22633333Y-2756666D01*
X22600000Y-3090000D01*
X22633333Y-3056666D01*
X22700000Y-3023333D01*
X22866666Y-3023333D01*
X22933333Y-3056666D01*
X22966666Y-3090000D01*
X23000000Y-3156666D01*
X23000000Y-3323333D01*
X22966666Y-3390000D01*
X22933333Y-3423333D01*
X22866666Y-3456666D01*
X22700000Y-3456666D01*
X22633333Y-3423333D01*
X22600000Y-3390000D01*
G04 #@! TO.C,TP24*
X18366666Y-4176666D02*
X18366666Y-3776666D01*
X19066666Y-3976666D02*
X18366666Y-3976666D01*
X19066666Y-3543333D02*
X18366666Y-3543333D01*
X18366666Y-3276666D01*
X18400000Y-3210000D01*
X18433333Y-3176666D01*
X18500000Y-3143333D01*
X18600000Y-3143333D01*
X18666666Y-3176666D01*
X18700000Y-3210000D01*
X18733333Y-3276666D01*
X18733333Y-3543333D01*
X18433333Y-2876666D02*
X18400000Y-2843333D01*
X18366666Y-2776666D01*
X18366666Y-2610000D01*
X18400000Y-2543333D01*
X18433333Y-2510000D01*
X18500000Y-2476666D01*
X18566666Y-2476666D01*
X18666666Y-2510000D01*
X19066666Y-2910000D01*
X19066666Y-2476666D01*
X18600000Y-1876666D02*
X19066666Y-1876666D01*
X18333333Y-2043333D02*
X18833333Y-2210000D01*
X18833333Y-1776666D01*
G04 #@! TO.C,TP23*
X19626666Y-4126666D02*
X19626666Y-3726666D01*
X20326666Y-3926666D02*
X19626666Y-3926666D01*
X20326666Y-3493333D02*
X19626666Y-3493333D01*
X19626666Y-3226666D01*
X19660000Y-3160000D01*
X19693333Y-3126666D01*
X19760000Y-3093333D01*
X19860000Y-3093333D01*
X19926666Y-3126666D01*
X19960000Y-3160000D01*
X19993333Y-3226666D01*
X19993333Y-3493333D01*
X19693333Y-2826666D02*
X19660000Y-2793333D01*
X19626666Y-2726666D01*
X19626666Y-2560000D01*
X19660000Y-2493333D01*
X19693333Y-2460000D01*
X19760000Y-2426666D01*
X19826666Y-2426666D01*
X19926666Y-2460000D01*
X20326666Y-2860000D01*
X20326666Y-2426666D01*
X19626666Y-2193333D02*
X19626666Y-1760000D01*
X19893333Y-1993333D01*
X19893333Y-1893333D01*
X19926666Y-1826666D01*
X19960000Y-1793333D01*
X20026666Y-1760000D01*
X20193333Y-1760000D01*
X20260000Y-1793333D01*
X20293333Y-1826666D01*
X20326666Y-1893333D01*
X20326666Y-2093333D01*
X20293333Y-2160000D01*
X20260000Y-2193333D01*
G04 #@! TO.C,TP22*
X17186666Y-4256666D02*
X17186666Y-3856666D01*
X17886666Y-4056666D02*
X17186666Y-4056666D01*
X17886666Y-3623333D02*
X17186666Y-3623333D01*
X17186666Y-3356666D01*
X17220000Y-3290000D01*
X17253333Y-3256666D01*
X17320000Y-3223333D01*
X17420000Y-3223333D01*
X17486666Y-3256666D01*
X17520000Y-3290000D01*
X17553333Y-3356666D01*
X17553333Y-3623333D01*
X17253333Y-2956666D02*
X17220000Y-2923333D01*
X17186666Y-2856666D01*
X17186666Y-2690000D01*
X17220000Y-2623333D01*
X17253333Y-2590000D01*
X17320000Y-2556666D01*
X17386666Y-2556666D01*
X17486666Y-2590000D01*
X17886666Y-2990000D01*
X17886666Y-2556666D01*
X17253333Y-2290000D02*
X17220000Y-2256666D01*
X17186666Y-2190000D01*
X17186666Y-2023333D01*
X17220000Y-1956666D01*
X17253333Y-1923333D01*
X17320000Y-1890000D01*
X17386666Y-1890000D01*
X17486666Y-1923333D01*
X17886666Y-2323333D01*
X17886666Y-1890000D01*
G04 #@! TO.C,TP21*
X15076666Y-4336666D02*
X15076666Y-3936666D01*
X15776666Y-4136666D02*
X15076666Y-4136666D01*
X15776666Y-3703333D02*
X15076666Y-3703333D01*
X15076666Y-3436666D01*
X15110000Y-3370000D01*
X15143333Y-3336666D01*
X15210000Y-3303333D01*
X15310000Y-3303333D01*
X15376666Y-3336666D01*
X15410000Y-3370000D01*
X15443333Y-3436666D01*
X15443333Y-3703333D01*
X15143333Y-3036666D02*
X15110000Y-3003333D01*
X15076666Y-2936666D01*
X15076666Y-2770000D01*
X15110000Y-2703333D01*
X15143333Y-2670000D01*
X15210000Y-2636666D01*
X15276666Y-2636666D01*
X15376666Y-2670000D01*
X15776666Y-3070000D01*
X15776666Y-2636666D01*
X15776666Y-1970000D02*
X15776666Y-2370000D01*
X15776666Y-2170000D02*
X15076666Y-2170000D01*
X15176666Y-2236666D01*
X15243333Y-2303333D01*
X15276666Y-2370000D01*
G04 #@! TO.C,C7*
X17470000Y-9746666D02*
X17503333Y-9780000D01*
X17536666Y-9880000D01*
X17536666Y-9946666D01*
X17503333Y-10046666D01*
X17436666Y-10113333D01*
X17370000Y-10146666D01*
X17236666Y-10180000D01*
X17136666Y-10180000D01*
X17003333Y-10146666D01*
X16936666Y-10113333D01*
X16870000Y-10046666D01*
X16836666Y-9946666D01*
X16836666Y-9880000D01*
X16870000Y-9780000D01*
X16903333Y-9746666D01*
X16836666Y-9513333D02*
X16836666Y-9046666D01*
X17536666Y-9346666D01*
G04 #@! TO.C,C5*
X17000000Y-13806666D02*
X17033333Y-13840000D01*
X17066666Y-13940000D01*
X17066666Y-14006666D01*
X17033333Y-14106666D01*
X16966666Y-14173333D01*
X16900000Y-14206666D01*
X16766666Y-14240000D01*
X16666666Y-14240000D01*
X16533333Y-14206666D01*
X16466666Y-14173333D01*
X16400000Y-14106666D01*
X16366666Y-14006666D01*
X16366666Y-13940000D01*
X16400000Y-13840000D01*
X16433333Y-13806666D01*
X16366666Y-13173333D02*
X16366666Y-13506666D01*
X16700000Y-13540000D01*
X16666666Y-13506666D01*
X16633333Y-13440000D01*
X16633333Y-13273333D01*
X16666666Y-13206666D01*
X16700000Y-13173333D01*
X16766666Y-13140000D01*
X16933333Y-13140000D01*
X17000000Y-13173333D01*
X17033333Y-13206666D01*
X17066666Y-13273333D01*
X17066666Y-13440000D01*
X17033333Y-13506666D01*
X17000000Y-13540000D01*
G04 #@! TO.C,C4*
X12575000Y-19136666D02*
X12608333Y-19170000D01*
X12641666Y-19270000D01*
X12641666Y-19336666D01*
X12608333Y-19436666D01*
X12541666Y-19503333D01*
X12475000Y-19536666D01*
X12341666Y-19570000D01*
X12241666Y-19570000D01*
X12108333Y-19536666D01*
X12041666Y-19503333D01*
X11975000Y-19436666D01*
X11941666Y-19336666D01*
X11941666Y-19270000D01*
X11975000Y-19170000D01*
X12008333Y-19136666D01*
X12175000Y-18536666D02*
X12641666Y-18536666D01*
X11908333Y-18703333D02*
X12408333Y-18870000D01*
X12408333Y-18436666D01*
G04 #@! TO.C,C3*
X15504000Y-18227666D02*
X15537333Y-18261000D01*
X15570666Y-18361000D01*
X15570666Y-18427666D01*
X15537333Y-18527666D01*
X15470666Y-18594333D01*
X15404000Y-18627666D01*
X15270666Y-18661000D01*
X15170666Y-18661000D01*
X15037333Y-18627666D01*
X14970666Y-18594333D01*
X14904000Y-18527666D01*
X14870666Y-18427666D01*
X14870666Y-18361000D01*
X14904000Y-18261000D01*
X14937333Y-18227666D01*
X14870666Y-17994333D02*
X14870666Y-17561000D01*
X15137333Y-17794333D01*
X15137333Y-17694333D01*
X15170666Y-17627666D01*
X15204000Y-17594333D01*
X15270666Y-17561000D01*
X15437333Y-17561000D01*
X15504000Y-17594333D01*
X15537333Y-17627666D01*
X15570666Y-17694333D01*
X15570666Y-17894333D01*
X15537333Y-17961000D01*
X15504000Y-17994333D01*
G04 #@! TO.C,C2*
X11390000Y-19126666D02*
X11423333Y-19160000D01*
X11456666Y-19260000D01*
X11456666Y-19326666D01*
X11423333Y-19426666D01*
X11356666Y-19493333D01*
X11290000Y-19526666D01*
X11156666Y-19560000D01*
X11056666Y-19560000D01*
X10923333Y-19526666D01*
X10856666Y-19493333D01*
X10790000Y-19426666D01*
X10756666Y-19326666D01*
X10756666Y-19260000D01*
X10790000Y-19160000D01*
X10823333Y-19126666D01*
X10823333Y-18860000D02*
X10790000Y-18826666D01*
X10756666Y-18760000D01*
X10756666Y-18593333D01*
X10790000Y-18526666D01*
X10823333Y-18493333D01*
X10890000Y-18460000D01*
X10956666Y-18460000D01*
X11056666Y-18493333D01*
X11456666Y-18893333D01*
X11456666Y-18460000D01*
G04 #@! TO.C,C10*
X10320000Y-19280000D02*
X10353333Y-19313333D01*
X10386666Y-19413333D01*
X10386666Y-19480000D01*
X10353333Y-19580000D01*
X10286666Y-19646666D01*
X10220000Y-19680000D01*
X10086666Y-19713333D01*
X9986666Y-19713333D01*
X9853333Y-19680000D01*
X9786666Y-19646666D01*
X9720000Y-19580000D01*
X9686666Y-19480000D01*
X9686666Y-19413333D01*
X9720000Y-19313333D01*
X9753333Y-19280000D01*
X10386666Y-18613333D02*
X10386666Y-19013333D01*
X10386666Y-18813333D02*
X9686666Y-18813333D01*
X9786666Y-18880000D01*
X9853333Y-18946666D01*
X9886666Y-19013333D01*
X9686666Y-18180000D02*
X9686666Y-18113333D01*
X9720000Y-18046666D01*
X9753333Y-18013333D01*
X9820000Y-17980000D01*
X9953333Y-17946666D01*
X10120000Y-17946666D01*
X10253333Y-17980000D01*
X10320000Y-18013333D01*
X10353333Y-18046666D01*
X10386666Y-18113333D01*
X10386666Y-18180000D01*
X10353333Y-18246666D01*
X10320000Y-18280000D01*
X10253333Y-18313333D01*
X10120000Y-18346666D01*
X9953333Y-18346666D01*
X9820000Y-18313333D01*
X9753333Y-18280000D01*
X9720000Y-18246666D01*
X9686666Y-18180000D01*
G04 #@! TO.C,C14*
X3217000Y-9194000D02*
X3183666Y-9227333D01*
X3083666Y-9260666D01*
X3017000Y-9260666D01*
X2917000Y-9227333D01*
X2850333Y-9160666D01*
X2817000Y-9094000D01*
X2783666Y-8960666D01*
X2783666Y-8860666D01*
X2817000Y-8727333D01*
X2850333Y-8660666D01*
X2917000Y-8594000D01*
X3017000Y-8560666D01*
X3083666Y-8560666D01*
X3183666Y-8594000D01*
X3217000Y-8627333D01*
X3883666Y-9260666D02*
X3483666Y-9260666D01*
X3683666Y-9260666D02*
X3683666Y-8560666D01*
X3617000Y-8660666D01*
X3550333Y-8727333D01*
X3483666Y-8760666D01*
X4483666Y-8794000D02*
X4483666Y-9260666D01*
X4317000Y-8527333D02*
X4150333Y-9027333D01*
X4583666Y-9027333D01*
G04 #@! TO.C,C1*
X8225000Y-15536666D02*
X8258333Y-15570000D01*
X8291666Y-15670000D01*
X8291666Y-15736666D01*
X8258333Y-15836666D01*
X8191666Y-15903333D01*
X8125000Y-15936666D01*
X7991666Y-15970000D01*
X7891666Y-15970000D01*
X7758333Y-15936666D01*
X7691666Y-15903333D01*
X7625000Y-15836666D01*
X7591666Y-15736666D01*
X7591666Y-15670000D01*
X7625000Y-15570000D01*
X7658333Y-15536666D01*
X8291666Y-14870000D02*
X8291666Y-15270000D01*
X8291666Y-15070000D02*
X7591666Y-15070000D01*
X7691666Y-15136666D01*
X7758333Y-15203333D01*
X7791666Y-15270000D01*
G04 #@! TO.C,R11*
X1260000Y-13346666D02*
X1026666Y-13013333D01*
X860000Y-13346666D02*
X860000Y-12646666D01*
X1126666Y-12646666D01*
X1193333Y-12680000D01*
X1226666Y-12713333D01*
X1260000Y-12780000D01*
X1260000Y-12880000D01*
X1226666Y-12946666D01*
X1193333Y-12980000D01*
X1126666Y-13013333D01*
X860000Y-13013333D01*
X1926666Y-13346666D02*
X1526666Y-13346666D01*
X1726666Y-13346666D02*
X1726666Y-12646666D01*
X1660000Y-12746666D01*
X1593333Y-12813333D01*
X1526666Y-12846666D01*
X2593333Y-13346666D02*
X2193333Y-13346666D01*
X2393333Y-13346666D02*
X2393333Y-12646666D01*
X2326666Y-12746666D01*
X2260000Y-12813333D01*
X2193333Y-12846666D01*
G04 #@! TO.C,R9*
X3620333Y-11440666D02*
X3387000Y-11107333D01*
X3220333Y-11440666D02*
X3220333Y-10740666D01*
X3487000Y-10740666D01*
X3553666Y-10774000D01*
X3587000Y-10807333D01*
X3620333Y-10874000D01*
X3620333Y-10974000D01*
X3587000Y-11040666D01*
X3553666Y-11074000D01*
X3487000Y-11107333D01*
X3220333Y-11107333D01*
X3953666Y-11440666D02*
X4087000Y-11440666D01*
X4153666Y-11407333D01*
X4187000Y-11374000D01*
X4253666Y-11274000D01*
X4287000Y-11140666D01*
X4287000Y-10874000D01*
X4253666Y-10807333D01*
X4220333Y-10774000D01*
X4153666Y-10740666D01*
X4020333Y-10740666D01*
X3953666Y-10774000D01*
X3920333Y-10807333D01*
X3887000Y-10874000D01*
X3887000Y-11040666D01*
X3920333Y-11107333D01*
X3953666Y-11140666D01*
X4020333Y-11174000D01*
X4153666Y-11174000D01*
X4220333Y-11140666D01*
X4253666Y-11107333D01*
X4287000Y-11040666D01*
G04 #@! TO.C,R8*
X6543333Y-16616666D02*
X6310000Y-16283333D01*
X6143333Y-16616666D02*
X6143333Y-15916666D01*
X6410000Y-15916666D01*
X6476666Y-15950000D01*
X6510000Y-15983333D01*
X6543333Y-16050000D01*
X6543333Y-16150000D01*
X6510000Y-16216666D01*
X6476666Y-16250000D01*
X6410000Y-16283333D01*
X6143333Y-16283333D01*
X6943333Y-16216666D02*
X6876666Y-16183333D01*
X6843333Y-16150000D01*
X6810000Y-16083333D01*
X6810000Y-16050000D01*
X6843333Y-15983333D01*
X6876666Y-15950000D01*
X6943333Y-15916666D01*
X7076666Y-15916666D01*
X7143333Y-15950000D01*
X7176666Y-15983333D01*
X7210000Y-16050000D01*
X7210000Y-16083333D01*
X7176666Y-16150000D01*
X7143333Y-16183333D01*
X7076666Y-16216666D01*
X6943333Y-16216666D01*
X6876666Y-16250000D01*
X6843333Y-16283333D01*
X6810000Y-16350000D01*
X6810000Y-16483333D01*
X6843333Y-16550000D01*
X6876666Y-16583333D01*
X6943333Y-16616666D01*
X7076666Y-16616666D01*
X7143333Y-16583333D01*
X7176666Y-16550000D01*
X7210000Y-16483333D01*
X7210000Y-16350000D01*
X7176666Y-16283333D01*
X7143333Y-16250000D01*
X7076666Y-16216666D01*
G04 #@! TO.C,R7*
X6563333Y-15666666D02*
X6330000Y-15333333D01*
X6163333Y-15666666D02*
X6163333Y-14966666D01*
X6430000Y-14966666D01*
X6496666Y-15000000D01*
X6530000Y-15033333D01*
X6563333Y-15100000D01*
X6563333Y-15200000D01*
X6530000Y-15266666D01*
X6496666Y-15300000D01*
X6430000Y-15333333D01*
X6163333Y-15333333D01*
X6796666Y-14966666D02*
X7263333Y-14966666D01*
X6963333Y-15666666D01*
G04 #@! TO.C,R5*
X14113333Y-4946666D02*
X13880000Y-4613333D01*
X13713333Y-4946666D02*
X13713333Y-4246666D01*
X13980000Y-4246666D01*
X14046666Y-4280000D01*
X14080000Y-4313333D01*
X14113333Y-4380000D01*
X14113333Y-4480000D01*
X14080000Y-4546666D01*
X14046666Y-4580000D01*
X13980000Y-4613333D01*
X13713333Y-4613333D01*
X14746666Y-4246666D02*
X14413333Y-4246666D01*
X14380000Y-4580000D01*
X14413333Y-4546666D01*
X14480000Y-4513333D01*
X14646666Y-4513333D01*
X14713333Y-4546666D01*
X14746666Y-4580000D01*
X14780000Y-4646666D01*
X14780000Y-4813333D01*
X14746666Y-4880000D01*
X14713333Y-4913333D01*
X14646666Y-4946666D01*
X14480000Y-4946666D01*
X14413333Y-4913333D01*
X14380000Y-4880000D01*
G04 #@! TO.C,R4*
X14566666Y-19311666D02*
X14233333Y-19545000D01*
X14566666Y-19711666D02*
X13866666Y-19711666D01*
X13866666Y-19445000D01*
X13900000Y-19378333D01*
X13933333Y-19345000D01*
X14000000Y-19311666D01*
X14100000Y-19311666D01*
X14166666Y-19345000D01*
X14200000Y-19378333D01*
X14233333Y-19445000D01*
X14233333Y-19711666D01*
X14100000Y-18711666D02*
X14566666Y-18711666D01*
X13833333Y-18878333D02*
X14333333Y-19045000D01*
X14333333Y-18611666D01*
G04 #@! TO.C,R3*
X20616666Y-10006666D02*
X20283333Y-10240000D01*
X20616666Y-10406666D02*
X19916666Y-10406666D01*
X19916666Y-10140000D01*
X19950000Y-10073333D01*
X19983333Y-10040000D01*
X20050000Y-10006666D01*
X20150000Y-10006666D01*
X20216666Y-10040000D01*
X20250000Y-10073333D01*
X20283333Y-10140000D01*
X20283333Y-10406666D01*
X19916666Y-9773333D02*
X19916666Y-9340000D01*
X20183333Y-9573333D01*
X20183333Y-9473333D01*
X20216666Y-9406666D01*
X20250000Y-9373333D01*
X20316666Y-9340000D01*
X20483333Y-9340000D01*
X20550000Y-9373333D01*
X20583333Y-9406666D01*
X20616666Y-9473333D01*
X20616666Y-9673333D01*
X20583333Y-9740000D01*
X20550000Y-9773333D01*
G04 #@! TO.C,R2*
X17966666Y-16286666D02*
X17633333Y-16520000D01*
X17966666Y-16686666D02*
X17266666Y-16686666D01*
X17266666Y-16420000D01*
X17300000Y-16353333D01*
X17333333Y-16320000D01*
X17400000Y-16286666D01*
X17500000Y-16286666D01*
X17566666Y-16320000D01*
X17600000Y-16353333D01*
X17633333Y-16420000D01*
X17633333Y-16686666D01*
X17333333Y-16020000D02*
X17300000Y-15986666D01*
X17266666Y-15920000D01*
X17266666Y-15753333D01*
X17300000Y-15686666D01*
X17333333Y-15653333D01*
X17400000Y-15620000D01*
X17466666Y-15620000D01*
X17566666Y-15653333D01*
X17966666Y-16053333D01*
X17966666Y-15620000D01*
G04 #@! TO.C,R1*
X20236666Y-13766666D02*
X19903333Y-14000000D01*
X20236666Y-14166666D02*
X19536666Y-14166666D01*
X19536666Y-13900000D01*
X19570000Y-13833333D01*
X19603333Y-13800000D01*
X19670000Y-13766666D01*
X19770000Y-13766666D01*
X19836666Y-13800000D01*
X19870000Y-13833333D01*
X19903333Y-13900000D01*
X19903333Y-14166666D01*
X20236666Y-13100000D02*
X20236666Y-13500000D01*
X20236666Y-13300000D02*
X19536666Y-13300000D01*
X19636666Y-13366666D01*
X19703333Y-13433333D01*
X19736666Y-13500000D01*
G04 #@! TO.C,TP4*
X5136666Y-19833333D02*
X5136666Y-19433333D01*
X5836666Y-19633333D02*
X5136666Y-19633333D01*
X5836666Y-19200000D02*
X5136666Y-19200000D01*
X5136666Y-18933333D01*
X5170000Y-18866666D01*
X5203333Y-18833333D01*
X5270000Y-18800000D01*
X5370000Y-18800000D01*
X5436666Y-18833333D01*
X5470000Y-18866666D01*
X5503333Y-18933333D01*
X5503333Y-19200000D01*
X5370000Y-18200000D02*
X5836666Y-18200000D01*
X5103333Y-18366666D02*
X5603333Y-18533333D01*
X5603333Y-18100000D01*
G04 #@! TO.C,TP9*
X5426666Y-3903333D02*
X5426666Y-3503333D01*
X6126666Y-3703333D02*
X5426666Y-3703333D01*
X6126666Y-3270000D02*
X5426666Y-3270000D01*
X5426666Y-3003333D01*
X5460000Y-2936666D01*
X5493333Y-2903333D01*
X5560000Y-2870000D01*
X5660000Y-2870000D01*
X5726666Y-2903333D01*
X5760000Y-2936666D01*
X5793333Y-3003333D01*
X5793333Y-3270000D01*
X6126666Y-2536666D02*
X6126666Y-2403333D01*
X6093333Y-2336666D01*
X6060000Y-2303333D01*
X5960000Y-2236666D01*
X5826666Y-2203333D01*
X5560000Y-2203333D01*
X5493333Y-2236666D01*
X5460000Y-2270000D01*
X5426666Y-2336666D01*
X5426666Y-2470000D01*
X5460000Y-2536666D01*
X5493333Y-2570000D01*
X5560000Y-2603333D01*
X5726666Y-2603333D01*
X5793333Y-2570000D01*
X5826666Y-2536666D01*
X5860000Y-2470000D01*
X5860000Y-2336666D01*
X5826666Y-2270000D01*
X5793333Y-2236666D01*
X5726666Y-2203333D01*
G04 #@! TO.C,TP7*
X6236666Y-19813333D02*
X6236666Y-19413333D01*
X6936666Y-19613333D02*
X6236666Y-19613333D01*
X6936666Y-19180000D02*
X6236666Y-19180000D01*
X6236666Y-18913333D01*
X6270000Y-18846666D01*
X6303333Y-18813333D01*
X6370000Y-18780000D01*
X6470000Y-18780000D01*
X6536666Y-18813333D01*
X6570000Y-18846666D01*
X6603333Y-18913333D01*
X6603333Y-19180000D01*
X6236666Y-18546666D02*
X6236666Y-18080000D01*
X6936666Y-18380000D01*
G04 #@! TO.C,TP3*
X386666Y-15806666D02*
X786666Y-15806666D01*
X586666Y-16506666D02*
X586666Y-15806666D01*
X1019999Y-16506666D02*
X1019999Y-15806666D01*
X1286666Y-15806666D01*
X1353333Y-15840000D01*
X1386666Y-15873333D01*
X1420000Y-15940000D01*
X1420000Y-16040000D01*
X1386666Y-16106666D01*
X1353333Y-16140000D01*
X1286666Y-16173333D01*
X1019999Y-16173333D01*
X1653333Y-15806666D02*
X2086666Y-15806666D01*
X1853333Y-16073333D01*
X1953333Y-16073333D01*
X2019999Y-16106666D01*
X2053333Y-16140000D01*
X2086666Y-16206666D01*
X2086666Y-16373333D01*
X2053333Y-16440000D01*
X2019999Y-16473333D01*
X1953333Y-16506666D01*
X1753333Y-16506666D01*
X1686666Y-16473333D01*
X1653333Y-16440000D01*
G04 #@! TO.C,TP1*
X7666666Y-3843333D02*
X7666666Y-3443333D01*
X8366666Y-3643333D02*
X7666666Y-3643333D01*
X8366666Y-3210000D02*
X7666666Y-3210000D01*
X7666666Y-2943333D01*
X7700000Y-2876666D01*
X7733333Y-2843333D01*
X7800000Y-2810000D01*
X7900000Y-2810000D01*
X7966666Y-2843333D01*
X8000000Y-2876666D01*
X8033333Y-2943333D01*
X8033333Y-3210000D01*
X8366666Y-2143333D02*
X8366666Y-2543333D01*
X8366666Y-2343333D02*
X7666666Y-2343333D01*
X7766666Y-2410000D01*
X7833333Y-2476666D01*
X7866666Y-2543333D01*
G04 #@! TO.C,TP2*
X6576666Y-3903333D02*
X6576666Y-3503333D01*
X7276666Y-3703333D02*
X6576666Y-3703333D01*
X7276666Y-3270000D02*
X6576666Y-3270000D01*
X6576666Y-3003333D01*
X6610000Y-2936666D01*
X6643333Y-2903333D01*
X6710000Y-2870000D01*
X6810000Y-2870000D01*
X6876666Y-2903333D01*
X6910000Y-2936666D01*
X6943333Y-3003333D01*
X6943333Y-3270000D01*
X6643333Y-2603333D02*
X6610000Y-2570000D01*
X6576666Y-2503333D01*
X6576666Y-2336666D01*
X6610000Y-2270000D01*
X6643333Y-2236666D01*
X6710000Y-2203333D01*
X6776666Y-2203333D01*
X6876666Y-2236666D01*
X7276666Y-2636666D01*
X7276666Y-2203333D01*
G04 #@! TO.C,TP8*
X4116666Y-19873333D02*
X4116666Y-19473333D01*
X4816666Y-19673333D02*
X4116666Y-19673333D01*
X4816666Y-19240000D02*
X4116666Y-19240000D01*
X4116666Y-18973333D01*
X4150000Y-18906666D01*
X4183333Y-18873333D01*
X4250000Y-18840000D01*
X4350000Y-18840000D01*
X4416666Y-18873333D01*
X4450000Y-18906666D01*
X4483333Y-18973333D01*
X4483333Y-19240000D01*
X4416666Y-18440000D02*
X4383333Y-18506666D01*
X4350000Y-18540000D01*
X4283333Y-18573333D01*
X4250000Y-18573333D01*
X4183333Y-18540000D01*
X4150000Y-18506666D01*
X4116666Y-18440000D01*
X4116666Y-18306666D01*
X4150000Y-18240000D01*
X4183333Y-18206666D01*
X4250000Y-18173333D01*
X4283333Y-18173333D01*
X4350000Y-18206666D01*
X4383333Y-18240000D01*
X4416666Y-18306666D01*
X4416666Y-18440000D01*
X4450000Y-18506666D01*
X4483333Y-18540000D01*
X4550000Y-18573333D01*
X4683333Y-18573333D01*
X4750000Y-18540000D01*
X4783333Y-18506666D01*
X4816666Y-18440000D01*
X4816666Y-18306666D01*
X4783333Y-18240000D01*
X4750000Y-18206666D01*
X4683333Y-18173333D01*
X4550000Y-18173333D01*
X4483333Y-18206666D01*
X4450000Y-18240000D01*
X4416666Y-18306666D01*
G04 #@! TO.C,TP11*
X2976666Y-4056666D02*
X2976666Y-3656666D01*
X3676666Y-3856666D02*
X2976666Y-3856666D01*
X3676666Y-3423333D02*
X2976666Y-3423333D01*
X2976666Y-3156666D01*
X3010000Y-3090000D01*
X3043333Y-3056666D01*
X3110000Y-3023333D01*
X3210000Y-3023333D01*
X3276666Y-3056666D01*
X3310000Y-3090000D01*
X3343333Y-3156666D01*
X3343333Y-3423333D01*
X3676666Y-2356666D02*
X3676666Y-2756666D01*
X3676666Y-2556666D02*
X2976666Y-2556666D01*
X3076666Y-2623333D01*
X3143333Y-2690000D01*
X3176666Y-2756666D01*
X3676666Y-1690000D02*
X3676666Y-2090000D01*
X3676666Y-1890000D02*
X2976666Y-1890000D01*
X3076666Y-1956666D01*
X3143333Y-2023333D01*
X3176666Y-2090000D01*
G04 #@! TO.C,TP12*
X3893333Y-4946666D02*
X4293333Y-4946666D01*
X4093333Y-5646666D02*
X4093333Y-4946666D01*
X4526666Y-5646666D02*
X4526666Y-4946666D01*
X4793333Y-4946666D01*
X4860000Y-4980000D01*
X4893333Y-5013333D01*
X4926666Y-5080000D01*
X4926666Y-5180000D01*
X4893333Y-5246666D01*
X4860000Y-5280000D01*
X4793333Y-5313333D01*
X4526666Y-5313333D01*
X5593333Y-5646666D02*
X5193333Y-5646666D01*
X5393333Y-5646666D02*
X5393333Y-4946666D01*
X5326666Y-5046666D01*
X5260000Y-5113333D01*
X5193333Y-5146666D01*
X5859999Y-5013333D02*
X5893333Y-4980000D01*
X5960000Y-4946666D01*
X6126666Y-4946666D01*
X6193333Y-4980000D01*
X6226666Y-5013333D01*
X6260000Y-5080000D01*
X6260000Y-5146666D01*
X6226666Y-5246666D01*
X5826666Y-5646666D01*
X6260000Y-5646666D01*
G04 #@! TO.C,TP10*
X4216666Y-4046666D02*
X4216666Y-3646666D01*
X4916666Y-3846666D02*
X4216666Y-3846666D01*
X4916666Y-3413333D02*
X4216666Y-3413333D01*
X4216666Y-3146666D01*
X4250000Y-3080000D01*
X4283333Y-3046666D01*
X4350000Y-3013333D01*
X4450000Y-3013333D01*
X4516666Y-3046666D01*
X4550000Y-3080000D01*
X4583333Y-3146666D01*
X4583333Y-3413333D01*
X4916666Y-2346666D02*
X4916666Y-2746666D01*
X4916666Y-2546666D02*
X4216666Y-2546666D01*
X4316666Y-2613333D01*
X4383333Y-2680000D01*
X4416666Y-2746666D01*
X4216666Y-1913333D02*
X4216666Y-1846666D01*
X4250000Y-1780000D01*
X4283333Y-1746666D01*
X4350000Y-1713333D01*
X4483333Y-1680000D01*
X4650000Y-1680000D01*
X4783333Y-1713333D01*
X4850000Y-1746666D01*
X4883333Y-1780000D01*
X4916666Y-1846666D01*
X4916666Y-1913333D01*
X4883333Y-1980000D01*
X4850000Y-2013333D01*
X4783333Y-2046666D01*
X4650000Y-2080000D01*
X4483333Y-2080000D01*
X4350000Y-2046666D01*
X4283333Y-2013333D01*
X4250000Y-1980000D01*
X4216666Y-1913333D01*
G04 #@! TO.C,C15*
X3247000Y-10264000D02*
X3213666Y-10297333D01*
X3113666Y-10330666D01*
X3047000Y-10330666D01*
X2947000Y-10297333D01*
X2880333Y-10230666D01*
X2847000Y-10164000D01*
X2813666Y-10030666D01*
X2813666Y-9930666D01*
X2847000Y-9797333D01*
X2880333Y-9730666D01*
X2947000Y-9664000D01*
X3047000Y-9630666D01*
X3113666Y-9630666D01*
X3213666Y-9664000D01*
X3247000Y-9697333D01*
X3913666Y-10330666D02*
X3513666Y-10330666D01*
X3713666Y-10330666D02*
X3713666Y-9630666D01*
X3647000Y-9730666D01*
X3580333Y-9797333D01*
X3513666Y-9830666D01*
X4547000Y-9630666D02*
X4213666Y-9630666D01*
X4180333Y-9964000D01*
X4213666Y-9930666D01*
X4280333Y-9897333D01*
X4447000Y-9897333D01*
X4513666Y-9930666D01*
X4547000Y-9964000D01*
X4580333Y-10030666D01*
X4580333Y-10197333D01*
X4547000Y-10264000D01*
X4513666Y-10297333D01*
X4447000Y-10330666D01*
X4280333Y-10330666D01*
X4213666Y-10297333D01*
X4180333Y-10264000D01*
G04 #@! TO.C,C9*
X7740000Y-10046666D02*
X7773333Y-10080000D01*
X7806666Y-10180000D01*
X7806666Y-10246666D01*
X7773333Y-10346666D01*
X7706666Y-10413333D01*
X7640000Y-10446666D01*
X7506666Y-10480000D01*
X7406666Y-10480000D01*
X7273333Y-10446666D01*
X7206666Y-10413333D01*
X7140000Y-10346666D01*
X7106666Y-10246666D01*
X7106666Y-10180000D01*
X7140000Y-10080000D01*
X7173333Y-10046666D01*
X7806666Y-9713333D02*
X7806666Y-9580000D01*
X7773333Y-9513333D01*
X7740000Y-9480000D01*
X7640000Y-9413333D01*
X7506666Y-9380000D01*
X7240000Y-9380000D01*
X7173333Y-9413333D01*
X7140000Y-9446666D01*
X7106666Y-9513333D01*
X7106666Y-9646666D01*
X7140000Y-9713333D01*
X7173333Y-9746666D01*
X7240000Y-9780000D01*
X7406666Y-9780000D01*
X7473333Y-9746666D01*
X7506666Y-9713333D01*
X7540000Y-9646666D01*
X7540000Y-9513333D01*
X7506666Y-9446666D01*
X7473333Y-9413333D01*
X7406666Y-9380000D01*
G04 #@! TO.C,R22*
X23335000Y-11521666D02*
X23101666Y-11188333D01*
X22935000Y-11521666D02*
X22935000Y-10821666D01*
X23201666Y-10821666D01*
X23268333Y-10855000D01*
X23301666Y-10888333D01*
X23335000Y-10955000D01*
X23335000Y-11055000D01*
X23301666Y-11121666D01*
X23268333Y-11155000D01*
X23201666Y-11188333D01*
X22935000Y-11188333D01*
X23601666Y-10888333D02*
X23635000Y-10855000D01*
X23701666Y-10821666D01*
X23868333Y-10821666D01*
X23935000Y-10855000D01*
X23968333Y-10888333D01*
X24001666Y-10955000D01*
X24001666Y-11021666D01*
X23968333Y-11121666D01*
X23568333Y-11521666D01*
X24001666Y-11521666D01*
X24268333Y-10888333D02*
X24301666Y-10855000D01*
X24368333Y-10821666D01*
X24535000Y-10821666D01*
X24601666Y-10855000D01*
X24635000Y-10888333D01*
X24668333Y-10955000D01*
X24668333Y-11021666D01*
X24635000Y-11121666D01*
X24235000Y-11521666D01*
X24668333Y-11521666D01*
G04 #@! TO.C,R21*
X23315000Y-10451666D02*
X23081666Y-10118333D01*
X22915000Y-10451666D02*
X22915000Y-9751666D01*
X23181666Y-9751666D01*
X23248333Y-9785000D01*
X23281666Y-9818333D01*
X23315000Y-9885000D01*
X23315000Y-9985000D01*
X23281666Y-10051666D01*
X23248333Y-10085000D01*
X23181666Y-10118333D01*
X22915000Y-10118333D01*
X23581666Y-9818333D02*
X23615000Y-9785000D01*
X23681666Y-9751666D01*
X23848333Y-9751666D01*
X23915000Y-9785000D01*
X23948333Y-9818333D01*
X23981666Y-9885000D01*
X23981666Y-9951666D01*
X23948333Y-10051666D01*
X23548333Y-10451666D01*
X23981666Y-10451666D01*
X24648333Y-10451666D02*
X24248333Y-10451666D01*
X24448333Y-10451666D02*
X24448333Y-9751666D01*
X24381666Y-9851666D01*
X24315000Y-9918333D01*
X24248333Y-9951666D01*
G04 #@! TO.C,R20*
X23330000Y-9511666D02*
X23096666Y-9178333D01*
X22930000Y-9511666D02*
X22930000Y-8811666D01*
X23196666Y-8811666D01*
X23263333Y-8845000D01*
X23296666Y-8878333D01*
X23330000Y-8945000D01*
X23330000Y-9045000D01*
X23296666Y-9111666D01*
X23263333Y-9145000D01*
X23196666Y-9178333D01*
X22930000Y-9178333D01*
X23596666Y-8878333D02*
X23630000Y-8845000D01*
X23696666Y-8811666D01*
X23863333Y-8811666D01*
X23930000Y-8845000D01*
X23963333Y-8878333D01*
X23996666Y-8945000D01*
X23996666Y-9011666D01*
X23963333Y-9111666D01*
X23563333Y-9511666D01*
X23996666Y-9511666D01*
X24430000Y-8811666D02*
X24496666Y-8811666D01*
X24563333Y-8845000D01*
X24596666Y-8878333D01*
X24630000Y-8945000D01*
X24663333Y-9078333D01*
X24663333Y-9245000D01*
X24630000Y-9378333D01*
X24596666Y-9445000D01*
X24563333Y-9478333D01*
X24496666Y-9511666D01*
X24430000Y-9511666D01*
X24363333Y-9478333D01*
X24330000Y-9445000D01*
X24296666Y-9378333D01*
X24263333Y-9245000D01*
X24263333Y-9078333D01*
X24296666Y-8945000D01*
X24330000Y-8878333D01*
X24363333Y-8845000D01*
X24430000Y-8811666D01*
G04 #@! TO.C,R19*
X23285000Y-8451666D02*
X23051666Y-8118333D01*
X22885000Y-8451666D02*
X22885000Y-7751666D01*
X23151666Y-7751666D01*
X23218333Y-7785000D01*
X23251666Y-7818333D01*
X23285000Y-7885000D01*
X23285000Y-7985000D01*
X23251666Y-8051666D01*
X23218333Y-8085000D01*
X23151666Y-8118333D01*
X22885000Y-8118333D01*
X23951666Y-8451666D02*
X23551666Y-8451666D01*
X23751666Y-8451666D02*
X23751666Y-7751666D01*
X23685000Y-7851666D01*
X23618333Y-7918333D01*
X23551666Y-7951666D01*
X24285000Y-8451666D02*
X24418333Y-8451666D01*
X24485000Y-8418333D01*
X24518333Y-8385000D01*
X24585000Y-8285000D01*
X24618333Y-8151666D01*
X24618333Y-7885000D01*
X24585000Y-7818333D01*
X24551666Y-7785000D01*
X24485000Y-7751666D01*
X24351666Y-7751666D01*
X24285000Y-7785000D01*
X24251666Y-7818333D01*
X24218333Y-7885000D01*
X24218333Y-8051666D01*
X24251666Y-8118333D01*
X24285000Y-8151666D01*
X24351666Y-8185000D01*
X24485000Y-8185000D01*
X24551666Y-8151666D01*
X24585000Y-8118333D01*
X24618333Y-8051666D01*
G04 #@! TO.C,R18*
X23305000Y-7381666D02*
X23071666Y-7048333D01*
X22905000Y-7381666D02*
X22905000Y-6681666D01*
X23171666Y-6681666D01*
X23238333Y-6715000D01*
X23271666Y-6748333D01*
X23305000Y-6815000D01*
X23305000Y-6915000D01*
X23271666Y-6981666D01*
X23238333Y-7015000D01*
X23171666Y-7048333D01*
X22905000Y-7048333D01*
X23971666Y-7381666D02*
X23571666Y-7381666D01*
X23771666Y-7381666D02*
X23771666Y-6681666D01*
X23705000Y-6781666D01*
X23638333Y-6848333D01*
X23571666Y-6881666D01*
X24371666Y-6981666D02*
X24305000Y-6948333D01*
X24271666Y-6915000D01*
X24238333Y-6848333D01*
X24238333Y-6815000D01*
X24271666Y-6748333D01*
X24305000Y-6715000D01*
X24371666Y-6681666D01*
X24505000Y-6681666D01*
X24571666Y-6715000D01*
X24605000Y-6748333D01*
X24638333Y-6815000D01*
X24638333Y-6848333D01*
X24605000Y-6915000D01*
X24571666Y-6948333D01*
X24505000Y-6981666D01*
X24371666Y-6981666D01*
X24305000Y-7015000D01*
X24271666Y-7048333D01*
X24238333Y-7115000D01*
X24238333Y-7248333D01*
X24271666Y-7315000D01*
X24305000Y-7348333D01*
X24371666Y-7381666D01*
X24505000Y-7381666D01*
X24571666Y-7348333D01*
X24605000Y-7315000D01*
X24638333Y-7248333D01*
X24638333Y-7115000D01*
X24605000Y-7048333D01*
X24571666Y-7015000D01*
X24505000Y-6981666D01*
G04 #@! TO.C,R17*
X23315000Y-6361666D02*
X23081666Y-6028333D01*
X22915000Y-6361666D02*
X22915000Y-5661666D01*
X23181666Y-5661666D01*
X23248333Y-5695000D01*
X23281666Y-5728333D01*
X23315000Y-5795000D01*
X23315000Y-5895000D01*
X23281666Y-5961666D01*
X23248333Y-5995000D01*
X23181666Y-6028333D01*
X22915000Y-6028333D01*
X23981666Y-6361666D02*
X23581666Y-6361666D01*
X23781666Y-6361666D02*
X23781666Y-5661666D01*
X23715000Y-5761666D01*
X23648333Y-5828333D01*
X23581666Y-5861666D01*
X24215000Y-5661666D02*
X24681666Y-5661666D01*
X24381666Y-6361666D01*
G04 #@! TO.C,R16*
X23335000Y-5371666D02*
X23101666Y-5038333D01*
X22935000Y-5371666D02*
X22935000Y-4671666D01*
X23201666Y-4671666D01*
X23268333Y-4705000D01*
X23301666Y-4738333D01*
X23335000Y-4805000D01*
X23335000Y-4905000D01*
X23301666Y-4971666D01*
X23268333Y-5005000D01*
X23201666Y-5038333D01*
X22935000Y-5038333D01*
X24001666Y-5371666D02*
X23601666Y-5371666D01*
X23801666Y-5371666D02*
X23801666Y-4671666D01*
X23735000Y-4771666D01*
X23668333Y-4838333D01*
X23601666Y-4871666D01*
X24601666Y-4671666D02*
X24468333Y-4671666D01*
X24401666Y-4705000D01*
X24368333Y-4738333D01*
X24301666Y-4838333D01*
X24268333Y-4971666D01*
X24268333Y-5238333D01*
X24301666Y-5305000D01*
X24335000Y-5338333D01*
X24401666Y-5371666D01*
X24535000Y-5371666D01*
X24601666Y-5338333D01*
X24635000Y-5305000D01*
X24668333Y-5238333D01*
X24668333Y-5071666D01*
X24635000Y-5005000D01*
X24601666Y-4971666D01*
X24535000Y-4938333D01*
X24401666Y-4938333D01*
X24335000Y-4971666D01*
X24301666Y-5005000D01*
X24268333Y-5071666D01*
G04 #@! TO.C,TP17*
X24116666Y-3486666D02*
X24116666Y-3086666D01*
X24816666Y-3286666D02*
X24116666Y-3286666D01*
X24816666Y-2853333D02*
X24116666Y-2853333D01*
X24116666Y-2586666D01*
X24150000Y-2520000D01*
X24183333Y-2486666D01*
X24250000Y-2453333D01*
X24350000Y-2453333D01*
X24416666Y-2486666D01*
X24450000Y-2520000D01*
X24483333Y-2586666D01*
X24483333Y-2853333D01*
X24816666Y-1786666D02*
X24816666Y-2186666D01*
X24816666Y-1986666D02*
X24116666Y-1986666D01*
X24216666Y-2053333D01*
X24283333Y-2120000D01*
X24316666Y-2186666D01*
X24116666Y-1553333D02*
X24116666Y-1086666D01*
X24816666Y-1386666D01*
G04 #@! TD*
M02*
