G04 #@! TF.GenerationSoftware,KiCad,Pcbnew,5.0.2+dfsg1-1~bpo9+1*
G04 #@! TF.CreationDate,2019-10-28T12:01:42+01:00*
G04 #@! TF.ProjectId,zglue-jade-adapter,7a676c75-652d-46a6-9164-652d61646170,rev?*
G04 #@! TF.SameCoordinates,Original*
G04 #@! TF.FileFunction,Soldermask,Top*
G04 #@! TF.FilePolarity,Negative*
%FSLAX46Y46*%
G04 Gerber Fmt 4.6, Leading zero omitted, Abs format (unit mm)*
G04 Created by KiCad (PCBNEW 5.0.2+dfsg1-1~bpo9+1) date Mon 28 Oct 2019 12:01:42 PM CET*
%MOMM*%
%LPD*%
G01*
G04 APERTURE LIST*
%ADD10C,0.100000*%
G04 APERTURE END LIST*
D10*
G36*
X920719Y-18659374D02*
X920722Y-18659375D01*
X920721Y-18659375D01*
X1020996Y-18700910D01*
X1111242Y-18761210D01*
X1187990Y-18837958D01*
X1248290Y-18928204D01*
X1248290Y-18928205D01*
X1289826Y-19028481D01*
X1311000Y-19134930D01*
X1311000Y-19243470D01*
X1289826Y-19349919D01*
X1289825Y-19349921D01*
X1248290Y-19450196D01*
X1187990Y-19540442D01*
X1111242Y-19617190D01*
X1020996Y-19677490D01*
X950090Y-19706860D01*
X920719Y-19719026D01*
X814270Y-19740200D01*
X705730Y-19740200D01*
X599281Y-19719026D01*
X569910Y-19706860D01*
X499004Y-19677490D01*
X408758Y-19617190D01*
X332010Y-19540442D01*
X271710Y-19450196D01*
X230175Y-19349921D01*
X230174Y-19349919D01*
X209000Y-19243470D01*
X209000Y-19134930D01*
X230174Y-19028481D01*
X271710Y-18928205D01*
X271710Y-18928204D01*
X332010Y-18837958D01*
X408758Y-18761210D01*
X499004Y-18700910D01*
X599279Y-18659375D01*
X599278Y-18659375D01*
X599281Y-18659374D01*
X705730Y-18638200D01*
X814270Y-18638200D01*
X920719Y-18659374D01*
X920719Y-18659374D01*
G37*
G36*
X15531825Y-18772081D02*
X15559546Y-18780490D01*
X15585089Y-18794143D01*
X15607481Y-18812519D01*
X15625857Y-18834911D01*
X15639510Y-18860454D01*
X15647919Y-18888175D01*
X15651000Y-18919454D01*
X15651000Y-19360546D01*
X15647919Y-19391825D01*
X15639510Y-19419546D01*
X15625857Y-19445089D01*
X15607481Y-19467481D01*
X15585089Y-19485857D01*
X15559546Y-19499510D01*
X15531825Y-19507919D01*
X15500546Y-19511000D01*
X15109454Y-19511000D01*
X15078175Y-19507919D01*
X15050454Y-19499510D01*
X15024911Y-19485857D01*
X15002519Y-19467481D01*
X14984143Y-19445089D01*
X14970490Y-19419546D01*
X14962081Y-19391825D01*
X14959000Y-19360546D01*
X14959000Y-18919454D01*
X14962081Y-18888175D01*
X14970490Y-18860454D01*
X14984143Y-18834911D01*
X15002519Y-18812519D01*
X15024911Y-18794143D01*
X15050454Y-18780490D01*
X15078175Y-18772081D01*
X15109454Y-18769000D01*
X15500546Y-18769000D01*
X15531825Y-18772081D01*
X15531825Y-18772081D01*
G37*
G36*
X14561825Y-18772081D02*
X14589546Y-18780490D01*
X14615089Y-18794143D01*
X14637481Y-18812519D01*
X14655857Y-18834911D01*
X14669510Y-18860454D01*
X14677919Y-18888175D01*
X14681000Y-18919454D01*
X14681000Y-19360546D01*
X14677919Y-19391825D01*
X14669510Y-19419546D01*
X14655857Y-19445089D01*
X14637481Y-19467481D01*
X14615089Y-19485857D01*
X14589546Y-19499510D01*
X14561825Y-19507919D01*
X14530546Y-19511000D01*
X14139454Y-19511000D01*
X14108175Y-19507919D01*
X14080454Y-19499510D01*
X14054911Y-19485857D01*
X14032519Y-19467481D01*
X14014143Y-19445089D01*
X14000490Y-19419546D01*
X13992081Y-19391825D01*
X13989000Y-19360546D01*
X13989000Y-18919454D01*
X13992081Y-18888175D01*
X14000490Y-18860454D01*
X14014143Y-18834911D01*
X14032519Y-18812519D01*
X14054911Y-18794143D01*
X14080454Y-18780490D01*
X14108175Y-18772081D01*
X14139454Y-18769000D01*
X14530546Y-18769000D01*
X14561825Y-18772081D01*
X14561825Y-18772081D01*
G37*
G36*
X8806519Y-18405174D02*
X8806522Y-18405175D01*
X8806521Y-18405175D01*
X8906796Y-18446710D01*
X8997042Y-18507010D01*
X9073790Y-18583758D01*
X9134090Y-18674004D01*
X9134090Y-18674005D01*
X9175626Y-18774281D01*
X9196800Y-18880730D01*
X9196800Y-18989270D01*
X9175626Y-19095719D01*
X9175625Y-19095721D01*
X9134090Y-19195996D01*
X9073790Y-19286242D01*
X8997042Y-19362990D01*
X8906796Y-19423290D01*
X8847336Y-19447919D01*
X8806519Y-19464826D01*
X8700070Y-19486000D01*
X8591530Y-19486000D01*
X8485081Y-19464826D01*
X8444264Y-19447919D01*
X8384804Y-19423290D01*
X8294558Y-19362990D01*
X8217810Y-19286242D01*
X8157510Y-19195996D01*
X8115975Y-19095721D01*
X8115974Y-19095719D01*
X8094800Y-18989270D01*
X8094800Y-18880730D01*
X8115974Y-18774281D01*
X8157510Y-18674005D01*
X8157510Y-18674004D01*
X8217810Y-18583758D01*
X8294558Y-18507010D01*
X8384804Y-18446710D01*
X8485079Y-18405175D01*
X8485078Y-18405175D01*
X8485081Y-18405174D01*
X8591530Y-18384000D01*
X8700070Y-18384000D01*
X8806519Y-18405174D01*
X8806519Y-18405174D01*
G37*
G36*
X13451825Y-18762081D02*
X13479546Y-18770490D01*
X13505089Y-18784143D01*
X13527481Y-18802519D01*
X13545857Y-18824911D01*
X13559510Y-18850454D01*
X13567919Y-18878175D01*
X13571000Y-18909454D01*
X13571000Y-19300546D01*
X13567919Y-19331825D01*
X13559510Y-19359546D01*
X13545857Y-19385089D01*
X13527481Y-19407481D01*
X13505089Y-19425857D01*
X13479546Y-19439510D01*
X13451825Y-19447919D01*
X13420546Y-19451000D01*
X12979454Y-19451000D01*
X12948175Y-19447919D01*
X12920454Y-19439510D01*
X12894911Y-19425857D01*
X12872519Y-19407481D01*
X12854143Y-19385089D01*
X12840490Y-19359546D01*
X12832081Y-19331825D01*
X12829000Y-19300546D01*
X12829000Y-18909454D01*
X12832081Y-18878175D01*
X12840490Y-18850454D01*
X12854143Y-18824911D01*
X12872519Y-18802519D01*
X12894911Y-18784143D01*
X12920454Y-18770490D01*
X12948175Y-18762081D01*
X12979454Y-18759000D01*
X13420546Y-18759000D01*
X13451825Y-18762081D01*
X13451825Y-18762081D01*
G37*
G36*
X13451825Y-17792081D02*
X13479546Y-17800490D01*
X13505089Y-17814143D01*
X13527481Y-17832519D01*
X13545857Y-17854911D01*
X13559510Y-17880454D01*
X13567919Y-17908175D01*
X13571000Y-17939454D01*
X13571000Y-18330546D01*
X13567919Y-18361825D01*
X13559510Y-18389546D01*
X13545857Y-18415089D01*
X13527481Y-18437481D01*
X13505089Y-18455857D01*
X13479546Y-18469510D01*
X13451825Y-18477919D01*
X13420546Y-18481000D01*
X12979454Y-18481000D01*
X12948175Y-18477919D01*
X12920454Y-18469510D01*
X12894911Y-18455857D01*
X12872519Y-18437481D01*
X12854143Y-18415089D01*
X12840490Y-18389546D01*
X12832081Y-18361825D01*
X12829000Y-18330546D01*
X12829000Y-17939454D01*
X12832081Y-17908175D01*
X12840490Y-17880454D01*
X12854143Y-17854911D01*
X12872519Y-17832519D01*
X12894911Y-17814143D01*
X12920454Y-17800490D01*
X12948175Y-17792081D01*
X12979454Y-17789000D01*
X13420546Y-17789000D01*
X13451825Y-17792081D01*
X13451825Y-17792081D01*
G37*
G36*
X16781825Y-17547081D02*
X16809546Y-17555490D01*
X16835089Y-17569143D01*
X16857481Y-17587519D01*
X16875857Y-17609911D01*
X16889510Y-17635454D01*
X16897919Y-17663175D01*
X16901000Y-17694454D01*
X16901000Y-18085546D01*
X16897919Y-18116825D01*
X16889510Y-18144546D01*
X16875857Y-18170089D01*
X16857481Y-18192481D01*
X16835089Y-18210857D01*
X16809546Y-18224510D01*
X16781825Y-18232919D01*
X16750546Y-18236000D01*
X16309454Y-18236000D01*
X16278175Y-18232919D01*
X16250454Y-18224510D01*
X16224911Y-18210857D01*
X16202519Y-18192481D01*
X16184143Y-18170089D01*
X16170490Y-18144546D01*
X16162081Y-18116825D01*
X16159000Y-18085546D01*
X16159000Y-17694454D01*
X16162081Y-17663175D01*
X16170490Y-17635454D01*
X16184143Y-17609911D01*
X16202519Y-17587519D01*
X16224911Y-17569143D01*
X16250454Y-17555490D01*
X16278175Y-17547081D01*
X16309454Y-17544000D01*
X16750546Y-17544000D01*
X16781825Y-17547081D01*
X16781825Y-17547081D01*
G37*
G36*
X14492825Y-17336081D02*
X14520546Y-17344490D01*
X14546089Y-17358143D01*
X14568481Y-17376519D01*
X14586857Y-17398911D01*
X14600510Y-17424454D01*
X14608919Y-17452175D01*
X14612000Y-17483454D01*
X14612000Y-17874546D01*
X14608919Y-17905825D01*
X14600510Y-17933546D01*
X14586857Y-17959089D01*
X14568481Y-17981481D01*
X14546089Y-17999857D01*
X14520546Y-18013510D01*
X14492825Y-18021919D01*
X14461546Y-18025000D01*
X14020454Y-18025000D01*
X13989175Y-18021919D01*
X13961454Y-18013510D01*
X13935911Y-17999857D01*
X13913519Y-17981481D01*
X13895143Y-17959089D01*
X13881490Y-17933546D01*
X13873081Y-17905825D01*
X13870000Y-17874546D01*
X13870000Y-17483454D01*
X13873081Y-17452175D01*
X13881490Y-17424454D01*
X13895143Y-17398911D01*
X13913519Y-17376519D01*
X13935911Y-17358143D01*
X13961454Y-17344490D01*
X13989175Y-17336081D01*
X14020454Y-17333000D01*
X14461546Y-17333000D01*
X14492825Y-17336081D01*
X14492825Y-17336081D01*
G37*
G36*
X2355719Y-16765974D02*
X2355722Y-16765975D01*
X2355721Y-16765975D01*
X2455996Y-16807510D01*
X2546242Y-16867810D01*
X2622990Y-16944558D01*
X2683290Y-17034804D01*
X2693642Y-17059796D01*
X2724826Y-17135081D01*
X2746000Y-17241530D01*
X2746000Y-17350070D01*
X2724826Y-17456519D01*
X2718310Y-17472249D01*
X2683290Y-17556796D01*
X2622990Y-17647042D01*
X2546242Y-17723790D01*
X2455996Y-17784090D01*
X2412349Y-17802169D01*
X2355719Y-17825626D01*
X2249270Y-17846800D01*
X2140730Y-17846800D01*
X2034281Y-17825626D01*
X1977651Y-17802169D01*
X1934004Y-17784090D01*
X1843758Y-17723790D01*
X1767010Y-17647042D01*
X1706710Y-17556796D01*
X1671690Y-17472249D01*
X1665174Y-17456519D01*
X1644000Y-17350070D01*
X1644000Y-17241530D01*
X1665174Y-17135081D01*
X1696358Y-17059796D01*
X1706710Y-17034804D01*
X1767010Y-16944558D01*
X1843758Y-16867810D01*
X1934004Y-16807510D01*
X2034279Y-16765975D01*
X2034278Y-16765975D01*
X2034281Y-16765974D01*
X2140730Y-16744800D01*
X2249270Y-16744800D01*
X2355719Y-16765974D01*
X2355719Y-16765974D01*
G37*
G36*
X6675719Y-16765974D02*
X6675722Y-16765975D01*
X6675721Y-16765975D01*
X6775996Y-16807510D01*
X6866242Y-16867810D01*
X6942990Y-16944558D01*
X7003290Y-17034804D01*
X7013642Y-17059796D01*
X7044826Y-17135081D01*
X7066000Y-17241530D01*
X7066000Y-17350070D01*
X7044826Y-17456519D01*
X7038310Y-17472249D01*
X7003290Y-17556796D01*
X6942990Y-17647042D01*
X6866242Y-17723790D01*
X6775996Y-17784090D01*
X6732349Y-17802169D01*
X6675719Y-17825626D01*
X6569270Y-17846800D01*
X6460730Y-17846800D01*
X6354281Y-17825626D01*
X6297651Y-17802169D01*
X6254004Y-17784090D01*
X6163758Y-17723790D01*
X6087010Y-17647042D01*
X6026710Y-17556796D01*
X5991690Y-17472249D01*
X5985174Y-17456519D01*
X5964000Y-17350070D01*
X5964000Y-17241530D01*
X5985174Y-17135081D01*
X6016358Y-17059796D01*
X6026710Y-17034804D01*
X6087010Y-16944558D01*
X6163758Y-16867810D01*
X6254004Y-16807510D01*
X6354279Y-16765975D01*
X6354278Y-16765975D01*
X6354281Y-16765974D01*
X6460730Y-16744800D01*
X6569270Y-16744800D01*
X6675719Y-16765974D01*
X6675719Y-16765974D01*
G37*
G36*
X5165719Y-16765974D02*
X5165722Y-16765975D01*
X5165721Y-16765975D01*
X5265996Y-16807510D01*
X5356242Y-16867810D01*
X5432990Y-16944558D01*
X5493290Y-17034804D01*
X5503642Y-17059796D01*
X5534826Y-17135081D01*
X5556000Y-17241530D01*
X5556000Y-17350070D01*
X5534826Y-17456519D01*
X5528310Y-17472249D01*
X5493290Y-17556796D01*
X5432990Y-17647042D01*
X5356242Y-17723790D01*
X5265996Y-17784090D01*
X5222349Y-17802169D01*
X5165719Y-17825626D01*
X5059270Y-17846800D01*
X4950730Y-17846800D01*
X4844281Y-17825626D01*
X4787651Y-17802169D01*
X4744004Y-17784090D01*
X4653758Y-17723790D01*
X4577010Y-17647042D01*
X4516710Y-17556796D01*
X4481690Y-17472249D01*
X4475174Y-17456519D01*
X4454000Y-17350070D01*
X4454000Y-17241530D01*
X4475174Y-17135081D01*
X4506358Y-17059796D01*
X4516710Y-17034804D01*
X4577010Y-16944558D01*
X4653758Y-16867810D01*
X4744004Y-16807510D01*
X4844279Y-16765975D01*
X4844278Y-16765975D01*
X4844281Y-16765974D01*
X4950730Y-16744800D01*
X5059270Y-16744800D01*
X5165719Y-16765974D01*
X5165719Y-16765974D01*
G37*
G36*
X3735719Y-16765974D02*
X3735722Y-16765975D01*
X3735721Y-16765975D01*
X3835996Y-16807510D01*
X3926242Y-16867810D01*
X4002990Y-16944558D01*
X4063290Y-17034804D01*
X4073642Y-17059796D01*
X4104826Y-17135081D01*
X4126000Y-17241530D01*
X4126000Y-17350070D01*
X4104826Y-17456519D01*
X4098310Y-17472249D01*
X4063290Y-17556796D01*
X4002990Y-17647042D01*
X3926242Y-17723790D01*
X3835996Y-17784090D01*
X3792349Y-17802169D01*
X3735719Y-17825626D01*
X3629270Y-17846800D01*
X3520730Y-17846800D01*
X3414281Y-17825626D01*
X3357651Y-17802169D01*
X3314004Y-17784090D01*
X3223758Y-17723790D01*
X3147010Y-17647042D01*
X3086710Y-17556796D01*
X3051690Y-17472249D01*
X3045174Y-17456519D01*
X3024000Y-17350070D01*
X3024000Y-17241530D01*
X3045174Y-17135081D01*
X3076358Y-17059796D01*
X3086710Y-17034804D01*
X3147010Y-16944558D01*
X3223758Y-16867810D01*
X3314004Y-16807510D01*
X3414279Y-16765975D01*
X3414278Y-16765975D01*
X3414281Y-16765974D01*
X3520730Y-16744800D01*
X3629270Y-16744800D01*
X3735719Y-16765974D01*
X3735719Y-16765974D01*
G37*
G36*
X8158119Y-16765974D02*
X8158122Y-16765975D01*
X8158121Y-16765975D01*
X8258396Y-16807510D01*
X8348642Y-16867810D01*
X8425390Y-16944558D01*
X8485690Y-17034804D01*
X8496042Y-17059796D01*
X8527226Y-17135081D01*
X8548400Y-17241530D01*
X8548400Y-17350070D01*
X8527226Y-17456519D01*
X8520710Y-17472249D01*
X8485690Y-17556796D01*
X8425390Y-17647042D01*
X8348642Y-17723790D01*
X8258396Y-17784090D01*
X8214749Y-17802169D01*
X8158119Y-17825626D01*
X8051670Y-17846800D01*
X7943130Y-17846800D01*
X7836681Y-17825626D01*
X7780051Y-17802169D01*
X7736404Y-17784090D01*
X7646158Y-17723790D01*
X7569410Y-17647042D01*
X7509110Y-17556796D01*
X7474090Y-17472249D01*
X7467574Y-17456519D01*
X7446400Y-17350070D01*
X7446400Y-17241530D01*
X7467574Y-17135081D01*
X7498758Y-17059796D01*
X7509110Y-17034804D01*
X7569410Y-16944558D01*
X7646158Y-16867810D01*
X7736404Y-16807510D01*
X7836679Y-16765975D01*
X7836678Y-16765975D01*
X7836681Y-16765974D01*
X7943130Y-16744800D01*
X8051670Y-16744800D01*
X8158119Y-16765974D01*
X8158119Y-16765974D01*
G37*
G36*
X10451825Y-16962081D02*
X10479546Y-16970490D01*
X10505089Y-16984143D01*
X10527481Y-17002519D01*
X10545857Y-17024911D01*
X10559510Y-17050454D01*
X10567919Y-17078175D01*
X10571000Y-17109454D01*
X10571000Y-17500546D01*
X10567919Y-17531825D01*
X10559510Y-17559546D01*
X10545857Y-17585089D01*
X10527481Y-17607481D01*
X10505089Y-17625857D01*
X10479546Y-17639510D01*
X10451825Y-17647919D01*
X10420546Y-17651000D01*
X9979454Y-17651000D01*
X9948175Y-17647919D01*
X9920454Y-17639510D01*
X9894911Y-17625857D01*
X9872519Y-17607481D01*
X9854143Y-17585089D01*
X9840490Y-17559546D01*
X9832081Y-17531825D01*
X9829000Y-17500546D01*
X9829000Y-17109454D01*
X9832081Y-17078175D01*
X9840490Y-17050454D01*
X9854143Y-17024911D01*
X9872519Y-17002519D01*
X9894911Y-16984143D01*
X9920454Y-16970490D01*
X9948175Y-16962081D01*
X9979454Y-16959000D01*
X10420546Y-16959000D01*
X10451825Y-16962081D01*
X10451825Y-16962081D01*
G37*
G36*
X11662825Y-16956081D02*
X11690546Y-16964490D01*
X11716089Y-16978143D01*
X11738481Y-16996519D01*
X11756857Y-17018911D01*
X11770510Y-17044454D01*
X11778919Y-17072175D01*
X11782000Y-17103454D01*
X11782000Y-17494546D01*
X11778919Y-17525825D01*
X11770510Y-17553546D01*
X11756857Y-17579089D01*
X11738481Y-17601481D01*
X11716089Y-17619857D01*
X11690546Y-17633510D01*
X11662825Y-17641919D01*
X11631546Y-17645000D01*
X11190454Y-17645000D01*
X11159175Y-17641919D01*
X11131454Y-17633510D01*
X11105911Y-17619857D01*
X11083519Y-17601481D01*
X11065143Y-17579089D01*
X11051490Y-17553546D01*
X11043081Y-17525825D01*
X11040000Y-17494546D01*
X11040000Y-17103454D01*
X11043081Y-17072175D01*
X11051490Y-17044454D01*
X11065143Y-17018911D01*
X11083519Y-16996519D01*
X11105911Y-16978143D01*
X11131454Y-16964490D01*
X11159175Y-16956081D01*
X11190454Y-16953000D01*
X11631546Y-16953000D01*
X11662825Y-16956081D01*
X11662825Y-16956081D01*
G37*
G36*
X12723825Y-16955081D02*
X12751546Y-16963490D01*
X12777089Y-16977143D01*
X12799481Y-16995519D01*
X12817857Y-17017911D01*
X12831510Y-17043454D01*
X12839919Y-17071175D01*
X12843000Y-17102454D01*
X12843000Y-17493546D01*
X12839919Y-17524825D01*
X12831510Y-17552546D01*
X12817857Y-17578089D01*
X12799481Y-17600481D01*
X12777089Y-17618857D01*
X12751546Y-17632510D01*
X12723825Y-17640919D01*
X12692546Y-17644000D01*
X12251454Y-17644000D01*
X12220175Y-17640919D01*
X12192454Y-17632510D01*
X12166911Y-17618857D01*
X12144519Y-17600481D01*
X12126143Y-17578089D01*
X12112490Y-17552546D01*
X12104081Y-17524825D01*
X12101000Y-17493546D01*
X12101000Y-17102454D01*
X12104081Y-17071175D01*
X12112490Y-17043454D01*
X12126143Y-17017911D01*
X12144519Y-16995519D01*
X12166911Y-16977143D01*
X12192454Y-16963490D01*
X12220175Y-16955081D01*
X12251454Y-16952000D01*
X12692546Y-16952000D01*
X12723825Y-16955081D01*
X12723825Y-16955081D01*
G37*
G36*
X16781825Y-16577081D02*
X16809546Y-16585490D01*
X16835089Y-16599143D01*
X16857481Y-16617519D01*
X16875857Y-16639911D01*
X16889510Y-16665454D01*
X16897919Y-16693175D01*
X16901000Y-16724454D01*
X16901000Y-17115546D01*
X16897919Y-17146825D01*
X16889510Y-17174546D01*
X16875857Y-17200089D01*
X16857481Y-17222481D01*
X16835089Y-17240857D01*
X16809546Y-17254510D01*
X16781825Y-17262919D01*
X16750546Y-17266000D01*
X16309454Y-17266000D01*
X16278175Y-17262919D01*
X16250454Y-17254510D01*
X16224911Y-17240857D01*
X16202519Y-17222481D01*
X16184143Y-17200089D01*
X16170490Y-17174546D01*
X16162081Y-17146825D01*
X16159000Y-17115546D01*
X16159000Y-16724454D01*
X16162081Y-16693175D01*
X16170490Y-16665454D01*
X16184143Y-16639911D01*
X16202519Y-16617519D01*
X16224911Y-16599143D01*
X16250454Y-16585490D01*
X16278175Y-16577081D01*
X16309454Y-16574000D01*
X16750546Y-16574000D01*
X16781825Y-16577081D01*
X16781825Y-16577081D01*
G37*
G36*
X14492825Y-16366081D02*
X14520546Y-16374490D01*
X14546089Y-16388143D01*
X14568481Y-16406519D01*
X14586857Y-16428911D01*
X14600510Y-16454454D01*
X14608919Y-16482175D01*
X14612000Y-16513454D01*
X14612000Y-16904546D01*
X14608919Y-16935825D01*
X14600510Y-16963546D01*
X14586857Y-16989089D01*
X14568481Y-17011481D01*
X14546089Y-17029857D01*
X14520546Y-17043510D01*
X14492825Y-17051919D01*
X14461546Y-17055000D01*
X14020454Y-17055000D01*
X13989175Y-17051919D01*
X13961454Y-17043510D01*
X13935911Y-17029857D01*
X13913519Y-17011481D01*
X13895143Y-16989089D01*
X13881490Y-16963546D01*
X13873081Y-16935825D01*
X13870000Y-16904546D01*
X13870000Y-16513454D01*
X13873081Y-16482175D01*
X13881490Y-16454454D01*
X13895143Y-16428911D01*
X13913519Y-16406519D01*
X13935911Y-16388143D01*
X13961454Y-16374490D01*
X13989175Y-16366081D01*
X14020454Y-16363000D01*
X14461546Y-16363000D01*
X14492825Y-16366081D01*
X14492825Y-16366081D01*
G37*
G36*
X10451825Y-15992081D02*
X10479546Y-16000490D01*
X10505089Y-16014143D01*
X10527481Y-16032519D01*
X10545857Y-16054911D01*
X10559510Y-16080454D01*
X10567919Y-16108175D01*
X10571000Y-16139454D01*
X10571000Y-16530546D01*
X10567919Y-16561825D01*
X10559510Y-16589546D01*
X10545857Y-16615089D01*
X10527481Y-16637481D01*
X10505089Y-16655857D01*
X10479546Y-16669510D01*
X10451825Y-16677919D01*
X10420546Y-16681000D01*
X9979454Y-16681000D01*
X9948175Y-16677919D01*
X9920454Y-16669510D01*
X9894911Y-16655857D01*
X9872519Y-16637481D01*
X9854143Y-16615089D01*
X9840490Y-16589546D01*
X9832081Y-16561825D01*
X9829000Y-16530546D01*
X9829000Y-16139454D01*
X9832081Y-16108175D01*
X9840490Y-16080454D01*
X9854143Y-16054911D01*
X9872519Y-16032519D01*
X9894911Y-16014143D01*
X9920454Y-16000490D01*
X9948175Y-15992081D01*
X9979454Y-15989000D01*
X10420546Y-15989000D01*
X10451825Y-15992081D01*
X10451825Y-15992081D01*
G37*
G36*
X11662825Y-15986081D02*
X11690546Y-15994490D01*
X11716089Y-16008143D01*
X11738481Y-16026519D01*
X11756857Y-16048911D01*
X11770510Y-16074454D01*
X11778919Y-16102175D01*
X11782000Y-16133454D01*
X11782000Y-16524546D01*
X11778919Y-16555825D01*
X11770510Y-16583546D01*
X11756857Y-16609089D01*
X11738481Y-16631481D01*
X11716089Y-16649857D01*
X11690546Y-16663510D01*
X11662825Y-16671919D01*
X11631546Y-16675000D01*
X11190454Y-16675000D01*
X11159175Y-16671919D01*
X11131454Y-16663510D01*
X11105911Y-16649857D01*
X11083519Y-16631481D01*
X11065143Y-16609089D01*
X11051490Y-16583546D01*
X11043081Y-16555825D01*
X11040000Y-16524546D01*
X11040000Y-16133454D01*
X11043081Y-16102175D01*
X11051490Y-16074454D01*
X11065143Y-16048911D01*
X11083519Y-16026519D01*
X11105911Y-16008143D01*
X11131454Y-15994490D01*
X11159175Y-15986081D01*
X11190454Y-15983000D01*
X11631546Y-15983000D01*
X11662825Y-15986081D01*
X11662825Y-15986081D01*
G37*
G36*
X12723825Y-15985081D02*
X12751546Y-15993490D01*
X12777089Y-16007143D01*
X12799481Y-16025519D01*
X12817857Y-16047911D01*
X12831510Y-16073454D01*
X12839919Y-16101175D01*
X12843000Y-16132454D01*
X12843000Y-16523546D01*
X12839919Y-16554825D01*
X12831510Y-16582546D01*
X12817857Y-16608089D01*
X12799481Y-16630481D01*
X12777089Y-16648857D01*
X12751546Y-16662510D01*
X12723825Y-16670919D01*
X12692546Y-16674000D01*
X12251454Y-16674000D01*
X12220175Y-16670919D01*
X12192454Y-16662510D01*
X12166911Y-16648857D01*
X12144519Y-16630481D01*
X12126143Y-16608089D01*
X12112490Y-16582546D01*
X12104081Y-16554825D01*
X12101000Y-16523546D01*
X12101000Y-16132454D01*
X12104081Y-16101175D01*
X12112490Y-16073454D01*
X12126143Y-16047911D01*
X12144519Y-16025519D01*
X12166911Y-16007143D01*
X12192454Y-15993490D01*
X12220175Y-15985081D01*
X12251454Y-15982000D01*
X12692546Y-15982000D01*
X12723825Y-15985081D01*
X12723825Y-15985081D01*
G37*
G36*
X5707825Y-15698081D02*
X5735546Y-15706490D01*
X5761089Y-15720143D01*
X5783481Y-15738519D01*
X5801857Y-15760911D01*
X5815510Y-15786454D01*
X5823919Y-15814175D01*
X5827000Y-15845454D01*
X5827000Y-16286546D01*
X5823919Y-16317825D01*
X5815510Y-16345546D01*
X5801857Y-16371089D01*
X5783481Y-16393481D01*
X5761089Y-16411857D01*
X5735546Y-16425510D01*
X5707825Y-16433919D01*
X5676546Y-16437000D01*
X5285454Y-16437000D01*
X5254175Y-16433919D01*
X5226454Y-16425510D01*
X5200911Y-16411857D01*
X5178519Y-16393481D01*
X5160143Y-16371089D01*
X5146490Y-16345546D01*
X5138081Y-16317825D01*
X5135000Y-16286546D01*
X5135000Y-15845454D01*
X5138081Y-15814175D01*
X5146490Y-15786454D01*
X5160143Y-15760911D01*
X5178519Y-15738519D01*
X5200911Y-15720143D01*
X5226454Y-15706490D01*
X5254175Y-15698081D01*
X5285454Y-15695000D01*
X5676546Y-15695000D01*
X5707825Y-15698081D01*
X5707825Y-15698081D01*
G37*
G36*
X4737825Y-15698081D02*
X4765546Y-15706490D01*
X4791089Y-15720143D01*
X4813481Y-15738519D01*
X4831857Y-15760911D01*
X4845510Y-15786454D01*
X4853919Y-15814175D01*
X4857000Y-15845454D01*
X4857000Y-16286546D01*
X4853919Y-16317825D01*
X4845510Y-16345546D01*
X4831857Y-16371089D01*
X4813481Y-16393481D01*
X4791089Y-16411857D01*
X4765546Y-16425510D01*
X4737825Y-16433919D01*
X4706546Y-16437000D01*
X4315454Y-16437000D01*
X4284175Y-16433919D01*
X4256454Y-16425510D01*
X4230911Y-16411857D01*
X4208519Y-16393481D01*
X4190143Y-16371089D01*
X4176490Y-16345546D01*
X4168081Y-16317825D01*
X4165000Y-16286546D01*
X4165000Y-15845454D01*
X4168081Y-15814175D01*
X4176490Y-15786454D01*
X4190143Y-15760911D01*
X4208519Y-15738519D01*
X4230911Y-15720143D01*
X4256454Y-15706490D01*
X4284175Y-15698081D01*
X4315454Y-15695000D01*
X4706546Y-15695000D01*
X4737825Y-15698081D01*
X4737825Y-15698081D01*
G37*
G36*
X17400719Y-15030174D02*
X17400722Y-15030175D01*
X17400721Y-15030175D01*
X17500996Y-15071710D01*
X17591242Y-15132010D01*
X17667990Y-15208758D01*
X17728290Y-15299004D01*
X17746894Y-15343919D01*
X17769826Y-15399281D01*
X17791000Y-15505730D01*
X17791000Y-15614270D01*
X17769826Y-15720719D01*
X17769825Y-15720721D01*
X17728290Y-15820996D01*
X17667990Y-15911242D01*
X17591242Y-15987990D01*
X17500996Y-16048290D01*
X17458515Y-16065886D01*
X17400719Y-16089826D01*
X17294270Y-16111000D01*
X17185730Y-16111000D01*
X17079281Y-16089826D01*
X17021485Y-16065886D01*
X16979004Y-16048290D01*
X16888758Y-15987990D01*
X16812010Y-15911242D01*
X16751710Y-15820996D01*
X16710175Y-15720721D01*
X16710174Y-15720719D01*
X16689000Y-15614270D01*
X16689000Y-15505730D01*
X16710174Y-15399281D01*
X16733106Y-15343919D01*
X16751710Y-15299004D01*
X16812010Y-15208758D01*
X16888758Y-15132010D01*
X16979004Y-15071710D01*
X17079279Y-15030175D01*
X17079278Y-15030175D01*
X17079281Y-15030174D01*
X17185730Y-15009000D01*
X17294270Y-15009000D01*
X17400719Y-15030174D01*
X17400719Y-15030174D01*
G37*
G36*
X3255719Y-14655174D02*
X3285090Y-14667340D01*
X3355996Y-14696710D01*
X3446242Y-14757010D01*
X3522990Y-14833758D01*
X3583290Y-14924004D01*
X3583290Y-14924005D01*
X3624826Y-15024281D01*
X3646000Y-15130730D01*
X3646000Y-15239270D01*
X3624826Y-15345719D01*
X3624825Y-15345721D01*
X3583290Y-15445996D01*
X3522990Y-15536242D01*
X3446242Y-15612990D01*
X3355996Y-15673290D01*
X3303583Y-15695000D01*
X3255719Y-15714826D01*
X3149270Y-15736000D01*
X3040730Y-15736000D01*
X2934281Y-15714826D01*
X2886417Y-15695000D01*
X2834004Y-15673290D01*
X2743758Y-15612990D01*
X2667010Y-15536242D01*
X2606710Y-15445996D01*
X2565175Y-15345721D01*
X2565174Y-15345719D01*
X2544000Y-15239270D01*
X2544000Y-15130730D01*
X2565174Y-15024281D01*
X2606710Y-14924005D01*
X2606710Y-14924004D01*
X2667010Y-14833758D01*
X2743758Y-14757010D01*
X2834004Y-14696710D01*
X2904910Y-14667340D01*
X2934281Y-14655174D01*
X3040730Y-14634000D01*
X3149270Y-14634000D01*
X3255719Y-14655174D01*
X3255719Y-14655174D01*
G37*
G36*
X21505719Y-14405174D02*
X21535090Y-14417340D01*
X21605996Y-14446710D01*
X21696242Y-14507010D01*
X21772990Y-14583758D01*
X21833290Y-14674004D01*
X21842589Y-14696454D01*
X21874826Y-14774281D01*
X21896000Y-14880730D01*
X21896000Y-14989270D01*
X21874826Y-15095719D01*
X21874825Y-15095721D01*
X21833290Y-15195996D01*
X21772990Y-15286242D01*
X21696242Y-15362990D01*
X21605996Y-15423290D01*
X21535090Y-15452660D01*
X21505719Y-15464826D01*
X21399270Y-15486000D01*
X21290730Y-15486000D01*
X21184281Y-15464826D01*
X21154910Y-15452660D01*
X21084004Y-15423290D01*
X20993758Y-15362990D01*
X20917010Y-15286242D01*
X20856710Y-15195996D01*
X20815175Y-15095721D01*
X20815174Y-15095719D01*
X20794000Y-14989270D01*
X20794000Y-14880730D01*
X20815174Y-14774281D01*
X20847411Y-14696454D01*
X20856710Y-14674004D01*
X20917010Y-14583758D01*
X20993758Y-14507010D01*
X21084004Y-14446710D01*
X21154910Y-14417340D01*
X21184281Y-14405174D01*
X21290730Y-14384000D01*
X21399270Y-14384000D01*
X21505719Y-14405174D01*
X21505719Y-14405174D01*
G37*
G36*
X4727825Y-14608081D02*
X4755546Y-14616490D01*
X4781089Y-14630143D01*
X4803481Y-14648519D01*
X4821857Y-14670911D01*
X4835510Y-14696454D01*
X4843919Y-14724175D01*
X4847000Y-14755454D01*
X4847000Y-15196546D01*
X4843919Y-15227825D01*
X4835510Y-15255546D01*
X4821857Y-15281089D01*
X4803481Y-15303481D01*
X4781089Y-15321857D01*
X4755546Y-15335510D01*
X4727825Y-15343919D01*
X4696546Y-15347000D01*
X4305454Y-15347000D01*
X4274175Y-15343919D01*
X4246454Y-15335510D01*
X4220911Y-15321857D01*
X4198519Y-15303481D01*
X4180143Y-15281089D01*
X4166490Y-15255546D01*
X4158081Y-15227825D01*
X4155000Y-15196546D01*
X4155000Y-14755454D01*
X4158081Y-14724175D01*
X4166490Y-14696454D01*
X4180143Y-14670911D01*
X4198519Y-14648519D01*
X4220911Y-14630143D01*
X4246454Y-14616490D01*
X4274175Y-14608081D01*
X4305454Y-14605000D01*
X4696546Y-14605000D01*
X4727825Y-14608081D01*
X4727825Y-14608081D01*
G37*
G36*
X5697825Y-14608081D02*
X5725546Y-14616490D01*
X5751089Y-14630143D01*
X5773481Y-14648519D01*
X5791857Y-14670911D01*
X5805510Y-14696454D01*
X5813919Y-14724175D01*
X5817000Y-14755454D01*
X5817000Y-15196546D01*
X5813919Y-15227825D01*
X5805510Y-15255546D01*
X5791857Y-15281089D01*
X5773481Y-15303481D01*
X5751089Y-15321857D01*
X5725546Y-15335510D01*
X5697825Y-15343919D01*
X5666546Y-15347000D01*
X5275454Y-15347000D01*
X5244175Y-15343919D01*
X5216454Y-15335510D01*
X5190911Y-15321857D01*
X5168519Y-15303481D01*
X5150143Y-15281089D01*
X5136490Y-15255546D01*
X5128081Y-15227825D01*
X5125000Y-15196546D01*
X5125000Y-14755454D01*
X5128081Y-14724175D01*
X5136490Y-14696454D01*
X5150143Y-14670911D01*
X5168519Y-14648519D01*
X5190911Y-14630143D01*
X5216454Y-14616490D01*
X5244175Y-14608081D01*
X5275454Y-14605000D01*
X5666546Y-14605000D01*
X5697825Y-14608081D01*
X5697825Y-14608081D01*
G37*
G36*
X6861000Y-14671000D02*
X5959000Y-14671000D01*
X5959000Y-13969000D01*
X6861000Y-13969000D01*
X6861000Y-14671000D01*
X6861000Y-14671000D01*
G37*
G36*
X8158825Y-13927081D02*
X8186546Y-13935490D01*
X8212089Y-13949143D01*
X8234481Y-13967519D01*
X8252857Y-13989911D01*
X8266510Y-14015454D01*
X8274919Y-14043175D01*
X8278000Y-14074454D01*
X8278000Y-14465546D01*
X8274919Y-14496825D01*
X8266510Y-14524546D01*
X8252857Y-14550089D01*
X8234481Y-14572481D01*
X8212089Y-14590857D01*
X8186546Y-14604510D01*
X8158825Y-14612919D01*
X8127546Y-14616000D01*
X7686454Y-14616000D01*
X7655175Y-14612919D01*
X7627454Y-14604510D01*
X7601911Y-14590857D01*
X7579519Y-14572481D01*
X7561143Y-14550089D01*
X7547490Y-14524546D01*
X7539081Y-14496825D01*
X7536000Y-14465546D01*
X7536000Y-14074454D01*
X7539081Y-14043175D01*
X7547490Y-14015454D01*
X7561143Y-13989911D01*
X7579519Y-13967519D01*
X7601911Y-13949143D01*
X7627454Y-13935490D01*
X7655175Y-13927081D01*
X7686454Y-13924000D01*
X8127546Y-13924000D01*
X8158825Y-13927081D01*
X8158825Y-13927081D01*
G37*
G36*
X19051825Y-13762081D02*
X19079546Y-13770490D01*
X19105089Y-13784143D01*
X19127481Y-13802519D01*
X19145857Y-13824911D01*
X19159510Y-13850454D01*
X19167919Y-13878175D01*
X19171000Y-13909454D01*
X19171000Y-14300546D01*
X19167919Y-14331825D01*
X19159510Y-14359546D01*
X19145857Y-14385089D01*
X19127481Y-14407481D01*
X19105089Y-14425857D01*
X19079546Y-14439510D01*
X19051825Y-14447919D01*
X19020546Y-14451000D01*
X18579454Y-14451000D01*
X18548175Y-14447919D01*
X18520454Y-14439510D01*
X18494911Y-14425857D01*
X18472519Y-14407481D01*
X18454143Y-14385089D01*
X18440490Y-14359546D01*
X18432081Y-14331825D01*
X18429000Y-14300546D01*
X18429000Y-13909454D01*
X18432081Y-13878175D01*
X18440490Y-13850454D01*
X18454143Y-13824911D01*
X18472519Y-13802519D01*
X18494911Y-13784143D01*
X18520454Y-13770490D01*
X18548175Y-13762081D01*
X18579454Y-13759000D01*
X19020546Y-13759000D01*
X19051825Y-13762081D01*
X19051825Y-13762081D01*
G37*
G36*
X18051825Y-13762081D02*
X18079546Y-13770490D01*
X18105089Y-13784143D01*
X18127481Y-13802519D01*
X18145857Y-13824911D01*
X18159510Y-13850454D01*
X18167919Y-13878175D01*
X18171000Y-13909454D01*
X18171000Y-14300546D01*
X18167919Y-14331825D01*
X18159510Y-14359546D01*
X18145857Y-14385089D01*
X18127481Y-14407481D01*
X18105089Y-14425857D01*
X18079546Y-14439510D01*
X18051825Y-14447919D01*
X18020546Y-14451000D01*
X17579454Y-14451000D01*
X17548175Y-14447919D01*
X17520454Y-14439510D01*
X17494911Y-14425857D01*
X17472519Y-14407481D01*
X17454143Y-14385089D01*
X17440490Y-14359546D01*
X17432081Y-14331825D01*
X17429000Y-14300546D01*
X17429000Y-13909454D01*
X17432081Y-13878175D01*
X17440490Y-13850454D01*
X17454143Y-13824911D01*
X17472519Y-13802519D01*
X17494911Y-13784143D01*
X17520454Y-13770490D01*
X17548175Y-13762081D01*
X17579454Y-13759000D01*
X18020546Y-13759000D01*
X18051825Y-13762081D01*
X18051825Y-13762081D01*
G37*
G36*
X13021000Y-14431000D02*
X12619000Y-14431000D01*
X12619000Y-14029000D01*
X13021000Y-14029000D01*
X13021000Y-14431000D01*
X13021000Y-14431000D01*
G37*
G36*
X15621000Y-14431000D02*
X15219000Y-14431000D01*
X15219000Y-14029000D01*
X15621000Y-14029000D01*
X15621000Y-14431000D01*
X15621000Y-14431000D01*
G37*
G36*
X14971000Y-14431000D02*
X14569000Y-14431000D01*
X14569000Y-14029000D01*
X14971000Y-14029000D01*
X14971000Y-14431000D01*
X14971000Y-14431000D01*
G37*
G36*
X14321000Y-14431000D02*
X13919000Y-14431000D01*
X13919000Y-14029000D01*
X14321000Y-14029000D01*
X14321000Y-14431000D01*
X14321000Y-14431000D01*
G37*
G36*
X13671000Y-14431000D02*
X13269000Y-14431000D01*
X13269000Y-14029000D01*
X13671000Y-14029000D01*
X13671000Y-14431000D01*
X13671000Y-14431000D01*
G37*
G36*
X12371000Y-14431000D02*
X11969000Y-14431000D01*
X11969000Y-14029000D01*
X12371000Y-14029000D01*
X12371000Y-14431000D01*
X12371000Y-14431000D01*
G37*
G36*
X11721000Y-14431000D02*
X11319000Y-14431000D01*
X11319000Y-14029000D01*
X11721000Y-14029000D01*
X11721000Y-14431000D01*
X11721000Y-14431000D01*
G37*
G36*
X11071000Y-14431000D02*
X10669000Y-14431000D01*
X10669000Y-14029000D01*
X11071000Y-14029000D01*
X11071000Y-14431000D01*
X11071000Y-14431000D01*
G37*
G36*
X10421000Y-14431000D02*
X10019000Y-14431000D01*
X10019000Y-14029000D01*
X10421000Y-14029000D01*
X10421000Y-14431000D01*
X10421000Y-14431000D01*
G37*
G36*
X9771000Y-14431000D02*
X9369000Y-14431000D01*
X9369000Y-14029000D01*
X9771000Y-14029000D01*
X9771000Y-14431000D01*
X9771000Y-14431000D01*
G37*
G36*
X21505719Y-12905174D02*
X21505722Y-12905175D01*
X21505721Y-12905175D01*
X21605996Y-12946710D01*
X21696242Y-13007010D01*
X21772990Y-13083758D01*
X21833290Y-13174004D01*
X21833290Y-13174005D01*
X21874826Y-13274281D01*
X21896000Y-13380730D01*
X21896000Y-13489270D01*
X21874826Y-13595719D01*
X21874825Y-13595721D01*
X21833290Y-13695996D01*
X21772990Y-13786242D01*
X21696242Y-13862990D01*
X21605996Y-13923290D01*
X21543581Y-13949143D01*
X21505719Y-13964826D01*
X21399270Y-13986000D01*
X21290730Y-13986000D01*
X21184281Y-13964826D01*
X21146419Y-13949143D01*
X21084004Y-13923290D01*
X20993758Y-13862990D01*
X20917010Y-13786242D01*
X20856710Y-13695996D01*
X20815175Y-13595721D01*
X20815174Y-13595719D01*
X20794000Y-13489270D01*
X20794000Y-13380730D01*
X20815174Y-13274281D01*
X20856710Y-13174005D01*
X20856710Y-13174004D01*
X20917010Y-13083758D01*
X20993758Y-13007010D01*
X21084004Y-12946710D01*
X21184279Y-12905175D01*
X21184278Y-12905175D01*
X21184281Y-12905174D01*
X21290730Y-12884000D01*
X21399270Y-12884000D01*
X21505719Y-12905174D01*
X21505719Y-12905174D01*
G37*
G36*
X14321000Y-13781000D02*
X13919000Y-13781000D01*
X13919000Y-13379000D01*
X14321000Y-13379000D01*
X14321000Y-13781000D01*
X14321000Y-13781000D01*
G37*
G36*
X11721000Y-13781000D02*
X11319000Y-13781000D01*
X11319000Y-13379000D01*
X11721000Y-13379000D01*
X11721000Y-13781000D01*
X11721000Y-13781000D01*
G37*
G36*
X14971000Y-13781000D02*
X14569000Y-13781000D01*
X14569000Y-13379000D01*
X14971000Y-13379000D01*
X14971000Y-13781000D01*
X14971000Y-13781000D01*
G37*
G36*
X15621000Y-13781000D02*
X15219000Y-13781000D01*
X15219000Y-13379000D01*
X15621000Y-13379000D01*
X15621000Y-13781000D01*
X15621000Y-13781000D01*
G37*
G36*
X12371000Y-13781000D02*
X11969000Y-13781000D01*
X11969000Y-13379000D01*
X12371000Y-13379000D01*
X12371000Y-13781000D01*
X12371000Y-13781000D01*
G37*
G36*
X9771000Y-13781000D02*
X9369000Y-13781000D01*
X9369000Y-13379000D01*
X9771000Y-13379000D01*
X9771000Y-13781000D01*
X9771000Y-13781000D01*
G37*
G36*
X13671000Y-13781000D02*
X13269000Y-13781000D01*
X13269000Y-13379000D01*
X13671000Y-13379000D01*
X13671000Y-13781000D01*
X13671000Y-13781000D01*
G37*
G36*
X11071000Y-13781000D02*
X10669000Y-13781000D01*
X10669000Y-13379000D01*
X11071000Y-13379000D01*
X11071000Y-13781000D01*
X11071000Y-13781000D01*
G37*
G36*
X13021000Y-13781000D02*
X12619000Y-13781000D01*
X12619000Y-13379000D01*
X13021000Y-13379000D01*
X13021000Y-13781000D01*
X13021000Y-13781000D01*
G37*
G36*
X10421000Y-13781000D02*
X10019000Y-13781000D01*
X10019000Y-13379000D01*
X10421000Y-13379000D01*
X10421000Y-13781000D01*
X10421000Y-13781000D01*
G37*
G36*
X8158825Y-12957081D02*
X8186546Y-12965490D01*
X8212089Y-12979143D01*
X8234481Y-12997519D01*
X8252857Y-13019911D01*
X8266510Y-13045454D01*
X8274919Y-13073175D01*
X8278000Y-13104454D01*
X8278000Y-13495546D01*
X8274919Y-13526825D01*
X8266510Y-13554546D01*
X8252857Y-13580089D01*
X8234481Y-13602481D01*
X8212089Y-13620857D01*
X8186546Y-13634510D01*
X8158825Y-13642919D01*
X8127546Y-13646000D01*
X7686454Y-13646000D01*
X7655175Y-13642919D01*
X7627454Y-13634510D01*
X7601911Y-13620857D01*
X7579519Y-13602481D01*
X7561143Y-13580089D01*
X7547490Y-13554546D01*
X7539081Y-13526825D01*
X7536000Y-13495546D01*
X7536000Y-13104454D01*
X7539081Y-13073175D01*
X7547490Y-13045454D01*
X7561143Y-13019911D01*
X7579519Y-12997519D01*
X7601911Y-12979143D01*
X7627454Y-12965490D01*
X7655175Y-12957081D01*
X7686454Y-12954000D01*
X8127546Y-12954000D01*
X8158825Y-12957081D01*
X8158825Y-12957081D01*
G37*
G36*
X18051825Y-12792081D02*
X18079546Y-12800490D01*
X18105089Y-12814143D01*
X18127481Y-12832519D01*
X18145857Y-12854911D01*
X18159510Y-12880454D01*
X18167919Y-12908175D01*
X18171000Y-12939454D01*
X18171000Y-13330546D01*
X18167919Y-13361825D01*
X18159510Y-13389546D01*
X18145857Y-13415089D01*
X18127481Y-13437481D01*
X18105089Y-13455857D01*
X18079546Y-13469510D01*
X18051825Y-13477919D01*
X18020546Y-13481000D01*
X17579454Y-13481000D01*
X17548175Y-13477919D01*
X17520454Y-13469510D01*
X17494911Y-13455857D01*
X17472519Y-13437481D01*
X17454143Y-13415089D01*
X17440490Y-13389546D01*
X17432081Y-13361825D01*
X17429000Y-13330546D01*
X17429000Y-12939454D01*
X17432081Y-12908175D01*
X17440490Y-12880454D01*
X17454143Y-12854911D01*
X17472519Y-12832519D01*
X17494911Y-12814143D01*
X17520454Y-12800490D01*
X17548175Y-12792081D01*
X17579454Y-12789000D01*
X18020546Y-12789000D01*
X18051825Y-12792081D01*
X18051825Y-12792081D01*
G37*
G36*
X19051825Y-12792081D02*
X19079546Y-12800490D01*
X19105089Y-12814143D01*
X19127481Y-12832519D01*
X19145857Y-12854911D01*
X19159510Y-12880454D01*
X19167919Y-12908175D01*
X19171000Y-12939454D01*
X19171000Y-13330546D01*
X19167919Y-13361825D01*
X19159510Y-13389546D01*
X19145857Y-13415089D01*
X19127481Y-13437481D01*
X19105089Y-13455857D01*
X19079546Y-13469510D01*
X19051825Y-13477919D01*
X19020546Y-13481000D01*
X18579454Y-13481000D01*
X18548175Y-13477919D01*
X18520454Y-13469510D01*
X18494911Y-13455857D01*
X18472519Y-13437481D01*
X18454143Y-13415089D01*
X18440490Y-13389546D01*
X18432081Y-13361825D01*
X18429000Y-13330546D01*
X18429000Y-12939454D01*
X18432081Y-12908175D01*
X18440490Y-12880454D01*
X18454143Y-12854911D01*
X18472519Y-12832519D01*
X18494911Y-12814143D01*
X18520454Y-12800490D01*
X18548175Y-12792081D01*
X18579454Y-12789000D01*
X19020546Y-12789000D01*
X19051825Y-12792081D01*
X19051825Y-12792081D01*
G37*
G36*
X4421825Y-12702081D02*
X4449546Y-12710490D01*
X4475089Y-12724143D01*
X4497481Y-12742519D01*
X4515857Y-12764911D01*
X4529510Y-12790454D01*
X4537919Y-12818175D01*
X4541000Y-12849454D01*
X4541000Y-13290546D01*
X4537919Y-13321825D01*
X4529510Y-13349546D01*
X4515857Y-13375089D01*
X4497481Y-13397481D01*
X4475089Y-13415857D01*
X4449546Y-13429510D01*
X4421825Y-13437919D01*
X4390546Y-13441000D01*
X3999454Y-13441000D01*
X3968175Y-13437919D01*
X3940454Y-13429510D01*
X3914911Y-13415857D01*
X3892519Y-13397481D01*
X3874143Y-13375089D01*
X3860490Y-13349546D01*
X3852081Y-13321825D01*
X3849000Y-13290546D01*
X3849000Y-12849454D01*
X3852081Y-12818175D01*
X3860490Y-12790454D01*
X3874143Y-12764911D01*
X3892519Y-12742519D01*
X3914911Y-12724143D01*
X3940454Y-12710490D01*
X3968175Y-12702081D01*
X3999454Y-12699000D01*
X4390546Y-12699000D01*
X4421825Y-12702081D01*
X4421825Y-12702081D01*
G37*
G36*
X3451825Y-12702081D02*
X3479546Y-12710490D01*
X3505089Y-12724143D01*
X3527481Y-12742519D01*
X3545857Y-12764911D01*
X3559510Y-12790454D01*
X3567919Y-12818175D01*
X3571000Y-12849454D01*
X3571000Y-13290546D01*
X3567919Y-13321825D01*
X3559510Y-13349546D01*
X3545857Y-13375089D01*
X3527481Y-13397481D01*
X3505089Y-13415857D01*
X3479546Y-13429510D01*
X3451825Y-13437919D01*
X3420546Y-13441000D01*
X3029454Y-13441000D01*
X2998175Y-13437919D01*
X2970454Y-13429510D01*
X2944911Y-13415857D01*
X2922519Y-13397481D01*
X2904143Y-13375089D01*
X2890490Y-13349546D01*
X2882081Y-13321825D01*
X2879000Y-13290546D01*
X2879000Y-12849454D01*
X2882081Y-12818175D01*
X2890490Y-12790454D01*
X2904143Y-12764911D01*
X2922519Y-12742519D01*
X2944911Y-12724143D01*
X2970454Y-12710490D01*
X2998175Y-12702081D01*
X3029454Y-12699000D01*
X3420546Y-12699000D01*
X3451825Y-12702081D01*
X3451825Y-12702081D01*
G37*
G36*
X6861000Y-13271000D02*
X5959000Y-13271000D01*
X5959000Y-12569000D01*
X6861000Y-12569000D01*
X6861000Y-13271000D01*
X6861000Y-13271000D01*
G37*
G36*
X12371000Y-13131000D02*
X11969000Y-13131000D01*
X11969000Y-12729000D01*
X12371000Y-12729000D01*
X12371000Y-13131000D01*
X12371000Y-13131000D01*
G37*
G36*
X15621000Y-13131000D02*
X15219000Y-13131000D01*
X15219000Y-12729000D01*
X15621000Y-12729000D01*
X15621000Y-13131000D01*
X15621000Y-13131000D01*
G37*
G36*
X13021000Y-13131000D02*
X12619000Y-13131000D01*
X12619000Y-12729000D01*
X13021000Y-12729000D01*
X13021000Y-13131000D01*
X13021000Y-13131000D01*
G37*
G36*
X10421000Y-13131000D02*
X10019000Y-13131000D01*
X10019000Y-12729000D01*
X10421000Y-12729000D01*
X10421000Y-13131000D01*
X10421000Y-13131000D01*
G37*
G36*
X14971000Y-13131000D02*
X14569000Y-13131000D01*
X14569000Y-12729000D01*
X14971000Y-12729000D01*
X14971000Y-13131000D01*
X14971000Y-13131000D01*
G37*
G36*
X9771000Y-13131000D02*
X9369000Y-13131000D01*
X9369000Y-12729000D01*
X9771000Y-12729000D01*
X9771000Y-13131000D01*
X9771000Y-13131000D01*
G37*
G36*
X11721000Y-13131000D02*
X11319000Y-13131000D01*
X11319000Y-12729000D01*
X11721000Y-12729000D01*
X11721000Y-13131000D01*
X11721000Y-13131000D01*
G37*
G36*
X14321000Y-13131000D02*
X13919000Y-13131000D01*
X13919000Y-12729000D01*
X14321000Y-12729000D01*
X14321000Y-13131000D01*
X14321000Y-13131000D01*
G37*
G36*
X11071000Y-13131000D02*
X10669000Y-13131000D01*
X10669000Y-12729000D01*
X11071000Y-12729000D01*
X11071000Y-13131000D01*
X11071000Y-13131000D01*
G37*
G36*
X13671000Y-13131000D02*
X13269000Y-13131000D01*
X13269000Y-12729000D01*
X13671000Y-12729000D01*
X13671000Y-13131000D01*
X13671000Y-13131000D01*
G37*
G36*
X7623825Y-11883081D02*
X7651546Y-11891490D01*
X7677089Y-11905143D01*
X7699481Y-11923519D01*
X7717857Y-11945911D01*
X7731510Y-11971454D01*
X7739919Y-11999175D01*
X7743000Y-12030454D01*
X7743000Y-12421546D01*
X7739919Y-12452825D01*
X7731510Y-12480546D01*
X7717857Y-12506089D01*
X7699481Y-12528481D01*
X7677089Y-12546857D01*
X7651546Y-12560510D01*
X7623825Y-12568919D01*
X7592546Y-12572000D01*
X7151454Y-12572000D01*
X7120175Y-12568919D01*
X7092454Y-12560510D01*
X7066911Y-12546857D01*
X7044519Y-12528481D01*
X7026143Y-12506089D01*
X7012490Y-12480546D01*
X7004081Y-12452825D01*
X7001000Y-12421546D01*
X7001000Y-12030454D01*
X7004081Y-11999175D01*
X7012490Y-11971454D01*
X7026143Y-11945911D01*
X7044519Y-11923519D01*
X7066911Y-11905143D01*
X7092454Y-11891490D01*
X7120175Y-11883081D01*
X7151454Y-11880000D01*
X7592546Y-11880000D01*
X7623825Y-11883081D01*
X7623825Y-11883081D01*
G37*
G36*
X11071000Y-12481000D02*
X10669000Y-12481000D01*
X10669000Y-12079000D01*
X11071000Y-12079000D01*
X11071000Y-12481000D01*
X11071000Y-12481000D01*
G37*
G36*
X10421000Y-12481000D02*
X10019000Y-12481000D01*
X10019000Y-12079000D01*
X10421000Y-12079000D01*
X10421000Y-12481000D01*
X10421000Y-12481000D01*
G37*
G36*
X15621000Y-12481000D02*
X15219000Y-12481000D01*
X15219000Y-12079000D01*
X15621000Y-12079000D01*
X15621000Y-12481000D01*
X15621000Y-12481000D01*
G37*
G36*
X14321000Y-12481000D02*
X13919000Y-12481000D01*
X13919000Y-12079000D01*
X14321000Y-12079000D01*
X14321000Y-12481000D01*
X14321000Y-12481000D01*
G37*
G36*
X9771000Y-12481000D02*
X9369000Y-12481000D01*
X9369000Y-12079000D01*
X9771000Y-12079000D01*
X9771000Y-12481000D01*
X9771000Y-12481000D01*
G37*
G36*
X14971000Y-12481000D02*
X14569000Y-12481000D01*
X14569000Y-12079000D01*
X14971000Y-12079000D01*
X14971000Y-12481000D01*
X14971000Y-12481000D01*
G37*
G36*
X18069825Y-11625081D02*
X18097546Y-11633490D01*
X18123089Y-11647143D01*
X18145481Y-11665519D01*
X18163857Y-11687911D01*
X18177510Y-11713454D01*
X18185919Y-11741175D01*
X18189000Y-11772454D01*
X18189000Y-12163546D01*
X18185919Y-12194825D01*
X18177510Y-12222546D01*
X18163857Y-12248089D01*
X18145481Y-12270481D01*
X18123089Y-12288857D01*
X18097546Y-12302510D01*
X18069825Y-12310919D01*
X18038546Y-12314000D01*
X17597454Y-12314000D01*
X17566175Y-12310919D01*
X17538454Y-12302510D01*
X17512911Y-12288857D01*
X17490519Y-12270481D01*
X17472143Y-12248089D01*
X17458490Y-12222546D01*
X17450081Y-12194825D01*
X17447000Y-12163546D01*
X17447000Y-11772454D01*
X17450081Y-11741175D01*
X17458490Y-11713454D01*
X17472143Y-11687911D01*
X17490519Y-11665519D01*
X17512911Y-11647143D01*
X17538454Y-11633490D01*
X17566175Y-11625081D01*
X17597454Y-11622000D01*
X18038546Y-11622000D01*
X18069825Y-11625081D01*
X18069825Y-11625081D01*
G37*
G36*
X14971000Y-11831000D02*
X14569000Y-11831000D01*
X14569000Y-11429000D01*
X14971000Y-11429000D01*
X14971000Y-11831000D01*
X14971000Y-11831000D01*
G37*
G36*
X15621000Y-11831000D02*
X15219000Y-11831000D01*
X15219000Y-11429000D01*
X15621000Y-11429000D01*
X15621000Y-11831000D01*
X15621000Y-11831000D01*
G37*
G36*
X10421000Y-11831000D02*
X10019000Y-11831000D01*
X10019000Y-11429000D01*
X10421000Y-11429000D01*
X10421000Y-11831000D01*
X10421000Y-11831000D01*
G37*
G36*
X9771000Y-11831000D02*
X9369000Y-11831000D01*
X9369000Y-11429000D01*
X9771000Y-11429000D01*
X9771000Y-11831000D01*
X9771000Y-11831000D01*
G37*
G36*
X5588825Y-10976081D02*
X5616546Y-10984490D01*
X5642089Y-10998143D01*
X5664481Y-11016519D01*
X5682857Y-11038911D01*
X5696510Y-11064454D01*
X5704919Y-11092175D01*
X5708000Y-11123454D01*
X5708000Y-11564546D01*
X5704919Y-11595825D01*
X5696510Y-11623546D01*
X5682857Y-11649089D01*
X5664481Y-11671481D01*
X5642089Y-11689857D01*
X5616546Y-11703510D01*
X5588825Y-11711919D01*
X5557546Y-11715000D01*
X5166454Y-11715000D01*
X5135175Y-11711919D01*
X5107454Y-11703510D01*
X5081911Y-11689857D01*
X5059519Y-11671481D01*
X5041143Y-11649089D01*
X5027490Y-11623546D01*
X5019081Y-11595825D01*
X5016000Y-11564546D01*
X5016000Y-11123454D01*
X5019081Y-11092175D01*
X5027490Y-11064454D01*
X5041143Y-11038911D01*
X5059519Y-11016519D01*
X5081911Y-10998143D01*
X5107454Y-10984490D01*
X5135175Y-10976081D01*
X5166454Y-10973000D01*
X5557546Y-10973000D01*
X5588825Y-10976081D01*
X5588825Y-10976081D01*
G37*
G36*
X6558825Y-10976081D02*
X6586546Y-10984490D01*
X6612089Y-10998143D01*
X6634481Y-11016519D01*
X6652857Y-11038911D01*
X6666510Y-11064454D01*
X6674919Y-11092175D01*
X6678000Y-11123454D01*
X6678000Y-11564546D01*
X6674919Y-11595825D01*
X6666510Y-11623546D01*
X6652857Y-11649089D01*
X6634481Y-11671481D01*
X6612089Y-11689857D01*
X6586546Y-11703510D01*
X6558825Y-11711919D01*
X6527546Y-11715000D01*
X6136454Y-11715000D01*
X6105175Y-11711919D01*
X6077454Y-11703510D01*
X6051911Y-11689857D01*
X6029519Y-11671481D01*
X6011143Y-11649089D01*
X5997490Y-11623546D01*
X5989081Y-11595825D01*
X5986000Y-11564546D01*
X5986000Y-11123454D01*
X5989081Y-11092175D01*
X5997490Y-11064454D01*
X6011143Y-11038911D01*
X6029519Y-11016519D01*
X6051911Y-10998143D01*
X6077454Y-10984490D01*
X6105175Y-10976081D01*
X6136454Y-10973000D01*
X6527546Y-10973000D01*
X6558825Y-10976081D01*
X6558825Y-10976081D01*
G37*
G36*
X22456825Y-10887081D02*
X22484546Y-10895490D01*
X22510089Y-10909143D01*
X22532481Y-10927519D01*
X22550857Y-10949911D01*
X22564510Y-10975454D01*
X22572919Y-11003175D01*
X22576000Y-11034454D01*
X22576000Y-11475546D01*
X22572919Y-11506825D01*
X22564510Y-11534546D01*
X22550857Y-11560089D01*
X22532481Y-11582481D01*
X22510089Y-11600857D01*
X22484546Y-11614510D01*
X22456825Y-11622919D01*
X22425546Y-11626000D01*
X22034454Y-11626000D01*
X22003175Y-11622919D01*
X21975454Y-11614510D01*
X21949911Y-11600857D01*
X21927519Y-11582481D01*
X21909143Y-11560089D01*
X21895490Y-11534546D01*
X21887081Y-11506825D01*
X21884000Y-11475546D01*
X21884000Y-11034454D01*
X21887081Y-11003175D01*
X21895490Y-10975454D01*
X21909143Y-10949911D01*
X21927519Y-10927519D01*
X21949911Y-10909143D01*
X21975454Y-10895490D01*
X22003175Y-10887081D01*
X22034454Y-10884000D01*
X22425546Y-10884000D01*
X22456825Y-10887081D01*
X22456825Y-10887081D01*
G37*
G36*
X21486825Y-10887081D02*
X21514546Y-10895490D01*
X21540089Y-10909143D01*
X21562481Y-10927519D01*
X21580857Y-10949911D01*
X21594510Y-10975454D01*
X21602919Y-11003175D01*
X21606000Y-11034454D01*
X21606000Y-11475546D01*
X21602919Y-11506825D01*
X21594510Y-11534546D01*
X21580857Y-11560089D01*
X21562481Y-11582481D01*
X21540089Y-11600857D01*
X21514546Y-11614510D01*
X21486825Y-11622919D01*
X21455546Y-11626000D01*
X21064454Y-11626000D01*
X21033175Y-11622919D01*
X21005454Y-11614510D01*
X20979911Y-11600857D01*
X20957519Y-11582481D01*
X20939143Y-11560089D01*
X20925490Y-11534546D01*
X20917081Y-11506825D01*
X20914000Y-11475546D01*
X20914000Y-11034454D01*
X20917081Y-11003175D01*
X20925490Y-10975454D01*
X20939143Y-10949911D01*
X20957519Y-10927519D01*
X20979911Y-10909143D01*
X21005454Y-10895490D01*
X21033175Y-10887081D01*
X21064454Y-10884000D01*
X21455546Y-10884000D01*
X21486825Y-10887081D01*
X21486825Y-10887081D01*
G37*
G36*
X7623825Y-10913081D02*
X7651546Y-10921490D01*
X7677089Y-10935143D01*
X7699481Y-10953519D01*
X7717857Y-10975911D01*
X7731510Y-11001454D01*
X7739919Y-11029175D01*
X7743000Y-11060454D01*
X7743000Y-11451546D01*
X7739919Y-11482825D01*
X7731510Y-11510546D01*
X7717857Y-11536089D01*
X7699481Y-11558481D01*
X7677089Y-11576857D01*
X7651546Y-11590510D01*
X7623825Y-11598919D01*
X7592546Y-11602000D01*
X7151454Y-11602000D01*
X7120175Y-11598919D01*
X7092454Y-11590510D01*
X7066911Y-11576857D01*
X7044519Y-11558481D01*
X7026143Y-11536089D01*
X7012490Y-11510546D01*
X7004081Y-11482825D01*
X7001000Y-11451546D01*
X7001000Y-11060454D01*
X7004081Y-11029175D01*
X7012490Y-11001454D01*
X7026143Y-10975911D01*
X7044519Y-10953519D01*
X7066911Y-10935143D01*
X7092454Y-10921490D01*
X7120175Y-10913081D01*
X7151454Y-10910000D01*
X7592546Y-10910000D01*
X7623825Y-10913081D01*
X7623825Y-10913081D01*
G37*
G36*
X14346000Y-11456000D02*
X10644000Y-11456000D01*
X10644000Y-8554000D01*
X14346000Y-8554000D01*
X14346000Y-11456000D01*
X14346000Y-11456000D01*
G37*
G36*
X18069825Y-10655081D02*
X18097546Y-10663490D01*
X18123089Y-10677143D01*
X18145481Y-10695519D01*
X18163857Y-10717911D01*
X18177510Y-10743454D01*
X18185919Y-10771175D01*
X18189000Y-10802454D01*
X18189000Y-11193546D01*
X18185919Y-11224825D01*
X18177510Y-11252546D01*
X18163857Y-11278089D01*
X18145481Y-11300481D01*
X18123089Y-11318857D01*
X18097546Y-11332510D01*
X18069825Y-11340919D01*
X18038546Y-11344000D01*
X17597454Y-11344000D01*
X17566175Y-11340919D01*
X17538454Y-11332510D01*
X17512911Y-11318857D01*
X17490519Y-11300481D01*
X17472143Y-11278089D01*
X17458490Y-11252546D01*
X17450081Y-11224825D01*
X17447000Y-11193546D01*
X17447000Y-10802454D01*
X17450081Y-10771175D01*
X17458490Y-10743454D01*
X17472143Y-10717911D01*
X17490519Y-10695519D01*
X17512911Y-10677143D01*
X17538454Y-10663490D01*
X17566175Y-10655081D01*
X17597454Y-10652000D01*
X18038546Y-10652000D01*
X18069825Y-10655081D01*
X18069825Y-10655081D01*
G37*
G36*
X9771000Y-11181000D02*
X9369000Y-11181000D01*
X9369000Y-10779000D01*
X9771000Y-10779000D01*
X9771000Y-11181000D01*
X9771000Y-11181000D01*
G37*
G36*
X15621000Y-11181000D02*
X15219000Y-11181000D01*
X15219000Y-10779000D01*
X15621000Y-10779000D01*
X15621000Y-11181000D01*
X15621000Y-11181000D01*
G37*
G36*
X10421000Y-11181000D02*
X10019000Y-11181000D01*
X10019000Y-10779000D01*
X10421000Y-10779000D01*
X10421000Y-11181000D01*
X10421000Y-11181000D01*
G37*
G36*
X14971000Y-11181000D02*
X14569000Y-11181000D01*
X14569000Y-10779000D01*
X14971000Y-10779000D01*
X14971000Y-11181000D01*
X14971000Y-11181000D01*
G37*
G36*
X6558825Y-9966081D02*
X6586546Y-9974490D01*
X6612089Y-9988143D01*
X6634481Y-10006519D01*
X6652857Y-10028911D01*
X6666510Y-10054454D01*
X6674919Y-10082175D01*
X6678000Y-10113454D01*
X6678000Y-10554546D01*
X6674919Y-10585825D01*
X6666510Y-10613546D01*
X6652857Y-10639089D01*
X6634481Y-10661481D01*
X6612089Y-10679857D01*
X6586546Y-10693510D01*
X6558825Y-10701919D01*
X6527546Y-10705000D01*
X6136454Y-10705000D01*
X6105175Y-10701919D01*
X6077454Y-10693510D01*
X6051911Y-10679857D01*
X6029519Y-10661481D01*
X6011143Y-10639089D01*
X5997490Y-10613546D01*
X5989081Y-10585825D01*
X5986000Y-10554546D01*
X5986000Y-10113454D01*
X5989081Y-10082175D01*
X5997490Y-10054454D01*
X6011143Y-10028911D01*
X6029519Y-10006519D01*
X6051911Y-9988143D01*
X6077454Y-9974490D01*
X6105175Y-9966081D01*
X6136454Y-9963000D01*
X6527546Y-9963000D01*
X6558825Y-9966081D01*
X6558825Y-9966081D01*
G37*
G36*
X5588825Y-9966081D02*
X5616546Y-9974490D01*
X5642089Y-9988143D01*
X5664481Y-10006519D01*
X5682857Y-10028911D01*
X5696510Y-10054454D01*
X5704919Y-10082175D01*
X5708000Y-10113454D01*
X5708000Y-10554546D01*
X5704919Y-10585825D01*
X5696510Y-10613546D01*
X5682857Y-10639089D01*
X5664481Y-10661481D01*
X5642089Y-10679857D01*
X5616546Y-10693510D01*
X5588825Y-10701919D01*
X5557546Y-10705000D01*
X5166454Y-10705000D01*
X5135175Y-10701919D01*
X5107454Y-10693510D01*
X5081911Y-10679857D01*
X5059519Y-10661481D01*
X5041143Y-10639089D01*
X5027490Y-10613546D01*
X5019081Y-10585825D01*
X5016000Y-10554546D01*
X5016000Y-10113454D01*
X5019081Y-10082175D01*
X5027490Y-10054454D01*
X5041143Y-10028911D01*
X5059519Y-10006519D01*
X5081911Y-9988143D01*
X5107454Y-9974490D01*
X5135175Y-9966081D01*
X5166454Y-9963000D01*
X5557546Y-9963000D01*
X5588825Y-9966081D01*
X5588825Y-9966081D01*
G37*
G36*
X22456825Y-9887081D02*
X22484546Y-9895490D01*
X22510089Y-9909143D01*
X22532481Y-9927519D01*
X22550857Y-9949911D01*
X22564510Y-9975454D01*
X22572919Y-10003175D01*
X22576000Y-10034454D01*
X22576000Y-10475546D01*
X22572919Y-10506825D01*
X22564510Y-10534546D01*
X22550857Y-10560089D01*
X22532481Y-10582481D01*
X22510089Y-10600857D01*
X22484546Y-10614510D01*
X22456825Y-10622919D01*
X22425546Y-10626000D01*
X22034454Y-10626000D01*
X22003175Y-10622919D01*
X21975454Y-10614510D01*
X21949911Y-10600857D01*
X21927519Y-10582481D01*
X21909143Y-10560089D01*
X21895490Y-10534546D01*
X21887081Y-10506825D01*
X21884000Y-10475546D01*
X21884000Y-10034454D01*
X21887081Y-10003175D01*
X21895490Y-9975454D01*
X21909143Y-9949911D01*
X21927519Y-9927519D01*
X21949911Y-9909143D01*
X21975454Y-9895490D01*
X22003175Y-9887081D01*
X22034454Y-9884000D01*
X22425546Y-9884000D01*
X22456825Y-9887081D01*
X22456825Y-9887081D01*
G37*
G36*
X21486825Y-9887081D02*
X21514546Y-9895490D01*
X21540089Y-9909143D01*
X21562481Y-9927519D01*
X21580857Y-9949911D01*
X21594510Y-9975454D01*
X21602919Y-10003175D01*
X21606000Y-10034454D01*
X21606000Y-10475546D01*
X21602919Y-10506825D01*
X21594510Y-10534546D01*
X21580857Y-10560089D01*
X21562481Y-10582481D01*
X21540089Y-10600857D01*
X21514546Y-10614510D01*
X21486825Y-10622919D01*
X21455546Y-10626000D01*
X21064454Y-10626000D01*
X21033175Y-10622919D01*
X21005454Y-10614510D01*
X20979911Y-10600857D01*
X20957519Y-10582481D01*
X20939143Y-10560089D01*
X20925490Y-10534546D01*
X20917081Y-10506825D01*
X20914000Y-10475546D01*
X20914000Y-10034454D01*
X20917081Y-10003175D01*
X20925490Y-9975454D01*
X20939143Y-9949911D01*
X20957519Y-9927519D01*
X20979911Y-9909143D01*
X21005454Y-9895490D01*
X21033175Y-9887081D01*
X21064454Y-9884000D01*
X21455546Y-9884000D01*
X21486825Y-9887081D01*
X21486825Y-9887081D01*
G37*
G36*
X9771000Y-10531000D02*
X9369000Y-10531000D01*
X9369000Y-10129000D01*
X9771000Y-10129000D01*
X9771000Y-10531000D01*
X9771000Y-10531000D01*
G37*
G36*
X15621000Y-10531000D02*
X15219000Y-10531000D01*
X15219000Y-10129000D01*
X15621000Y-10129000D01*
X15621000Y-10531000D01*
X15621000Y-10531000D01*
G37*
G36*
X14971000Y-10531000D02*
X14569000Y-10531000D01*
X14569000Y-10129000D01*
X14971000Y-10129000D01*
X14971000Y-10531000D01*
X14971000Y-10531000D01*
G37*
G36*
X10421000Y-10531000D02*
X10019000Y-10531000D01*
X10019000Y-10129000D01*
X10421000Y-10129000D01*
X10421000Y-10531000D01*
X10421000Y-10531000D01*
G37*
G36*
X19491825Y-9782081D02*
X19519546Y-9790490D01*
X19545089Y-9804143D01*
X19567481Y-9822519D01*
X19585857Y-9844911D01*
X19599510Y-9870454D01*
X19607919Y-9898175D01*
X19611000Y-9929454D01*
X19611000Y-10320546D01*
X19607919Y-10351825D01*
X19599510Y-10379546D01*
X19585857Y-10405089D01*
X19567481Y-10427481D01*
X19545089Y-10445857D01*
X19519546Y-10459510D01*
X19491825Y-10467919D01*
X19460546Y-10471000D01*
X19019454Y-10471000D01*
X18988175Y-10467919D01*
X18960454Y-10459510D01*
X18934911Y-10445857D01*
X18912519Y-10427481D01*
X18894143Y-10405089D01*
X18880490Y-10379546D01*
X18872081Y-10351825D01*
X18869000Y-10320546D01*
X18869000Y-9929454D01*
X18872081Y-9898175D01*
X18880490Y-9870454D01*
X18894143Y-9844911D01*
X18912519Y-9822519D01*
X18934911Y-9804143D01*
X18960454Y-9790490D01*
X18988175Y-9782081D01*
X19019454Y-9779000D01*
X19460546Y-9779000D01*
X19491825Y-9782081D01*
X19491825Y-9782081D01*
G37*
G36*
X18547825Y-9772081D02*
X18575546Y-9780490D01*
X18601089Y-9794143D01*
X18623481Y-9812519D01*
X18641857Y-9834911D01*
X18655510Y-9860454D01*
X18663919Y-9888175D01*
X18667000Y-9919454D01*
X18667000Y-10310546D01*
X18663919Y-10341825D01*
X18655510Y-10369546D01*
X18641857Y-10395089D01*
X18623481Y-10417481D01*
X18601089Y-10435857D01*
X18575546Y-10449510D01*
X18547825Y-10457919D01*
X18516546Y-10461000D01*
X18075454Y-10461000D01*
X18044175Y-10457919D01*
X18016454Y-10449510D01*
X17990911Y-10435857D01*
X17968519Y-10417481D01*
X17950143Y-10395089D01*
X17936490Y-10369546D01*
X17928081Y-10341825D01*
X17925000Y-10310546D01*
X17925000Y-9919454D01*
X17928081Y-9888175D01*
X17936490Y-9860454D01*
X17950143Y-9834911D01*
X17968519Y-9812519D01*
X17990911Y-9794143D01*
X18016454Y-9780490D01*
X18044175Y-9772081D01*
X18075454Y-9769000D01*
X18516546Y-9769000D01*
X18547825Y-9772081D01*
X18547825Y-9772081D01*
G37*
G36*
X1220719Y-9059374D02*
X1220722Y-9059375D01*
X1220721Y-9059375D01*
X1320996Y-9100910D01*
X1411242Y-9161210D01*
X1487990Y-9237958D01*
X1548290Y-9328204D01*
X1566358Y-9371825D01*
X1589826Y-9428481D01*
X1611000Y-9534930D01*
X1611000Y-9643470D01*
X1589826Y-9749919D01*
X1589825Y-9749921D01*
X1548290Y-9850196D01*
X1487990Y-9940442D01*
X1411242Y-10017190D01*
X1320996Y-10077490D01*
X1261222Y-10102249D01*
X1220719Y-10119026D01*
X1114270Y-10140200D01*
X1005730Y-10140200D01*
X899281Y-10119026D01*
X858778Y-10102249D01*
X799004Y-10077490D01*
X708758Y-10017190D01*
X632010Y-9940442D01*
X571710Y-9850196D01*
X530175Y-9749921D01*
X530174Y-9749919D01*
X509000Y-9643470D01*
X509000Y-9534930D01*
X530174Y-9428481D01*
X553642Y-9371825D01*
X571710Y-9328204D01*
X632010Y-9237958D01*
X708758Y-9161210D01*
X799004Y-9100910D01*
X899279Y-9059375D01*
X899278Y-9059375D01*
X899281Y-9059374D01*
X1005730Y-9038200D01*
X1114270Y-9038200D01*
X1220719Y-9059374D01*
X1220719Y-9059374D01*
G37*
G36*
X15621000Y-9881000D02*
X15219000Y-9881000D01*
X15219000Y-9479000D01*
X15621000Y-9479000D01*
X15621000Y-9881000D01*
X15621000Y-9881000D01*
G37*
G36*
X9771000Y-9881000D02*
X9369000Y-9881000D01*
X9369000Y-9479000D01*
X9771000Y-9479000D01*
X9771000Y-9881000D01*
X9771000Y-9881000D01*
G37*
G36*
X10421000Y-9881000D02*
X10019000Y-9881000D01*
X10019000Y-9479000D01*
X10421000Y-9479000D01*
X10421000Y-9881000D01*
X10421000Y-9881000D01*
G37*
G36*
X14971000Y-9881000D02*
X14569000Y-9881000D01*
X14569000Y-9479000D01*
X14971000Y-9479000D01*
X14971000Y-9881000D01*
X14971000Y-9881000D01*
G37*
G36*
X6558825Y-8946081D02*
X6586546Y-8954490D01*
X6612089Y-8968143D01*
X6634481Y-8986519D01*
X6652857Y-9008911D01*
X6666510Y-9034454D01*
X6674919Y-9062175D01*
X6678000Y-9093454D01*
X6678000Y-9534546D01*
X6674919Y-9565825D01*
X6666510Y-9593546D01*
X6652857Y-9619089D01*
X6634481Y-9641481D01*
X6612089Y-9659857D01*
X6586546Y-9673510D01*
X6558825Y-9681919D01*
X6527546Y-9685000D01*
X6136454Y-9685000D01*
X6105175Y-9681919D01*
X6077454Y-9673510D01*
X6051911Y-9659857D01*
X6029519Y-9641481D01*
X6011143Y-9619089D01*
X5997490Y-9593546D01*
X5989081Y-9565825D01*
X5986000Y-9534546D01*
X5986000Y-9093454D01*
X5989081Y-9062175D01*
X5997490Y-9034454D01*
X6011143Y-9008911D01*
X6029519Y-8986519D01*
X6051911Y-8968143D01*
X6077454Y-8954490D01*
X6105175Y-8946081D01*
X6136454Y-8943000D01*
X6527546Y-8943000D01*
X6558825Y-8946081D01*
X6558825Y-8946081D01*
G37*
G36*
X5588825Y-8946081D02*
X5616546Y-8954490D01*
X5642089Y-8968143D01*
X5664481Y-8986519D01*
X5682857Y-9008911D01*
X5696510Y-9034454D01*
X5704919Y-9062175D01*
X5708000Y-9093454D01*
X5708000Y-9534546D01*
X5704919Y-9565825D01*
X5696510Y-9593546D01*
X5682857Y-9619089D01*
X5664481Y-9641481D01*
X5642089Y-9659857D01*
X5616546Y-9673510D01*
X5588825Y-9681919D01*
X5557546Y-9685000D01*
X5166454Y-9685000D01*
X5135175Y-9681919D01*
X5107454Y-9673510D01*
X5081911Y-9659857D01*
X5059519Y-9641481D01*
X5041143Y-9619089D01*
X5027490Y-9593546D01*
X5019081Y-9565825D01*
X5016000Y-9534546D01*
X5016000Y-9093454D01*
X5019081Y-9062175D01*
X5027490Y-9034454D01*
X5041143Y-9008911D01*
X5059519Y-8986519D01*
X5081911Y-8968143D01*
X5107454Y-8954490D01*
X5135175Y-8946081D01*
X5166454Y-8943000D01*
X5557546Y-8943000D01*
X5588825Y-8946081D01*
X5588825Y-8946081D01*
G37*
G36*
X22456825Y-8887081D02*
X22484546Y-8895490D01*
X22510089Y-8909143D01*
X22532481Y-8927519D01*
X22550857Y-8949911D01*
X22564510Y-8975454D01*
X22572919Y-9003175D01*
X22576000Y-9034454D01*
X22576000Y-9475546D01*
X22572919Y-9506825D01*
X22564510Y-9534546D01*
X22550857Y-9560089D01*
X22532481Y-9582481D01*
X22510089Y-9600857D01*
X22484546Y-9614510D01*
X22456825Y-9622919D01*
X22425546Y-9626000D01*
X22034454Y-9626000D01*
X22003175Y-9622919D01*
X21975454Y-9614510D01*
X21949911Y-9600857D01*
X21927519Y-9582481D01*
X21909143Y-9560089D01*
X21895490Y-9534546D01*
X21887081Y-9506825D01*
X21884000Y-9475546D01*
X21884000Y-9034454D01*
X21887081Y-9003175D01*
X21895490Y-8975454D01*
X21909143Y-8949911D01*
X21927519Y-8927519D01*
X21949911Y-8909143D01*
X21975454Y-8895490D01*
X22003175Y-8887081D01*
X22034454Y-8884000D01*
X22425546Y-8884000D01*
X22456825Y-8887081D01*
X22456825Y-8887081D01*
G37*
G36*
X21486825Y-8887081D02*
X21514546Y-8895490D01*
X21540089Y-8909143D01*
X21562481Y-8927519D01*
X21580857Y-8949911D01*
X21594510Y-8975454D01*
X21602919Y-9003175D01*
X21606000Y-9034454D01*
X21606000Y-9475546D01*
X21602919Y-9506825D01*
X21594510Y-9534546D01*
X21580857Y-9560089D01*
X21562481Y-9582481D01*
X21540089Y-9600857D01*
X21514546Y-9614510D01*
X21486825Y-9622919D01*
X21455546Y-9626000D01*
X21064454Y-9626000D01*
X21033175Y-9622919D01*
X21005454Y-9614510D01*
X20979911Y-9600857D01*
X20957519Y-9582481D01*
X20939143Y-9560089D01*
X20925490Y-9534546D01*
X20917081Y-9506825D01*
X20914000Y-9475546D01*
X20914000Y-9034454D01*
X20917081Y-9003175D01*
X20925490Y-8975454D01*
X20939143Y-8949911D01*
X20957519Y-8927519D01*
X20979911Y-8909143D01*
X21005454Y-8895490D01*
X21033175Y-8887081D01*
X21064454Y-8884000D01*
X21455546Y-8884000D01*
X21486825Y-8887081D01*
X21486825Y-8887081D01*
G37*
G36*
X19491825Y-8812081D02*
X19519546Y-8820490D01*
X19545089Y-8834143D01*
X19567481Y-8852519D01*
X19585857Y-8874911D01*
X19599510Y-8900454D01*
X19607919Y-8928175D01*
X19611000Y-8959454D01*
X19611000Y-9350546D01*
X19607919Y-9381825D01*
X19599510Y-9409546D01*
X19585857Y-9435089D01*
X19567481Y-9457481D01*
X19545089Y-9475857D01*
X19519546Y-9489510D01*
X19491825Y-9497919D01*
X19460546Y-9501000D01*
X19019454Y-9501000D01*
X18988175Y-9497919D01*
X18960454Y-9489510D01*
X18934911Y-9475857D01*
X18912519Y-9457481D01*
X18894143Y-9435089D01*
X18880490Y-9409546D01*
X18872081Y-9381825D01*
X18869000Y-9350546D01*
X18869000Y-8959454D01*
X18872081Y-8928175D01*
X18880490Y-8900454D01*
X18894143Y-8874911D01*
X18912519Y-8852519D01*
X18934911Y-8834143D01*
X18960454Y-8820490D01*
X18988175Y-8812081D01*
X19019454Y-8809000D01*
X19460546Y-8809000D01*
X19491825Y-8812081D01*
X19491825Y-8812081D01*
G37*
G36*
X18547825Y-8802081D02*
X18575546Y-8810490D01*
X18601089Y-8824143D01*
X18623481Y-8842519D01*
X18641857Y-8864911D01*
X18655510Y-8890454D01*
X18663919Y-8918175D01*
X18667000Y-8949454D01*
X18667000Y-9340546D01*
X18663919Y-9371825D01*
X18655510Y-9399546D01*
X18641857Y-9425089D01*
X18623481Y-9447481D01*
X18601089Y-9465857D01*
X18575546Y-9479510D01*
X18547825Y-9487919D01*
X18516546Y-9491000D01*
X18075454Y-9491000D01*
X18044175Y-9487919D01*
X18016454Y-9479510D01*
X17990911Y-9465857D01*
X17968519Y-9447481D01*
X17950143Y-9425089D01*
X17936490Y-9399546D01*
X17928081Y-9371825D01*
X17925000Y-9340546D01*
X17925000Y-8949454D01*
X17928081Y-8918175D01*
X17936490Y-8890454D01*
X17950143Y-8864911D01*
X17968519Y-8842519D01*
X17990911Y-8824143D01*
X18016454Y-8810490D01*
X18044175Y-8802081D01*
X18075454Y-8799000D01*
X18516546Y-8799000D01*
X18547825Y-8802081D01*
X18547825Y-8802081D01*
G37*
G36*
X9771000Y-9231000D02*
X9369000Y-9231000D01*
X9369000Y-8829000D01*
X9771000Y-8829000D01*
X9771000Y-9231000D01*
X9771000Y-9231000D01*
G37*
G36*
X15621000Y-9231000D02*
X15219000Y-9231000D01*
X15219000Y-8829000D01*
X15621000Y-8829000D01*
X15621000Y-9231000D01*
X15621000Y-9231000D01*
G37*
G36*
X14971000Y-9231000D02*
X14569000Y-9231000D01*
X14569000Y-8829000D01*
X14971000Y-8829000D01*
X14971000Y-9231000D01*
X14971000Y-9231000D01*
G37*
G36*
X10421000Y-9231000D02*
X10019000Y-9231000D01*
X10019000Y-8829000D01*
X10421000Y-8829000D01*
X10421000Y-9231000D01*
X10421000Y-9231000D01*
G37*
G36*
X22456825Y-7887081D02*
X22484546Y-7895490D01*
X22510089Y-7909143D01*
X22532481Y-7927519D01*
X22550857Y-7949911D01*
X22564510Y-7975454D01*
X22572919Y-8003175D01*
X22576000Y-8034454D01*
X22576000Y-8475546D01*
X22572919Y-8506825D01*
X22564510Y-8534546D01*
X22550857Y-8560089D01*
X22532481Y-8582481D01*
X22510089Y-8600857D01*
X22484546Y-8614510D01*
X22456825Y-8622919D01*
X22425546Y-8626000D01*
X22034454Y-8626000D01*
X22003175Y-8622919D01*
X21975454Y-8614510D01*
X21949911Y-8600857D01*
X21927519Y-8582481D01*
X21909143Y-8560089D01*
X21895490Y-8534546D01*
X21887081Y-8506825D01*
X21884000Y-8475546D01*
X21884000Y-8034454D01*
X21887081Y-8003175D01*
X21895490Y-7975454D01*
X21909143Y-7949911D01*
X21927519Y-7927519D01*
X21949911Y-7909143D01*
X21975454Y-7895490D01*
X22003175Y-7887081D01*
X22034454Y-7884000D01*
X22425546Y-7884000D01*
X22456825Y-7887081D01*
X22456825Y-7887081D01*
G37*
G36*
X21486825Y-7887081D02*
X21514546Y-7895490D01*
X21540089Y-7909143D01*
X21562481Y-7927519D01*
X21580857Y-7949911D01*
X21594510Y-7975454D01*
X21602919Y-8003175D01*
X21606000Y-8034454D01*
X21606000Y-8475546D01*
X21602919Y-8506825D01*
X21594510Y-8534546D01*
X21580857Y-8560089D01*
X21562481Y-8582481D01*
X21540089Y-8600857D01*
X21514546Y-8614510D01*
X21486825Y-8622919D01*
X21455546Y-8626000D01*
X21064454Y-8626000D01*
X21033175Y-8622919D01*
X21005454Y-8614510D01*
X20979911Y-8600857D01*
X20957519Y-8582481D01*
X20939143Y-8560089D01*
X20925490Y-8534546D01*
X20917081Y-8506825D01*
X20914000Y-8475546D01*
X20914000Y-8034454D01*
X20917081Y-8003175D01*
X20925490Y-7975454D01*
X20939143Y-7949911D01*
X20957519Y-7927519D01*
X20979911Y-7909143D01*
X21005454Y-7895490D01*
X21033175Y-7887081D01*
X21064454Y-7884000D01*
X21455546Y-7884000D01*
X21486825Y-7887081D01*
X21486825Y-7887081D01*
G37*
G36*
X10421000Y-8581000D02*
X10019000Y-8581000D01*
X10019000Y-8179000D01*
X10421000Y-8179000D01*
X10421000Y-8581000D01*
X10421000Y-8581000D01*
G37*
G36*
X15621000Y-8581000D02*
X15219000Y-8581000D01*
X15219000Y-8179000D01*
X15621000Y-8179000D01*
X15621000Y-8581000D01*
X15621000Y-8581000D01*
G37*
G36*
X9771000Y-8581000D02*
X9369000Y-8581000D01*
X9369000Y-8179000D01*
X9771000Y-8179000D01*
X9771000Y-8581000D01*
X9771000Y-8581000D01*
G37*
G36*
X14971000Y-8581000D02*
X14569000Y-8581000D01*
X14569000Y-8179000D01*
X14971000Y-8179000D01*
X14971000Y-8581000D01*
X14971000Y-8581000D01*
G37*
G36*
X2960719Y-7290174D02*
X2960722Y-7290175D01*
X2960721Y-7290175D01*
X3060996Y-7331710D01*
X3151242Y-7392010D01*
X3227990Y-7468758D01*
X3288290Y-7559004D01*
X3288290Y-7559005D01*
X3329826Y-7659281D01*
X3351000Y-7765730D01*
X3351000Y-7874270D01*
X3329826Y-7980719D01*
X3329825Y-7980721D01*
X3288290Y-8080996D01*
X3227990Y-8171242D01*
X3151242Y-8247990D01*
X3060996Y-8308290D01*
X2990090Y-8337660D01*
X2960719Y-8349826D01*
X2854270Y-8371000D01*
X2745730Y-8371000D01*
X2639281Y-8349826D01*
X2609910Y-8337660D01*
X2539004Y-8308290D01*
X2448758Y-8247990D01*
X2372010Y-8171242D01*
X2311710Y-8080996D01*
X2270175Y-7980721D01*
X2270174Y-7980719D01*
X2249000Y-7874270D01*
X2249000Y-7765730D01*
X2270174Y-7659281D01*
X2311710Y-7559005D01*
X2311710Y-7559004D01*
X2372010Y-7468758D01*
X2448758Y-7392010D01*
X2539004Y-7331710D01*
X2639279Y-7290175D01*
X2639278Y-7290175D01*
X2639281Y-7290174D01*
X2745730Y-7269000D01*
X2854270Y-7269000D01*
X2960719Y-7290174D01*
X2960719Y-7290174D01*
G37*
G36*
X14321000Y-7931000D02*
X13919000Y-7931000D01*
X13919000Y-7529000D01*
X14321000Y-7529000D01*
X14321000Y-7931000D01*
X14321000Y-7931000D01*
G37*
G36*
X15621000Y-7931000D02*
X15219000Y-7931000D01*
X15219000Y-7529000D01*
X15621000Y-7529000D01*
X15621000Y-7931000D01*
X15621000Y-7931000D01*
G37*
G36*
X14971000Y-7931000D02*
X14569000Y-7931000D01*
X14569000Y-7529000D01*
X14971000Y-7529000D01*
X14971000Y-7931000D01*
X14971000Y-7931000D01*
G37*
G36*
X9771000Y-7931000D02*
X9369000Y-7931000D01*
X9369000Y-7529000D01*
X9771000Y-7529000D01*
X9771000Y-7931000D01*
X9771000Y-7931000D01*
G37*
G36*
X10421000Y-7931000D02*
X10019000Y-7931000D01*
X10019000Y-7529000D01*
X10421000Y-7529000D01*
X10421000Y-7931000D01*
X10421000Y-7931000D01*
G37*
G36*
X11071000Y-7931000D02*
X10669000Y-7931000D01*
X10669000Y-7529000D01*
X11071000Y-7529000D01*
X11071000Y-7931000D01*
X11071000Y-7931000D01*
G37*
G36*
X22456825Y-6887081D02*
X22484546Y-6895490D01*
X22510089Y-6909143D01*
X22532481Y-6927519D01*
X22550857Y-6949911D01*
X22564510Y-6975454D01*
X22572919Y-7003175D01*
X22576000Y-7034454D01*
X22576000Y-7475546D01*
X22572919Y-7506825D01*
X22564510Y-7534546D01*
X22550857Y-7560089D01*
X22532481Y-7582481D01*
X22510089Y-7600857D01*
X22484546Y-7614510D01*
X22456825Y-7622919D01*
X22425546Y-7626000D01*
X22034454Y-7626000D01*
X22003175Y-7622919D01*
X21975454Y-7614510D01*
X21949911Y-7600857D01*
X21927519Y-7582481D01*
X21909143Y-7560089D01*
X21895490Y-7534546D01*
X21887081Y-7506825D01*
X21884000Y-7475546D01*
X21884000Y-7034454D01*
X21887081Y-7003175D01*
X21895490Y-6975454D01*
X21909143Y-6949911D01*
X21927519Y-6927519D01*
X21949911Y-6909143D01*
X21975454Y-6895490D01*
X22003175Y-6887081D01*
X22034454Y-6884000D01*
X22425546Y-6884000D01*
X22456825Y-6887081D01*
X22456825Y-6887081D01*
G37*
G36*
X21486825Y-6887081D02*
X21514546Y-6895490D01*
X21540089Y-6909143D01*
X21562481Y-6927519D01*
X21580857Y-6949911D01*
X21594510Y-6975454D01*
X21602919Y-7003175D01*
X21606000Y-7034454D01*
X21606000Y-7475546D01*
X21602919Y-7506825D01*
X21594510Y-7534546D01*
X21580857Y-7560089D01*
X21562481Y-7582481D01*
X21540089Y-7600857D01*
X21514546Y-7614510D01*
X21486825Y-7622919D01*
X21455546Y-7626000D01*
X21064454Y-7626000D01*
X21033175Y-7622919D01*
X21005454Y-7614510D01*
X20979911Y-7600857D01*
X20957519Y-7582481D01*
X20939143Y-7560089D01*
X20925490Y-7534546D01*
X20917081Y-7506825D01*
X20914000Y-7475546D01*
X20914000Y-7034454D01*
X20917081Y-7003175D01*
X20925490Y-6975454D01*
X20939143Y-6949911D01*
X20957519Y-6927519D01*
X20979911Y-6909143D01*
X21005454Y-6895490D01*
X21033175Y-6887081D01*
X21064454Y-6884000D01*
X21455546Y-6884000D01*
X21486825Y-6887081D01*
X21486825Y-6887081D01*
G37*
G36*
X13671000Y-7281000D02*
X13269000Y-7281000D01*
X13269000Y-6879000D01*
X13671000Y-6879000D01*
X13671000Y-7281000D01*
X13671000Y-7281000D01*
G37*
G36*
X15621000Y-7281000D02*
X15219000Y-7281000D01*
X15219000Y-6879000D01*
X15621000Y-6879000D01*
X15621000Y-7281000D01*
X15621000Y-7281000D01*
G37*
G36*
X14971000Y-7281000D02*
X14569000Y-7281000D01*
X14569000Y-6879000D01*
X14971000Y-6879000D01*
X14971000Y-7281000D01*
X14971000Y-7281000D01*
G37*
G36*
X14321000Y-7281000D02*
X13919000Y-7281000D01*
X13919000Y-6879000D01*
X14321000Y-6879000D01*
X14321000Y-7281000D01*
X14321000Y-7281000D01*
G37*
G36*
X13021000Y-7281000D02*
X12619000Y-7281000D01*
X12619000Y-6879000D01*
X13021000Y-6879000D01*
X13021000Y-7281000D01*
X13021000Y-7281000D01*
G37*
G36*
X12371000Y-7281000D02*
X11969000Y-7281000D01*
X11969000Y-6879000D01*
X12371000Y-6879000D01*
X12371000Y-7281000D01*
X12371000Y-7281000D01*
G37*
G36*
X11721000Y-7281000D02*
X11319000Y-7281000D01*
X11319000Y-6879000D01*
X11721000Y-6879000D01*
X11721000Y-7281000D01*
X11721000Y-7281000D01*
G37*
G36*
X11071000Y-7281000D02*
X10669000Y-7281000D01*
X10669000Y-6879000D01*
X11071000Y-6879000D01*
X11071000Y-7281000D01*
X11071000Y-7281000D01*
G37*
G36*
X10421000Y-7281000D02*
X10019000Y-7281000D01*
X10019000Y-6879000D01*
X10421000Y-6879000D01*
X10421000Y-7281000D01*
X10421000Y-7281000D01*
G37*
G36*
X9771000Y-7281000D02*
X9369000Y-7281000D01*
X9369000Y-6879000D01*
X9771000Y-6879000D01*
X9771000Y-7281000D01*
X9771000Y-7281000D01*
G37*
G36*
X1130719Y-5729374D02*
X1130722Y-5729375D01*
X1130721Y-5729375D01*
X1230996Y-5770910D01*
X1321242Y-5831210D01*
X1397990Y-5907958D01*
X1458290Y-5998204D01*
X1458290Y-5998205D01*
X1499826Y-6098481D01*
X1521000Y-6204930D01*
X1521000Y-6313470D01*
X1499826Y-6419919D01*
X1499825Y-6419921D01*
X1458290Y-6520196D01*
X1397990Y-6610442D01*
X1321242Y-6687190D01*
X1230996Y-6747490D01*
X1160090Y-6776860D01*
X1130719Y-6789026D01*
X1024270Y-6810200D01*
X915730Y-6810200D01*
X809281Y-6789026D01*
X779910Y-6776860D01*
X709004Y-6747490D01*
X618758Y-6687190D01*
X542010Y-6610442D01*
X481710Y-6520196D01*
X440175Y-6419921D01*
X440174Y-6419919D01*
X419000Y-6313470D01*
X419000Y-6204930D01*
X440174Y-6098481D01*
X481710Y-5998205D01*
X481710Y-5998204D01*
X542010Y-5907958D01*
X618758Y-5831210D01*
X709004Y-5770910D01*
X809279Y-5729375D01*
X809278Y-5729375D01*
X809281Y-5729374D01*
X915730Y-5708200D01*
X1024270Y-5708200D01*
X1130719Y-5729374D01*
X1130719Y-5729374D01*
G37*
G36*
X12371000Y-6631000D02*
X11969000Y-6631000D01*
X11969000Y-6229000D01*
X12371000Y-6229000D01*
X12371000Y-6631000D01*
X12371000Y-6631000D01*
G37*
G36*
X13671000Y-6631000D02*
X13269000Y-6631000D01*
X13269000Y-6229000D01*
X13671000Y-6229000D01*
X13671000Y-6631000D01*
X13671000Y-6631000D01*
G37*
G36*
X9771000Y-6631000D02*
X9369000Y-6631000D01*
X9369000Y-6229000D01*
X9771000Y-6229000D01*
X9771000Y-6631000D01*
X9771000Y-6631000D01*
G37*
G36*
X10421000Y-6631000D02*
X10019000Y-6631000D01*
X10019000Y-6229000D01*
X10421000Y-6229000D01*
X10421000Y-6631000D01*
X10421000Y-6631000D01*
G37*
G36*
X11071000Y-6631000D02*
X10669000Y-6631000D01*
X10669000Y-6229000D01*
X11071000Y-6229000D01*
X11071000Y-6631000D01*
X11071000Y-6631000D01*
G37*
G36*
X11721000Y-6631000D02*
X11319000Y-6631000D01*
X11319000Y-6229000D01*
X11721000Y-6229000D01*
X11721000Y-6631000D01*
X11721000Y-6631000D01*
G37*
G36*
X14321000Y-6631000D02*
X13919000Y-6631000D01*
X13919000Y-6229000D01*
X14321000Y-6229000D01*
X14321000Y-6631000D01*
X14321000Y-6631000D01*
G37*
G36*
X14971000Y-6631000D02*
X14569000Y-6631000D01*
X14569000Y-6229000D01*
X14971000Y-6229000D01*
X14971000Y-6631000D01*
X14971000Y-6631000D01*
G37*
G36*
X15621000Y-6631000D02*
X15219000Y-6631000D01*
X15219000Y-6229000D01*
X15621000Y-6229000D01*
X15621000Y-6631000D01*
X15621000Y-6631000D01*
G37*
G36*
X13021000Y-6631000D02*
X12619000Y-6631000D01*
X12619000Y-6229000D01*
X13021000Y-6229000D01*
X13021000Y-6631000D01*
X13021000Y-6631000D01*
G37*
G36*
X21486825Y-5887081D02*
X21514546Y-5895490D01*
X21540089Y-5909143D01*
X21562481Y-5927519D01*
X21580857Y-5949911D01*
X21594510Y-5975454D01*
X21602919Y-6003175D01*
X21606000Y-6034454D01*
X21606000Y-6475546D01*
X21602919Y-6506825D01*
X21594510Y-6534546D01*
X21580857Y-6560089D01*
X21562481Y-6582481D01*
X21540089Y-6600857D01*
X21514546Y-6614510D01*
X21486825Y-6622919D01*
X21455546Y-6626000D01*
X21064454Y-6626000D01*
X21033175Y-6622919D01*
X21005454Y-6614510D01*
X20979911Y-6600857D01*
X20957519Y-6582481D01*
X20939143Y-6560089D01*
X20925490Y-6534546D01*
X20917081Y-6506825D01*
X20914000Y-6475546D01*
X20914000Y-6034454D01*
X20917081Y-6003175D01*
X20925490Y-5975454D01*
X20939143Y-5949911D01*
X20957519Y-5927519D01*
X20979911Y-5909143D01*
X21005454Y-5895490D01*
X21033175Y-5887081D01*
X21064454Y-5884000D01*
X21455546Y-5884000D01*
X21486825Y-5887081D01*
X21486825Y-5887081D01*
G37*
G36*
X22456825Y-5887081D02*
X22484546Y-5895490D01*
X22510089Y-5909143D01*
X22532481Y-5927519D01*
X22550857Y-5949911D01*
X22564510Y-5975454D01*
X22572919Y-6003175D01*
X22576000Y-6034454D01*
X22576000Y-6475546D01*
X22572919Y-6506825D01*
X22564510Y-6534546D01*
X22550857Y-6560089D01*
X22532481Y-6582481D01*
X22510089Y-6600857D01*
X22484546Y-6614510D01*
X22456825Y-6622919D01*
X22425546Y-6626000D01*
X22034454Y-6626000D01*
X22003175Y-6622919D01*
X21975454Y-6614510D01*
X21949911Y-6600857D01*
X21927519Y-6582481D01*
X21909143Y-6560089D01*
X21895490Y-6534546D01*
X21887081Y-6506825D01*
X21884000Y-6475546D01*
X21884000Y-6034454D01*
X21887081Y-6003175D01*
X21895490Y-5975454D01*
X21909143Y-5949911D01*
X21927519Y-5927519D01*
X21949911Y-5909143D01*
X21975454Y-5895490D01*
X22003175Y-5887081D01*
X22034454Y-5884000D01*
X22425546Y-5884000D01*
X22456825Y-5887081D01*
X22456825Y-5887081D01*
G37*
G36*
X10421000Y-5981000D02*
X10019000Y-5981000D01*
X10019000Y-5579000D01*
X10421000Y-5579000D01*
X10421000Y-5981000D01*
X10421000Y-5981000D01*
G37*
G36*
X14321000Y-5981000D02*
X13919000Y-5981000D01*
X13919000Y-5579000D01*
X14321000Y-5579000D01*
X14321000Y-5981000D01*
X14321000Y-5981000D01*
G37*
G36*
X12371000Y-5981000D02*
X11969000Y-5981000D01*
X11969000Y-5579000D01*
X12371000Y-5579000D01*
X12371000Y-5981000D01*
X12371000Y-5981000D01*
G37*
G36*
X15621000Y-5981000D02*
X15219000Y-5981000D01*
X15219000Y-5579000D01*
X15621000Y-5579000D01*
X15621000Y-5981000D01*
X15621000Y-5981000D01*
G37*
G36*
X11721000Y-5981000D02*
X11319000Y-5981000D01*
X11319000Y-5579000D01*
X11721000Y-5579000D01*
X11721000Y-5981000D01*
X11721000Y-5981000D01*
G37*
G36*
X9771000Y-5981000D02*
X9369000Y-5981000D01*
X9369000Y-5579000D01*
X9771000Y-5579000D01*
X9771000Y-5981000D01*
X9771000Y-5981000D01*
G37*
G36*
X14971000Y-5981000D02*
X14569000Y-5981000D01*
X14569000Y-5579000D01*
X14971000Y-5579000D01*
X14971000Y-5981000D01*
X14971000Y-5981000D01*
G37*
G36*
X13671000Y-5981000D02*
X13269000Y-5981000D01*
X13269000Y-5579000D01*
X13671000Y-5579000D01*
X13671000Y-5981000D01*
X13671000Y-5981000D01*
G37*
G36*
X11071000Y-5981000D02*
X10669000Y-5981000D01*
X10669000Y-5579000D01*
X11071000Y-5579000D01*
X11071000Y-5981000D01*
X11071000Y-5981000D01*
G37*
G36*
X13021000Y-5981000D02*
X12619000Y-5981000D01*
X12619000Y-5579000D01*
X13021000Y-5579000D01*
X13021000Y-5981000D01*
X13021000Y-5981000D01*
G37*
G36*
X3395719Y-4555974D02*
X3395722Y-4555975D01*
X3395721Y-4555975D01*
X3495996Y-4597510D01*
X3586242Y-4657810D01*
X3662990Y-4734558D01*
X3723290Y-4824804D01*
X3723290Y-4824805D01*
X3764826Y-4925081D01*
X3786000Y-5031530D01*
X3786000Y-5140070D01*
X3764826Y-5246519D01*
X3764825Y-5246521D01*
X3723290Y-5346796D01*
X3662990Y-5437042D01*
X3586242Y-5513790D01*
X3495996Y-5574090D01*
X3431374Y-5600857D01*
X3395719Y-5615626D01*
X3289270Y-5636800D01*
X3180730Y-5636800D01*
X3074281Y-5615626D01*
X3038626Y-5600857D01*
X2974004Y-5574090D01*
X2883758Y-5513790D01*
X2807010Y-5437042D01*
X2746710Y-5346796D01*
X2705175Y-5246521D01*
X2705174Y-5246519D01*
X2684000Y-5140070D01*
X2684000Y-5031530D01*
X2705174Y-4925081D01*
X2746710Y-4824805D01*
X2746710Y-4824804D01*
X2807010Y-4734558D01*
X2883758Y-4657810D01*
X2974004Y-4597510D01*
X3074279Y-4555975D01*
X3074278Y-4555975D01*
X3074281Y-4555974D01*
X3180730Y-4534800D01*
X3289270Y-4534800D01*
X3395719Y-4555974D01*
X3395719Y-4555974D01*
G37*
G36*
X21486825Y-4887081D02*
X21514546Y-4895490D01*
X21540089Y-4909143D01*
X21562481Y-4927519D01*
X21580857Y-4949911D01*
X21594510Y-4975454D01*
X21602919Y-5003175D01*
X21606000Y-5034454D01*
X21606000Y-5475546D01*
X21602919Y-5506825D01*
X21594510Y-5534546D01*
X21580857Y-5560089D01*
X21562481Y-5582481D01*
X21540089Y-5600857D01*
X21514546Y-5614510D01*
X21486825Y-5622919D01*
X21455546Y-5626000D01*
X21064454Y-5626000D01*
X21033175Y-5622919D01*
X21005454Y-5614510D01*
X20979911Y-5600857D01*
X20957519Y-5582481D01*
X20939143Y-5560089D01*
X20925490Y-5534546D01*
X20917081Y-5506825D01*
X20914000Y-5475546D01*
X20914000Y-5034454D01*
X20917081Y-5003175D01*
X20925490Y-4975454D01*
X20939143Y-4949911D01*
X20957519Y-4927519D01*
X20979911Y-4909143D01*
X21005454Y-4895490D01*
X21033175Y-4887081D01*
X21064454Y-4884000D01*
X21455546Y-4884000D01*
X21486825Y-4887081D01*
X21486825Y-4887081D01*
G37*
G36*
X22456825Y-4887081D02*
X22484546Y-4895490D01*
X22510089Y-4909143D01*
X22532481Y-4927519D01*
X22550857Y-4949911D01*
X22564510Y-4975454D01*
X22572919Y-5003175D01*
X22576000Y-5034454D01*
X22576000Y-5475546D01*
X22572919Y-5506825D01*
X22564510Y-5534546D01*
X22550857Y-5560089D01*
X22532481Y-5582481D01*
X22510089Y-5600857D01*
X22484546Y-5614510D01*
X22456825Y-5622919D01*
X22425546Y-5626000D01*
X22034454Y-5626000D01*
X22003175Y-5622919D01*
X21975454Y-5614510D01*
X21949911Y-5600857D01*
X21927519Y-5582481D01*
X21909143Y-5560089D01*
X21895490Y-5534546D01*
X21887081Y-5506825D01*
X21884000Y-5475546D01*
X21884000Y-5034454D01*
X21887081Y-5003175D01*
X21895490Y-4975454D01*
X21909143Y-4949911D01*
X21927519Y-4927519D01*
X21949911Y-4909143D01*
X21975454Y-4895490D01*
X22003175Y-4887081D01*
X22034454Y-4884000D01*
X22425546Y-4884000D01*
X22456825Y-4887081D01*
X22456825Y-4887081D01*
G37*
G36*
X18950719Y-4039374D02*
X18950722Y-4039375D01*
X18950721Y-4039375D01*
X19050996Y-4080910D01*
X19141242Y-4141210D01*
X19217990Y-4217958D01*
X19278290Y-4308204D01*
X19278290Y-4308205D01*
X19319826Y-4408481D01*
X19341000Y-4514930D01*
X19341000Y-4623470D01*
X19319826Y-4729919D01*
X19319825Y-4729921D01*
X19278290Y-4830196D01*
X19217990Y-4920442D01*
X19141242Y-4997190D01*
X19050996Y-5057490D01*
X18980090Y-5086860D01*
X18950719Y-5099026D01*
X18844270Y-5120200D01*
X18735730Y-5120200D01*
X18629281Y-5099026D01*
X18599910Y-5086860D01*
X18529004Y-5057490D01*
X18438758Y-4997190D01*
X18362010Y-4920442D01*
X18301710Y-4830196D01*
X18260175Y-4729921D01*
X18260174Y-4729919D01*
X18239000Y-4623470D01*
X18239000Y-4514930D01*
X18260174Y-4408481D01*
X18301710Y-4308205D01*
X18301710Y-4308204D01*
X18362010Y-4217958D01*
X18438758Y-4141210D01*
X18529004Y-4080910D01*
X18629279Y-4039375D01*
X18629278Y-4039375D01*
X18629281Y-4039374D01*
X18735730Y-4018200D01*
X18844270Y-4018200D01*
X18950719Y-4039374D01*
X18950719Y-4039374D01*
G37*
G36*
X21486825Y-3887081D02*
X21514546Y-3895490D01*
X21540089Y-3909143D01*
X21562481Y-3927519D01*
X21580857Y-3949911D01*
X21594510Y-3975454D01*
X21602919Y-4003175D01*
X21606000Y-4034454D01*
X21606000Y-4475546D01*
X21602919Y-4506825D01*
X21594510Y-4534546D01*
X21580857Y-4560089D01*
X21562481Y-4582481D01*
X21540089Y-4600857D01*
X21514546Y-4614510D01*
X21486825Y-4622919D01*
X21455546Y-4626000D01*
X21064454Y-4626000D01*
X21033175Y-4622919D01*
X21005454Y-4614510D01*
X20979911Y-4600857D01*
X20957519Y-4582481D01*
X20939143Y-4560089D01*
X20925490Y-4534546D01*
X20917081Y-4506825D01*
X20914000Y-4475546D01*
X20914000Y-4034454D01*
X20917081Y-4003175D01*
X20925490Y-3975454D01*
X20939143Y-3949911D01*
X20957519Y-3927519D01*
X20979911Y-3909143D01*
X21005454Y-3895490D01*
X21033175Y-3887081D01*
X21064454Y-3884000D01*
X21455546Y-3884000D01*
X21486825Y-3887081D01*
X21486825Y-3887081D01*
G37*
G36*
X22456825Y-3887081D02*
X22484546Y-3895490D01*
X22510089Y-3909143D01*
X22532481Y-3927519D01*
X22550857Y-3949911D01*
X22564510Y-3975454D01*
X22572919Y-4003175D01*
X22576000Y-4034454D01*
X22576000Y-4475546D01*
X22572919Y-4506825D01*
X22564510Y-4534546D01*
X22550857Y-4560089D01*
X22532481Y-4582481D01*
X22510089Y-4600857D01*
X22484546Y-4614510D01*
X22456825Y-4622919D01*
X22425546Y-4626000D01*
X22034454Y-4626000D01*
X22003175Y-4622919D01*
X21975454Y-4614510D01*
X21949911Y-4600857D01*
X21927519Y-4582481D01*
X21909143Y-4560089D01*
X21895490Y-4534546D01*
X21887081Y-4506825D01*
X21884000Y-4475546D01*
X21884000Y-4034454D01*
X21887081Y-4003175D01*
X21895490Y-3975454D01*
X21909143Y-3949911D01*
X21927519Y-3927519D01*
X21949911Y-3909143D01*
X21975454Y-3895490D01*
X22003175Y-3887081D01*
X22034454Y-3884000D01*
X22425546Y-3884000D01*
X22456825Y-3887081D01*
X22456825Y-3887081D01*
G37*
G36*
X850719Y-2869374D02*
X850722Y-2869375D01*
X850721Y-2869375D01*
X950996Y-2910910D01*
X1041242Y-2971210D01*
X1117990Y-3047958D01*
X1178290Y-3138204D01*
X1178290Y-3138205D01*
X1219826Y-3238481D01*
X1241000Y-3344930D01*
X1241000Y-3453470D01*
X1219826Y-3559919D01*
X1219825Y-3559921D01*
X1178290Y-3660196D01*
X1117990Y-3750442D01*
X1041242Y-3827190D01*
X950996Y-3887490D01*
X889032Y-3913156D01*
X850719Y-3929026D01*
X744270Y-3950200D01*
X635730Y-3950200D01*
X529281Y-3929026D01*
X490968Y-3913156D01*
X429004Y-3887490D01*
X338758Y-3827190D01*
X262010Y-3750442D01*
X201710Y-3660196D01*
X160175Y-3559921D01*
X160174Y-3559919D01*
X139000Y-3453470D01*
X139000Y-3344930D01*
X160174Y-3238481D01*
X201710Y-3138205D01*
X201710Y-3138204D01*
X262010Y-3047958D01*
X338758Y-2971210D01*
X429004Y-2910910D01*
X529279Y-2869375D01*
X529278Y-2869375D01*
X529281Y-2869374D01*
X635730Y-2848200D01*
X744270Y-2848200D01*
X850719Y-2869374D01*
X850719Y-2869374D01*
G37*
G36*
X22005719Y-1405174D02*
X22005722Y-1405175D01*
X22005721Y-1405175D01*
X22105996Y-1446710D01*
X22196242Y-1507010D01*
X22272990Y-1583758D01*
X22333290Y-1674004D01*
X22333290Y-1674005D01*
X22374826Y-1774281D01*
X22396000Y-1880730D01*
X22396000Y-1989270D01*
X22374826Y-2095719D01*
X22374825Y-2095721D01*
X22333290Y-2195996D01*
X22272990Y-2286242D01*
X22196242Y-2362990D01*
X22105996Y-2423290D01*
X22035090Y-2452660D01*
X22005719Y-2464826D01*
X21899270Y-2486000D01*
X21790730Y-2486000D01*
X21684281Y-2464826D01*
X21654910Y-2452660D01*
X21584004Y-2423290D01*
X21493758Y-2362990D01*
X21417010Y-2286242D01*
X21356710Y-2195996D01*
X21315175Y-2095721D01*
X21315174Y-2095719D01*
X21294000Y-1989270D01*
X21294000Y-1880730D01*
X21315174Y-1774281D01*
X21356710Y-1674005D01*
X21356710Y-1674004D01*
X21417010Y-1583758D01*
X21493758Y-1507010D01*
X21584004Y-1446710D01*
X21684279Y-1405175D01*
X21684278Y-1405175D01*
X21684281Y-1405174D01*
X21790730Y-1384000D01*
X21899270Y-1384000D01*
X22005719Y-1405174D01*
X22005719Y-1405174D01*
G37*
G36*
X23755719Y-1405174D02*
X23755722Y-1405175D01*
X23755721Y-1405175D01*
X23855996Y-1446710D01*
X23946242Y-1507010D01*
X24022990Y-1583758D01*
X24083290Y-1674004D01*
X24083290Y-1674005D01*
X24124826Y-1774281D01*
X24146000Y-1880730D01*
X24146000Y-1989270D01*
X24124826Y-2095719D01*
X24124825Y-2095721D01*
X24083290Y-2195996D01*
X24022990Y-2286242D01*
X23946242Y-2362990D01*
X23855996Y-2423290D01*
X23785090Y-2452660D01*
X23755719Y-2464826D01*
X23649270Y-2486000D01*
X23540730Y-2486000D01*
X23434281Y-2464826D01*
X23404910Y-2452660D01*
X23334004Y-2423290D01*
X23243758Y-2362990D01*
X23167010Y-2286242D01*
X23106710Y-2195996D01*
X23065175Y-2095721D01*
X23065174Y-2095719D01*
X23044000Y-1989270D01*
X23044000Y-1880730D01*
X23065174Y-1774281D01*
X23106710Y-1674005D01*
X23106710Y-1674004D01*
X23167010Y-1583758D01*
X23243758Y-1507010D01*
X23334004Y-1446710D01*
X23434279Y-1405175D01*
X23434278Y-1405175D01*
X23434281Y-1405174D01*
X23540730Y-1384000D01*
X23649270Y-1384000D01*
X23755719Y-1405174D01*
X23755719Y-1405174D01*
G37*
G36*
X14408119Y-405174D02*
X14408122Y-405175D01*
X14408121Y-405175D01*
X14508396Y-446710D01*
X14598642Y-507010D01*
X14675390Y-583758D01*
X14735690Y-674004D01*
X14735690Y-674005D01*
X14777226Y-774281D01*
X14798400Y-880730D01*
X14798400Y-989270D01*
X14777226Y-1095719D01*
X14777225Y-1095721D01*
X14735690Y-1195996D01*
X14675390Y-1286242D01*
X14598642Y-1362990D01*
X14508396Y-1423290D01*
X14451855Y-1446710D01*
X14408119Y-1464826D01*
X14301670Y-1486000D01*
X14193130Y-1486000D01*
X14086681Y-1464826D01*
X14042945Y-1446710D01*
X13986404Y-1423290D01*
X13896158Y-1362990D01*
X13819410Y-1286242D01*
X13759110Y-1195996D01*
X13717575Y-1095721D01*
X13717574Y-1095719D01*
X13696400Y-989270D01*
X13696400Y-880730D01*
X13717574Y-774281D01*
X13759110Y-674005D01*
X13759110Y-674004D01*
X13819410Y-583758D01*
X13896158Y-507010D01*
X13986404Y-446710D01*
X14086679Y-405175D01*
X14086678Y-405175D01*
X14086681Y-405174D01*
X14193130Y-384000D01*
X14301670Y-384000D01*
X14408119Y-405174D01*
X14408119Y-405174D01*
G37*
G36*
X9005719Y-405174D02*
X9005722Y-405175D01*
X9005721Y-405175D01*
X9105996Y-446710D01*
X9196242Y-507010D01*
X9272990Y-583758D01*
X9333290Y-674004D01*
X9333290Y-674005D01*
X9374826Y-774281D01*
X9396000Y-880730D01*
X9396000Y-989270D01*
X9374826Y-1095719D01*
X9374825Y-1095721D01*
X9333290Y-1195996D01*
X9272990Y-1286242D01*
X9196242Y-1362990D01*
X9105996Y-1423290D01*
X9049455Y-1446710D01*
X9005719Y-1464826D01*
X8899270Y-1486000D01*
X8790730Y-1486000D01*
X8684281Y-1464826D01*
X8640545Y-1446710D01*
X8584004Y-1423290D01*
X8493758Y-1362990D01*
X8417010Y-1286242D01*
X8356710Y-1195996D01*
X8315175Y-1095721D01*
X8315174Y-1095719D01*
X8294000Y-989270D01*
X8294000Y-880730D01*
X8315174Y-774281D01*
X8356710Y-674005D01*
X8356710Y-674004D01*
X8417010Y-583758D01*
X8493758Y-507010D01*
X8584004Y-446710D01*
X8684279Y-405175D01*
X8684278Y-405175D01*
X8684281Y-405174D01*
X8790730Y-384000D01*
X8899270Y-384000D01*
X9005719Y-405174D01*
X9005719Y-405174D01*
G37*
G36*
X6505719Y-405174D02*
X6505722Y-405175D01*
X6505721Y-405175D01*
X6605996Y-446710D01*
X6696242Y-507010D01*
X6772990Y-583758D01*
X6833290Y-674004D01*
X6833290Y-674005D01*
X6874826Y-774281D01*
X6896000Y-880730D01*
X6896000Y-989270D01*
X6874826Y-1095719D01*
X6874825Y-1095721D01*
X6833290Y-1195996D01*
X6772990Y-1286242D01*
X6696242Y-1362990D01*
X6605996Y-1423290D01*
X6549455Y-1446710D01*
X6505719Y-1464826D01*
X6399270Y-1486000D01*
X6290730Y-1486000D01*
X6184281Y-1464826D01*
X6140545Y-1446710D01*
X6084004Y-1423290D01*
X5993758Y-1362990D01*
X5917010Y-1286242D01*
X5856710Y-1195996D01*
X5815175Y-1095721D01*
X5815174Y-1095719D01*
X5794000Y-989270D01*
X5794000Y-880730D01*
X5815174Y-774281D01*
X5856710Y-674005D01*
X5856710Y-674004D01*
X5917010Y-583758D01*
X5993758Y-507010D01*
X6084004Y-446710D01*
X6184279Y-405175D01*
X6184278Y-405175D01*
X6184281Y-405174D01*
X6290730Y-384000D01*
X6399270Y-384000D01*
X6505719Y-405174D01*
X6505719Y-405174D01*
G37*
G36*
X7755719Y-405174D02*
X7755722Y-405175D01*
X7755721Y-405175D01*
X7855996Y-446710D01*
X7946242Y-507010D01*
X8022990Y-583758D01*
X8083290Y-674004D01*
X8083290Y-674005D01*
X8124826Y-774281D01*
X8146000Y-880730D01*
X8146000Y-989270D01*
X8124826Y-1095719D01*
X8124825Y-1095721D01*
X8083290Y-1195996D01*
X8022990Y-1286242D01*
X7946242Y-1362990D01*
X7855996Y-1423290D01*
X7799455Y-1446710D01*
X7755719Y-1464826D01*
X7649270Y-1486000D01*
X7540730Y-1486000D01*
X7434281Y-1464826D01*
X7390545Y-1446710D01*
X7334004Y-1423290D01*
X7243758Y-1362990D01*
X7167010Y-1286242D01*
X7106710Y-1195996D01*
X7065175Y-1095721D01*
X7065174Y-1095719D01*
X7044000Y-989270D01*
X7044000Y-880730D01*
X7065174Y-774281D01*
X7106710Y-674005D01*
X7106710Y-674004D01*
X7167010Y-583758D01*
X7243758Y-507010D01*
X7334004Y-446710D01*
X7434279Y-405175D01*
X7434278Y-405175D01*
X7434281Y-405174D01*
X7540730Y-384000D01*
X7649270Y-384000D01*
X7755719Y-405174D01*
X7755719Y-405174D01*
G37*
G36*
X1056519Y-405174D02*
X1056522Y-405175D01*
X1056521Y-405175D01*
X1156796Y-446710D01*
X1247042Y-507010D01*
X1323790Y-583758D01*
X1384090Y-674004D01*
X1384090Y-674005D01*
X1425626Y-774281D01*
X1446800Y-880730D01*
X1446800Y-989270D01*
X1425626Y-1095719D01*
X1425625Y-1095721D01*
X1384090Y-1195996D01*
X1323790Y-1286242D01*
X1247042Y-1362990D01*
X1156796Y-1423290D01*
X1100255Y-1446710D01*
X1056519Y-1464826D01*
X950070Y-1486000D01*
X841530Y-1486000D01*
X735081Y-1464826D01*
X691345Y-1446710D01*
X634804Y-1423290D01*
X544558Y-1362990D01*
X467810Y-1286242D01*
X407510Y-1195996D01*
X365975Y-1095721D01*
X365974Y-1095719D01*
X344800Y-989270D01*
X344800Y-880730D01*
X365974Y-774281D01*
X407510Y-674005D01*
X407510Y-674004D01*
X467810Y-583758D01*
X544558Y-507010D01*
X634804Y-446710D01*
X735079Y-405175D01*
X735078Y-405175D01*
X735081Y-405174D01*
X841530Y-384000D01*
X950070Y-384000D01*
X1056519Y-405174D01*
X1056519Y-405174D01*
G37*
G36*
X11755719Y-405174D02*
X11755722Y-405175D01*
X11755721Y-405175D01*
X11855996Y-446710D01*
X11946242Y-507010D01*
X12022990Y-583758D01*
X12083290Y-674004D01*
X12083290Y-674005D01*
X12124826Y-774281D01*
X12146000Y-880730D01*
X12146000Y-989270D01*
X12124826Y-1095719D01*
X12124825Y-1095721D01*
X12083290Y-1195996D01*
X12022990Y-1286242D01*
X11946242Y-1362990D01*
X11855996Y-1423290D01*
X11799455Y-1446710D01*
X11755719Y-1464826D01*
X11649270Y-1486000D01*
X11540730Y-1486000D01*
X11434281Y-1464826D01*
X11390545Y-1446710D01*
X11334004Y-1423290D01*
X11243758Y-1362990D01*
X11167010Y-1286242D01*
X11106710Y-1195996D01*
X11065175Y-1095721D01*
X11065174Y-1095719D01*
X11044000Y-989270D01*
X11044000Y-880730D01*
X11065174Y-774281D01*
X11106710Y-674005D01*
X11106710Y-674004D01*
X11167010Y-583758D01*
X11243758Y-507010D01*
X11334004Y-446710D01*
X11434279Y-405175D01*
X11434278Y-405175D01*
X11434281Y-405174D01*
X11540730Y-384000D01*
X11649270Y-384000D01*
X11755719Y-405174D01*
X11755719Y-405174D01*
G37*
G36*
X13056519Y-405174D02*
X13056522Y-405175D01*
X13056521Y-405175D01*
X13156796Y-446710D01*
X13247042Y-507010D01*
X13323790Y-583758D01*
X13384090Y-674004D01*
X13384090Y-674005D01*
X13425626Y-774281D01*
X13446800Y-880730D01*
X13446800Y-989270D01*
X13425626Y-1095719D01*
X13425625Y-1095721D01*
X13384090Y-1195996D01*
X13323790Y-1286242D01*
X13247042Y-1362990D01*
X13156796Y-1423290D01*
X13100255Y-1446710D01*
X13056519Y-1464826D01*
X12950070Y-1486000D01*
X12841530Y-1486000D01*
X12735081Y-1464826D01*
X12691345Y-1446710D01*
X12634804Y-1423290D01*
X12544558Y-1362990D01*
X12467810Y-1286242D01*
X12407510Y-1195996D01*
X12365975Y-1095721D01*
X12365974Y-1095719D01*
X12344800Y-989270D01*
X12344800Y-880730D01*
X12365974Y-774281D01*
X12407510Y-674005D01*
X12407510Y-674004D01*
X12467810Y-583758D01*
X12544558Y-507010D01*
X12634804Y-446710D01*
X12735079Y-405175D01*
X12735078Y-405175D01*
X12735081Y-405174D01*
X12841530Y-384000D01*
X12950070Y-384000D01*
X13056519Y-405174D01*
X13056519Y-405174D01*
G37*
G36*
X2505719Y-405174D02*
X2505722Y-405175D01*
X2505721Y-405175D01*
X2605996Y-446710D01*
X2696242Y-507010D01*
X2772990Y-583758D01*
X2833290Y-674004D01*
X2833290Y-674005D01*
X2874826Y-774281D01*
X2896000Y-880730D01*
X2896000Y-989270D01*
X2874826Y-1095719D01*
X2874825Y-1095721D01*
X2833290Y-1195996D01*
X2772990Y-1286242D01*
X2696242Y-1362990D01*
X2605996Y-1423290D01*
X2549455Y-1446710D01*
X2505719Y-1464826D01*
X2399270Y-1486000D01*
X2290730Y-1486000D01*
X2184281Y-1464826D01*
X2140545Y-1446710D01*
X2084004Y-1423290D01*
X1993758Y-1362990D01*
X1917010Y-1286242D01*
X1856710Y-1195996D01*
X1815175Y-1095721D01*
X1815174Y-1095719D01*
X1794000Y-989270D01*
X1794000Y-880730D01*
X1815174Y-774281D01*
X1856710Y-674005D01*
X1856710Y-674004D01*
X1917010Y-583758D01*
X1993758Y-507010D01*
X2084004Y-446710D01*
X2184279Y-405175D01*
X2184278Y-405175D01*
X2184281Y-405174D01*
X2290730Y-384000D01*
X2399270Y-384000D01*
X2505719Y-405174D01*
X2505719Y-405174D01*
G37*
G36*
X15806519Y-405174D02*
X15806522Y-405175D01*
X15806521Y-405175D01*
X15906796Y-446710D01*
X15997042Y-507010D01*
X16073790Y-583758D01*
X16134090Y-674004D01*
X16134090Y-674005D01*
X16175626Y-774281D01*
X16196800Y-880730D01*
X16196800Y-989270D01*
X16175626Y-1095719D01*
X16175625Y-1095721D01*
X16134090Y-1195996D01*
X16073790Y-1286242D01*
X15997042Y-1362990D01*
X15906796Y-1423290D01*
X15850255Y-1446710D01*
X15806519Y-1464826D01*
X15700070Y-1486000D01*
X15591530Y-1486000D01*
X15485081Y-1464826D01*
X15441345Y-1446710D01*
X15384804Y-1423290D01*
X15294558Y-1362990D01*
X15217810Y-1286242D01*
X15157510Y-1195996D01*
X15115975Y-1095721D01*
X15115974Y-1095719D01*
X15094800Y-989270D01*
X15094800Y-880730D01*
X15115974Y-774281D01*
X15157510Y-674005D01*
X15157510Y-674004D01*
X15217810Y-583758D01*
X15294558Y-507010D01*
X15384804Y-446710D01*
X15485079Y-405175D01*
X15485078Y-405175D01*
X15485081Y-405174D01*
X15591530Y-384000D01*
X15700070Y-384000D01*
X15806519Y-405174D01*
X15806519Y-405174D01*
G37*
G36*
X17255719Y-405174D02*
X17255722Y-405175D01*
X17255721Y-405175D01*
X17355996Y-446710D01*
X17446242Y-507010D01*
X17522990Y-583758D01*
X17583290Y-674004D01*
X17583290Y-674005D01*
X17624826Y-774281D01*
X17646000Y-880730D01*
X17646000Y-989270D01*
X17624826Y-1095719D01*
X17624825Y-1095721D01*
X17583290Y-1195996D01*
X17522990Y-1286242D01*
X17446242Y-1362990D01*
X17355996Y-1423290D01*
X17299455Y-1446710D01*
X17255719Y-1464826D01*
X17149270Y-1486000D01*
X17040730Y-1486000D01*
X16934281Y-1464826D01*
X16890545Y-1446710D01*
X16834004Y-1423290D01*
X16743758Y-1362990D01*
X16667010Y-1286242D01*
X16606710Y-1195996D01*
X16565175Y-1095721D01*
X16565174Y-1095719D01*
X16544000Y-989270D01*
X16544000Y-880730D01*
X16565174Y-774281D01*
X16606710Y-674005D01*
X16606710Y-674004D01*
X16667010Y-583758D01*
X16743758Y-507010D01*
X16834004Y-446710D01*
X16934279Y-405175D01*
X16934278Y-405175D01*
X16934281Y-405174D01*
X17040730Y-384000D01*
X17149270Y-384000D01*
X17255719Y-405174D01*
X17255719Y-405174D01*
G37*
G36*
X18806519Y-405174D02*
X18806522Y-405175D01*
X18806521Y-405175D01*
X18906796Y-446710D01*
X18997042Y-507010D01*
X19073790Y-583758D01*
X19134090Y-674004D01*
X19134090Y-674005D01*
X19175626Y-774281D01*
X19196800Y-880730D01*
X19196800Y-989270D01*
X19175626Y-1095719D01*
X19175625Y-1095721D01*
X19134090Y-1195996D01*
X19073790Y-1286242D01*
X18997042Y-1362990D01*
X18906796Y-1423290D01*
X18850255Y-1446710D01*
X18806519Y-1464826D01*
X18700070Y-1486000D01*
X18591530Y-1486000D01*
X18485081Y-1464826D01*
X18441345Y-1446710D01*
X18384804Y-1423290D01*
X18294558Y-1362990D01*
X18217810Y-1286242D01*
X18157510Y-1195996D01*
X18115975Y-1095721D01*
X18115974Y-1095719D01*
X18094800Y-989270D01*
X18094800Y-880730D01*
X18115974Y-774281D01*
X18157510Y-674005D01*
X18157510Y-674004D01*
X18217810Y-583758D01*
X18294558Y-507010D01*
X18384804Y-446710D01*
X18485079Y-405175D01*
X18485078Y-405175D01*
X18485081Y-405174D01*
X18591530Y-384000D01*
X18700070Y-384000D01*
X18806519Y-405174D01*
X18806519Y-405174D01*
G37*
G36*
X4005719Y-405174D02*
X4005722Y-405175D01*
X4005721Y-405175D01*
X4105996Y-446710D01*
X4196242Y-507010D01*
X4272990Y-583758D01*
X4333290Y-674004D01*
X4333290Y-674005D01*
X4374826Y-774281D01*
X4396000Y-880730D01*
X4396000Y-989270D01*
X4374826Y-1095719D01*
X4374825Y-1095721D01*
X4333290Y-1195996D01*
X4272990Y-1286242D01*
X4196242Y-1362990D01*
X4105996Y-1423290D01*
X4049455Y-1446710D01*
X4005719Y-1464826D01*
X3899270Y-1486000D01*
X3790730Y-1486000D01*
X3684281Y-1464826D01*
X3640545Y-1446710D01*
X3584004Y-1423290D01*
X3493758Y-1362990D01*
X3417010Y-1286242D01*
X3356710Y-1195996D01*
X3315175Y-1095721D01*
X3315174Y-1095719D01*
X3294000Y-989270D01*
X3294000Y-880730D01*
X3315174Y-774281D01*
X3356710Y-674005D01*
X3356710Y-674004D01*
X3417010Y-583758D01*
X3493758Y-507010D01*
X3584004Y-446710D01*
X3684279Y-405175D01*
X3684278Y-405175D01*
X3684281Y-405174D01*
X3790730Y-384000D01*
X3899270Y-384000D01*
X4005719Y-405174D01*
X4005719Y-405174D01*
G37*
G36*
X10306519Y-405174D02*
X10306522Y-405175D01*
X10306521Y-405175D01*
X10406796Y-446710D01*
X10497042Y-507010D01*
X10573790Y-583758D01*
X10634090Y-674004D01*
X10634090Y-674005D01*
X10675626Y-774281D01*
X10696800Y-880730D01*
X10696800Y-989270D01*
X10675626Y-1095719D01*
X10675625Y-1095721D01*
X10634090Y-1195996D01*
X10573790Y-1286242D01*
X10497042Y-1362990D01*
X10406796Y-1423290D01*
X10350255Y-1446710D01*
X10306519Y-1464826D01*
X10200070Y-1486000D01*
X10091530Y-1486000D01*
X9985081Y-1464826D01*
X9941345Y-1446710D01*
X9884804Y-1423290D01*
X9794558Y-1362990D01*
X9717810Y-1286242D01*
X9657510Y-1195996D01*
X9615975Y-1095721D01*
X9615974Y-1095719D01*
X9594800Y-989270D01*
X9594800Y-880730D01*
X9615974Y-774281D01*
X9657510Y-674005D01*
X9657510Y-674004D01*
X9717810Y-583758D01*
X9794558Y-507010D01*
X9884804Y-446710D01*
X9985079Y-405175D01*
X9985078Y-405175D01*
X9985081Y-405174D01*
X10091530Y-384000D01*
X10200070Y-384000D01*
X10306519Y-405174D01*
X10306519Y-405174D01*
G37*
G36*
X5255719Y-405174D02*
X5255722Y-405175D01*
X5255721Y-405175D01*
X5355996Y-446710D01*
X5446242Y-507010D01*
X5522990Y-583758D01*
X5583290Y-674004D01*
X5583290Y-674005D01*
X5624826Y-774281D01*
X5646000Y-880730D01*
X5646000Y-989270D01*
X5624826Y-1095719D01*
X5624825Y-1095721D01*
X5583290Y-1195996D01*
X5522990Y-1286242D01*
X5446242Y-1362990D01*
X5355996Y-1423290D01*
X5299455Y-1446710D01*
X5255719Y-1464826D01*
X5149270Y-1486000D01*
X5040730Y-1486000D01*
X4934281Y-1464826D01*
X4890545Y-1446710D01*
X4834004Y-1423290D01*
X4743758Y-1362990D01*
X4667010Y-1286242D01*
X4606710Y-1195996D01*
X4565175Y-1095721D01*
X4565174Y-1095719D01*
X4544000Y-989270D01*
X4544000Y-880730D01*
X4565174Y-774281D01*
X4606710Y-674005D01*
X4606710Y-674004D01*
X4667010Y-583758D01*
X4743758Y-507010D01*
X4834004Y-446710D01*
X4934279Y-405175D01*
X4934278Y-405175D01*
X4934281Y-405174D01*
X5040730Y-384000D01*
X5149270Y-384000D01*
X5255719Y-405174D01*
X5255719Y-405174D01*
G37*
G36*
X20306519Y-405174D02*
X20306522Y-405175D01*
X20306521Y-405175D01*
X20406796Y-446710D01*
X20497042Y-507010D01*
X20573790Y-583758D01*
X20634090Y-674004D01*
X20634090Y-674005D01*
X20675626Y-774281D01*
X20696800Y-880730D01*
X20696800Y-989270D01*
X20675626Y-1095719D01*
X20675625Y-1095721D01*
X20634090Y-1195996D01*
X20573790Y-1286242D01*
X20497042Y-1362990D01*
X20406796Y-1423290D01*
X20350255Y-1446710D01*
X20306519Y-1464826D01*
X20200070Y-1486000D01*
X20091530Y-1486000D01*
X19985081Y-1464826D01*
X19941345Y-1446710D01*
X19884804Y-1423290D01*
X19794558Y-1362990D01*
X19717810Y-1286242D01*
X19657510Y-1195996D01*
X19615975Y-1095721D01*
X19615974Y-1095719D01*
X19594800Y-989270D01*
X19594800Y-880730D01*
X19615974Y-774281D01*
X19657510Y-674005D01*
X19657510Y-674004D01*
X19717810Y-583758D01*
X19794558Y-507010D01*
X19884804Y-446710D01*
X19985079Y-405175D01*
X19985078Y-405175D01*
X19985081Y-405174D01*
X20091530Y-384000D01*
X20200070Y-384000D01*
X20306519Y-405174D01*
X20306519Y-405174D01*
G37*
M02*
