G04 #@! TF.GenerationSoftware,KiCad,Pcbnew,5.0.2+dfsg1-1~bpo9+1*
G04 #@! TF.CreationDate,2019-10-28T12:22:29+01:00*
G04 #@! TF.ProjectId,zglue-jade-adapter,7a676c75-652d-46a6-9164-652d61646170,rev?*
G04 #@! TF.SameCoordinates,Original*
G04 #@! TF.FileFunction,Copper,L4,Inr*
G04 #@! TF.FilePolarity,Positive*
%FSLAX46Y46*%
G04 Gerber Fmt 4.6, Leading zero omitted, Abs format (unit mm)*
G04 Created by KiCad (PCBNEW 5.0.2+dfsg1-1~bpo9+1) date Mon 28 Oct 2019 12:22:29 PM CET*
%MOMM*%
%LPD*%
G01*
G04 APERTURE LIST*
G04 #@! TA.AperFunction,ViaPad*
%ADD10C,0.457000*%
G04 #@! TD*
G04 #@! TA.AperFunction,Conductor*
%ADD11C,0.100000*%
G04 #@! TD*
G04 #@! TA.AperFunction,Conductor*
%ADD12C,0.200000*%
G04 #@! TD*
G04 #@! TA.AperFunction,Conductor*
%ADD13C,0.150000*%
G04 #@! TD*
G04 #@! TA.AperFunction,Conductor*
%ADD14C,0.110000*%
G04 #@! TD*
G04 APERTURE END LIST*
D10*
G04 #@! TO.N,GND*
G04 #@! TO.C,U1*
X13095000Y-11155000D03*
X11895000Y-11155000D03*
X13095000Y-10005000D03*
X11895000Y-10005000D03*
X13095000Y-8855000D03*
X11845000Y-8855000D03*
X14045000Y-11155000D03*
X10945000Y-11155000D03*
X10945000Y-10005000D03*
X14045000Y-10005000D03*
X14045000Y-8855000D03*
X10945000Y-8855000D03*
G04 #@! TD*
G04 #@! TO.N,GND*
X9780755Y-14856245D03*
X22506000Y-17406000D03*
X23115000Y-10883000D03*
X23158000Y-7764000D03*
X19427000Y-8509000D03*
X17456963Y-5256963D03*
X17470000Y-6720000D03*
X1960000Y-10650000D03*
X2050000Y-8240000D03*
X8907225Y-15782715D03*
X4670000Y-12330000D03*
X4886500Y-12990000D03*
X4797104Y-9029614D03*
X3880000Y-11460000D03*
X7540000Y-5270000D03*
X5534679Y-6695321D03*
X4620000Y-11243500D03*
X19520000Y-12120000D03*
X13130000Y-17483500D03*
X11518001Y-17816500D03*
X10670000Y-18550000D03*
X17130000Y-14300000D03*
X19480000Y-11590000D03*
X14778463Y-18148463D03*
X7354722Y-14270000D03*
X7301618Y-15078505D03*
X3730000Y-16320000D03*
G04 #@! TO.N,/CSI_D2_IN_P*
X14329787Y-15919997D03*
X7496500Y-6787000D03*
G04 #@! TO.N,/CSI_D2_IN_N*
X13900573Y-15490783D03*
X8103500Y-6787000D03*
G04 #@! TO.N,/3V3_SYS*
X18270000Y-18650000D03*
X4380000Y-3040000D03*
X1910000Y-14757000D03*
G04 #@! TO.N,/2V5*
X16000000Y-15920000D03*
X19960612Y-9356500D03*
G04 #@! TO.N,/1V8*
X11480000Y-18570000D03*
X15688058Y-17876196D03*
G04 #@! TO.N,/LED3_ISINK*
X13366026Y-12483965D03*
X2436000Y-10339000D03*
G04 #@! TO.N,/LED1_ISINK*
X12170000Y-12393000D03*
X2457000Y-9135000D03*
G04 #@! TO.N,/TMS*
X12761000Y-11860000D03*
X3099500Y-6470000D03*
G04 #@! TO.N,/VSENSE*
X12114000Y-11809000D03*
X15930000Y-18350000D03*
G04 #@! TO.N,/1V8_SYS*
X19670000Y-15250000D03*
X15730000Y-17260000D03*
X2157000Y-13757000D03*
G04 #@! TO.N,/LED2_ISINK*
X12822000Y-12389000D03*
X2443000Y-9766000D03*
G04 #@! TO.N,/EXTCLK_EN*
X10867000Y-11789000D03*
X6480000Y-18700000D03*
G04 #@! TO.N,/TDO*
X13603842Y-11725383D03*
X4026500Y-6450000D03*
G04 #@! TO.N,/3V3*
X19694963Y-16943500D03*
X7276762Y-15992510D03*
X7460000Y-19016500D03*
G04 #@! TO.N,/TDI*
X16341000Y-11837000D03*
X4394504Y-5357327D03*
G04 #@! TO.N,/PC_RDY*
X7896733Y-14906546D03*
X8990000Y-17816500D03*
X5879963Y-18769963D03*
G04 #@! TO.N,/TCK*
X14196000Y-11752000D03*
X1929500Y-6731000D03*
X4469470Y-8610470D03*
G04 #@! TO.N,/EXT_CLK*
X8336500Y-12665000D03*
X4260000Y-18010000D03*
G04 #@! TO.N,/I2C_0_SCL*
X19712000Y-10985000D03*
X1991000Y-11234000D03*
G04 #@! TO.N,/ZIP_EN_L*
X7945000Y-11743000D03*
X4092500Y-13780000D03*
G04 #@! TO.N,/PWR_BTN*
X8028000Y-11175500D03*
X3574500Y-10460000D03*
G04 #@! TO.N,/I2C_0_SDA*
X20656482Y-7472113D03*
X4990501Y-7976499D03*
G04 #@! TO.N,/CSI_D1_IN_N*
X4385393Y-7234607D03*
X15214490Y-15252043D03*
G04 #@! TO.N,/CSI_D1_OUT_N*
X16614607Y-11234607D03*
X19968996Y-8501448D03*
G04 #@! TO.N,/CSI_D1_IN_P*
X4814607Y-6805393D03*
X14858980Y-15681257D03*
G04 #@! TO.N,/CSI_CLK_IN_P*
X5059455Y-5500545D03*
X13004619Y-15659098D03*
G04 #@! TO.N,/CSI_CLK_IN_N*
X4670545Y-5889455D03*
X12575405Y-15229884D03*
G04 #@! TO.N,/CSI_CLK_OUT_N*
X16185393Y-13405393D03*
X19985393Y-6434607D03*
G04 #@! TO.N,/CTRL_SO*
X16300000Y-5630000D03*
X20588000Y-10291000D03*
G04 #@! TO.N,/CTRL_SI*
X17060000Y-8434000D03*
X19700000Y-5290000D03*
G04 #@! TO.N,/CTRL_SCK*
X17204917Y-18184167D03*
X12100000Y-18523510D03*
X20655000Y-10860000D03*
G04 #@! TO.N,/CSI_CLK_OUT_P*
X16614607Y-13834607D03*
X20414607Y-6005393D03*
G04 #@! TO.N,Net-(U1-PadD8)*
X14120000Y-8210000D03*
G04 #@! TO.N,/ULPM_WAKE*
X10870000Y-8225000D03*
X4472000Y-4831000D03*
G04 #@! TO.N,/2V5_SYS*
X17000000Y-19210000D03*
G04 #@! TO.N,/USB_D_N*
X16995480Y-7749122D03*
X5201441Y-14010583D03*
X9236847Y-4308213D03*
G04 #@! TO.N,/USB_D_P*
X4772227Y-13581369D03*
X16569544Y-8157342D03*
X9236847Y-3751213D03*
G04 #@! TO.N,/DBG_TX*
X13673500Y-4820000D03*
X2636510Y-6913000D03*
G04 #@! TO.N,/PROC_SCK*
X20386000Y-5402000D03*
X16002501Y-9207510D03*
G04 #@! TO.N,/PROC_SI*
X20560000Y-4248000D03*
X11232015Y-14996525D03*
G04 #@! TO.N,/PROC_OUT_0*
X10090499Y-3749500D03*
G04 #@! TO.N,/PROC_OUT_1*
X10495000Y-4985000D03*
G04 #@! TO.N,/PROC_OUT_2*
X10800000Y-3820000D03*
G04 #@! TO.N,/USB_DET*
X17087510Y-9473000D03*
X3739000Y-12390000D03*
X5000000Y-18633500D03*
X8240000Y-18200000D03*
G04 #@! TO.N,/CTRL_SS*
X20591000Y-12150000D03*
X17510000Y-18620000D03*
X10363468Y-18984814D03*
G04 #@! TO.N,/PIO1*
X6938000Y-1533500D03*
X4223000Y-1828000D03*
G04 #@! TO.N,/DONE*
X10800000Y-4420000D03*
X16683000Y-4608000D03*
X21195000Y-12316000D03*
G04 #@! TO.N,/DBG_RX*
X14600900Y-4420000D03*
X2008526Y-7681492D03*
G04 #@! TO.N,/PIO2*
X12170000Y-8215000D03*
X5384000Y-1887000D03*
G04 #@! TO.N,/PROC_SO*
X11803500Y-15452000D03*
X20483000Y-4873000D03*
G04 #@! TO.N,/VUSB*
X4561442Y-14069832D03*
X4092500Y-14420000D03*
G04 #@! TO.N,/1V2_SYS*
X2110000Y-12870000D03*
G04 #@! TO.N,/CSI_D1_OUT_P*
X20398210Y-8930662D03*
X16185393Y-10805393D03*
G04 #@! TO.N,/E_PROC_SI*
X23097225Y-5730865D03*
G04 #@! TO.N,/E_PROC_SO*
X22835000Y-6268000D03*
G04 #@! TO.N,/E_PROC_SCK*
X23121000Y-6779000D03*
G04 #@! TO.N,/E_PROC_SS*
X22811000Y-7247000D03*
G04 #@! TO.N,/CTRL_RST_FLASH_SOC_CS*
X8516570Y-8715630D03*
X22847000Y-8226000D03*
G04 #@! TO.N,/E_CTRL_SI*
X23115000Y-8779000D03*
G04 #@! TO.N,/E_CTRL_SO*
X22805000Y-9345000D03*
G04 #@! TO.N,/E_CTRL_SCK*
X23121000Y-9789000D03*
G04 #@! TO.N,/E_CTRL_SS*
X22847291Y-10423263D03*
G04 #@! TO.N,/PIO13*
X13470000Y-8205000D03*
X21079000Y-3028000D03*
G04 #@! TO.N,/PIO14*
X12845000Y-8230000D03*
X15616000Y-2146000D03*
G04 #@! TO.N,/PIO15*
X17538000Y-7384000D03*
X23060000Y-13180000D03*
G04 #@! TO.N,/PIO16*
X16540000Y-9480000D03*
X16810000Y-7230000D03*
X23710000Y-17450000D03*
G04 #@! TO.N,/PIO8*
X12820000Y-7530000D03*
X13170000Y-2354000D03*
G04 #@! TO.N,/PIO6*
X12170000Y-7530000D03*
X11086000Y-1680000D03*
G04 #@! TO.N,/VX*
X9530000Y-16510000D03*
X9400030Y-18600030D03*
G04 #@! TO.N,/AMUX*
X4325318Y-18714682D03*
X8008629Y-16051111D03*
G04 #@! TO.N,/DMUX*
X11501000Y-11799000D03*
X7820000Y-18560000D03*
G04 #@! TO.N,/FLASH_CLK*
X8932000Y-7433500D03*
G04 #@! TO.N,/FLASH_CS*
X8953786Y-9069130D03*
X22158500Y-14160000D03*
X22193000Y-12625000D03*
G04 #@! TO.N,/FLASH_IO0*
X8571782Y-8186500D03*
G04 #@! TO.N,/FLASH_IO1*
X8237231Y-9950200D03*
G04 #@! TO.N,/FLASH_IO2*
X7693646Y-10053945D03*
G04 #@! TO.N,/FLASH_IO3*
X7880255Y-9555745D03*
G04 #@! TO.N,/RAVEN_VCC*
X12848500Y-4820000D03*
G04 #@! TO.N,Net-(U1-PadC3)*
X11470000Y-8220000D03*
G04 #@! TO.N,Net-(U1-PadA9)*
X15353500Y-4300000D03*
G04 #@! TO.N,/BOOST_OUT*
X9040000Y-16960000D03*
X1740000Y-19240000D03*
G04 #@! TO.N,Net-(TP34-Pad1)*
X16515000Y-6243000D03*
X17480000Y-6060000D03*
G04 #@! TD*
D11*
G04 #@! TO.N,/3V3_SYS*
X1827000Y-14840000D02*
X1910000Y-14757000D01*
D12*
X1060000Y-13907000D02*
X1910000Y-14757000D01*
X1060000Y-6036853D02*
X1060000Y-13907000D01*
X4056853Y-3040000D02*
X1060000Y-6036853D01*
X4380000Y-3040000D02*
X4056853Y-3040000D01*
D11*
G04 #@! TO.N,/LED3_ISINK*
X11249996Y-13002010D02*
X11210501Y-13041499D01*
X12847981Y-13002010D02*
X11249996Y-13002010D01*
X13366026Y-12483965D02*
X12847981Y-13002010D01*
X11210501Y-13041499D02*
X11210501Y-13069499D01*
X11210501Y-13069499D02*
X10191000Y-14089000D01*
X10191000Y-15011182D02*
X8781182Y-16421000D01*
X10191000Y-14089000D02*
X10191000Y-15011182D01*
X6108000Y-16421000D02*
X5501020Y-15814020D01*
X8781182Y-16421000D02*
X6108000Y-16421000D01*
X4175018Y-15814020D02*
X2854000Y-14493002D01*
X5501020Y-15814020D02*
X4175018Y-15814020D01*
X2854000Y-11006000D02*
X2854000Y-10757000D01*
X2854000Y-14493002D02*
X2854000Y-11006000D01*
X2854000Y-11006000D02*
X2854000Y-10941000D01*
X2854000Y-10757000D02*
X2436000Y-10339000D01*
G04 #@! TO.N,/LED1_ISINK*
X12170000Y-12393000D02*
X11364000Y-12393000D01*
X3221000Y-14365000D02*
X3221000Y-10168000D01*
X11364000Y-12393000D02*
X8293000Y-15464000D01*
X8293000Y-15464000D02*
X4320000Y-15464000D01*
X4320000Y-15464000D02*
X3221000Y-14365000D01*
X3221000Y-10168000D02*
X3221000Y-9884000D01*
X2472000Y-9135000D02*
X2457000Y-9135000D01*
X3221000Y-9884000D02*
X2472000Y-9135000D01*
G04 #@! TO.N,/TMS*
X12761000Y-11497818D02*
X11955182Y-10692000D01*
X12761000Y-11860000D02*
X12761000Y-11497818D01*
X11955182Y-10692000D02*
X4430000Y-10692000D01*
X4430000Y-10692000D02*
X3428000Y-9690000D01*
X3428000Y-8044000D02*
X3428000Y-7796000D01*
X3428000Y-9690000D02*
X3428000Y-8044000D01*
X3428000Y-7796000D02*
X3428000Y-7348000D01*
X3428000Y-7348000D02*
X3428000Y-6738000D01*
X3160000Y-6470000D02*
X3099500Y-6470000D01*
X3428000Y-6738000D02*
X3160000Y-6470000D01*
G04 #@! TO.N,/LED2_ISINK*
X3029000Y-10262000D02*
X2533000Y-9766000D01*
X3029000Y-14420501D02*
X3029000Y-10262000D01*
X12822000Y-12389000D02*
X12384000Y-12827000D01*
X2533000Y-9766000D02*
X2443000Y-9766000D01*
X12384000Y-12827000D02*
X11177500Y-12827000D01*
X11177500Y-12827000D02*
X8365491Y-15639010D01*
X4247509Y-15639010D02*
X3029000Y-14420501D01*
X8365491Y-15639010D02*
X4247509Y-15639010D01*
G04 #@! TO.N,/TDO*
X13603842Y-11140660D02*
X12957182Y-10494000D01*
X13603842Y-11725383D02*
X13603842Y-11140660D01*
X12957182Y-10494000D02*
X5051000Y-10494000D01*
X5051000Y-10494000D02*
X4495000Y-10494000D01*
X4495000Y-10494000D02*
X3603010Y-9602010D01*
X3603010Y-9602010D02*
X3603010Y-7935000D01*
X3603010Y-7935000D02*
X3603010Y-7651990D01*
X3946020Y-6450000D02*
X4026500Y-6450000D01*
X3603010Y-7100000D02*
X3603010Y-6873490D01*
X3603010Y-7651990D02*
X3603010Y-7100000D01*
X3603010Y-6873490D02*
X4026500Y-6450000D01*
D13*
G04 #@! TO.N,/3V3*
X19694963Y-16943500D02*
X19694963Y-18035037D01*
X18141499Y-19588501D02*
X15758501Y-19588501D01*
X19694963Y-18035037D02*
X18141499Y-19588501D01*
X8160000Y-19588501D02*
X7968501Y-19588501D01*
X15758501Y-19588501D02*
X8160000Y-19588501D01*
X7460000Y-19080000D02*
X7460000Y-19016500D01*
X7968501Y-19588501D02*
X7460000Y-19080000D01*
D11*
G04 #@! TO.N,/TDI*
X4300000Y-5451831D02*
X4394504Y-5357327D01*
X16017853Y-11837000D02*
X16341000Y-11837000D01*
X14398501Y-9835319D02*
X14398501Y-10217648D01*
X13678499Y-9651499D02*
X14214681Y-9651499D01*
X14398501Y-10217648D02*
X16017853Y-11837000D01*
X4410000Y-6150000D02*
X4410000Y-6670000D01*
X4874000Y-8421000D02*
X7516192Y-8421000D01*
X4166005Y-5585826D02*
X4166005Y-5906005D01*
X4166005Y-5906005D02*
X4410000Y-6150000D01*
X4394504Y-5357327D02*
X4166005Y-5585826D01*
X13486000Y-9459000D02*
X13678499Y-9651499D01*
X4410000Y-6670000D02*
X3966010Y-7113990D01*
X14214681Y-9651499D02*
X14398501Y-9835319D01*
X3966010Y-7113990D02*
X3966010Y-7513010D01*
X3966010Y-7513010D02*
X4874000Y-8421000D01*
X7516192Y-8421000D02*
X8554192Y-9459000D01*
X8554192Y-9459000D02*
X13486000Y-9459000D01*
G04 #@! TO.N,/PC_RDY*
X8990000Y-17816500D02*
X6773500Y-17816500D01*
X5879963Y-18710037D02*
X5879963Y-18769963D01*
X6773500Y-17816500D02*
X5879963Y-18710037D01*
G04 #@! TO.N,/TCK*
X14424499Y-11523501D02*
X14424499Y-10998499D01*
X8484692Y-9637000D02*
X7458162Y-8610470D01*
X13576000Y-10150000D02*
X13576000Y-9862000D01*
X13351000Y-9637000D02*
X8484692Y-9637000D01*
X4792617Y-8610470D02*
X4469470Y-8610470D01*
X13576000Y-9862000D02*
X13351000Y-9637000D01*
X14424499Y-10998499D02*
X13576000Y-10150000D01*
X7458162Y-8610470D02*
X4792617Y-8610470D01*
X14196000Y-11752000D02*
X14424499Y-11523501D01*
G04 #@! TO.N,/I2C_0_SCL*
X3268000Y-16818000D02*
X2607000Y-16157000D01*
X8631670Y-16818000D02*
X3268000Y-16818000D01*
X19712000Y-10985000D02*
X17716182Y-10985000D01*
X2607000Y-16157000D02*
X2607000Y-11850000D01*
X17716182Y-10985000D02*
X15031182Y-13670000D01*
X2607000Y-11850000D02*
X1991000Y-11234000D01*
X15031182Y-13670000D02*
X11779670Y-13670000D01*
X11779670Y-13670000D02*
X8631670Y-16818000D01*
G04 #@! TO.N,/ZIP_EN_L*
X4092501Y-12384317D02*
X4092501Y-13677499D01*
X4733818Y-11743000D02*
X4092501Y-12384317D01*
X7945000Y-11743000D02*
X4733818Y-11743000D01*
X4092500Y-13677500D02*
X4092500Y-13780000D01*
X4092501Y-13677499D02*
X4092500Y-13677500D01*
G04 #@! TO.N,/PWR_BTN*
X4004500Y-10890000D02*
X3574500Y-10460000D01*
X7742500Y-10890000D02*
X4004500Y-10890000D01*
X8028000Y-11175500D02*
X7742500Y-10890000D01*
G04 #@! TO.N,/I2C_0_SDA*
X19280887Y-7472113D02*
X20656482Y-7472113D01*
X17965499Y-8787501D02*
X19280887Y-7472113D01*
X15567501Y-8787501D02*
X17965499Y-8787501D01*
X14530000Y-7750000D02*
X14660000Y-7880000D01*
X14660000Y-7880000D02*
X15567501Y-8787501D01*
X13956499Y-7176499D02*
X14660000Y-7880000D01*
X4991000Y-7944000D02*
X7469682Y-7944000D01*
X12690000Y-7170000D02*
X12696499Y-7176499D01*
X9248009Y-7038009D02*
X9375841Y-7165841D01*
X9371682Y-7170000D02*
X12690000Y-7170000D01*
X7469682Y-7944000D02*
X8375673Y-7038009D01*
X12696499Y-7176499D02*
X13956499Y-7176499D01*
X9375841Y-7165841D02*
X9371682Y-7170000D01*
X8375673Y-7038009D02*
X9248009Y-7038009D01*
D14*
G04 #@! TO.N,/CSI_D1_OUT_N*
X16614607Y-10953886D02*
X16614607Y-11234607D01*
X17243493Y-10325000D02*
X16614607Y-10953886D01*
X18278490Y-10325000D02*
X17243493Y-10325000D01*
X18345582Y-10317440D02*
X18278490Y-10325000D01*
X18409310Y-10295141D02*
X18345582Y-10317440D01*
X18466478Y-10259220D02*
X18409310Y-10295141D01*
X18550141Y-10154310D02*
X18514220Y-10211478D01*
X18572440Y-10090582D02*
X18550141Y-10154310D01*
X18582757Y-9750339D02*
X18580000Y-9774817D01*
X18603998Y-9706233D02*
X18590893Y-9727089D01*
X18621416Y-9688815D02*
X18603998Y-9706233D01*
X18642272Y-9675710D02*
X18621416Y-9688815D01*
X18665522Y-9667574D02*
X18642272Y-9675710D01*
X18690000Y-9664817D02*
X18665522Y-9667574D01*
X18800000Y-9774817D02*
X18797242Y-9750339D01*
X18865779Y-10211478D02*
X18829858Y-10154310D01*
X18913521Y-10259220D02*
X18865779Y-10211478D01*
X18970689Y-10295141D02*
X18913521Y-10259220D01*
X18514220Y-10211478D02*
X18466478Y-10259220D01*
X19643494Y-10325000D02*
X19101509Y-10325000D01*
X20043494Y-9925000D02*
X19643494Y-10325000D01*
X18829858Y-10154310D02*
X18807559Y-10090582D01*
X21705000Y-9463494D02*
X21243494Y-9925000D01*
X21243494Y-8315000D02*
X21705000Y-8776506D01*
X18580000Y-10023490D02*
X18572440Y-10090582D01*
X21705000Y-8776506D02*
X21705000Y-9463494D01*
X18807559Y-10090582D02*
X18800000Y-10023490D01*
X18797242Y-9750339D02*
X18789106Y-9727089D01*
X18800000Y-10023490D02*
X18800000Y-9774817D01*
X20249717Y-8501448D02*
X20436165Y-8315000D01*
X18714477Y-9667574D02*
X18690000Y-9664817D01*
X19034417Y-10317440D02*
X18970689Y-10295141D01*
X18580000Y-9774817D02*
X18580000Y-10023490D01*
X19101509Y-10325000D02*
X19034417Y-10317440D01*
X21243494Y-9925000D02*
X20043494Y-9925000D01*
X18590893Y-9727089D02*
X18582757Y-9750339D01*
X18737727Y-9675710D02*
X18714477Y-9667574D01*
X19968996Y-8501448D02*
X20249717Y-8501448D01*
X18789106Y-9727089D02*
X18776001Y-9706233D01*
X18776001Y-9706233D02*
X18758583Y-9688815D01*
X18758583Y-9688815D02*
X18737727Y-9675710D01*
X20436165Y-8315000D02*
X21243494Y-8315000D01*
D11*
G04 #@! TO.N,/CTRL_SI*
X19490000Y-5500000D02*
X19700000Y-5290000D01*
X19490000Y-6327147D02*
X19490000Y-5500000D01*
X17383147Y-8434000D02*
X19490000Y-6327147D01*
X17060000Y-8434000D02*
X17383147Y-8434000D01*
D14*
G04 #@! TO.N,/USB_D_N*
X16995480Y-7749122D02*
X16714759Y-7749122D01*
X8976832Y-4308213D02*
X8768000Y-4517045D01*
X9236847Y-4308213D02*
X8976832Y-4308213D01*
X8768000Y-4517045D02*
X8768000Y-4977506D01*
X8768000Y-4977506D02*
X10438494Y-6648000D01*
X10438494Y-6648000D02*
X15616915Y-6648000D01*
X15616915Y-6648000D02*
X16718037Y-7749122D01*
X16718037Y-7749122D02*
X16995480Y-7749122D01*
G04 #@! TO.N,/USB_D_P*
X16566266Y-8154064D02*
X16569544Y-8157342D01*
X8558000Y-5064494D02*
X8558000Y-4430060D01*
X16020802Y-7348873D02*
X15529929Y-6858000D01*
X16036159Y-7368131D02*
X16020802Y-7348873D01*
X16052327Y-7438970D02*
X16052327Y-7414338D01*
X16046847Y-7462985D02*
X16052327Y-7438970D01*
X16020802Y-7504436D02*
X16036158Y-7485177D01*
X15776335Y-7764309D02*
X15787022Y-7742115D01*
X15787023Y-7859163D02*
X15776334Y-7836969D01*
X15529929Y-6858000D02*
X10351506Y-6858000D01*
X15770854Y-7812956D02*
X15770854Y-7788324D01*
X8558000Y-4430060D02*
X9236847Y-3751213D01*
X15770854Y-7788324D02*
X15776335Y-7764309D01*
X16266464Y-7628474D02*
X16241832Y-7628474D01*
X16569544Y-8157342D02*
X16569544Y-7897615D01*
X16036158Y-7485177D02*
X16046847Y-7462985D01*
X15787022Y-7742115D02*
X15802380Y-7722857D01*
X16217817Y-7633955D02*
X16195623Y-7644642D01*
X15802380Y-7878421D02*
X15787023Y-7859163D01*
X15802380Y-7722857D02*
X16020802Y-7504436D01*
X16176365Y-7660000D02*
X15957944Y-7878422D01*
X16569544Y-7897615D02*
X16331929Y-7660000D01*
X16331929Y-7660000D02*
X16312671Y-7644643D01*
X16312671Y-7644643D02*
X16290477Y-7633954D01*
X15957944Y-7878422D02*
X15938685Y-7893778D01*
X15938685Y-7893778D02*
X15916493Y-7904467D01*
X15916493Y-7904467D02*
X15892478Y-7909947D01*
X16241832Y-7628474D02*
X16217817Y-7633955D01*
X15892478Y-7909947D02*
X15867846Y-7909947D01*
X15867846Y-7909947D02*
X15843831Y-7904466D01*
X16052327Y-7414338D02*
X16046846Y-7390323D01*
X15843831Y-7904466D02*
X15821639Y-7893779D01*
X16046846Y-7390323D02*
X16036159Y-7368131D01*
X16290477Y-7633954D02*
X16266464Y-7628474D01*
X15821639Y-7893779D02*
X15802380Y-7878421D01*
X10351506Y-6858000D02*
X8558000Y-5064494D01*
X16195623Y-7644642D02*
X16176365Y-7660000D01*
X15776334Y-7836969D02*
X15770854Y-7812956D01*
D11*
G04 #@! TO.N,/DBG_TX*
X2560000Y-6836490D02*
X2636510Y-6913000D01*
X13673500Y-4820000D02*
X12249500Y-3396000D01*
X12249500Y-3396000D02*
X5383818Y-3396000D01*
X5383818Y-3396000D02*
X2560000Y-6219818D01*
X2560000Y-6219818D02*
X2560000Y-6836490D01*
G04 #@! TO.N,/PROC_SCK*
X19313000Y-8090000D02*
X18434499Y-8968501D01*
X16231000Y-8979011D02*
X16002501Y-9207510D01*
X21618000Y-6634000D02*
X21618000Y-7589000D01*
X18434499Y-8968501D02*
X16241510Y-8968501D01*
X21618000Y-7589000D02*
X21117000Y-8090000D01*
X21117000Y-8090000D02*
X19313000Y-8090000D01*
X16241510Y-8968501D02*
X16231000Y-8979011D01*
X20386000Y-5402000D02*
X21618000Y-6634000D01*
G04 #@! TO.N,/PROC_SI*
X11232015Y-15403697D02*
X11232015Y-15319672D01*
X20570000Y-16590000D02*
X12418318Y-16590000D01*
X22650000Y-14510000D02*
X20570000Y-16590000D01*
X12418318Y-16590000D02*
X11232015Y-15403697D01*
X22650000Y-12558818D02*
X22650000Y-14510000D01*
X22280000Y-6419000D02*
X22280000Y-12188818D01*
X20890009Y-5029009D02*
X22280000Y-6419000D01*
X22280000Y-12188818D02*
X22650000Y-12558818D01*
X11232015Y-15319672D02*
X11232015Y-14996525D01*
X20560000Y-4248000D02*
X20890009Y-4578009D01*
X20890009Y-4578009D02*
X20890009Y-5029009D01*
G04 #@! TO.N,/DONE*
X16635000Y-4608000D02*
X16683000Y-4608000D01*
X15894000Y-5349000D02*
X16635000Y-4608000D01*
X10800000Y-4420000D02*
X10800000Y-4743147D01*
X11406853Y-5350000D02*
X11407853Y-5349000D01*
X10800000Y-4743147D02*
X11406853Y-5350000D01*
X11407853Y-5349000D02*
X15894000Y-5349000D01*
G04 #@! TO.N,/DBG_RX*
X2008526Y-7681492D02*
X2283000Y-7407018D01*
X2283000Y-6193000D02*
X5328000Y-3148000D01*
X13328900Y-3148000D02*
X14372401Y-4191501D01*
X2283000Y-7407018D02*
X2283000Y-6193000D01*
X14372401Y-4191501D02*
X14600900Y-4420000D01*
X5328000Y-3148000D02*
X13328900Y-3148000D01*
G04 #@! TO.N,/PROC_SO*
X20483000Y-4873000D02*
X20711499Y-5101499D01*
X22030000Y-6416502D02*
X22030000Y-12271499D01*
X22030000Y-12271499D02*
X17886510Y-16414989D01*
X12766489Y-16414989D02*
X12031999Y-15680499D01*
X20714997Y-5101499D02*
X22030000Y-6416502D01*
X20711499Y-5101499D02*
X20714997Y-5101499D01*
X12031999Y-15680499D02*
X11803500Y-15452000D01*
X17886510Y-16414989D02*
X12766489Y-16414989D01*
D14*
G04 #@! TO.N,/CSI_D1_OUT_P*
X18896478Y-9520596D02*
X18839310Y-9484675D01*
X18540689Y-9484675D02*
X18483521Y-9520596D01*
X18944220Y-9568338D02*
X18896478Y-9520596D01*
X18284477Y-10112242D02*
X18260000Y-10115000D01*
X19010000Y-9756326D02*
X19002440Y-9689234D01*
X19956506Y-9715000D02*
X19556506Y-10115000D01*
X19051416Y-10091001D02*
X19033998Y-10073583D01*
X19095522Y-10112242D02*
X19072272Y-10104106D01*
X21495000Y-9376506D02*
X21156506Y-9715000D01*
X21156506Y-8525000D02*
X21495000Y-8863494D01*
X19033998Y-10073583D02*
X19020893Y-10052727D01*
X18377559Y-9689234D02*
X18370000Y-9756326D01*
X19002440Y-9689234D02*
X18980141Y-9625506D01*
X18370000Y-9756326D02*
X18370000Y-10005000D01*
X19072272Y-10104106D02*
X19051416Y-10091001D01*
X20523151Y-8525000D02*
X21156506Y-8525000D01*
X18370000Y-10005000D02*
X18367242Y-10029477D01*
X20398210Y-8649941D02*
X20523151Y-8525000D01*
X18435779Y-9568338D02*
X18399858Y-9625506D01*
X20398210Y-8930662D02*
X20398210Y-8649941D01*
X18980141Y-9625506D02*
X18944220Y-9568338D01*
X19012757Y-10029477D02*
X19010000Y-10005000D01*
X21156506Y-9715000D02*
X19956506Y-9715000D01*
X18367242Y-10029477D02*
X18359106Y-10052727D01*
X19020893Y-10052727D02*
X19012757Y-10029477D01*
X19120000Y-10115000D02*
X19095522Y-10112242D01*
X19556506Y-10115000D02*
X19120000Y-10115000D01*
X18260000Y-10115000D02*
X17156507Y-10115000D01*
X18839310Y-9484675D02*
X18775582Y-9462376D01*
X18604417Y-9462376D02*
X18540689Y-9484675D01*
X18708490Y-9454817D02*
X18671509Y-9454817D01*
X18775582Y-9462376D02*
X18708490Y-9454817D01*
X18671509Y-9454817D02*
X18604417Y-9462376D01*
X18359106Y-10052727D02*
X18346001Y-10073583D01*
X18346001Y-10073583D02*
X18328583Y-10091001D01*
X19010000Y-10005000D02*
X19010000Y-9756326D01*
X18483521Y-9520596D02*
X18435779Y-9568338D01*
X18399858Y-9625506D02*
X18377559Y-9689234D01*
X21495000Y-8863494D02*
X21495000Y-9376506D01*
X18328583Y-10091001D02*
X18307727Y-10104106D01*
X18307727Y-10104106D02*
X18284477Y-10112242D01*
X17156507Y-10115000D02*
X16466114Y-10805393D01*
X16466114Y-10805393D02*
X16185393Y-10805393D01*
D11*
G04 #@! TO.N,/PIO15*
X17538000Y-7384000D02*
X18096000Y-7384000D01*
X19314990Y-6165010D02*
X19314990Y-4725010D01*
X18096000Y-7384000D02*
X19314990Y-6165010D01*
X20145501Y-3894499D02*
X22374499Y-3894499D01*
X19314990Y-4725010D02*
X20145501Y-3894499D01*
X23511501Y-5031501D02*
X23511501Y-12728499D01*
X22374499Y-3894499D02*
X23511501Y-5031501D01*
X23511501Y-12728499D02*
X23060000Y-13180000D01*
G04 #@! TO.N,/PIO16*
X17038499Y-7001501D02*
X17038499Y-4991501D01*
X16810000Y-7230000D02*
X17038499Y-7001501D01*
X18648499Y-3381501D02*
X22591501Y-3381501D01*
X17038499Y-4991501D02*
X18648499Y-3381501D01*
X22591501Y-3381501D02*
X23810000Y-4600000D01*
X23810000Y-4600000D02*
X23810000Y-13480000D01*
X23810000Y-13570000D02*
X23810000Y-13700000D01*
X23810000Y-17350000D02*
X23710000Y-17450000D01*
X23810000Y-13480000D02*
X23810000Y-13570000D01*
X23810000Y-13570000D02*
X23810000Y-17350000D01*
G04 #@! TO.N,/BOOST_OUT*
X8811501Y-17188499D02*
X6961501Y-17188499D01*
X9040000Y-16960000D02*
X8811501Y-17188499D01*
X4910000Y-19240000D02*
X1740000Y-19240000D01*
X6961501Y-17188499D02*
X4910000Y-19240000D01*
G04 #@! TD*
M02*
