G04 #@! TF.GenerationSoftware,KiCad,Pcbnew,5.0.2+dfsg1-1~bpo9+1*
G04 #@! TF.CreationDate,2019-11-05T12:23:44+01:00*
G04 #@! TF.ProjectId,zglue-jade-adapter,7a676c75-652d-46a6-9164-652d61646170,rev?*
G04 #@! TF.SameCoordinates,Original*
G04 #@! TF.FileFunction,Copper,L6,Bot*
G04 #@! TF.FilePolarity,Positive*
%FSLAX46Y46*%
G04 Gerber Fmt 4.6, Leading zero omitted, Abs format (unit mm)*
G04 Created by KiCad (PCBNEW 5.0.2+dfsg1-1~bpo9+1) date Tue 05 Nov 2019 12:23:44 PM CET*
%MOMM*%
%LPD*%
G01*
G04 APERTURE LIST*
G04 #@! TA.AperFunction,SMDPad,CuDef*
%ADD10R,1.100000X0.300000*%
G04 #@! TD*
G04 #@! TA.AperFunction,SMDPad,CuDef*
%ADD11R,1.320000X1.300000*%
G04 #@! TD*
G04 #@! TA.AperFunction,ComponentPad*
%ADD12C,0.457000*%
G04 #@! TD*
G04 #@! TA.AperFunction,ViaPad*
%ADD13C,0.457000*%
G04 #@! TD*
G04 #@! TA.AperFunction,Conductor*
%ADD14C,0.100000*%
G04 #@! TD*
G04 #@! TA.AperFunction,Conductor*
%ADD15C,0.150000*%
G04 #@! TD*
G04 #@! TA.AperFunction,Conductor*
%ADD16C,0.110000*%
G04 #@! TD*
G04 #@! TA.AperFunction,Conductor*
%ADD17C,0.200000*%
G04 #@! TD*
G04 APERTURE END LIST*
D10*
G04 #@! TO.P,J1,20*
G04 #@! TO.N,/VUSB*
X6506220Y-14752000D03*
G04 #@! TO.P,J1,19*
X6506220Y-14252000D03*
G04 #@! TO.P,J1,18*
G04 #@! TO.N,/USB_D_N*
X6506220Y-13752000D03*
G04 #@! TO.P,J1,17*
G04 #@! TO.N,/USB_D_P*
X6506220Y-13252000D03*
G04 #@! TO.P,J1,16*
G04 #@! TO.N,GND*
X6506220Y-12752000D03*
G04 #@! TO.P,J1,15*
G04 #@! TO.N,/CSI_D4_IN_N*
X6506220Y-12252000D03*
G04 #@! TO.P,J1,14*
G04 #@! TO.N,/CSI_D4_IN_P*
X6506220Y-11752000D03*
G04 #@! TO.P,J1,13*
G04 #@! TO.N,GND*
X6506220Y-11252000D03*
G04 #@! TO.P,J1,12*
G04 #@! TO.N,/CSI_D3_IN_N*
X6506220Y-10752000D03*
G04 #@! TO.P,J1,11*
G04 #@! TO.N,/CSI_D3_IN_P*
X6506220Y-10252000D03*
G04 #@! TO.P,J1,10*
G04 #@! TO.N,GND*
X6506220Y-9752000D03*
G04 #@! TO.P,J1,9*
G04 #@! TO.N,/CSI_D2_IN_N*
X6506220Y-9252000D03*
G04 #@! TO.P,J1,8*
G04 #@! TO.N,/CSI_D2_IN_P*
X6506220Y-8752000D03*
G04 #@! TO.P,J1,7*
G04 #@! TO.N,GND*
X6506220Y-8252000D03*
G04 #@! TO.P,J1,6*
G04 #@! TO.N,/CSI_D1_IN_N*
X6506220Y-7752000D03*
G04 #@! TO.P,J1,5*
G04 #@! TO.N,/CSI_D1_IN_P*
X6506220Y-7252000D03*
G04 #@! TO.P,J1,4*
G04 #@! TO.N,GND*
X6506220Y-6752000D03*
G04 #@! TO.P,J1,3*
G04 #@! TO.N,/CSI_CLK_IN_N*
X6506220Y-6252000D03*
G04 #@! TO.P,J1,2*
G04 #@! TO.N,/CSI_CLK_IN_P*
X6506220Y-5752000D03*
G04 #@! TO.P,J1,1*
G04 #@! TO.N,GND*
X6506220Y-5252000D03*
G04 #@! TO.P,J1,40*
G04 #@! TO.N,/3V3_SYS*
X1007120Y-14752000D03*
G04 #@! TO.P,J1,39*
G04 #@! TO.N,/2V5_SYS*
X1007120Y-14252000D03*
G04 #@! TO.P,J1,38*
G04 #@! TO.N,/1V8_SYS*
X1007120Y-13752000D03*
G04 #@! TO.P,J1,37*
G04 #@! TO.N,/1V2_SYS*
X1007120Y-13252000D03*
G04 #@! TO.P,J1,36*
G04 #@! TO.N,/I2C_1_SDA*
X1007120Y-12752000D03*
G04 #@! TO.P,J1,35*
G04 #@! TO.N,/I2C_1_SCL*
X1007120Y-12252000D03*
G04 #@! TO.P,J1,34*
G04 #@! TO.N,/I2C_0_SDA*
X1007120Y-11752000D03*
G04 #@! TO.P,J1,33*
G04 #@! TO.N,/I2C_0_SCL*
X1007120Y-11252000D03*
G04 #@! TO.P,J1,32*
G04 #@! TO.N,GND*
X1007120Y-10752000D03*
G04 #@! TO.P,J1,31*
G04 #@! TO.N,/LED3_ISINK*
X1007120Y-10252000D03*
G04 #@! TO.P,J1,30*
G04 #@! TO.N,/LED2_ISINK*
X1007120Y-9752000D03*
G04 #@! TO.P,J1,29*
G04 #@! TO.N,/LED1_ISINK*
X1007120Y-9252000D03*
G04 #@! TO.P,J1,28*
G04 #@! TO.N,/PWR_BTN*
X1007120Y-8752000D03*
G04 #@! TO.P,J1,27*
G04 #@! TO.N,GND*
X1007120Y-8252000D03*
G04 #@! TO.P,J1,26*
G04 #@! TO.N,/DBG_RX*
X1007120Y-7752000D03*
G04 #@! TO.P,J1,25*
G04 #@! TO.N,/DBG_TX*
X1007120Y-7252000D03*
G04 #@! TO.P,J1,24*
G04 #@! TO.N,/TCK*
X1007120Y-6752000D03*
G04 #@! TO.P,J1,23*
G04 #@! TO.N,/TMS*
X1007120Y-6252000D03*
G04 #@! TO.P,J1,22*
G04 #@! TO.N,/TDO*
X1007120Y-5752000D03*
G04 #@! TO.P,J1,21*
G04 #@! TO.N,/TDI*
X1007120Y-5252000D03*
D11*
G04 #@! TO.P,J1,*
G04 #@! TO.N,*
X6318260Y-15958500D03*
X1197620Y-15953420D03*
X6318260Y-4050980D03*
X1197620Y-4050980D03*
G04 #@! TD*
D10*
G04 #@! TO.P,J2,20*
G04 #@! TO.N,GND*
X24006220Y-14752000D03*
G04 #@! TO.P,J2,19*
G04 #@! TO.N,/FLASH_IO3*
X24006220Y-14252000D03*
G04 #@! TO.P,J2,18*
G04 #@! TO.N,/FLASH_IO2*
X24006220Y-13752000D03*
G04 #@! TO.P,J2,17*
G04 #@! TO.N,/FLASH_IO1*
X24006220Y-13252000D03*
G04 #@! TO.P,J2,16*
G04 #@! TO.N,/FLASH_IO0*
X24006220Y-12752000D03*
G04 #@! TO.P,J2,15*
G04 #@! TO.N,/FLASH_CS*
X24006220Y-12252000D03*
G04 #@! TO.P,J2,14*
G04 #@! TO.N,/FLASH_CLK*
X24006220Y-11752000D03*
G04 #@! TO.P,J2,13*
G04 #@! TO.N,/DONE*
X24006220Y-11252000D03*
G04 #@! TO.P,J2,12*
G04 #@! TO.N,GND*
X24006220Y-10752000D03*
G04 #@! TO.P,J2,11*
G04 #@! TO.N,/E_CTRL_SS*
X24006220Y-10252000D03*
G04 #@! TO.P,J2,10*
G04 #@! TO.N,/E_CTRL_SCK*
X24006220Y-9752000D03*
G04 #@! TO.P,J2,9*
G04 #@! TO.N,/E_CTRL_SO*
X24006220Y-9252000D03*
G04 #@! TO.P,J2,8*
G04 #@! TO.N,/E_CTRL_SI*
X24006220Y-8752000D03*
G04 #@! TO.P,J2,7*
G04 #@! TO.N,/CTRL_RST_FLASH_SOC_CS*
X24006220Y-8252000D03*
G04 #@! TO.P,J2,6*
G04 #@! TO.N,GND*
X24006220Y-7752000D03*
G04 #@! TO.P,J2,5*
G04 #@! TO.N,/E_PROC_SS*
X24006220Y-7252000D03*
G04 #@! TO.P,J2,4*
G04 #@! TO.N,/E_PROC_SCK*
X24006220Y-6752000D03*
G04 #@! TO.P,J2,3*
G04 #@! TO.N,/E_PROC_SO*
X24006220Y-6252000D03*
G04 #@! TO.P,J2,2*
G04 #@! TO.N,/E_PROC_SI*
X24006220Y-5752000D03*
G04 #@! TO.P,J2,1*
G04 #@! TO.N,/E_PROC_RST*
X24006220Y-5252000D03*
G04 #@! TO.P,J2,40*
G04 #@! TO.N,/PROC_OUT_2*
X18507120Y-14752000D03*
G04 #@! TO.P,J2,39*
G04 #@! TO.N,/PROC_OUT_1*
X18507120Y-14252000D03*
G04 #@! TO.P,J2,38*
G04 #@! TO.N,/PROC_OUT_0*
X18507120Y-13752000D03*
G04 #@! TO.P,J2,37*
G04 #@! TO.N,/CTRL_OUT*
X18507120Y-13252000D03*
G04 #@! TO.P,J2,36*
G04 #@! TO.N,GND*
X18507120Y-12752000D03*
G04 #@! TO.P,J2,35*
G04 #@! TO.N,/CSI_D4_OUT_N*
X18507120Y-12252000D03*
G04 #@! TO.P,J2,34*
G04 #@! TO.N,/CSI_D4_OUT_P*
X18507120Y-11752000D03*
G04 #@! TO.P,J2,33*
G04 #@! TO.N,GND*
X18507120Y-11252000D03*
G04 #@! TO.P,J2,32*
G04 #@! TO.N,/CSI_D3_OUT_N*
X18507120Y-10752000D03*
G04 #@! TO.P,J2,31*
G04 #@! TO.N,/CSI_D3_OUT_P*
X18507120Y-10252000D03*
G04 #@! TO.P,J2,30*
G04 #@! TO.N,GND*
X18507120Y-9752000D03*
G04 #@! TO.P,J2,29*
G04 #@! TO.N,/CSI_D2_OUT_N*
X18507120Y-9252000D03*
G04 #@! TO.P,J2,28*
G04 #@! TO.N,/CSI_D2_OUT_P*
X18507120Y-8752000D03*
G04 #@! TO.P,J2,27*
G04 #@! TO.N,GND*
X18507120Y-8252000D03*
G04 #@! TO.P,J2,26*
G04 #@! TO.N,/C_CSI_D1_OUT_N*
X18507120Y-7752000D03*
G04 #@! TO.P,J2,25*
G04 #@! TO.N,/C_CSI_D1_OUT_P*
X18507120Y-7252000D03*
G04 #@! TO.P,J2,24*
G04 #@! TO.N,GND*
X18507120Y-6752000D03*
G04 #@! TO.P,J2,23*
G04 #@! TO.N,/CSI_CLK_OUT_N*
X18507120Y-6252000D03*
G04 #@! TO.P,J2,22*
G04 #@! TO.N,/CSI_CLK_OUT_P*
X18507120Y-5752000D03*
G04 #@! TO.P,J2,21*
G04 #@! TO.N,GND*
X18507120Y-5252000D03*
D11*
G04 #@! TO.P,J2,*
G04 #@! TO.N,*
X23818260Y-15958500D03*
X18697620Y-15953420D03*
X23818260Y-4050980D03*
X18697620Y-4050980D03*
G04 #@! TD*
D12*
G04 #@! TO.P,U1,EP*
G04 #@! TO.N,GND*
X13100000Y-11150000D03*
X11900000Y-11150000D03*
X13100000Y-10000000D03*
X11900000Y-10000000D03*
X13100000Y-8850000D03*
X11850000Y-8850000D03*
X14050000Y-11150000D03*
X10950000Y-11150000D03*
X10950000Y-10000000D03*
X14050000Y-10000000D03*
X14050000Y-8850000D03*
X10950000Y-8850000D03*
G04 #@! TD*
D13*
G04 #@! TO.N,GND*
X9785755Y-14851245D03*
X22511000Y-17401000D03*
X19432000Y-8504000D03*
X1965000Y-10645000D03*
X2055000Y-8235000D03*
X8912225Y-15777715D03*
X4675000Y-12325000D03*
X4891500Y-12985000D03*
X4802104Y-9024614D03*
X3885000Y-11455000D03*
X7545000Y-5265000D03*
X5539679Y-6690321D03*
X4625000Y-11238500D03*
X13135000Y-17478500D03*
X11523001Y-17811500D03*
X7359722Y-14265000D03*
X7306618Y-15073505D03*
X3735000Y-16315000D03*
X17212360Y-14742360D03*
X20005000Y-6995000D03*
X19395245Y-11305245D03*
X19146499Y-19583501D03*
X10675000Y-18548510D03*
X23184563Y-7692502D03*
X22960000Y-11042569D03*
X17002816Y-6307659D03*
G04 #@! TO.N,/CSI_D2_IN_P*
X14405000Y-15990000D03*
X7501500Y-6782000D03*
G04 #@! TO.N,/CSI_D2_IN_N*
X13905573Y-15485783D03*
X8108500Y-6782000D03*
G04 #@! TO.N,/3V3_SYS*
X18275000Y-18645000D03*
X4385000Y-3035000D03*
X565000Y-17195000D03*
X12355000Y-1775000D03*
X14203500Y-11745000D03*
X19700318Y-12489682D03*
X20608510Y-16938500D03*
G04 #@! TO.N,/2V5*
X19965612Y-9351500D03*
X15967530Y-15952530D03*
G04 #@! TO.N,/1V8*
X11485000Y-18565000D03*
X15693058Y-17871196D03*
G04 #@! TO.N,/LED3_ISINK*
X13371026Y-12478965D03*
X2441000Y-10334000D03*
G04 #@! TO.N,/LED1_ISINK*
X12175000Y-12388000D03*
X2462000Y-9130000D03*
G04 #@! TO.N,/TMS*
X12766000Y-11855000D03*
X3104500Y-6465000D03*
G04 #@! TO.N,/VSENSE*
X12119000Y-11804000D03*
X15935000Y-18345000D03*
G04 #@! TO.N,/1V8_SYS*
X19675000Y-15245000D03*
X2162000Y-13752000D03*
X15737470Y-17257470D03*
X20815000Y-15685000D03*
X14943233Y-2116399D03*
G04 #@! TO.N,/LED2_ISINK*
X12827000Y-12384000D03*
X2448000Y-9761000D03*
G04 #@! TO.N,/EXTCLK_EN*
X10872000Y-11784000D03*
X6485000Y-18695000D03*
G04 #@! TO.N,/TDO*
X13608842Y-11720383D03*
X4031500Y-6445000D03*
G04 #@! TO.N,/3V3*
X19699963Y-16938500D03*
X7281762Y-15987510D03*
X7465000Y-18991490D03*
G04 #@! TO.N,/TDI*
X4399504Y-5352327D03*
X19725000Y-11845000D03*
G04 #@! TO.N,/PC_RDY*
X7901733Y-14901546D03*
X8995000Y-17811500D03*
X5884963Y-18764963D03*
G04 #@! TO.N,/TCK*
X1934500Y-6726000D03*
X14125000Y-8195000D03*
X5550355Y-8678500D03*
G04 #@! TO.N,/EXT_CLK*
X8341500Y-12660000D03*
X4265000Y-18005000D03*
G04 #@! TO.N,/I2C_0_SCL*
X19630000Y-10790000D03*
X1996000Y-11229000D03*
G04 #@! TO.N,/ZIP_EN_L*
X7950000Y-11738000D03*
X4097500Y-13775000D03*
G04 #@! TO.N,/PWR_BTN*
X8033000Y-11170500D03*
X3579500Y-10455000D03*
G04 #@! TO.N,/I2C_0_SDA*
X4995501Y-7971499D03*
X17588206Y-9544113D03*
G04 #@! TO.N,/CSI_D1_IN_N*
X4390393Y-7229607D03*
X15219500Y-16021314D03*
G04 #@! TO.N,/CSI_D1_IN_P*
X4819607Y-6800393D03*
X15020000Y-15315000D03*
G04 #@! TO.N,/CSI_CLK_IN_P*
X5064455Y-5495545D03*
X13080000Y-15815000D03*
G04 #@! TO.N,/CSI_CLK_IN_N*
X4675545Y-5884455D03*
X12580405Y-15224884D03*
G04 #@! TO.N,/CSI_CLK_OUT_N*
X17068822Y-13971178D03*
X20240000Y-4650000D03*
G04 #@! TO.N,/CTRL_SO*
X16305000Y-5625000D03*
X20555000Y-10435000D03*
G04 #@! TO.N,/CTRL_SI*
X17065000Y-8429000D03*
X19700000Y-3740000D03*
G04 #@! TO.N,/CTRL_SCK*
X15916314Y-9136860D03*
X20608500Y-11115000D03*
G04 #@! TO.N,/CSI_CLK_OUT_P*
X19706878Y-4499548D03*
X16674970Y-14365030D03*
G04 #@! TO.N,/ULPM_WAKE*
X10875000Y-8220000D03*
X4477000Y-4826000D03*
G04 #@! TO.N,/PIO3*
X8160000Y-2450000D03*
X8760000Y-1270000D03*
G04 #@! TO.N,/2V5_SYS*
X17005000Y-19205000D03*
G04 #@! TO.N,/USB_D_N*
X17000480Y-7744122D03*
X5206441Y-14005583D03*
X9241847Y-4303213D03*
G04 #@! TO.N,/USB_D_P*
X4777227Y-13576369D03*
X16574544Y-8152342D03*
X9241847Y-3746213D03*
G04 #@! TO.N,/DBG_TX*
X13678500Y-4815000D03*
X2641510Y-6908000D03*
G04 #@! TO.N,/PROC_SCK*
X8269249Y-5265001D03*
X8725000Y-2755000D03*
X18985000Y-2665000D03*
X20448597Y-5312324D03*
G04 #@! TO.N,/PROC_SI*
X13475000Y-8200000D03*
X16275000Y-2085000D03*
X20150000Y-4090000D03*
G04 #@! TO.N,/PROC_OUT_0*
X10095499Y-3744500D03*
G04 #@! TO.N,/PROC_OUT_1*
X10500000Y-4980000D03*
G04 #@! TO.N,/PROC_OUT_2*
X10805000Y-3815000D03*
G04 #@! TO.N,/USB_DET*
X3744000Y-12385000D03*
X5005000Y-18628500D03*
X8245000Y-18195000D03*
X16881205Y-9418855D03*
G04 #@! TO.N,/CTRL_SS*
X17563554Y-8953554D03*
X20700037Y-11770037D03*
G04 #@! TO.N,/DONE*
X10805000Y-4415000D03*
X21200000Y-12311000D03*
X16356465Y-4303595D03*
G04 #@! TO.N,/DBG_RX*
X14605900Y-4415000D03*
X2013526Y-7676492D03*
G04 #@! TO.N,/PIO2*
X12175000Y-8210000D03*
X9224976Y-1528501D03*
G04 #@! TO.N,/PROC_SS*
X20535000Y-6875000D03*
X9705000Y-2789500D03*
X17699485Y-4775928D03*
X18065000Y-2711500D03*
G04 #@! TO.N,/PROC_RST*
X7855000Y-4488213D03*
X9375000Y-4915000D03*
G04 #@! TO.N,/PROC_SO*
X12850000Y-8225000D03*
X15648493Y-1911568D03*
X20642362Y-4291507D03*
G04 #@! TO.N,/VUSB*
X4566442Y-14064832D03*
X4097500Y-14415000D03*
G04 #@! TO.N,/1V2_SYS*
X2115000Y-12865000D03*
G04 #@! TO.N,/E_PROC_RST*
X3946159Y-3521500D03*
G04 #@! TO.N,/E_PROC_SI*
X23102225Y-5725865D03*
G04 #@! TO.N,/E_PROC_SO*
X22840000Y-6263000D03*
G04 #@! TO.N,/E_PROC_SCK*
X23126000Y-6774000D03*
G04 #@! TO.N,/E_PROC_SS*
X22816000Y-7242000D03*
G04 #@! TO.N,/CTRL_RST_FLASH_SOC_CS*
X8521570Y-8710630D03*
X23123521Y-8221000D03*
G04 #@! TO.N,/E_CTRL_SI*
X23123521Y-8774000D03*
G04 #@! TO.N,/E_CTRL_SO*
X23123521Y-9340000D03*
G04 #@! TO.N,/E_CTRL_SCK*
X23154100Y-9871132D03*
G04 #@! TO.N,/E_CTRL_SS*
X23123521Y-10430000D03*
G04 #@! TO.N,/PIO8*
X12825000Y-7525000D03*
X12074290Y-693512D03*
G04 #@! TO.N,/PIO7*
X13355000Y-3945000D03*
X12555000Y-2315000D03*
G04 #@! TO.N,/PIO6*
X12175000Y-7525000D03*
X8970000Y-610000D03*
G04 #@! TO.N,/VX*
X9535000Y-16505000D03*
X9405030Y-18595030D03*
G04 #@! TO.N,/AMUX*
X4330318Y-18709682D03*
X8013629Y-16046111D03*
G04 #@! TO.N,/DMUX*
X11506000Y-11794000D03*
X7825000Y-18555000D03*
G04 #@! TO.N,/FLASH_CLK*
X8937000Y-7428500D03*
G04 #@! TO.N,/FLASH_CS*
X8958786Y-9064130D03*
X22163500Y-14155000D03*
X22198000Y-12620000D03*
G04 #@! TO.N,/FLASH_IO0*
X8576782Y-8181500D03*
G04 #@! TO.N,/FLASH_IO1*
X8242231Y-9945200D03*
G04 #@! TO.N,/FLASH_IO2*
X7698646Y-10048945D03*
G04 #@! TO.N,/FLASH_IO3*
X7885255Y-9550745D03*
G04 #@! TO.N,/BOOST_OUT*
X9045000Y-16955000D03*
X1745000Y-19235000D03*
G04 #@! TO.N,Net-(TP34-Pad1)*
X15905000Y-3125000D03*
X22755000Y-1815000D03*
X16250000Y-6210000D03*
G04 #@! TO.N,Net-(TP35-Pad1)*
X15358500Y-4295000D03*
X20530000Y-2090000D03*
G04 #@! TO.N,/C_CSI_D1_OUT_N*
X17545000Y-11955000D03*
X19475000Y-6945000D03*
X20512414Y-8423473D03*
G04 #@! TO.N,/C_CSI_D1_OUT_P*
X17625000Y-10965000D03*
X17525000Y-6875000D03*
X20118554Y-8817333D03*
G04 #@! TO.N,/CSI_INT*
X11288648Y-14916634D03*
X3079500Y-8214122D03*
X9758530Y-18165001D03*
G04 #@! TO.N,/PROC_INT*
X17364218Y-18303646D03*
X21075000Y-16335000D03*
G04 #@! TO.N,/PIO14*
X16815000Y-7225000D03*
X16334908Y-9465213D03*
X16414748Y-1349576D03*
G04 #@! TO.N,/PIO13*
X17630000Y-8370000D03*
X13746367Y-1574040D03*
X21235000Y-14695000D03*
G04 #@! TO.N,/PIO0*
X11475000Y-8215000D03*
X790000Y-1090000D03*
G04 #@! TO.N,/RDL_LP_CSI_D1_OUT_P*
X17175037Y-4355037D03*
X11808500Y-15447000D03*
G04 #@! TO.N,/RDL_LP_CSI_D1_OUT_N*
X17505000Y-3845000D03*
X12285000Y-18586500D03*
G04 #@! TO.N,/PROG_LP_CSI_D1_OUT_N*
X17538370Y-5305342D03*
X12300001Y-4120000D03*
G04 #@! TO.N,/PROG_LP_CSI_D1_OUT_P*
X17168500Y-4900000D03*
X10770000Y-1420000D03*
G04 #@! TD*
D14*
G04 #@! TO.N,GND*
X23356220Y-14752000D02*
X22858211Y-15250009D01*
X24006220Y-14752000D02*
X23356220Y-14752000D01*
X22858211Y-17053789D02*
X22511000Y-17401000D01*
X22858211Y-15250009D02*
X22858211Y-17053789D01*
X1858000Y-10752000D02*
X1965000Y-10645000D01*
X1007120Y-10752000D02*
X1858000Y-10752000D01*
X5378834Y-9024614D02*
X4802104Y-9024614D01*
X6106220Y-9752000D02*
X5378834Y-9024614D01*
X6506220Y-9752000D02*
X6106220Y-9752000D01*
X6906220Y-6752000D02*
X6506220Y-6752000D01*
X7285000Y-7130780D02*
X6906220Y-6752000D01*
D15*
X18507120Y-12752000D02*
X19207120Y-12752000D01*
X19432000Y-9527120D02*
X19432000Y-8827147D01*
X19207120Y-9752000D02*
X19432000Y-9527120D01*
X19432000Y-8827147D02*
X19432000Y-8504000D01*
X18507120Y-9752000D02*
X19207120Y-9752000D01*
X19180000Y-8252000D02*
X19432000Y-8504000D01*
X18507120Y-8252000D02*
X19180000Y-8252000D01*
D14*
X7285000Y-7945000D02*
X7285000Y-7130780D01*
X6978000Y-8252000D02*
X7285000Y-7945000D01*
X6506220Y-8252000D02*
X6978000Y-8252000D01*
D15*
X5601358Y-6752000D02*
X5539679Y-6690321D01*
X6506220Y-6752000D02*
X5601358Y-6752000D01*
X7532000Y-5252000D02*
X7545000Y-5265000D01*
X6506220Y-5252000D02*
X7532000Y-5252000D01*
X2038000Y-8252000D02*
X2055000Y-8235000D01*
X1007120Y-8252000D02*
X2038000Y-8252000D01*
X4638500Y-11252000D02*
X4625000Y-11238500D01*
X6506220Y-11252000D02*
X4638500Y-11252000D01*
X5124500Y-12752000D02*
X4891500Y-12985000D01*
X6506220Y-12752000D02*
X5124500Y-12752000D01*
D14*
X19162120Y-6752000D02*
X19389120Y-6525000D01*
X18512120Y-6752000D02*
X19162120Y-6752000D01*
X20005000Y-6671853D02*
X20005000Y-6995000D01*
X19858147Y-6525000D02*
X20005000Y-6671853D01*
X19389120Y-6525000D02*
X19858147Y-6525000D01*
D15*
X19207120Y-12752000D02*
X19285000Y-12674120D01*
X19395245Y-11628392D02*
X19395245Y-11305245D01*
X19285000Y-11738637D02*
X19395245Y-11628392D01*
X19285000Y-12674120D02*
X19285000Y-11738637D01*
X19342000Y-11252000D02*
X19395245Y-11305245D01*
X18512120Y-11252000D02*
X19342000Y-11252000D01*
X23946722Y-7692502D02*
X23507710Y-7692502D01*
X24006220Y-7752000D02*
X23946722Y-7692502D01*
X23507710Y-7692502D02*
X23184563Y-7692502D01*
X24006220Y-10752000D02*
X23454016Y-10752000D01*
X23454016Y-10752000D02*
X23391947Y-10814069D01*
X23391947Y-10814069D02*
X23163448Y-11042568D01*
D14*
X22960001Y-11042568D02*
X22960000Y-11042569D01*
X23163448Y-11042568D02*
X22960001Y-11042568D01*
X18107120Y-6752000D02*
X18507120Y-6752000D01*
X17832119Y-6476999D02*
X18107120Y-6752000D01*
X18082118Y-5252000D02*
X17832119Y-5501999D01*
X17832119Y-5501999D02*
X17832119Y-6476999D01*
X18507120Y-5252000D02*
X18082118Y-5252000D01*
D16*
G04 #@! TO.N,/CSI_D2_IN_P*
X7700000Y-6980500D02*
X7501500Y-6782000D01*
X6506220Y-8752000D02*
X6589220Y-8835000D01*
X6589220Y-8835000D02*
X7036506Y-8835000D01*
X7036506Y-8835000D02*
X7700000Y-8171506D01*
X7700000Y-8171506D02*
X7700000Y-6980500D01*
G04 #@! TO.N,/CSI_D2_IN_N*
X7910000Y-6980500D02*
X8108500Y-6782000D01*
X6603220Y-9155000D02*
X7013494Y-9155000D01*
X6506220Y-9252000D02*
X6603220Y-9155000D01*
X7013494Y-9155000D02*
X7910000Y-8258494D01*
X7910000Y-8258494D02*
X7910000Y-6980500D01*
D17*
G04 #@! TO.N,/3V3_SYS*
X2032000Y-14752000D02*
X2825000Y-15545000D01*
X1007120Y-14752000D02*
X2032000Y-14752000D01*
X2825000Y-18485000D02*
X4065000Y-19725000D01*
X2825000Y-15545000D02*
X2825000Y-18485000D01*
X17195000Y-19725000D02*
X18275000Y-18645000D01*
X4065000Y-19725000D02*
X17195000Y-19725000D01*
D14*
X20380011Y-16710001D02*
X20608510Y-16938500D01*
X20145000Y-12934364D02*
X20145000Y-16474990D01*
X19700318Y-12489682D02*
X20145000Y-12934364D01*
X20145000Y-16474990D02*
X20380011Y-16710001D01*
D17*
X265000Y-16895000D02*
X565000Y-17195000D01*
X265000Y-14995000D02*
X265000Y-16895000D01*
X508000Y-14752000D02*
X265000Y-14995000D01*
X1007120Y-14752000D02*
X508000Y-14752000D01*
D14*
G04 #@! TO.N,/LED3_ISINK*
X2359000Y-10252000D02*
X2441000Y-10334000D01*
X1007120Y-10252000D02*
X2359000Y-10252000D01*
G04 #@! TO.N,/LED1_ISINK*
X2340000Y-9252000D02*
X2462000Y-9130000D01*
X1007120Y-9252000D02*
X2340000Y-9252000D01*
G04 #@! TO.N,/TMS*
X2658000Y-6252000D02*
X1007120Y-6252000D01*
X2871000Y-6465000D02*
X2658000Y-6252000D01*
X3104500Y-6465000D02*
X2871000Y-6465000D01*
G04 #@! TO.N,/VSENSE*
X11821499Y-12101501D02*
X11821499Y-14931499D01*
X12119000Y-11804000D02*
X11821499Y-12101501D01*
X12226904Y-15336904D02*
X12226904Y-17836904D01*
X11821499Y-14931499D02*
X12226904Y-15336904D01*
X12226904Y-17836904D02*
X12895000Y-18505000D01*
X15775000Y-18505000D02*
X15935000Y-18345000D01*
X12895000Y-18505000D02*
X15775000Y-18505000D01*
D17*
G04 #@! TO.N,/1V8_SYS*
X1007120Y-13752000D02*
X2162000Y-13752000D01*
D14*
G04 #@! TO.N,/LED2_ISINK*
X2439000Y-9752000D02*
X2448000Y-9761000D01*
X1007120Y-9752000D02*
X2439000Y-9752000D01*
G04 #@! TO.N,/EXTCLK_EN*
X6615000Y-18695000D02*
X6485000Y-18695000D01*
X10872000Y-14438000D02*
X6615000Y-18695000D01*
X10872000Y-11784000D02*
X10872000Y-14438000D01*
G04 #@! TO.N,/TDO*
X2715000Y-5752000D02*
X2926000Y-5752000D01*
X2295000Y-5752000D02*
X3338500Y-5752000D01*
X3338500Y-5752000D02*
X4031500Y-6445000D01*
X1007120Y-5752000D02*
X2295000Y-5752000D01*
X2295000Y-5752000D02*
X2715000Y-5752000D01*
G04 #@! TO.N,/TDI*
X4299177Y-5252000D02*
X4399504Y-5352327D01*
X1007120Y-5252000D02*
X4299177Y-5252000D01*
G04 #@! TO.N,/TCK*
X1908500Y-6752000D02*
X1934500Y-6726000D01*
X1007120Y-6752000D02*
X1908500Y-6752000D01*
G04 #@! TO.N,/EXT_CLK*
X8341500Y-12660000D02*
X8371501Y-12690001D01*
X8371501Y-12690001D02*
X8371501Y-16648499D01*
X8371501Y-16648499D02*
X6745000Y-18275000D01*
X4535000Y-18275000D02*
X4265000Y-18005000D01*
X6745000Y-18275000D02*
X4535000Y-18275000D01*
G04 #@! TO.N,/I2C_0_SCL*
X1973000Y-11252000D02*
X1996000Y-11229000D01*
X1007120Y-11252000D02*
X1973000Y-11252000D01*
G04 #@! TO.N,/PWR_BTN*
X3515000Y-10390500D02*
X3579500Y-10455000D01*
X2732000Y-8752000D02*
X3515000Y-9535000D01*
X3515000Y-9535000D02*
X3515000Y-10390500D01*
X1007120Y-8752000D02*
X2732000Y-8752000D01*
G04 #@! TO.N,/I2C_0_SDA*
X4608501Y-7971499D02*
X4995501Y-7971499D01*
X1007120Y-11752000D02*
X2888000Y-11752000D01*
X4015000Y-10625000D02*
X4015000Y-8565000D01*
X2888000Y-11752000D02*
X4015000Y-10625000D01*
X4015000Y-8565000D02*
X4608501Y-7971499D01*
G04 #@! TO.N,/CSI_D1_IN_N*
X6106220Y-7752000D02*
X6506220Y-7752000D01*
X5786230Y-7432010D02*
X6106220Y-7752000D01*
X4390393Y-7229607D02*
X4619607Y-7229607D01*
X4873505Y-7432010D02*
X5786230Y-7432010D01*
X4619607Y-7229607D02*
X4822009Y-7432009D01*
X4822009Y-7432009D02*
X4873505Y-7432010D01*
D16*
G04 #@! TO.N,/CSI_D1_IN_P*
X4819607Y-7123540D02*
X4819607Y-6800393D01*
X4948067Y-7252000D02*
X4819607Y-7123540D01*
X6506220Y-7252000D02*
X4948067Y-7252000D01*
D14*
G04 #@! TO.N,/CSI_CLK_IN_P*
X5064455Y-5757175D02*
X5064455Y-5495545D01*
X5219280Y-5912000D02*
X5064455Y-5757175D01*
X5681219Y-5752000D02*
X5521219Y-5912000D01*
X6506220Y-5752000D02*
X5681219Y-5752000D01*
X5521219Y-5912000D02*
X5219280Y-5912000D01*
G04 #@! TO.N,/CSI_CLK_IN_N*
X5681219Y-6252000D02*
X5521219Y-6092000D01*
X5144720Y-6092000D02*
X4937175Y-5884455D01*
X6506220Y-6252000D02*
X5681219Y-6252000D01*
X5521219Y-6092000D02*
X5144720Y-6092000D01*
X4937175Y-5884455D02*
X4675545Y-5884455D01*
D16*
G04 #@! TO.N,/CSI_CLK_OUT_N*
X20090378Y-4673048D02*
X20263878Y-4499548D01*
X20090378Y-5298116D02*
X20090378Y-4673048D01*
X19281494Y-6107000D02*
X20090378Y-5298116D01*
X19057120Y-6107000D02*
X19281494Y-6107000D01*
X18512120Y-6252000D02*
X18912120Y-6252000D01*
X18912120Y-6252000D02*
X19057120Y-6107000D01*
G04 #@! TO.N,/CSI_CLK_OUT_P*
X19880378Y-4673048D02*
X19706878Y-4499548D01*
X19194506Y-5897000D02*
X19880378Y-5211128D01*
X19880378Y-5211128D02*
X19880378Y-4673048D01*
X19057120Y-5897000D02*
X19194506Y-5897000D01*
X18912120Y-5752000D02*
X19057120Y-5897000D01*
X18512120Y-5752000D02*
X18912120Y-5752000D01*
D17*
G04 #@! TO.N,/2V5_SYS*
X1007120Y-14252000D02*
X2292000Y-14252000D01*
X3165000Y-15125000D02*
X3165000Y-18315000D01*
X2292000Y-14252000D02*
X3165000Y-15125000D01*
X3165000Y-18315000D02*
X3975000Y-19125000D01*
X16815000Y-19395000D02*
X17005000Y-19205000D01*
X4245000Y-19395000D02*
X16815000Y-19395000D01*
X3975000Y-19125000D02*
X4245000Y-19395000D01*
D16*
G04 #@! TO.N,/USB_D_N*
X5681219Y-13752000D02*
X5536219Y-13607000D01*
X6506220Y-13752000D02*
X5681219Y-13752000D01*
X5536219Y-13607000D02*
X5324303Y-13607000D01*
X5324303Y-13607000D02*
X5206441Y-13724862D01*
X5206441Y-13724862D02*
X5206441Y-14005583D01*
G04 #@! TO.N,/USB_D_P*
X5057948Y-13576369D02*
X4777227Y-13576369D01*
X5237317Y-13397000D02*
X5057948Y-13576369D01*
X6506220Y-13252000D02*
X5681219Y-13252000D01*
X5681219Y-13252000D02*
X5536219Y-13397000D01*
X5536219Y-13397000D02*
X5237317Y-13397000D01*
D14*
G04 #@! TO.N,/DBG_TX*
X2413011Y-7136499D02*
X2641510Y-6908000D01*
X2297510Y-7252000D02*
X2413011Y-7136499D01*
X1007120Y-7252000D02*
X2297510Y-7252000D01*
G04 #@! TO.N,/PROC_SCK*
X8269249Y-5265001D02*
X8269249Y-3210751D01*
X8269249Y-3210751D02*
X8725000Y-2755000D01*
X19255000Y-2935000D02*
X18985000Y-2665000D01*
X20335000Y-2935000D02*
X19255000Y-2935000D01*
X20949198Y-3549198D02*
X20335000Y-2935000D01*
X20949198Y-3950000D02*
X20949198Y-3549198D01*
X20777676Y-5312324D02*
X20448597Y-5312324D01*
X21180000Y-4910000D02*
X20777676Y-5312324D01*
X21180000Y-4180802D02*
X21180000Y-4910000D01*
X20949198Y-3950000D02*
X21180000Y-4180802D01*
G04 #@! TO.N,/PROC_OUT_0*
X10005000Y-3795499D02*
X10095499Y-3744500D01*
X17005000Y-9855000D02*
X17005000Y-12855000D01*
X17234706Y-9625294D02*
X17005000Y-9855000D01*
X17234706Y-9254706D02*
X17234706Y-9625294D01*
X16715000Y-8735000D02*
X17234706Y-9254706D01*
X12428000Y-6676000D02*
X13694000Y-6676000D01*
X17005000Y-12855000D02*
X17902000Y-13752000D01*
X11206990Y-3198990D02*
X11642010Y-3634010D01*
X15753000Y-8735000D02*
X16715000Y-8735000D01*
X10095499Y-3421353D02*
X10317862Y-3198990D01*
X11642010Y-5890010D02*
X12428000Y-6676000D01*
X13694000Y-6676000D02*
X15753000Y-8735000D01*
X17902000Y-13752000D02*
X18512120Y-13752000D01*
X10317862Y-3198990D02*
X11206990Y-3198990D01*
X11642010Y-3634010D02*
X11642010Y-5890010D01*
X10095499Y-3744500D02*
X10095499Y-3421353D01*
G04 #@! TO.N,/PROC_OUT_1*
X13713000Y-6948000D02*
X14918000Y-8153000D01*
X14918000Y-8153000D02*
X14918000Y-8715499D01*
X18112120Y-14252000D02*
X18512120Y-14252000D01*
X16829989Y-10627489D02*
X16829989Y-12969869D01*
X16829989Y-12969869D02*
X18112120Y-14252000D01*
X12426500Y-6948000D02*
X13713000Y-6948000D01*
X14918000Y-8715499D02*
X16829989Y-10627489D01*
X10500000Y-4980000D02*
X10500000Y-4656853D01*
X10500000Y-4656853D02*
X10451499Y-4608352D01*
X10451499Y-4608352D02*
X10451499Y-3548501D01*
X10625999Y-3374001D02*
X10980001Y-3374001D01*
X10451499Y-3548501D02*
X10625999Y-3374001D01*
X10980001Y-3374001D02*
X11466999Y-3860999D01*
X11466999Y-3860999D02*
X11466999Y-5988499D01*
X11466999Y-5988499D02*
X12426500Y-6948000D01*
G04 #@! TO.N,/PROC_OUT_2*
X18507120Y-14752000D02*
X18107120Y-14752000D01*
X12354009Y-7123011D02*
X13603011Y-7123011D01*
X14726000Y-8246000D02*
X14726000Y-8771000D01*
X17662032Y-14301912D02*
X18112120Y-14752000D01*
X11244000Y-4254000D02*
X11244000Y-6013000D01*
X16654978Y-10699980D02*
X16654978Y-13042360D01*
X16654978Y-13042360D02*
X17662032Y-14049414D01*
X13603011Y-7123011D02*
X14726000Y-8246000D01*
X17662032Y-14049414D02*
X17662032Y-14301912D01*
X18112120Y-14752000D02*
X18512120Y-14752000D01*
X14742991Y-8787992D02*
X16654978Y-10699980D01*
X10805000Y-3815000D02*
X11244000Y-4254000D01*
X11244000Y-6013000D02*
X12354009Y-7123011D01*
X14726000Y-8771000D02*
X14742991Y-8787992D01*
G04 #@! TO.N,/USB_DET*
X6738354Y-19118464D02*
X7661818Y-18195000D01*
X7661818Y-18195000D02*
X8245000Y-18195000D01*
X5494964Y-19118464D02*
X6738354Y-19118464D01*
X5005000Y-18628500D02*
X5494964Y-19118464D01*
G04 #@! TO.N,/DONE*
X21428499Y-12082501D02*
X21200000Y-12311000D01*
X22041000Y-11470000D02*
X21428499Y-12082501D01*
X23138220Y-11470000D02*
X22041000Y-11470000D01*
X23356220Y-11252000D02*
X23138220Y-11470000D01*
X24006220Y-11252000D02*
X23356220Y-11252000D01*
G04 #@! TO.N,/DBG_RX*
X1938018Y-7752000D02*
X2013526Y-7676492D01*
X1007120Y-7752000D02*
X1938018Y-7752000D01*
G04 #@! TO.N,/PROC_SS*
X18065000Y-2725000D02*
X18065000Y-2711500D01*
X18065000Y-2875000D02*
X18065000Y-2725000D01*
X17699485Y-4775928D02*
X17699485Y-4452781D01*
X17699485Y-4452781D02*
X17870000Y-4282266D01*
X17870000Y-4282266D02*
X17870000Y-3070000D01*
X17870000Y-3070000D02*
X18065000Y-2875000D01*
D15*
G04 #@! TO.N,/VUSB*
X5806220Y-14552000D02*
X5082000Y-14552000D01*
X6106220Y-14252000D02*
X5806220Y-14552000D01*
X6506220Y-14252000D02*
X6106220Y-14252000D01*
X4594832Y-14064832D02*
X4566442Y-14064832D01*
X5082000Y-14552000D02*
X4594832Y-14064832D01*
X6506220Y-14752000D02*
X6158000Y-14752000D01*
X6158000Y-14752000D02*
X5895000Y-15015000D01*
X5895000Y-15015000D02*
X4635000Y-15015000D01*
X4097500Y-14477500D02*
X4097500Y-14415000D01*
X4635000Y-15015000D02*
X4097500Y-14477500D01*
G04 #@! TO.N,/1V2_SYS*
X1888000Y-13252000D02*
X1007120Y-13252000D01*
X2115000Y-13025000D02*
X1888000Y-13252000D01*
X2115000Y-12865000D02*
X2115000Y-13025000D01*
D14*
G04 #@! TO.N,/E_PROC_RST*
X23361220Y-5252000D02*
X24011220Y-5252000D01*
X23147002Y-5252000D02*
X23361220Y-5252000D01*
X18235002Y-340000D02*
X23147002Y-5252000D01*
X11020000Y-340000D02*
X18235002Y-340000D01*
X3946159Y-3521500D02*
X4478500Y-3521500D01*
X9477999Y-1882001D02*
X11020000Y-340000D01*
X4478500Y-3521500D02*
X6117999Y-1882001D01*
X6117999Y-1882001D02*
X9477999Y-1882001D01*
G04 #@! TO.N,/E_PROC_SI*
X24006220Y-5752000D02*
X23128360Y-5752000D01*
X23128360Y-5752000D02*
X23102225Y-5725865D01*
G04 #@! TO.N,/E_PROC_SO*
X22824000Y-6252000D02*
X22810000Y-6238000D01*
X24006220Y-6252000D02*
X22824000Y-6252000D01*
G04 #@! TO.N,/E_PROC_SCK*
X23148000Y-6752000D02*
X23126000Y-6774000D01*
X24006220Y-6752000D02*
X23148000Y-6752000D01*
G04 #@! TO.N,/E_PROC_SS*
X22826000Y-7252000D02*
X22816000Y-7242000D01*
X24006220Y-7252000D02*
X22826000Y-7252000D01*
G04 #@! TO.N,/CTRL_RST_FLASH_SOC_CS*
X19865000Y-2545000D02*
X19935000Y-2615000D01*
X23975220Y-8221000D02*
X23446668Y-8221000D01*
X22462499Y-7559978D02*
X22895022Y-7992501D01*
X22895022Y-7992501D02*
X23123521Y-8221000D01*
X23446668Y-8221000D02*
X23123521Y-8221000D01*
X24006220Y-8252000D02*
X23975220Y-8221000D01*
X22462499Y-5142499D02*
X22462499Y-7559978D01*
X20262502Y-2615000D02*
X21124209Y-3476707D01*
X21124209Y-3804209D02*
X22462499Y-5142499D01*
X21124209Y-3476707D02*
X21124209Y-3804209D01*
X19935000Y-2615000D02*
X20262502Y-2615000D01*
X8521570Y-8710630D02*
X8223281Y-8412341D01*
X8223281Y-8412341D02*
X8223281Y-7306719D01*
X8223281Y-7306719D02*
X9741998Y-5788002D01*
X9741998Y-5788002D02*
X9741998Y-3378002D01*
X9741998Y-3378002D02*
X10090000Y-3030000D01*
X18295000Y-975000D02*
X18450000Y-1130000D01*
X18450000Y-1130000D02*
X19935000Y-2615000D01*
X18085000Y-765000D02*
X18450000Y-1130000D01*
X12965000Y-765000D02*
X18085000Y-765000D01*
X10090000Y-3030000D02*
X10090000Y-1517500D01*
X10090000Y-1517500D02*
X10541001Y-1066499D01*
X10541001Y-1066499D02*
X12663501Y-1066499D01*
X12663501Y-1066499D02*
X12965000Y-765000D01*
G04 #@! TO.N,/E_CTRL_SI*
X24006220Y-8752000D02*
X23984220Y-8774000D01*
X23984220Y-8774000D02*
X23446668Y-8774000D01*
X23446668Y-8774000D02*
X23123521Y-8774000D01*
G04 #@! TO.N,/E_CTRL_SO*
X24006220Y-9252000D02*
X23918220Y-9340000D01*
X23918220Y-9340000D02*
X23446668Y-9340000D01*
X23446668Y-9340000D02*
X23123521Y-9340000D01*
G04 #@! TO.N,/E_CTRL_SCK*
X23477247Y-9871132D02*
X23154100Y-9871132D01*
X24006220Y-9752000D02*
X23887088Y-9871132D01*
X23887088Y-9871132D02*
X23477247Y-9871132D01*
G04 #@! TO.N,/E_CTRL_SS*
X24006220Y-10252000D02*
X23383580Y-10252000D01*
X23383580Y-10252000D02*
X23352020Y-10283560D01*
X23352020Y-10283560D02*
X23123521Y-10512059D01*
G04 #@! TO.N,/PIO7*
X13355000Y-3945000D02*
X13031853Y-3945000D01*
X12296501Y-3209648D02*
X12665000Y-3578147D01*
X12296501Y-2603499D02*
X12296501Y-3209648D01*
X12525000Y-2375000D02*
X12296501Y-2603499D01*
X13031853Y-3945000D02*
X12665000Y-3578147D01*
G04 #@! TO.N,/VX*
X9405030Y-18271883D02*
X9405030Y-18595030D01*
X9405030Y-16544566D02*
X9405030Y-18271883D01*
X9429798Y-16519798D02*
X9405030Y-16544566D01*
G04 #@! TO.N,/AMUX*
X7785130Y-16274610D02*
X8013629Y-16046111D01*
X7044740Y-17015000D02*
X7785130Y-16274610D01*
X4330318Y-18709682D02*
X3785000Y-18164364D01*
X3785000Y-18164364D02*
X3785000Y-17655000D01*
X4425000Y-17015000D02*
X7044740Y-17015000D01*
X3785000Y-17655000D02*
X4425000Y-17015000D01*
G04 #@! TO.N,/DMUX*
X9355000Y-19145000D02*
X8415000Y-19145000D01*
X11506000Y-14051500D02*
X10525000Y-15032500D01*
X8415000Y-19145000D02*
X7825000Y-18555000D01*
X10525000Y-15032500D02*
X10525000Y-17975000D01*
X11506000Y-11794000D02*
X11506000Y-14051500D01*
X10525000Y-17975000D02*
X9355000Y-19145000D01*
G04 #@! TO.N,/FLASH_CLK*
X23356220Y-11752000D02*
X24006220Y-11752000D01*
X22321000Y-11752000D02*
X23356220Y-11752000D01*
X15479000Y-10022000D02*
X15479000Y-13669000D01*
X21603000Y-16467194D02*
X21603000Y-12470000D01*
X14711000Y-9254000D02*
X15479000Y-10022000D01*
X21603000Y-12470000D02*
X22321000Y-11752000D01*
X18090010Y-17292002D02*
X20778192Y-17292002D01*
X17487022Y-16689014D02*
X18090010Y-17292002D01*
X8937000Y-7428500D02*
X10762500Y-9254000D01*
X17487022Y-15677022D02*
X17487022Y-16689014D01*
X10762500Y-9254000D02*
X14711000Y-9254000D01*
X20778192Y-17292002D02*
X21603000Y-16467194D01*
X15479000Y-13669000D02*
X17487022Y-15677022D01*
G04 #@! TO.N,/FLASH_CS*
X22566000Y-12252000D02*
X24006220Y-12252000D01*
X22198000Y-12620000D02*
X22566000Y-12252000D01*
X8958786Y-9064130D02*
X9498678Y-9604022D01*
X17137000Y-16833996D02*
X17945028Y-17642024D01*
X15128978Y-10180478D02*
X15128978Y-13813982D01*
X17137000Y-15822004D02*
X17137000Y-16833996D01*
X22052000Y-14266500D02*
X22163500Y-14155000D01*
X22052000Y-16513198D02*
X22052000Y-14266500D01*
X17945028Y-17642024D02*
X20923174Y-17642024D01*
X14552522Y-9604022D02*
X15128978Y-10180478D01*
X9498678Y-9604022D02*
X14552522Y-9604022D01*
X15128978Y-13813982D02*
X17137000Y-15822004D01*
X20923174Y-17642024D02*
X22052000Y-16513198D01*
G04 #@! TO.N,/FLASH_IO0*
X20850683Y-17467013D02*
X21810000Y-16507696D01*
X15303989Y-10107987D02*
X15303989Y-13741491D01*
X22642000Y-12752000D02*
X23356220Y-12752000D01*
X17312011Y-16761505D02*
X18017519Y-17467013D01*
X17312011Y-15749513D02*
X17312011Y-16761505D01*
X21810000Y-16507696D02*
X21810000Y-13584000D01*
X8576782Y-8181500D02*
X9824293Y-9429011D01*
X21810000Y-13584000D02*
X22642000Y-12752000D01*
X9824293Y-9429011D02*
X14625013Y-9429011D01*
X23356220Y-12752000D02*
X24006220Y-12752000D01*
X18017519Y-17467013D02*
X20850683Y-17467013D01*
X14625013Y-9429011D02*
X15303989Y-10107987D01*
X15303989Y-13741491D02*
X17312011Y-15749513D01*
G04 #@! TO.N,/FLASH_IO1*
X14618501Y-10353501D02*
X14953967Y-10688967D01*
X14953967Y-10688967D02*
X14953967Y-13886473D01*
X14953967Y-13886473D02*
X16952000Y-15884506D01*
X16952000Y-15884506D02*
X16952000Y-16896498D01*
X23589682Y-13252000D02*
X24006220Y-13252000D01*
X8650532Y-10353501D02*
X14618501Y-10353501D01*
X8242231Y-9945200D02*
X8650532Y-10353501D01*
X22265000Y-16547700D02*
X22265000Y-14576682D01*
X17872537Y-17817035D02*
X20995665Y-17817035D01*
X22265000Y-14576682D02*
X23589682Y-13252000D01*
X20995665Y-17817035D02*
X22265000Y-16547700D01*
X16952000Y-16896498D02*
X17872537Y-17817035D01*
G04 #@! TO.N,/FLASH_IO2*
X7698646Y-10048945D02*
X8186701Y-10537000D01*
X22508191Y-16552011D02*
X22508191Y-14585809D01*
X8186701Y-10537000D02*
X14355000Y-10537000D01*
X14778956Y-13958964D02*
X16759000Y-15939008D01*
X23342000Y-13752000D02*
X23698000Y-13752000D01*
X22508191Y-14585809D02*
X23342000Y-13752000D01*
X16759000Y-15939008D02*
X16759000Y-16951000D01*
X14778956Y-10960956D02*
X14778956Y-13958964D01*
X21068156Y-17992046D02*
X22508191Y-16552011D01*
X16759000Y-16951000D02*
X17800046Y-17992046D01*
X14355000Y-10537000D02*
X14778956Y-10960956D01*
X17800046Y-17992046D02*
X21068156Y-17992046D01*
G04 #@! TO.N,/FLASH_IO3*
X14557000Y-13484000D02*
X14557000Y-13712000D01*
X14557000Y-11133818D02*
X14557000Y-13484000D01*
X7690010Y-10718010D02*
X14141192Y-10718010D01*
X7885255Y-9550745D02*
X7562108Y-9550745D01*
X7562108Y-9550745D02*
X7345145Y-9767708D01*
X7345145Y-9767708D02*
X7345145Y-10373145D01*
X14141192Y-10718010D02*
X14557000Y-11133818D01*
X7345145Y-10373145D02*
X7690010Y-10718010D01*
X14557000Y-13984510D02*
X16583989Y-16011499D01*
X21140647Y-18167057D02*
X22683202Y-16624502D01*
X17727555Y-18167057D02*
X21140647Y-18167057D01*
X22683202Y-14856798D02*
X23288000Y-14252000D01*
X16583989Y-16011499D02*
X16583989Y-17023491D01*
X22683202Y-16624502D02*
X22683202Y-14856798D01*
X14557000Y-13484000D02*
X14557000Y-13984510D01*
X16583989Y-17023491D02*
X17727555Y-18167057D01*
X23288000Y-14252000D02*
X24006220Y-14252000D01*
G04 #@! TO.N,Net-(TP34-Pad1)*
X15905000Y-4475000D02*
X15905000Y-3125000D01*
X16735000Y-5305000D02*
X15905000Y-4475000D01*
X16735000Y-5864490D02*
X16735000Y-5305000D01*
X16361490Y-6238000D02*
X16735000Y-5864490D01*
G04 #@! TO.N,/C_CSI_D1_OUT_N*
X19475000Y-7268147D02*
X19475000Y-6945000D01*
X19475000Y-7439120D02*
X19475000Y-7268147D01*
X19162120Y-7752000D02*
X19475000Y-7439120D01*
X18512120Y-7752000D02*
X19162120Y-7752000D01*
G04 #@! TO.N,/C_CSI_D1_OUT_P*
X17902000Y-7252000D02*
X18512120Y-7252000D01*
X17525000Y-6875000D02*
X17902000Y-7252000D01*
G04 #@! TO.N,/PIO14*
X14032001Y-4859501D02*
X14032001Y-3162001D01*
X16397500Y-7225000D02*
X14032001Y-4859501D01*
X16815000Y-7225000D02*
X16397500Y-7225000D01*
X14032001Y-3162001D02*
X13260000Y-2390000D01*
X13260000Y-1537225D02*
X13682205Y-1115020D01*
X13260000Y-2390000D02*
X13260000Y-1537225D01*
X16180192Y-1115020D02*
X16414748Y-1349576D01*
X13682205Y-1115020D02*
X16180192Y-1115020D01*
G04 #@! TO.N,/PIO13*
X15855000Y-5615000D02*
X14959401Y-4719401D01*
X15855000Y-6435000D02*
X15855000Y-5615000D01*
X14959401Y-2787074D02*
X13746367Y-1574040D01*
X16943182Y-6830000D02*
X16250000Y-6830000D01*
X14959401Y-4719401D02*
X14959401Y-2787074D01*
X17656963Y-7543781D02*
X16943182Y-6830000D01*
X17656963Y-8336963D02*
X17656963Y-7543781D01*
X16250000Y-6830000D02*
X15855000Y-6435000D01*
G04 #@! TO.N,/PROG_LP_CSI_D1_OUT_P*
X16821536Y-1233182D02*
X16528364Y-940010D01*
X16821536Y-4553036D02*
X16821536Y-1233182D01*
X17168500Y-4900000D02*
X16821536Y-4553036D01*
X16528364Y-940010D02*
X13060000Y-940010D01*
X12580010Y-1420000D02*
X13060000Y-940010D01*
X10770000Y-1420000D02*
X12580010Y-1420000D01*
G04 #@! TD*
M02*
