G04 #@! TF.GenerationSoftware,KiCad,Pcbnew,5.0.2+dfsg1-1~bpo9+1*
G04 #@! TF.CreationDate,2019-10-17T14:08:20+02:00*
G04 #@! TF.ProjectId,zglue-jade-adapter,7a676c75-652d-46a6-9164-652d61646170,rev?*
G04 #@! TF.SameCoordinates,Original*
G04 #@! TF.FileFunction,Other,User*
%FSLAX46Y46*%
G04 Gerber Fmt 4.6, Leading zero omitted, Abs format (unit mm)*
G04 Created by KiCad (PCBNEW 5.0.2+dfsg1-1~bpo9+1) date Thu 17 Oct 2019 02:08:20 PM CEST*
%MOMM*%
%LPD*%
G01*
G04 APERTURE LIST*
%ADD10C,0.050000*%
G04 APERTURE END LIST*
D10*
G04 #@! TO.C,C7*
X7165000Y-8140000D02*
X6225000Y-8140000D01*
X6225000Y-8140000D02*
X6225000Y-6280000D01*
X6225000Y-6280000D02*
X7165000Y-6280000D01*
X7165000Y-6280000D02*
X7165000Y-8140000D01*
G04 #@! TO.C,C6*
X16675000Y-12795000D02*
X17615000Y-12795000D01*
X17615000Y-12795000D02*
X17615000Y-14655000D01*
X17615000Y-14655000D02*
X16675000Y-14655000D01*
X16675000Y-14655000D02*
X16675000Y-12795000D01*
G04 #@! TO.C,C5*
X17625000Y-12605000D02*
X16685000Y-12605000D01*
X16685000Y-12605000D02*
X16685000Y-10745000D01*
X16685000Y-10745000D02*
X17625000Y-10745000D01*
X17625000Y-10745000D02*
X17625000Y-12605000D01*
G04 #@! TO.C,C4*
X11265000Y-16935000D02*
X12205000Y-16935000D01*
X12205000Y-16935000D02*
X12205000Y-18795000D01*
X12205000Y-18795000D02*
X11265000Y-18795000D01*
X11265000Y-18795000D02*
X11265000Y-16935000D01*
G04 #@! TO.C,C3*
X8215000Y-8140000D02*
X7275000Y-8140000D01*
X7275000Y-8140000D02*
X7275000Y-6280000D01*
X7275000Y-6280000D02*
X8215000Y-6280000D01*
X8215000Y-6280000D02*
X8215000Y-8140000D01*
G04 #@! TO.C,C2*
X17725000Y-12795000D02*
X18665000Y-12795000D01*
X18665000Y-12795000D02*
X18665000Y-14655000D01*
X18665000Y-14655000D02*
X17725000Y-14655000D01*
X17725000Y-14655000D02*
X17725000Y-12795000D01*
G04 #@! TO.C,C10*
X9800000Y-15705000D02*
X10740000Y-15705000D01*
X10740000Y-15705000D02*
X10740000Y-17565000D01*
X10740000Y-17565000D02*
X9800000Y-17565000D01*
X9800000Y-17565000D02*
X9800000Y-15705000D01*
G04 #@! TO.C,C14*
X7220000Y-9425000D02*
X7220000Y-10365000D01*
X7220000Y-10365000D02*
X5360000Y-10365000D01*
X5360000Y-10365000D02*
X5360000Y-9425000D01*
X5360000Y-9425000D02*
X7220000Y-9425000D01*
G04 #@! TO.C,C1*
X18675000Y-12605000D02*
X17735000Y-12605000D01*
X17735000Y-12605000D02*
X17735000Y-10745000D01*
X17735000Y-10745000D02*
X18675000Y-10745000D01*
X18675000Y-10745000D02*
X18675000Y-12605000D01*
G04 #@! TO.C,R11*
X3505000Y-13645000D02*
X3505000Y-12705000D01*
X3505000Y-12705000D02*
X5365000Y-12705000D01*
X5365000Y-12705000D02*
X5365000Y-13645000D01*
X5365000Y-13645000D02*
X3505000Y-13645000D01*
G04 #@! TO.C,R9*
X5360000Y-12395000D02*
X5360000Y-11455000D01*
X5360000Y-11455000D02*
X7220000Y-11455000D01*
X7220000Y-11455000D02*
X7220000Y-12395000D01*
X7220000Y-12395000D02*
X5360000Y-12395000D01*
G04 #@! TO.C,R8*
X6075000Y-16135000D02*
X6075000Y-15195000D01*
X6075000Y-15195000D02*
X7935000Y-15195000D01*
X7935000Y-15195000D02*
X7935000Y-16135000D01*
X7935000Y-16135000D02*
X6075000Y-16135000D01*
G04 #@! TO.C,R7*
X6065000Y-15045000D02*
X6065000Y-14105000D01*
X6065000Y-14105000D02*
X7925000Y-14105000D01*
X7925000Y-14105000D02*
X7925000Y-15045000D01*
X7925000Y-15045000D02*
X6065000Y-15045000D01*
G04 #@! TO.C,R5*
X11125000Y-17965000D02*
X11125000Y-18905000D01*
X11125000Y-18905000D02*
X9265000Y-18905000D01*
X9265000Y-18905000D02*
X9265000Y-17965000D01*
X9265000Y-17965000D02*
X11125000Y-17965000D01*
G04 #@! TO.C,R4*
X12345000Y-15865000D02*
X13285000Y-15865000D01*
X13285000Y-15865000D02*
X13285000Y-17725000D01*
X13285000Y-17725000D02*
X12345000Y-17725000D01*
X12345000Y-17725000D02*
X12345000Y-15865000D01*
G04 #@! TO.C,R3*
X5225000Y-6280000D02*
X6165000Y-6280000D01*
X6165000Y-6280000D02*
X6165000Y-8140000D01*
X6165000Y-8140000D02*
X5225000Y-8140000D01*
X5225000Y-8140000D02*
X5225000Y-6280000D01*
G04 #@! TO.C,R2*
X18775000Y-12795000D02*
X19715000Y-12795000D01*
X19715000Y-12795000D02*
X19715000Y-14655000D01*
X19715000Y-14655000D02*
X18775000Y-14655000D01*
X18775000Y-14655000D02*
X18775000Y-12795000D01*
G04 #@! TO.C,R1*
X19715000Y-12605000D02*
X18775000Y-12605000D01*
X18775000Y-12605000D02*
X18775000Y-10745000D01*
X18775000Y-10745000D02*
X19715000Y-10745000D01*
X19715000Y-10745000D02*
X19715000Y-12605000D01*
G04 #@! TO.C,C15*
X7220000Y-10445000D02*
X7220000Y-11385000D01*
X7220000Y-11385000D02*
X5360000Y-11385000D01*
X5360000Y-11385000D02*
X5360000Y-10445000D01*
X5360000Y-10445000D02*
X7220000Y-10445000D01*
G04 #@! TO.C,C9*
X8175000Y-8190000D02*
X8175000Y-9130000D01*
X8175000Y-9130000D02*
X6315000Y-9130000D01*
X6315000Y-9130000D02*
X6315000Y-8190000D01*
X6315000Y-8190000D02*
X8175000Y-8190000D01*
G04 #@! TO.C,C11*
X7375000Y-11180000D02*
X8315000Y-11180000D01*
X8315000Y-11180000D02*
X8315000Y-13040000D01*
X8315000Y-13040000D02*
X7375000Y-13040000D01*
X7375000Y-13040000D02*
X7375000Y-11180000D01*
G04 #@! TO.C,R22*
X20815000Y-11725000D02*
X20815000Y-10785000D01*
X20815000Y-10785000D02*
X22675000Y-10785000D01*
X22675000Y-10785000D02*
X22675000Y-11725000D01*
X22675000Y-11725000D02*
X20815000Y-11725000D01*
G04 #@! TO.C,R21*
X20815000Y-10725000D02*
X20815000Y-9785000D01*
X20815000Y-9785000D02*
X22675000Y-9785000D01*
X22675000Y-9785000D02*
X22675000Y-10725000D01*
X22675000Y-10725000D02*
X20815000Y-10725000D01*
G04 #@! TO.C,R20*
X20815000Y-9725000D02*
X20815000Y-8785000D01*
X20815000Y-8785000D02*
X22675000Y-8785000D01*
X22675000Y-8785000D02*
X22675000Y-9725000D01*
X22675000Y-9725000D02*
X20815000Y-9725000D01*
G04 #@! TO.C,R19*
X20815000Y-8725000D02*
X20815000Y-7785000D01*
X20815000Y-7785000D02*
X22675000Y-7785000D01*
X22675000Y-7785000D02*
X22675000Y-8725000D01*
X22675000Y-8725000D02*
X20815000Y-8725000D01*
G04 #@! TO.C,R18*
X20815000Y-7725000D02*
X20815000Y-6785000D01*
X20815000Y-6785000D02*
X22675000Y-6785000D01*
X22675000Y-6785000D02*
X22675000Y-7725000D01*
X22675000Y-7725000D02*
X20815000Y-7725000D01*
G04 #@! TO.C,R17*
X20815000Y-6725000D02*
X20815000Y-5785000D01*
X20815000Y-5785000D02*
X22675000Y-5785000D01*
X22675000Y-5785000D02*
X22675000Y-6725000D01*
X22675000Y-6725000D02*
X20815000Y-6725000D01*
G04 #@! TO.C,R16*
X20815000Y-5725000D02*
X20815000Y-4785000D01*
X20815000Y-4785000D02*
X22675000Y-4785000D01*
X22675000Y-4785000D02*
X22675000Y-5725000D01*
X22675000Y-5725000D02*
X20815000Y-5725000D01*
G04 #@! TO.C,R15*
X20815000Y-4725000D02*
X20815000Y-3785000D01*
X20815000Y-3785000D02*
X22675000Y-3785000D01*
X22675000Y-3785000D02*
X22675000Y-4725000D01*
X22675000Y-4725000D02*
X20815000Y-4725000D01*
G04 #@! TD*
M02*
