G04 #@! TF.GenerationSoftware,KiCad,Pcbnew,5.0.2+dfsg1-1~bpo9+1*
G04 #@! TF.CreationDate,2019-10-30T13:33:32+01:00*
G04 #@! TF.ProjectId,zglue-jade-adapter,7a676c75-652d-46a6-9164-652d61646170,rev?*
G04 #@! TF.SameCoordinates,Original*
G04 #@! TF.FileFunction,Soldermask,Bot*
G04 #@! TF.FilePolarity,Negative*
%FSLAX46Y46*%
G04 Gerber Fmt 4.6, Leading zero omitted, Abs format (unit mm)*
G04 Created by KiCad (PCBNEW 5.0.2+dfsg1-1~bpo9+1) date Wed 30 Oct 2019 01:33:32 PM CET*
%MOMM*%
%LPD*%
G01*
G04 APERTURE LIST*
%ADD10C,0.100000*%
G04 APERTURE END LIST*
D10*
G36*
X24529260Y-16659500D02*
X23107260Y-16659500D01*
X23107260Y-15257500D01*
X24529260Y-15257500D01*
X24529260Y-16659500D01*
X24529260Y-16659500D01*
G37*
G36*
X7029260Y-16659500D02*
X5607260Y-16659500D01*
X5607260Y-15257500D01*
X7029260Y-15257500D01*
X7029260Y-16659500D01*
X7029260Y-16659500D01*
G37*
G36*
X19408620Y-16654420D02*
X17986620Y-16654420D01*
X17986620Y-15252420D01*
X19408620Y-15252420D01*
X19408620Y-16654420D01*
X19408620Y-16654420D01*
G37*
G36*
X1908620Y-16654420D02*
X486620Y-16654420D01*
X486620Y-15252420D01*
X1908620Y-15252420D01*
X1908620Y-16654420D01*
X1908620Y-16654420D01*
G37*
G36*
X1608120Y-14953000D02*
X406120Y-14953000D01*
X406120Y-5051000D01*
X1608120Y-5051000D01*
X1608120Y-14953000D01*
X1608120Y-14953000D01*
G37*
G36*
X24607220Y-14953000D02*
X23405220Y-14953000D01*
X23405220Y-5051000D01*
X24607220Y-5051000D01*
X24607220Y-14953000D01*
X24607220Y-14953000D01*
G37*
G36*
X19108120Y-14953000D02*
X17906120Y-14953000D01*
X17906120Y-5051000D01*
X19108120Y-5051000D01*
X19108120Y-14953000D01*
X19108120Y-14953000D01*
G37*
G36*
X7107220Y-14953000D02*
X5905220Y-14953000D01*
X5905220Y-5051000D01*
X7107220Y-5051000D01*
X7107220Y-14953000D01*
X7107220Y-14953000D01*
G37*
G36*
X14131527Y-10881241D02*
X14182394Y-10902311D01*
X14228172Y-10932899D01*
X14267101Y-10971828D01*
X14297689Y-11017606D01*
X14318759Y-11068473D01*
X14329500Y-11122471D01*
X14329500Y-11177529D01*
X14318759Y-11231527D01*
X14297689Y-11282394D01*
X14267101Y-11328172D01*
X14228172Y-11367101D01*
X14182394Y-11397689D01*
X14131527Y-11418759D01*
X14077529Y-11429500D01*
X14022471Y-11429500D01*
X13968473Y-11418759D01*
X13917606Y-11397689D01*
X13871828Y-11367101D01*
X13832899Y-11328172D01*
X13802311Y-11282394D01*
X13781241Y-11231527D01*
X13770500Y-11177529D01*
X13770500Y-11122471D01*
X13781241Y-11068473D01*
X13802311Y-11017606D01*
X13832899Y-10971828D01*
X13871828Y-10932899D01*
X13917606Y-10902311D01*
X13968473Y-10881241D01*
X14022471Y-10870500D01*
X14077529Y-10870500D01*
X14131527Y-10881241D01*
X14131527Y-10881241D01*
G37*
G36*
X11031527Y-10881241D02*
X11082394Y-10902311D01*
X11128172Y-10932899D01*
X11167101Y-10971828D01*
X11197689Y-11017606D01*
X11218759Y-11068473D01*
X11229500Y-11122471D01*
X11229500Y-11177529D01*
X11218759Y-11231527D01*
X11197689Y-11282394D01*
X11167101Y-11328172D01*
X11128172Y-11367101D01*
X11082394Y-11397689D01*
X11031527Y-11418759D01*
X10977529Y-11429500D01*
X10922471Y-11429500D01*
X10868473Y-11418759D01*
X10817606Y-11397689D01*
X10771828Y-11367101D01*
X10732899Y-11328172D01*
X10702311Y-11282394D01*
X10681241Y-11231527D01*
X10670500Y-11177529D01*
X10670500Y-11122471D01*
X10681241Y-11068473D01*
X10702311Y-11017606D01*
X10732899Y-10971828D01*
X10771828Y-10932899D01*
X10817606Y-10902311D01*
X10868473Y-10881241D01*
X10922471Y-10870500D01*
X10977529Y-10870500D01*
X11031527Y-10881241D01*
X11031527Y-10881241D01*
G37*
G36*
X13181527Y-10881241D02*
X13232394Y-10902311D01*
X13278172Y-10932899D01*
X13317101Y-10971828D01*
X13347689Y-11017606D01*
X13368759Y-11068473D01*
X13379500Y-11122471D01*
X13379500Y-11177529D01*
X13368759Y-11231527D01*
X13347689Y-11282394D01*
X13317101Y-11328172D01*
X13278172Y-11367101D01*
X13232394Y-11397689D01*
X13181527Y-11418759D01*
X13127529Y-11429500D01*
X13072471Y-11429500D01*
X13018473Y-11418759D01*
X12967606Y-11397689D01*
X12921828Y-11367101D01*
X12882899Y-11328172D01*
X12852311Y-11282394D01*
X12831241Y-11231527D01*
X12820500Y-11177529D01*
X12820500Y-11122471D01*
X12831241Y-11068473D01*
X12852311Y-11017606D01*
X12882899Y-10971828D01*
X12921828Y-10932899D01*
X12967606Y-10902311D01*
X13018473Y-10881241D01*
X13072471Y-10870500D01*
X13127529Y-10870500D01*
X13181527Y-10881241D01*
X13181527Y-10881241D01*
G37*
G36*
X11981527Y-10881241D02*
X12032394Y-10902311D01*
X12078172Y-10932899D01*
X12117101Y-10971828D01*
X12147689Y-11017606D01*
X12168759Y-11068473D01*
X12179500Y-11122471D01*
X12179500Y-11177529D01*
X12168759Y-11231527D01*
X12147689Y-11282394D01*
X12117101Y-11328172D01*
X12078172Y-11367101D01*
X12032394Y-11397689D01*
X11981527Y-11418759D01*
X11927529Y-11429500D01*
X11872471Y-11429500D01*
X11818473Y-11418759D01*
X11767606Y-11397689D01*
X11721828Y-11367101D01*
X11682899Y-11328172D01*
X11652311Y-11282394D01*
X11631241Y-11231527D01*
X11620500Y-11177529D01*
X11620500Y-11122471D01*
X11631241Y-11068473D01*
X11652311Y-11017606D01*
X11682899Y-10971828D01*
X11721828Y-10932899D01*
X11767606Y-10902311D01*
X11818473Y-10881241D01*
X11872471Y-10870500D01*
X11927529Y-10870500D01*
X11981527Y-10881241D01*
X11981527Y-10881241D01*
G37*
G36*
X13181527Y-9731241D02*
X13232394Y-9752311D01*
X13278172Y-9782899D01*
X13317101Y-9821828D01*
X13347689Y-9867606D01*
X13368759Y-9918473D01*
X13379500Y-9972471D01*
X13379500Y-10027529D01*
X13368759Y-10081527D01*
X13347689Y-10132394D01*
X13317101Y-10178172D01*
X13278172Y-10217101D01*
X13232394Y-10247689D01*
X13181527Y-10268759D01*
X13127529Y-10279500D01*
X13072471Y-10279500D01*
X13018473Y-10268759D01*
X12967606Y-10247689D01*
X12921828Y-10217101D01*
X12882899Y-10178172D01*
X12852311Y-10132394D01*
X12831241Y-10081527D01*
X12820500Y-10027529D01*
X12820500Y-9972471D01*
X12831241Y-9918473D01*
X12852311Y-9867606D01*
X12882899Y-9821828D01*
X12921828Y-9782899D01*
X12967606Y-9752311D01*
X13018473Y-9731241D01*
X13072471Y-9720500D01*
X13127529Y-9720500D01*
X13181527Y-9731241D01*
X13181527Y-9731241D01*
G37*
G36*
X11031527Y-9731241D02*
X11082394Y-9752311D01*
X11128172Y-9782899D01*
X11167101Y-9821828D01*
X11197689Y-9867606D01*
X11218759Y-9918473D01*
X11229500Y-9972471D01*
X11229500Y-10027529D01*
X11218759Y-10081527D01*
X11197689Y-10132394D01*
X11167101Y-10178172D01*
X11128172Y-10217101D01*
X11082394Y-10247689D01*
X11031527Y-10268759D01*
X10977529Y-10279500D01*
X10922471Y-10279500D01*
X10868473Y-10268759D01*
X10817606Y-10247689D01*
X10771828Y-10217101D01*
X10732899Y-10178172D01*
X10702311Y-10132394D01*
X10681241Y-10081527D01*
X10670500Y-10027529D01*
X10670500Y-9972471D01*
X10681241Y-9918473D01*
X10702311Y-9867606D01*
X10732899Y-9821828D01*
X10771828Y-9782899D01*
X10817606Y-9752311D01*
X10868473Y-9731241D01*
X10922471Y-9720500D01*
X10977529Y-9720500D01*
X11031527Y-9731241D01*
X11031527Y-9731241D01*
G37*
G36*
X11981527Y-9731241D02*
X12032394Y-9752311D01*
X12078172Y-9782899D01*
X12117101Y-9821828D01*
X12147689Y-9867606D01*
X12168759Y-9918473D01*
X12179500Y-9972471D01*
X12179500Y-10027529D01*
X12168759Y-10081527D01*
X12147689Y-10132394D01*
X12117101Y-10178172D01*
X12078172Y-10217101D01*
X12032394Y-10247689D01*
X11981527Y-10268759D01*
X11927529Y-10279500D01*
X11872471Y-10279500D01*
X11818473Y-10268759D01*
X11767606Y-10247689D01*
X11721828Y-10217101D01*
X11682899Y-10178172D01*
X11652311Y-10132394D01*
X11631241Y-10081527D01*
X11620500Y-10027529D01*
X11620500Y-9972471D01*
X11631241Y-9918473D01*
X11652311Y-9867606D01*
X11682899Y-9821828D01*
X11721828Y-9782899D01*
X11767606Y-9752311D01*
X11818473Y-9731241D01*
X11872471Y-9720500D01*
X11927529Y-9720500D01*
X11981527Y-9731241D01*
X11981527Y-9731241D01*
G37*
G36*
X14131527Y-9731241D02*
X14182394Y-9752311D01*
X14228172Y-9782899D01*
X14267101Y-9821828D01*
X14297689Y-9867606D01*
X14318759Y-9918473D01*
X14329500Y-9972471D01*
X14329500Y-10027529D01*
X14318759Y-10081527D01*
X14297689Y-10132394D01*
X14267101Y-10178172D01*
X14228172Y-10217101D01*
X14182394Y-10247689D01*
X14131527Y-10268759D01*
X14077529Y-10279500D01*
X14022471Y-10279500D01*
X13968473Y-10268759D01*
X13917606Y-10247689D01*
X13871828Y-10217101D01*
X13832899Y-10178172D01*
X13802311Y-10132394D01*
X13781241Y-10081527D01*
X13770500Y-10027529D01*
X13770500Y-9972471D01*
X13781241Y-9918473D01*
X13802311Y-9867606D01*
X13832899Y-9821828D01*
X13871828Y-9782899D01*
X13917606Y-9752311D01*
X13968473Y-9731241D01*
X14022471Y-9720500D01*
X14077529Y-9720500D01*
X14131527Y-9731241D01*
X14131527Y-9731241D01*
G37*
G36*
X11031527Y-8581241D02*
X11082394Y-8602311D01*
X11128172Y-8632899D01*
X11167101Y-8671828D01*
X11197689Y-8717606D01*
X11218759Y-8768473D01*
X11229500Y-8822471D01*
X11229500Y-8877529D01*
X11218759Y-8931527D01*
X11197689Y-8982394D01*
X11167101Y-9028172D01*
X11128172Y-9067101D01*
X11082394Y-9097689D01*
X11031527Y-9118759D01*
X10977529Y-9129500D01*
X10922471Y-9129500D01*
X10868473Y-9118759D01*
X10817606Y-9097689D01*
X10771828Y-9067101D01*
X10732899Y-9028172D01*
X10702311Y-8982394D01*
X10681241Y-8931527D01*
X10670500Y-8877529D01*
X10670500Y-8822471D01*
X10681241Y-8768473D01*
X10702311Y-8717606D01*
X10732899Y-8671828D01*
X10771828Y-8632899D01*
X10817606Y-8602311D01*
X10868473Y-8581241D01*
X10922471Y-8570500D01*
X10977529Y-8570500D01*
X11031527Y-8581241D01*
X11031527Y-8581241D01*
G37*
G36*
X13181527Y-8581241D02*
X13232394Y-8602311D01*
X13278172Y-8632899D01*
X13317101Y-8671828D01*
X13347689Y-8717606D01*
X13368759Y-8768473D01*
X13379500Y-8822471D01*
X13379500Y-8877529D01*
X13368759Y-8931527D01*
X13347689Y-8982394D01*
X13317101Y-9028172D01*
X13278172Y-9067101D01*
X13232394Y-9097689D01*
X13181527Y-9118759D01*
X13127529Y-9129500D01*
X13072471Y-9129500D01*
X13018473Y-9118759D01*
X12967606Y-9097689D01*
X12921828Y-9067101D01*
X12882899Y-9028172D01*
X12852311Y-8982394D01*
X12831241Y-8931527D01*
X12820500Y-8877529D01*
X12820500Y-8822471D01*
X12831241Y-8768473D01*
X12852311Y-8717606D01*
X12882899Y-8671828D01*
X12921828Y-8632899D01*
X12967606Y-8602311D01*
X13018473Y-8581241D01*
X13072471Y-8570500D01*
X13127529Y-8570500D01*
X13181527Y-8581241D01*
X13181527Y-8581241D01*
G37*
G36*
X11931527Y-8581241D02*
X11982394Y-8602311D01*
X12028172Y-8632899D01*
X12067101Y-8671828D01*
X12097689Y-8717606D01*
X12118759Y-8768473D01*
X12129500Y-8822471D01*
X12129500Y-8877529D01*
X12118759Y-8931527D01*
X12097689Y-8982394D01*
X12067101Y-9028172D01*
X12028172Y-9067101D01*
X11982394Y-9097689D01*
X11931527Y-9118759D01*
X11877529Y-9129500D01*
X11822471Y-9129500D01*
X11768473Y-9118759D01*
X11717606Y-9097689D01*
X11671828Y-9067101D01*
X11632899Y-9028172D01*
X11602311Y-8982394D01*
X11581241Y-8931527D01*
X11570500Y-8877529D01*
X11570500Y-8822471D01*
X11581241Y-8768473D01*
X11602311Y-8717606D01*
X11632899Y-8671828D01*
X11671828Y-8632899D01*
X11717606Y-8602311D01*
X11768473Y-8581241D01*
X11822471Y-8570500D01*
X11877529Y-8570500D01*
X11931527Y-8581241D01*
X11931527Y-8581241D01*
G37*
G36*
X14131527Y-8581241D02*
X14182394Y-8602311D01*
X14228172Y-8632899D01*
X14267101Y-8671828D01*
X14297689Y-8717606D01*
X14318759Y-8768473D01*
X14329500Y-8822471D01*
X14329500Y-8877529D01*
X14318759Y-8931527D01*
X14297689Y-8982394D01*
X14267101Y-9028172D01*
X14228172Y-9067101D01*
X14182394Y-9097689D01*
X14131527Y-9118759D01*
X14077529Y-9129500D01*
X14022471Y-9129500D01*
X13968473Y-9118759D01*
X13917606Y-9097689D01*
X13871828Y-9067101D01*
X13832899Y-9028172D01*
X13802311Y-8982394D01*
X13781241Y-8931527D01*
X13770500Y-8877529D01*
X13770500Y-8822471D01*
X13781241Y-8768473D01*
X13802311Y-8717606D01*
X13832899Y-8671828D01*
X13871828Y-8632899D01*
X13917606Y-8602311D01*
X13968473Y-8581241D01*
X14022471Y-8570500D01*
X14077529Y-8570500D01*
X14131527Y-8581241D01*
X14131527Y-8581241D01*
G37*
G36*
X7029260Y-4751980D02*
X5607260Y-4751980D01*
X5607260Y-3349980D01*
X7029260Y-3349980D01*
X7029260Y-4751980D01*
X7029260Y-4751980D01*
G37*
G36*
X24529260Y-4751980D02*
X23107260Y-4751980D01*
X23107260Y-3349980D01*
X24529260Y-3349980D01*
X24529260Y-4751980D01*
X24529260Y-4751980D01*
G37*
G36*
X19408620Y-4751980D02*
X17986620Y-4751980D01*
X17986620Y-3349980D01*
X19408620Y-3349980D01*
X19408620Y-4751980D01*
X19408620Y-4751980D01*
G37*
G36*
X1908620Y-4751980D02*
X486620Y-4751980D01*
X486620Y-3349980D01*
X1908620Y-3349980D01*
X1908620Y-4751980D01*
X1908620Y-4751980D01*
G37*
M02*
