G04 #@! TF.GenerationSoftware,KiCad,Pcbnew,5.0.2+dfsg1-1~bpo9+1*
G04 #@! TF.CreationDate,2019-10-28T12:22:29+01:00*
G04 #@! TF.ProjectId,zglue-jade-adapter,7a676c75-652d-46a6-9164-652d61646170,rev?*
G04 #@! TF.SameCoordinates,Original*
G04 #@! TF.FileFunction,Legend,Top*
G04 #@! TF.FilePolarity,Positive*
%FSLAX46Y46*%
G04 Gerber Fmt 4.6, Leading zero omitted, Abs format (unit mm)*
G04 Created by KiCad (PCBNEW 5.0.2+dfsg1-1~bpo9+1) date Mon 28 Oct 2019 12:22:29 PM CET*
%MOMM*%
%LPD*%
G01*
G04 APERTURE LIST*
%ADD10C,0.150000*%
%ADD11C,0.200000*%
%ADD12C,0.100000*%
%ADD13C,0.120000*%
G04 APERTURE END LIST*
D10*
X19773333Y-17696666D02*
X19540000Y-17363333D01*
X19373333Y-17696666D02*
X19373333Y-16996666D01*
X19640000Y-16996666D01*
X19706666Y-17030000D01*
X19740000Y-17063333D01*
X19773333Y-17130000D01*
X19773333Y-17230000D01*
X19740000Y-17296666D01*
X19706666Y-17330000D01*
X19640000Y-17363333D01*
X19373333Y-17363333D01*
X20340000Y-17663333D02*
X20273333Y-17696666D01*
X20140000Y-17696666D01*
X20073333Y-17663333D01*
X20040000Y-17596666D01*
X20040000Y-17330000D01*
X20073333Y-17263333D01*
X20140000Y-17230000D01*
X20273333Y-17230000D01*
X20340000Y-17263333D01*
X20373333Y-17330000D01*
X20373333Y-17396666D01*
X20040000Y-17463333D01*
X20606666Y-17230000D02*
X20773333Y-17696666D01*
X20940000Y-17230000D01*
X21206666Y-17630000D02*
X21240000Y-17663333D01*
X21206666Y-17696666D01*
X21173333Y-17663333D01*
X21206666Y-17630000D01*
X21206666Y-17696666D01*
X22440000Y-17696666D02*
X22040000Y-17696666D01*
X22240000Y-17696666D02*
X22240000Y-16996666D01*
X22173333Y-17096666D01*
X22106666Y-17163333D01*
X22040000Y-17196666D01*
X22740000Y-17630000D02*
X22773333Y-17663333D01*
X22740000Y-17696666D01*
X22706666Y-17663333D01*
X22740000Y-17630000D01*
X22740000Y-17696666D01*
X23206666Y-16996666D02*
X23273333Y-16996666D01*
X23340000Y-17030000D01*
X23373333Y-17063333D01*
X23406666Y-17130000D01*
X23440000Y-17263333D01*
X23440000Y-17430000D01*
X23406666Y-17563333D01*
X23373333Y-17630000D01*
X23340000Y-17663333D01*
X23273333Y-17696666D01*
X23206666Y-17696666D01*
X23140000Y-17663333D01*
X23106666Y-17630000D01*
X23073333Y-17563333D01*
X23040000Y-17430000D01*
X23040000Y-17263333D01*
X23073333Y-17130000D01*
X23106666Y-17063333D01*
X23140000Y-17030000D01*
X23206666Y-16996666D01*
X19556666Y-18896666D02*
X19156666Y-18896666D01*
X19356666Y-18896666D02*
X19356666Y-18196666D01*
X19290000Y-18296666D01*
X19223333Y-18363333D01*
X19156666Y-18396666D01*
X19990000Y-18196666D02*
X20056666Y-18196666D01*
X20123333Y-18230000D01*
X20156666Y-18263333D01*
X20190000Y-18330000D01*
X20223333Y-18463333D01*
X20223333Y-18630000D01*
X20190000Y-18763333D01*
X20156666Y-18830000D01*
X20123333Y-18863333D01*
X20056666Y-18896666D01*
X19990000Y-18896666D01*
X19923333Y-18863333D01*
X19890000Y-18830000D01*
X19856666Y-18763333D01*
X19823333Y-18630000D01*
X19823333Y-18463333D01*
X19856666Y-18330000D01*
X19890000Y-18263333D01*
X19923333Y-18230000D01*
X19990000Y-18196666D01*
X21023333Y-18163333D02*
X20423333Y-19063333D01*
X21223333Y-18263333D02*
X21256666Y-18230000D01*
X21323333Y-18196666D01*
X21490000Y-18196666D01*
X21556666Y-18230000D01*
X21590000Y-18263333D01*
X21623333Y-18330000D01*
X21623333Y-18396666D01*
X21590000Y-18496666D01*
X21190000Y-18896666D01*
X21623333Y-18896666D01*
X22056666Y-18196666D02*
X22123333Y-18196666D01*
X22190000Y-18230000D01*
X22223333Y-18263333D01*
X22256666Y-18330000D01*
X22290000Y-18463333D01*
X22290000Y-18630000D01*
X22256666Y-18763333D01*
X22223333Y-18830000D01*
X22190000Y-18863333D01*
X22123333Y-18896666D01*
X22056666Y-18896666D01*
X21990000Y-18863333D01*
X21956666Y-18830000D01*
X21923333Y-18763333D01*
X21890000Y-18630000D01*
X21890000Y-18463333D01*
X21923333Y-18330000D01*
X21956666Y-18263333D01*
X21990000Y-18230000D01*
X22056666Y-18196666D01*
X22956666Y-18896666D02*
X22556666Y-18896666D01*
X22756666Y-18896666D02*
X22756666Y-18196666D01*
X22690000Y-18296666D01*
X22623333Y-18363333D01*
X22556666Y-18396666D01*
X23290000Y-18896666D02*
X23423333Y-18896666D01*
X23490000Y-18863333D01*
X23523333Y-18830000D01*
X23590000Y-18730000D01*
X23623333Y-18596666D01*
X23623333Y-18330000D01*
X23590000Y-18263333D01*
X23556666Y-18230000D01*
X23490000Y-18196666D01*
X23356666Y-18196666D01*
X23290000Y-18230000D01*
X23256666Y-18263333D01*
X23223333Y-18330000D01*
X23223333Y-18496666D01*
X23256666Y-18563333D01*
X23290000Y-18596666D01*
X23356666Y-18630000D01*
X23490000Y-18630000D01*
X23556666Y-18596666D01*
X23590000Y-18563333D01*
X23623333Y-18496666D01*
D11*
X8750000Y-5400000D02*
G75*
G03X8750000Y-5400000I-150000J0D01*
G01*
D12*
G04 #@! TO.C,U1*
X15895000Y-14755000D02*
X15895000Y-5255000D01*
X9095000Y-14755000D02*
X9095000Y-5255000D01*
X15895000Y-14755000D02*
X9095000Y-14755000D01*
X15895000Y-5255000D02*
X9095000Y-5255000D01*
D13*
G04 #@! TO.C,C11*
X6110000Y-13320000D02*
X6110000Y-13920000D01*
X6710000Y-13320000D02*
X6710000Y-13920000D01*
G04 #@! TO.C,TP14*
D10*
X163333Y-4526666D02*
X563333Y-4526666D01*
X363333Y-5226666D02*
X363333Y-4526666D01*
X796666Y-5226666D02*
X796666Y-4526666D01*
X1063333Y-4526666D01*
X1129999Y-4560000D01*
X1163333Y-4593333D01*
X1196666Y-4660000D01*
X1196666Y-4760000D01*
X1163333Y-4826666D01*
X1129999Y-4860000D01*
X1063333Y-4893333D01*
X796666Y-4893333D01*
X1863333Y-5226666D02*
X1463333Y-5226666D01*
X1663333Y-5226666D02*
X1663333Y-4526666D01*
X1596666Y-4626666D01*
X1529999Y-4693333D01*
X1463333Y-4726666D01*
X2463333Y-4760000D02*
X2463333Y-5226666D01*
X2296666Y-4493333D02*
X2129999Y-4993333D01*
X2563333Y-4993333D01*
G04 #@! TO.C,TP15*
X163333Y-10486666D02*
X563333Y-10486666D01*
X363333Y-11186666D02*
X363333Y-10486666D01*
X796666Y-11186666D02*
X796666Y-10486666D01*
X1063333Y-10486666D01*
X1129999Y-10520000D01*
X1163333Y-10553333D01*
X1196666Y-10620000D01*
X1196666Y-10720000D01*
X1163333Y-10786666D01*
X1129999Y-10820000D01*
X1063333Y-10853333D01*
X796666Y-10853333D01*
X1863333Y-11186666D02*
X1463333Y-11186666D01*
X1663333Y-11186666D02*
X1663333Y-10486666D01*
X1596666Y-10586666D01*
X1529999Y-10653333D01*
X1463333Y-10686666D01*
X2496666Y-10486666D02*
X2163333Y-10486666D01*
X2129999Y-10820000D01*
X2163333Y-10786666D01*
X2229999Y-10753333D01*
X2396666Y-10753333D01*
X2463333Y-10786666D01*
X2496666Y-10820000D01*
X2529999Y-10886666D01*
X2529999Y-11053333D01*
X2496666Y-11120000D01*
X2463333Y-11153333D01*
X2396666Y-11186666D01*
X2229999Y-11186666D01*
X2163333Y-11153333D01*
X2129999Y-11120000D01*
G04 #@! TO.C,TP16*
X1833333Y-6146666D02*
X2233333Y-6146666D01*
X2033333Y-6846666D02*
X2033333Y-6146666D01*
X2466666Y-6846666D02*
X2466666Y-6146666D01*
X2733333Y-6146666D01*
X2800000Y-6180000D01*
X2833333Y-6213333D01*
X2866666Y-6280000D01*
X2866666Y-6380000D01*
X2833333Y-6446666D01*
X2800000Y-6480000D01*
X2733333Y-6513333D01*
X2466666Y-6513333D01*
X3533333Y-6846666D02*
X3133333Y-6846666D01*
X3333333Y-6846666D02*
X3333333Y-6146666D01*
X3266666Y-6246666D01*
X3199999Y-6313333D01*
X3133333Y-6346666D01*
X4133333Y-6146666D02*
X3999999Y-6146666D01*
X3933333Y-6180000D01*
X3899999Y-6213333D01*
X3833333Y-6313333D01*
X3799999Y-6446666D01*
X3799999Y-6713333D01*
X3833333Y-6780000D01*
X3866666Y-6813333D01*
X3933333Y-6846666D01*
X4066666Y-6846666D01*
X4133333Y-6813333D01*
X4166666Y-6780000D01*
X4200000Y-6713333D01*
X4200000Y-6546666D01*
X4166666Y-6480000D01*
X4133333Y-6446666D01*
X4066666Y-6413333D01*
X3933333Y-6413333D01*
X3866666Y-6446666D01*
X3833333Y-6480000D01*
X3799999Y-6546666D01*
G04 #@! TO.C,TP34*
X17563333Y-5526666D02*
X17963333Y-5526666D01*
X17763333Y-6226666D02*
X17763333Y-5526666D01*
X18196666Y-6226666D02*
X18196666Y-5526666D01*
X18463333Y-5526666D01*
X18530000Y-5560000D01*
X18563333Y-5593333D01*
X18596666Y-5660000D01*
X18596666Y-5760000D01*
X18563333Y-5826666D01*
X18530000Y-5860000D01*
X18463333Y-5893333D01*
X18196666Y-5893333D01*
X18830000Y-5526666D02*
X19263333Y-5526666D01*
X19030000Y-5793333D01*
X19130000Y-5793333D01*
X19196666Y-5826666D01*
X19230000Y-5860000D01*
X19263333Y-5926666D01*
X19263333Y-6093333D01*
X19230000Y-6160000D01*
X19196666Y-6193333D01*
X19130000Y-6226666D01*
X18930000Y-6226666D01*
X18863333Y-6193333D01*
X18830000Y-6160000D01*
X19863333Y-5760000D02*
X19863333Y-6226666D01*
X19696666Y-5493333D02*
X19530000Y-5993333D01*
X19963333Y-5993333D01*
G04 #@! TO.C,TP33*
X1243333Y-18166666D02*
X1643333Y-18166666D01*
X1443333Y-18866666D02*
X1443333Y-18166666D01*
X1876666Y-18866666D02*
X1876666Y-18166666D01*
X2143333Y-18166666D01*
X2210000Y-18200000D01*
X2243333Y-18233333D01*
X2276666Y-18300000D01*
X2276666Y-18400000D01*
X2243333Y-18466666D01*
X2210000Y-18500000D01*
X2143333Y-18533333D01*
X1876666Y-18533333D01*
X2509999Y-18166666D02*
X2943333Y-18166666D01*
X2709999Y-18433333D01*
X2809999Y-18433333D01*
X2876666Y-18466666D01*
X2909999Y-18500000D01*
X2943333Y-18566666D01*
X2943333Y-18733333D01*
X2909999Y-18800000D01*
X2876666Y-18833333D01*
X2809999Y-18866666D01*
X2609999Y-18866666D01*
X2543333Y-18833333D01*
X2509999Y-18800000D01*
X3176666Y-18166666D02*
X3609999Y-18166666D01*
X3376666Y-18433333D01*
X3476666Y-18433333D01*
X3543333Y-18466666D01*
X3576666Y-18500000D01*
X3609999Y-18566666D01*
X3609999Y-18733333D01*
X3576666Y-18800000D01*
X3543333Y-18833333D01*
X3476666Y-18866666D01*
X3276666Y-18866666D01*
X3209999Y-18833333D01*
X3176666Y-18800000D01*
G04 #@! TO.C,TP32*
X18233333Y-15156666D02*
X18633333Y-15156666D01*
X18433333Y-15856666D02*
X18433333Y-15156666D01*
X18866666Y-15856666D02*
X18866666Y-15156666D01*
X19133333Y-15156666D01*
X19200000Y-15190000D01*
X19233333Y-15223333D01*
X19266666Y-15290000D01*
X19266666Y-15390000D01*
X19233333Y-15456666D01*
X19200000Y-15490000D01*
X19133333Y-15523333D01*
X18866666Y-15523333D01*
X19500000Y-15156666D02*
X19933333Y-15156666D01*
X19700000Y-15423333D01*
X19800000Y-15423333D01*
X19866666Y-15456666D01*
X19900000Y-15490000D01*
X19933333Y-15556666D01*
X19933333Y-15723333D01*
X19900000Y-15790000D01*
X19866666Y-15823333D01*
X19800000Y-15856666D01*
X19600000Y-15856666D01*
X19533333Y-15823333D01*
X19500000Y-15790000D01*
X20200000Y-15223333D02*
X20233333Y-15190000D01*
X20300000Y-15156666D01*
X20466666Y-15156666D01*
X20533333Y-15190000D01*
X20566666Y-15223333D01*
X20600000Y-15290000D01*
X20600000Y-15356666D01*
X20566666Y-15456666D01*
X20166666Y-15856666D01*
X20600000Y-15856666D01*
G04 #@! TO.C,U1*
X7746666Y-6026666D02*
X7746666Y-6593333D01*
X7780000Y-6660000D01*
X7813333Y-6693333D01*
X7880000Y-6726666D01*
X8013333Y-6726666D01*
X8080000Y-6693333D01*
X8113333Y-6660000D01*
X8146666Y-6593333D01*
X8146666Y-6026666D01*
X8846666Y-6726666D02*
X8446666Y-6726666D01*
X8646666Y-6726666D02*
X8646666Y-6026666D01*
X8580000Y-6126666D01*
X8513333Y-6193333D01*
X8446666Y-6226666D01*
G04 #@! TO.C,C11*
X5440000Y-13710000D02*
X5473333Y-13743333D01*
X5506666Y-13843333D01*
X5506666Y-13910000D01*
X5473333Y-14010000D01*
X5406666Y-14076666D01*
X5340000Y-14110000D01*
X5206666Y-14143333D01*
X5106666Y-14143333D01*
X4973333Y-14110000D01*
X4906666Y-14076666D01*
X4840000Y-14010000D01*
X4806666Y-13910000D01*
X4806666Y-13843333D01*
X4840000Y-13743333D01*
X4873333Y-13710000D01*
X5506666Y-13043333D02*
X5506666Y-13443333D01*
X5506666Y-13243333D02*
X4806666Y-13243333D01*
X4906666Y-13310000D01*
X4973333Y-13376666D01*
X5006666Y-13443333D01*
X5506666Y-12376666D02*
X5506666Y-12776666D01*
X5506666Y-12576666D02*
X4806666Y-12576666D01*
X4906666Y-12643333D01*
X4973333Y-12710000D01*
X5006666Y-12776666D01*
G04 #@! TO.C,TP5*
X7286666Y-19783333D02*
X7286666Y-19383333D01*
X7986666Y-19583333D02*
X7286666Y-19583333D01*
X7986666Y-19150000D02*
X7286666Y-19150000D01*
X7286666Y-18883333D01*
X7320000Y-18816666D01*
X7353333Y-18783333D01*
X7420000Y-18750000D01*
X7520000Y-18750000D01*
X7586666Y-18783333D01*
X7620000Y-18816666D01*
X7653333Y-18883333D01*
X7653333Y-19150000D01*
X7286666Y-18116666D02*
X7286666Y-18450000D01*
X7620000Y-18483333D01*
X7586666Y-18450000D01*
X7553333Y-18383333D01*
X7553333Y-18216666D01*
X7586666Y-18150000D01*
X7620000Y-18116666D01*
X7686666Y-18083333D01*
X7853333Y-18083333D01*
X7920000Y-18116666D01*
X7953333Y-18150000D01*
X7986666Y-18216666D01*
X7986666Y-18383333D01*
X7953333Y-18450000D01*
X7920000Y-18483333D01*
G04 #@! TO.C,TP6*
X736666Y-14036666D02*
X1136666Y-14036666D01*
X936666Y-14736666D02*
X936666Y-14036666D01*
X1370000Y-14736666D02*
X1370000Y-14036666D01*
X1636666Y-14036666D01*
X1703333Y-14070000D01*
X1736666Y-14103333D01*
X1770000Y-14170000D01*
X1770000Y-14270000D01*
X1736666Y-14336666D01*
X1703333Y-14370000D01*
X1636666Y-14403333D01*
X1370000Y-14403333D01*
X2369999Y-14036666D02*
X2236666Y-14036666D01*
X2169999Y-14070000D01*
X2136666Y-14103333D01*
X2069999Y-14203333D01*
X2036666Y-14336666D01*
X2036666Y-14603333D01*
X2069999Y-14670000D01*
X2103333Y-14703333D01*
X2169999Y-14736666D01*
X2303333Y-14736666D01*
X2369999Y-14703333D01*
X2403333Y-14670000D01*
X2436666Y-14603333D01*
X2436666Y-14436666D01*
X2403333Y-14370000D01*
X2369999Y-14336666D01*
X2303333Y-14303333D01*
X2169999Y-14303333D01*
X2103333Y-14336666D01*
X2069999Y-14370000D01*
X2036666Y-14436666D01*
G04 #@! TO.C,TP31*
X1526666Y-4276666D02*
X1526666Y-3876666D01*
X2226666Y-4076666D02*
X1526666Y-4076666D01*
X2226666Y-3643333D02*
X1526666Y-3643333D01*
X1526666Y-3376666D01*
X1560000Y-3310000D01*
X1593333Y-3276666D01*
X1660000Y-3243333D01*
X1760000Y-3243333D01*
X1826666Y-3276666D01*
X1860000Y-3310000D01*
X1893333Y-3376666D01*
X1893333Y-3643333D01*
X1526666Y-3010000D02*
X1526666Y-2576666D01*
X1793333Y-2810000D01*
X1793333Y-2710000D01*
X1826666Y-2643333D01*
X1860000Y-2610000D01*
X1926666Y-2576666D01*
X2093333Y-2576666D01*
X2160000Y-2610000D01*
X2193333Y-2643333D01*
X2226666Y-2710000D01*
X2226666Y-2910000D01*
X2193333Y-2976666D01*
X2160000Y-3010000D01*
X2226666Y-1910000D02*
X2226666Y-2310000D01*
X2226666Y-2110000D02*
X1526666Y-2110000D01*
X1626666Y-2176666D01*
X1693333Y-2243333D01*
X1726666Y-2310000D01*
G04 #@! TO.C,TP18*
X9762466Y-4401666D02*
X9762466Y-4001666D01*
X10462466Y-4201666D02*
X9762466Y-4201666D01*
X10462466Y-3768333D02*
X9762466Y-3768333D01*
X9762466Y-3501666D01*
X9795800Y-3435000D01*
X9829133Y-3401666D01*
X9895800Y-3368333D01*
X9995800Y-3368333D01*
X10062466Y-3401666D01*
X10095800Y-3435000D01*
X10129133Y-3501666D01*
X10129133Y-3768333D01*
X10462466Y-2701666D02*
X10462466Y-3101666D01*
X10462466Y-2901666D02*
X9762466Y-2901666D01*
X9862466Y-2968333D01*
X9929133Y-3035000D01*
X9962466Y-3101666D01*
X10062466Y-2301666D02*
X10029133Y-2368333D01*
X9995800Y-2401666D01*
X9929133Y-2435000D01*
X9895800Y-2435000D01*
X9829133Y-2401666D01*
X9795800Y-2368333D01*
X9762466Y-2301666D01*
X9762466Y-2168333D01*
X9795800Y-2101666D01*
X9829133Y-2068333D01*
X9895800Y-2035000D01*
X9929133Y-2035000D01*
X9995800Y-2068333D01*
X10029133Y-2101666D01*
X10062466Y-2168333D01*
X10062466Y-2301666D01*
X10095800Y-2368333D01*
X10129133Y-2401666D01*
X10195800Y-2435000D01*
X10329133Y-2435000D01*
X10395800Y-2401666D01*
X10429133Y-2368333D01*
X10462466Y-2301666D01*
X10462466Y-2168333D01*
X10429133Y-2101666D01*
X10395800Y-2068333D01*
X10329133Y-2035000D01*
X10195800Y-2035000D01*
X10129133Y-2068333D01*
X10095800Y-2101666D01*
X10062466Y-2168333D01*
G04 #@! TO.C,TP19*
X11211666Y-4401666D02*
X11211666Y-4001666D01*
X11911666Y-4201666D02*
X11211666Y-4201666D01*
X11911666Y-3768333D02*
X11211666Y-3768333D01*
X11211666Y-3501666D01*
X11245000Y-3435000D01*
X11278333Y-3401666D01*
X11345000Y-3368333D01*
X11445000Y-3368333D01*
X11511666Y-3401666D01*
X11545000Y-3435000D01*
X11578333Y-3501666D01*
X11578333Y-3768333D01*
X11911666Y-2701666D02*
X11911666Y-3101666D01*
X11911666Y-2901666D02*
X11211666Y-2901666D01*
X11311666Y-2968333D01*
X11378333Y-3035000D01*
X11411666Y-3101666D01*
X11911666Y-2368333D02*
X11911666Y-2235000D01*
X11878333Y-2168333D01*
X11845000Y-2135000D01*
X11745000Y-2068333D01*
X11611666Y-2035000D01*
X11345000Y-2035000D01*
X11278333Y-2068333D01*
X11245000Y-2101666D01*
X11211666Y-2168333D01*
X11211666Y-2301666D01*
X11245000Y-2368333D01*
X11278333Y-2401666D01*
X11345000Y-2435000D01*
X11511666Y-2435000D01*
X11578333Y-2401666D01*
X11611666Y-2368333D01*
X11645000Y-2301666D01*
X11645000Y-2168333D01*
X11611666Y-2101666D01*
X11578333Y-2068333D01*
X11511666Y-2035000D01*
G04 #@! TO.C,TP20*
X12461666Y-4401666D02*
X12461666Y-4001666D01*
X13161666Y-4201666D02*
X12461666Y-4201666D01*
X13161666Y-3768333D02*
X12461666Y-3768333D01*
X12461666Y-3501666D01*
X12495000Y-3435000D01*
X12528333Y-3401666D01*
X12595000Y-3368333D01*
X12695000Y-3368333D01*
X12761666Y-3401666D01*
X12795000Y-3435000D01*
X12828333Y-3501666D01*
X12828333Y-3768333D01*
X12528333Y-3101666D02*
X12495000Y-3068333D01*
X12461666Y-3001666D01*
X12461666Y-2835000D01*
X12495000Y-2768333D01*
X12528333Y-2735000D01*
X12595000Y-2701666D01*
X12661666Y-2701666D01*
X12761666Y-2735000D01*
X13161666Y-3135000D01*
X13161666Y-2701666D01*
X12461666Y-2268333D02*
X12461666Y-2201666D01*
X12495000Y-2135000D01*
X12528333Y-2101666D01*
X12595000Y-2068333D01*
X12728333Y-2035000D01*
X12895000Y-2035000D01*
X13028333Y-2068333D01*
X13095000Y-2101666D01*
X13128333Y-2135000D01*
X13161666Y-2201666D01*
X13161666Y-2268333D01*
X13128333Y-2335000D01*
X13095000Y-2368333D01*
X13028333Y-2401666D01*
X12895000Y-2435000D01*
X12728333Y-2435000D01*
X12595000Y-2401666D01*
X12528333Y-2368333D01*
X12495000Y-2335000D01*
X12461666Y-2268333D01*
G04 #@! TO.C,TP30*
X3563333Y-7436666D02*
X3963333Y-7436666D01*
X3763333Y-8136666D02*
X3763333Y-7436666D01*
X4196666Y-8136666D02*
X4196666Y-7436666D01*
X4463333Y-7436666D01*
X4530000Y-7470000D01*
X4563333Y-7503333D01*
X4596666Y-7570000D01*
X4596666Y-7670000D01*
X4563333Y-7736666D01*
X4530000Y-7770000D01*
X4463333Y-7803333D01*
X4196666Y-7803333D01*
X4830000Y-7436666D02*
X5263333Y-7436666D01*
X5030000Y-7703333D01*
X5130000Y-7703333D01*
X5196666Y-7736666D01*
X5230000Y-7770000D01*
X5263333Y-7836666D01*
X5263333Y-8003333D01*
X5230000Y-8070000D01*
X5196666Y-8103333D01*
X5130000Y-8136666D01*
X4930000Y-8136666D01*
X4863333Y-8103333D01*
X4830000Y-8070000D01*
X5696666Y-7436666D02*
X5763333Y-7436666D01*
X5830000Y-7470000D01*
X5863333Y-7503333D01*
X5896666Y-7570000D01*
X5930000Y-7703333D01*
X5930000Y-7870000D01*
X5896666Y-8003333D01*
X5863333Y-8070000D01*
X5830000Y-8103333D01*
X5763333Y-8136666D01*
X5696666Y-8136666D01*
X5630000Y-8103333D01*
X5596666Y-8070000D01*
X5563333Y-8003333D01*
X5529999Y-7870000D01*
X5529999Y-7703333D01*
X5563333Y-7570000D01*
X5596666Y-7503333D01*
X5630000Y-7470000D01*
X5696666Y-7436666D01*
G04 #@! TO.C,TP29*
X2486666Y-4286666D02*
X2486666Y-3886666D01*
X3186666Y-4086666D02*
X2486666Y-4086666D01*
X3186666Y-3653333D02*
X2486666Y-3653333D01*
X2486666Y-3386666D01*
X2520000Y-3320000D01*
X2553333Y-3286666D01*
X2620000Y-3253333D01*
X2720000Y-3253333D01*
X2786666Y-3286666D01*
X2820000Y-3320000D01*
X2853333Y-3386666D01*
X2853333Y-3653333D01*
X2553333Y-2986666D02*
X2520000Y-2953333D01*
X2486666Y-2886666D01*
X2486666Y-2720000D01*
X2520000Y-2653333D01*
X2553333Y-2620000D01*
X2620000Y-2586666D01*
X2686666Y-2586666D01*
X2786666Y-2620000D01*
X3186666Y-3020000D01*
X3186666Y-2586666D01*
X3186666Y-2253333D02*
X3186666Y-2120000D01*
X3153333Y-2053333D01*
X3120000Y-2020000D01*
X3020000Y-1953333D01*
X2886666Y-1920000D01*
X2620000Y-1920000D01*
X2553333Y-1953333D01*
X2520000Y-1986666D01*
X2486666Y-2053333D01*
X2486666Y-2186666D01*
X2520000Y-2253333D01*
X2553333Y-2286666D01*
X2620000Y-2320000D01*
X2786666Y-2320000D01*
X2853333Y-2286666D01*
X2886666Y-2253333D01*
X2920000Y-2186666D01*
X2920000Y-2053333D01*
X2886666Y-1986666D01*
X2853333Y-1953333D01*
X2786666Y-1920000D01*
G04 #@! TO.C,TP28*
X22128333Y-14801666D02*
X22528333Y-14801666D01*
X22328333Y-15501666D02*
X22328333Y-14801666D01*
X22761666Y-15501666D02*
X22761666Y-14801666D01*
X23028333Y-14801666D01*
X23095000Y-14835000D01*
X23128333Y-14868333D01*
X23161666Y-14935000D01*
X23161666Y-15035000D01*
X23128333Y-15101666D01*
X23095000Y-15135000D01*
X23028333Y-15168333D01*
X22761666Y-15168333D01*
X23428333Y-14868333D02*
X23461666Y-14835000D01*
X23528333Y-14801666D01*
X23695000Y-14801666D01*
X23761666Y-14835000D01*
X23795000Y-14868333D01*
X23828333Y-14935000D01*
X23828333Y-15001666D01*
X23795000Y-15101666D01*
X23395000Y-15501666D01*
X23828333Y-15501666D01*
X24228333Y-15101666D02*
X24161666Y-15068333D01*
X24128333Y-15035000D01*
X24095000Y-14968333D01*
X24095000Y-14935000D01*
X24128333Y-14868333D01*
X24161666Y-14835000D01*
X24228333Y-14801666D01*
X24361666Y-14801666D01*
X24428333Y-14835000D01*
X24461666Y-14868333D01*
X24495000Y-14935000D01*
X24495000Y-14968333D01*
X24461666Y-15035000D01*
X24428333Y-15068333D01*
X24361666Y-15101666D01*
X24228333Y-15101666D01*
X24161666Y-15135000D01*
X24128333Y-15168333D01*
X24095000Y-15235000D01*
X24095000Y-15368333D01*
X24128333Y-15435000D01*
X24161666Y-15468333D01*
X24228333Y-15501666D01*
X24361666Y-15501666D01*
X24428333Y-15468333D01*
X24461666Y-15435000D01*
X24495000Y-15368333D01*
X24495000Y-15235000D01*
X24461666Y-15168333D01*
X24428333Y-15135000D01*
X24361666Y-15101666D01*
G04 #@! TO.C,TP27*
X22128333Y-13051666D02*
X22528333Y-13051666D01*
X22328333Y-13751666D02*
X22328333Y-13051666D01*
X22761666Y-13751666D02*
X22761666Y-13051666D01*
X23028333Y-13051666D01*
X23095000Y-13085000D01*
X23128333Y-13118333D01*
X23161666Y-13185000D01*
X23161666Y-13285000D01*
X23128333Y-13351666D01*
X23095000Y-13385000D01*
X23028333Y-13418333D01*
X22761666Y-13418333D01*
X23428333Y-13118333D02*
X23461666Y-13085000D01*
X23528333Y-13051666D01*
X23695000Y-13051666D01*
X23761666Y-13085000D01*
X23795000Y-13118333D01*
X23828333Y-13185000D01*
X23828333Y-13251666D01*
X23795000Y-13351666D01*
X23395000Y-13751666D01*
X23828333Y-13751666D01*
X24061666Y-13051666D02*
X24528333Y-13051666D01*
X24228333Y-13751666D01*
G04 #@! TO.C,TP26*
X15211666Y-4401666D02*
X15211666Y-4001666D01*
X15911666Y-4201666D02*
X15211666Y-4201666D01*
X15911666Y-3768333D02*
X15211666Y-3768333D01*
X15211666Y-3501666D01*
X15245000Y-3435000D01*
X15278333Y-3401666D01*
X15345000Y-3368333D01*
X15445000Y-3368333D01*
X15511666Y-3401666D01*
X15545000Y-3435000D01*
X15578333Y-3501666D01*
X15578333Y-3768333D01*
X15278333Y-3101666D02*
X15245000Y-3068333D01*
X15211666Y-3001666D01*
X15211666Y-2835000D01*
X15245000Y-2768333D01*
X15278333Y-2735000D01*
X15345000Y-2701666D01*
X15411666Y-2701666D01*
X15511666Y-2735000D01*
X15911666Y-3135000D01*
X15911666Y-2701666D01*
X15211666Y-2101666D02*
X15211666Y-2235000D01*
X15245000Y-2301666D01*
X15278333Y-2335000D01*
X15378333Y-2401666D01*
X15511666Y-2435000D01*
X15778333Y-2435000D01*
X15845000Y-2401666D01*
X15878333Y-2368333D01*
X15911666Y-2301666D01*
X15911666Y-2168333D01*
X15878333Y-2101666D01*
X15845000Y-2068333D01*
X15778333Y-2035000D01*
X15611666Y-2035000D01*
X15545000Y-2068333D01*
X15511666Y-2101666D01*
X15478333Y-2168333D01*
X15478333Y-2301666D01*
X15511666Y-2368333D01*
X15545000Y-2401666D01*
X15611666Y-2435000D01*
G04 #@! TO.C,TP25*
X20633333Y-2756666D02*
X21033333Y-2756666D01*
X20833333Y-3456666D02*
X20833333Y-2756666D01*
X21266666Y-3456666D02*
X21266666Y-2756666D01*
X21533333Y-2756666D01*
X21600000Y-2790000D01*
X21633333Y-2823333D01*
X21666666Y-2890000D01*
X21666666Y-2990000D01*
X21633333Y-3056666D01*
X21600000Y-3090000D01*
X21533333Y-3123333D01*
X21266666Y-3123333D01*
X21933333Y-2823333D02*
X21966666Y-2790000D01*
X22033333Y-2756666D01*
X22200000Y-2756666D01*
X22266666Y-2790000D01*
X22300000Y-2823333D01*
X22333333Y-2890000D01*
X22333333Y-2956666D01*
X22300000Y-3056666D01*
X21900000Y-3456666D01*
X22333333Y-3456666D01*
X22966666Y-2756666D02*
X22633333Y-2756666D01*
X22600000Y-3090000D01*
X22633333Y-3056666D01*
X22700000Y-3023333D01*
X22866666Y-3023333D01*
X22933333Y-3056666D01*
X22966666Y-3090000D01*
X23000000Y-3156666D01*
X23000000Y-3323333D01*
X22966666Y-3390000D01*
X22933333Y-3423333D01*
X22866666Y-3456666D01*
X22700000Y-3456666D01*
X22633333Y-3423333D01*
X22600000Y-3390000D01*
G04 #@! TO.C,TP24*
X17936666Y-4066666D02*
X17936666Y-3666666D01*
X18636666Y-3866666D02*
X17936666Y-3866666D01*
X18636666Y-3433333D02*
X17936666Y-3433333D01*
X17936666Y-3166666D01*
X17970000Y-3100000D01*
X18003333Y-3066666D01*
X18070000Y-3033333D01*
X18170000Y-3033333D01*
X18236666Y-3066666D01*
X18270000Y-3100000D01*
X18303333Y-3166666D01*
X18303333Y-3433333D01*
X18003333Y-2766666D02*
X17970000Y-2733333D01*
X17936666Y-2666666D01*
X17936666Y-2500000D01*
X17970000Y-2433333D01*
X18003333Y-2400000D01*
X18070000Y-2366666D01*
X18136666Y-2366666D01*
X18236666Y-2400000D01*
X18636666Y-2800000D01*
X18636666Y-2366666D01*
X18170000Y-1766666D02*
X18636666Y-1766666D01*
X17903333Y-1933333D02*
X18403333Y-2100000D01*
X18403333Y-1666666D01*
G04 #@! TO.C,TP23*
X19626666Y-4126666D02*
X19626666Y-3726666D01*
X20326666Y-3926666D02*
X19626666Y-3926666D01*
X20326666Y-3493333D02*
X19626666Y-3493333D01*
X19626666Y-3226666D01*
X19660000Y-3160000D01*
X19693333Y-3126666D01*
X19760000Y-3093333D01*
X19860000Y-3093333D01*
X19926666Y-3126666D01*
X19960000Y-3160000D01*
X19993333Y-3226666D01*
X19993333Y-3493333D01*
X19693333Y-2826666D02*
X19660000Y-2793333D01*
X19626666Y-2726666D01*
X19626666Y-2560000D01*
X19660000Y-2493333D01*
X19693333Y-2460000D01*
X19760000Y-2426666D01*
X19826666Y-2426666D01*
X19926666Y-2460000D01*
X20326666Y-2860000D01*
X20326666Y-2426666D01*
X19626666Y-2193333D02*
X19626666Y-1760000D01*
X19893333Y-1993333D01*
X19893333Y-1893333D01*
X19926666Y-1826666D01*
X19960000Y-1793333D01*
X20026666Y-1760000D01*
X20193333Y-1760000D01*
X20260000Y-1793333D01*
X20293333Y-1826666D01*
X20326666Y-1893333D01*
X20326666Y-2093333D01*
X20293333Y-2160000D01*
X20260000Y-2193333D01*
G04 #@! TO.C,TP22*
X16711666Y-4401666D02*
X16711666Y-4001666D01*
X17411666Y-4201666D02*
X16711666Y-4201666D01*
X17411666Y-3768333D02*
X16711666Y-3768333D01*
X16711666Y-3501666D01*
X16745000Y-3435000D01*
X16778333Y-3401666D01*
X16845000Y-3368333D01*
X16945000Y-3368333D01*
X17011666Y-3401666D01*
X17045000Y-3435000D01*
X17078333Y-3501666D01*
X17078333Y-3768333D01*
X16778333Y-3101666D02*
X16745000Y-3068333D01*
X16711666Y-3001666D01*
X16711666Y-2835000D01*
X16745000Y-2768333D01*
X16778333Y-2735000D01*
X16845000Y-2701666D01*
X16911666Y-2701666D01*
X17011666Y-2735000D01*
X17411666Y-3135000D01*
X17411666Y-2701666D01*
X16778333Y-2435000D02*
X16745000Y-2401666D01*
X16711666Y-2335000D01*
X16711666Y-2168333D01*
X16745000Y-2101666D01*
X16778333Y-2068333D01*
X16845000Y-2035000D01*
X16911666Y-2035000D01*
X17011666Y-2068333D01*
X17411666Y-2468333D01*
X17411666Y-2035000D01*
G04 #@! TO.C,TP21*
X13711666Y-4401666D02*
X13711666Y-4001666D01*
X14411666Y-4201666D02*
X13711666Y-4201666D01*
X14411666Y-3768333D02*
X13711666Y-3768333D01*
X13711666Y-3501666D01*
X13745000Y-3435000D01*
X13778333Y-3401666D01*
X13845000Y-3368333D01*
X13945000Y-3368333D01*
X14011666Y-3401666D01*
X14045000Y-3435000D01*
X14078333Y-3501666D01*
X14078333Y-3768333D01*
X13778333Y-3101666D02*
X13745000Y-3068333D01*
X13711666Y-3001666D01*
X13711666Y-2835000D01*
X13745000Y-2768333D01*
X13778333Y-2735000D01*
X13845000Y-2701666D01*
X13911666Y-2701666D01*
X14011666Y-2735000D01*
X14411666Y-3135000D01*
X14411666Y-2701666D01*
X14411666Y-2035000D02*
X14411666Y-2435000D01*
X14411666Y-2235000D02*
X13711666Y-2235000D01*
X13811666Y-2301666D01*
X13878333Y-2368333D01*
X13911666Y-2435000D01*
G04 #@! TO.C,C7*
X18536000Y-8166666D02*
X18569333Y-8200000D01*
X18602666Y-8300000D01*
X18602666Y-8366666D01*
X18569333Y-8466666D01*
X18502666Y-8533333D01*
X18436000Y-8566666D01*
X18302666Y-8600000D01*
X18202666Y-8600000D01*
X18069333Y-8566666D01*
X18002666Y-8533333D01*
X17936000Y-8466666D01*
X17902666Y-8366666D01*
X17902666Y-8300000D01*
X17936000Y-8200000D01*
X17969333Y-8166666D01*
X17902666Y-7933333D02*
X17902666Y-7466666D01*
X18602666Y-7766666D01*
G04 #@! TO.C,C6*
X17010000Y-11606666D02*
X17043333Y-11640000D01*
X17076666Y-11740000D01*
X17076666Y-11806666D01*
X17043333Y-11906666D01*
X16976666Y-11973333D01*
X16910000Y-12006666D01*
X16776666Y-12040000D01*
X16676666Y-12040000D01*
X16543333Y-12006666D01*
X16476666Y-11973333D01*
X16410000Y-11906666D01*
X16376666Y-11806666D01*
X16376666Y-11740000D01*
X16410000Y-11640000D01*
X16443333Y-11606666D01*
X16376666Y-11006666D02*
X16376666Y-11140000D01*
X16410000Y-11206666D01*
X16443333Y-11240000D01*
X16543333Y-11306666D01*
X16676666Y-11340000D01*
X16943333Y-11340000D01*
X17010000Y-11306666D01*
X17043333Y-11273333D01*
X17076666Y-11206666D01*
X17076666Y-11073333D01*
X17043333Y-11006666D01*
X17010000Y-10973333D01*
X16943333Y-10940000D01*
X16776666Y-10940000D01*
X16710000Y-10973333D01*
X16676666Y-11006666D01*
X16643333Y-11073333D01*
X16643333Y-11206666D01*
X16676666Y-11273333D01*
X16710000Y-11306666D01*
X16776666Y-11340000D01*
G04 #@! TO.C,C5*
X17000000Y-13806666D02*
X17033333Y-13840000D01*
X17066666Y-13940000D01*
X17066666Y-14006666D01*
X17033333Y-14106666D01*
X16966666Y-14173333D01*
X16900000Y-14206666D01*
X16766666Y-14240000D01*
X16666666Y-14240000D01*
X16533333Y-14206666D01*
X16466666Y-14173333D01*
X16400000Y-14106666D01*
X16366666Y-14006666D01*
X16366666Y-13940000D01*
X16400000Y-13840000D01*
X16433333Y-13806666D01*
X16366666Y-13173333D02*
X16366666Y-13506666D01*
X16700000Y-13540000D01*
X16666666Y-13506666D01*
X16633333Y-13440000D01*
X16633333Y-13273333D01*
X16666666Y-13206666D01*
X16700000Y-13173333D01*
X16766666Y-13140000D01*
X16933333Y-13140000D01*
X17000000Y-13173333D01*
X17033333Y-13206666D01*
X17066666Y-13273333D01*
X17066666Y-13440000D01*
X17033333Y-13506666D01*
X17000000Y-13540000D01*
G04 #@! TO.C,C4*
X12430000Y-19116666D02*
X12463333Y-19150000D01*
X12496666Y-19250000D01*
X12496666Y-19316666D01*
X12463333Y-19416666D01*
X12396666Y-19483333D01*
X12330000Y-19516666D01*
X12196666Y-19550000D01*
X12096666Y-19550000D01*
X11963333Y-19516666D01*
X11896666Y-19483333D01*
X11830000Y-19416666D01*
X11796666Y-19316666D01*
X11796666Y-19250000D01*
X11830000Y-19150000D01*
X11863333Y-19116666D01*
X12030000Y-18516666D02*
X12496666Y-18516666D01*
X11763333Y-18683333D02*
X12263333Y-18850000D01*
X12263333Y-18416666D01*
G04 #@! TO.C,C3*
X15470000Y-17676666D02*
X15503333Y-17710000D01*
X15536666Y-17810000D01*
X15536666Y-17876666D01*
X15503333Y-17976666D01*
X15436666Y-18043333D01*
X15370000Y-18076666D01*
X15236666Y-18110000D01*
X15136666Y-18110000D01*
X15003333Y-18076666D01*
X14936666Y-18043333D01*
X14870000Y-17976666D01*
X14836666Y-17876666D01*
X14836666Y-17810000D01*
X14870000Y-17710000D01*
X14903333Y-17676666D01*
X14836666Y-17443333D02*
X14836666Y-17010000D01*
X15103333Y-17243333D01*
X15103333Y-17143333D01*
X15136666Y-17076666D01*
X15170000Y-17043333D01*
X15236666Y-17010000D01*
X15403333Y-17010000D01*
X15470000Y-17043333D01*
X15503333Y-17076666D01*
X15536666Y-17143333D01*
X15536666Y-17343333D01*
X15503333Y-17410000D01*
X15470000Y-17443333D01*
G04 #@! TO.C,C2*
X11390000Y-19126666D02*
X11423333Y-19160000D01*
X11456666Y-19260000D01*
X11456666Y-19326666D01*
X11423333Y-19426666D01*
X11356666Y-19493333D01*
X11290000Y-19526666D01*
X11156666Y-19560000D01*
X11056666Y-19560000D01*
X10923333Y-19526666D01*
X10856666Y-19493333D01*
X10790000Y-19426666D01*
X10756666Y-19326666D01*
X10756666Y-19260000D01*
X10790000Y-19160000D01*
X10823333Y-19126666D01*
X10823333Y-18860000D02*
X10790000Y-18826666D01*
X10756666Y-18760000D01*
X10756666Y-18593333D01*
X10790000Y-18526666D01*
X10823333Y-18493333D01*
X10890000Y-18460000D01*
X10956666Y-18460000D01*
X11056666Y-18493333D01*
X11456666Y-18893333D01*
X11456666Y-18460000D01*
G04 #@! TO.C,C10*
X10320000Y-19280000D02*
X10353333Y-19313333D01*
X10386666Y-19413333D01*
X10386666Y-19480000D01*
X10353333Y-19580000D01*
X10286666Y-19646666D01*
X10220000Y-19680000D01*
X10086666Y-19713333D01*
X9986666Y-19713333D01*
X9853333Y-19680000D01*
X9786666Y-19646666D01*
X9720000Y-19580000D01*
X9686666Y-19480000D01*
X9686666Y-19413333D01*
X9720000Y-19313333D01*
X9753333Y-19280000D01*
X10386666Y-18613333D02*
X10386666Y-19013333D01*
X10386666Y-18813333D02*
X9686666Y-18813333D01*
X9786666Y-18880000D01*
X9853333Y-18946666D01*
X9886666Y-19013333D01*
X9686666Y-18180000D02*
X9686666Y-18113333D01*
X9720000Y-18046666D01*
X9753333Y-18013333D01*
X9820000Y-17980000D01*
X9953333Y-17946666D01*
X10120000Y-17946666D01*
X10253333Y-17980000D01*
X10320000Y-18013333D01*
X10353333Y-18046666D01*
X10386666Y-18113333D01*
X10386666Y-18180000D01*
X10353333Y-18246666D01*
X10320000Y-18280000D01*
X10253333Y-18313333D01*
X10120000Y-18346666D01*
X9953333Y-18346666D01*
X9820000Y-18313333D01*
X9753333Y-18280000D01*
X9720000Y-18246666D01*
X9686666Y-18180000D01*
G04 #@! TO.C,C14*
X3217000Y-9194000D02*
X3183666Y-9227333D01*
X3083666Y-9260666D01*
X3017000Y-9260666D01*
X2917000Y-9227333D01*
X2850333Y-9160666D01*
X2817000Y-9094000D01*
X2783666Y-8960666D01*
X2783666Y-8860666D01*
X2817000Y-8727333D01*
X2850333Y-8660666D01*
X2917000Y-8594000D01*
X3017000Y-8560666D01*
X3083666Y-8560666D01*
X3183666Y-8594000D01*
X3217000Y-8627333D01*
X3883666Y-9260666D02*
X3483666Y-9260666D01*
X3683666Y-9260666D02*
X3683666Y-8560666D01*
X3617000Y-8660666D01*
X3550333Y-8727333D01*
X3483666Y-8760666D01*
X4483666Y-8794000D02*
X4483666Y-9260666D01*
X4317000Y-8527333D02*
X4150333Y-9027333D01*
X4583666Y-9027333D01*
G04 #@! TO.C,C1*
X9220000Y-15786666D02*
X9253333Y-15820000D01*
X9286666Y-15920000D01*
X9286666Y-15986666D01*
X9253333Y-16086666D01*
X9186666Y-16153333D01*
X9120000Y-16186666D01*
X8986666Y-16220000D01*
X8886666Y-16220000D01*
X8753333Y-16186666D01*
X8686666Y-16153333D01*
X8620000Y-16086666D01*
X8586666Y-15986666D01*
X8586666Y-15920000D01*
X8620000Y-15820000D01*
X8653333Y-15786666D01*
X9286666Y-15120000D02*
X9286666Y-15520000D01*
X9286666Y-15320000D02*
X8586666Y-15320000D01*
X8686666Y-15386666D01*
X8753333Y-15453333D01*
X8786666Y-15520000D01*
G04 #@! TO.C,R11*
X1260000Y-13346666D02*
X1026666Y-13013333D01*
X860000Y-13346666D02*
X860000Y-12646666D01*
X1126666Y-12646666D01*
X1193333Y-12680000D01*
X1226666Y-12713333D01*
X1260000Y-12780000D01*
X1260000Y-12880000D01*
X1226666Y-12946666D01*
X1193333Y-12980000D01*
X1126666Y-13013333D01*
X860000Y-13013333D01*
X1926666Y-13346666D02*
X1526666Y-13346666D01*
X1726666Y-13346666D02*
X1726666Y-12646666D01*
X1660000Y-12746666D01*
X1593333Y-12813333D01*
X1526666Y-12846666D01*
X2593333Y-13346666D02*
X2193333Y-13346666D01*
X2393333Y-13346666D02*
X2393333Y-12646666D01*
X2326666Y-12746666D01*
X2260000Y-12813333D01*
X2193333Y-12846666D01*
G04 #@! TO.C,R9*
X3620333Y-11440666D02*
X3387000Y-11107333D01*
X3220333Y-11440666D02*
X3220333Y-10740666D01*
X3487000Y-10740666D01*
X3553666Y-10774000D01*
X3587000Y-10807333D01*
X3620333Y-10874000D01*
X3620333Y-10974000D01*
X3587000Y-11040666D01*
X3553666Y-11074000D01*
X3487000Y-11107333D01*
X3220333Y-11107333D01*
X3953666Y-11440666D02*
X4087000Y-11440666D01*
X4153666Y-11407333D01*
X4187000Y-11374000D01*
X4253666Y-11274000D01*
X4287000Y-11140666D01*
X4287000Y-10874000D01*
X4253666Y-10807333D01*
X4220333Y-10774000D01*
X4153666Y-10740666D01*
X4020333Y-10740666D01*
X3953666Y-10774000D01*
X3920333Y-10807333D01*
X3887000Y-10874000D01*
X3887000Y-11040666D01*
X3920333Y-11107333D01*
X3953666Y-11140666D01*
X4020333Y-11174000D01*
X4153666Y-11174000D01*
X4220333Y-11140666D01*
X4253666Y-11107333D01*
X4287000Y-11040666D01*
G04 #@! TO.C,R8*
X6543333Y-16616666D02*
X6310000Y-16283333D01*
X6143333Y-16616666D02*
X6143333Y-15916666D01*
X6410000Y-15916666D01*
X6476666Y-15950000D01*
X6510000Y-15983333D01*
X6543333Y-16050000D01*
X6543333Y-16150000D01*
X6510000Y-16216666D01*
X6476666Y-16250000D01*
X6410000Y-16283333D01*
X6143333Y-16283333D01*
X6943333Y-16216666D02*
X6876666Y-16183333D01*
X6843333Y-16150000D01*
X6810000Y-16083333D01*
X6810000Y-16050000D01*
X6843333Y-15983333D01*
X6876666Y-15950000D01*
X6943333Y-15916666D01*
X7076666Y-15916666D01*
X7143333Y-15950000D01*
X7176666Y-15983333D01*
X7210000Y-16050000D01*
X7210000Y-16083333D01*
X7176666Y-16150000D01*
X7143333Y-16183333D01*
X7076666Y-16216666D01*
X6943333Y-16216666D01*
X6876666Y-16250000D01*
X6843333Y-16283333D01*
X6810000Y-16350000D01*
X6810000Y-16483333D01*
X6843333Y-16550000D01*
X6876666Y-16583333D01*
X6943333Y-16616666D01*
X7076666Y-16616666D01*
X7143333Y-16583333D01*
X7176666Y-16550000D01*
X7210000Y-16483333D01*
X7210000Y-16350000D01*
X7176666Y-16283333D01*
X7143333Y-16250000D01*
X7076666Y-16216666D01*
G04 #@! TO.C,R7*
X6563333Y-15666666D02*
X6330000Y-15333333D01*
X6163333Y-15666666D02*
X6163333Y-14966666D01*
X6430000Y-14966666D01*
X6496666Y-15000000D01*
X6530000Y-15033333D01*
X6563333Y-15100000D01*
X6563333Y-15200000D01*
X6530000Y-15266666D01*
X6496666Y-15300000D01*
X6430000Y-15333333D01*
X6163333Y-15333333D01*
X6796666Y-14966666D02*
X7263333Y-14966666D01*
X6963333Y-15666666D01*
G04 #@! TO.C,R5*
X16413333Y-19546666D02*
X16180000Y-19213333D01*
X16013333Y-19546666D02*
X16013333Y-18846666D01*
X16280000Y-18846666D01*
X16346666Y-18880000D01*
X16380000Y-18913333D01*
X16413333Y-18980000D01*
X16413333Y-19080000D01*
X16380000Y-19146666D01*
X16346666Y-19180000D01*
X16280000Y-19213333D01*
X16013333Y-19213333D01*
X17046666Y-18846666D02*
X16713333Y-18846666D01*
X16680000Y-19180000D01*
X16713333Y-19146666D01*
X16780000Y-19113333D01*
X16946666Y-19113333D01*
X17013333Y-19146666D01*
X17046666Y-19180000D01*
X17080000Y-19246666D01*
X17080000Y-19413333D01*
X17046666Y-19480000D01*
X17013333Y-19513333D01*
X16946666Y-19546666D01*
X16780000Y-19546666D01*
X16713333Y-19513333D01*
X16680000Y-19480000D01*
G04 #@! TO.C,R4*
X13756666Y-15686666D02*
X13423333Y-15920000D01*
X13756666Y-16086666D02*
X13056666Y-16086666D01*
X13056666Y-15820000D01*
X13090000Y-15753333D01*
X13123333Y-15720000D01*
X13190000Y-15686666D01*
X13290000Y-15686666D01*
X13356666Y-15720000D01*
X13390000Y-15753333D01*
X13423333Y-15820000D01*
X13423333Y-16086666D01*
X13290000Y-15086666D02*
X13756666Y-15086666D01*
X13023333Y-15253333D02*
X13523333Y-15420000D01*
X13523333Y-14986666D01*
G04 #@! TO.C,R3*
X19506666Y-8166666D02*
X19173333Y-8400000D01*
X19506666Y-8566666D02*
X18806666Y-8566666D01*
X18806666Y-8300000D01*
X18840000Y-8233333D01*
X18873333Y-8200000D01*
X18940000Y-8166666D01*
X19040000Y-8166666D01*
X19106666Y-8200000D01*
X19140000Y-8233333D01*
X19173333Y-8300000D01*
X19173333Y-8566666D01*
X18806666Y-7933333D02*
X18806666Y-7500000D01*
X19073333Y-7733333D01*
X19073333Y-7633333D01*
X19106666Y-7566666D01*
X19140000Y-7533333D01*
X19206666Y-7500000D01*
X19373333Y-7500000D01*
X19440000Y-7533333D01*
X19473333Y-7566666D01*
X19506666Y-7633333D01*
X19506666Y-7833333D01*
X19473333Y-7900000D01*
X19440000Y-7933333D01*
G04 #@! TO.C,R2*
X16446666Y-15736666D02*
X16113333Y-15970000D01*
X16446666Y-16136666D02*
X15746666Y-16136666D01*
X15746666Y-15870000D01*
X15780000Y-15803333D01*
X15813333Y-15770000D01*
X15880000Y-15736666D01*
X15980000Y-15736666D01*
X16046666Y-15770000D01*
X16080000Y-15803333D01*
X16113333Y-15870000D01*
X16113333Y-16136666D01*
X15813333Y-15470000D02*
X15780000Y-15436666D01*
X15746666Y-15370000D01*
X15746666Y-15203333D01*
X15780000Y-15136666D01*
X15813333Y-15103333D01*
X15880000Y-15070000D01*
X15946666Y-15070000D01*
X16046666Y-15103333D01*
X16446666Y-15503333D01*
X16446666Y-15070000D01*
G04 #@! TO.C,R1*
X20236666Y-13766666D02*
X19903333Y-14000000D01*
X20236666Y-14166666D02*
X19536666Y-14166666D01*
X19536666Y-13900000D01*
X19570000Y-13833333D01*
X19603333Y-13800000D01*
X19670000Y-13766666D01*
X19770000Y-13766666D01*
X19836666Y-13800000D01*
X19870000Y-13833333D01*
X19903333Y-13900000D01*
X19903333Y-14166666D01*
X20236666Y-13100000D02*
X20236666Y-13500000D01*
X20236666Y-13300000D02*
X19536666Y-13300000D01*
X19636666Y-13366666D01*
X19703333Y-13433333D01*
X19736666Y-13500000D01*
G04 #@! TO.C,TP4*
X5136666Y-19833333D02*
X5136666Y-19433333D01*
X5836666Y-19633333D02*
X5136666Y-19633333D01*
X5836666Y-19200000D02*
X5136666Y-19200000D01*
X5136666Y-18933333D01*
X5170000Y-18866666D01*
X5203333Y-18833333D01*
X5270000Y-18800000D01*
X5370000Y-18800000D01*
X5436666Y-18833333D01*
X5470000Y-18866666D01*
X5503333Y-18933333D01*
X5503333Y-19200000D01*
X5370000Y-18200000D02*
X5836666Y-18200000D01*
X5103333Y-18366666D02*
X5603333Y-18533333D01*
X5603333Y-18100000D01*
G04 #@! TO.C,TP9*
X5961666Y-3818333D02*
X5961666Y-3418333D01*
X6661666Y-3618333D02*
X5961666Y-3618333D01*
X6661666Y-3185000D02*
X5961666Y-3185000D01*
X5961666Y-2918333D01*
X5995000Y-2851666D01*
X6028333Y-2818333D01*
X6095000Y-2785000D01*
X6195000Y-2785000D01*
X6261666Y-2818333D01*
X6295000Y-2851666D01*
X6328333Y-2918333D01*
X6328333Y-3185000D01*
X6661666Y-2451666D02*
X6661666Y-2318333D01*
X6628333Y-2251666D01*
X6595000Y-2218333D01*
X6495000Y-2151666D01*
X6361666Y-2118333D01*
X6095000Y-2118333D01*
X6028333Y-2151666D01*
X5995000Y-2185000D01*
X5961666Y-2251666D01*
X5961666Y-2385000D01*
X5995000Y-2451666D01*
X6028333Y-2485000D01*
X6095000Y-2518333D01*
X6261666Y-2518333D01*
X6328333Y-2485000D01*
X6361666Y-2451666D01*
X6395000Y-2385000D01*
X6395000Y-2251666D01*
X6361666Y-2185000D01*
X6328333Y-2151666D01*
X6261666Y-2118333D01*
G04 #@! TO.C,TP7*
X6236666Y-19813333D02*
X6236666Y-19413333D01*
X6936666Y-19613333D02*
X6236666Y-19613333D01*
X6936666Y-19180000D02*
X6236666Y-19180000D01*
X6236666Y-18913333D01*
X6270000Y-18846666D01*
X6303333Y-18813333D01*
X6370000Y-18780000D01*
X6470000Y-18780000D01*
X6536666Y-18813333D01*
X6570000Y-18846666D01*
X6603333Y-18913333D01*
X6603333Y-19180000D01*
X6236666Y-18546666D02*
X6236666Y-18080000D01*
X6936666Y-18380000D01*
G04 #@! TO.C,TP3*
X386666Y-15806666D02*
X786666Y-15806666D01*
X586666Y-16506666D02*
X586666Y-15806666D01*
X1019999Y-16506666D02*
X1019999Y-15806666D01*
X1286666Y-15806666D01*
X1353333Y-15840000D01*
X1386666Y-15873333D01*
X1420000Y-15940000D01*
X1420000Y-16040000D01*
X1386666Y-16106666D01*
X1353333Y-16140000D01*
X1286666Y-16173333D01*
X1019999Y-16173333D01*
X1653333Y-15806666D02*
X2086666Y-15806666D01*
X1853333Y-16073333D01*
X1953333Y-16073333D01*
X2019999Y-16106666D01*
X2053333Y-16140000D01*
X2086666Y-16206666D01*
X2086666Y-16373333D01*
X2053333Y-16440000D01*
X2019999Y-16473333D01*
X1953333Y-16506666D01*
X1753333Y-16506666D01*
X1686666Y-16473333D01*
X1653333Y-16440000D01*
G04 #@! TO.C,TP1*
X8461666Y-3818333D02*
X8461666Y-3418333D01*
X9161666Y-3618333D02*
X8461666Y-3618333D01*
X9161666Y-3185000D02*
X8461666Y-3185000D01*
X8461666Y-2918333D01*
X8495000Y-2851666D01*
X8528333Y-2818333D01*
X8595000Y-2785000D01*
X8695000Y-2785000D01*
X8761666Y-2818333D01*
X8795000Y-2851666D01*
X8828333Y-2918333D01*
X8828333Y-3185000D01*
X9161666Y-2118333D02*
X9161666Y-2518333D01*
X9161666Y-2318333D02*
X8461666Y-2318333D01*
X8561666Y-2385000D01*
X8628333Y-2451666D01*
X8661666Y-2518333D01*
G04 #@! TO.C,TP2*
X7211666Y-3814333D02*
X7211666Y-3414333D01*
X7911666Y-3614333D02*
X7211666Y-3614333D01*
X7911666Y-3181000D02*
X7211666Y-3181000D01*
X7211666Y-2914333D01*
X7245000Y-2847666D01*
X7278333Y-2814333D01*
X7345000Y-2781000D01*
X7445000Y-2781000D01*
X7511666Y-2814333D01*
X7545000Y-2847666D01*
X7578333Y-2914333D01*
X7578333Y-3181000D01*
X7278333Y-2514333D02*
X7245000Y-2481000D01*
X7211666Y-2414333D01*
X7211666Y-2247666D01*
X7245000Y-2181000D01*
X7278333Y-2147666D01*
X7345000Y-2114333D01*
X7411666Y-2114333D01*
X7511666Y-2147666D01*
X7911666Y-2547666D01*
X7911666Y-2114333D01*
G04 #@! TO.C,TP8*
X4116666Y-19873333D02*
X4116666Y-19473333D01*
X4816666Y-19673333D02*
X4116666Y-19673333D01*
X4816666Y-19240000D02*
X4116666Y-19240000D01*
X4116666Y-18973333D01*
X4150000Y-18906666D01*
X4183333Y-18873333D01*
X4250000Y-18840000D01*
X4350000Y-18840000D01*
X4416666Y-18873333D01*
X4450000Y-18906666D01*
X4483333Y-18973333D01*
X4483333Y-19240000D01*
X4416666Y-18440000D02*
X4383333Y-18506666D01*
X4350000Y-18540000D01*
X4283333Y-18573333D01*
X4250000Y-18573333D01*
X4183333Y-18540000D01*
X4150000Y-18506666D01*
X4116666Y-18440000D01*
X4116666Y-18306666D01*
X4150000Y-18240000D01*
X4183333Y-18206666D01*
X4250000Y-18173333D01*
X4283333Y-18173333D01*
X4350000Y-18206666D01*
X4383333Y-18240000D01*
X4416666Y-18306666D01*
X4416666Y-18440000D01*
X4450000Y-18506666D01*
X4483333Y-18540000D01*
X4550000Y-18573333D01*
X4683333Y-18573333D01*
X4750000Y-18540000D01*
X4783333Y-18506666D01*
X4816666Y-18440000D01*
X4816666Y-18306666D01*
X4783333Y-18240000D01*
X4750000Y-18206666D01*
X4683333Y-18173333D01*
X4550000Y-18173333D01*
X4483333Y-18206666D01*
X4450000Y-18240000D01*
X4416666Y-18306666D01*
G04 #@! TO.C,TP11*
X3626666Y-4186666D02*
X3626666Y-3786666D01*
X4326666Y-3986666D02*
X3626666Y-3986666D01*
X4326666Y-3553333D02*
X3626666Y-3553333D01*
X3626666Y-3286666D01*
X3660000Y-3220000D01*
X3693333Y-3186666D01*
X3760000Y-3153333D01*
X3860000Y-3153333D01*
X3926666Y-3186666D01*
X3960000Y-3220000D01*
X3993333Y-3286666D01*
X3993333Y-3553333D01*
X4326666Y-2486666D02*
X4326666Y-2886666D01*
X4326666Y-2686666D02*
X3626666Y-2686666D01*
X3726666Y-2753333D01*
X3793333Y-2820000D01*
X3826666Y-2886666D01*
X4326666Y-1820000D02*
X4326666Y-2220000D01*
X4326666Y-2020000D02*
X3626666Y-2020000D01*
X3726666Y-2086666D01*
X3793333Y-2153333D01*
X3826666Y-2220000D01*
G04 #@! TO.C,TP12*
X3893333Y-4946666D02*
X4293333Y-4946666D01*
X4093333Y-5646666D02*
X4093333Y-4946666D01*
X4526666Y-5646666D02*
X4526666Y-4946666D01*
X4793333Y-4946666D01*
X4860000Y-4980000D01*
X4893333Y-5013333D01*
X4926666Y-5080000D01*
X4926666Y-5180000D01*
X4893333Y-5246666D01*
X4860000Y-5280000D01*
X4793333Y-5313333D01*
X4526666Y-5313333D01*
X5593333Y-5646666D02*
X5193333Y-5646666D01*
X5393333Y-5646666D02*
X5393333Y-4946666D01*
X5326666Y-5046666D01*
X5260000Y-5113333D01*
X5193333Y-5146666D01*
X5859999Y-5013333D02*
X5893333Y-4980000D01*
X5960000Y-4946666D01*
X6126666Y-4946666D01*
X6193333Y-4980000D01*
X6226666Y-5013333D01*
X6260000Y-5080000D01*
X6260000Y-5146666D01*
X6226666Y-5246666D01*
X5826666Y-5646666D01*
X6260000Y-5646666D01*
G04 #@! TO.C,TP10*
X4866666Y-4196666D02*
X4866666Y-3796666D01*
X5566666Y-3996666D02*
X4866666Y-3996666D01*
X5566666Y-3563333D02*
X4866666Y-3563333D01*
X4866666Y-3296666D01*
X4900000Y-3230000D01*
X4933333Y-3196666D01*
X5000000Y-3163333D01*
X5100000Y-3163333D01*
X5166666Y-3196666D01*
X5200000Y-3230000D01*
X5233333Y-3296666D01*
X5233333Y-3563333D01*
X5566666Y-2496666D02*
X5566666Y-2896666D01*
X5566666Y-2696666D02*
X4866666Y-2696666D01*
X4966666Y-2763333D01*
X5033333Y-2830000D01*
X5066666Y-2896666D01*
X4866666Y-2063333D02*
X4866666Y-1996666D01*
X4900000Y-1930000D01*
X4933333Y-1896666D01*
X5000000Y-1863333D01*
X5133333Y-1830000D01*
X5300000Y-1830000D01*
X5433333Y-1863333D01*
X5500000Y-1896666D01*
X5533333Y-1930000D01*
X5566666Y-1996666D01*
X5566666Y-2063333D01*
X5533333Y-2130000D01*
X5500000Y-2163333D01*
X5433333Y-2196666D01*
X5300000Y-2230000D01*
X5133333Y-2230000D01*
X5000000Y-2196666D01*
X4933333Y-2163333D01*
X4900000Y-2130000D01*
X4866666Y-2063333D01*
G04 #@! TO.C,C15*
X3247000Y-10264000D02*
X3213666Y-10297333D01*
X3113666Y-10330666D01*
X3047000Y-10330666D01*
X2947000Y-10297333D01*
X2880333Y-10230666D01*
X2847000Y-10164000D01*
X2813666Y-10030666D01*
X2813666Y-9930666D01*
X2847000Y-9797333D01*
X2880333Y-9730666D01*
X2947000Y-9664000D01*
X3047000Y-9630666D01*
X3113666Y-9630666D01*
X3213666Y-9664000D01*
X3247000Y-9697333D01*
X3913666Y-10330666D02*
X3513666Y-10330666D01*
X3713666Y-10330666D02*
X3713666Y-9630666D01*
X3647000Y-9730666D01*
X3580333Y-9797333D01*
X3513666Y-9830666D01*
X4547000Y-9630666D02*
X4213666Y-9630666D01*
X4180333Y-9964000D01*
X4213666Y-9930666D01*
X4280333Y-9897333D01*
X4447000Y-9897333D01*
X4513666Y-9930666D01*
X4547000Y-9964000D01*
X4580333Y-10030666D01*
X4580333Y-10197333D01*
X4547000Y-10264000D01*
X4513666Y-10297333D01*
X4447000Y-10330666D01*
X4280333Y-10330666D01*
X4213666Y-10297333D01*
X4180333Y-10264000D01*
G04 #@! TO.C,C9*
X7740000Y-10046666D02*
X7773333Y-10080000D01*
X7806666Y-10180000D01*
X7806666Y-10246666D01*
X7773333Y-10346666D01*
X7706666Y-10413333D01*
X7640000Y-10446666D01*
X7506666Y-10480000D01*
X7406666Y-10480000D01*
X7273333Y-10446666D01*
X7206666Y-10413333D01*
X7140000Y-10346666D01*
X7106666Y-10246666D01*
X7106666Y-10180000D01*
X7140000Y-10080000D01*
X7173333Y-10046666D01*
X7806666Y-9713333D02*
X7806666Y-9580000D01*
X7773333Y-9513333D01*
X7740000Y-9480000D01*
X7640000Y-9413333D01*
X7506666Y-9380000D01*
X7240000Y-9380000D01*
X7173333Y-9413333D01*
X7140000Y-9446666D01*
X7106666Y-9513333D01*
X7106666Y-9646666D01*
X7140000Y-9713333D01*
X7173333Y-9746666D01*
X7240000Y-9780000D01*
X7406666Y-9780000D01*
X7473333Y-9746666D01*
X7506666Y-9713333D01*
X7540000Y-9646666D01*
X7540000Y-9513333D01*
X7506666Y-9446666D01*
X7473333Y-9413333D01*
X7406666Y-9380000D01*
G04 #@! TO.C,R22*
X23335000Y-11521666D02*
X23101666Y-11188333D01*
X22935000Y-11521666D02*
X22935000Y-10821666D01*
X23201666Y-10821666D01*
X23268333Y-10855000D01*
X23301666Y-10888333D01*
X23335000Y-10955000D01*
X23335000Y-11055000D01*
X23301666Y-11121666D01*
X23268333Y-11155000D01*
X23201666Y-11188333D01*
X22935000Y-11188333D01*
X23601666Y-10888333D02*
X23635000Y-10855000D01*
X23701666Y-10821666D01*
X23868333Y-10821666D01*
X23935000Y-10855000D01*
X23968333Y-10888333D01*
X24001666Y-10955000D01*
X24001666Y-11021666D01*
X23968333Y-11121666D01*
X23568333Y-11521666D01*
X24001666Y-11521666D01*
X24268333Y-10888333D02*
X24301666Y-10855000D01*
X24368333Y-10821666D01*
X24535000Y-10821666D01*
X24601666Y-10855000D01*
X24635000Y-10888333D01*
X24668333Y-10955000D01*
X24668333Y-11021666D01*
X24635000Y-11121666D01*
X24235000Y-11521666D01*
X24668333Y-11521666D01*
G04 #@! TO.C,R21*
X23315000Y-10451666D02*
X23081666Y-10118333D01*
X22915000Y-10451666D02*
X22915000Y-9751666D01*
X23181666Y-9751666D01*
X23248333Y-9785000D01*
X23281666Y-9818333D01*
X23315000Y-9885000D01*
X23315000Y-9985000D01*
X23281666Y-10051666D01*
X23248333Y-10085000D01*
X23181666Y-10118333D01*
X22915000Y-10118333D01*
X23581666Y-9818333D02*
X23615000Y-9785000D01*
X23681666Y-9751666D01*
X23848333Y-9751666D01*
X23915000Y-9785000D01*
X23948333Y-9818333D01*
X23981666Y-9885000D01*
X23981666Y-9951666D01*
X23948333Y-10051666D01*
X23548333Y-10451666D01*
X23981666Y-10451666D01*
X24648333Y-10451666D02*
X24248333Y-10451666D01*
X24448333Y-10451666D02*
X24448333Y-9751666D01*
X24381666Y-9851666D01*
X24315000Y-9918333D01*
X24248333Y-9951666D01*
G04 #@! TO.C,R20*
X23330000Y-9511666D02*
X23096666Y-9178333D01*
X22930000Y-9511666D02*
X22930000Y-8811666D01*
X23196666Y-8811666D01*
X23263333Y-8845000D01*
X23296666Y-8878333D01*
X23330000Y-8945000D01*
X23330000Y-9045000D01*
X23296666Y-9111666D01*
X23263333Y-9145000D01*
X23196666Y-9178333D01*
X22930000Y-9178333D01*
X23596666Y-8878333D02*
X23630000Y-8845000D01*
X23696666Y-8811666D01*
X23863333Y-8811666D01*
X23930000Y-8845000D01*
X23963333Y-8878333D01*
X23996666Y-8945000D01*
X23996666Y-9011666D01*
X23963333Y-9111666D01*
X23563333Y-9511666D01*
X23996666Y-9511666D01*
X24430000Y-8811666D02*
X24496666Y-8811666D01*
X24563333Y-8845000D01*
X24596666Y-8878333D01*
X24630000Y-8945000D01*
X24663333Y-9078333D01*
X24663333Y-9245000D01*
X24630000Y-9378333D01*
X24596666Y-9445000D01*
X24563333Y-9478333D01*
X24496666Y-9511666D01*
X24430000Y-9511666D01*
X24363333Y-9478333D01*
X24330000Y-9445000D01*
X24296666Y-9378333D01*
X24263333Y-9245000D01*
X24263333Y-9078333D01*
X24296666Y-8945000D01*
X24330000Y-8878333D01*
X24363333Y-8845000D01*
X24430000Y-8811666D01*
G04 #@! TO.C,R19*
X23285000Y-8451666D02*
X23051666Y-8118333D01*
X22885000Y-8451666D02*
X22885000Y-7751666D01*
X23151666Y-7751666D01*
X23218333Y-7785000D01*
X23251666Y-7818333D01*
X23285000Y-7885000D01*
X23285000Y-7985000D01*
X23251666Y-8051666D01*
X23218333Y-8085000D01*
X23151666Y-8118333D01*
X22885000Y-8118333D01*
X23951666Y-8451666D02*
X23551666Y-8451666D01*
X23751666Y-8451666D02*
X23751666Y-7751666D01*
X23685000Y-7851666D01*
X23618333Y-7918333D01*
X23551666Y-7951666D01*
X24285000Y-8451666D02*
X24418333Y-8451666D01*
X24485000Y-8418333D01*
X24518333Y-8385000D01*
X24585000Y-8285000D01*
X24618333Y-8151666D01*
X24618333Y-7885000D01*
X24585000Y-7818333D01*
X24551666Y-7785000D01*
X24485000Y-7751666D01*
X24351666Y-7751666D01*
X24285000Y-7785000D01*
X24251666Y-7818333D01*
X24218333Y-7885000D01*
X24218333Y-8051666D01*
X24251666Y-8118333D01*
X24285000Y-8151666D01*
X24351666Y-8185000D01*
X24485000Y-8185000D01*
X24551666Y-8151666D01*
X24585000Y-8118333D01*
X24618333Y-8051666D01*
G04 #@! TO.C,R18*
X23305000Y-7381666D02*
X23071666Y-7048333D01*
X22905000Y-7381666D02*
X22905000Y-6681666D01*
X23171666Y-6681666D01*
X23238333Y-6715000D01*
X23271666Y-6748333D01*
X23305000Y-6815000D01*
X23305000Y-6915000D01*
X23271666Y-6981666D01*
X23238333Y-7015000D01*
X23171666Y-7048333D01*
X22905000Y-7048333D01*
X23971666Y-7381666D02*
X23571666Y-7381666D01*
X23771666Y-7381666D02*
X23771666Y-6681666D01*
X23705000Y-6781666D01*
X23638333Y-6848333D01*
X23571666Y-6881666D01*
X24371666Y-6981666D02*
X24305000Y-6948333D01*
X24271666Y-6915000D01*
X24238333Y-6848333D01*
X24238333Y-6815000D01*
X24271666Y-6748333D01*
X24305000Y-6715000D01*
X24371666Y-6681666D01*
X24505000Y-6681666D01*
X24571666Y-6715000D01*
X24605000Y-6748333D01*
X24638333Y-6815000D01*
X24638333Y-6848333D01*
X24605000Y-6915000D01*
X24571666Y-6948333D01*
X24505000Y-6981666D01*
X24371666Y-6981666D01*
X24305000Y-7015000D01*
X24271666Y-7048333D01*
X24238333Y-7115000D01*
X24238333Y-7248333D01*
X24271666Y-7315000D01*
X24305000Y-7348333D01*
X24371666Y-7381666D01*
X24505000Y-7381666D01*
X24571666Y-7348333D01*
X24605000Y-7315000D01*
X24638333Y-7248333D01*
X24638333Y-7115000D01*
X24605000Y-7048333D01*
X24571666Y-7015000D01*
X24505000Y-6981666D01*
G04 #@! TO.C,R17*
X23315000Y-6361666D02*
X23081666Y-6028333D01*
X22915000Y-6361666D02*
X22915000Y-5661666D01*
X23181666Y-5661666D01*
X23248333Y-5695000D01*
X23281666Y-5728333D01*
X23315000Y-5795000D01*
X23315000Y-5895000D01*
X23281666Y-5961666D01*
X23248333Y-5995000D01*
X23181666Y-6028333D01*
X22915000Y-6028333D01*
X23981666Y-6361666D02*
X23581666Y-6361666D01*
X23781666Y-6361666D02*
X23781666Y-5661666D01*
X23715000Y-5761666D01*
X23648333Y-5828333D01*
X23581666Y-5861666D01*
X24215000Y-5661666D02*
X24681666Y-5661666D01*
X24381666Y-6361666D01*
G04 #@! TO.C,R16*
X23335000Y-5371666D02*
X23101666Y-5038333D01*
X22935000Y-5371666D02*
X22935000Y-4671666D01*
X23201666Y-4671666D01*
X23268333Y-4705000D01*
X23301666Y-4738333D01*
X23335000Y-4805000D01*
X23335000Y-4905000D01*
X23301666Y-4971666D01*
X23268333Y-5005000D01*
X23201666Y-5038333D01*
X22935000Y-5038333D01*
X24001666Y-5371666D02*
X23601666Y-5371666D01*
X23801666Y-5371666D02*
X23801666Y-4671666D01*
X23735000Y-4771666D01*
X23668333Y-4838333D01*
X23601666Y-4871666D01*
X24601666Y-4671666D02*
X24468333Y-4671666D01*
X24401666Y-4705000D01*
X24368333Y-4738333D01*
X24301666Y-4838333D01*
X24268333Y-4971666D01*
X24268333Y-5238333D01*
X24301666Y-5305000D01*
X24335000Y-5338333D01*
X24401666Y-5371666D01*
X24535000Y-5371666D01*
X24601666Y-5338333D01*
X24635000Y-5305000D01*
X24668333Y-5238333D01*
X24668333Y-5071666D01*
X24635000Y-5005000D01*
X24601666Y-4971666D01*
X24535000Y-4938333D01*
X24401666Y-4938333D01*
X24335000Y-4971666D01*
X24301666Y-5005000D01*
X24268333Y-5071666D01*
G04 #@! TO.C,R15*
X23335000Y-4391666D02*
X23101666Y-4058333D01*
X22935000Y-4391666D02*
X22935000Y-3691666D01*
X23201666Y-3691666D01*
X23268333Y-3725000D01*
X23301666Y-3758333D01*
X23335000Y-3825000D01*
X23335000Y-3925000D01*
X23301666Y-3991666D01*
X23268333Y-4025000D01*
X23201666Y-4058333D01*
X22935000Y-4058333D01*
X24001666Y-4391666D02*
X23601666Y-4391666D01*
X23801666Y-4391666D02*
X23801666Y-3691666D01*
X23735000Y-3791666D01*
X23668333Y-3858333D01*
X23601666Y-3891666D01*
X24635000Y-3691666D02*
X24301666Y-3691666D01*
X24268333Y-4025000D01*
X24301666Y-3991666D01*
X24368333Y-3958333D01*
X24535000Y-3958333D01*
X24601666Y-3991666D01*
X24635000Y-4025000D01*
X24668333Y-4091666D01*
X24668333Y-4258333D01*
X24635000Y-4325000D01*
X24601666Y-4358333D01*
X24535000Y-4391666D01*
X24368333Y-4391666D01*
X24301666Y-4358333D01*
X24268333Y-4325000D01*
G04 #@! TO.C,TP17*
X22378333Y-250866D02*
X22778333Y-250866D01*
X22578333Y-950866D02*
X22578333Y-250866D01*
X23011666Y-950866D02*
X23011666Y-250866D01*
X23278333Y-250866D01*
X23345000Y-284200D01*
X23378333Y-317533D01*
X23411666Y-384200D01*
X23411666Y-484200D01*
X23378333Y-550866D01*
X23345000Y-584200D01*
X23278333Y-617533D01*
X23011666Y-617533D01*
X24078333Y-950866D02*
X23678333Y-950866D01*
X23878333Y-950866D02*
X23878333Y-250866D01*
X23811666Y-350866D01*
X23745000Y-417533D01*
X23678333Y-450866D01*
X24311666Y-250866D02*
X24778333Y-250866D01*
X24478333Y-950866D01*
G04 #@! TD*
M02*
