G04 #@! TF.GenerationSoftware,KiCad,Pcbnew,5.0.2+dfsg1-1~bpo9+1*
G04 #@! TF.CreationDate,2019-10-17T14:08:20+02:00*
G04 #@! TF.ProjectId,zglue-jade-adapter,7a676c75-652d-46a6-9164-652d61646170,rev?*
G04 #@! TF.SameCoordinates,Original*
G04 #@! TF.FileFunction,Legend,Top*
G04 #@! TF.FilePolarity,Positive*
%FSLAX46Y46*%
G04 Gerber Fmt 4.6, Leading zero omitted, Abs format (unit mm)*
G04 Created by KiCad (PCBNEW 5.0.2+dfsg1-1~bpo9+1) date Thu 17 Oct 2019 02:08:20 PM CEST*
%MOMM*%
%LPD*%
G01*
G04 APERTURE LIST*
%ADD10C,0.200000*%
%ADD11C,0.100000*%
%ADD12C,0.150000*%
G04 APERTURE END LIST*
D10*
X8750000Y-5400000D02*
G75*
G03X8750000Y-5400000I-150000J0D01*
G01*
D11*
G04 #@! TO.C,U1*
X15895000Y-5255000D02*
X9095000Y-5255000D01*
X15895000Y-14755000D02*
X9095000Y-14755000D01*
X9095000Y-14755000D02*
X9095000Y-5255000D01*
X15895000Y-14755000D02*
X15895000Y-5255000D01*
D12*
X7781666Y-13321666D02*
X7781666Y-13888333D01*
X7815000Y-13955000D01*
X7848333Y-13988333D01*
X7915000Y-14021666D01*
X8048333Y-14021666D01*
X8115000Y-13988333D01*
X8148333Y-13955000D01*
X8181666Y-13888333D01*
X8181666Y-13321666D01*
X8881666Y-14021666D02*
X8481666Y-14021666D01*
X8681666Y-14021666D02*
X8681666Y-13321666D01*
X8615000Y-13421666D01*
X8548333Y-13488333D01*
X8481666Y-13521666D01*
G04 #@! TO.C,TP5*
X6961666Y-19728333D02*
X6961666Y-19328333D01*
X7661666Y-19528333D02*
X6961666Y-19528333D01*
X7661666Y-19095000D02*
X6961666Y-19095000D01*
X6961666Y-18828333D01*
X6995000Y-18761666D01*
X7028333Y-18728333D01*
X7095000Y-18695000D01*
X7195000Y-18695000D01*
X7261666Y-18728333D01*
X7295000Y-18761666D01*
X7328333Y-18828333D01*
X7328333Y-19095000D01*
X6961666Y-18061666D02*
X6961666Y-18395000D01*
X7295000Y-18428333D01*
X7261666Y-18395000D01*
X7228333Y-18328333D01*
X7228333Y-18161666D01*
X7261666Y-18095000D01*
X7295000Y-18061666D01*
X7361666Y-18028333D01*
X7528333Y-18028333D01*
X7595000Y-18061666D01*
X7628333Y-18095000D01*
X7661666Y-18161666D01*
X7661666Y-18328333D01*
X7628333Y-18395000D01*
X7595000Y-18428333D01*
G04 #@! TO.C,TP6*
X1461666Y-16068333D02*
X1461666Y-15668333D01*
X2161666Y-15868333D02*
X1461666Y-15868333D01*
X2161666Y-15435000D02*
X1461666Y-15435000D01*
X1461666Y-15168333D01*
X1495000Y-15101666D01*
X1528333Y-15068333D01*
X1595000Y-15035000D01*
X1695000Y-15035000D01*
X1761666Y-15068333D01*
X1795000Y-15101666D01*
X1828333Y-15168333D01*
X1828333Y-15435000D01*
X1461666Y-14435000D02*
X1461666Y-14568333D01*
X1495000Y-14635000D01*
X1528333Y-14668333D01*
X1628333Y-14735000D01*
X1761666Y-14768333D01*
X2028333Y-14768333D01*
X2095000Y-14735000D01*
X2128333Y-14701666D01*
X2161666Y-14635000D01*
X2161666Y-14501666D01*
X2128333Y-14435000D01*
X2095000Y-14401666D01*
X2028333Y-14368333D01*
X1861666Y-14368333D01*
X1795000Y-14401666D01*
X1761666Y-14435000D01*
X1728333Y-14501666D01*
X1728333Y-14635000D01*
X1761666Y-14701666D01*
X1795000Y-14735000D01*
X1861666Y-14768333D01*
G04 #@! TO.C,TP31*
X512466Y-4401666D02*
X512466Y-4001666D01*
X1212466Y-4201666D02*
X512466Y-4201666D01*
X1212466Y-3768333D02*
X512466Y-3768333D01*
X512466Y-3501666D01*
X545800Y-3435000D01*
X579133Y-3401666D01*
X645800Y-3368333D01*
X745800Y-3368333D01*
X812466Y-3401666D01*
X845800Y-3435000D01*
X879133Y-3501666D01*
X879133Y-3768333D01*
X512466Y-3135000D02*
X512466Y-2701666D01*
X779133Y-2935000D01*
X779133Y-2835000D01*
X812466Y-2768333D01*
X845800Y-2735000D01*
X912466Y-2701666D01*
X1079133Y-2701666D01*
X1145800Y-2735000D01*
X1179133Y-2768333D01*
X1212466Y-2835000D01*
X1212466Y-3035000D01*
X1179133Y-3101666D01*
X1145800Y-3135000D01*
X1212466Y-2035000D02*
X1212466Y-2435000D01*
X1212466Y-2235000D02*
X512466Y-2235000D01*
X612466Y-2301666D01*
X679133Y-2368333D01*
X712466Y-2435000D01*
G04 #@! TO.C,TP18*
X9762466Y-4401666D02*
X9762466Y-4001666D01*
X10462466Y-4201666D02*
X9762466Y-4201666D01*
X10462466Y-3768333D02*
X9762466Y-3768333D01*
X9762466Y-3501666D01*
X9795800Y-3435000D01*
X9829133Y-3401666D01*
X9895800Y-3368333D01*
X9995800Y-3368333D01*
X10062466Y-3401666D01*
X10095800Y-3435000D01*
X10129133Y-3501666D01*
X10129133Y-3768333D01*
X10462466Y-2701666D02*
X10462466Y-3101666D01*
X10462466Y-2901666D02*
X9762466Y-2901666D01*
X9862466Y-2968333D01*
X9929133Y-3035000D01*
X9962466Y-3101666D01*
X10062466Y-2301666D02*
X10029133Y-2368333D01*
X9995800Y-2401666D01*
X9929133Y-2435000D01*
X9895800Y-2435000D01*
X9829133Y-2401666D01*
X9795800Y-2368333D01*
X9762466Y-2301666D01*
X9762466Y-2168333D01*
X9795800Y-2101666D01*
X9829133Y-2068333D01*
X9895800Y-2035000D01*
X9929133Y-2035000D01*
X9995800Y-2068333D01*
X10029133Y-2101666D01*
X10062466Y-2168333D01*
X10062466Y-2301666D01*
X10095800Y-2368333D01*
X10129133Y-2401666D01*
X10195800Y-2435000D01*
X10329133Y-2435000D01*
X10395800Y-2401666D01*
X10429133Y-2368333D01*
X10462466Y-2301666D01*
X10462466Y-2168333D01*
X10429133Y-2101666D01*
X10395800Y-2068333D01*
X10329133Y-2035000D01*
X10195800Y-2035000D01*
X10129133Y-2068333D01*
X10095800Y-2101666D01*
X10062466Y-2168333D01*
G04 #@! TO.C,TP19*
X11211666Y-4401666D02*
X11211666Y-4001666D01*
X11911666Y-4201666D02*
X11211666Y-4201666D01*
X11911666Y-3768333D02*
X11211666Y-3768333D01*
X11211666Y-3501666D01*
X11245000Y-3435000D01*
X11278333Y-3401666D01*
X11345000Y-3368333D01*
X11445000Y-3368333D01*
X11511666Y-3401666D01*
X11545000Y-3435000D01*
X11578333Y-3501666D01*
X11578333Y-3768333D01*
X11911666Y-2701666D02*
X11911666Y-3101666D01*
X11911666Y-2901666D02*
X11211666Y-2901666D01*
X11311666Y-2968333D01*
X11378333Y-3035000D01*
X11411666Y-3101666D01*
X11911666Y-2368333D02*
X11911666Y-2235000D01*
X11878333Y-2168333D01*
X11845000Y-2135000D01*
X11745000Y-2068333D01*
X11611666Y-2035000D01*
X11345000Y-2035000D01*
X11278333Y-2068333D01*
X11245000Y-2101666D01*
X11211666Y-2168333D01*
X11211666Y-2301666D01*
X11245000Y-2368333D01*
X11278333Y-2401666D01*
X11345000Y-2435000D01*
X11511666Y-2435000D01*
X11578333Y-2401666D01*
X11611666Y-2368333D01*
X11645000Y-2301666D01*
X11645000Y-2168333D01*
X11611666Y-2101666D01*
X11578333Y-2068333D01*
X11511666Y-2035000D01*
G04 #@! TO.C,TP20*
X12461666Y-4401666D02*
X12461666Y-4001666D01*
X13161666Y-4201666D02*
X12461666Y-4201666D01*
X13161666Y-3768333D02*
X12461666Y-3768333D01*
X12461666Y-3501666D01*
X12495000Y-3435000D01*
X12528333Y-3401666D01*
X12595000Y-3368333D01*
X12695000Y-3368333D01*
X12761666Y-3401666D01*
X12795000Y-3435000D01*
X12828333Y-3501666D01*
X12828333Y-3768333D01*
X12528333Y-3101666D02*
X12495000Y-3068333D01*
X12461666Y-3001666D01*
X12461666Y-2835000D01*
X12495000Y-2768333D01*
X12528333Y-2735000D01*
X12595000Y-2701666D01*
X12661666Y-2701666D01*
X12761666Y-2735000D01*
X13161666Y-3135000D01*
X13161666Y-2701666D01*
X12461666Y-2268333D02*
X12461666Y-2201666D01*
X12495000Y-2135000D01*
X12528333Y-2101666D01*
X12595000Y-2068333D01*
X12728333Y-2035000D01*
X12895000Y-2035000D01*
X13028333Y-2068333D01*
X13095000Y-2101666D01*
X13128333Y-2135000D01*
X13161666Y-2201666D01*
X13161666Y-2268333D01*
X13128333Y-2335000D01*
X13095000Y-2368333D01*
X13028333Y-2401666D01*
X12895000Y-2435000D01*
X12728333Y-2435000D01*
X12595000Y-2401666D01*
X12528333Y-2368333D01*
X12495000Y-2335000D01*
X12461666Y-2268333D01*
G04 #@! TO.C,TP30*
X628333Y-7551666D02*
X1028333Y-7551666D01*
X828333Y-8251666D02*
X828333Y-7551666D01*
X1261666Y-8251666D02*
X1261666Y-7551666D01*
X1528333Y-7551666D01*
X1594999Y-7585000D01*
X1628333Y-7618333D01*
X1661666Y-7685000D01*
X1661666Y-7785000D01*
X1628333Y-7851666D01*
X1594999Y-7885000D01*
X1528333Y-7918333D01*
X1261666Y-7918333D01*
X1894999Y-7551666D02*
X2328333Y-7551666D01*
X2094999Y-7818333D01*
X2194999Y-7818333D01*
X2261666Y-7851666D01*
X2294999Y-7885000D01*
X2328333Y-7951666D01*
X2328333Y-8118333D01*
X2294999Y-8185000D01*
X2261666Y-8218333D01*
X2194999Y-8251666D01*
X1994999Y-8251666D01*
X1928333Y-8218333D01*
X1894999Y-8185000D01*
X2761666Y-7551666D02*
X2828333Y-7551666D01*
X2894999Y-7585000D01*
X2928333Y-7618333D01*
X2961666Y-7685000D01*
X2994999Y-7818333D01*
X2994999Y-7985000D01*
X2961666Y-8118333D01*
X2928333Y-8185000D01*
X2894999Y-8218333D01*
X2828333Y-8251666D01*
X2761666Y-8251666D01*
X2694999Y-8218333D01*
X2661666Y-8185000D01*
X2628333Y-8118333D01*
X2594999Y-7985000D01*
X2594999Y-7818333D01*
X2628333Y-7685000D01*
X2661666Y-7618333D01*
X2694999Y-7585000D01*
X2761666Y-7551666D01*
G04 #@! TO.C,TP29*
X1910866Y-4401666D02*
X1910866Y-4001666D01*
X2610866Y-4201666D02*
X1910866Y-4201666D01*
X2610866Y-3768333D02*
X1910866Y-3768333D01*
X1910866Y-3501666D01*
X1944200Y-3435000D01*
X1977533Y-3401666D01*
X2044200Y-3368333D01*
X2144200Y-3368333D01*
X2210866Y-3401666D01*
X2244200Y-3435000D01*
X2277533Y-3501666D01*
X2277533Y-3768333D01*
X1977533Y-3101666D02*
X1944200Y-3068333D01*
X1910866Y-3001666D01*
X1910866Y-2835000D01*
X1944200Y-2768333D01*
X1977533Y-2735000D01*
X2044200Y-2701666D01*
X2110866Y-2701666D01*
X2210866Y-2735000D01*
X2610866Y-3135000D01*
X2610866Y-2701666D01*
X2610866Y-2368333D02*
X2610866Y-2235000D01*
X2577533Y-2168333D01*
X2544200Y-2135000D01*
X2444200Y-2068333D01*
X2310866Y-2035000D01*
X2044200Y-2035000D01*
X1977533Y-2068333D01*
X1944200Y-2101666D01*
X1910866Y-2168333D01*
X1910866Y-2301666D01*
X1944200Y-2368333D01*
X1977533Y-2401666D01*
X2044200Y-2435000D01*
X2210866Y-2435000D01*
X2277533Y-2401666D01*
X2310866Y-2368333D01*
X2344200Y-2301666D01*
X2344200Y-2168333D01*
X2310866Y-2101666D01*
X2277533Y-2068333D01*
X2210866Y-2035000D01*
G04 #@! TO.C,TP28*
X22128333Y-14801666D02*
X22528333Y-14801666D01*
X22328333Y-15501666D02*
X22328333Y-14801666D01*
X22761666Y-15501666D02*
X22761666Y-14801666D01*
X23028333Y-14801666D01*
X23095000Y-14835000D01*
X23128333Y-14868333D01*
X23161666Y-14935000D01*
X23161666Y-15035000D01*
X23128333Y-15101666D01*
X23095000Y-15135000D01*
X23028333Y-15168333D01*
X22761666Y-15168333D01*
X23428333Y-14868333D02*
X23461666Y-14835000D01*
X23528333Y-14801666D01*
X23695000Y-14801666D01*
X23761666Y-14835000D01*
X23795000Y-14868333D01*
X23828333Y-14935000D01*
X23828333Y-15001666D01*
X23795000Y-15101666D01*
X23395000Y-15501666D01*
X23828333Y-15501666D01*
X24228333Y-15101666D02*
X24161666Y-15068333D01*
X24128333Y-15035000D01*
X24095000Y-14968333D01*
X24095000Y-14935000D01*
X24128333Y-14868333D01*
X24161666Y-14835000D01*
X24228333Y-14801666D01*
X24361666Y-14801666D01*
X24428333Y-14835000D01*
X24461666Y-14868333D01*
X24495000Y-14935000D01*
X24495000Y-14968333D01*
X24461666Y-15035000D01*
X24428333Y-15068333D01*
X24361666Y-15101666D01*
X24228333Y-15101666D01*
X24161666Y-15135000D01*
X24128333Y-15168333D01*
X24095000Y-15235000D01*
X24095000Y-15368333D01*
X24128333Y-15435000D01*
X24161666Y-15468333D01*
X24228333Y-15501666D01*
X24361666Y-15501666D01*
X24428333Y-15468333D01*
X24461666Y-15435000D01*
X24495000Y-15368333D01*
X24495000Y-15235000D01*
X24461666Y-15168333D01*
X24428333Y-15135000D01*
X24361666Y-15101666D01*
G04 #@! TO.C,TP27*
X22128333Y-13051666D02*
X22528333Y-13051666D01*
X22328333Y-13751666D02*
X22328333Y-13051666D01*
X22761666Y-13751666D02*
X22761666Y-13051666D01*
X23028333Y-13051666D01*
X23095000Y-13085000D01*
X23128333Y-13118333D01*
X23161666Y-13185000D01*
X23161666Y-13285000D01*
X23128333Y-13351666D01*
X23095000Y-13385000D01*
X23028333Y-13418333D01*
X22761666Y-13418333D01*
X23428333Y-13118333D02*
X23461666Y-13085000D01*
X23528333Y-13051666D01*
X23695000Y-13051666D01*
X23761666Y-13085000D01*
X23795000Y-13118333D01*
X23828333Y-13185000D01*
X23828333Y-13251666D01*
X23795000Y-13351666D01*
X23395000Y-13751666D01*
X23828333Y-13751666D01*
X24061666Y-13051666D02*
X24528333Y-13051666D01*
X24228333Y-13751666D01*
G04 #@! TO.C,TP26*
X15211666Y-4401666D02*
X15211666Y-4001666D01*
X15911666Y-4201666D02*
X15211666Y-4201666D01*
X15911666Y-3768333D02*
X15211666Y-3768333D01*
X15211666Y-3501666D01*
X15245000Y-3435000D01*
X15278333Y-3401666D01*
X15345000Y-3368333D01*
X15445000Y-3368333D01*
X15511666Y-3401666D01*
X15545000Y-3435000D01*
X15578333Y-3501666D01*
X15578333Y-3768333D01*
X15278333Y-3101666D02*
X15245000Y-3068333D01*
X15211666Y-3001666D01*
X15211666Y-2835000D01*
X15245000Y-2768333D01*
X15278333Y-2735000D01*
X15345000Y-2701666D01*
X15411666Y-2701666D01*
X15511666Y-2735000D01*
X15911666Y-3135000D01*
X15911666Y-2701666D01*
X15211666Y-2101666D02*
X15211666Y-2235000D01*
X15245000Y-2301666D01*
X15278333Y-2335000D01*
X15378333Y-2401666D01*
X15511666Y-2435000D01*
X15778333Y-2435000D01*
X15845000Y-2401666D01*
X15878333Y-2368333D01*
X15911666Y-2301666D01*
X15911666Y-2168333D01*
X15878333Y-2101666D01*
X15845000Y-2068333D01*
X15778333Y-2035000D01*
X15611666Y-2035000D01*
X15545000Y-2068333D01*
X15511666Y-2101666D01*
X15478333Y-2168333D01*
X15478333Y-2301666D01*
X15511666Y-2368333D01*
X15545000Y-2401666D01*
X15611666Y-2435000D01*
G04 #@! TO.C,TP25*
X20628333Y-2551666D02*
X21028333Y-2551666D01*
X20828333Y-3251666D02*
X20828333Y-2551666D01*
X21261666Y-3251666D02*
X21261666Y-2551666D01*
X21528333Y-2551666D01*
X21595000Y-2585000D01*
X21628333Y-2618333D01*
X21661666Y-2685000D01*
X21661666Y-2785000D01*
X21628333Y-2851666D01*
X21595000Y-2885000D01*
X21528333Y-2918333D01*
X21261666Y-2918333D01*
X21928333Y-2618333D02*
X21961666Y-2585000D01*
X22028333Y-2551666D01*
X22195000Y-2551666D01*
X22261666Y-2585000D01*
X22295000Y-2618333D01*
X22328333Y-2685000D01*
X22328333Y-2751666D01*
X22295000Y-2851666D01*
X21895000Y-3251666D01*
X22328333Y-3251666D01*
X22961666Y-2551666D02*
X22628333Y-2551666D01*
X22595000Y-2885000D01*
X22628333Y-2851666D01*
X22695000Y-2818333D01*
X22861666Y-2818333D01*
X22928333Y-2851666D01*
X22961666Y-2885000D01*
X22995000Y-2951666D01*
X22995000Y-3118333D01*
X22961666Y-3185000D01*
X22928333Y-3218333D01*
X22861666Y-3251666D01*
X22695000Y-3251666D01*
X22628333Y-3218333D01*
X22595000Y-3185000D01*
G04 #@! TO.C,TP24*
X18211666Y-4401666D02*
X18211666Y-4001666D01*
X18911666Y-4201666D02*
X18211666Y-4201666D01*
X18911666Y-3768333D02*
X18211666Y-3768333D01*
X18211666Y-3501666D01*
X18245000Y-3435000D01*
X18278333Y-3401666D01*
X18345000Y-3368333D01*
X18445000Y-3368333D01*
X18511666Y-3401666D01*
X18545000Y-3435000D01*
X18578333Y-3501666D01*
X18578333Y-3768333D01*
X18278333Y-3101666D02*
X18245000Y-3068333D01*
X18211666Y-3001666D01*
X18211666Y-2835000D01*
X18245000Y-2768333D01*
X18278333Y-2735000D01*
X18345000Y-2701666D01*
X18411666Y-2701666D01*
X18511666Y-2735000D01*
X18911666Y-3135000D01*
X18911666Y-2701666D01*
X18445000Y-2101666D02*
X18911666Y-2101666D01*
X18178333Y-2268333D02*
X18678333Y-2435000D01*
X18678333Y-2001666D01*
G04 #@! TO.C,TP23*
X19461666Y-4401666D02*
X19461666Y-4001666D01*
X20161666Y-4201666D02*
X19461666Y-4201666D01*
X20161666Y-3768333D02*
X19461666Y-3768333D01*
X19461666Y-3501666D01*
X19495000Y-3435000D01*
X19528333Y-3401666D01*
X19595000Y-3368333D01*
X19695000Y-3368333D01*
X19761666Y-3401666D01*
X19795000Y-3435000D01*
X19828333Y-3501666D01*
X19828333Y-3768333D01*
X19528333Y-3101666D02*
X19495000Y-3068333D01*
X19461666Y-3001666D01*
X19461666Y-2835000D01*
X19495000Y-2768333D01*
X19528333Y-2735000D01*
X19595000Y-2701666D01*
X19661666Y-2701666D01*
X19761666Y-2735000D01*
X20161666Y-3135000D01*
X20161666Y-2701666D01*
X19461666Y-2468333D02*
X19461666Y-2035000D01*
X19728333Y-2268333D01*
X19728333Y-2168333D01*
X19761666Y-2101666D01*
X19795000Y-2068333D01*
X19861666Y-2035000D01*
X20028333Y-2035000D01*
X20095000Y-2068333D01*
X20128333Y-2101666D01*
X20161666Y-2168333D01*
X20161666Y-2368333D01*
X20128333Y-2435000D01*
X20095000Y-2468333D01*
G04 #@! TO.C,TP22*
X16711666Y-4401666D02*
X16711666Y-4001666D01*
X17411666Y-4201666D02*
X16711666Y-4201666D01*
X17411666Y-3768333D02*
X16711666Y-3768333D01*
X16711666Y-3501666D01*
X16745000Y-3435000D01*
X16778333Y-3401666D01*
X16845000Y-3368333D01*
X16945000Y-3368333D01*
X17011666Y-3401666D01*
X17045000Y-3435000D01*
X17078333Y-3501666D01*
X17078333Y-3768333D01*
X16778333Y-3101666D02*
X16745000Y-3068333D01*
X16711666Y-3001666D01*
X16711666Y-2835000D01*
X16745000Y-2768333D01*
X16778333Y-2735000D01*
X16845000Y-2701666D01*
X16911666Y-2701666D01*
X17011666Y-2735000D01*
X17411666Y-3135000D01*
X17411666Y-2701666D01*
X16778333Y-2435000D02*
X16745000Y-2401666D01*
X16711666Y-2335000D01*
X16711666Y-2168333D01*
X16745000Y-2101666D01*
X16778333Y-2068333D01*
X16845000Y-2035000D01*
X16911666Y-2035000D01*
X17011666Y-2068333D01*
X17411666Y-2468333D01*
X17411666Y-2035000D01*
G04 #@! TO.C,TP21*
X13711666Y-4401666D02*
X13711666Y-4001666D01*
X14411666Y-4201666D02*
X13711666Y-4201666D01*
X14411666Y-3768333D02*
X13711666Y-3768333D01*
X13711666Y-3501666D01*
X13745000Y-3435000D01*
X13778333Y-3401666D01*
X13845000Y-3368333D01*
X13945000Y-3368333D01*
X14011666Y-3401666D01*
X14045000Y-3435000D01*
X14078333Y-3501666D01*
X14078333Y-3768333D01*
X13778333Y-3101666D02*
X13745000Y-3068333D01*
X13711666Y-3001666D01*
X13711666Y-2835000D01*
X13745000Y-2768333D01*
X13778333Y-2735000D01*
X13845000Y-2701666D01*
X13911666Y-2701666D01*
X14011666Y-2735000D01*
X14411666Y-3135000D01*
X14411666Y-2701666D01*
X14411666Y-2035000D02*
X14411666Y-2435000D01*
X14411666Y-2235000D02*
X13711666Y-2235000D01*
X13811666Y-2301666D01*
X13878333Y-2368333D01*
X13911666Y-2435000D01*
G04 #@! TO.C,C7*
X6935000Y-5746666D02*
X6968333Y-5780000D01*
X7001666Y-5880000D01*
X7001666Y-5946666D01*
X6968333Y-6046666D01*
X6901666Y-6113333D01*
X6835000Y-6146666D01*
X6701666Y-6180000D01*
X6601666Y-6180000D01*
X6468333Y-6146666D01*
X6401666Y-6113333D01*
X6335000Y-6046666D01*
X6301666Y-5946666D01*
X6301666Y-5880000D01*
X6335000Y-5780000D01*
X6368333Y-5746666D01*
X6301666Y-5513333D02*
X6301666Y-5046666D01*
X7001666Y-5346666D01*
G04 #@! TO.C,C6*
X17435000Y-15711666D02*
X17468333Y-15745000D01*
X17501666Y-15845000D01*
X17501666Y-15911666D01*
X17468333Y-16011666D01*
X17401666Y-16078333D01*
X17335000Y-16111666D01*
X17201666Y-16145000D01*
X17101666Y-16145000D01*
X16968333Y-16111666D01*
X16901666Y-16078333D01*
X16835000Y-16011666D01*
X16801666Y-15911666D01*
X16801666Y-15845000D01*
X16835000Y-15745000D01*
X16868333Y-15711666D01*
X16801666Y-15111666D02*
X16801666Y-15245000D01*
X16835000Y-15311666D01*
X16868333Y-15345000D01*
X16968333Y-15411666D01*
X17101666Y-15445000D01*
X17368333Y-15445000D01*
X17435000Y-15411666D01*
X17468333Y-15378333D01*
X17501666Y-15311666D01*
X17501666Y-15178333D01*
X17468333Y-15111666D01*
X17435000Y-15078333D01*
X17368333Y-15045000D01*
X17201666Y-15045000D01*
X17135000Y-15078333D01*
X17101666Y-15111666D01*
X17068333Y-15178333D01*
X17068333Y-15311666D01*
X17101666Y-15378333D01*
X17135000Y-15411666D01*
X17201666Y-15445000D01*
G04 #@! TO.C,C5*
X17685000Y-10151666D02*
X17718333Y-10185000D01*
X17751666Y-10285000D01*
X17751666Y-10351666D01*
X17718333Y-10451666D01*
X17651666Y-10518333D01*
X17585000Y-10551666D01*
X17451666Y-10585000D01*
X17351666Y-10585000D01*
X17218333Y-10551666D01*
X17151666Y-10518333D01*
X17085000Y-10451666D01*
X17051666Y-10351666D01*
X17051666Y-10285000D01*
X17085000Y-10185000D01*
X17118333Y-10151666D01*
X17051666Y-9518333D02*
X17051666Y-9851666D01*
X17385000Y-9885000D01*
X17351666Y-9851666D01*
X17318333Y-9785000D01*
X17318333Y-9618333D01*
X17351666Y-9551666D01*
X17385000Y-9518333D01*
X17451666Y-9485000D01*
X17618333Y-9485000D01*
X17685000Y-9518333D01*
X17718333Y-9551666D01*
X17751666Y-9618333D01*
X17751666Y-9785000D01*
X17718333Y-9851666D01*
X17685000Y-9885000D01*
G04 #@! TO.C,C4*
X11865000Y-16121666D02*
X11898333Y-16155000D01*
X11931666Y-16255000D01*
X11931666Y-16321666D01*
X11898333Y-16421666D01*
X11831666Y-16488333D01*
X11765000Y-16521666D01*
X11631666Y-16555000D01*
X11531666Y-16555000D01*
X11398333Y-16521666D01*
X11331666Y-16488333D01*
X11265000Y-16421666D01*
X11231666Y-16321666D01*
X11231666Y-16255000D01*
X11265000Y-16155000D01*
X11298333Y-16121666D01*
X11465000Y-15521666D02*
X11931666Y-15521666D01*
X11198333Y-15688333D02*
X11698333Y-15855000D01*
X11698333Y-15421666D01*
G04 #@! TO.C,C3*
X8025000Y-5756666D02*
X8058333Y-5790000D01*
X8091666Y-5890000D01*
X8091666Y-5956666D01*
X8058333Y-6056666D01*
X7991666Y-6123333D01*
X7925000Y-6156666D01*
X7791666Y-6190000D01*
X7691666Y-6190000D01*
X7558333Y-6156666D01*
X7491666Y-6123333D01*
X7425000Y-6056666D01*
X7391666Y-5956666D01*
X7391666Y-5890000D01*
X7425000Y-5790000D01*
X7458333Y-5756666D01*
X7391666Y-5523333D02*
X7391666Y-5090000D01*
X7658333Y-5323333D01*
X7658333Y-5223333D01*
X7691666Y-5156666D01*
X7725000Y-5123333D01*
X7791666Y-5090000D01*
X7958333Y-5090000D01*
X8025000Y-5123333D01*
X8058333Y-5156666D01*
X8091666Y-5223333D01*
X8091666Y-5423333D01*
X8058333Y-5490000D01*
X8025000Y-5523333D01*
G04 #@! TO.C,C2*
X18485000Y-15731666D02*
X18518333Y-15765000D01*
X18551666Y-15865000D01*
X18551666Y-15931666D01*
X18518333Y-16031666D01*
X18451666Y-16098333D01*
X18385000Y-16131666D01*
X18251666Y-16165000D01*
X18151666Y-16165000D01*
X18018333Y-16131666D01*
X17951666Y-16098333D01*
X17885000Y-16031666D01*
X17851666Y-15931666D01*
X17851666Y-15865000D01*
X17885000Y-15765000D01*
X17918333Y-15731666D01*
X17918333Y-15465000D02*
X17885000Y-15431666D01*
X17851666Y-15365000D01*
X17851666Y-15198333D01*
X17885000Y-15131666D01*
X17918333Y-15098333D01*
X17985000Y-15065000D01*
X18051666Y-15065000D01*
X18151666Y-15098333D01*
X18551666Y-15498333D01*
X18551666Y-15065000D01*
G04 #@! TO.C,C10*
X9380000Y-17145000D02*
X9413333Y-17178333D01*
X9446666Y-17278333D01*
X9446666Y-17345000D01*
X9413333Y-17445000D01*
X9346666Y-17511666D01*
X9280000Y-17545000D01*
X9146666Y-17578333D01*
X9046666Y-17578333D01*
X8913333Y-17545000D01*
X8846666Y-17511666D01*
X8780000Y-17445000D01*
X8746666Y-17345000D01*
X8746666Y-17278333D01*
X8780000Y-17178333D01*
X8813333Y-17145000D01*
X9446666Y-16478333D02*
X9446666Y-16878333D01*
X9446666Y-16678333D02*
X8746666Y-16678333D01*
X8846666Y-16745000D01*
X8913333Y-16811666D01*
X8946666Y-16878333D01*
X8746666Y-16045000D02*
X8746666Y-15978333D01*
X8780000Y-15911666D01*
X8813333Y-15878333D01*
X8880000Y-15845000D01*
X9013333Y-15811666D01*
X9180000Y-15811666D01*
X9313333Y-15845000D01*
X9380000Y-15878333D01*
X9413333Y-15911666D01*
X9446666Y-15978333D01*
X9446666Y-16045000D01*
X9413333Y-16111666D01*
X9380000Y-16145000D01*
X9313333Y-16178333D01*
X9180000Y-16211666D01*
X9013333Y-16211666D01*
X8880000Y-16178333D01*
X8813333Y-16145000D01*
X8780000Y-16111666D01*
X8746666Y-16045000D01*
G04 #@! TO.C,C14*
X3660000Y-9775000D02*
X3626666Y-9808333D01*
X3526666Y-9841666D01*
X3460000Y-9841666D01*
X3360000Y-9808333D01*
X3293333Y-9741666D01*
X3260000Y-9675000D01*
X3226666Y-9541666D01*
X3226666Y-9441666D01*
X3260000Y-9308333D01*
X3293333Y-9241666D01*
X3360000Y-9175000D01*
X3460000Y-9141666D01*
X3526666Y-9141666D01*
X3626666Y-9175000D01*
X3660000Y-9208333D01*
X4326666Y-9841666D02*
X3926666Y-9841666D01*
X4126666Y-9841666D02*
X4126666Y-9141666D01*
X4060000Y-9241666D01*
X3993333Y-9308333D01*
X3926666Y-9341666D01*
X4926666Y-9375000D02*
X4926666Y-9841666D01*
X4760000Y-9108333D02*
X4593333Y-9608333D01*
X5026666Y-9608333D01*
G04 #@! TO.C,C1*
X18735000Y-10141666D02*
X18768333Y-10175000D01*
X18801666Y-10275000D01*
X18801666Y-10341666D01*
X18768333Y-10441666D01*
X18701666Y-10508333D01*
X18635000Y-10541666D01*
X18501666Y-10575000D01*
X18401666Y-10575000D01*
X18268333Y-10541666D01*
X18201666Y-10508333D01*
X18135000Y-10441666D01*
X18101666Y-10341666D01*
X18101666Y-10275000D01*
X18135000Y-10175000D01*
X18168333Y-10141666D01*
X18801666Y-9475000D02*
X18801666Y-9875000D01*
X18801666Y-9675000D02*
X18101666Y-9675000D01*
X18201666Y-9741666D01*
X18268333Y-9808333D01*
X18301666Y-9875000D01*
G04 #@! TO.C,R11*
X1985000Y-13451666D02*
X1751666Y-13118333D01*
X1585000Y-13451666D02*
X1585000Y-12751666D01*
X1851666Y-12751666D01*
X1918333Y-12785000D01*
X1951666Y-12818333D01*
X1985000Y-12885000D01*
X1985000Y-12985000D01*
X1951666Y-13051666D01*
X1918333Y-13085000D01*
X1851666Y-13118333D01*
X1585000Y-13118333D01*
X2651666Y-13451666D02*
X2251666Y-13451666D01*
X2451666Y-13451666D02*
X2451666Y-12751666D01*
X2385000Y-12851666D01*
X2318333Y-12918333D01*
X2251666Y-12951666D01*
X3318333Y-13451666D02*
X2918333Y-13451666D01*
X3118333Y-13451666D02*
X3118333Y-12751666D01*
X3051666Y-12851666D01*
X2985000Y-12918333D01*
X2918333Y-12951666D01*
G04 #@! TO.C,R9*
X4063333Y-12021666D02*
X3830000Y-11688333D01*
X3663333Y-12021666D02*
X3663333Y-11321666D01*
X3930000Y-11321666D01*
X3996666Y-11355000D01*
X4030000Y-11388333D01*
X4063333Y-11455000D01*
X4063333Y-11555000D01*
X4030000Y-11621666D01*
X3996666Y-11655000D01*
X3930000Y-11688333D01*
X3663333Y-11688333D01*
X4396666Y-12021666D02*
X4530000Y-12021666D01*
X4596666Y-11988333D01*
X4630000Y-11955000D01*
X4696666Y-11855000D01*
X4730000Y-11721666D01*
X4730000Y-11455000D01*
X4696666Y-11388333D01*
X4663333Y-11355000D01*
X4596666Y-11321666D01*
X4463333Y-11321666D01*
X4396666Y-11355000D01*
X4363333Y-11388333D01*
X4330000Y-11455000D01*
X4330000Y-11621666D01*
X4363333Y-11688333D01*
X4396666Y-11721666D01*
X4463333Y-11755000D01*
X4596666Y-11755000D01*
X4663333Y-11721666D01*
X4696666Y-11688333D01*
X4730000Y-11621666D01*
G04 #@! TO.C,R8*
X5048333Y-16001666D02*
X4815000Y-15668333D01*
X4648333Y-16001666D02*
X4648333Y-15301666D01*
X4915000Y-15301666D01*
X4981666Y-15335000D01*
X5015000Y-15368333D01*
X5048333Y-15435000D01*
X5048333Y-15535000D01*
X5015000Y-15601666D01*
X4981666Y-15635000D01*
X4915000Y-15668333D01*
X4648333Y-15668333D01*
X5448333Y-15601666D02*
X5381666Y-15568333D01*
X5348333Y-15535000D01*
X5315000Y-15468333D01*
X5315000Y-15435000D01*
X5348333Y-15368333D01*
X5381666Y-15335000D01*
X5448333Y-15301666D01*
X5581666Y-15301666D01*
X5648333Y-15335000D01*
X5681666Y-15368333D01*
X5715000Y-15435000D01*
X5715000Y-15468333D01*
X5681666Y-15535000D01*
X5648333Y-15568333D01*
X5581666Y-15601666D01*
X5448333Y-15601666D01*
X5381666Y-15635000D01*
X5348333Y-15668333D01*
X5315000Y-15735000D01*
X5315000Y-15868333D01*
X5348333Y-15935000D01*
X5381666Y-15968333D01*
X5448333Y-16001666D01*
X5581666Y-16001666D01*
X5648333Y-15968333D01*
X5681666Y-15935000D01*
X5715000Y-15868333D01*
X5715000Y-15735000D01*
X5681666Y-15668333D01*
X5648333Y-15635000D01*
X5581666Y-15601666D01*
G04 #@! TO.C,R7*
X5028333Y-14791666D02*
X4795000Y-14458333D01*
X4628333Y-14791666D02*
X4628333Y-14091666D01*
X4895000Y-14091666D01*
X4961666Y-14125000D01*
X4995000Y-14158333D01*
X5028333Y-14225000D01*
X5028333Y-14325000D01*
X4995000Y-14391666D01*
X4961666Y-14425000D01*
X4895000Y-14458333D01*
X4628333Y-14458333D01*
X5261666Y-14091666D02*
X5728333Y-14091666D01*
X5428333Y-14791666D01*
G04 #@! TO.C,R5*
X10228333Y-19726666D02*
X9995000Y-19393333D01*
X9828333Y-19726666D02*
X9828333Y-19026666D01*
X10095000Y-19026666D01*
X10161666Y-19060000D01*
X10195000Y-19093333D01*
X10228333Y-19160000D01*
X10228333Y-19260000D01*
X10195000Y-19326666D01*
X10161666Y-19360000D01*
X10095000Y-19393333D01*
X9828333Y-19393333D01*
X10861666Y-19026666D02*
X10528333Y-19026666D01*
X10495000Y-19360000D01*
X10528333Y-19326666D01*
X10595000Y-19293333D01*
X10761666Y-19293333D01*
X10828333Y-19326666D01*
X10861666Y-19360000D01*
X10895000Y-19426666D01*
X10895000Y-19593333D01*
X10861666Y-19660000D01*
X10828333Y-19693333D01*
X10761666Y-19726666D01*
X10595000Y-19726666D01*
X10528333Y-19693333D01*
X10495000Y-19660000D01*
G04 #@! TO.C,R4*
X13051666Y-18691666D02*
X12718333Y-18925000D01*
X13051666Y-19091666D02*
X12351666Y-19091666D01*
X12351666Y-18825000D01*
X12385000Y-18758333D01*
X12418333Y-18725000D01*
X12485000Y-18691666D01*
X12585000Y-18691666D01*
X12651666Y-18725000D01*
X12685000Y-18758333D01*
X12718333Y-18825000D01*
X12718333Y-19091666D01*
X12585000Y-18091666D02*
X13051666Y-18091666D01*
X12318333Y-18258333D02*
X12818333Y-18425000D01*
X12818333Y-17991666D01*
G04 #@! TO.C,R3*
X5961666Y-5736666D02*
X5628333Y-5970000D01*
X5961666Y-6136666D02*
X5261666Y-6136666D01*
X5261666Y-5870000D01*
X5295000Y-5803333D01*
X5328333Y-5770000D01*
X5395000Y-5736666D01*
X5495000Y-5736666D01*
X5561666Y-5770000D01*
X5595000Y-5803333D01*
X5628333Y-5870000D01*
X5628333Y-6136666D01*
X5261666Y-5503333D02*
X5261666Y-5070000D01*
X5528333Y-5303333D01*
X5528333Y-5203333D01*
X5561666Y-5136666D01*
X5595000Y-5103333D01*
X5661666Y-5070000D01*
X5828333Y-5070000D01*
X5895000Y-5103333D01*
X5928333Y-5136666D01*
X5961666Y-5203333D01*
X5961666Y-5403333D01*
X5928333Y-5470000D01*
X5895000Y-5503333D01*
G04 #@! TO.C,R2*
X19601666Y-15731666D02*
X19268333Y-15965000D01*
X19601666Y-16131666D02*
X18901666Y-16131666D01*
X18901666Y-15865000D01*
X18935000Y-15798333D01*
X18968333Y-15765000D01*
X19035000Y-15731666D01*
X19135000Y-15731666D01*
X19201666Y-15765000D01*
X19235000Y-15798333D01*
X19268333Y-15865000D01*
X19268333Y-16131666D01*
X18968333Y-15465000D02*
X18935000Y-15431666D01*
X18901666Y-15365000D01*
X18901666Y-15198333D01*
X18935000Y-15131666D01*
X18968333Y-15098333D01*
X19035000Y-15065000D01*
X19101666Y-15065000D01*
X19201666Y-15098333D01*
X19601666Y-15498333D01*
X19601666Y-15065000D01*
G04 #@! TO.C,R1*
X19921666Y-10171666D02*
X19588333Y-10405000D01*
X19921666Y-10571666D02*
X19221666Y-10571666D01*
X19221666Y-10305000D01*
X19255000Y-10238333D01*
X19288333Y-10205000D01*
X19355000Y-10171666D01*
X19455000Y-10171666D01*
X19521666Y-10205000D01*
X19555000Y-10238333D01*
X19588333Y-10305000D01*
X19588333Y-10571666D01*
X19921666Y-9505000D02*
X19921666Y-9905000D01*
X19921666Y-9705000D02*
X19221666Y-9705000D01*
X19321666Y-9771666D01*
X19388333Y-9838333D01*
X19421666Y-9905000D01*
G04 #@! TO.C,TP4*
X3831666Y-19748333D02*
X3831666Y-19348333D01*
X4531666Y-19548333D02*
X3831666Y-19548333D01*
X4531666Y-19115000D02*
X3831666Y-19115000D01*
X3831666Y-18848333D01*
X3865000Y-18781666D01*
X3898333Y-18748333D01*
X3965000Y-18715000D01*
X4065000Y-18715000D01*
X4131666Y-18748333D01*
X4165000Y-18781666D01*
X4198333Y-18848333D01*
X4198333Y-19115000D01*
X4065000Y-18115000D02*
X4531666Y-18115000D01*
X3798333Y-18281666D02*
X4298333Y-18448333D01*
X4298333Y-18015000D01*
G04 #@! TO.C,TP9*
X5961666Y-3818333D02*
X5961666Y-3418333D01*
X6661666Y-3618333D02*
X5961666Y-3618333D01*
X6661666Y-3185000D02*
X5961666Y-3185000D01*
X5961666Y-2918333D01*
X5995000Y-2851666D01*
X6028333Y-2818333D01*
X6095000Y-2785000D01*
X6195000Y-2785000D01*
X6261666Y-2818333D01*
X6295000Y-2851666D01*
X6328333Y-2918333D01*
X6328333Y-3185000D01*
X6661666Y-2451666D02*
X6661666Y-2318333D01*
X6628333Y-2251666D01*
X6595000Y-2218333D01*
X6495000Y-2151666D01*
X6361666Y-2118333D01*
X6095000Y-2118333D01*
X6028333Y-2151666D01*
X5995000Y-2185000D01*
X5961666Y-2251666D01*
X5961666Y-2385000D01*
X5995000Y-2451666D01*
X6028333Y-2485000D01*
X6095000Y-2518333D01*
X6261666Y-2518333D01*
X6328333Y-2485000D01*
X6361666Y-2451666D01*
X6395000Y-2385000D01*
X6395000Y-2251666D01*
X6361666Y-2185000D01*
X6328333Y-2151666D01*
X6261666Y-2118333D01*
G04 #@! TO.C,TP7*
X5311666Y-19728333D02*
X5311666Y-19328333D01*
X6011666Y-19528333D02*
X5311666Y-19528333D01*
X6011666Y-19095000D02*
X5311666Y-19095000D01*
X5311666Y-18828333D01*
X5345000Y-18761666D01*
X5378333Y-18728333D01*
X5445000Y-18695000D01*
X5545000Y-18695000D01*
X5611666Y-18728333D01*
X5645000Y-18761666D01*
X5678333Y-18828333D01*
X5678333Y-19095000D01*
X5311666Y-18461666D02*
X5311666Y-17995000D01*
X6011666Y-18295000D01*
G04 #@! TO.C,TP3*
X1031666Y-19748333D02*
X1031666Y-19348333D01*
X1731666Y-19548333D02*
X1031666Y-19548333D01*
X1731666Y-19115000D02*
X1031666Y-19115000D01*
X1031666Y-18848333D01*
X1065000Y-18781666D01*
X1098333Y-18748333D01*
X1165000Y-18715000D01*
X1265000Y-18715000D01*
X1331666Y-18748333D01*
X1365000Y-18781666D01*
X1398333Y-18848333D01*
X1398333Y-19115000D01*
X1031666Y-18481666D02*
X1031666Y-18048333D01*
X1298333Y-18281666D01*
X1298333Y-18181666D01*
X1331666Y-18115000D01*
X1365000Y-18081666D01*
X1431666Y-18048333D01*
X1598333Y-18048333D01*
X1665000Y-18081666D01*
X1698333Y-18115000D01*
X1731666Y-18181666D01*
X1731666Y-18381666D01*
X1698333Y-18448333D01*
X1665000Y-18481666D01*
G04 #@! TO.C,TP1*
X8461666Y-3818333D02*
X8461666Y-3418333D01*
X9161666Y-3618333D02*
X8461666Y-3618333D01*
X9161666Y-3185000D02*
X8461666Y-3185000D01*
X8461666Y-2918333D01*
X8495000Y-2851666D01*
X8528333Y-2818333D01*
X8595000Y-2785000D01*
X8695000Y-2785000D01*
X8761666Y-2818333D01*
X8795000Y-2851666D01*
X8828333Y-2918333D01*
X8828333Y-3185000D01*
X9161666Y-2118333D02*
X9161666Y-2518333D01*
X9161666Y-2318333D02*
X8461666Y-2318333D01*
X8561666Y-2385000D01*
X8628333Y-2451666D01*
X8661666Y-2518333D01*
G04 #@! TO.C,TP2*
X7211666Y-3814333D02*
X7211666Y-3414333D01*
X7911666Y-3614333D02*
X7211666Y-3614333D01*
X7911666Y-3181000D02*
X7211666Y-3181000D01*
X7211666Y-2914333D01*
X7245000Y-2847666D01*
X7278333Y-2814333D01*
X7345000Y-2781000D01*
X7445000Y-2781000D01*
X7511666Y-2814333D01*
X7545000Y-2847666D01*
X7578333Y-2914333D01*
X7578333Y-3181000D01*
X7278333Y-2514333D02*
X7245000Y-2481000D01*
X7211666Y-2414333D01*
X7211666Y-2247666D01*
X7245000Y-2181000D01*
X7278333Y-2147666D01*
X7345000Y-2114333D01*
X7411666Y-2114333D01*
X7511666Y-2147666D01*
X7911666Y-2547666D01*
X7911666Y-2114333D01*
G04 #@! TO.C,TP8*
X2351666Y-19748333D02*
X2351666Y-19348333D01*
X3051666Y-19548333D02*
X2351666Y-19548333D01*
X3051666Y-19115000D02*
X2351666Y-19115000D01*
X2351666Y-18848333D01*
X2385000Y-18781666D01*
X2418333Y-18748333D01*
X2485000Y-18715000D01*
X2585000Y-18715000D01*
X2651666Y-18748333D01*
X2685000Y-18781666D01*
X2718333Y-18848333D01*
X2718333Y-19115000D01*
X2651666Y-18315000D02*
X2618333Y-18381666D01*
X2585000Y-18415000D01*
X2518333Y-18448333D01*
X2485000Y-18448333D01*
X2418333Y-18415000D01*
X2385000Y-18381666D01*
X2351666Y-18315000D01*
X2351666Y-18181666D01*
X2385000Y-18115000D01*
X2418333Y-18081666D01*
X2485000Y-18048333D01*
X2518333Y-18048333D01*
X2585000Y-18081666D01*
X2618333Y-18115000D01*
X2651666Y-18181666D01*
X2651666Y-18315000D01*
X2685000Y-18381666D01*
X2718333Y-18415000D01*
X2785000Y-18448333D01*
X2918333Y-18448333D01*
X2985000Y-18415000D01*
X3018333Y-18381666D01*
X3051666Y-18315000D01*
X3051666Y-18181666D01*
X3018333Y-18115000D01*
X2985000Y-18081666D01*
X2918333Y-18048333D01*
X2785000Y-18048333D01*
X2718333Y-18081666D01*
X2685000Y-18115000D01*
X2651666Y-18181666D01*
G04 #@! TO.C,TP11*
X3461666Y-4350866D02*
X3461666Y-3950866D01*
X4161666Y-4150866D02*
X3461666Y-4150866D01*
X4161666Y-3717533D02*
X3461666Y-3717533D01*
X3461666Y-3450866D01*
X3495000Y-3384200D01*
X3528333Y-3350866D01*
X3595000Y-3317533D01*
X3695000Y-3317533D01*
X3761666Y-3350866D01*
X3795000Y-3384200D01*
X3828333Y-3450866D01*
X3828333Y-3717533D01*
X4161666Y-2650866D02*
X4161666Y-3050866D01*
X4161666Y-2850866D02*
X3461666Y-2850866D01*
X3561666Y-2917533D01*
X3628333Y-2984200D01*
X3661666Y-3050866D01*
X4161666Y-1984200D02*
X4161666Y-2384200D01*
X4161666Y-2184200D02*
X3461666Y-2184200D01*
X3561666Y-2250866D01*
X3628333Y-2317533D01*
X3661666Y-2384200D01*
G04 #@! TO.C,TP12*
X718333Y-5711666D02*
X1118333Y-5711666D01*
X918333Y-6411666D02*
X918333Y-5711666D01*
X1351666Y-6411666D02*
X1351666Y-5711666D01*
X1618333Y-5711666D01*
X1684999Y-5745000D01*
X1718333Y-5778333D01*
X1751666Y-5845000D01*
X1751666Y-5945000D01*
X1718333Y-6011666D01*
X1684999Y-6045000D01*
X1618333Y-6078333D01*
X1351666Y-6078333D01*
X2418333Y-6411666D02*
X2018333Y-6411666D01*
X2218333Y-6411666D02*
X2218333Y-5711666D01*
X2151666Y-5811666D01*
X2084999Y-5878333D01*
X2018333Y-5911666D01*
X2684999Y-5778333D02*
X2718333Y-5745000D01*
X2784999Y-5711666D01*
X2951666Y-5711666D01*
X3018333Y-5745000D01*
X3051666Y-5778333D01*
X3084999Y-5845000D01*
X3084999Y-5911666D01*
X3051666Y-6011666D01*
X2651666Y-6411666D01*
X3084999Y-6411666D01*
G04 #@! TO.C,TP14*
X13721666Y-17992466D02*
X13721666Y-17592466D01*
X14421666Y-17792466D02*
X13721666Y-17792466D01*
X14421666Y-17359133D02*
X13721666Y-17359133D01*
X13721666Y-17092466D01*
X13755000Y-17025800D01*
X13788333Y-16992466D01*
X13855000Y-16959133D01*
X13955000Y-16959133D01*
X14021666Y-16992466D01*
X14055000Y-17025800D01*
X14088333Y-17092466D01*
X14088333Y-17359133D01*
X14421666Y-16292466D02*
X14421666Y-16692466D01*
X14421666Y-16492466D02*
X13721666Y-16492466D01*
X13821666Y-16559133D01*
X13888333Y-16625800D01*
X13921666Y-16692466D01*
X13955000Y-15692466D02*
X14421666Y-15692466D01*
X13688333Y-15859133D02*
X14188333Y-16025800D01*
X14188333Y-15592466D01*
G04 #@! TO.C,TP15*
X14971666Y-17901666D02*
X14971666Y-17501666D01*
X15671666Y-17701666D02*
X14971666Y-17701666D01*
X15671666Y-17268333D02*
X14971666Y-17268333D01*
X14971666Y-17001666D01*
X15005000Y-16935000D01*
X15038333Y-16901666D01*
X15105000Y-16868333D01*
X15205000Y-16868333D01*
X15271666Y-16901666D01*
X15305000Y-16935000D01*
X15338333Y-17001666D01*
X15338333Y-17268333D01*
X15671666Y-16201666D02*
X15671666Y-16601666D01*
X15671666Y-16401666D02*
X14971666Y-16401666D01*
X15071666Y-16468333D01*
X15138333Y-16535000D01*
X15171666Y-16601666D01*
X14971666Y-15568333D02*
X14971666Y-15901666D01*
X15305000Y-15935000D01*
X15271666Y-15901666D01*
X15238333Y-15835000D01*
X15238333Y-15668333D01*
X15271666Y-15601666D01*
X15305000Y-15568333D01*
X15371666Y-15535000D01*
X15538333Y-15535000D01*
X15605000Y-15568333D01*
X15638333Y-15601666D01*
X15671666Y-15668333D01*
X15671666Y-15835000D01*
X15638333Y-15901666D01*
X15605000Y-15935000D01*
G04 #@! TO.C,TP16*
X17808333Y-18301666D02*
X18208333Y-18301666D01*
X18008333Y-19001666D02*
X18008333Y-18301666D01*
X18441666Y-19001666D02*
X18441666Y-18301666D01*
X18708333Y-18301666D01*
X18775000Y-18335000D01*
X18808333Y-18368333D01*
X18841666Y-18435000D01*
X18841666Y-18535000D01*
X18808333Y-18601666D01*
X18775000Y-18635000D01*
X18708333Y-18668333D01*
X18441666Y-18668333D01*
X19508333Y-19001666D02*
X19108333Y-19001666D01*
X19308333Y-19001666D02*
X19308333Y-18301666D01*
X19241666Y-18401666D01*
X19175000Y-18468333D01*
X19108333Y-18501666D01*
X20108333Y-18301666D02*
X19975000Y-18301666D01*
X19908333Y-18335000D01*
X19875000Y-18368333D01*
X19808333Y-18468333D01*
X19775000Y-18601666D01*
X19775000Y-18868333D01*
X19808333Y-18935000D01*
X19841666Y-18968333D01*
X19908333Y-19001666D01*
X20041666Y-19001666D01*
X20108333Y-18968333D01*
X20141666Y-18935000D01*
X20175000Y-18868333D01*
X20175000Y-18701666D01*
X20141666Y-18635000D01*
X20108333Y-18601666D01*
X20041666Y-18568333D01*
X19908333Y-18568333D01*
X19841666Y-18601666D01*
X19808333Y-18635000D01*
X19775000Y-18701666D01*
G04 #@! TO.C,TP10*
X4711666Y-4401666D02*
X4711666Y-4001666D01*
X5411666Y-4201666D02*
X4711666Y-4201666D01*
X5411666Y-3768333D02*
X4711666Y-3768333D01*
X4711666Y-3501666D01*
X4745000Y-3435000D01*
X4778333Y-3401666D01*
X4845000Y-3368333D01*
X4945000Y-3368333D01*
X5011666Y-3401666D01*
X5045000Y-3435000D01*
X5078333Y-3501666D01*
X5078333Y-3768333D01*
X5411666Y-2701666D02*
X5411666Y-3101666D01*
X5411666Y-2901666D02*
X4711666Y-2901666D01*
X4811666Y-2968333D01*
X4878333Y-3035000D01*
X4911666Y-3101666D01*
X4711666Y-2268333D02*
X4711666Y-2201666D01*
X4745000Y-2135000D01*
X4778333Y-2101666D01*
X4845000Y-2068333D01*
X4978333Y-2035000D01*
X5145000Y-2035000D01*
X5278333Y-2068333D01*
X5345000Y-2101666D01*
X5378333Y-2135000D01*
X5411666Y-2201666D01*
X5411666Y-2268333D01*
X5378333Y-2335000D01*
X5345000Y-2368333D01*
X5278333Y-2401666D01*
X5145000Y-2435000D01*
X4978333Y-2435000D01*
X4845000Y-2401666D01*
X4778333Y-2368333D01*
X4745000Y-2335000D01*
X4711666Y-2268333D01*
G04 #@! TO.C,C15*
X3690000Y-10845000D02*
X3656666Y-10878333D01*
X3556666Y-10911666D01*
X3490000Y-10911666D01*
X3390000Y-10878333D01*
X3323333Y-10811666D01*
X3290000Y-10745000D01*
X3256666Y-10611666D01*
X3256666Y-10511666D01*
X3290000Y-10378333D01*
X3323333Y-10311666D01*
X3390000Y-10245000D01*
X3490000Y-10211666D01*
X3556666Y-10211666D01*
X3656666Y-10245000D01*
X3690000Y-10278333D01*
X4356666Y-10911666D02*
X3956666Y-10911666D01*
X4156666Y-10911666D02*
X4156666Y-10211666D01*
X4090000Y-10311666D01*
X4023333Y-10378333D01*
X3956666Y-10411666D01*
X4990000Y-10211666D02*
X4656666Y-10211666D01*
X4623333Y-10545000D01*
X4656666Y-10511666D01*
X4723333Y-10478333D01*
X4890000Y-10478333D01*
X4956666Y-10511666D01*
X4990000Y-10545000D01*
X5023333Y-10611666D01*
X5023333Y-10778333D01*
X4990000Y-10845000D01*
X4956666Y-10878333D01*
X4890000Y-10911666D01*
X4723333Y-10911666D01*
X4656666Y-10878333D01*
X4623333Y-10845000D01*
G04 #@! TO.C,C9*
X5368333Y-8870000D02*
X5335000Y-8903333D01*
X5235000Y-8936666D01*
X5168333Y-8936666D01*
X5068333Y-8903333D01*
X5001666Y-8836666D01*
X4968333Y-8770000D01*
X4935000Y-8636666D01*
X4935000Y-8536666D01*
X4968333Y-8403333D01*
X5001666Y-8336666D01*
X5068333Y-8270000D01*
X5168333Y-8236666D01*
X5235000Y-8236666D01*
X5335000Y-8270000D01*
X5368333Y-8303333D01*
X5701666Y-8936666D02*
X5835000Y-8936666D01*
X5901666Y-8903333D01*
X5935000Y-8870000D01*
X6001666Y-8770000D01*
X6035000Y-8636666D01*
X6035000Y-8370000D01*
X6001666Y-8303333D01*
X5968333Y-8270000D01*
X5901666Y-8236666D01*
X5768333Y-8236666D01*
X5701666Y-8270000D01*
X5668333Y-8303333D01*
X5635000Y-8370000D01*
X5635000Y-8536666D01*
X5668333Y-8603333D01*
X5701666Y-8636666D01*
X5768333Y-8670000D01*
X5901666Y-8670000D01*
X5968333Y-8636666D01*
X6001666Y-8603333D01*
X6035000Y-8536666D01*
G04 #@! TO.C,C11*
X8035000Y-10620000D02*
X8068333Y-10653333D01*
X8101666Y-10753333D01*
X8101666Y-10820000D01*
X8068333Y-10920000D01*
X8001666Y-10986666D01*
X7935000Y-11020000D01*
X7801666Y-11053333D01*
X7701666Y-11053333D01*
X7568333Y-11020000D01*
X7501666Y-10986666D01*
X7435000Y-10920000D01*
X7401666Y-10820000D01*
X7401666Y-10753333D01*
X7435000Y-10653333D01*
X7468333Y-10620000D01*
X8101666Y-9953333D02*
X8101666Y-10353333D01*
X8101666Y-10153333D02*
X7401666Y-10153333D01*
X7501666Y-10219999D01*
X7568333Y-10286666D01*
X7601666Y-10353333D01*
X8101666Y-9286666D02*
X8101666Y-9686666D01*
X8101666Y-9486666D02*
X7401666Y-9486666D01*
X7501666Y-9553333D01*
X7568333Y-9620000D01*
X7601666Y-9686666D01*
G04 #@! TO.C,R22*
X23335000Y-11521666D02*
X23101666Y-11188333D01*
X22935000Y-11521666D02*
X22935000Y-10821666D01*
X23201666Y-10821666D01*
X23268333Y-10855000D01*
X23301666Y-10888333D01*
X23335000Y-10955000D01*
X23335000Y-11055000D01*
X23301666Y-11121666D01*
X23268333Y-11155000D01*
X23201666Y-11188333D01*
X22935000Y-11188333D01*
X23601666Y-10888333D02*
X23635000Y-10855000D01*
X23701666Y-10821666D01*
X23868333Y-10821666D01*
X23935000Y-10855000D01*
X23968333Y-10888333D01*
X24001666Y-10955000D01*
X24001666Y-11021666D01*
X23968333Y-11121666D01*
X23568333Y-11521666D01*
X24001666Y-11521666D01*
X24268333Y-10888333D02*
X24301666Y-10855000D01*
X24368333Y-10821666D01*
X24535000Y-10821666D01*
X24601666Y-10855000D01*
X24635000Y-10888333D01*
X24668333Y-10955000D01*
X24668333Y-11021666D01*
X24635000Y-11121666D01*
X24235000Y-11521666D01*
X24668333Y-11521666D01*
G04 #@! TO.C,R21*
X23315000Y-10451666D02*
X23081666Y-10118333D01*
X22915000Y-10451666D02*
X22915000Y-9751666D01*
X23181666Y-9751666D01*
X23248333Y-9785000D01*
X23281666Y-9818333D01*
X23315000Y-9885000D01*
X23315000Y-9985000D01*
X23281666Y-10051666D01*
X23248333Y-10085000D01*
X23181666Y-10118333D01*
X22915000Y-10118333D01*
X23581666Y-9818333D02*
X23615000Y-9785000D01*
X23681666Y-9751666D01*
X23848333Y-9751666D01*
X23915000Y-9785000D01*
X23948333Y-9818333D01*
X23981666Y-9885000D01*
X23981666Y-9951666D01*
X23948333Y-10051666D01*
X23548333Y-10451666D01*
X23981666Y-10451666D01*
X24648333Y-10451666D02*
X24248333Y-10451666D01*
X24448333Y-10451666D02*
X24448333Y-9751666D01*
X24381666Y-9851666D01*
X24315000Y-9918333D01*
X24248333Y-9951666D01*
G04 #@! TO.C,R20*
X23330000Y-9511666D02*
X23096666Y-9178333D01*
X22930000Y-9511666D02*
X22930000Y-8811666D01*
X23196666Y-8811666D01*
X23263333Y-8845000D01*
X23296666Y-8878333D01*
X23330000Y-8945000D01*
X23330000Y-9045000D01*
X23296666Y-9111666D01*
X23263333Y-9145000D01*
X23196666Y-9178333D01*
X22930000Y-9178333D01*
X23596666Y-8878333D02*
X23630000Y-8845000D01*
X23696666Y-8811666D01*
X23863333Y-8811666D01*
X23930000Y-8845000D01*
X23963333Y-8878333D01*
X23996666Y-8945000D01*
X23996666Y-9011666D01*
X23963333Y-9111666D01*
X23563333Y-9511666D01*
X23996666Y-9511666D01*
X24430000Y-8811666D02*
X24496666Y-8811666D01*
X24563333Y-8845000D01*
X24596666Y-8878333D01*
X24630000Y-8945000D01*
X24663333Y-9078333D01*
X24663333Y-9245000D01*
X24630000Y-9378333D01*
X24596666Y-9445000D01*
X24563333Y-9478333D01*
X24496666Y-9511666D01*
X24430000Y-9511666D01*
X24363333Y-9478333D01*
X24330000Y-9445000D01*
X24296666Y-9378333D01*
X24263333Y-9245000D01*
X24263333Y-9078333D01*
X24296666Y-8945000D01*
X24330000Y-8878333D01*
X24363333Y-8845000D01*
X24430000Y-8811666D01*
G04 #@! TO.C,R19*
X23285000Y-8451666D02*
X23051666Y-8118333D01*
X22885000Y-8451666D02*
X22885000Y-7751666D01*
X23151666Y-7751666D01*
X23218333Y-7785000D01*
X23251666Y-7818333D01*
X23285000Y-7885000D01*
X23285000Y-7985000D01*
X23251666Y-8051666D01*
X23218333Y-8085000D01*
X23151666Y-8118333D01*
X22885000Y-8118333D01*
X23951666Y-8451666D02*
X23551666Y-8451666D01*
X23751666Y-8451666D02*
X23751666Y-7751666D01*
X23685000Y-7851666D01*
X23618333Y-7918333D01*
X23551666Y-7951666D01*
X24285000Y-8451666D02*
X24418333Y-8451666D01*
X24485000Y-8418333D01*
X24518333Y-8385000D01*
X24585000Y-8285000D01*
X24618333Y-8151666D01*
X24618333Y-7885000D01*
X24585000Y-7818333D01*
X24551666Y-7785000D01*
X24485000Y-7751666D01*
X24351666Y-7751666D01*
X24285000Y-7785000D01*
X24251666Y-7818333D01*
X24218333Y-7885000D01*
X24218333Y-8051666D01*
X24251666Y-8118333D01*
X24285000Y-8151666D01*
X24351666Y-8185000D01*
X24485000Y-8185000D01*
X24551666Y-8151666D01*
X24585000Y-8118333D01*
X24618333Y-8051666D01*
G04 #@! TO.C,R18*
X23305000Y-7381666D02*
X23071666Y-7048333D01*
X22905000Y-7381666D02*
X22905000Y-6681666D01*
X23171666Y-6681666D01*
X23238333Y-6715000D01*
X23271666Y-6748333D01*
X23305000Y-6815000D01*
X23305000Y-6915000D01*
X23271666Y-6981666D01*
X23238333Y-7015000D01*
X23171666Y-7048333D01*
X22905000Y-7048333D01*
X23971666Y-7381666D02*
X23571666Y-7381666D01*
X23771666Y-7381666D02*
X23771666Y-6681666D01*
X23705000Y-6781666D01*
X23638333Y-6848333D01*
X23571666Y-6881666D01*
X24371666Y-6981666D02*
X24305000Y-6948333D01*
X24271666Y-6915000D01*
X24238333Y-6848333D01*
X24238333Y-6815000D01*
X24271666Y-6748333D01*
X24305000Y-6715000D01*
X24371666Y-6681666D01*
X24505000Y-6681666D01*
X24571666Y-6715000D01*
X24605000Y-6748333D01*
X24638333Y-6815000D01*
X24638333Y-6848333D01*
X24605000Y-6915000D01*
X24571666Y-6948333D01*
X24505000Y-6981666D01*
X24371666Y-6981666D01*
X24305000Y-7015000D01*
X24271666Y-7048333D01*
X24238333Y-7115000D01*
X24238333Y-7248333D01*
X24271666Y-7315000D01*
X24305000Y-7348333D01*
X24371666Y-7381666D01*
X24505000Y-7381666D01*
X24571666Y-7348333D01*
X24605000Y-7315000D01*
X24638333Y-7248333D01*
X24638333Y-7115000D01*
X24605000Y-7048333D01*
X24571666Y-7015000D01*
X24505000Y-6981666D01*
G04 #@! TO.C,R17*
X23315000Y-6361666D02*
X23081666Y-6028333D01*
X22915000Y-6361666D02*
X22915000Y-5661666D01*
X23181666Y-5661666D01*
X23248333Y-5695000D01*
X23281666Y-5728333D01*
X23315000Y-5795000D01*
X23315000Y-5895000D01*
X23281666Y-5961666D01*
X23248333Y-5995000D01*
X23181666Y-6028333D01*
X22915000Y-6028333D01*
X23981666Y-6361666D02*
X23581666Y-6361666D01*
X23781666Y-6361666D02*
X23781666Y-5661666D01*
X23715000Y-5761666D01*
X23648333Y-5828333D01*
X23581666Y-5861666D01*
X24215000Y-5661666D02*
X24681666Y-5661666D01*
X24381666Y-6361666D01*
G04 #@! TO.C,R16*
X23335000Y-5371666D02*
X23101666Y-5038333D01*
X22935000Y-5371666D02*
X22935000Y-4671666D01*
X23201666Y-4671666D01*
X23268333Y-4705000D01*
X23301666Y-4738333D01*
X23335000Y-4805000D01*
X23335000Y-4905000D01*
X23301666Y-4971666D01*
X23268333Y-5005000D01*
X23201666Y-5038333D01*
X22935000Y-5038333D01*
X24001666Y-5371666D02*
X23601666Y-5371666D01*
X23801666Y-5371666D02*
X23801666Y-4671666D01*
X23735000Y-4771666D01*
X23668333Y-4838333D01*
X23601666Y-4871666D01*
X24601666Y-4671666D02*
X24468333Y-4671666D01*
X24401666Y-4705000D01*
X24368333Y-4738333D01*
X24301666Y-4838333D01*
X24268333Y-4971666D01*
X24268333Y-5238333D01*
X24301666Y-5305000D01*
X24335000Y-5338333D01*
X24401666Y-5371666D01*
X24535000Y-5371666D01*
X24601666Y-5338333D01*
X24635000Y-5305000D01*
X24668333Y-5238333D01*
X24668333Y-5071666D01*
X24635000Y-5005000D01*
X24601666Y-4971666D01*
X24535000Y-4938333D01*
X24401666Y-4938333D01*
X24335000Y-4971666D01*
X24301666Y-5005000D01*
X24268333Y-5071666D01*
G04 #@! TO.C,R15*
X23335000Y-4391666D02*
X23101666Y-4058333D01*
X22935000Y-4391666D02*
X22935000Y-3691666D01*
X23201666Y-3691666D01*
X23268333Y-3725000D01*
X23301666Y-3758333D01*
X23335000Y-3825000D01*
X23335000Y-3925000D01*
X23301666Y-3991666D01*
X23268333Y-4025000D01*
X23201666Y-4058333D01*
X22935000Y-4058333D01*
X24001666Y-4391666D02*
X23601666Y-4391666D01*
X23801666Y-4391666D02*
X23801666Y-3691666D01*
X23735000Y-3791666D01*
X23668333Y-3858333D01*
X23601666Y-3891666D01*
X24635000Y-3691666D02*
X24301666Y-3691666D01*
X24268333Y-4025000D01*
X24301666Y-3991666D01*
X24368333Y-3958333D01*
X24535000Y-3958333D01*
X24601666Y-3991666D01*
X24635000Y-4025000D01*
X24668333Y-4091666D01*
X24668333Y-4258333D01*
X24635000Y-4325000D01*
X24601666Y-4358333D01*
X24535000Y-4391666D01*
X24368333Y-4391666D01*
X24301666Y-4358333D01*
X24268333Y-4325000D01*
G04 #@! TO.C,TP17*
X22378333Y-250866D02*
X22778333Y-250866D01*
X22578333Y-950866D02*
X22578333Y-250866D01*
X23011666Y-950866D02*
X23011666Y-250866D01*
X23278333Y-250866D01*
X23345000Y-284200D01*
X23378333Y-317533D01*
X23411666Y-384200D01*
X23411666Y-484200D01*
X23378333Y-550866D01*
X23345000Y-584200D01*
X23278333Y-617533D01*
X23011666Y-617533D01*
X24078333Y-950866D02*
X23678333Y-950866D01*
X23878333Y-950866D02*
X23878333Y-250866D01*
X23811666Y-350866D01*
X23745000Y-417533D01*
X23678333Y-450866D01*
X24311666Y-250866D02*
X24778333Y-250866D01*
X24478333Y-950866D01*
G04 #@! TD*
M02*
