G04 #@! TF.GenerationSoftware,KiCad,Pcbnew,5.0.2+dfsg1-1~bpo9+1*
G04 #@! TF.CreationDate,2019-10-28T12:01:42+01:00*
G04 #@! TF.ProjectId,zglue-jade-adapter,7a676c75-652d-46a6-9164-652d61646170,rev?*
G04 #@! TF.SameCoordinates,Original*
G04 #@! TF.FileFunction,Legend,Bot*
G04 #@! TF.FilePolarity,Positive*
%FSLAX46Y46*%
G04 Gerber Fmt 4.6, Leading zero omitted, Abs format (unit mm)*
G04 Created by KiCad (PCBNEW 5.0.2+dfsg1-1~bpo9+1) date Mon 28 Oct 2019 12:01:42 PM CET*
%MOMM*%
%LPD*%
G01*
G04 APERTURE LIST*
%ADD10C,0.150000*%
G04 APERTURE END LIST*
D10*
G04 #@! TO.C,J1*
X6848800Y-3278980D02*
X6848800Y-2678980D01*
X6848800Y-2678980D02*
X648800Y-2678980D01*
X648800Y-2678980D02*
X648800Y-3278980D01*
X653600Y-16766380D02*
X653600Y-17366380D01*
X6853600Y-17366380D02*
X6853600Y-16766380D01*
X653600Y-17366380D02*
X6853600Y-17366380D01*
G04 #@! TO.C,J2*
X24348800Y-3278980D02*
X24348800Y-2678980D01*
X24348800Y-2678980D02*
X18148800Y-2678980D01*
X18148800Y-2678980D02*
X18148800Y-3278980D01*
X18153600Y-16766380D02*
X18153600Y-17366380D01*
X24353600Y-17366380D02*
X24353600Y-16766380D01*
X18153600Y-17366380D02*
X24353600Y-17366380D01*
G04 #@! TO.C,J1*
X1978333Y-18121666D02*
X1978333Y-18621666D01*
X2011666Y-18721666D01*
X2078333Y-18788333D01*
X2178333Y-18821666D01*
X2245000Y-18821666D01*
X1278333Y-18821666D02*
X1678333Y-18821666D01*
X1478333Y-18821666D02*
X1478333Y-18121666D01*
X1545000Y-18221666D01*
X1611666Y-18288333D01*
X1678333Y-18321666D01*
G04 #@! TO.C,J2*
X18978333Y-18121666D02*
X18978333Y-18621666D01*
X19011666Y-18721666D01*
X19078333Y-18788333D01*
X19178333Y-18821666D01*
X19245000Y-18821666D01*
X18678333Y-18188333D02*
X18645000Y-18155000D01*
X18578333Y-18121666D01*
X18411666Y-18121666D01*
X18345000Y-18155000D01*
X18311666Y-18188333D01*
X18278333Y-18255000D01*
X18278333Y-18321666D01*
X18311666Y-18421666D01*
X18711666Y-18821666D01*
X18278333Y-18821666D01*
G04 #@! TD*
M02*
