M48
;DRILL file {KiCad 5.0.2+dfsg1-1~bpo9+1} date Tue 05 Nov 2019 12:23:46 PM CET
;FORMAT={-:-/ absolute / metric / decimal}
FMAT,2
METRIC,TZ
T1C0.200
%
G90
G05
T1
X0.565Y-17.195
X0.79Y-1.09
X1.745Y-19.235
X1.934Y-6.726
X1.965Y-10.645
X1.996Y-11.229
X2.014Y-7.676
X2.055Y-8.235
X2.115Y-12.865
X2.162Y-13.752
X2.441Y-10.334
X2.448Y-9.761
X2.462Y-9.13
X2.642Y-6.908
X3.079Y-8.214
X3.104Y-6.465
X3.579Y-10.455
X3.735Y-16.315
X3.744Y-12.385
X3.885Y-11.455
X3.946Y-3.521
X4.031Y-6.445
X4.098Y-13.775
X4.098Y-14.415
X4.265Y-18.005
X4.33Y-18.71
X4.385Y-3.035
X4.39Y-7.23
X4.4Y-5.352
X4.477Y-4.826
X4.566Y-14.065
X4.625Y-11.239
X4.675Y-12.325
X4.676Y-5.884
X4.777Y-13.576
X4.802Y-9.025
X4.82Y-6.8
X4.891Y-12.985
X4.996Y-7.971
X5.005Y-18.628
X5.064Y-5.496
X5.206Y-14.006
X5.54Y-6.69
X5.55Y-8.678
X5.885Y-18.765
X6.485Y-18.695
X7.282Y-15.988
X7.307Y-15.074
X7.36Y-14.265
X7.465Y-18.991
X7.502Y-6.782
X7.545Y-5.265
X7.699Y-10.049
X7.825Y-18.555
X7.855Y-4.488
X7.885Y-9.551
X7.902Y-14.902
X7.95Y-11.738
X8.014Y-16.046
X8.033Y-11.17
X8.108Y-6.782
X8.16Y-2.45
X8.242Y-9.945
X8.245Y-18.195
X8.269Y-5.265
X8.341Y-12.66
X8.522Y-8.711
X8.577Y-8.181
X8.725Y-2.755
X8.76Y-1.27
X8.912Y-15.778
X8.937Y-7.428
X8.959Y-9.064
X8.97Y-0.61
X8.995Y-17.811
X9.045Y-16.955
X9.225Y-1.529
X9.242Y-3.746
X9.242Y-4.303
X9.375Y-4.915
X9.405Y-18.595
X9.535Y-16.505
X9.705Y-2.789
X9.759Y-18.165
X9.786Y-14.851
X10.095Y-3.744
X10.5Y-4.98
X10.675Y-18.549
X10.77Y-1.42
X10.805Y-3.815
X10.805Y-4.415
X10.872Y-11.784
X10.875Y-8.22
X11.289Y-14.917
X11.475Y-8.215
X11.485Y-18.565
X11.506Y-11.794
X11.523Y-17.811
X11.808Y-15.447
X12.074Y-0.694
X12.119Y-11.804
X12.175Y-7.525
X12.175Y-8.21
X12.175Y-12.388
X12.285Y-18.587
X12.3Y-4.12
X12.355Y-1.775
X12.555Y-2.315
X12.58Y-15.225
X12.766Y-11.855
X12.825Y-7.525
X12.827Y-12.384
X12.85Y-8.225
X13.08Y-15.815
X13.135Y-17.479
X13.355Y-3.945
X13.371Y-12.479
X13.475Y-8.2
X13.609Y-11.72
X13.678Y-4.815
X13.746Y-1.574
X13.906Y-15.486
X14.125Y-8.195
X14.204Y-11.745
X14.405Y-15.99
X14.606Y-4.415
X14.943Y-2.116
X15.02Y-15.315
X15.22Y-16.021
X15.358Y-4.295
X15.648Y-1.912
X15.693Y-17.871
X15.737Y-17.257
X15.905Y-3.125
X15.916Y-9.137
X15.935Y-18.345
X15.968Y-15.953
X16.25Y-6.21
X16.275Y-2.085
X16.305Y-5.625
X16.335Y-9.465
X16.356Y-4.304
X16.415Y-1.35
X16.575Y-8.152
X16.675Y-14.365
X16.815Y-7.225
X16.881Y-9.419
X17.Y-7.744
X17.003Y-6.308
X17.005Y-19.205
X17.065Y-8.429
X17.069Y-13.971
X17.168Y-4.9
X17.175Y-4.355
X17.212Y-14.742
X17.364Y-18.304
X17.505Y-3.845
X17.525Y-6.875
X17.538Y-5.305
X17.545Y-11.955
X17.564Y-8.954
X17.588Y-9.544
X17.625Y-10.965
X17.63Y-8.37
X17.699Y-4.776
X18.065Y-2.712
X18.275Y-18.645
X18.985Y-2.665
X19.146Y-19.584
X19.395Y-11.305
X19.432Y-8.504
X19.475Y-6.945
X19.63Y-10.79
X19.675Y-15.245
X19.7Y-16.938
X19.7Y-3.74
X19.7Y-12.49
X19.707Y-4.5
X19.725Y-11.845
X19.966Y-9.351
X20.005Y-6.995
X20.119Y-8.817
X20.15Y-4.09
X20.24Y-4.65
X20.449Y-5.312
X20.512Y-8.423
X20.53Y-2.09
X20.535Y-6.875
X20.555Y-10.435
X20.608Y-11.115
X20.609Y-16.938
X20.642Y-4.292
X20.7Y-11.77
X20.815Y-15.685
X21.075Y-16.335
X21.2Y-12.311
X21.235Y-14.695
X22.163Y-14.155
X22.198Y-12.62
X22.511Y-17.401
X22.755Y-1.815
X22.816Y-7.242
X22.84Y-6.263
X22.96Y-11.043
X23.102Y-5.726
X23.124Y-8.221
X23.124Y-8.774
X23.124Y-9.34
X23.124Y-10.43
X23.126Y-6.774
X23.154Y-9.871
X23.185Y-7.693
X10.95Y-8.85
X10.95Y-10.
X10.95Y-11.15
X11.85Y-8.85
X11.9Y-10.
X11.9Y-11.15
X13.1Y-8.85
X13.1Y-10.
X13.1Y-11.15
X14.05Y-8.85
X14.05Y-10.
X14.05Y-11.15
T0
M30
